<?xml version="1.0" encoding="UTF-8" standalone="no"?>
<svg
   xmlns:dc="http://purl.org/dc/elements/1.1/"
   xmlns:cc="http://creativecommons.org/ns#"
   xmlns:rdf="http://www.w3.org/1999/02/22-rdf-syntax-ns#"
   xmlns:svg="http://www.w3.org/2000/svg"
   xmlns="http://www.w3.org/2000/svg"
   viewBox="0 0 136.06267 71.432797"
   height="71.4328"
   width="136.06267"
   xml:space="preserve"
   id="svg2"
   version="1.1"><metadata
     id="metadata8"><rdf:RDF><cc:Work
         rdf:about=""><dc:format>image/svg+xml</dc:format><dc:type
           rdf:resource="http://purl.org/dc/dcmitype/StillImage" /></cc:Work></rdf:RDF></metadata><defs
     id="defs6"><clipPath
       id="clipPath20"
       clipPathUnits="userSpaceOnUse"><path
         id="path18"
         d="M 0,0 H 1020.47 V 535.746 H 0 Z" /></clipPath></defs><g
     transform="matrix(1.3333333,0,0,-1.3333333,0,71.432798)"
     id="g10"><g
       transform="scale(0.1)"
       id="g12"><g
         id="g14"><g
           clip-path="url(#clipPath20)"
           id="g16"><path
             id="path22"
             style="fill:#ffffff;fill-opacity:1;fill-rule:nonzero;stroke:none"
             d="M 2.5,2.49609 V 533.25 H 1017.97 V 2.49609 H 2.5" /><path
             id="path24"
             style="fill:#231f20;fill-opacity:1;fill-rule:nonzero;stroke:none"
             d="M 1020.47,535.746 H 0 V 0 h 1020.47 z m -5,-5 V 5.00391 H 5 V 530.746 h 1010.47" /><path
             id="path26"
             style="fill:#231f20;fill-opacity:1;fill-rule:nonzero;stroke:none"
             d="M 349.695,191.855 C 333.164,147.914 299.605,112.234 256.984,92.6406 H 994.867 V 191.855 H 349.695" /><path
             id="path28"
             style="fill:#231f20;fill-opacity:1;fill-rule:nonzero;stroke:none"
             d="m 384.941,506.57 h 11.512 v -21.832 h 13.434 v 21.832 h 11.515 v -57.09 h -11.515 v 25.344 H 396.453 V 449.48 h -11.512 v 57.09" /><path
             id="path30"
             style="fill:#231f20;fill-opacity:1;fill-rule:nonzero;stroke:none"
             d="m 431.504,492.496 h 11.035 V 449.48 h -11.035 z m 0,14.711 h 11.035 v -9.434 h -11.035 v 9.434" /><path
             id="path32"
             style="fill:#231f20;fill-opacity:1;fill-rule:nonzero;stroke:none"
             d="m 467.973,458.434 c 4.64,0 5.996,5.039 5.996,12.312 0,10.477 -1.356,14.391 -5.758,14.391 -4.875,0 -5.754,-3.914 -5.754,-15.508 0,-5.918 0.879,-11.195 5.516,-11.195 z m 16.547,34.062 v -40.859 c 0,-11.352 -5.032,-16.871 -17.911,-16.871 -9.347,0 -14.629,4.16 -14.629,11.515 h 10.555 c 0,-1.441 0.637,-2.558 1.68,-3.277 1.039,-0.723 2.316,-1.203 3.676,-1.203 4.476,0 6.078,3.363 6.078,7.758 v 5.675 h -0.16 c -2.239,-3.195 -5.68,-5.277 -9.196,-5.277 -8.793,0 -13.191,5.996 -13.191,21.746 0,10.074 1.516,21.91 13.516,21.91 3.035,0 6.789,-1.437 8.871,-5.918 h 0.16 v 4.801 h 10.551" /><path
             id="path34"
             style="fill:#231f20;fill-opacity:1;fill-rule:nonzero;stroke:none"
             d="m 494.301,506.57 h 11.035 v -18.472 h 0.16 c 2.078,3.675 5.836,5.515 10.477,5.515 6.867,0 10.949,-3.758 10.949,-12.23 V 449.48 h -11.027 v 29.661 c 0,4.316 -1.442,5.996 -4.723,5.996 -3.754,0 -5.836,-2.317 -5.836,-7.114 V 449.48 h -11.035 v 57.09" /><path
             id="path36"
             style="fill:#231f20;fill-opacity:1;fill-rule:nonzero;stroke:none"
             d="m 557.898,492.496 h 11.036 V 449.48 h -11.036 z m 0,14.711 h 11.036 v -9.434 h -11.036 v 9.434" /><path
             id="path38"
             style="fill:#231f20;fill-opacity:1;fill-rule:nonzero;stroke:none"
             d="m 578.699,492.496 h 10.559 v -5.039 h 0.156 c 2.313,4.238 6.316,6.156 10.957,6.156 6.875,0 10.945,-3.758 10.945,-12.23 V 449.48 h -11.035 v 29.661 c 0,4.316 -1.433,5.996 -4.715,5.996 -3.75,0 -5.832,-2.317 -5.832,-7.114 V 449.48 h -11.035 v 43.016" /><path
             id="path40"
             style="fill:#231f20;fill-opacity:1;fill-rule:nonzero;stroke:none"
             d="m 656.055,507.688 h 8.953 l -18.074,-59.329 h -8.957 l 18.078,59.329" /><path
             id="path42"
             style="fill:#231f20;fill-opacity:1;fill-rule:nonzero;stroke:none"
             d="m 707.324,521.438 h 11.035 l -7.832,-11.516 h -7.519 z m 16.551,-14.868 v -9.441 h -20.391 v -13.426 h 19.192 v -9.437 h -19.192 v -15.352 h 21.192 v -9.434 h -32.703 v 57.09 h 31.902" /><path
             id="path44"
             style="fill:#231f20;fill-opacity:1;fill-rule:nonzero;stroke:none"
             d="m 732.539,506.57 h 11.035 v -57.09 h -11.035 v 57.09" /><path
             id="path46"
             style="fill:#231f20;fill-opacity:1;fill-rule:nonzero;stroke:none"
             d="m 774.043,475.867 c -0.246,6.555 -1.047,10.235 -5.598,10.235 -4.402,0 -5.683,-4.563 -5.683,-8.559 v -1.676 z m -11.281,-6.558 v -3.438 c 0,-5.039 1.367,-9.996 5.441,-9.996 3.68,0 5.195,2.797 5.84,8.078 h 9.91 c -0.398,-9.996 -5.195,-15.594 -15.586,-15.594 -15.996,0 -16.629,12.317 -16.629,23.028 0,11.515 2.235,22.226 17.11,22.226 12.871,0 15.75,-8.633 15.75,-21.824 v -2.48 h -21.836" /><path
             id="path48"
             style="fill:#231f20;fill-opacity:1;fill-rule:nonzero;stroke:none"
             d="m 812.762,492.496 h 11.035 L 813.008,449.48 h -12.793 l -11.113,43.016 h 11.511 l 6.153,-30.785 h 0.156 l 5.84,30.785" /><path
             id="path50"
             style="fill:#231f20;fill-opacity:1;fill-rule:nonzero;stroke:none"
             d="m 843.887,509.043 h 11.035 l -7.844,-11.512 h -7.508 z m 6.707,-33.176 c -0.235,6.555 -1.035,10.235 -5.594,10.235 -4.395,0 -5.676,-4.563 -5.676,-8.559 v -1.676 z m -11.27,-6.558 v -3.438 c 0,-5.039 1.36,-9.996 5.442,-9.996 3.672,0 5.195,2.797 5.828,8.078 h 9.922 c -0.399,-9.996 -5.203,-15.594 -15.594,-15.594 -15.988,0 -16.629,12.317 -16.629,23.028 0,11.515 2.234,22.226 17.105,22.226 12.872,0 15.754,-8.633 15.754,-21.824 v -2.48 h -21.828" /><path
             id="path52"
             style="fill:#231f20;fill-opacity:1;fill-rule:nonzero;stroke:none"
             d="m 910.84,475.867 c -0.235,6.555 -1.035,10.235 -5.598,10.235 -4.394,0 -5.672,-4.563 -5.672,-8.559 v -1.676 z m -11.27,-6.558 v -3.438 c 0,-5.039 1.356,-9.996 5.438,-9.996 3.672,0 5.195,2.797 5.832,8.078 h 9.922 c -0.403,-9.996 -5.207,-15.594 -15.594,-15.594 -15.988,0 -16.633,12.317 -16.633,23.028 0,11.515 2.235,22.226 17.11,22.226 12.871,0 15.75,-8.633 15.75,-21.824 v -2.48 H 899.57" /><path
             id="path54"
             style="fill:#231f20;fill-opacity:1;fill-rule:nonzero;stroke:none"
             d="m 929.168,492.496 h 10.559 v -5.039 h 0.156 c 2.324,4.238 6.316,6.156 10.957,6.156 6.875,0 10.957,-3.758 10.957,-12.23 V 449.48 h -11.035 v 29.661 c 0,4.316 -1.438,5.996 -4.719,5.996 -3.758,0 -5.84,-2.317 -5.84,-7.114 V 449.48 h -11.035 v 43.016" /><path
             id="path56"
             style="fill:#231f20;fill-opacity:1;fill-rule:nonzero;stroke:none"
             d="m 168.48,26.5508 h -6.167 V 50.6406 H 145.156 V 26.5508 h -6.164 v 50.0078 h 6.164 V 56.1094 h 17.157 v 20.4492 h 6.167 V 26.5508" /><path
             id="path58"
             style="fill:#231f20;fill-opacity:1;fill-rule:nonzero;stroke:none"
             d="m 194.863,49.2461 v 2.0312 c 0,4.1993 -1.332,9.168 -6.515,9.168 -6.164,0 -6.864,-7.5586 -6.864,-9.8047 v -1.3945 z m -13.59,-4.6211 c 0,-5.7422 0,-14.4336 7.211,-14.4336 5.606,0 6.379,5.8867 6.379,8.6914 h 5.883 c 0,-3.9922 -2.383,-13.3086 -12.605,-13.3086 -9.176,0 -13.028,6.3672 -13.028,19.2539 0,9.3867 1.821,20.2461 13.371,20.2461 11.493,0 12.539,-10.0195 12.539,-18.0781 V 44.625 h -19.75" /><path
             id="path60"
             style="fill:#231f20;fill-opacity:1;fill-rule:nonzero;stroke:none"
             d="m 224.676,46.9961 c -2.168,-2.3008 -7.352,-2.793 -10.012,-4.4023 -1.891,-1.1915 -2.871,-2.6641 -2.871,-5.9571 0,-3.7773 1.332,-6.4453 5.32,-6.4453 3.852,0 7.563,3.293 7.563,7.1484 z M 206.539,52.75 c 0,8.5469 3.641,12.3242 12.606,12.3242 11.418,0 11.418,-6.8633 11.418,-10.789 V 33.3477 c 0,-1.543 0,-3.0079 1.82,-3.0079 0.769,0 1.121,0.1368 1.402,0.3399 v -4.1992 c -0.422,-0.0664 -1.961,-0.3516 -3.433,-0.3516 -2.243,0 -5.039,0 -5.325,4.8359 h -0.14 c -1.891,-3.3593 -5.532,-5.3906 -9.032,-5.3906 -7.003,0 -10.226,4.1992 -10.226,10.9258 0,5.2539 2.242,8.8867 7.074,10.3633 l 7.918,2.3828 c 4.266,1.3281 4.266,2.5195 4.266,5.6719 0,3.4961 -2.098,5.5273 -6.02,5.5273 -6.445,0 -6.445,-6.0156 -6.445,-7.3515 V 52.75 h -5.883" /><path
             id="path62"
             style="fill:#231f20;fill-opacity:1;fill-rule:nonzero;stroke:none"
             d="m 238.883,76.5586 h 5.879 V 26.5508 h -5.879 v 50.0078" /><path
             id="path64"
             style="fill:#231f20;fill-opacity:1;fill-rule:nonzero;stroke:none"
             d="m 254.555,75.0156 h 5.883 V 64.0898 h 6.515 v -4.621 h -6.515 V 35.3789 c 0,-3.0078 0.773,-4.1992 3.855,-4.1992 1.258,0 1.961,0.1367 2.59,0.2031 v -4.832 c -0.77,-0.1367 -2.309,-0.4219 -4.758,-0.4219 -6.094,0 -7.57,2.5195 -7.57,7.4219 v 25.918 h -5.457 v 4.621 h 5.457 v 10.9258" /><path
             id="path66"
             style="fill:#231f20;fill-opacity:1;fill-rule:nonzero;stroke:none"
             d="m 270.938,76.5586 h 5.882 V 59.8203 h 0.137 c 1.543,3.0781 5.676,5.2539 9.039,5.2539 9.664,0 9.664,-7.5 9.664,-11.9023 V 26.5508 h -5.887 v 25.918 c 0,2.871 -0.207,7.5585 -5.531,7.5585 -3.148,0 -7.422,-2.1015 -7.422,-7.5585 v -25.918 h -5.882 v 50.0078" /><path
             id="path68"
             style="fill:#231f20;fill-opacity:1;fill-rule:nonzero;stroke:none"
             d="m 350.961,43.707 c -0.563,-9.4531 -4.273,-18.1328 -15.195,-18.1328 -14.219,0 -16.114,13.3789 -16.114,25.9844 0,12.6055 2.317,25.9766 16.114,25.9766 10.226,0 14.496,-5.7422 14.777,-15.5469 h -6.445 c -0.137,5.6758 -1.961,10.5078 -8.332,10.5078 -8.543,0 -9.668,-9.3828 -9.668,-20.9375 0,-11.5625 1.125,-20.9453 9.668,-20.9453 7.492,0 8.547,7 8.754,13.0937 h 6.441" /><path
             id="path70"
             style="fill:#231f20;fill-opacity:1;fill-rule:nonzero;stroke:none"
             d="m 373.699,46.9961 c -2.168,-2.3008 -7.351,-2.793 -10.011,-4.4023 -1.891,-1.1915 -2.872,-2.6641 -2.872,-5.9571 0,-3.7773 1.332,-6.4453 5.321,-6.4453 3.851,0 7.562,3.293 7.562,7.1484 z M 355.563,52.75 c 0,8.5469 3.64,12.3242 12.605,12.3242 11.418,0 11.418,-6.8633 11.418,-10.789 V 33.3477 c 0,-1.543 0,-3.0079 1.82,-3.0079 0.77,0 1.121,0.1368 1.403,0.3399 v -4.1992 c -0.422,-0.0664 -1.961,-0.3516 -3.434,-0.3516 -2.242,0 -5.039,0 -5.324,4.8359 h -0.141 c -1.89,-3.3593 -5.531,-5.3906 -9.031,-5.3906 -7.004,0 -10.227,4.1992 -10.227,10.9258 0,5.2539 2.243,8.8867 7.075,10.3633 l 7.918,2.3828 c 4.265,1.3281 4.265,2.5195 4.265,5.6719 0,3.4961 -2.097,5.5273 -6.019,5.5273 -6.446,0 -6.446,-6.0156 -6.446,-7.3515 V 52.75 h -5.882" /><path
             id="path72"
             style="fill:#231f20;fill-opacity:1;fill-rule:nonzero;stroke:none"
             d="m 387.555,64.0898 h 5.597 v -4.4062 h 0.145 c 1.543,3.4297 5.461,5.3906 9.105,5.3906 9.871,0 9.871,-7.5 9.871,-11.9023 V 26.5508 h -5.882 v 25.918 c 0,2.871 -0.211,7.5585 -5.532,7.5585 -3.148,0 -7.421,-2.1015 -7.421,-7.5585 v -25.918 h -5.883 v 37.539" /><path
             id="path74"
             style="fill:#231f20;fill-opacity:1;fill-rule:nonzero;stroke:none"
             d="m 437.191,46.9961 c -2.168,-2.3008 -7.351,-2.793 -10.015,-4.4023 -1.887,-1.1915 -2.871,-2.6641 -2.871,-5.9571 0,-3.7773 1.336,-6.4453 5.324,-6.4453 3.851,0 7.562,3.293 7.562,7.1484 z m -18.14,5.7539 c 0,8.5469 3.644,12.3242 12.609,12.3242 11.414,0 11.414,-6.8633 11.414,-10.789 V 33.3477 c 0,-1.543 0,-3.0079 1.824,-3.0079 0.77,0 1.122,0.1368 1.399,0.3399 v -4.1992 c -0.418,-0.0664 -1.957,-0.3516 -3.43,-0.3516 -2.242,0 -5.039,0 -5.324,4.8359 h -0.137 c -1.894,-3.3593 -5.535,-5.3906 -9.039,-5.3906 -7,0 -10.222,4.1992 -10.222,10.9258 0,5.2539 2.242,8.8867 7.074,10.3633 l 7.914,2.3828 c 4.273,1.3281 4.273,2.5195 4.273,5.6719 0,3.4961 -2.105,5.5273 -6.023,5.5273 -6.445,0 -6.445,-6.0156 -6.445,-7.3515 V 52.75 h -5.887" /><path
             id="path76"
             style="fill:#231f20;fill-opacity:1;fill-rule:nonzero;stroke:none"
             d="m 462.672,30.6133 c 6.512,0 7.562,6.1601 7.562,14.707 0,7.2852 -1.261,14.707 -7.562,14.707 -5.465,0 -6.867,-5.7421 -6.867,-14.707 0,-8.9648 1.402,-14.707 6.867,-14.707 z m 13.094,-4.0625 h -5.598 v 4.6289 h -0.145 c -0.769,-2.8047 -4.062,-5.6055 -8.125,-5.6055 -8.89,0 -12.253,7.9102 -12.253,19.7461 0,7.8516 1.257,19.7539 11.835,19.7539 3.364,0 6.934,-2.0312 8.266,-5.2539 h 0.137 v 16.7383 h 5.883 V 26.5508" /><path
             id="path78"
             style="fill:#231f20;fill-opacity:1;fill-rule:nonzero;stroke:none"
             d="m 500.684,46.9961 c -2.168,-2.3008 -7.356,-2.793 -10.016,-4.4023 -1.891,-1.1915 -2.871,-2.6641 -2.871,-5.9571 0,-3.7773 1.332,-6.4453 5.324,-6.4453 3.852,0 7.563,3.293 7.563,7.1484 z M 482.543,52.75 c 0,8.5469 3.645,12.3242 12.609,12.3242 11.414,0 11.414,-6.8633 11.414,-10.789 V 33.3477 c 0,-1.543 0,-3.0079 1.821,-3.0079 0.773,0 1.125,0.1368 1.402,0.3399 v -4.1992 c -0.418,-0.0664 -1.957,-0.3516 -3.434,-0.3516 -2.238,0 -5.039,0 -5.32,4.8359 h -0.14 c -1.891,-3.3593 -5.536,-5.3906 -9.036,-5.3906 -7,0 -10.222,4.1992 -10.222,10.9258 0,5.2539 2.238,8.8867 7.074,10.3633 l 7.914,2.3828 c 4.27,1.3281 4.27,2.5195 4.27,5.6719 0,3.4961 -2.102,5.5273 -6.024,5.5273 -6.445,0 -6.445,-6.0156 -6.445,-7.3515 V 52.75 h -5.883" /><path
             id="path80"
             style="fill:#231f20;fill-opacity:1;fill-rule:nonzero;stroke:none"
             d="m 543.027,77.5352 h 4.629 l -16.25,-51.961 h -4.621 l 16.242,51.961" /><path
             id="path82"
             style="fill:#231f20;fill-opacity:1;fill-rule:nonzero;stroke:none"
             d="m 589.023,63.6016 c 0,5.2539 -1.886,8.8945 -7.773,8.8945 -5.187,0 -8.262,-2.8008 -8.262,-8.125 0,-14.0703 23.602,-5.6719 23.602,-23.957 0,-11.5508 -8.477,-14.8399 -15.547,-14.8399 -11.699,0 -15.125,6.0235 -15.125,16.668 h 6.16 c 0,-5.6055 0.352,-11.6289 9.387,-11.6289 4.902,0 8.68,3.5039 8.68,8.8281 0,14.1484 -23.602,5.9453 -23.602,24.3047 0,4.6211 1.961,13.7891 14.637,13.7891 9.523,0 13.867,-4.7539 14.004,-13.9336 h -6.161" /><path
             id="path84"
             style="fill:#231f20;fill-opacity:1;fill-rule:nonzero;stroke:none"
             d="m 619.824,46.9961 c -2.168,-2.3008 -7.355,-2.793 -10.019,-4.4023 -1.887,-1.1915 -2.871,-2.6641 -2.871,-5.9571 0,-3.7773 1.336,-6.4453 5.32,-6.4453 3.859,0 7.57,3.293 7.57,7.1484 z M 601.68,52.75 c 0,8.5469 3.64,12.3242 12.605,12.3242 11.418,0 11.418,-6.8633 11.418,-10.789 V 33.3477 c 0,-1.543 0,-3.0079 1.824,-3.0079 0.774,0 1.125,0.1368 1.399,0.3399 v -4.1992 c -0.422,-0.0664 -1.953,-0.3516 -3.43,-0.3516 -2.246,0 -5.035,0 -5.32,4.8359 h -0.149 c -1.882,-3.3593 -5.527,-5.3906 -9.031,-5.3906 -7.004,0 -10.226,4.1992 -10.226,10.9258 0,5.2539 2.246,8.8867 7.082,10.3633 l 7.91,2.3828 c 4.265,1.3281 4.265,2.5195 4.265,5.6719 0,3.4961 -2.097,5.5273 -6.015,5.5273 -6.446,0 -6.446,-6.0156 -6.446,-7.3515 V 52.75 h -5.886" /><path
             id="path86"
             style="fill:#231f20;fill-opacity:1;fill-rule:nonzero;stroke:none"
             d="m 633.672,64.0898 h 5.605 v -4.4062 h 0.137 c 1.543,3.4297 5.469,5.3906 9.109,5.3906 9.875,0 9.875,-7.5 9.875,-11.9023 V 26.5508 h -5.89 v 25.918 c 0,2.871 -0.203,7.5585 -5.528,7.5585 -3.152,0 -7.421,-2.1015 -7.421,-7.5585 v -25.918 h -5.887 v 37.539" /><path
             id="path88"
             style="fill:#231f20;fill-opacity:1;fill-rule:nonzero;stroke:none"
             d="m 667.832,75.0156 h 5.887 V 64.0898 h 6.515 v -4.621 h -6.515 V 35.3789 c 0,-3.0078 0.773,-4.1992 3.847,-4.1992 1.262,0 1.965,0.1367 2.602,0.2031 v -4.832 c -0.773,-0.1367 -2.316,-0.4219 -4.77,-0.4219 -6.093,0 -7.566,2.5195 -7.566,7.4219 v 25.918 h -5.461 v 4.621 h 5.461 v 10.9258" /><path
             id="path90"
             style="fill:#231f20;fill-opacity:1;fill-rule:nonzero;stroke:none"
             d="m 697.313,79.2266 h 6.867 l -7.571,-9.9532 h -4.199 z m 5.39,-29.9805 v 2.0312 c 0,4.1993 -1.328,9.168 -6.512,9.168 -6.164,0 -6.867,-7.5586 -6.867,-9.8047 V 49.2461 Z M 689.121,44.625 c 0,-5.7422 0,-14.4336 7.207,-14.4336 5.606,0 6.375,5.8867 6.375,8.6914 h 5.891 c 0,-3.9922 -2.383,-13.3086 -12.61,-13.3086 -9.179,0 -13.023,6.3672 -13.023,19.2539 0,9.3867 1.812,20.2461 13.367,20.2461 11.492,0 12.539,-10.0195 12.539,-18.0781 V 44.625 h -19.746" /><path
             id="path92"
             style="fill:#231f20;fill-opacity:1;fill-rule:nonzero;stroke:none"
             d="m 762.91,43.707 c -0.558,-9.4531 -4.269,-18.1328 -15.195,-18.1328 -14.219,0 -16.113,13.3789 -16.113,25.9844 0,12.6055 2.316,25.9766 16.113,25.9766 10.223,0 14.5,-5.7422 14.773,-15.5469 h -6.445 c -0.137,5.6758 -1.953,10.5078 -8.328,10.5078 -8.547,0 -9.668,-9.3828 -9.668,-20.9375 0,-11.5625 1.121,-20.9453 9.668,-20.9453 7.488,0 8.543,7 8.758,13.0937 h 6.437" /><path
             id="path94"
             style="fill:#231f20;fill-opacity:1;fill-rule:nonzero;stroke:none"
             d="m 785.652,46.9961 c -2.168,-2.3008 -7.351,-2.793 -10.019,-4.4023 -1.883,-1.1915 -2.871,-2.6641 -2.871,-5.9571 0,-3.7773 1.34,-6.4453 5.324,-6.4453 3.855,0 7.566,3.293 7.566,7.1484 z M 767.508,52.75 c 0,8.5469 3.644,12.3242 12.609,12.3242 11.414,0 11.414,-6.8633 11.414,-10.789 V 33.3477 c 0,-1.543 0,-3.0079 1.828,-3.0079 0.77,0 1.121,0.1368 1.395,0.3399 v -4.1992 c -0.418,-0.0664 -1.953,-0.3516 -3.426,-0.3516 -2.246,0 -5.039,0 -5.324,4.8359 h -0.145 c -1.886,-3.3593 -5.527,-5.3906 -9.035,-5.3906 -7,0 -10.222,4.1992 -10.222,10.9258 0,5.2539 2.246,8.8867 7.078,10.3633 l 7.91,2.3828 c 4.269,1.3281 4.269,2.5195 4.269,5.6719 0,3.4961 -2.101,5.5273 -6.015,5.5273 -6.446,0 -6.446,-6.0156 -6.446,-7.3515 V 52.75 h -5.89" /><path
             id="path96"
             style="fill:#231f20;fill-opacity:1;fill-rule:nonzero;stroke:none"
             d="m 799.5,64.0898 h 5.605 v -4.4062 h 0.137 c 1.543,3.4297 5.469,5.3906 9.113,5.3906 9.872,0 9.872,-7.5 9.872,-11.9023 V 26.5508 h -5.887 v 25.918 c 0,2.871 -0.207,7.5585 -5.527,7.5585 -3.157,0 -7.422,-2.1015 -7.422,-7.5585 V 26.5508 H 799.5 v 37.539" /><path
             id="path98"
             style="fill:#231f20;fill-opacity:1;fill-rule:nonzero;stroke:none"
             d="m 849.141,46.9961 c -2.168,-2.3008 -7.356,-2.793 -10.012,-4.4023 -1.895,-1.1915 -2.871,-2.6641 -2.871,-5.9571 0,-3.7773 1.328,-6.4453 5.324,-6.4453 3.848,0 7.559,3.293 7.559,7.1484 z M 831.004,52.75 c 0,8.5469 3.644,12.3242 12.609,12.3242 11.414,0 11.414,-6.8633 11.414,-10.789 V 33.3477 c 0,-1.543 0,-3.0079 1.817,-3.0079 0.773,0 1.125,0.1368 1.406,0.3399 v -4.1992 c -0.418,-0.0664 -1.961,-0.3516 -3.437,-0.3516 -2.235,0 -5.04,0 -5.321,4.8359 h -0.137 c -1.894,-3.3593 -5.539,-5.3906 -9.035,-5.3906 -7,0 -10.222,4.1992 -10.222,10.9258 0,5.2539 2.238,8.8867 7.07,10.3633 l 7.918,2.3828 c 4.269,1.3281 4.269,2.5195 4.269,5.6719 0,3.4961 -2.101,5.5273 -6.027,5.5273 -6.445,0 -6.445,-6.0156 -6.445,-7.3515 V 52.75 h -5.879" /><path
             id="path100"
             style="fill:#231f20;fill-opacity:1;fill-rule:nonzero;stroke:none"
             d="m 874.617,30.6133 c 6.516,0 7.571,6.1601 7.571,14.707 0,7.2852 -1.262,14.707 -7.571,14.707 -5.457,0 -6.863,-5.7421 -6.863,-14.707 0,-8.9648 1.406,-14.707 6.863,-14.707 z m 13.098,-4.0625 h -5.598 v 4.6289 h -0.144 c -0.774,-2.8047 -4.063,-5.6055 -8.125,-5.6055 -8.887,0 -12.258,7.9102 -12.258,19.7461 0,7.8516 1.262,19.7539 11.836,19.7539 3.371,0 6.933,-2.0312 8.273,-5.2539 h 0.137 v 16.7383 h 5.879 V 26.5508" /><path
             id="path102"
             style="fill:#231f20;fill-opacity:1;fill-rule:nonzero;stroke:none"
             d="m 912.637,46.9961 c -2.168,-2.3008 -7.356,-2.793 -10.02,-4.4023 -1.887,-1.1915 -2.871,-2.6641 -2.871,-5.9571 0,-3.7773 1.34,-6.4453 5.32,-6.4453 3.86,0 7.571,3.293 7.571,7.1484 z M 894.492,52.75 c 0,8.5469 3.641,12.3242 12.606,12.3242 11.418,0 11.418,-6.8633 11.418,-10.789 V 33.3477 c 0,-1.543 0,-3.0079 1.824,-3.0079 0.773,0 1.125,0.1368 1.398,0.3399 v -4.1992 c -0.422,-0.0664 -1.953,-0.3516 -3.429,-0.3516 -2.246,0 -5.039,0 -5.321,4.8359 h -0.148 c -1.883,-3.3593 -5.527,-5.3906 -9.031,-5.3906 -7.004,0 -10.223,4.1992 -10.223,10.9258 0,5.2539 2.242,8.8867 7.078,10.3633 l 7.91,2.3828 c 4.266,1.3281 4.266,2.5195 4.266,5.6719 0,3.4961 -2.098,5.5273 -6.016,5.5273 -6.445,0 -6.445,-6.0156 -6.445,-7.3515 V 52.75 h -5.887" /><path
             id="path104"
             style="fill:#ffffff;fill-opacity:1;fill-rule:nonzero;stroke:none"
             d="m 396.156,132.125 v -1.68 c 0,-5.351 1.52,-8.789 7.598,-8.789 3.516,0 6.875,2.239 6.875,7.032 0,5.195 -2.637,7.121 -10.234,9.757 -10.235,3.516 -14.95,7.754 -14.95,17.266 0,11.113 6.797,16.797 17.668,16.797 10.235,0 17.672,-4.406 17.672,-15.352 v -1.601 H 409.75 c 0,5.359 -1.84,8.476 -6.234,8.476 -5.2,0 -6.559,-3.285 -6.559,-6.64 0,-3.52 1.039,-5.676 5.918,-7.754 l 8.871,-3.84 c 8.641,-3.758 10.875,-8.152 10.875,-15.106 0,-12.082 -7.351,-17.511 -19.828,-17.511 -13.031,0 -18.148,6.074 -18.148,16.633 v 2.312 h 11.511" /><path
             id="path106"
             style="fill:#ffffff;fill-opacity:1;fill-rule:nonzero;stroke:none"
             d="m 445.594,120.691 c 4.48,0 5.918,4.403 5.918,15.118 0,10.711 -1.438,15.105 -5.918,15.105 -5.434,0 -5.918,-6.316 -5.918,-15.105 0,-8.801 0.484,-15.118 5.918,-15.118 z m 0,37.743 c 13.273,0.234 16.949,-7.676 16.949,-22.625 0,-14.719 -4.316,-22.629 -16.949,-22.629 -13.27,-0.242 -16.946,7.675 -16.946,22.629 0,14.707 4.317,22.625 16.946,22.625" /><path
             id="path108"
             style="fill:#ffffff;fill-opacity:1;fill-rule:nonzero;stroke:none"
             d="m 486.23,121.656 c 4.879,0 5.836,4.797 5.836,14.153 0,9.355 -0.957,14.148 -5.836,14.148 -4.796,0 -5.757,-4.793 -5.757,-14.148 0,-9.356 0.961,-14.153 5.757,-14.153 z m 6.317,-2.801 h -0.16 c -2.399,-3.996 -5.438,-5.675 -9.754,-5.675 -9.035,0 -13.195,6.633 -13.195,22.629 0,15.984 4.16,22.625 13.195,22.625 4.16,0 6.957,-1.68 9.277,-5.118 h 0.156 v 18.067 h 11.036 v -57.09 h -10.555 v 4.562" /><path
             id="path110"
             style="fill:#ffffff;fill-opacity:1;fill-rule:nonzero;stroke:none"
             d="m 512.879,157.313 h 11.039 v -43.02 h -11.039 z m 0,14.714 h 11.039 v -9.433 h -11.039 v 9.433" /><path
             id="path112"
             style="fill:#ffffff;fill-opacity:1;fill-rule:nonzero;stroke:none"
             d="m 555.742,119.332 h -0.156 c -2.324,-4.238 -6.32,-6.152 -10.957,-6.152 -6.875,0 -10.957,3.75 -10.957,12.226 v 31.907 h 11.035 v -29.661 c 0,-4.324 1.445,-5.996 4.715,-5.996 3.762,0 5.84,2.317 5.84,7.11 v 28.547 h 11.035 v -43.02 h -10.555 v 5.039" /><path
             id="path114"
             style="fill:#ffffff;fill-opacity:1;fill-rule:nonzero;stroke:none"
             d="m 575.672,157.313 h 10.558 v -4.399 h 0.157 c 2.801,3.918 6.238,5.52 10.879,5.52 5.039,0 8.711,-2.481 9.91,-6.875 h 0.168 c 1.679,4.55 5.672,6.875 10.867,6.875 7.277,0 10.715,-4.563 10.715,-12.871 v -31.27 h -11.035 v 30.07 c 0,3.59 -1.192,5.594 -4.317,5.594 -3.515,0 -5.754,-2.402 -5.754,-7.352 v -28.312 h -11.035 v 30.07 c 0,3.59 -1.199,5.594 -4.316,5.594 -3.524,0 -5.758,-2.402 -5.758,-7.352 v -28.312 h -11.039 v 43.02" /><path
             id="path116"
             style="fill:#231f20;fill-opacity:1;fill-rule:nonzero;stroke:none"
             d="m 250.141,420.219 c 44.875,-18.403 80.535,-54.348 98.363,-99.215 h 646.363 v 99.215 H 250.141" /><path
             id="path118"
             style="fill:#ffffff;fill-opacity:1;fill-rule:nonzero;stroke:none"
             d="m 357.547,209.324 c 3.933,14.942 5.926,30.262 5.926,45.614 0,16.445 -2.258,32.777 -6.719,48.597 H 992.363 V 209.324 H 357.547" /><path
             id="path120"
             style="fill:#231f20;fill-opacity:1;fill-rule:nonzero;stroke:none"
             d="M 994.867,306.035 H 353.418 c 4.891,-16.187 7.555,-33.332 7.555,-51.101 0,-16.68 -2.368,-32.801 -6.7,-48.11 h 640.594 z m -5.004,-5 V 211.824 H 360.762 c 3.461,14.145 5.211,28.617 5.211,43.11 0,15.578 -2,31.054 -5.95,46.101 h 629.84" /><path
             id="path122"
             style="fill:#ffffff;fill-opacity:1;fill-rule:nonzero;stroke:none"
             d="m 396.156,360.191 v -1.679 c 0,-5.356 1.52,-8.797 7.598,-8.797 3.516,0 6.875,2.238 6.875,7.039 0,5.195 -2.637,7.113 -10.234,9.75 -10.235,3.523 -14.95,7.762 -14.95,17.273 0,11.114 6.797,16.789 17.668,16.789 10.235,0 17.672,-4.398 17.672,-15.351 v -1.594 H 409.75 c 0,5.356 -1.84,8.469 -6.234,8.469 -5.2,0 -6.559,-3.274 -6.559,-6.637 0,-3.512 1.039,-5.672 5.918,-7.75 l 8.871,-3.84 c 8.641,-3.758 10.875,-8.152 10.875,-15.113 0,-12.074 -7.351,-17.508 -19.828,-17.508 -13.031,0 -18.148,6.074 -18.148,16.629 v 2.32 h 11.511" /><path
             id="path124"
             style="fill:#ffffff;fill-opacity:1;fill-rule:nonzero;stroke:none"
             d="m 450.152,363.867 c -1.519,-1.117 -3.355,-1.84 -4.718,-2.156 -4.477,-0.965 -6.235,-3.121 -6.235,-6.957 0,-3.277 1.199,-5.996 4.156,-5.996 2.958,0 6.797,1.918 6.797,6.633 z m -20.148,8.317 v 1.039 c 0,9.914 6.797,13.273 15.113,13.273 13.11,0 15.59,-5.433 15.59,-13.195 v -22.625 c 0,-4 0.238,-5.836 1.359,-8.317 h -10.554 c -0.719,1.36 -1.039,3.039 -1.36,4.477 h -0.156 c -2.558,-4.477 -5.68,-5.594 -10.957,-5.594 -7.676,0 -10.391,6.559 -10.391,12.309 0,8.078 3.274,11.359 10.868,13.437 l 6.242,1.676 c 3.273,0.883 4.394,2.164 4.394,5.039 0,3.277 -1.437,5.277 -5.117,5.277 -3.355,0 -5.117,-2.242 -5.117,-5.593 v -1.203 h -9.914" /><path
             id="path126"
             style="fill:#ffffff;fill-opacity:1;fill-rule:nonzero;stroke:none"
             d="m 472.965,397.691 h 11.027 v -12.312 h 6.399 v -7.52 h -6.399 V 354.59 c 0,-3.352 0.723,-4.715 3.922,-4.715 0.879,0 1.758,0.082 2.477,0.16 v -7.676 c -2.399,-0.238 -4.633,-0.476 -7.192,-0.476 -8.64,0 -10.234,2.637 -10.234,11.351 v 24.625 h -5.602 v 7.52 h 5.602 v 12.312" /><path
             id="path128"
             style="fill:#ffffff;fill-opacity:1;fill-rule:nonzero;stroke:none"
             d="m 519.836,377.859 h -5.594 v 7.52 h 5.594 v 4.875 c 0,7.754 4.402,10.312 11.512,10.312 2,0 3.925,-0.078 5.918,-0.238 v -7.836 c -0.715,0.082 -1.438,0.082 -2.161,0.082 -3.113,0 -4.238,-0.961 -4.238,-3.441 v -3.754 h 6.399 v -7.52 h -6.399 v -35.5 h -11.031 v 35.5" /><path
             id="path130"
             style="fill:#ffffff;fill-opacity:1;fill-rule:nonzero;stroke:none"
             d="m 561.59,363.867 c -1.524,-1.117 -3.36,-1.84 -4.715,-2.156 -4.484,-0.965 -6.242,-3.121 -6.242,-6.957 0,-3.277 1.203,-5.996 4.16,-5.996 2.961,0 6.797,1.918 6.797,6.633 z m -20.145,8.317 v 1.039 c 0,9.914 6.797,13.273 15.106,13.273 13.117,0 15.597,-5.433 15.597,-13.195 v -22.625 c 0,-4 0.235,-5.836 1.356,-8.317 h -10.555 c -0.722,1.36 -1.035,3.039 -1.359,4.477 h -0.156 c -2.559,-4.477 -5.684,-5.594 -10.957,-5.594 -7.676,0 -10.399,6.559 -10.399,12.309 0,8.078 3.281,11.359 10.879,13.437 l 6.238,1.676 c 3.274,0.883 4.395,2.164 4.395,5.039 0,3.277 -1.434,5.277 -5.117,5.277 -3.36,0 -5.118,-2.242 -5.118,-5.593 v -1.203 h -9.91" /><path
             id="path132"
             style="fill:#ffffff;fill-opacity:1;fill-rule:nonzero;stroke:none"
             d="m 584.395,397.691 h 11.035 v -12.312 h 6.394 v -7.52 H 595.43 V 354.59 c 0,-3.352 0.722,-4.715 3.925,-4.715 0.879,0 1.758,0.082 2.469,0.16 v -7.676 c -2.39,-0.238 -4.636,-0.476 -7.195,-0.476 -8.633,0 -10.234,2.637 -10.234,11.351 v 24.625 h -5.598 v 7.52 h 5.598 v 12.312" /><path
             id="path134"
             style="fill:#ffffff;fill-opacity:1;fill-rule:nonzero;stroke:none"
             d="m 643.035,400.566 h 8.957 l -18.074,-59.324 h -8.957 l 18.074,59.324" /><path
             id="path136"
             style="fill:#ffffff;fill-opacity:1;fill-rule:nonzero;stroke:none"
             d="m 704.305,382.496 c 0,4.238 -1.914,9.594 -6.551,9.594 -5.598,0 -7.844,-5.754 -7.844,-19.985 0,-13.753 1.281,-22.39 7.922,-22.39 2.715,0 7.117,2.957 7.117,9.113 v 5.84 h -7.597 v 8.473 h 18.625 v -30.782 h -8.469 v 5.278 h -0.164 c -2.715,-4.477 -6.633,-6.395 -11.992,-6.395 -14.153,0 -16.954,10.551 -16.954,30.301 0,19.191 4.481,29.023 19.188,29.023 12.637,0 17.754,-6.472 17.754,-18.07 h -11.035" /><path
             id="path138"
             style="fill:#ffffff;fill-opacity:1;fill-rule:nonzero;stroke:none"
             d="m 725.117,385.379 h 10.555 v -5.758 h 0.156 c 2.238,4.156 5.363,6.875 9.914,6.875 0.645,0 1.356,-0.078 2,-0.16 v -10.555 c -1.121,0.078 -2.324,0.164 -3.437,0.164 -3.836,0 -8.153,-2.004 -8.153,-7.761 v -25.825 h -11.035 v 43.02" /><path
             id="path140"
             style="fill:#ffffff;fill-opacity:1;fill-rule:nonzero;stroke:none"
             d="m 773.816,363.867 c -1.511,-1.117 -3.347,-1.84 -4.714,-2.156 -4.473,-0.965 -6.231,-3.121 -6.231,-6.957 0,-3.277 1.199,-5.996 4.149,-5.996 2.96,0 6.796,1.918 6.796,6.633 z m -20.144,8.317 v 1.039 c 0,9.914 6.797,13.273 15.117,13.273 13.106,0 15.586,-5.433 15.586,-13.195 v -22.625 c 0,-4 0.242,-5.836 1.355,-8.317 h -10.546 c -0.723,1.36 -1.043,3.039 -1.368,4.477 h -0.156 c -2.558,-4.477 -5.672,-5.594 -10.957,-5.594 -7.676,0 -10.39,6.559 -10.39,12.309 0,8.078 3.281,11.359 10.871,13.437 l 6.238,1.676 c 3.281,0.883 4.394,2.164 4.394,5.039 0,3.277 -1.433,5.277 -5.117,5.277 -3.347,0 -5.113,-2.242 -5.113,-5.593 v -1.203 h -9.914" /><path
             id="path142"
             style="fill:#ffffff;fill-opacity:1;fill-rule:nonzero;stroke:none"
             d="m 802.305,356.434 v -1.442 c 0,-3.754 2,-6.234 5.761,-6.234 3.36,0 5.594,1.68 5.594,5.113 0,2.801 -1.836,4.078 -3.992,4.879 l -7.766,2.801 c -6.074,2.156 -9.187,5.918 -9.187,11.988 0,7.121 4.473,12.957 15.828,12.957 9.992,0 14.707,-4.476 14.707,-12.23 V 372.5 h -9.91 c 0,4.324 -1.281,6.48 -4.875,6.48 -2.801,0 -5.195,-1.601 -5.195,-4.636 0,-2.082 1.113,-3.84 4.796,-5.039 l 6.629,-2.239 c 6.965,-2.32 9.524,-5.839 9.524,-12.312 0,-9.035 -6.719,-13.512 -15.996,-13.512 -12.395,0 -15.832,5.434 -15.832,13.672 v 1.52 h 9.914" /><path
             id="path144"
             style="fill:#ffffff;fill-opacity:1;fill-rule:nonzero;stroke:none"
             d="m 861.023,356.434 v -1.442 c 0,-3.754 1.993,-6.234 5.754,-6.234 3.36,0 5.594,1.68 5.594,5.113 0,2.801 -1.836,4.078 -3.992,4.879 l -7.754,2.801 c -6.074,2.156 -9.199,5.918 -9.199,11.988 0,7.121 4.48,12.957 15.828,12.957 10,0 14.719,-4.476 14.719,-12.23 V 372.5 h -9.914 c 0,4.324 -1.278,6.48 -4.883,6.48 -2.793,0 -5.196,-1.601 -5.196,-4.636 0,-2.082 1.125,-3.84 4.797,-5.039 l 6.641,-2.239 c 6.953,-2.32 9.512,-5.839 9.512,-12.312 0,-9.035 -6.719,-13.512 -15.989,-13.512 -12.39,0 -15.828,5.434 -15.828,13.672 v 1.52 h 9.91" /><path
             id="path146"
             style="fill:#ffffff;fill-opacity:1;fill-rule:nonzero;stroke:none"
             d="m 910.535,363.867 c -1.523,-1.117 -3.359,-1.84 -4.715,-2.156 -4.484,-0.965 -6.242,-3.121 -6.242,-6.957 0,-3.277 1.203,-5.996 4.16,-5.996 2.961,0 6.797,1.918 6.797,6.633 z m -20.144,8.317 v 1.039 c 0,9.914 6.797,13.273 15.105,13.273 13.117,0 15.598,-5.433 15.598,-13.195 v -22.625 c 0,-4 0.234,-5.836 1.355,-8.317 h -10.554 c -0.723,1.36 -1.036,3.039 -1.36,4.477 h -0.156 c -2.559,-4.477 -5.684,-5.594 -10.957,-5.594 -7.676,0 -10.399,6.559 -10.399,12.309 0,8.078 3.282,11.359 10.879,13.437 l 6.239,1.676 c 3.273,0.883 4.394,2.164 4.394,5.039 0,3.277 -1.433,5.277 -5.117,5.277 -3.359,0 -5.117,-2.242 -5.117,-5.593 v -1.203 h -9.91" /><path
             id="path148"
             style="fill:#ffffff;fill-opacity:1;fill-rule:nonzero;stroke:none"
             d="m 933.34,397.691 h 11.035 v -12.312 h 6.395 v -7.52 h -6.395 V 354.59 c 0,-3.352 0.723,-4.715 3.918,-4.715 0.875,0 1.754,0.082 2.477,0.16 v -7.676 c -2.403,-0.238 -4.637,-0.476 -7.196,-0.476 -8.633,0 -10.234,2.637 -10.234,11.351 v 24.625 h -5.598 v 7.52 h 5.598 v 12.312" /><path
             id="path150"
             style="fill:#ffffff;fill-opacity:1;fill-rule:nonzero;stroke:none"
             d="m 967.82,354.828 v -12.469 h -10.554 v 12.469 h 10.554" /><path
             id="path152"
             style="fill:#231f20;fill-opacity:1;fill-rule:nonzero;stroke:none"
             d="m 269.469,202.988 c -29.52,-50.285 -94.266,-67.144 -144.496,-37.621 -50.2855,29.516 -67.1527,94.321 -37.6332,144.606 29.5232,50.23 93.7692,66.972 144.6092,37.578 50.836,-29.336 67.098,-94.328 37.52,-144.563 z m -20.184,175.02 C 182.234,417.402 96.7578,395.102 57.3086,328.039 22.8125,268.516 35.9922,194.113 86.0898,150.98 L 29.6836,56.1992 C 24.0742,46.625 27.5781,34.3047 37.3828,29.1133 L 50.918,21.9492 c 9.3281,-4.9375 20.8945,-1.5547 26.0898,7.6289 l 53.5042,95.2769 c 62.703,-22.57 134.074,2.137 168.742,61.172 39.336,67.047 17.141,152.594 -49.969,191.981" /></g></g></g></g></svg>