<?xml version="1.0" encoding="UTF-8" standalone="no"?>
<svg
   xmlns:dc="http://purl.org/dc/elements/1.1/"
   xmlns:cc="http://creativecommons.org/ns#"
   xmlns:rdf="http://www.w3.org/1999/02/22-rdf-syntax-ns#"
   xmlns:svg="http://www.w3.org/2000/svg"
   xmlns="http://www.w3.org/2000/svg"
   viewBox="0 0 94.487999 32.125998"
   height="32.125999"
   width="94.487999"
   xml:space="preserve"
   id="svg2"
   version="1.1"><metadata
     id="metadata8"><rdf:RDF><cc:Work
         rdf:about=""><dc:format>image/svg+xml</dc:format><dc:type
           rdf:resource="http://purl.org/dc/dcmitype/StillImage" /></cc:Work></rdf:RDF></metadata><defs
     id="defs6"><clipPath
       id="clipPath20"
       clipPathUnits="userSpaceOnUse"><path
         id="path18"
         d="M 0,0 H 708.66 V 240.945 H 0 Z" /></clipPath></defs><g
     transform="matrix(1.3333333,0,0,-1.3333333,0,32.125999)"
     id="g10"><g
       transform="scale(0.1)"
       id="g12"><g
         id="g14"><g
           clip-path="url(#clipPath20)"
           id="g16"><path
             id="path22"
             style="fill:#ffffff;fill-opacity:1;fill-rule:nonzero;stroke:none"
             d="M 2.49609,2.50391 V 238.441 H 706.16 V 2.50391 H 2.49609" /><path
             id="path24"
             style="fill:#231f20;fill-opacity:1;fill-rule:nonzero;stroke:none"
             d="M 708.66,240.945 H 0 V 0 h 708.66 z m -5,-5 V 5 H 5 v 230.945 h 698.66" /><path
             id="path26"
             style="fill:#231f20;fill-opacity:1;fill-rule:nonzero;stroke:none"
             d="M 45.5195,19.9883 H 40.2383 V 40.6211 H 25.5469 V 19.9883 h -5.2774 v 42.8203 h 5.2774 V 45.3008 h 14.6914 v 17.5078 h 5.2812 V 19.9883" /><path
             id="path28"
             style="fill:#231f20;fill-opacity:1;fill-rule:nonzero;stroke:none"
             d="m 68.1445,39.4219 v 1.7383 c 0,3.5937 -1.1406,7.8515 -5.5742,7.8515 -5.2812,0 -5.8789,-6.4765 -5.8789,-8.3906 V 39.4219 Z M 56.5078,35.4648 c 0,-4.9218 0,-12.3515 6.1797,-12.3515 4.7969,0 5.457,5.0273 5.457,7.4297 h 5.0352 c 0,-3.418 -2.0352,-11.3946 -10.793,-11.3946 -7.8554,0 -11.1562,5.4571 -11.1562,16.4922 0,8.0391 1.5625,17.336 11.457,17.336 9.832,0 10.7305,-8.586 10.7305,-15.4805 V 35.4648 H 56.5078" /><path
             id="path30"
             style="fill:#231f20;fill-opacity:1;fill-rule:nonzero;stroke:none"
             d="m 93.6992,37.4961 c -1.8594,-1.9727 -6.2969,-2.3906 -8.5781,-3.7773 -1.6133,-1.0157 -2.457,-2.2774 -2.457,-5.0977 0,-3.2344 1.1406,-5.5078 4.5586,-5.5078 3.3007,0 6.4765,2.8125 6.4765,6.1133 z M 78.168,42.418 c 0,7.3164 3.1172,10.5586 10.7929,10.5586 9.7735,0 9.7735,-5.8789 9.7735,-9.2383 V 25.8086 c 0,-1.3203 0,-2.5781 1.5626,-2.5781 0.66,0 0.957,0.1172 1.195,0.3008 v -3.6016 c -0.355,-0.0586 -1.6756,-0.3047 -2.9373,-0.3047 -1.918,0 -4.3164,0 -4.5547,4.1406 h -0.1211 c -1.6172,-2.8789 -4.7383,-4.6172 -7.7344,-4.6172 -5.9961,0 -8.7578,3.6016 -8.7578,9.3555 0,4.5 1.9219,7.6172 6.0586,8.875 l 6.7735,2.043 c 3.6601,1.1328 3.6601,2.1562 3.6601,4.8515 0,3 -1.8008,4.7383 -5.1562,4.7383 -5.5196,0 -5.5196,-5.1562 -5.5196,-6.289 V 42.418 H 78.168" /><path
             id="path32"
             style="fill:#231f20;fill-opacity:1;fill-rule:nonzero;stroke:none"
             d="m 105.891,62.8086 h 5.039 V 19.9883 h -5.039 v 42.8203" /><path
             id="path34"
             style="fill:#231f20;fill-opacity:1;fill-rule:nonzero;stroke:none"
             d="m 119.324,61.4922 h 5.039 v -9.3555 h 5.578 v -3.9648 h -5.578 v -20.625 c 0,-2.5781 0.66,-3.5938 3.301,-3.5938 1.082,0 1.676,0.1172 2.219,0.1758 v -4.1406 c -0.66,-0.1172 -1.977,-0.3633 -4.078,-0.3633 -5.219,0 -6.481,2.1602 -6.481,6.3594 v 22.1875 h -4.672 v 3.9648 h 4.672 v 9.3555" /><path
             id="path36"
             style="fill:#231f20;fill-opacity:1;fill-rule:nonzero;stroke:none"
             d="m 133.363,62.8086 h 5.039 V 48.4727 h 0.125 c 1.317,2.6367 4.852,4.5039 7.735,4.5039 8.273,0 8.273,-6.418 8.273,-10.1953 v -22.793 h -5.039 v 22.1875 c 0,2.4609 -0.18,6.4726 -4.734,6.4726 -2.699,0 -6.36,-1.7968 -6.36,-6.4726 V 19.9883 h -5.039 v 42.8203" /><path
             id="path38"
             style="fill:#231f20;fill-opacity:1;fill-rule:nonzero;stroke:none"
             d="m 201.93,34.6836 c -0.481,-8.0938 -3.657,-15.5352 -13.016,-15.5352 -12.172,0 -13.785,11.4532 -13.785,22.2461 0,10.8008 1.976,22.2539 13.785,22.2539 8.758,0 12.414,-4.9218 12.656,-13.3203 h -5.515 c -0.121,4.8633 -1.68,8.9961 -7.141,8.9961 -7.312,0 -8.273,-8.0273 -8.273,-17.9297 0,-9.8945 0.961,-17.9297 8.273,-17.9297 6.418,0 7.316,5.9961 7.496,11.2188 h 5.52" /><path
             id="path40"
             style="fill:#231f20;fill-opacity:1;fill-rule:nonzero;stroke:none"
             d="m 221.441,37.4961 c -1.863,-1.9727 -6.3,-2.3906 -8.578,-3.7773 -1.617,-1.0157 -2.457,-2.2774 -2.457,-5.0977 0,-3.2344 1.137,-5.5078 4.555,-5.5078 3.301,0 6.48,2.8125 6.48,6.1133 z m -15.535,4.9219 c 0,7.3164 3.117,10.5586 10.793,10.5586 9.778,0 9.778,-5.8789 9.778,-9.2383 V 25.8086 c 0,-1.3203 0,-2.5781 1.558,-2.5781 0.66,0 0.957,0.1172 1.199,0.3008 v -3.6016 c -0.355,-0.0586 -1.679,-0.3047 -2.941,-0.3047 -1.918,0 -4.316,0 -4.555,4.1406 h -0.117 c -1.621,-2.8789 -4.742,-4.6172 -7.738,-4.6172 -5.996,0 -8.754,3.6016 -8.754,9.3555 0,4.5 1.918,7.6172 6.059,8.875 l 6.773,2.043 c 3.66,1.1328 3.66,2.1562 3.66,4.8515 0,3 -1.801,4.7383 -5.16,4.7383 -5.52,0 -5.52,-5.1562 -5.52,-6.289 V 42.418 h -5.035" /><path
             id="path42"
             style="fill:#231f20;fill-opacity:1;fill-rule:nonzero;stroke:none"
             d="m 233.32,52.1367 h 4.801 v -3.7812 h 0.121 c 1.321,2.9414 4.672,4.6211 7.793,4.6211 8.457,0 8.457,-6.418 8.457,-10.1953 v -22.793 h -5.039 v 22.1875 c 0,2.4609 -0.18,6.4726 -4.734,6.4726 -2.703,0 -6.36,-1.7968 -6.36,-6.4726 V 19.9883 h -5.039 v 32.1484" /><path
             id="path44"
             style="fill:#231f20;fill-opacity:1;fill-rule:nonzero;stroke:none"
             d="m 275.859,37.4961 c -1.859,-1.9727 -6.296,-2.3906 -8.578,-3.7773 -1.617,-1.0157 -2.457,-2.2774 -2.457,-5.0977 0,-3.2344 1.137,-5.5078 4.555,-5.5078 3.301,0 6.48,2.8125 6.48,6.1133 z m -15.531,4.9219 c 0,7.3164 3.113,10.5586 10.789,10.5586 9.778,0 9.778,-5.8789 9.778,-9.2383 V 25.8086 c 0,-1.3203 0,-2.5781 1.562,-2.5781 0.656,0 0.957,0.1172 1.195,0.3008 v -3.6016 c -0.355,-0.0586 -1.679,-0.3047 -2.937,-0.3047 -1.922,0 -4.317,0 -4.559,4.1406 h -0.121 c -1.617,-2.8789 -4.734,-4.6172 -7.734,-4.6172 -5.996,0 -8.754,3.6016 -8.754,9.3555 0,4.5 1.918,7.6172 6.058,8.875 l 6.774,2.043 c 3.656,1.1328 3.656,2.1562 3.656,4.8515 0,3 -1.797,4.7383 -5.156,4.7383 -5.516,0 -5.516,-5.1562 -5.516,-6.289 V 42.418 h -5.035" /><path
             id="path46"
             style="fill:#231f20;fill-opacity:1;fill-rule:nonzero;stroke:none"
             d="m 297.695,23.4648 c 5.578,0 6.481,5.2813 6.481,12.5977 0,6.2383 -1.086,12.5859 -6.481,12.5859 -4.675,0 -5.875,-4.9101 -5.875,-12.5859 0,-7.6758 1.2,-12.5977 5.875,-12.5977 z m 11.215,-3.4765 h -4.797 v 3.9648 h -0.121 c -0.656,-2.4023 -3.48,-4.8047 -6.957,-4.8047 -7.617,0 -10.492,6.7774 -10.492,16.9141 0,6.7188 1.078,16.9141 10.133,16.9141 2.879,0 5.937,-1.7383 7.078,-4.5039 h 0.117 v 14.3359 h 5.039 V 19.9883" /><path
             id="path48"
             style="fill:#231f20;fill-opacity:1;fill-rule:nonzero;stroke:none"
             d="m 330.277,37.4961 c -1.859,-1.9727 -6.297,-2.3906 -8.578,-3.7773 -1.617,-1.0157 -2.457,-2.2774 -2.457,-5.0977 0,-3.2344 1.141,-5.5078 4.559,-5.5078 3.301,0 6.476,2.8125 6.476,6.1133 z m -15.531,4.9219 c 0,7.3164 3.117,10.5586 10.789,10.5586 9.778,0 9.778,-5.8789 9.778,-9.2383 V 25.8086 c 0,-1.3203 0,-2.5781 1.562,-2.5781 0.66,0 0.957,0.1172 1.195,0.3008 v -3.6016 c -0.355,-0.0586 -1.679,-0.3047 -2.937,-0.3047 -1.918,0 -4.317,0 -4.559,4.1406 h -0.113 c -1.621,-2.8789 -4.742,-4.6172 -7.742,-4.6172 -5.996,0 -8.754,3.6016 -8.754,9.3555 0,4.5 1.918,7.6172 6.058,8.875 l 6.774,2.043 c 3.664,1.1328 3.664,2.1562 3.664,4.8515 0,3 -1.805,4.7383 -5.164,4.7383 -5.516,0 -5.516,-5.1562 -5.516,-6.289 V 42.418 h -5.035" /><path
             id="path50"
             style="fill:#231f20;fill-opacity:1;fill-rule:nonzero;stroke:none"
             d="m 366.57,63.6484 h 3.957 l -13.906,-44.5 h -3.961 l 13.91,44.5" /><path
             id="path52"
             style="fill:#231f20;fill-opacity:1;fill-rule:nonzero;stroke:none"
             d="m 405.996,51.7148 c 0,4.4922 -1.621,7.6094 -6.66,7.6094 -4.434,0 -7.078,-2.3945 -7.078,-6.9531 0,-12.0508 20.215,-4.8555 20.215,-20.5078 0,-9.8945 -7.258,-12.7149 -13.321,-12.7149 -10.011,0 -12.953,5.1563 -12.953,14.2774 h 5.278 c 0,-4.8047 0.3,-9.961 8.035,-9.961 4.199,0 7.441,2.9961 7.441,7.5586 0,12.1172 -20.215,5.0977 -20.215,20.8086 0,3.9571 1.68,11.8164 12.539,11.8164 8.157,0 11.875,-4.082 11.993,-11.9336 h -5.274" /><path
             id="path54"
             style="fill:#231f20;fill-opacity:1;fill-rule:nonzero;stroke:none"
             d="m 432.395,37.4961 c -1.86,-1.9727 -6.301,-2.3906 -8.575,-3.7773 -1.625,-1.0157 -2.461,-2.2774 -2.461,-5.0977 0,-3.2344 1.141,-5.5078 4.559,-5.5078 3.301,0 6.477,2.8125 6.477,6.1133 z m -15.532,4.9219 c 0,7.3164 3.117,10.5586 10.793,10.5586 9.778,0 9.778,-5.8789 9.778,-9.2383 V 25.8086 c 0,-1.3203 0,-2.5781 1.558,-2.5781 0.656,0 0.957,0.1172 1.196,0.3008 v -3.6016 c -0.352,-0.0586 -1.68,-0.3047 -2.942,-0.3047 -1.914,0 -4.316,0 -4.551,4.1406 h -0.117 c -1.621,-2.8789 -4.746,-4.6172 -7.742,-4.6172 -5.996,0 -8.75,3.6016 -8.75,9.3555 0,4.5 1.91,7.6172 6.055,8.875 l 6.777,2.043 c 3.66,1.1328 3.66,2.1562 3.66,4.8515 0,3 -1.805,4.7383 -5.168,4.7383 -5.515,0 -5.515,-5.1562 -5.515,-6.289 V 42.418 h -5.032" /><path
             id="path56"
             style="fill:#231f20;fill-opacity:1;fill-rule:nonzero;stroke:none"
             d="m 444.277,52.1367 h 4.793 v -3.7812 h 0.129 c 1.321,2.9414 4.668,4.6211 7.793,4.6211 8.457,0 8.457,-6.418 8.457,-10.1953 v -22.793 h -5.039 v 22.1875 c 0,2.4609 -0.183,6.4726 -4.734,6.4726 -2.707,0 -6.36,-1.7968 -6.36,-6.4726 V 19.9883 h -5.039 v 32.1484" /><path
             id="path58"
             style="fill:#231f20;fill-opacity:1;fill-rule:nonzero;stroke:none"
             d="m 473.555,61.4922 h 5.039 v -9.3555 h 5.578 v -3.9648 h -5.578 v -20.625 c 0,-2.5781 0.652,-3.5938 3.301,-3.5938 1.074,0 1.671,0.1172 2.218,0.1758 v -4.1406 c -0.668,-0.1172 -1.984,-0.3633 -4.086,-0.3633 -5.211,0 -6.472,2.1602 -6.472,6.3594 v 22.1875 h -4.676 v 3.9648 h 4.676 v 9.3555" /><path
             id="path60"
             style="fill:#231f20;fill-opacity:1;fill-rule:nonzero;stroke:none"
             d="m 498.809,65.0859 h 5.879 l -6.473,-8.5156 h -3.606 z m 4.621,-25.664 v 1.7383 c 0,3.5937 -1.145,7.8515 -5.578,7.8515 -5.274,0 -5.879,-6.4765 -5.879,-8.3906 v -1.1992 z m -11.633,-3.9571 c 0,-4.9218 0,-12.3515 6.172,-12.3515 4.804,0 5.461,5.0273 5.461,7.4297 h 5.039 c 0,-3.418 -2.043,-11.3946 -10.793,-11.3946 -7.86,0 -11.16,5.4571 -11.16,16.4922 0,8.0391 1.558,17.336 11.453,17.336 9.836,0 10.73,-8.586 10.73,-15.4805 v -2.0313 h -16.902" /><path
             id="path62"
             style="fill:#231f20;fill-opacity:1;fill-rule:nonzero;stroke:none"
             d="m 555.02,34.6836 c -0.477,-8.0938 -3.653,-15.5352 -13.008,-15.5352 -12.176,0 -13.789,11.4532 -13.789,22.2461 0,10.8008 1.972,22.2539 13.789,22.2539 8.75,0 12.414,-4.9218 12.656,-13.3203 h -5.516 c -0.129,4.8633 -1.679,8.9961 -7.14,8.9961 -7.317,0 -8.282,-8.0273 -8.282,-17.9297 0,-9.8945 0.965,-17.9297 8.282,-17.9297 6.418,0 7.312,5.9961 7.492,11.2188 h 5.516" /><path
             id="path64"
             style="fill:#231f20;fill-opacity:1;fill-rule:nonzero;stroke:none"
             d="m 574.531,37.4961 c -1.863,-1.9727 -6.297,-2.3906 -8.586,-3.7773 -1.609,-1.0157 -2.449,-2.2774 -2.449,-5.0977 0,-3.2344 1.133,-5.5078 4.551,-5.5078 3.301,0 6.484,2.8125 6.484,6.1133 z m -15.539,4.9219 c 0,7.3164 3.117,10.5586 10.793,10.5586 9.778,0 9.778,-5.8789 9.778,-9.2383 V 25.8086 c 0,-1.3203 0,-2.5781 1.558,-2.5781 0.664,0 0.957,0.1172 1.203,0.3008 v -3.6016 c -0.359,-0.0586 -1.679,-0.3047 -2.937,-0.3047 -1.926,0 -4.317,0 -4.563,4.1406 h -0.117 c -1.621,-2.8789 -4.734,-4.6172 -7.734,-4.6172 -5.996,0 -8.758,3.6016 -8.758,9.3555 0,4.5 1.922,7.6172 6.062,8.875 l 6.77,2.043 c 3.66,1.1328 3.66,2.1562 3.66,4.8515 0,3 -1.797,4.7383 -5.156,4.7383 -5.52,0 -5.52,-5.1562 -5.52,-6.289 V 42.418 h -5.039" /><path
             id="path66"
             style="fill:#231f20;fill-opacity:1;fill-rule:nonzero;stroke:none"
             d="m 586.418,52.1367 h 4.793 v -3.7812 h 0.129 c 1.316,2.9414 4.668,4.6211 7.793,4.6211 8.457,0 8.457,-6.418 8.457,-10.1953 v -22.793 h -5.039 v 22.1875 c 0,2.4609 -0.188,6.4726 -4.738,6.4726 -2.704,0 -6.36,-1.7968 -6.36,-6.4726 V 19.9883 h -5.035 v 32.1484" /><path
             id="path68"
             style="fill:#231f20;fill-opacity:1;fill-rule:nonzero;stroke:none"
             d="m 628.945,37.4961 c -1.855,-1.9727 -6.297,-2.3906 -8.574,-3.7773 -1.621,-1.0157 -2.461,-2.2774 -2.461,-5.0977 0,-3.2344 1.145,-5.5078 4.563,-5.5078 3.3,0 6.472,2.8125 6.472,6.1133 z m -15.527,4.9219 c 0,7.3164 3.113,10.5586 10.793,10.5586 9.773,0 9.773,-5.8789 9.773,-9.2383 V 25.8086 c 0,-1.3203 0,-2.5781 1.563,-2.5781 0.652,0 0.957,0.1172 1.191,0.3008 v -3.6016 c -0.351,-0.0586 -1.679,-0.3047 -2.937,-0.3047 -1.914,0 -4.317,0 -4.555,4.1406 h -0.113 c -1.621,-2.8789 -4.746,-4.6172 -7.746,-4.6172 -5.996,0 -8.75,3.6016 -8.75,9.3555 0,4.5 1.914,7.6172 6.054,8.875 l 6.778,2.043 c 3.664,1.1328 3.664,2.1562 3.664,4.8515 0,3 -1.809,4.7383 -5.168,4.7383 -5.52,0 -5.52,-5.1562 -5.52,-6.289 V 42.418 h -5.027" /><path
             id="path70"
             style="fill:#231f20;fill-opacity:1;fill-rule:nonzero;stroke:none"
             d="m 650.793,23.4648 c 5.574,0 6.473,5.2813 6.473,12.5977 0,6.2383 -1.082,12.5859 -6.473,12.5859 -4.68,0 -5.883,-4.9101 -5.883,-12.5859 0,-7.6758 1.203,-12.5977 5.883,-12.5977 z m 11.211,-3.4765 h -4.797 v 3.9648 h -0.117 c -0.664,-2.4023 -3.485,-4.8047 -6.961,-4.8047 -7.617,0 -10.488,6.7774 -10.488,16.9141 0,6.7188 1.074,16.9141 10.125,16.9141 2.882,0 5.937,-1.7383 7.082,-4.5039 h 0.117 v 14.3359 h 5.039 V 19.9883" /><path
             id="path72"
             style="fill:#231f20;fill-opacity:1;fill-rule:nonzero;stroke:none"
             d="m 683.367,37.4961 c -1.863,-1.9727 -6.297,-2.3906 -8.582,-3.7773 -1.609,-1.0157 -2.449,-2.2774 -2.449,-5.0977 0,-3.2344 1.133,-5.5078 4.551,-5.5078 3.301,0 6.48,2.8125 6.48,6.1133 z m -15.535,4.9219 c 0,7.3164 3.113,10.5586 10.789,10.5586 9.777,0 9.777,-5.8789 9.777,-9.2383 V 25.8086 c 0,-1.3203 0,-2.5781 1.563,-2.5781 0.664,0 0.957,0.1172 1.199,0.3008 v -3.6016 c -0.359,-0.0586 -1.676,-0.3047 -2.937,-0.3047 -1.922,0 -4.317,0 -4.563,4.1406 h -0.113 c -1.621,-2.8789 -4.738,-4.6172 -7.734,-4.6172 -5.997,0 -8.762,3.6016 -8.762,9.3555 0,4.5 1.926,7.6172 6.062,8.875 l 6.77,2.043 c 3.664,1.1328 3.664,2.1562 3.664,4.8515 0,3 -1.801,4.7383 -5.156,4.7383 -5.52,0 -5.52,-5.1562 -5.52,-6.289 V 42.418 h -5.039" /><path
             id="path74"
             style="fill:#231f20;fill-opacity:1;fill-rule:nonzero;stroke:none"
             d="m 208.359,216.824 h 8.633 v -16.367 h 10.078 v 16.367 h 8.633 v -42.812 h -8.633 v 19.011 h -10.078 v -19.011 h -8.633 v 42.812" /><path
             id="path76"
             style="fill:#231f20;fill-opacity:1;fill-rule:nonzero;stroke:none"
             d="m 243.281,206.277 h 8.282 v -32.265 h -8.282 z m 0,11.036 h 8.282 v -7.083 h -8.282 v 7.083" /><path
             id="path78"
             style="fill:#231f20;fill-opacity:1;fill-rule:nonzero;stroke:none"
             d="m 270.645,180.73 c 3.476,0 4.503,3.778 4.503,9.227 0,7.863 -1.027,10.801 -4.328,10.801 -3.652,0 -4.316,-2.938 -4.316,-11.641 0,-4.433 0.664,-8.387 4.141,-8.387 z m 12.414,25.547 v -30.644 c 0,-8.516 -3.782,-12.656 -13.43,-12.656 -7.02,0 -10.977,3.113 -10.977,8.632 h 7.911 c 0,-1.074 0.488,-1.914 1.257,-2.453 0.785,-0.547 1.743,-0.898 2.766,-0.898 3.359,0 4.562,2.512 4.562,5.812 v 4.258 h -0.128 c -1.68,-2.394 -4.258,-3.957 -6.895,-3.957 -6.594,0 -9.891,4.492 -9.891,16.309 0,7.558 1.141,16.437 10.133,16.437 2.278,0 5.102,-1.086 6.653,-4.445 h 0.128 v 3.605 h 7.911" /><path
             id="path80"
             style="fill:#231f20;fill-opacity:1;fill-rule:nonzero;stroke:none"
             d="m 290.391,216.824 h 8.281 v -13.847 h 0.117 c 1.563,2.753 4.375,4.14 7.863,4.14 5.157,0 8.211,-2.824 8.211,-9.179 v -23.926 h -8.281 v 22.246 c 0,3.242 -1.074,4.5 -3.535,4.5 -2.813,0 -4.375,-1.738 -4.375,-5.34 v -21.406 h -8.281 v 42.812" /><path
             id="path82"
             style="fill:#231f20;fill-opacity:1;fill-rule:nonzero;stroke:none"
             d="m 338.105,206.277 h 8.282 v -32.265 h -8.282 z m 0,11.036 h 8.282 v -7.083 h -8.282 v 7.083" /><path
             id="path84"
             style="fill:#231f20;fill-opacity:1;fill-rule:nonzero;stroke:none"
             d="m 353.699,206.277 h 7.922 v -3.781 h 0.117 c 1.739,3.176 4.739,4.621 8.223,4.621 5.156,0 8.215,-2.824 8.215,-9.179 v -23.926 h -8.281 v 22.246 c 0,3.242 -1.075,4.5 -3.536,4.5 -2.812,0 -4.375,-1.738 -4.375,-5.34 v -21.406 h -8.285 v 32.265" /><path
             id="path86"
             style="fill:#231f20;fill-opacity:1;fill-rule:nonzero;stroke:none"
             d="m 411.73,217.664 h 6.715 l -13.55,-44.492 h -6.711 l 13.546,44.492" /><path
             id="path88"
             style="fill:#231f20;fill-opacity:1;fill-rule:nonzero;stroke:none"
             d="m 450.203,227.984 h 8.274 l -5.868,-8.64 h -5.644 z m 12.414,-11.16 v -7.07 h -15.293 v -10.078 h 14.395 v -7.071 H 447.324 V 181.09 h 15.899 v -7.078 h -24.532 v 42.812 h 23.926" /><path
             id="path90"
             style="fill:#231f20;fill-opacity:1;fill-rule:nonzero;stroke:none"
             d="m 469.113,216.824 h 8.282 v -42.812 h -8.282 v 42.812" /><path
             id="path92"
             style="fill:#231f20;fill-opacity:1;fill-rule:nonzero;stroke:none"
             d="m 500.242,193.797 c -0.183,4.922 -0.777,7.676 -4.195,7.676 -3.305,0 -4.262,-3.418 -4.262,-6.418 v -1.258 z m -8.457,-4.914 v -2.578 c 0,-3.778 1.02,-7.5 4.082,-7.5 2.754,0 3.899,2.101 4.375,6.054 h 7.434 c -0.293,-7.488 -3.899,-11.687 -11.688,-11.687 -11.996,0 -12.472,9.238 -12.472,17.273 0,8.633 1.679,16.672 12.832,16.672 9.648,0 11.804,-6.484 11.804,-16.379 v -1.855 h -16.367" /><path
             id="path94"
             style="fill:#231f20;fill-opacity:1;fill-rule:nonzero;stroke:none"
             d="m 529.285,206.277 h 8.285 l -8.097,-32.265 h -9.602 l -8.328,32.265 h 8.633 l 4.621,-23.086 h 0.113 l 4.375,23.086" /><path
             id="path96"
             style="fill:#231f20;fill-opacity:1;fill-rule:nonzero;stroke:none"
             d="m 552.648,218.688 h 8.27 l -5.867,-8.633 h -5.649 z m 5.04,-24.891 c -0.188,4.922 -0.786,7.676 -4.2,7.676 -3.3,0 -4.258,-3.418 -4.258,-6.418 v -1.258 z m -8.458,-4.914 v -2.578 c 0,-3.778 1.012,-7.5 4.083,-7.5 2.753,0 3.894,2.101 4.375,6.054 h 7.429 c -0.293,-7.488 -3.894,-11.687 -11.687,-11.687 -11.992,0 -12.473,9.238 -12.473,17.273 0,8.633 1.68,16.672 12.832,16.672 9.649,0 11.809,-6.484 11.809,-16.379 v -1.855 H 549.23" /><path
             id="path98"
             style="fill:#231f20;fill-opacity:1;fill-rule:nonzero;stroke:none"
             d="m 602.871,193.797 c -0.183,4.922 -0.781,7.676 -4.199,7.676 -3.301,0 -4.258,-3.418 -4.258,-6.418 v -1.258 z m -8.457,-4.914 v -2.578 c 0,-3.778 1.016,-7.5 4.082,-7.5 2.754,0 3.899,2.101 4.375,6.054 h 7.434 c -0.293,-7.488 -3.899,-11.687 -11.692,-11.687 -11.992,0 -12.468,9.238 -12.468,17.273 0,8.633 1.675,16.672 12.832,16.672 9.644,0 11.804,-6.484 11.804,-16.379 v -1.855 h -16.367" /><path
             id="path100"
             style="fill:#231f20;fill-opacity:1;fill-rule:nonzero;stroke:none"
             d="m 616.621,206.277 h 7.922 v -3.781 h 0.113 c 1.742,3.176 4.739,4.621 8.227,4.621 5.152,0 8.211,-2.824 8.211,-9.179 v -23.926 h -8.281 v 22.246 c 0,3.242 -1.075,4.5 -3.536,4.5 -2.812,0 -4.375,-1.738 -4.375,-5.34 v -21.406 h -8.281 v 32.265" /><path
             id="path102"
             style="fill:#231f20;fill-opacity:1;fill-rule:nonzero;stroke:none"
             d="M 169.992,153.633 V 79.9297 H 690.336 V 153.633 H 169.992" /><path
             id="path104"
             style="fill:#ffffff;fill-opacity:1;fill-rule:nonzero;stroke:none"
             d="m 216.992,110.387 v -1.258 c 0,-4.016 1.145,-6.594 5.703,-6.594 2.637,0 5.157,1.68 5.157,5.274 0,3.898 -1.985,5.343 -7.676,7.316 -7.676,2.645 -11.223,5.82 -11.223,12.957 0,8.332 5.102,12.59 13.266,12.59 7.676,0 13.25,-3.293 13.25,-11.516 v -1.191 h -8.281 c 0,4.015 -1.375,6.348 -4.676,6.348 -3.899,0 -4.914,-2.45 -4.914,-4.969 0,-2.637 0.781,-4.258 4.433,-5.821 l 6.66,-2.882 c 6.473,-2.813 8.157,-6.114 8.157,-11.328 0,-9.051 -5.52,-13.1333 -14.875,-13.1333 -9.778,0 -13.614,4.5583 -13.614,12.4683 v 1.739 h 8.633" /><path
             id="path106"
             style="fill:#ffffff;fill-opacity:1;fill-rule:nonzero;stroke:none"
             d="m 258.992,100.797 h -0.113 c -1.738,-3.1837 -4.738,-4.6173 -8.215,-4.6173 -5.156,0 -8.223,2.8203 -8.223,9.1793 v 23.926 h 8.282 v -22.258 c 0,-3.23 1.074,-4.492 3.535,-4.492 2.82,0 4.375,1.738 4.375,5.332 v 21.418 h 8.281 V 97.0195 h -7.922 v 3.7775" /><path
             id="path108"
             style="fill:#ffffff;fill-opacity:1;fill-rule:nonzero;stroke:none"
             d="m 285.703,103.738 c 3.477,0 4.5,3.778 4.5,9.227 0,7.863 -1.023,10.801 -4.324,10.801 -3.652,0 -4.316,-2.938 -4.316,-11.641 0,-4.434 0.664,-8.387 4.14,-8.387 z m 12.41,25.547 V 98.6406 c 0,-8.5156 -3.777,-12.6562 -13.425,-12.6562 -7.024,0 -10.977,3.1133 -10.977,8.6328 h 7.91 c 0,-1.0742 0.488,-1.9141 1.262,-2.4531 0.777,-0.5469 1.734,-0.8985 2.762,-0.8985 3.359,0 4.558,2.5117 4.558,5.8125 v 4.2579 h -0.125 c -1.68,-2.3946 -4.258,-3.9571 -6.894,-3.9571 -6.59,0 -9.895,4.4921 -9.895,16.3091 0,7.558 1.145,16.437 10.141,16.437 2.273,0 5.097,-1.086 6.648,-4.445 h 0.125 v 3.605 h 7.91" /><path
             id="path110"
             style="fill:#ffffff;fill-opacity:1;fill-rule:nonzero;stroke:none"
             d="m 320.52,113.152 c -1.145,-0.839 -2.524,-1.379 -3.547,-1.621 -3.352,-0.722 -4.676,-2.336 -4.676,-5.215 0,-2.461 0.906,-4.503 3.125,-4.503 2.215,0 5.098,1.445 5.098,4.98 z m -15.118,6.231 v 0.781 c 0,7.441 5.094,9.961 11.336,9.961 9.832,0 11.692,-4.082 11.692,-9.902 v -16.965 c 0,-2.996 0.183,-4.383 1.023,-6.2385 h -7.922 c -0.535,1.0157 -0.777,2.2735 -1.011,3.3595 h -0.129 c -1.914,-3.3595 -4.246,-4.1993 -8.211,-4.1993 -5.754,0 -7.793,4.9223 -7.793,9.2383 0,6.055 2.461,8.516 8.152,10.066 l 4.68,1.262 c 2.461,0.664 3.301,1.621 3.301,3.777 0,2.461 -1.086,3.957 -3.84,3.957 -2.52,0 -3.836,-1.679 -3.836,-4.191 v -0.906 h -7.442" /><path
             id="path112"
             style="fill:#ffffff;fill-opacity:1;fill-rule:nonzero;stroke:none"
             d="m 335.82,129.285 h 7.918 v -4.316 h 0.121 c 1.676,3.113 4.024,5.156 7.442,5.156 0.476,0 1.015,-0.07 1.492,-0.129 v -7.91 c -0.84,0.059 -1.738,0.117 -2.578,0.117 -2.879,0 -6.113,-1.492 -6.113,-5.82 V 97.0195 h -8.282 v 32.2655" /><path
             id="path114"
             style="fill:#ffffff;fill-opacity:1;fill-rule:nonzero;stroke:none"
             d="m 363.367,107.574 v -1.082 c 0,-2.812 1.496,-4.679 4.321,-4.679 2.515,0 4.199,1.261 4.199,3.839 0,2.098 -1.391,3.055 -3,3.661 l -5.821,2.101 c -4.558,1.621 -6.894,4.434 -6.894,8.992 0,5.332 3.359,9.719 11.875,9.719 7.488,0 11.035,-3.359 11.035,-9.18 v -1.32 h -7.441 c 0,3.242 -0.957,4.855 -3.661,4.855 -2.089,0 -3.898,-1.191 -3.898,-3.476 0,-1.555 0.84,-2.883 3.606,-3.781 l 4.968,-1.68 c 5.227,-1.738 7.141,-4.375 7.141,-9.227 0,-6.7769 -5.039,-10.1363 -11.992,-10.1363 -9.297,0 -11.875,4.0823 -11.875,10.2543 v 1.14 h 7.437" /><path
             id="path116"
             style="fill:#ffffff;fill-opacity:1;fill-rule:nonzero;stroke:none"
             d="m 411.973,140.672 h 6.718 L 405.137,96.1797 h -6.707 l 13.543,44.4923" /><path
             id="path118"
             style="fill:#ffffff;fill-opacity:1;fill-rule:nonzero;stroke:none"
             d="m 445.879,110.387 v -1.258 c 0,-4.016 1.144,-6.594 5.703,-6.594 2.637,0 5.156,1.68 5.156,5.274 0,3.898 -1.98,5.343 -7.675,7.316 -7.676,2.645 -11.219,5.82 -11.219,12.957 0,8.332 5.097,12.59 13.261,12.59 7.672,0 13.25,-3.293 13.25,-11.516 v -1.191 h -8.281 c 0,4.015 -1.379,6.348 -4.676,6.348 -3.898,0 -4.914,-2.45 -4.914,-4.969 0,-2.637 0.782,-4.258 4.434,-5.821 l 6.66,-2.882 c 6.477,-2.813 8.156,-6.114 8.156,-11.328 0,-9.051 -5.519,-13.1333 -14.875,-13.1333 -9.773,0 -13.613,4.5583 -13.613,12.4683 v 1.739 h 8.633" /><path
             id="path120"
             style="fill:#ffffff;fill-opacity:1;fill-rule:nonzero;stroke:none"
             d="m 487.883,100.797 h -0.117 c -1.739,-3.1837 -4.739,-4.6173 -8.215,-4.6173 -5.156,0 -8.223,2.8203 -8.223,9.1793 v 23.926 h 8.281 v -22.258 c 0,-3.23 1.075,-4.492 3.536,-4.492 2.824,0 4.375,1.738 4.375,5.332 v 21.418 h 8.281 V 97.0195 h -7.918 v 3.7775" /><path
             id="path122"
             style="fill:#ffffff;fill-opacity:1;fill-rule:nonzero;stroke:none"
             d="m 518.367,117.645 c 0,3.125 -0.601,6.484 -3.719,6.484 -4.074,0 -4.738,-3.606 -4.738,-11.035 0,-7.981 0.727,-11.281 4.438,-11.281 2.761,0 4.019,2.343 4.019,7.558 h 7.91 c 0,-8.457 -3.535,-13.1913 -12.285,-13.1913 -8.277,0 -12.351,4.0113 -12.351,16.9723 0,13.25 5.449,16.973 13.066,16.973 7.617,0 11.57,-4.863 11.57,-12.48 h -7.91" /><path
             id="path124"
             style="fill:#ffffff;fill-opacity:1;fill-rule:nonzero;stroke:none"
             d="m 532.117,129.285 h 7.922 v -4.316 h 0.117 c 1.68,3.113 4.024,5.156 7.442,5.156 0.476,0 1.015,-0.07 1.496,-0.129 v -7.91 c -0.84,0.059 -1.739,0.117 -2.578,0.117 -2.883,0 -6.114,-1.492 -6.114,-5.82 V 97.0195 h -8.285 v 32.2655" /><path
             id="path126"
             style="fill:#ffffff;fill-opacity:1;fill-rule:nonzero;stroke:none"
             d="m 569.141,116.805 c -0.188,4.922 -0.782,7.675 -4.2,7.675 -3.3,0 -4.257,-3.417 -4.257,-6.417 v -1.258 z m -8.457,-4.914 v -2.578 c 0,-3.778 1.015,-7.5 4.082,-7.5 2.754,0 3.894,2.101 4.375,6.054 h 7.429 c -0.293,-7.488 -3.894,-11.6873 -11.687,-11.6873 -11.992,0 -12.473,9.2383 -12.473,17.2733 0,8.633 1.684,16.672 12.832,16.672 9.653,0 11.809,-6.484 11.809,-16.379 v -1.855 h -16.367" /><path
             id="path128"
             style="fill:#ffffff;fill-opacity:1;fill-rule:nonzero;stroke:none"
             d="m 588.953,107.574 v -1.082 c 0,-2.812 1.496,-4.679 4.32,-4.679 2.52,0 4.2,1.261 4.2,3.839 0,2.098 -1.387,3.055 -3,3.661 l -5.821,2.101 c -4.558,1.621 -6.894,4.434 -6.894,8.992 0,5.332 3.359,9.719 11.875,9.719 7.488,0 11.035,-3.359 11.035,-9.18 v -1.32 h -7.441 c 0,3.242 -0.957,4.855 -3.661,4.855 -2.089,0 -3.898,-1.191 -3.898,-3.476 0,-1.555 0.84,-2.883 3.605,-3.781 l 4.969,-1.68 c 5.227,-1.738 7.141,-4.375 7.141,-9.227 0,-6.7769 -5.039,-10.1363 -11.992,-10.1363 -9.297,0 -11.875,4.0823 -11.875,10.2543 v 1.14 h 7.437" /><path
             id="path130"
             style="fill:#231f20;fill-opacity:1;fill-rule:nonzero;stroke:none"
             d="M 130.285,145.07 C 118.762,125.438 93.4766,118.852 73.8633,130.383 54.2266,141.906 47.6406,167.211 59.168,186.848 70.6953,206.461 95.7852,213 115.637,201.52 c 19.851,-11.454 26.199,-36.832 14.648,-56.45 z m -7.879,68.344 C 96.2227,228.797 62.8477,220.09 47.4414,193.902 33.9727,170.66 39.1172,141.605 58.6797,124.766 L 36.6563,87.7539 C 34.4648,84.0156 35.832,79.2031 39.6602,77.1758 l 5.2851,-2.7969 c 3.6445,-1.9297 8.1602,-0.6094 10.1875,2.9805 l 20.8945,37.2036 c 24.4847,-8.813 52.3517,0.835 65.8907,23.886 15.359,26.18 6.691,59.586 -19.512,74.965" /></g></g></g></g></svg>