<?xml version="1.0" encoding="UTF-8" standalone="no"?>
<svg
   xmlns:dc="http://purl.org/dc/elements/1.1/"
   xmlns:cc="http://creativecommons.org/ns#"
   xmlns:rdf="http://www.w3.org/1999/02/22-rdf-syntax-ns#"
   xmlns:svg="http://www.w3.org/2000/svg"
   xmlns="http://www.w3.org/2000/svg"
   viewBox="0 0 94.487999 32.125998"
   height="32.125999"
   width="94.487999"
   xml:space="preserve"
   id="svg2"
   version="1.1"><metadata
     id="metadata8"><rdf:RDF><cc:Work
         rdf:about=""><dc:format>image/svg+xml</dc:format><dc:type
           rdf:resource="http://purl.org/dc/dcmitype/StillImage" /></cc:Work></rdf:RDF></metadata><defs
     id="defs6"><clipPath
       id="clipPath20"
       clipPathUnits="userSpaceOnUse"><path
         id="path18"
         d="M 0,0 H 708.66 V 240.945 H 0 Z" /></clipPath></defs><g
     transform="matrix(1.3333333,0,0,-1.3333333,0,32.125999)"
     id="g10"><g
       transform="scale(0.1)"
       id="g12"><g
         id="g14"><g
           clip-path="url(#clipPath20)"
           id="g16"><path
             id="path22"
             style="fill:#ffffff;fill-opacity:1;fill-rule:nonzero;stroke:none"
             d="M 2.49609,2.5 V 238.441 H 706.16 V 2.5 H 2.49609" /><path
             id="path24"
             style="fill:#231f20;fill-opacity:1;fill-rule:nonzero;stroke:none"
             d="M 708.66,240.945 H 0 V 0 h 708.66 z m -5,-5 V 5 H 5 v 230.945 h 698.66" /><path
             id="path26"
             style="fill:#231f20;fill-opacity:1;fill-rule:nonzero;stroke:none"
             d="M 45.5195,19.9883 H 40.2383 V 40.6211 H 25.5469 V 19.9883 h -5.2774 v 42.8242 h 5.2774 V 45.3008 h 14.6914 v 17.5117 h 5.2812 V 19.9883" /><path
             id="path28"
             style="fill:#231f20;fill-opacity:1;fill-rule:nonzero;stroke:none"
             d="m 68.1445,39.4219 v 1.7383 c 0,3.5937 -1.1406,7.8515 -5.5742,7.8515 -5.2812,0 -5.8789,-6.4765 -5.8789,-8.3906 V 39.4219 Z M 56.5078,35.4688 c 0,-4.9219 0,-12.3555 6.1797,-12.3555 4.7969,0 5.457,5.0312 5.457,7.4336 h 5.0352 c 0,-3.418 -2.0352,-11.3985 -10.793,-11.3985 -7.8554,0 -11.1562,5.461 -11.1562,16.4961 0,8.0352 1.5625,17.3321 11.457,17.3321 9.832,0 10.7305,-8.5821 10.7305,-15.4805 V 35.4688 H 56.5078" /><path
             id="path30"
             style="fill:#231f20;fill-opacity:1;fill-rule:nonzero;stroke:none"
             d="m 93.6992,37.4961 c -1.8594,-1.9688 -6.2969,-2.3906 -8.5781,-3.7773 -1.6133,-1.0157 -2.457,-2.2735 -2.457,-5.0977 0,-3.2305 1.1406,-5.5078 4.5586,-5.5078 3.3007,0 6.4765,2.8125 6.4765,6.1133 z M 78.168,42.4219 c 0,7.3125 3.1172,10.5547 10.7929,10.5547 9.7735,0 9.7735,-5.8789 9.7735,-9.2383 V 25.8086 c 0,-1.3164 0,-2.5781 1.5626,-2.5781 0.66,0 0.957,0.1172 1.195,0.3047 v -3.6055 c -0.355,-0.0586 -1.6756,-0.3008 -2.9373,-0.3008 -1.918,0 -4.3164,0 -4.5547,4.1406 h -0.1211 c -1.6172,-2.8828 -4.7383,-4.6211 -7.7344,-4.6211 -5.9961,0 -8.7578,3.6055 -8.7578,9.3555 0,4.5039 1.9219,7.6172 6.0586,8.8789 l 6.7735,2.0391 c 3.6601,1.1328 3.6601,2.1562 3.6601,4.8554 0,2.9961 -1.8008,4.7344 -5.1562,4.7344 -5.5196,0 -5.5196,-5.1562 -5.5196,-6.289 V 42.4219 H 78.168" /><path
             id="path32"
             style="fill:#231f20;fill-opacity:1;fill-rule:nonzero;stroke:none"
             d="m 105.891,62.8125 h 5.039 V 19.9883 h -5.039 v 42.8242" /><path
             id="path34"
             style="fill:#231f20;fill-opacity:1;fill-rule:nonzero;stroke:none"
             d="m 119.324,61.4922 h 5.039 v -9.3555 h 5.578 v -3.9648 h -5.578 v -20.625 c 0,-2.5781 0.66,-3.5938 3.301,-3.5938 1.082,0 1.676,0.1172 2.219,0.1758 v -4.1406 c -0.66,-0.1172 -1.977,-0.3594 -4.078,-0.3594 -5.219,0 -6.481,2.1563 -6.481,6.3555 v 22.1875 h -4.672 v 3.9648 h 4.672 v 9.3555" /><path
             id="path36"
             style="fill:#231f20;fill-opacity:1;fill-rule:nonzero;stroke:none"
             d="m 133.363,62.8125 h 5.039 V 48.4766 h 0.125 c 1.317,2.6367 4.852,4.5 7.735,4.5 8.273,0 8.273,-6.4141 8.273,-10.1953 v -22.793 h -5.039 v 22.1875 c 0,2.4609 -0.18,6.4765 -4.734,6.4765 -2.699,0 -6.36,-1.7968 -6.36,-6.4765 V 19.9883 h -5.039 v 42.8242" /><path
             id="path38"
             style="fill:#231f20;fill-opacity:1;fill-rule:nonzero;stroke:none"
             d="m 201.93,34.6875 c -0.481,-8.0977 -3.657,-15.5391 -13.016,-15.5391 -12.172,0 -13.785,11.4571 -13.785,22.2461 0,10.8008 1.976,22.2578 13.785,22.2578 8.758,0 12.414,-4.9218 12.656,-13.3242 h -5.515 c -0.121,4.8672 -1.68,8.9961 -7.141,8.9961 -7.312,0 -8.273,-8.0273 -8.273,-17.9297 0,-9.8906 0.961,-17.9297 8.273,-17.9297 6.418,0 7.316,5.9961 7.496,11.2227 h 5.52" /><path
             id="path40"
             style="fill:#231f20;fill-opacity:1;fill-rule:nonzero;stroke:none"
             d="m 221.441,37.4961 c -1.863,-1.9688 -6.3,-2.3906 -8.578,-3.7773 -1.617,-1.0157 -2.457,-2.2735 -2.457,-5.0977 0,-3.2305 1.137,-5.5078 4.555,-5.5078 3.301,0 6.48,2.8125 6.48,6.1133 z m -15.535,4.9258 c 0,7.3125 3.117,10.5547 10.793,10.5547 9.778,0 9.778,-5.8789 9.778,-9.2383 V 25.8086 c 0,-1.3164 0,-2.5781 1.558,-2.5781 0.66,0 0.957,0.1172 1.199,0.3047 v -3.6055 c -0.355,-0.0586 -1.679,-0.3008 -2.941,-0.3008 -1.918,0 -4.316,0 -4.555,4.1406 h -0.117 c -1.621,-2.8828 -4.742,-4.6211 -7.738,-4.6211 -5.996,0 -8.754,3.6055 -8.754,9.3555 0,4.5039 1.918,7.6172 6.059,8.8789 l 6.773,2.0391 c 3.66,1.1328 3.66,2.1562 3.66,4.8554 0,2.9961 -1.801,4.7344 -5.16,4.7344 -5.52,0 -5.52,-5.1562 -5.52,-6.289 v -0.3008 h -5.035" /><path
             id="path42"
             style="fill:#231f20;fill-opacity:1;fill-rule:nonzero;stroke:none"
             d="m 233.32,52.1367 h 4.801 v -3.7773 h 0.121 c 1.321,2.9375 4.672,4.6172 7.793,4.6172 8.457,0 8.457,-6.4141 8.457,-10.1953 v -22.793 h -5.039 v 22.1875 c 0,2.4609 -0.18,6.4765 -4.734,6.4765 -2.703,0 -6.36,-1.7968 -6.36,-6.4765 V 19.9883 h -5.039 v 32.1484" /><path
             id="path44"
             style="fill:#231f20;fill-opacity:1;fill-rule:nonzero;stroke:none"
             d="m 275.859,37.4961 c -1.859,-1.9688 -6.296,-2.3906 -8.578,-3.7773 -1.617,-1.0157 -2.457,-2.2735 -2.457,-5.0977 0,-3.2305 1.137,-5.5078 4.555,-5.5078 3.301,0 6.48,2.8125 6.48,6.1133 z m -15.531,4.9258 c 0,7.3125 3.113,10.5547 10.789,10.5547 9.778,0 9.778,-5.8789 9.778,-9.2383 V 25.8086 c 0,-1.3164 0,-2.5781 1.562,-2.5781 0.656,0 0.957,0.1172 1.195,0.3047 v -3.6055 c -0.355,-0.0586 -1.679,-0.3008 -2.937,-0.3008 -1.922,0 -4.317,0 -4.559,4.1406 h -0.121 c -1.617,-2.8828 -4.734,-4.6211 -7.734,-4.6211 -5.996,0 -8.754,3.6055 -8.754,9.3555 0,4.5039 1.918,7.6172 6.058,8.8789 l 6.774,2.0391 c 3.656,1.1328 3.656,2.1562 3.656,4.8554 0,2.9961 -1.797,4.7344 -5.156,4.7344 -5.516,0 -5.516,-5.1562 -5.516,-6.289 v -0.3008 h -5.035" /><path
             id="path46"
             style="fill:#231f20;fill-opacity:1;fill-rule:nonzero;stroke:none"
             d="m 297.695,23.4648 c 5.578,0 6.481,5.2813 6.481,12.5977 0,6.2422 -1.086,12.5898 -6.481,12.5898 -4.675,0 -5.875,-4.914 -5.875,-12.5898 0,-7.6758 1.2,-12.5977 5.875,-12.5977 z m 11.215,-3.4765 h -4.797 v 3.9648 h -0.121 c -0.656,-2.4023 -3.48,-4.8047 -6.957,-4.8047 -7.617,0 -10.492,6.7774 -10.492,16.9141 0,6.7188 1.078,16.9141 10.133,16.9141 2.879,0 5.937,-1.7383 7.078,-4.5 h 0.117 v 14.3359 h 5.039 V 19.9883" /><path
             id="path48"
             style="fill:#231f20;fill-opacity:1;fill-rule:nonzero;stroke:none"
             d="m 330.277,37.4961 c -1.859,-1.9688 -6.297,-2.3906 -8.578,-3.7773 -1.617,-1.0157 -2.457,-2.2735 -2.457,-5.0977 0,-3.2305 1.141,-5.5078 4.559,-5.5078 3.301,0 6.476,2.8125 6.476,6.1133 z m -15.531,4.9258 c 0,7.3125 3.117,10.5547 10.789,10.5547 9.778,0 9.778,-5.8789 9.778,-9.2383 V 25.8086 c 0,-1.3164 0,-2.5781 1.562,-2.5781 0.66,0 0.957,0.1172 1.195,0.3047 v -3.6055 c -0.355,-0.0586 -1.679,-0.3008 -2.937,-0.3008 -1.918,0 -4.317,0 -4.559,4.1406 h -0.113 c -1.621,-2.8828 -4.742,-4.6211 -7.742,-4.6211 -5.996,0 -8.754,3.6055 -8.754,9.3555 0,4.5039 1.918,7.6172 6.058,8.8789 l 6.774,2.0391 c 3.664,1.1328 3.664,2.1562 3.664,4.8554 0,2.9961 -1.805,4.7344 -5.164,4.7344 -5.516,0 -5.516,-5.1562 -5.516,-6.289 v -0.3008 h -5.035" /><path
             id="path50"
             style="fill:#231f20;fill-opacity:1;fill-rule:nonzero;stroke:none"
             d="m 366.57,63.6523 h 3.957 L 356.621,19.1484 h -3.961 l 13.91,44.5039" /><path
             id="path52"
             style="fill:#231f20;fill-opacity:1;fill-rule:nonzero;stroke:none"
             d="m 405.996,51.7188 c 0,4.4921 -1.621,7.6054 -6.66,7.6054 -4.434,0 -7.078,-2.3906 -7.078,-6.9531 0,-12.0508 20.215,-4.8516 20.215,-20.5078 0,-9.8906 -7.258,-12.7149 -13.321,-12.7149 -10.011,0 -12.953,5.1563 -12.953,14.2774 h 5.278 c 0,-4.8047 0.3,-9.961 8.035,-9.961 4.199,0 7.441,3 7.441,7.5586 0,12.1211 -20.215,5.0977 -20.215,20.8125 0,3.9532 1.68,11.8164 12.539,11.8164 8.157,0 11.875,-4.082 11.993,-11.9335 h -5.274" /><path
             id="path54"
             style="fill:#231f20;fill-opacity:1;fill-rule:nonzero;stroke:none"
             d="m 432.395,37.4961 c -1.86,-1.9688 -6.301,-2.3906 -8.575,-3.7773 -1.625,-1.0157 -2.461,-2.2735 -2.461,-5.0977 0,-3.2305 1.141,-5.5078 4.559,-5.5078 3.301,0 6.477,2.8125 6.477,6.1133 z m -15.532,4.9258 c 0,7.3125 3.117,10.5547 10.793,10.5547 9.778,0 9.778,-5.8789 9.778,-9.2383 V 25.8086 c 0,-1.3164 0,-2.5781 1.558,-2.5781 0.656,0 0.957,0.1172 1.196,0.3047 v -3.6055 c -0.352,-0.0586 -1.68,-0.3008 -2.942,-0.3008 -1.914,0 -4.316,0 -4.551,4.1406 h -0.117 c -1.621,-2.8828 -4.746,-4.6211 -7.742,-4.6211 -5.996,0 -8.75,3.6055 -8.75,9.3555 0,4.5039 1.91,7.6172 6.055,8.8789 l 6.777,2.0391 c 3.66,1.1328 3.66,2.1562 3.66,4.8554 0,2.9961 -1.805,4.7344 -5.168,4.7344 -5.515,0 -5.515,-5.1562 -5.515,-6.289 v -0.3008 h -5.032" /><path
             id="path56"
             style="fill:#231f20;fill-opacity:1;fill-rule:nonzero;stroke:none"
             d="m 444.277,52.1367 h 4.793 v -3.7773 h 0.129 c 1.321,2.9375 4.668,4.6172 7.793,4.6172 8.457,0 8.457,-6.4141 8.457,-10.1953 v -22.793 h -5.039 v 22.1875 c 0,2.4609 -0.183,6.4765 -4.734,6.4765 -2.707,0 -6.36,-1.7968 -6.36,-6.4765 V 19.9883 h -5.039 v 32.1484" /><path
             id="path58"
             style="fill:#231f20;fill-opacity:1;fill-rule:nonzero;stroke:none"
             d="m 473.555,61.4922 h 5.039 v -9.3555 h 5.578 v -3.9648 h -5.578 v -20.625 c 0,-2.5781 0.652,-3.5938 3.301,-3.5938 1.074,0 1.671,0.1172 2.218,0.1758 v -4.1406 c -0.668,-0.1172 -1.984,-0.3594 -4.086,-0.3594 -5.211,0 -6.472,2.1563 -6.472,6.3555 v 22.1875 h -4.676 v 3.9648 h 4.676 v 9.3555" /><path
             id="path60"
             style="fill:#231f20;fill-opacity:1;fill-rule:nonzero;stroke:none"
             d="m 498.809,65.0859 h 5.879 l -6.473,-8.5156 h -3.606 z m 4.621,-25.664 v 1.7383 c 0,3.5937 -1.145,7.8515 -5.578,7.8515 -5.274,0 -5.879,-6.4765 -5.879,-8.3906 v -1.1992 z m -11.633,-3.9531 c 0,-4.9219 0,-12.3555 6.172,-12.3555 4.804,0 5.461,5.0312 5.461,7.4336 h 5.039 c 0,-3.418 -2.043,-11.3985 -10.793,-11.3985 -7.86,0 -11.16,5.461 -11.16,16.4961 0,8.0352 1.558,17.3321 11.453,17.3321 9.836,0 10.73,-8.5821 10.73,-15.4805 v -2.0273 h -16.902" /><path
             id="path62"
             style="fill:#231f20;fill-opacity:1;fill-rule:nonzero;stroke:none"
             d="m 555.02,34.6875 c -0.477,-8.0977 -3.653,-15.5391 -13.008,-15.5391 -12.176,0 -13.789,11.4571 -13.789,22.2461 0,10.8008 1.972,22.2578 13.789,22.2578 8.75,0 12.414,-4.9218 12.656,-13.3242 h -5.516 c -0.129,4.8672 -1.679,8.9961 -7.14,8.9961 -7.317,0 -8.282,-8.0273 -8.282,-17.9297 0,-9.8906 0.965,-17.9297 8.282,-17.9297 6.418,0 7.312,5.9961 7.492,11.2227 h 5.516" /><path
             id="path64"
             style="fill:#231f20;fill-opacity:1;fill-rule:nonzero;stroke:none"
             d="m 574.531,37.4961 c -1.863,-1.9688 -6.297,-2.3906 -8.586,-3.7773 -1.609,-1.0157 -2.449,-2.2735 -2.449,-5.0977 0,-3.2305 1.133,-5.5078 4.551,-5.5078 3.301,0 6.484,2.8125 6.484,6.1133 z m -15.539,4.9258 c 0,7.3125 3.117,10.5547 10.793,10.5547 9.778,0 9.778,-5.8789 9.778,-9.2383 V 25.8086 c 0,-1.3164 0,-2.5781 1.558,-2.5781 0.664,0 0.957,0.1172 1.203,0.3047 v -3.6055 c -0.359,-0.0586 -1.679,-0.3008 -2.937,-0.3008 -1.926,0 -4.317,0 -4.563,4.1406 h -0.117 c -1.621,-2.8828 -4.734,-4.6211 -7.734,-4.6211 -5.996,0 -8.758,3.6055 -8.758,9.3555 0,4.5039 1.922,7.6172 6.062,8.8789 l 6.77,2.0391 c 3.66,1.1328 3.66,2.1562 3.66,4.8554 0,2.9961 -1.797,4.7344 -5.156,4.7344 -5.52,0 -5.52,-5.1562 -5.52,-6.289 v -0.3008 h -5.039" /><path
             id="path66"
             style="fill:#231f20;fill-opacity:1;fill-rule:nonzero;stroke:none"
             d="m 586.418,52.1367 h 4.793 v -3.7773 h 0.129 c 1.316,2.9375 4.668,4.6172 7.793,4.6172 8.457,0 8.457,-6.4141 8.457,-10.1953 v -22.793 h -5.039 v 22.1875 c 0,2.4609 -0.188,6.4765 -4.738,6.4765 -2.704,0 -6.36,-1.7968 -6.36,-6.4765 V 19.9883 h -5.035 v 32.1484" /><path
             id="path68"
             style="fill:#231f20;fill-opacity:1;fill-rule:nonzero;stroke:none"
             d="m 628.945,37.4961 c -1.855,-1.9688 -6.297,-2.3906 -8.574,-3.7773 -1.621,-1.0157 -2.461,-2.2735 -2.461,-5.0977 0,-3.2305 1.145,-5.5078 4.563,-5.5078 3.3,0 6.472,2.8125 6.472,6.1133 z m -15.527,4.9258 c 0,7.3125 3.113,10.5547 10.793,10.5547 9.773,0 9.773,-5.8789 9.773,-9.2383 V 25.8086 c 0,-1.3164 0,-2.5781 1.563,-2.5781 0.652,0 0.957,0.1172 1.191,0.3047 v -3.6055 c -0.351,-0.0586 -1.679,-0.3008 -2.937,-0.3008 -1.914,0 -4.317,0 -4.555,4.1406 h -0.113 c -1.621,-2.8828 -4.746,-4.6211 -7.746,-4.6211 -5.996,0 -8.75,3.6055 -8.75,9.3555 0,4.5039 1.914,7.6172 6.054,8.8789 l 6.778,2.0391 c 3.664,1.1328 3.664,2.1562 3.664,4.8554 0,2.9961 -1.809,4.7344 -5.168,4.7344 -5.52,0 -5.52,-5.1562 -5.52,-6.289 v -0.3008 h -5.027" /><path
             id="path70"
             style="fill:#231f20;fill-opacity:1;fill-rule:nonzero;stroke:none"
             d="m 650.793,23.4648 c 5.574,0 6.473,5.2813 6.473,12.5977 0,6.2422 -1.082,12.5898 -6.473,12.5898 -4.68,0 -5.883,-4.914 -5.883,-12.5898 0,-7.6758 1.203,-12.5977 5.883,-12.5977 z m 11.211,-3.4765 h -4.797 v 3.9648 h -0.117 c -0.664,-2.4023 -3.485,-4.8047 -6.961,-4.8047 -7.617,0 -10.488,6.7774 -10.488,16.9141 0,6.7188 1.074,16.9141 10.125,16.9141 2.882,0 5.937,-1.7383 7.082,-4.5 h 0.117 v 14.3359 h 5.039 V 19.9883" /><path
             id="path72"
             style="fill:#231f20;fill-opacity:1;fill-rule:nonzero;stroke:none"
             d="m 683.367,37.4961 c -1.863,-1.9688 -6.297,-2.3906 -8.582,-3.7773 -1.609,-1.0157 -2.449,-2.2735 -2.449,-5.0977 0,-3.2305 1.133,-5.5078 4.551,-5.5078 3.301,0 6.48,2.8125 6.48,6.1133 z m -15.535,4.9258 c 0,7.3125 3.113,10.5547 10.789,10.5547 9.777,0 9.777,-5.8789 9.777,-9.2383 V 25.8086 c 0,-1.3164 0,-2.5781 1.563,-2.5781 0.664,0 0.957,0.1172 1.199,0.3047 v -3.6055 c -0.359,-0.0586 -1.676,-0.3008 -2.937,-0.3008 -1.922,0 -4.317,0 -4.563,4.1406 h -0.113 c -1.621,-2.8828 -4.738,-4.6211 -7.734,-4.6211 -5.997,0 -8.762,3.6055 -8.762,9.3555 0,4.5039 1.926,7.6172 6.062,8.8789 l 6.77,2.0391 c 3.664,1.1328 3.664,2.1562 3.664,4.8554 0,2.9961 -1.801,4.7344 -5.156,4.7344 -5.52,0 -5.52,-5.1562 -5.52,-6.289 v -0.3008 h -5.039" /><path
             id="path74"
             style="fill:#231f20;fill-opacity:1;fill-rule:nonzero;stroke:none"
             d="m 208.363,216.824 h 8.633 v -16.367 h 10.078 v 16.367 h 8.633 v -42.812 h -8.633 v 19.015 h -10.078 v -19.015 h -8.633 v 42.812" /><path
             id="path76"
             style="fill:#231f20;fill-opacity:1;fill-rule:nonzero;stroke:none"
             d="m 243.285,206.277 h 8.281 v -32.265 h -8.281 z m 0,11.036 h 8.281 v -7.079 h -8.281 v 7.079" /><path
             id="path78"
             style="fill:#231f20;fill-opacity:1;fill-rule:nonzero;stroke:none"
             d="m 270.648,180.73 c 3.477,0 4.504,3.782 4.504,9.231 0,7.859 -1.027,10.801 -4.328,10.801 -3.652,0 -4.316,-2.942 -4.316,-11.641 0,-4.433 0.664,-8.391 4.14,-8.391 z m 12.415,25.547 v -30.644 c 0,-8.516 -3.782,-12.656 -13.43,-12.656 -7.02,0 -10.977,3.117 -10.977,8.632 h 7.91 c 0,-1.074 0.489,-1.914 1.262,-2.449 0.781,-0.547 1.738,-0.898 2.762,-0.898 3.359,0 4.562,2.508 4.562,5.808 v 4.258 h -0.129 c -1.679,-2.39 -4.257,-3.957 -6.894,-3.957 -6.59,0 -9.891,4.496 -9.891,16.313 0,7.558 1.141,16.433 10.137,16.433 2.273,0 5.098,-1.082 6.648,-4.441 h 0.129 v 3.601 h 7.911" /><path
             id="path80"
             style="fill:#231f20;fill-opacity:1;fill-rule:nonzero;stroke:none"
             d="m 290.395,216.824 h 8.281 v -13.847 h 0.117 c 1.562,2.753 4.375,4.14 7.863,4.14 5.157,0 8.211,-2.82 8.211,-9.179 v -23.926 h -8.281 v 22.246 c 0,3.242 -1.074,4.504 -3.535,4.504 -2.813,0 -4.375,-1.739 -4.375,-5.344 v -21.406 h -8.281 v 42.812" /><path
             id="path82"
             style="fill:#231f20;fill-opacity:1;fill-rule:nonzero;stroke:none"
             d="m 338.109,206.277 h 8.282 v -32.265 h -8.282 z m 0,11.036 h 8.282 v -7.079 h -8.282 v 7.079" /><path
             id="path84"
             style="fill:#231f20;fill-opacity:1;fill-rule:nonzero;stroke:none"
             d="m 353.707,206.277 h 7.918 v -3.781 h 0.117 c 1.738,3.176 4.735,4.621 8.219,4.621 5.156,0 8.215,-2.82 8.215,-9.179 v -23.926 h -8.281 v 22.246 c 0,3.242 -1.075,4.504 -3.536,4.504 -2.808,0 -4.371,-1.739 -4.371,-5.344 v -21.406 h -8.281 v 32.265" /><path
             id="path86"
             style="fill:#231f20;fill-opacity:1;fill-rule:nonzero;stroke:none"
             d="m 411.73,217.664 h 6.715 l -13.55,-44.492 h -6.711 l 13.546,44.492" /><path
             id="path88"
             style="fill:#231f20;fill-opacity:1;fill-rule:nonzero;stroke:none"
             d="m 450.203,227.988 h 8.274 l -5.868,-8.644 h -5.644 z m 12.414,-11.164 v -7.07 h -15.293 v -10.078 h 14.395 v -7.071 h -14.395 v -11.511 h 15.899 v -7.082 h -24.532 v 42.812 h 23.926" /><path
             id="path90"
             style="fill:#231f20;fill-opacity:1;fill-rule:nonzero;stroke:none"
             d="m 469.113,216.824 h 8.282 v -42.812 h -8.282 v 42.812" /><path
             id="path92"
             style="fill:#231f20;fill-opacity:1;fill-rule:nonzero;stroke:none"
             d="m 500.242,193.797 c -0.183,4.922 -0.777,7.676 -4.195,7.676 -3.305,0 -4.262,-3.418 -4.262,-6.414 v -1.262 z m -8.457,-4.91 v -2.578 c 0,-3.782 1.02,-7.5 4.082,-7.5 2.754,0 3.899,2.097 4.375,6.054 h 7.434 c -0.293,-7.492 -3.899,-11.691 -11.688,-11.691 -11.996,0 -12.472,9.238 -12.472,17.277 0,8.629 1.679,16.668 12.832,16.668 9.648,0 11.804,-6.484 11.804,-16.375 v -1.855 h -16.367" /><path
             id="path94"
             style="fill:#231f20;fill-opacity:1;fill-rule:nonzero;stroke:none"
             d="m 529.285,206.277 h 8.285 l -8.097,-32.265 h -9.602 l -8.328,32.265 h 8.633 l 4.621,-23.086 h 0.113 l 4.375,23.086" /><path
             id="path96"
             style="fill:#231f20;fill-opacity:1;fill-rule:nonzero;stroke:none"
             d="m 552.648,218.691 h 8.27 l -5.867,-8.632 h -5.649 z m 5.04,-24.894 c -0.188,4.922 -0.786,7.676 -4.2,7.676 -3.3,0 -4.258,-3.418 -4.258,-6.414 v -1.262 z m -8.458,-4.91 v -2.578 c 0,-3.782 1.012,-7.5 4.083,-7.5 2.753,0 3.894,2.097 4.375,6.054 h 7.429 c -0.293,-7.492 -3.894,-11.691 -11.687,-11.691 -11.992,0 -12.473,9.238 -12.473,17.277 0,8.629 1.68,16.668 12.832,16.668 9.649,0 11.809,-6.484 11.809,-16.375 v -1.855 H 549.23" /><path
             id="path98"
             style="fill:#231f20;fill-opacity:1;fill-rule:nonzero;stroke:none"
             d="m 602.871,193.797 c -0.183,4.922 -0.781,7.676 -4.199,7.676 -3.301,0 -4.258,-3.418 -4.258,-6.414 v -1.262 z m -8.457,-4.91 v -2.578 c 0,-3.782 1.016,-7.5 4.082,-7.5 2.754,0 3.899,2.097 4.375,6.054 h 7.434 c -0.293,-7.492 -3.899,-11.691 -11.692,-11.691 -11.992,0 -12.468,9.238 -12.468,17.277 0,8.629 1.675,16.668 12.832,16.668 9.644,0 11.804,-6.484 11.804,-16.375 v -1.855 h -16.367" /><path
             id="path100"
             style="fill:#231f20;fill-opacity:1;fill-rule:nonzero;stroke:none"
             d="m 616.621,206.277 h 7.922 v -3.781 h 0.113 c 1.742,3.176 4.739,4.621 8.227,4.621 5.152,0 8.211,-2.82 8.211,-9.179 v -23.926 h -8.281 v 22.246 c 0,3.242 -1.075,4.504 -3.536,4.504 -2.812,0 -4.375,-1.739 -4.375,-5.344 v -21.406 h -8.281 v 32.265" /><path
             id="path102"
             style="fill:#231f20;fill-opacity:1;fill-rule:nonzero;stroke:none"
             d="M 169.996,153.633 V 79.9297 H 690.34 V 153.633 H 169.996" /><path
             id="path104"
             style="fill:#ffffff;fill-opacity:1;fill-rule:nonzero;stroke:none"
             d="m 216.996,110.391 v -1.262 c 0,-4.012 1.145,-6.594 5.703,-6.594 2.637,0 5.156,1.684 5.156,5.278 0,3.894 -1.98,5.339 -7.675,7.312 -7.676,2.648 -11.219,5.82 -11.219,12.961 0,8.328 5.098,12.586 13.262,12.586 7.675,0 13.25,-3.289 13.25,-11.512 v -1.191 h -8.282 c 0,4.011 -1.375,6.347 -4.675,6.347 -3.899,0 -4.914,-2.453 -4.914,-4.972 0,-2.637 0.781,-4.258 4.433,-5.821 l 6.66,-2.878 c 6.477,-2.817 8.157,-6.114 8.157,-11.329 0,-9.054 -5.52,-13.1363 -14.875,-13.1363 -9.774,0 -13.614,4.5623 -13.614,12.4723 v 1.739 h 8.633" /><path
             id="path106"
             style="fill:#ffffff;fill-opacity:1;fill-rule:nonzero;stroke:none"
             d="m 254.086,101.816 c 3.359,0 4.434,3.301 4.434,11.336 0,8.039 -1.075,11.328 -4.434,11.328 -4.082,0 -4.441,-4.734 -4.441,-11.328 0,-6.601 0.359,-11.336 4.441,-11.336 z m 0,28.309 c 9.953,0.176 12.715,-5.762 12.715,-16.973 0,-11.035 -3.242,-16.9723 -12.715,-16.9723 -9.961,-0.1758 -12.715,5.7613 -12.715,16.9723 0,11.036 3.242,16.973 12.715,16.973" /><path
             id="path108"
             style="fill:#ffffff;fill-opacity:1;fill-rule:nonzero;stroke:none"
             d="m 284.566,102.535 c 3.661,0 4.375,3.598 4.375,10.617 0,7.012 -0.714,10.618 -4.375,10.618 -3.593,0 -4.316,-3.606 -4.316,-10.618 0,-7.019 0.723,-10.617 4.316,-10.617 z m 4.735,-2.097 h -0.117 c -1.797,-2.9966 -4.082,-4.2583 -7.313,-4.2583 -6.777,0 -9.894,4.9803 -9.894,16.9723 0,11.993 3.117,16.973 9.894,16.973 3.113,0 5.215,-1.258 6.953,-3.84 h 0.117 v 13.547 h 8.282 V 97.0195 h -7.922 v 3.4185" /><path
             id="path110"
             style="fill:#ffffff;fill-opacity:1;fill-rule:nonzero;stroke:none"
             d="m 304.566,129.285 h 8.282 V 97.0195 h -8.282 z m 0,11.035 h 8.282 v -7.078 h -8.282 v 7.078" /><path
             id="path112"
             style="fill:#ffffff;fill-opacity:1;fill-rule:nonzero;stroke:none"
             d="m 336.715,100.801 h -0.117 c -1.739,-3.1838 -4.739,-4.6213 -8.215,-4.6213 -5.156,0 -8.223,2.8242 -8.223,9.1793 v 23.926 h 8.281 v -22.254 c 0,-3.234 1.075,-4.496 3.536,-4.496 2.824,0 4.375,1.742 4.375,5.336 v 21.414 h 8.281 V 97.0195 h -7.918 v 3.7815" /><path
             id="path114"
             style="fill:#ffffff;fill-opacity:1;fill-rule:nonzero;stroke:none"
             d="m 351.676,129.285 h 7.918 v -3.301 h 0.117 c 2.102,2.942 4.68,4.141 8.156,4.141 3.778,0 6.543,-1.863 7.442,-5.156 h 0.117 c 1.258,3.418 4.258,5.156 8.152,5.156 5.461,0 8.039,-3.418 8.039,-9.656 V 97.0195 h -8.273 V 119.57 c 0,2.696 -0.899,4.2 -3.242,4.2 -2.637,0 -4.317,-1.797 -4.317,-5.52 V 97.0195 h -8.269 V 119.57 c 0,2.696 -0.911,4.2 -3.243,4.2 -2.636,0 -4.316,-1.797 -4.316,-5.52 V 97.0195 h -8.281 v 32.2655" /><path
             id="path116"
             style="fill:#231f20;fill-opacity:1;fill-rule:nonzero;stroke:none"
             d="M 130.285,145.07 C 118.762,125.438 93.4805,118.852 73.8633,130.383 54.2305,141.906 47.6445,167.211 59.168,186.848 70.6992,206.461 95.7852,213 115.637,201.52 c 19.851,-11.454 26.203,-36.832 14.648,-56.45 z m -7.879,68.344 C 96.2227,228.797 62.8477,220.09 47.4414,193.902 33.9727,170.66 39.1211,141.605 58.6836,124.766 L 36.6563,87.7539 C 34.4648,84.0156 35.832,79.2031 39.6602,77.1758 l 5.2851,-2.7969 c 3.6445,-1.9297 8.1602,-0.6094 10.1914,2.9805 l 20.8906,37.2036 c 24.4847,-8.813 52.3557,0.835 65.8907,23.886 15.359,26.18 6.695,59.586 -19.512,74.965" /></g></g></g></g></svg>