<?xml version="1.0" encoding="UTF-8" standalone="no"?>
<svg
   xmlns:dc="http://purl.org/dc/elements/1.1/"
   xmlns:cc="http://creativecommons.org/ns#"
   xmlns:rdf="http://www.w3.org/1999/02/22-rdf-syntax-ns#"
   xmlns:svg="http://www.w3.org/2000/svg"
   xmlns="http://www.w3.org/2000/svg"
   viewBox="0 0 94.487999 45.354132"
   height="45.354134"
   width="94.487999"
   xml:space="preserve"
   id="svg2"
   version="1.1"><metadata
     id="metadata8"><rdf:RDF><cc:Work
         rdf:about=""><dc:format>image/svg+xml</dc:format><dc:type
           rdf:resource="http://purl.org/dc/dcmitype/StillImage" /></cc:Work></rdf:RDF></metadata><defs
     id="defs6"><clipPath
       id="clipPath20"
       clipPathUnits="userSpaceOnUse"><path
         id="path18"
         d="M 0,0 H 708.66 V 340.156 H 0 Z" /></clipPath></defs><g
     transform="matrix(1.3333333,0,0,-1.3333333,0,45.354132)"
     id="g10"><g
       transform="scale(0.1)"
       id="g12"><g
         id="g14"><g
           clip-path="url(#clipPath20)"
           id="g16"><path
             id="path22"
             style="fill:#ffffff;fill-opacity:1;fill-rule:nonzero;stroke:none"
             d="M 2.50391,2.50391 V 337.656 H 706.164 V 2.50391 H 2.50391" /><path
             id="path24"
             style="fill:#231f20;fill-opacity:1;fill-rule:nonzero;stroke:none"
             d="M 708.66,340.156 H 0 V 0 h 708.66 z m -5,-5 V 5 H 5 v 330.156 h 698.66" /><path
             id="path26"
             style="fill:#231f20;fill-opacity:1;fill-rule:nonzero;stroke:none"
             d="M 690.344,243.469 H 166.699 c 19.414,-19.008 31.672,-44.953 32.895,-73.699 h 490.75 v 73.699" /><path
             id="path28"
             style="fill:#231f20;fill-opacity:1;fill-rule:nonzero;stroke:none"
             d="M 165.301,84.1445 H 690.344 V 157.844 H 199.531 c -1.558,-28.903 -14.328,-54.848 -34.23,-73.6995" /><path
             id="path30"
             style="fill:#231f20;fill-opacity:1;fill-rule:nonzero;stroke:none"
             d="m 45.5195,21.0781 h -5.2812 v 20.625 H 25.5469 v -20.625 h -5.2774 v 42.8125 h 5.2774 V 46.3828 h 14.6914 v 17.5078 h 5.2812 V 21.0781" /><path
             id="path32"
             style="fill:#231f20;fill-opacity:1;fill-rule:nonzero;stroke:none"
             d="m 68.1445,40.5039 v 1.7383 c 0,3.6016 -1.1406,7.8594 -5.5742,7.8594 -5.2812,0 -5.8789,-6.4727 -5.8789,-8.3985 v -1.1992 z m -11.6367,-3.957 c 0,-4.9102 0,-12.3516 6.1797,-12.3516 4.7969,0 5.457,5.0391 5.457,7.4414 h 5.0352 c 0,-3.4297 -2.0352,-11.3984 -10.793,-11.3984 -7.8554,0 -11.1562,5.4609 -11.1562,16.4844 0,8.039 1.5625,17.3359 11.457,17.3359 9.832,0 10.7305,-8.5742 10.7305,-15.4688 V 36.5469 H 56.5078" /><path
             id="path34"
             style="fill:#231f20;fill-opacity:1;fill-rule:nonzero;stroke:none"
             d="m 93.6992,38.5898 c -1.8594,-1.9843 -6.2969,-2.4023 -8.5781,-3.7812 -1.6133,-1.0156 -2.457,-2.2734 -2.457,-5.0977 0,-3.2421 1.1406,-5.5156 4.5586,-5.5156 3.3007,0 6.4765,2.8203 6.4765,6.1133 z M 78.168,43.5 c 0,7.3242 3.1172,10.5586 10.7929,10.5586 9.7735,0 9.7735,-5.8789 9.7735,-9.2383 V 26.8906 c 0,-1.3203 0,-2.5781 1.5626,-2.5781 0.66,0 0.957,0.125 1.195,0.3008 v -3.5938 c -0.355,-0.0664 -1.6756,-0.3007 -2.9373,-0.3007 -1.918,0 -4.3164,0 -4.5547,4.1406 h -0.1211 c -1.6172,-2.8828 -4.7383,-4.6211 -7.7344,-4.6211 -5.9961,0 -8.7578,3.5937 -8.7578,9.3555 0,4.4921 1.9219,7.6171 6.0586,8.8789 l 6.7735,2.0312 c 3.6601,1.1406 3.6601,2.1563 3.6601,4.8633 0,2.9961 -1.8008,4.7344 -5.1562,4.7344 -5.5196,0 -5.5196,-5.1563 -5.5196,-6.2969 V 43.5 H 78.168" /><path
             id="path36"
             style="fill:#231f20;fill-opacity:1;fill-rule:nonzero;stroke:none"
             d="m 105.891,63.8906 h 5.039 V 21.0781 h -5.039 v 42.8125" /><path
             id="path38"
             style="fill:#231f20;fill-opacity:1;fill-rule:nonzero;stroke:none"
             d="m 119.324,62.5742 h 5.039 v -9.3554 h 5.578 v -3.9571 h -5.578 V 28.6289 c 0,-2.5781 0.66,-3.5937 3.301,-3.5937 1.082,0 1.676,0.1171 2.219,0.1757 v -4.1328 c -0.66,-0.125 -1.977,-0.3593 -4.078,-0.3593 -5.219,0 -6.481,2.1562 -6.481,6.3554 v 22.1875 h -4.672 v 3.9571 h 4.672 v 9.3554" /><path
             id="path40"
             style="fill:#231f20;fill-opacity:1;fill-rule:nonzero;stroke:none"
             d="m 133.363,63.8906 h 5.039 V 49.5664 h 0.125 c 1.317,2.6367 4.852,4.4922 7.735,4.4922 8.273,0 8.273,-6.418 8.273,-10.1953 V 21.0781 h -5.039 v 22.1875 c 0,2.461 -0.18,6.4766 -4.734,6.4766 -2.699,0 -6.36,-1.7969 -6.36,-6.4766 V 21.0781 h -5.039 v 42.8125" /><path
             id="path42"
             style="fill:#231f20;fill-opacity:1;fill-rule:nonzero;stroke:none"
             d="m 201.93,35.7656 c -0.481,-8.0937 -3.657,-15.5273 -13.016,-15.5273 -12.172,0 -13.785,11.457 -13.785,22.2461 0,10.7929 1.976,22.2461 13.785,22.2461 8.758,0 12.414,-4.9102 12.656,-13.3086 h -5.515 c -0.121,4.8515 -1.68,8.9922 -7.141,8.9922 -7.312,0 -8.273,-8.0352 -8.273,-17.9297 0,-9.8906 0.961,-17.9297 8.273,-17.9297 6.418,0 7.316,5.9961 7.496,11.2109 h 5.52" /><path
             id="path44"
             style="fill:#231f20;fill-opacity:1;fill-rule:nonzero;stroke:none"
             d="m 221.441,38.5898 c -1.863,-1.9843 -6.3,-2.4023 -8.578,-3.7812 -1.617,-1.0156 -2.457,-2.2734 -2.457,-5.0977 0,-3.2421 1.137,-5.5156 4.555,-5.5156 3.301,0 6.48,2.8203 6.48,6.1133 z M 205.906,43.5 c 0,7.3242 3.117,10.5586 10.793,10.5586 9.778,0 9.778,-5.8789 9.778,-9.2383 V 26.8906 c 0,-1.3203 0,-2.5781 1.558,-2.5781 0.66,0 0.957,0.125 1.199,0.3008 v -3.5938 c -0.355,-0.0664 -1.679,-0.3007 -2.941,-0.3007 -1.918,0 -4.316,0 -4.555,4.1406 h -0.117 c -1.621,-2.8828 -4.742,-4.6211 -7.738,-4.6211 -5.996,0 -8.754,3.5937 -8.754,9.3555 0,4.4921 1.918,7.6171 6.059,8.8789 l 6.773,2.0312 c 3.66,1.1406 3.66,2.1563 3.66,4.8633 0,2.9961 -1.801,4.7344 -5.16,4.7344 -5.52,0 -5.52,-5.1563 -5.52,-6.2969 V 43.5 h -5.035" /><path
             id="path46"
             style="fill:#231f20;fill-opacity:1;fill-rule:nonzero;stroke:none"
             d="m 233.32,53.2188 h 4.801 v -3.7813 h 0.121 c 1.321,2.9414 4.672,4.6211 7.793,4.6211 8.457,0 8.457,-6.418 8.457,-10.1953 V 21.0781 h -5.039 v 22.1875 c 0,2.461 -0.18,6.4766 -4.734,6.4766 -2.703,0 -6.36,-1.7969 -6.36,-6.4766 V 21.0781 h -5.039 v 32.1407" /><path
             id="path48"
             style="fill:#231f20;fill-opacity:1;fill-rule:nonzero;stroke:none"
             d="m 275.859,38.5898 c -1.859,-1.9843 -6.296,-2.4023 -8.578,-3.7812 -1.617,-1.0156 -2.457,-2.2734 -2.457,-5.0977 0,-3.2421 1.137,-5.5156 4.555,-5.5156 3.301,0 6.48,2.8203 6.48,6.1133 z M 260.328,43.5 c 0,7.3242 3.113,10.5586 10.789,10.5586 9.778,0 9.778,-5.8789 9.778,-9.2383 V 26.8906 c 0,-1.3203 0,-2.5781 1.562,-2.5781 0.656,0 0.957,0.125 1.195,0.3008 v -3.5938 c -0.355,-0.0664 -1.679,-0.3007 -2.937,-0.3007 -1.922,0 -4.317,0 -4.559,4.1406 h -0.121 c -1.617,-2.8828 -4.734,-4.6211 -7.734,-4.6211 -5.996,0 -8.754,3.5937 -8.754,9.3555 0,4.4921 1.918,7.6171 6.058,8.8789 l 6.774,2.0312 c 3.656,1.1406 3.656,2.1563 3.656,4.8633 0,2.9961 -1.797,4.7344 -5.156,4.7344 -5.516,0 -5.516,-5.1563 -5.516,-6.2969 V 43.5 h -5.035" /><path
             id="path50"
             style="fill:#231f20;fill-opacity:1;fill-rule:nonzero;stroke:none"
             d="m 297.695,24.5547 c 5.578,0 6.481,5.2734 6.481,12.5898 0,6.2383 -1.086,12.5977 -6.481,12.5977 -4.675,0 -5.875,-4.9219 -5.875,-12.5977 0,-7.6757 1.2,-12.5898 5.875,-12.5898 z m 11.215,-3.4766 h -4.797 v 3.9571 h -0.121 c -0.656,-2.4024 -3.48,-4.7969 -6.957,-4.7969 -7.617,0 -10.492,6.7773 -10.492,16.9062 0,6.7188 1.078,16.9141 10.133,16.9141 2.879,0 5.937,-1.7383 7.078,-4.4922 h 0.117 v 14.3242 h 5.039 V 21.0781" /><path
             id="path52"
             style="fill:#231f20;fill-opacity:1;fill-rule:nonzero;stroke:none"
             d="m 330.277,38.5898 c -1.859,-1.9843 -6.297,-2.4023 -8.578,-3.7812 -1.617,-1.0156 -2.457,-2.2734 -2.457,-5.0977 0,-3.2421 1.141,-5.5156 4.559,-5.5156 3.301,0 6.476,2.8203 6.476,6.1133 z M 314.746,43.5 c 0,7.3242 3.117,10.5586 10.789,10.5586 9.778,0 9.778,-5.8789 9.778,-9.2383 V 26.8906 c 0,-1.3203 0,-2.5781 1.562,-2.5781 0.66,0 0.957,0.125 1.195,0.3008 v -3.5938 c -0.355,-0.0664 -1.679,-0.3007 -2.937,-0.3007 -1.918,0 -4.317,0 -4.559,4.1406 h -0.113 c -1.621,-2.8828 -4.742,-4.6211 -7.742,-4.6211 -5.996,0 -8.754,3.5937 -8.754,9.3555 0,4.4921 1.918,7.6171 6.058,8.8789 l 6.774,2.0312 c 3.664,1.1406 3.664,2.1563 3.664,4.8633 0,2.9961 -1.805,4.7344 -5.164,4.7344 -5.516,0 -5.516,-5.1563 -5.516,-6.2969 V 43.5 h -5.035" /><path
             id="path54"
             style="fill:#231f20;fill-opacity:1;fill-rule:nonzero;stroke:none"
             d="m 366.57,64.7305 h 3.957 L 356.621,20.2383 h -3.961 l 13.91,44.4922" /><path
             id="path56"
             style="fill:#231f20;fill-opacity:1;fill-rule:nonzero;stroke:none"
             d="m 405.996,52.7969 c 0,4.5039 -1.621,7.6172 -6.66,7.6172 -4.434,0 -7.078,-2.4024 -7.078,-6.9532 0,-12.0586 20.215,-4.8632 20.215,-20.5078 0,-9.9023 -7.258,-12.7148 -13.321,-12.7148 -10.011,0 -12.953,5.1562 -12.953,14.2695 h 5.278 c 0,-4.7969 0.3,-9.9531 8.035,-9.9531 4.199,0 7.441,3 7.441,7.5586 0,12.1094 -20.215,5.0976 -20.215,20.8008 0,3.9648 1.68,11.8164 12.539,11.8164 8.157,0 11.875,-4.0703 11.993,-11.9336 h -5.274" /><path
             id="path58"
             style="fill:#231f20;fill-opacity:1;fill-rule:nonzero;stroke:none"
             d="m 432.395,38.5898 c -1.86,-1.9843 -6.301,-2.4023 -8.575,-3.7812 -1.625,-1.0156 -2.461,-2.2734 -2.461,-5.0977 0,-3.2421 1.141,-5.5156 4.559,-5.5156 3.301,0 6.477,2.8203 6.477,6.1133 z M 416.863,43.5 c 0,7.3242 3.117,10.5586 10.793,10.5586 9.778,0 9.778,-5.8789 9.778,-9.2383 V 26.8906 c 0,-1.3203 0,-2.5781 1.558,-2.5781 0.656,0 0.957,0.125 1.196,0.3008 v -3.5938 c -0.352,-0.0664 -1.68,-0.3007 -2.942,-0.3007 -1.914,0 -4.316,0 -4.551,4.1406 h -0.117 c -1.621,-2.8828 -4.746,-4.6211 -7.742,-4.6211 -5.996,0 -8.75,3.5937 -8.75,9.3555 0,4.4921 1.91,7.6171 6.055,8.8789 l 6.777,2.0312 c 3.66,1.1406 3.66,2.1563 3.66,4.8633 0,2.9961 -1.805,4.7344 -5.168,4.7344 -5.515,0 -5.515,-5.1563 -5.515,-6.2969 V 43.5 h -5.032" /><path
             id="path60"
             style="fill:#231f20;fill-opacity:1;fill-rule:nonzero;stroke:none"
             d="m 444.277,53.2188 h 4.793 v -3.7813 h 0.129 c 1.321,2.9414 4.668,4.6211 7.793,4.6211 8.457,0 8.457,-6.418 8.457,-10.1953 V 21.0781 h -5.039 v 22.1875 c 0,2.461 -0.183,6.4766 -4.734,6.4766 -2.707,0 -6.36,-1.7969 -6.36,-6.4766 V 21.0781 h -5.039 v 32.1407" /><path
             id="path62"
             style="fill:#231f20;fill-opacity:1;fill-rule:nonzero;stroke:none"
             d="m 473.555,62.5742 h 5.039 v -9.3554 h 5.578 v -3.9571 h -5.578 V 28.6289 c 0,-2.5781 0.652,-3.5937 3.301,-3.5937 1.074,0 1.671,0.1171 2.218,0.1757 v -4.1328 c -0.668,-0.125 -1.984,-0.3593 -4.086,-0.3593 -5.211,0 -6.472,2.1562 -6.472,6.3554 v 22.1875 h -4.676 v 3.9571 h 4.676 v 9.3554" /><path
             id="path64"
             style="fill:#231f20;fill-opacity:1;fill-rule:nonzero;stroke:none"
             d="m 498.809,66.1758 h 5.879 l -6.473,-8.5156 h -3.606 z m 4.621,-25.6719 v 1.7383 c 0,3.6016 -1.145,7.8594 -5.578,7.8594 -5.274,0 -5.879,-6.4727 -5.879,-8.3985 v -1.1992 z m -11.633,-3.957 c 0,-4.9102 0,-12.3516 6.172,-12.3516 4.804,0 5.461,5.0391 5.461,7.4414 h 5.039 c 0,-3.4297 -2.043,-11.3984 -10.793,-11.3984 -7.86,0 -11.16,5.4609 -11.16,16.4844 0,8.039 1.558,17.3359 11.453,17.3359 9.836,0 10.73,-8.5742 10.73,-15.4688 v -2.0429 h -16.902" /><path
             id="path66"
             style="fill:#231f20;fill-opacity:1;fill-rule:nonzero;stroke:none"
             d="m 555.02,35.7656 c -0.477,-8.0937 -3.653,-15.5273 -13.008,-15.5273 -12.176,0 -13.789,11.457 -13.789,22.2461 0,10.7929 1.972,22.2461 13.789,22.2461 8.75,0 12.414,-4.9102 12.656,-13.3086 h -5.516 c -0.129,4.8515 -1.679,8.9922 -7.14,8.9922 -7.317,0 -8.282,-8.0352 -8.282,-17.9297 0,-9.8906 0.965,-17.9297 8.282,-17.9297 6.418,0 7.312,5.9961 7.492,11.2109 h 5.516" /><path
             id="path68"
             style="fill:#231f20;fill-opacity:1;fill-rule:nonzero;stroke:none"
             d="m 574.531,38.5898 c -1.863,-1.9843 -6.297,-2.4023 -8.586,-3.7812 -1.609,-1.0156 -2.449,-2.2734 -2.449,-5.0977 0,-3.2421 1.133,-5.5156 4.551,-5.5156 3.301,0 6.484,2.8203 6.484,6.1133 z M 558.992,43.5 c 0,7.3242 3.117,10.5586 10.793,10.5586 9.778,0 9.778,-5.8789 9.778,-9.2383 V 26.8906 c 0,-1.3203 0,-2.5781 1.558,-2.5781 0.664,0 0.957,0.125 1.203,0.3008 v -3.5938 c -0.359,-0.0664 -1.679,-0.3007 -2.937,-0.3007 -1.926,0 -4.317,0 -4.563,4.1406 h -0.117 c -1.621,-2.8828 -4.734,-4.6211 -7.734,-4.6211 -5.996,0 -8.758,3.5937 -8.758,9.3555 0,4.4921 1.922,7.6171 6.062,8.8789 l 6.77,2.0312 c 3.66,1.1406 3.66,2.1563 3.66,4.8633 0,2.9961 -1.797,4.7344 -5.156,4.7344 -5.52,0 -5.52,-5.1563 -5.52,-6.2969 V 43.5 h -5.039" /><path
             id="path70"
             style="fill:#231f20;fill-opacity:1;fill-rule:nonzero;stroke:none"
             d="m 586.418,53.2188 h 4.793 v -3.7813 h 0.129 c 1.316,2.9414 4.668,4.6211 7.793,4.6211 8.457,0 8.457,-6.418 8.457,-10.1953 V 21.0781 h -5.039 v 22.1875 c 0,2.461 -0.188,6.4766 -4.738,6.4766 -2.704,0 -6.36,-1.7969 -6.36,-6.4766 V 21.0781 h -5.035 v 32.1407" /><path
             id="path72"
             style="fill:#231f20;fill-opacity:1;fill-rule:nonzero;stroke:none"
             d="m 628.945,38.5898 c -1.855,-1.9843 -6.297,-2.4023 -8.574,-3.7812 -1.621,-1.0156 -2.461,-2.2734 -2.461,-5.0977 0,-3.2421 1.145,-5.5156 4.563,-5.5156 3.3,0 6.472,2.8203 6.472,6.1133 z M 613.418,43.5 c 0,7.3242 3.113,10.5586 10.793,10.5586 9.773,0 9.773,-5.8789 9.773,-9.2383 V 26.8906 c 0,-1.3203 0,-2.5781 1.563,-2.5781 0.652,0 0.957,0.125 1.191,0.3008 v -3.5938 c -0.351,-0.0664 -1.679,-0.3007 -2.937,-0.3007 -1.914,0 -4.317,0 -4.555,4.1406 h -0.113 c -1.621,-2.8828 -4.746,-4.6211 -7.746,-4.6211 -5.996,0 -8.75,3.5937 -8.75,9.3555 0,4.4921 1.914,7.6171 6.054,8.8789 l 6.778,2.0312 c 3.664,1.1406 3.664,2.1563 3.664,4.8633 0,2.9961 -1.809,4.7344 -5.168,4.7344 -5.52,0 -5.52,-5.1563 -5.52,-6.2969 V 43.5 h -5.027" /><path
             id="path74"
             style="fill:#231f20;fill-opacity:1;fill-rule:nonzero;stroke:none"
             d="m 650.793,24.5547 c 5.574,0 6.473,5.2734 6.473,12.5898 0,6.2383 -1.082,12.5977 -6.473,12.5977 -4.68,0 -5.883,-4.9219 -5.883,-12.5977 0,-7.6757 1.203,-12.5898 5.883,-12.5898 z m 11.211,-3.4766 h -4.797 v 3.9571 h -0.117 c -0.664,-2.4024 -3.485,-4.7969 -6.961,-4.7969 -7.617,0 -10.488,6.7773 -10.488,16.9062 0,6.7188 1.074,16.9141 10.125,16.9141 2.882,0 5.937,-1.7383 7.082,-4.4922 h 0.117 v 14.3242 h 5.039 V 21.0781" /><path
             id="path76"
             style="fill:#231f20;fill-opacity:1;fill-rule:nonzero;stroke:none"
             d="m 683.367,38.5898 c -1.863,-1.9843 -6.297,-2.4023 -8.582,-3.7812 -1.609,-1.0156 -2.449,-2.2734 -2.449,-5.0977 0,-3.2421 1.133,-5.5156 4.551,-5.5156 3.301,0 6.48,2.8203 6.48,6.1133 z M 667.832,43.5 c 0,7.3242 3.113,10.5586 10.789,10.5586 9.777,0 9.777,-5.8789 9.777,-9.2383 V 26.8906 c 0,-1.3203 0,-2.5781 1.563,-2.5781 0.664,0 0.957,0.125 1.199,0.3008 v -3.5938 c -0.359,-0.0664 -1.676,-0.3007 -2.937,-0.3007 -1.922,0 -4.317,0 -4.563,4.1406 h -0.113 c -1.621,-2.8828 -4.738,-4.6211 -7.734,-4.6211 -5.997,0 -8.762,3.5937 -8.762,9.3555 0,4.4921 1.926,7.6171 6.062,8.8789 l 6.77,2.0312 c 3.664,1.1406 3.664,2.1563 3.664,4.8633 0,2.9961 -1.801,4.7344 -5.156,4.7344 -5.52,0 -5.52,-5.1563 -5.52,-6.2969 V 43.5 h -5.039" /><path
             id="path78"
             style="fill:#231f20;fill-opacity:1;fill-rule:nonzero;stroke:none"
             d="m 224.195,311.035 h 8.633 v -16.367 h 10.078 v 16.367 h 8.633 v -42.812 h -8.633 v 19.011 h -10.078 v -19.011 h -8.633 v 42.812" /><path
             id="path80"
             style="fill:#231f20;fill-opacity:1;fill-rule:nonzero;stroke:none"
             d="m 259.117,300.488 h 8.281 v -32.265 h -8.281 z m 0,11.035 h 8.281 v -7.082 h -8.281 v 7.082" /><path
             id="path82"
             style="fill:#231f20;fill-opacity:1;fill-rule:nonzero;stroke:none"
             d="m 286.48,274.941 c 3.477,0 4.5,3.782 4.5,9.231 0,7.859 -1.023,10.801 -4.324,10.801 -3.652,0 -4.316,-2.942 -4.316,-11.645 0,-4.433 0.664,-8.387 4.14,-8.387 z m 12.411,25.547 v -30.644 c 0,-8.516 -3.778,-12.656 -13.426,-12.656 -7.024,0 -10.977,3.117 -10.977,8.632 h 7.91 c 0,-1.074 0.489,-1.914 1.258,-2.453 0.782,-0.547 1.739,-0.894 2.766,-0.894 3.359,0 4.558,2.507 4.558,5.808 v 4.258 h -0.125 c -1.679,-2.394 -4.257,-3.953 -6.894,-3.953 -6.594,0 -9.895,4.488 -9.895,16.309 0,7.554 1.145,16.433 10.137,16.433 2.277,0 5.098,-1.086 6.652,-4.441 h 0.125 v 3.601 h 7.911" /><path
             id="path84"
             style="fill:#231f20;fill-opacity:1;fill-rule:nonzero;stroke:none"
             d="m 306.227,311.035 h 8.281 v -13.847 h 0.117 c 1.563,2.753 4.375,4.14 7.859,4.14 5.157,0 8.215,-2.82 8.215,-9.18 v -23.925 h -8.281 v 22.246 c 0,3.242 -1.074,4.504 -3.535,4.504 -2.813,0 -4.375,-1.743 -4.375,-5.344 v -21.406 h -8.281 v 42.812" /><path
             id="path86"
             style="fill:#231f20;fill-opacity:1;fill-rule:nonzero;stroke:none"
             d="m 353.941,300.488 h 8.282 v -32.265 h -8.282 z m 0,11.035 h 8.282 v -7.082 h -8.282 v 7.082" /><path
             id="path88"
             style="fill:#231f20;fill-opacity:1;fill-rule:nonzero;stroke:none"
             d="m 369.543,300.488 h 7.918 v -3.777 h 0.117 c 1.738,3.172 4.738,4.617 8.223,4.617 5.156,0 8.215,-2.82 8.215,-9.18 v -23.925 h -8.282 v 22.246 c 0,3.242 -1.078,4.504 -3.539,4.504 -2.808,0 -4.375,-1.743 -4.375,-5.344 v -21.406 h -8.277 v 32.265" /><path
             id="path90"
             style="fill:#231f20;fill-opacity:1;fill-rule:nonzero;stroke:none"
             d="m 427.57,311.875 h 6.715 l -13.551,-44.492 h -6.711 l 13.547,44.492" /><path
             id="path92"
             style="fill:#231f20;fill-opacity:1;fill-rule:nonzero;stroke:none"
             d="m 466.047,322.195 h 8.269 l -5.871,-8.64 h -5.64 z m 12.41,-11.16 v -7.07 h -15.293 v -10.078 h 14.395 v -7.071 h -14.395 v -11.511 h 15.899 v -7.082 h -24.532 v 42.812 h 23.926" /><path
             id="path94"
             style="fill:#231f20;fill-opacity:1;fill-rule:nonzero;stroke:none"
             d="m 484.949,311.035 h 8.285 v -42.812 h -8.285 v 42.812" /><path
             id="path96"
             style="fill:#231f20;fill-opacity:1;fill-rule:nonzero;stroke:none"
             d="m 516.086,288.008 c -0.188,4.922 -0.781,7.676 -4.199,7.676 -3.301,0 -4.258,-3.418 -4.258,-6.414 v -1.262 z m -8.457,-4.91 v -2.578 c 0,-3.782 1.016,-7.5 4.082,-7.5 2.754,0 3.894,2.097 4.375,6.05 h 7.43 c -0.293,-7.488 -3.899,-11.687 -11.692,-11.687 -11.988,0 -12.469,9.238 -12.469,17.273 0,8.637 1.68,16.672 12.833,16.672 9.648,0 11.804,-6.484 11.804,-16.379 v -1.851 h -16.363" /><path
             id="path98"
             style="fill:#231f20;fill-opacity:1;fill-rule:nonzero;stroke:none"
             d="m 545.129,300.488 h 8.277 l -8.093,-32.265 h -9.598 l -8.332,32.265 h 8.633 l 4.621,-23.086 h 0.117 l 4.375,23.086" /><path
             id="path100"
             style="fill:#231f20;fill-opacity:1;fill-rule:nonzero;stroke:none"
             d="m 568.488,312.898 h 8.27 l -5.867,-8.628 h -5.649 z m 5.039,-24.89 c -0.187,4.922 -0.785,7.676 -4.203,7.676 -3.297,0 -4.254,-3.418 -4.254,-6.414 v -1.262 z m -8.457,-4.91 v -2.578 c 0,-3.782 1.016,-7.5 4.082,-7.5 2.75,0 3.895,2.097 4.375,6.05 h 7.43 c -0.293,-7.488 -3.894,-11.687 -11.687,-11.687 -11.993,0 -12.473,9.238 -12.473,17.273 0,8.637 1.68,16.672 12.832,16.672 9.648,0 11.809,-6.484 11.809,-16.379 v -1.851 H 565.07" /><path
             id="path102"
             style="fill:#231f20;fill-opacity:1;fill-rule:nonzero;stroke:none"
             d="m 618.711,288.008 c -0.184,4.922 -0.781,7.676 -4.199,7.676 -3.301,0 -4.258,-3.418 -4.258,-6.414 v -1.262 z m -8.457,-4.91 v -2.578 c 0,-3.782 1.016,-7.5 4.082,-7.5 2.754,0 3.898,2.097 4.375,6.05 h 7.434 c -0.293,-7.488 -3.899,-11.687 -11.692,-11.687 -11.992,0 -12.469,9.238 -12.469,17.273 0,8.637 1.676,16.672 12.832,16.672 9.649,0 11.805,-6.484 11.805,-16.379 v -1.851 h -16.367" /><path
             id="path104"
             style="fill:#231f20;fill-opacity:1;fill-rule:nonzero;stroke:none"
             d="m 632.461,300.488 h 7.922 v -3.777 h 0.113 c 1.742,3.172 4.738,4.617 8.227,4.617 5.156,0 8.211,-2.82 8.211,-9.18 v -23.925 h -8.282 v 22.246 c 0,3.242 -1.074,4.504 -3.535,4.504 -2.812,0 -4.375,-1.743 -4.375,-5.344 v -21.406 h -8.281 v 32.265" /><path
             id="path106"
             style="fill:#ffffff;fill-opacity:1;fill-rule:nonzero;stroke:none"
             d="m 232.828,200.023 v -1.257 c 0,-4.016 1.141,-6.594 5.703,-6.594 2.637,0 5.157,1.68 5.157,5.273 0,3.899 -1.985,5.344 -7.676,7.317 -7.676,2.644 -11.223,5.82 -11.223,12.957 0,8.332 5.098,12.59 13.262,12.59 7.676,0 13.254,-3.293 13.254,-11.516 v -1.191 h -8.282 c 0,4.015 -1.378,6.347 -4.679,6.347 -3.895,0 -4.91,-2.449 -4.91,-4.969 0,-2.636 0.781,-4.257 4.433,-5.82 l 6.66,-2.883 c 6.473,-2.812 8.153,-6.113 8.153,-11.328 0,-9.051 -5.516,-13.133 -14.871,-13.133 -9.778,0 -13.614,4.559 -13.614,12.469 v 1.738 h 8.633" /><path
             id="path108"
             style="fill:#ffffff;fill-opacity:1;fill-rule:nonzero;stroke:none"
             d="m 273.336,202.789 c -1.145,-0.84 -2.52,-1.379 -3.547,-1.621 -3.348,-0.723 -4.668,-2.336 -4.668,-5.215 0,-2.461 0.899,-4.504 3.117,-4.504 2.215,0 5.098,1.446 5.098,4.981 z m -15.117,6.231 v 0.781 c 0,7.441 5.097,9.961 11.336,9.961 9.836,0 11.691,-4.082 11.691,-9.903 v -16.964 c 0,-2.997 0.184,-4.383 1.024,-6.239 h -7.918 c -0.539,1.016 -0.782,2.274 -1.016,3.36 h -0.129 c -1.914,-3.36 -4.258,-4.2 -8.211,-4.2 -5.754,0 -7.793,4.922 -7.793,9.239 0,6.054 2.461,8.515 8.152,10.066 l 4.68,1.262 c 2.461,0.664 3.301,1.621 3.301,3.777 0,2.461 -1.086,3.957 -3.84,3.957 -2.519,0 -3.836,-1.679 -3.836,-4.191 v -0.906 h -7.441" /><path
             id="path110"
             style="fill:#ffffff;fill-opacity:1;fill-rule:nonzero;stroke:none"
             d="m 290.453,228.148 h 8.274 v -9.226 h 4.793 v -5.645 h -4.793 v -17.441 c 0,-2.52 0.535,-3.547 2.937,-3.547 0.664,0 1.32,0.059 1.856,0.117 v -5.75 c -1.797,-0.176 -3.477,-0.363 -5.391,-0.363 -6.484,0 -7.676,1.984 -7.676,8.516 v 18.468 h -4.199 v 5.645 h 4.199 v 9.226" /><path
             id="path112"
             style="fill:#ffffff;fill-opacity:1;fill-rule:nonzero;stroke:none"
             d="m 325.621,213.277 h -4.199 v 5.645 h 4.199 v 3.652 c 0,5.821 3.289,7.735 8.633,7.735 1.492,0 2.937,-0.059 4.434,-0.176 v -5.879 c -0.54,0.059 -1.075,0.059 -1.614,0.059 -2.344,0 -3.183,-0.715 -3.183,-2.579 v -2.812 h 4.797 v -5.645 h -4.797 v -26.621 h -8.27 v 26.621" /><path
             id="path114"
             style="fill:#ffffff;fill-opacity:1;fill-rule:nonzero;stroke:none"
             d="m 356.93,202.789 c -1.145,-0.84 -2.52,-1.379 -3.547,-1.621 -3.348,-0.723 -4.668,-2.336 -4.668,-5.215 0,-2.461 0.898,-4.504 3.117,-4.504 2.215,0 5.098,1.446 5.098,4.981 z m -15.117,6.231 v 0.781 c 0,7.441 5.097,9.961 11.335,9.961 9.836,0 11.692,-4.082 11.692,-9.903 v -16.964 c 0,-2.997 0.183,-4.383 1.023,-6.239 h -7.918 c -0.539,1.016 -0.781,2.274 -1.015,3.36 h -0.129 c -1.914,-3.36 -4.258,-4.2 -8.211,-4.2 -5.754,0 -7.793,4.922 -7.793,9.239 0,6.054 2.461,8.515 8.152,10.066 l 4.68,1.262 c 2.461,0.664 3.301,1.621 3.301,3.777 0,2.461 -1.086,3.957 -3.84,3.957 -2.52,0 -3.836,-1.679 -3.836,-4.191 v -0.906 h -7.441" /><path
             id="path116"
             style="fill:#ffffff;fill-opacity:1;fill-rule:nonzero;stroke:none"
             d="m 374.047,228.148 h 8.273 v -9.226 h 4.793 v -5.645 h -4.793 v -17.441 c 0,-2.52 0.535,-3.547 2.938,-3.547 0.664,0 1.32,0.059 1.855,0.117 v -5.75 c -1.797,-0.176 -3.476,-0.363 -5.39,-0.363 -6.485,0 -7.676,1.984 -7.676,8.516 v 18.468 h -4.199 v 5.645 h 4.199 v 9.226" /><path
             id="path118"
             style="fill:#ffffff;fill-opacity:1;fill-rule:nonzero;stroke:none"
             d="m 418.023,230.309 h 6.719 l -13.554,-44.493 h -6.711 l 13.546,44.493" /><path
             id="path120"
             style="fill:#ffffff;fill-opacity:1;fill-rule:nonzero;stroke:none"
             d="m 463.988,216.762 c 0,3.176 -1.445,7.187 -4.922,7.187 -4.199,0 -5.878,-4.316 -5.878,-14.988 0,-10.313 0.968,-16.789 5.937,-16.789 2.043,0 5.344,2.219 5.344,6.836 v 4.375 h -5.703 v 6.359 h 13.972 v -23.086 h -6.355 v 3.953 h -0.117 c -2.043,-3.359 -4.981,-4.793 -8.996,-4.793 -10.614,0 -12.715,7.918 -12.715,22.723 0,14.395 3.359,21.77 14.394,21.77 9.473,0 13.313,-4.856 13.313,-13.547 h -8.274" /><path
             id="path122"
             style="fill:#ffffff;fill-opacity:1;fill-rule:nonzero;stroke:none"
             d="m 479.605,218.922 h 7.918 v -4.317 h 0.118 c 1.679,3.114 4.023,5.157 7.441,5.157 0.481,0 1.016,-0.071 1.496,-0.129 v -7.91 c -0.84,0.058 -1.738,0.117 -2.578,0.117 -2.883,0 -6.113,-1.492 -6.113,-5.82 v -19.364 h -8.282 v 32.266" /><path
             id="path124"
             style="fill:#ffffff;fill-opacity:1;fill-rule:nonzero;stroke:none"
             d="m 516.148,202.789 c -1.144,-0.84 -2.519,-1.379 -3.546,-1.621 -3.348,-0.723 -4.668,-2.336 -4.668,-5.215 0,-2.461 0.898,-4.504 3.117,-4.504 2.215,0 5.097,1.446 5.097,4.981 z m -15.117,6.231 v 0.781 c 0,7.441 5.098,9.961 11.336,9.961 9.836,0 11.692,-4.082 11.692,-9.903 v -16.964 c 0,-2.997 0.183,-4.383 1.023,-6.239 h -7.918 c -0.539,1.016 -0.781,2.274 -1.016,3.36 h -0.128 c -1.915,-3.36 -4.258,-4.2 -8.211,-4.2 -5.754,0 -7.793,4.922 -7.793,9.239 0,6.054 2.461,8.515 8.152,10.066 l 4.68,1.262 c 2.461,0.664 3.3,1.621 3.3,3.777 0,2.461 -1.085,3.957 -3.839,3.957 -2.52,0 -3.836,-1.679 -3.836,-4.191 v -0.906 h -7.442" /><path
             id="path126"
             style="fill:#ffffff;fill-opacity:1;fill-rule:nonzero;stroke:none"
             d="m 537.516,197.211 v -1.082 c 0,-2.813 1.492,-4.68 4.316,-4.68 2.52,0 4.199,1.262 4.199,3.84 0,2.098 -1.386,3.055 -3,3.66 l -5.82,2.102 c -4.559,1.621 -6.895,4.433 -6.895,8.992 0,5.332 3.36,9.719 11.875,9.719 7.493,0 11.036,-3.36 11.036,-9.18 v -1.32 h -7.442 c 0,3.242 -0.957,4.855 -3.652,4.855 -2.098,0 -3.906,-1.191 -3.906,-3.476 0,-1.555 0.839,-2.883 3.605,-3.782 l 4.969,-1.679 c 5.226,-1.739 7.14,-4.375 7.14,-9.227 0,-6.777 -5.039,-10.137 -11.992,-10.137 -9.297,0 -11.875,4.082 -11.875,10.254 v 1.141 h 7.442" /><path
             id="path128"
             style="fill:#ffffff;fill-opacity:1;fill-rule:nonzero;stroke:none"
             d="m 581.566,197.211 v -1.082 c 0,-2.813 1.497,-4.68 4.317,-4.68 2.519,0 4.199,1.262 4.199,3.84 0,2.098 -1.387,3.055 -2.996,3.66 l -5.82,2.102 c -4.563,1.621 -6.895,4.433 -6.895,8.992 0,5.332 3.359,9.719 11.875,9.719 7.488,0 11.035,-3.36 11.035,-9.18 v -1.32 h -7.441 c 0,3.242 -0.957,4.855 -3.664,4.855 -2.09,0 -3.895,-1.191 -3.895,-3.476 0,-1.555 0.84,-2.883 3.602,-3.782 l 4.972,-1.679 c 5.223,-1.739 7.137,-4.375 7.137,-9.227 0,-6.777 -5.039,-10.137 -11.992,-10.137 -9.297,0 -11.875,4.082 -11.875,10.254 v 1.141 h 7.441" /><path
             id="path130"
             style="fill:#ffffff;fill-opacity:1;fill-rule:nonzero;stroke:none"
             d="m 618.707,202.789 c -1.144,-0.84 -2.519,-1.379 -3.547,-1.621 -3.347,-0.723 -4.668,-2.336 -4.668,-5.215 0,-2.461 0.899,-4.504 3.117,-4.504 2.215,0 5.098,1.446 5.098,4.981 z m -15.117,6.231 v 0.781 c 0,7.441 5.098,9.961 11.336,9.961 9.836,0 11.691,-4.082 11.691,-9.903 v -16.964 c 0,-2.997 0.184,-4.383 1.024,-6.239 h -7.918 c -0.539,1.016 -0.782,2.274 -1.016,3.36 h -0.129 c -1.914,-3.36 -4.258,-4.2 -8.211,-4.2 -5.754,0 -7.793,4.922 -7.793,9.239 0,6.054 2.461,8.515 8.153,10.066 l 4.679,1.262 c 2.461,0.664 3.301,1.621 3.301,3.777 0,2.461 -1.086,3.957 -3.84,3.957 -2.519,0 -3.836,-1.679 -3.836,-4.191 v -0.906 h -7.441" /><path
             id="path132"
             style="fill:#ffffff;fill-opacity:1;fill-rule:nonzero;stroke:none"
             d="m 635.816,228.148 h 8.27 v -9.226 h 4.797 v -5.645 h -4.797 v -17.441 c 0,-2.52 0.539,-3.547 2.941,-3.547 0.664,0 1.317,0.059 1.856,0.117 v -5.75 c -1.797,-0.176 -3.477,-0.363 -5.391,-0.363 -6.476,0 -7.676,1.984 -7.676,8.516 v 18.468 h -4.199 v 5.645 h 4.199 v 9.226" /><path
             id="path134"
             style="fill:#ffffff;fill-opacity:1;fill-rule:nonzero;stroke:none"
             d="m 661.676,196.012 v -9.356 h -7.91 v 9.356 h 7.91" /><path
             id="path136"
             style="fill:#ffffff;fill-opacity:1;fill-rule:nonzero;stroke:none"
             d="m 232.828,114.398 v -1.257 c 0,-4.016 1.141,-6.594 5.703,-6.594 2.637,0 5.157,1.68 5.157,5.273 0,3.899 -1.985,5.344 -7.676,7.317 -7.676,2.644 -11.223,5.82 -11.223,12.957 0,8.332 5.098,12.59 13.262,12.59 7.676,0 13.254,-3.293 13.254,-11.516 v -1.191 h -8.282 c 0,4.015 -1.378,6.347 -4.679,6.347 -3.895,0 -4.91,-2.449 -4.91,-4.969 0,-2.636 0.781,-4.257 4.433,-5.82 l 6.66,-2.883 c 6.473,-2.812 8.153,-6.113 8.153,-11.328 0,-9.051 -5.516,-13.133 -14.871,-13.133 -9.778,0 -13.614,4.559 -13.614,12.469 v 1.738 h 8.633" /><path
             id="path138"
             style="fill:#ffffff;fill-opacity:1;fill-rule:nonzero;stroke:none"
             d="m 274.828,104.809 h -0.117 c -1.738,-3.184 -4.734,-4.618 -8.211,-4.618 -5.156,0 -8.223,2.821 -8.223,9.18 v 23.926 h 8.282 v -22.258 c 0,-3.23 1.074,-4.492 3.535,-4.492 2.82,0 4.375,1.738 4.375,5.332 v 21.418 h 8.281 v -32.266 h -7.922 v 3.778" /><path
             id="path140"
             style="fill:#ffffff;fill-opacity:1;fill-rule:nonzero;stroke:none"
             d="m 301.539,107.75 c 3.477,0 4.5,3.777 4.5,9.227 0,7.863 -1.023,10.8 -4.324,10.8 -3.652,0 -4.317,-2.937 -4.317,-11.64 0,-4.434 0.665,-8.387 4.141,-8.387 z m 12.41,25.547 v -30.645 c 0,-8.5153 -3.777,-12.6559 -13.426,-12.6559 -7.023,0 -10.976,3.1133 -10.976,8.6328 h 7.91 c 0,-1.0742 0.488,-1.9141 1.258,-2.4531 0.781,-0.5469 1.738,-0.8985 2.765,-0.8985 3.36,0 4.559,2.5118 4.559,5.8127 v 4.258 h -0.125 c -1.68,-2.395 -4.258,-3.957 -6.894,-3.957 -6.594,0 -9.895,4.492 -9.895,16.308 0,7.559 1.145,16.438 10.137,16.438 2.277,0 5.097,-1.086 6.652,-4.446 h 0.125 v 3.606 h 7.91" /><path
             id="path142"
             style="fill:#ffffff;fill-opacity:1;fill-rule:nonzero;stroke:none"
             d="m 336.352,117.164 c -1.141,-0.84 -2.52,-1.379 -3.543,-1.621 -3.352,-0.723 -4.68,-2.336 -4.68,-5.215 0,-2.461 0.91,-4.504 3.125,-4.504 2.219,0 5.098,1.446 5.098,4.981 z m -15.118,6.231 v 0.781 c 0,7.441 5.098,9.961 11.34,9.961 9.832,0 11.688,-4.082 11.688,-9.903 V 107.27 c 0,-2.997 0.187,-4.383 1.027,-6.239 h -7.922 c -0.535,1.016 -0.781,2.274 -1.015,3.36 h -0.125 c -1.914,-3.36 -4.25,-4.2 -8.215,-4.2 -5.75,0 -7.793,4.922 -7.793,9.239 0,6.054 2.461,8.515 8.156,10.066 l 4.676,1.262 c 2.461,0.664 3.301,1.621 3.301,3.777 0,2.461 -1.082,3.957 -3.836,3.957 -2.52,0 -3.84,-1.679 -3.84,-4.191 v -0.906 h -7.442" /><path
             id="path144"
             style="fill:#ffffff;fill-opacity:1;fill-rule:nonzero;stroke:none"
             d="m 351.656,133.297 h 7.918 v -4.317 h 0.117 c 1.68,3.114 4.024,5.157 7.442,5.157 0.48,0 1.015,-0.071 1.496,-0.129 v -7.91 c -0.84,0.058 -1.738,0.117 -2.578,0.117 -2.883,0 -6.113,-1.492 -6.113,-5.82 v -19.364 h -8.282 v 32.266" /><path
             id="path146"
             style="fill:#ffffff;fill-opacity:1;fill-rule:nonzero;stroke:none"
             d="m 379.203,111.586 v -1.082 c 0,-2.813 1.496,-4.68 4.317,-4.68 2.519,0 4.199,1.262 4.199,3.84 0,2.098 -1.387,3.055 -2.996,3.66 l -5.821,2.102 c -4.562,1.621 -6.894,4.433 -6.894,8.992 0,5.332 3.359,9.719 11.875,9.719 7.488,0 11.035,-3.36 11.035,-9.18 v -1.32 h -7.441 c 0,3.242 -0.957,4.855 -3.664,4.855 -2.09,0 -3.895,-1.191 -3.895,-3.476 0,-1.555 0.84,-2.883 3.602,-3.782 l 4.972,-1.679 c 5.223,-1.739 7.137,-4.375 7.137,-9.227 0,-6.777 -5.039,-10.137 -11.992,-10.137 -9.297,0 -11.875,4.082 -11.875,10.254 v 1.141 h 7.441" /><path
             id="path148"
             style="fill:#ffffff;fill-opacity:1;fill-rule:nonzero;stroke:none"
             d="m 427.809,144.684 h 6.718 l -13.554,-44.493 h -6.711 l 13.547,44.493" /><path
             id="path150"
             style="fill:#ffffff;fill-opacity:1;fill-rule:nonzero;stroke:none"
             d="m 461.715,114.398 v -1.257 c 0,-4.016 1.14,-6.594 5.703,-6.594 2.637,0 5.156,1.68 5.156,5.273 0,3.899 -1.984,5.344 -7.676,7.317 -7.675,2.644 -11.222,5.82 -11.222,12.957 0,8.332 5.097,12.59 13.262,12.59 7.675,0 13.253,-3.293 13.253,-11.516 v -1.191 h -8.281 c 0,4.015 -1.379,6.347 -4.68,6.347 -3.894,0 -4.91,-2.449 -4.91,-4.969 0,-2.636 0.782,-4.257 4.434,-5.82 l 6.66,-2.883 c 6.473,-2.812 8.152,-6.113 8.152,-11.328 0,-9.051 -5.515,-13.133 -14.871,-13.133 -9.777,0 -13.613,4.559 -13.613,12.469 v 1.738 h 8.633" /><path
             id="path152"
             style="fill:#ffffff;fill-opacity:1;fill-rule:nonzero;stroke:none"
             d="m 503.715,104.809 h -0.117 c -1.739,-3.184 -4.735,-4.618 -8.211,-4.618 -5.157,0 -8.223,2.821 -8.223,9.18 v 23.926 h 8.281 v -22.258 c 0,-3.23 1.075,-4.492 3.535,-4.492 2.821,0 4.375,1.738 4.375,5.332 v 21.418 h 8.282 v -32.266 h -7.922 v 3.778" /><path
             id="path154"
             style="fill:#ffffff;fill-opacity:1;fill-rule:nonzero;stroke:none"
             d="m 534.203,121.656 c 0,3.125 -0.605,6.485 -3.719,6.485 -4.074,0 -4.738,-3.606 -4.738,-11.036 0,-7.98 0.723,-11.281 4.434,-11.281 2.765,0 4.023,2.344 4.023,7.559 h 7.91 c 0,-8.457 -3.535,-13.192 -12.285,-13.192 -8.281,0 -12.351,4.012 -12.351,16.973 0,13.25 5.449,16.973 13.066,16.973 7.617,0 11.57,-4.864 11.57,-12.481 h -7.91" /><path
             id="path156"
             style="fill:#ffffff;fill-opacity:1;fill-rule:nonzero;stroke:none"
             d="m 547.953,133.297 h 7.922 v -4.317 h 0.117 c 1.68,3.114 4.024,5.157 7.442,5.157 0.476,0 1.015,-0.071 1.492,-0.129 v -7.91 c -0.84,0.058 -1.738,0.117 -2.578,0.117 -2.879,0 -6.114,-1.492 -6.114,-5.82 v -19.364 h -8.281 v 32.266" /><path
             id="path158"
             style="fill:#ffffff;fill-opacity:1;fill-rule:nonzero;stroke:none"
             d="m 584.977,120.816 c -0.188,4.922 -0.782,7.676 -4.2,7.676 -3.3,0 -4.257,-3.418 -4.257,-6.418 v -1.258 z m -8.457,-4.914 v -2.578 c 0,-3.777 1.015,-7.5 4.082,-7.5 2.753,0 3.894,2.102 4.375,6.055 h 7.429 c -0.293,-7.488 -3.894,-11.688 -11.687,-11.688 -11.992,0 -12.473,9.239 -12.473,17.274 0,8.633 1.68,16.672 12.832,16.672 9.649,0 11.809,-6.485 11.809,-16.379 v -1.856 H 576.52" /><path
             id="path160"
             style="fill:#ffffff;fill-opacity:1;fill-rule:nonzero;stroke:none"
             d="m 604.789,111.586 v -1.082 c 0,-2.813 1.496,-4.68 4.316,-4.68 2.52,0 4.2,1.262 4.2,3.84 0,2.098 -1.387,3.055 -2.996,3.66 l -5.821,2.102 c -4.562,1.621 -6.894,4.433 -6.894,8.992 0,5.332 3.359,9.719 11.875,9.719 7.488,0 11.035,-3.36 11.035,-9.18 v -1.32 h -7.441 c 0,3.242 -0.958,4.855 -3.665,4.855 -2.089,0 -3.894,-1.191 -3.894,-3.476 0,-1.555 0.84,-2.883 3.601,-3.782 l 4.973,-1.679 c 5.223,-1.739 7.137,-4.375 7.137,-9.227 0,-6.777 -5.039,-10.137 -11.992,-10.137 -9.297,0 -11.875,4.082 -11.875,10.254 v 1.141 h 7.441" /><path
             id="path162"
             style="fill:#231f20;fill-opacity:1;fill-rule:nonzero;stroke:none"
             d="M 135.84,160.188 C 123.395,138.984 96.0938,131.879 74.918,144.324 53.7188,156.77 46.6055,184.094 59.0508,205.293 71.5,226.469 98.5859,233.527 120.02,221.137 c 21.433,-12.371 28.289,-39.77 15.82,-60.949 z m -8.512,73.789 C 99.0586,250.586 63.0234,241.184 46.3906,212.91 31.8477,187.813 37.4023,156.445 58.5234,138.262 L 34.7422,98.3008 c -2.3633,-4.0391 -0.8867,-9.2305 3.2461,-11.4219 l 5.707,-3.0195 c 3.9336,-2.0821 8.8086,-0.6563 11,3.2187 l 22.5586,40.1679 c 26.4341,-9.516 56.5231,0.899 71.1411,25.789 16.585,28.27 7.226,64.336 -21.067,80.942" /></g></g></g></g></svg>