<?xml version="1.0" encoding="UTF-8" standalone="no"?>
<svg
   xmlns:dc="http://purl.org/dc/elements/1.1/"
   xmlns:cc="http://creativecommons.org/ns#"
   xmlns:rdf="http://www.w3.org/1999/02/22-rdf-syntax-ns#"
   xmlns:svg="http://www.w3.org/2000/svg"
   xmlns="http://www.w3.org/2000/svg"
   viewBox="0 0 105.82653 53.669328"
   height="53.669331"
   width="105.82653"
   xml:space="preserve"
   id="svg2"
   version="1.1"><metadata
     id="metadata8"><rdf:RDF><cc:Work
         rdf:about=""><dc:format>image/svg+xml</dc:format><dc:type
           rdf:resource="http://purl.org/dc/dcmitype/StillImage" /></cc:Work></rdf:RDF></metadata><defs
     id="defs6"><clipPath
       id="clipPath20"
       clipPathUnits="userSpaceOnUse"><path
         id="path18"
         d="M 0,0 H 793.699 V 402.52 H 0 Z" /></clipPath></defs><g
     transform="matrix(1.3333333,0,0,-1.3333333,0,53.669332)"
     id="g10"><g
       transform="scale(0.1)"
       id="g12"><g
         id="g14"><g
           clip-path="url(#clipPath20)"
           id="g16"><path
             id="path22"
             style="fill:#ffffff;fill-opacity:1;fill-rule:nonzero;stroke:none"
             d="M 2.5,2.5 V 400.02 H 791.203 V 2.5 H 2.5" /><path
             id="path24"
             style="fill:#231f20;fill-opacity:1;fill-rule:nonzero;stroke:none"
             d="M 793.699,402.52 H 0 V 0 h 793.699 z m -5,-5 V 5 H 5 v 392.52 h 783.699" /><path
             id="path26"
             style="fill:#231f20;fill-opacity:1;fill-rule:nonzero;stroke:none"
             d="M 261.719,146.012 C 249.348,113.375 224.23,86.8672 192.332,72.3125 H 772.047 V 146.012 H 261.719" /><path
             id="path28"
             style="fill:#231f20;fill-opacity:1;fill-rule:nonzero;stroke:none"
             d="m 288.707,380.629 h 8.637 v -16.367 h 10.074 v 16.367 h 8.633 v -42.813 h -8.633 v 19.012 h -10.074 v -19.012 h -8.637 v 42.813" /><path
             id="path30"
             style="fill:#231f20;fill-opacity:1;fill-rule:nonzero;stroke:none"
             d="m 323.625,370.082 h 8.273 v -32.266 h -8.273 z m 0,11.035 h 8.273 v -7.082 h -8.273 v 7.082" /><path
             id="path32"
             style="fill:#231f20;fill-opacity:1;fill-rule:nonzero;stroke:none"
             d="m 350.98,344.535 c 3.481,0 4.5,3.781 4.5,9.231 0,7.859 -1.019,10.8 -4.316,10.8 -3.656,0 -4.316,-2.941 -4.316,-11.64 0,-4.434 0.66,-8.391 4.132,-8.391 z m 12.415,25.547 v -30.644 c 0,-8.516 -3.774,-12.657 -13.434,-12.657 -7.016,0 -10.973,3.117 -10.973,8.633 h 7.918 c 0,-1.074 0.477,-1.914 1.258,-2.449 0.777,-0.551 1.738,-0.899 2.758,-0.899 3.359,0 4.558,2.508 4.558,5.809 v 4.258 h -0.117 c -1.679,-2.391 -4.258,-3.953 -6.898,-3.953 -6.598,0 -9.895,4.492 -9.895,16.308 0,7.559 1.137,16.434 10.133,16.434 2.277,0 5.098,-1.082 6.66,-4.442 h 0.117 v 3.602 h 7.915" /><path
             id="path34"
             style="fill:#231f20;fill-opacity:1;fill-rule:nonzero;stroke:none"
             d="m 370.727,380.629 h 8.277 v -13.848 h 0.117 c 1.563,2.754 4.383,4.141 7.856,4.141 5.156,0 8.218,-2.82 8.218,-9.18 v -23.926 h -8.273 v 22.247 c 0,3.242 -1.082,4.503 -3.543,4.503 -2.816,0 -4.375,-1.742 -4.375,-5.343 v -21.407 h -8.277 v 42.813" /><path
             id="path36"
             style="fill:#231f20;fill-opacity:1;fill-rule:nonzero;stroke:none"
             d="m 418.418,370.082 h 8.281 v -32.266 h -8.281 z m 0,11.035 h 8.281 v -7.082 h -8.281 v 7.082" /><path
             id="path38"
             style="fill:#231f20;fill-opacity:1;fill-rule:nonzero;stroke:none"
             d="m 434.023,370.082 h 7.911 v -3.777 h 0.129 c 1.738,3.172 4.734,4.617 8.21,4.617 5.157,0 8.215,-2.82 8.215,-9.18 v -23.926 h -8.273 v 22.247 c 0,3.242 -1.082,4.503 -3.543,4.503 -2.813,0 -4.375,-1.742 -4.375,-5.343 v -21.407 h -8.274 v 32.266" /><path
             id="path40"
             style="fill:#231f20;fill-opacity:1;fill-rule:nonzero;stroke:none"
             d="m 492.043,381.469 h 6.707 l -13.543,-44.492 h -6.719 l 13.555,44.492" /><path
             id="path42"
             style="fill:#231f20;fill-opacity:1;fill-rule:nonzero;stroke:none"
             d="m 530.5,391.789 h 8.27 l -5.879,-8.641 h -5.633 z m 12.41,-11.16 v -7.07 H 527.617 V 363.48 h 14.395 v -7.07 h -14.395 v -11.512 h 15.891 v -7.082 h -24.524 v 42.813 h 23.926" /><path
             id="path44"
             style="fill:#231f20;fill-opacity:1;fill-rule:nonzero;stroke:none"
             d="m 549.395,380.629 h 8.281 v -42.813 h -8.281 v 42.813" /><path
             id="path46"
             style="fill:#231f20;fill-opacity:1;fill-rule:nonzero;stroke:none"
             d="m 580.527,357.602 c -0.175,4.921 -0.781,7.675 -4.199,7.675 -3.289,0 -4.258,-3.418 -4.258,-6.414 v -1.261 z m -8.457,-4.911 v -2.578 c 0,-3.781 1.028,-7.5 4.082,-7.5 2.754,0 3.899,2.098 4.375,6.051 h 7.442 c -0.301,-7.488 -3.906,-11.687 -11.699,-11.687 -11.993,0 -12.469,9.238 -12.469,17.277 0,8.633 1.679,16.668 12.832,16.668 9.656,0 11.816,-6.484 11.816,-16.375 v -1.856 H 572.07" /><path
             id="path48"
             style="fill:#231f20;fill-opacity:1;fill-rule:nonzero;stroke:none"
             d="m 609.57,370.082 h 8.274 l -8.098,-32.266 h -9.59 l -8.34,32.266 h 8.645 l 4.617,-23.086 h 0.117 l 4.375,23.086" /><path
             id="path50"
             style="fill:#231f20;fill-opacity:1;fill-rule:nonzero;stroke:none"
             d="m 632.91,382.492 h 8.281 l -5.878,-8.629 h -5.633 z m 5.039,-24.89 c -0.176,4.921 -0.781,7.675 -4.199,7.675 -3.289,0 -4.258,-3.418 -4.258,-6.414 v -1.261 z m -8.457,-4.911 v -2.578 c 0,-3.781 1.028,-7.5 4.082,-7.5 2.754,0 3.899,2.098 4.375,6.051 h 7.442 c -0.301,-7.488 -3.907,-11.687 -11.7,-11.687 -11.992,0 -12.468,9.238 -12.468,17.277 0,8.633 1.679,16.668 12.832,16.668 9.656,0 11.816,-6.484 11.816,-16.375 v -1.856 h -16.379" /><path
             id="path52"
             style="fill:#231f20;fill-opacity:1;fill-rule:nonzero;stroke:none"
             d="m 683.125,357.602 c -0.176,4.921 -0.781,7.675 -4.199,7.675 -3.289,0 -4.258,-3.418 -4.258,-6.414 v -1.261 z m -8.457,-4.911 v -2.578 c 0,-3.781 1.027,-7.5 4.082,-7.5 2.754,0 3.898,2.098 4.375,6.051 h 7.441 c -0.3,-7.488 -3.906,-11.687 -11.699,-11.687 -11.992,0 -12.469,9.238 -12.469,17.277 0,8.633 1.68,16.668 12.832,16.668 9.657,0 11.817,-6.484 11.817,-16.375 v -1.856 h -16.379" /><path
             id="path54"
             style="fill:#231f20;fill-opacity:1;fill-rule:nonzero;stroke:none"
             d="m 696.875,370.082 h 7.922 v -3.777 h 0.117 c 1.738,3.172 4.734,4.617 8.211,4.617 5.156,0 8.223,-2.82 8.223,-9.18 v -23.926 h -8.282 v 22.247 c 0,3.242 -1.074,4.503 -3.535,4.503 -2.82,0 -4.375,-1.742 -4.375,-5.343 v -21.407 h -8.281 v 32.266" /><path
             id="path56"
             style="fill:#231f20;fill-opacity:1;fill-rule:nonzero;stroke:none"
             d="m 125.852,18.9609 h -5.282 v 20.625 h -14.691 v -20.625 h -5.277 v 42.8125 h 5.277 V 44.2617 h 14.691 v 17.5117 h 5.282 V 18.9609" /><path
             id="path58"
             style="fill:#231f20;fill-opacity:1;fill-rule:nonzero;stroke:none"
             d="m 148.473,38.3945 v 1.7383 c 0,3.5938 -1.145,7.8516 -5.578,7.8516 -5.278,0 -5.879,-6.4766 -5.879,-8.3985 v -1.1914 z m -11.637,-3.9648 c 0,-4.9141 0,-12.3555 6.176,-12.3555 4.801,0 5.461,5.0391 5.461,7.4414 h 5.035 c 0,-3.4179 -2.039,-11.3984 -10.793,-11.3984 -7.856,0 -11.156,5.4609 -11.156,16.4961 0,8.039 1.562,17.3242 11.453,17.3242 9.836,0 10.734,-8.5742 10.734,-15.4687 v -2.0391 h -16.91" /><path
             id="path60"
             style="fill:#231f20;fill-opacity:1;fill-rule:nonzero;stroke:none"
             d="m 174.035,36.4688 c -1.863,-1.9805 -6.301,-2.4024 -8.582,-3.7774 C 163.84,31.6758 163,30.4141 163,27.5938 c 0,-3.2344 1.137,-5.5196 4.555,-5.5196 3.3,0 6.48,2.8242 6.48,6.125 z m -15.531,4.9218 c 0,7.3125 3.113,10.5469 10.789,10.5469 9.773,0 9.773,-5.8672 9.773,-9.2266 V 24.7813 c 0,-1.3204 0,-2.5821 1.567,-2.5821 0.656,0 0.957,0.1211 1.195,0.293 v -3.5899 c -0.359,-0.0585 -1.68,-0.3046 -2.941,-0.3046 -1.918,0 -4.317,0 -4.555,4.1406 h -0.117 c -1.621,-2.8789 -4.742,-4.6211 -7.738,-4.6211 -5.997,0 -8.758,3.5976 -8.758,9.3594 0,4.5 1.922,7.6172 6.062,8.875 l 6.77,2.0429 c 3.664,1.1328 3.664,2.1563 3.664,4.8516 0,2.9961 -1.801,4.7383 -5.16,4.7383 -5.52,0 -5.52,-5.1602 -5.52,-6.3008 v -0.293 h -5.031" /><path
             id="path62"
             style="fill:#231f20;fill-opacity:1;fill-rule:nonzero;stroke:none"
             d="m 186.223,61.7734 h 5.035 V 18.9609 h -5.035 v 42.8125" /><path
             id="path64"
             style="fill:#231f20;fill-opacity:1;fill-rule:nonzero;stroke:none"
             d="m 199.664,60.4531 h 5.035 v -9.3554 h 5.574 v -3.9532 h -5.574 v -20.625 c 0,-2.5781 0.656,-3.6054 3.301,-3.6054 1.078,0 1.672,0.125 2.215,0.1875 v -4.1407 c -0.66,-0.1171 -1.977,-0.3632 -4.078,-0.3632 -5.219,0 -6.473,2.1601 -6.473,6.3554 v 22.1914 h -4.68 v 3.9532 h 4.68 v 9.3554" /><path
             id="path66"
             style="fill:#231f20;fill-opacity:1;fill-rule:nonzero;stroke:none"
             d="m 213.695,61.7734 h 5.039 V 47.4453 h 0.125 c 1.317,2.6367 4.852,4.4922 7.735,4.4922 8.273,0 8.273,-6.4141 8.273,-10.1953 V 18.9609 h -5.039 v 22.1875 c 0,2.461 -0.18,6.4727 -4.734,6.4727 -2.699,0 -6.36,-1.7969 -6.36,-6.4727 V 18.9609 h -5.039 v 42.8125" /><path
             id="path68"
             style="fill:#231f20;fill-opacity:1;fill-rule:nonzero;stroke:none"
             d="m 282.262,33.6484 c -0.481,-8.0976 -3.657,-15.5312 -13.012,-15.5312 -12.176,0 -13.797,11.457 -13.797,22.25 0,10.7969 1.985,22.2461 13.797,22.2461 8.754,0 12.41,-4.9141 12.656,-13.3125 h -5.519 c -0.121,4.8633 -1.68,8.9961 -7.137,8.9961 -7.316,0 -8.277,-8.0391 -8.277,-17.9297 0,-9.8945 0.961,-17.9297 8.277,-17.9297 6.414,0 7.316,5.9961 7.492,11.2109 h 5.52" /><path
             id="path70"
             style="fill:#231f20;fill-opacity:1;fill-rule:nonzero;stroke:none"
             d="m 301.773,36.4688 c -1.859,-1.9805 -6.3,-2.4024 -8.578,-3.7774 -1.617,-1.0156 -2.457,-2.2773 -2.457,-5.0976 0,-3.2344 1.137,-5.5196 4.555,-5.5196 3.301,0 6.48,2.8242 6.48,6.125 z m -15.531,4.9218 c 0,7.3125 3.113,10.5469 10.789,10.5469 9.778,0 9.778,-5.8672 9.778,-9.2266 V 24.7813 c 0,-1.3204 0,-2.5821 1.562,-2.5821 0.656,0 0.957,0.1211 1.195,0.293 v -3.5899 c -0.355,-0.0585 -1.679,-0.3046 -2.937,-0.3046 -1.922,0 -4.32,0 -4.559,4.1406 h -0.121 c -1.617,-2.8789 -4.734,-4.6211 -7.734,-4.6211 -5.996,0 -8.754,3.5976 -8.754,9.3594 0,4.5 1.918,7.6172 6.059,8.875 l 6.773,2.0429 c 3.656,1.1328 3.656,2.1563 3.656,4.8516 0,2.9961 -1.797,4.7383 -5.156,4.7383 -5.52,0 -5.52,-5.1602 -5.52,-6.3008 v -0.293 h -5.031" /><path
             id="path72"
             style="fill:#231f20;fill-opacity:1;fill-rule:nonzero;stroke:none"
             d="m 313.652,51.0977 h 4.801 v -3.7696 h 0.121 c 1.321,2.9297 4.672,4.6094 7.793,4.6094 8.457,0 8.457,-6.4141 8.457,-10.1953 V 18.9609 h -5.039 v 22.1875 c 0,2.461 -0.18,6.4727 -4.734,6.4727 -2.703,0 -6.36,-1.7969 -6.36,-6.4727 V 18.9609 h -5.039 v 32.1368" /><path
             id="path74"
             style="fill:#231f20;fill-opacity:1;fill-rule:nonzero;stroke:none"
             d="m 356.191,36.4688 c -1.859,-1.9805 -6.296,-2.4024 -8.578,-3.7774 -1.617,-1.0156 -2.457,-2.2773 -2.457,-5.0976 0,-3.2344 1.141,-5.5196 4.559,-5.5196 3.297,0 6.476,2.8242 6.476,6.125 z m -15.531,4.9218 c 0,7.3125 3.113,10.5469 10.789,10.5469 9.778,0 9.778,-5.8672 9.778,-9.2266 V 24.7813 c 0,-1.3204 0,-2.5821 1.562,-2.5821 0.66,0 0.957,0.1211 1.195,0.293 v -3.5899 c -0.355,-0.0585 -1.679,-0.3046 -2.937,-0.3046 -1.918,0 -4.317,0 -4.559,4.1406 h -0.117 c -1.617,-2.8789 -4.738,-4.6211 -7.738,-4.6211 -5.996,0 -8.754,3.5976 -8.754,9.3594 0,4.5 1.918,7.6172 6.059,8.875 l 6.773,2.0429 c 3.66,1.1328 3.66,2.1563 3.66,4.8516 0,2.9961 -1.801,4.7383 -5.16,4.7383 -5.516,0 -5.516,-5.1602 -5.516,-6.3008 v -0.293 h -5.035" /><path
             id="path76"
             style="fill:#231f20;fill-opacity:1;fill-rule:nonzero;stroke:none"
             d="m 378.027,22.4375 c 5.578,0 6.481,5.2813 6.481,12.5938 0,6.2343 -1.086,12.5898 -6.481,12.5898 -4.675,0 -5.875,-4.9102 -5.875,-12.5898 0,-7.6719 1.2,-12.5938 5.875,-12.5938 z m 11.215,-3.4766 h -4.797 v 3.9532 h -0.117 c -0.66,-2.3907 -3.484,-4.7969 -6.961,-4.7969 -7.613,0 -10.492,6.7812 -10.492,16.9141 0,6.7109 1.078,16.9062 10.133,16.9062 2.879,0 5.937,-1.7383 7.082,-4.4922 h 0.113 v 14.3281 h 5.039 V 18.9609" /><path
             id="path78"
             style="fill:#231f20;fill-opacity:1;fill-rule:nonzero;stroke:none"
             d="m 410.605,36.4688 c -1.855,-1.9805 -6.292,-2.4024 -8.574,-3.7774 -1.617,-1.0156 -2.457,-2.2773 -2.457,-5.0976 0,-3.2344 1.141,-5.5196 4.559,-5.5196 3.301,0 6.472,2.8242 6.472,6.125 z m -15.527,4.9218 c 0,7.3125 3.117,10.5469 10.793,10.5469 9.774,0 9.774,-5.8672 9.774,-9.2266 V 24.7813 c 0,-1.3204 0,-2.5821 1.562,-2.5821 0.656,0 0.957,0.1211 1.191,0.293 v -3.5899 c -0.351,-0.0585 -1.679,-0.3046 -2.937,-0.3046 -1.914,0 -4.316,0 -4.551,4.1406 h -0.129 c -1.609,-2.8789 -4.73,-4.6211 -7.73,-4.6211 -5.996,0 -8.754,3.5976 -8.754,9.3594 0,4.5 1.918,7.6172 6.058,8.875 l 6.774,2.0429 c 3.652,1.1328 3.652,2.1563 3.652,4.8516 0,2.9961 -1.797,4.7383 -5.148,4.7383 -5.52,0 -5.52,-5.1602 -5.52,-6.3008 v -0.293 h -5.035" /><path
             id="path80"
             style="fill:#231f20;fill-opacity:1;fill-rule:nonzero;stroke:none"
             d="m 446.906,62.6133 h 3.953 L 436.953,18.1172 h -3.965 l 13.918,44.4961" /><path
             id="path82"
             style="fill:#231f20;fill-opacity:1;fill-rule:nonzero;stroke:none"
             d="m 486.32,50.6797 c 0,4.5 -1.621,7.6172 -6.66,7.6172 -4.433,0 -7.07,-2.3946 -7.07,-6.9531 0,-12.0547 20.203,-4.8555 20.203,-20.5079 0,-9.8945 -7.254,-12.7187 -13.309,-12.7187 -10.019,0 -12.949,5.1601 -12.949,14.2812 h 5.274 c 0,-4.8046 0.3,-9.9609 8.035,-9.9609 4.199,0 7.433,2.9961 7.433,7.5547 0,12.1133 -20.207,5.1016 -20.207,20.8125 0,3.957 1.68,11.8086 12.532,11.8086 8.152,0 11.875,-4.0742 11.992,-11.9336 h -5.274" /><path
             id="path84"
             style="fill:#231f20;fill-opacity:1;fill-rule:nonzero;stroke:none"
             d="m 512.727,36.4688 c -1.868,-1.9805 -6.301,-2.4024 -8.586,-3.7774 -1.61,-1.0156 -2.45,-2.2773 -2.45,-5.0976 0,-3.2344 1.133,-5.5196 4.551,-5.5196 3.301,0 6.485,2.8242 6.485,6.125 z m -15.539,4.9218 c 0,7.3125 3.117,10.5469 10.792,10.5469 9.774,0 9.774,-5.8672 9.774,-9.2266 V 24.7813 c 0,-1.3204 0,-2.5821 1.562,-2.5821 0.664,0 0.957,0.1211 1.204,0.293 v -3.5899 c -0.364,-0.0585 -1.68,-0.3046 -2.942,-0.3046 -1.922,0 -4.316,0 -4.558,4.1406 h -0.118 c -1.621,-2.8789 -4.738,-4.6211 -7.734,-4.6211 -5.996,0 -8.762,3.5976 -8.762,9.3594 0,4.5 1.926,7.6172 6.067,8.875 l 6.765,2.0429 c 3.664,1.1328 3.664,2.1563 3.664,4.8516 0,2.9961 -1.797,4.7383 -5.156,4.7383 -5.519,0 -5.519,-5.1602 -5.519,-6.3008 v -0.293 h -5.039" /><path
             id="path86"
             style="fill:#231f20;fill-opacity:1;fill-rule:nonzero;stroke:none"
             d="m 524.609,51.0977 h 4.797 v -3.7696 h 0.125 c 1.321,2.9297 4.668,4.6094 7.793,4.6094 8.457,0 8.457,-6.4141 8.457,-10.1953 V 18.9609 h -5.039 v 22.1875 c 0,2.461 -0.183,6.4727 -4.734,6.4727 -2.707,0 -6.36,-1.7969 -6.36,-6.4727 V 18.9609 h -5.039 v 32.1368" /><path
             id="path88"
             style="fill:#231f20;fill-opacity:1;fill-rule:nonzero;stroke:none"
             d="m 553.887,60.4531 h 5.039 v -9.3554 h 5.578 v -3.9532 h -5.578 v -20.625 c 0,-2.5781 0.664,-3.6054 3.301,-3.6054 1.086,0 1.679,0.125 2.218,0.1875 v -4.1407 c -0.656,-0.1171 -1.972,-0.3632 -4.074,-0.3632 -5.223,0 -6.484,2.1601 -6.484,6.3554 v 22.1914 h -4.668 v 3.9532 h 4.668 v 9.3554" /><path
             id="path90"
             style="fill:#231f20;fill-opacity:1;fill-rule:nonzero;stroke:none"
             d="m 579.141,64.0586 h 5.879 l -6.473,-8.5195 h -3.606 z m 4.621,-25.6641 v 1.7383 c 0,3.5938 -1.145,7.8516 -5.578,7.8516 -5.274,0 -5.879,-6.4766 -5.879,-8.3985 v -1.1914 z m -11.633,-3.9648 c 0,-4.9141 0,-12.3555 6.172,-12.3555 4.804,0 5.461,5.0391 5.461,7.4414 h 5.039 c 0,-3.4179 -2.043,-11.3984 -10.793,-11.3984 -7.86,0 -11.16,5.4609 -11.16,16.4961 0,8.039 1.562,17.3242 11.453,17.3242 9.836,0 10.734,-8.5742 10.734,-15.4687 v -2.0391 h -16.906" /><path
             id="path92"
             style="fill:#231f20;fill-opacity:1;fill-rule:nonzero;stroke:none"
             d="m 635.352,33.6484 c -0.477,-8.0976 -3.653,-15.5312 -13.008,-15.5312 -12.176,0 -13.797,11.457 -13.797,22.25 0,10.7969 1.98,22.2461 13.797,22.2461 8.75,0 12.414,-4.9141 12.656,-13.3125 h -5.516 c -0.129,4.8633 -1.679,8.9961 -7.14,8.9961 -7.313,0 -8.281,-8.0391 -8.281,-17.9297 0,-9.8945 0.968,-17.9297 8.281,-17.9297 6.418,0 7.316,5.9961 7.492,11.2109 h 5.516" /><path
             id="path94"
             style="fill:#231f20;fill-opacity:1;fill-rule:nonzero;stroke:none"
             d="m 654.863,36.4688 c -1.863,-1.9805 -6.297,-2.4024 -8.582,-3.7774 -1.613,-1.0156 -2.453,-2.2773 -2.453,-5.0976 0,-3.2344 1.133,-5.5196 4.551,-5.5196 3.301,0 6.484,2.8242 6.484,6.125 z m -15.535,4.9218 c 0,7.3125 3.113,10.5469 10.789,10.5469 9.778,0 9.778,-5.8672 9.778,-9.2266 V 24.7813 c 0,-1.3204 0,-2.5821 1.562,-2.5821 0.664,0 0.957,0.1211 1.199,0.293 v -3.5899 c -0.359,-0.0585 -1.679,-0.3046 -2.937,-0.3046 -1.926,0 -4.317,0 -4.563,4.1406 h -0.117 c -1.621,-2.8789 -4.734,-4.6211 -7.734,-4.6211 -5.996,0 -8.758,3.5976 -8.758,9.3594 0,4.5 1.922,7.6172 6.062,8.875 l 6.77,2.0429 c 3.66,1.1328 3.66,2.1563 3.66,4.8516 0,2.9961 -1.797,4.7383 -5.156,4.7383 -5.516,0 -5.516,-5.1602 -5.516,-6.3008 v -0.293 h -5.039" /><path
             id="path96"
             style="fill:#231f20;fill-opacity:1;fill-rule:nonzero;stroke:none"
             d="m 666.75,51.0977 h 4.793 v -3.7696 h 0.129 c 1.316,2.9297 4.668,4.6094 7.793,4.6094 8.457,0 8.457,-6.4141 8.457,-10.1953 V 18.9609 h -5.039 v 22.1875 c 0,2.461 -0.188,6.4727 -4.738,6.4727 -2.704,0 -6.356,-1.7969 -6.356,-6.4727 V 18.9609 h -5.039 v 32.1368" /><path
             id="path98"
             style="fill:#231f20;fill-opacity:1;fill-rule:nonzero;stroke:none"
             d="m 709.277,36.4688 c -1.855,-1.9805 -6.297,-2.4024 -8.574,-3.7774 -1.621,-1.0156 -2.461,-2.2773 -2.461,-5.0976 0,-3.2344 1.145,-5.5196 4.563,-5.5196 3.3,0 6.472,2.8242 6.472,6.125 z m -15.527,4.9218 c 0,7.3125 3.117,10.5469 10.793,10.5469 9.773,0 9.773,-5.8672 9.773,-9.2266 V 24.7813 c 0,-1.3204 0,-2.5821 1.563,-2.5821 0.656,0 0.957,0.1211 1.191,0.293 v -3.5899 c -0.351,-0.0585 -1.679,-0.3046 -2.937,-0.3046 -1.914,0 -4.317,0 -4.551,4.1406 h -0.129 c -1.609,-2.8789 -4.734,-4.6211 -7.734,-4.6211 -5.996,0 -8.75,3.5976 -8.75,9.3594 0,4.5 1.914,7.6172 6.054,8.875 l 6.778,2.0429 c 3.652,1.1328 3.652,2.1563 3.652,4.8516 0,2.9961 -1.797,4.7383 -5.156,4.7383 -5.516,0 -5.516,-5.1602 -5.516,-6.3008 v -0.293 h -5.031" /><path
             id="path100"
             style="fill:#231f20;fill-opacity:1;fill-rule:nonzero;stroke:none"
             d="m 731.125,22.4375 c 5.574,0 6.473,5.2813 6.473,12.5938 0,6.2343 -1.082,12.5898 -6.473,12.5898 -4.68,0 -5.879,-4.9102 -5.879,-12.5898 0,-7.6719 1.199,-12.5938 5.879,-12.5938 z m 11.211,-3.4766 h -4.797 v 3.9532 h -0.117 c -0.664,-2.3907 -3.484,-4.7969 -6.961,-4.7969 -7.617,0 -10.488,6.7812 -10.488,16.9141 0,6.7109 1.074,16.9062 10.125,16.9062 2.882,0 5.937,-1.7383 7.082,-4.4922 h 0.117 v 14.3281 h 5.039 V 18.9609" /><path
             id="path102"
             style="fill:#231f20;fill-opacity:1;fill-rule:nonzero;stroke:none"
             d="m 763.703,36.4688 c -1.867,-1.9805 -6.301,-2.4024 -8.586,-3.7774 -1.609,-1.0156 -2.449,-2.2773 -2.449,-5.0976 0,-3.2344 1.133,-5.5196 4.551,-5.5196 3.301,0 6.484,2.8242 6.484,6.125 z m -15.539,4.9218 c 0,7.3125 3.117,10.5469 10.793,10.5469 9.773,0 9.773,-5.8672 9.773,-9.2266 V 24.7813 c 0,-1.3204 0,-2.5821 1.563,-2.5821 0.664,0 0.957,0.1211 1.203,0.293 v -3.5899 c -0.363,-0.0585 -1.68,-0.3046 -2.941,-0.3046 -1.922,0 -4.317,0 -4.559,4.1406 h -0.117 c -1.621,-2.8789 -4.738,-4.6211 -7.734,-4.6211 -5.997,0 -8.762,3.5976 -8.762,9.3594 0,4.5 1.926,7.6172 6.066,8.875 l 6.766,2.0429 c 3.664,1.1328 3.664,2.1563 3.664,4.8516 0,2.9961 -1.797,4.7383 -5.156,4.7383 -5.52,0 -5.52,-5.1602 -5.52,-6.3008 v -0.293 h -5.039" /><path
             id="path104"
             style="fill:#ffffff;fill-opacity:1;fill-rule:nonzero;stroke:none"
             d="m 297.121,102.613 v -1.261 c 0,-4.0122 1.137,-6.5903 5.692,-6.5903 2.64,0 5.16,1.6797 5.16,5.2693 0,3.899 -1.981,5.344 -7.676,7.317 -7.676,2.644 -11.215,5.82 -11.215,12.961 0,8.328 5.098,12.586 13.254,12.586 7.676,0 13.25,-3.29 13.25,-11.512 v -1.192 h -8.277 c 0,4.012 -1.375,6.344 -4.672,6.344 -3.903,0 -4.918,-2.449 -4.918,-4.969 0,-2.636 0.777,-4.257 4.433,-5.82 l 6.661,-2.879 c 6.476,-2.812 8.156,-6.113 8.156,-11.332 0,-9.0506 -5.52,-13.1327 -14.875,-13.1327 -9.774,0 -13.614,4.5625 -13.614,12.4687 v 1.742 h 8.641" /><path
             id="path106"
             style="fill:#ffffff;fill-opacity:1;fill-rule:nonzero;stroke:none"
             d="m 334.195,94.0352 c 3.36,0 4.438,3.3046 4.438,11.3398 0,8.035 -1.078,11.328 -4.438,11.328 -4.078,0 -4.433,-4.734 -4.433,-11.328 0,-6.6016 0.355,-11.3398 4.433,-11.3398 z m 0,28.3128 c 9.957,0.175 12.715,-5.762 12.715,-16.973 0,-11.0352 -3.238,-16.9727 -12.715,-16.9727 -9.953,-0.1757 -12.711,5.7618 -12.711,16.9727 0,11.035 3.239,16.973 12.711,16.973" /><path
             id="path108"
             style="fill:#ffffff;fill-opacity:1;fill-rule:nonzero;stroke:none"
             d="m 364.672,94.7617 c 3.664,0 4.383,3.5938 4.383,10.6133 0,7.012 -0.719,10.617 -4.383,10.617 -3.598,0 -4.317,-3.605 -4.317,-10.617 0,-7.0195 0.719,-10.6133 4.317,-10.6133 z m 4.742,-2.1015 h -0.121 c -1.797,-3 -4.078,-4.2579 -7.316,-4.2579 -6.778,0 -9.895,4.9805 -9.895,16.9727 0,11.992 3.117,16.973 9.895,16.973 3.117,0 5.214,-1.258 6.953,-3.836 h 0.125 v 13.543 h 8.273 V 89.2422 h -7.914 v 3.418" /><path
             id="path110"
             style="fill:#ffffff;fill-opacity:1;fill-rule:nonzero;stroke:none"
             d="m 384.66,121.508 h 8.274 V 89.2422 h -8.274 z m 0,11.035 h 8.274 v -7.078 h -8.274 v 7.078" /><path
             id="path112"
             style="fill:#ffffff;fill-opacity:1;fill-rule:nonzero;stroke:none"
             d="m 416.809,93.0234 h -0.118 c -1.738,-3.1836 -4.738,-4.6211 -8.218,-4.6211 -5.157,0 -8.215,2.8243 -8.215,9.1797 v 23.926 h 8.277 V 99.2539 c 0,-3.2344 1.074,-4.4922 3.535,-4.4922 2.825,0 4.375,1.7344 4.375,5.3323 v 21.414 h 8.282 V 89.2422 h -7.918 v 3.7812" /><path
             id="path114"
             style="fill:#ffffff;fill-opacity:1;fill-rule:nonzero;stroke:none"
             d="m 431.758,121.508 h 7.922 v -3.301 h 0.117 c 2.098,2.941 4.676,4.141 8.152,4.141 3.781,0 6.543,-1.864 7.442,-5.157 h 0.117 c 1.262,3.418 4.258,5.157 8.156,5.157 5.457,0 8.035,-3.418 8.035,-9.657 V 89.2422 h -8.281 v 22.5468 c 0,2.699 -0.898,4.203 -3.23,4.203 -2.637,0 -4.317,-1.808 -4.317,-5.519 V 89.2422 h -8.281 v 22.5468 c 0,2.699 -0.899,4.203 -3.235,4.203 -2.636,0 -4.316,-1.808 -4.316,-5.519 V 89.2422 h -8.281 v 32.2658" /><path
             id="path116"
             style="fill:#231f20;fill-opacity:1;fill-rule:nonzero;stroke:none"
             d="m 187.211,317.285 c 33.586,-13.668 60.273,-40.371 73.617,-73.699 h 511.219 v 73.699 H 187.211" /><path
             id="path118"
             style="fill:#231f20;fill-opacity:1;fill-rule:nonzero;stroke:none"
             d="m 264.504,231.648 c 3.66,-12.027 5.652,-24.761 5.652,-37.96 0,-12.391 -1.769,-24.368 -5.011,-35.739 h 506.902 v 73.699 H 264.504" /><path
             id="path120"
             style="fill:#ffffff;fill-opacity:1;fill-rule:nonzero;stroke:none"
             d="m 297.121,187.816 v -1.257 c 0,-4.016 1.137,-6.594 5.692,-6.594 2.64,0 5.16,1.68 5.16,5.273 0,3.899 -1.981,5.34 -7.676,7.317 -7.676,2.644 -11.215,5.824 -11.215,12.961 0,8.332 5.098,12.589 13.254,12.589 7.676,0 13.25,-3.292 13.25,-11.515 v -1.192 h -8.277 c 0,4.016 -1.375,6.348 -4.672,6.348 -3.903,0 -4.918,-2.449 -4.918,-4.969 0,-2.636 0.777,-4.257 4.433,-5.82 l 6.661,-2.883 c 6.476,-2.816 8.156,-6.117 8.156,-11.332 0,-9.051 -5.52,-13.133 -14.875,-13.133 -9.774,0 -13.614,4.559 -13.614,12.469 v 1.738 h 8.641" /><path
             id="path122"
             style="fill:#ffffff;fill-opacity:1;fill-rule:nonzero;stroke:none"
             d="m 339.117,178.227 h -0.121 c -1.738,-3.184 -4.738,-4.618 -8.219,-4.618 -5.156,0 -8.214,2.821 -8.214,9.176 v 23.934 h 8.277 v -22.262 c 0,-3.23 1.082,-4.492 3.535,-4.492 2.824,0 4.383,1.738 4.383,5.332 v 21.422 h 8.273 v -32.27 h -7.914 v 3.778" /><path
             id="path124"
             style="fill:#ffffff;fill-opacity:1;fill-rule:nonzero;stroke:none"
             d="m 365.816,181.164 c 3.477,0 4.497,3.781 4.497,9.231 0,7.867 -1.02,10.804 -4.317,10.804 -3.656,0 -4.316,-2.937 -4.316,-11.644 0,-4.434 0.66,-8.391 4.136,-8.391 z m 12.411,25.555 V 176.07 c 0,-8.515 -3.774,-12.66 -13.43,-12.66 -7.02,0 -10.973,3.117 -10.973,8.637 h 7.914 c 0,-1.074 0.481,-1.914 1.262,-2.453 0.773,-0.547 1.738,-0.906 2.758,-0.906 3.359,0 4.555,2.515 4.555,5.82 v 4.258 h -0.118 c -1.679,-2.403 -4.257,-3.957 -6.898,-3.957 -6.598,0 -9.895,4.492 -9.895,16.308 0,7.563 1.141,16.442 10.133,16.442 2.281,0 5.098,-1.086 6.66,-4.446 h 0.118 v 3.606 h 7.914" /><path
             id="path126"
             style="fill:#ffffff;fill-opacity:1;fill-rule:nonzero;stroke:none"
             d="m 400.617,190.578 c -1.144,-0.836 -2.519,-1.375 -3.543,-1.617 -3.359,-0.723 -4.676,-2.336 -4.676,-5.219 0,-2.461 0.899,-4.5 3.122,-4.5 2.214,0 5.097,1.446 5.097,4.981 z m -15.113,6.238 v 0.782 c 0,7.441 5.098,9.961 11.332,9.961 9.836,0 11.695,-4.082 11.695,-9.903 v -16.968 c 0,-2.997 0.176,-4.383 1.012,-6.239 h -7.91 c -0.539,1.016 -0.778,2.274 -1.016,3.36 h -0.125 c -1.918,-3.36 -4.258,-4.2 -8.215,-4.2 -5.757,0 -7.793,4.922 -7.793,9.239 0,6.054 2.454,8.515 8.153,10.066 l 4.679,1.262 c 2.461,0.664 3.301,1.625 3.301,3.781 0,2.461 -1.086,3.957 -3.84,3.957 -2.519,0 -3.836,-1.68 -3.836,-4.191 v -0.907 h -7.437" /><path
             id="path128"
             style="fill:#ffffff;fill-opacity:1;fill-rule:nonzero;stroke:none"
             d="m 415.918,206.719 h 7.922 v -4.317 h 0.117 c 1.68,3.114 4.012,5.157 7.43,5.157 0.488,0 1.027,-0.071 1.504,-0.129 v -7.91 c -0.84,0.058 -1.739,0.117 -2.578,0.117 -2.879,0 -6.114,-1.492 -6.114,-5.824 v -19.364 h -8.281 v 32.27" /><path
             id="path130"
             style="fill:#ffffff;fill-opacity:1;fill-rule:nonzero;stroke:none"
             d="m 443.457,185.004 v -1.082 c 0,-2.813 1.496,-4.68 4.316,-4.68 2.52,0 4.2,1.262 4.2,3.836 0,2.102 -1.375,3.059 -2.996,3.664 l -5.821,2.102 c -4.551,1.621 -6.894,4.433 -6.894,8.996 0,5.332 3.359,9.719 11.875,9.719 7.488,0 11.035,-3.36 11.035,-9.18 v -1.32 h -7.442 c 0,3.242 -0.957,4.855 -3.652,4.855 -2.101,0 -3.898,-1.191 -3.898,-3.476 0,-1.555 0.84,-2.872 3.593,-3.786 l 4.981,-1.679 c 5.215,-1.739 7.129,-4.375 7.129,-9.231 0,-6.773 -5.028,-10.133 -11.992,-10.133 -9.286,0 -11.875,4.082 -11.875,10.254 v 1.141 h 7.441" /><path
             id="path132"
             style="fill:#ffffff;fill-opacity:1;fill-rule:nonzero;stroke:none"
             d="m 492.051,218.105 h 6.719 l -13.555,-44.496 h -6.719 l 13.555,44.496" /><path
             id="path134"
             style="fill:#ffffff;fill-opacity:1;fill-rule:nonzero;stroke:none"
             d="m 525.957,187.816 v -1.257 c 0,-4.016 1.133,-6.594 5.695,-6.594 2.637,0 5.157,1.68 5.157,5.273 0,3.899 -1.985,5.34 -7.676,7.317 -7.676,2.644 -11.211,5.824 -11.211,12.961 0,8.332 5.098,12.589 13.25,12.589 7.676,0 13.254,-3.292 13.254,-11.515 v -1.192 h -8.281 c 0,4.016 -1.379,6.348 -4.668,6.348 -3.907,0 -4.922,-2.449 -4.922,-4.969 0,-2.636 0.781,-4.257 4.433,-5.82 l 6.66,-2.883 c 6.473,-2.816 8.153,-6.117 8.153,-11.332 0,-9.051 -5.516,-13.133 -14.871,-13.133 -9.778,0 -13.614,4.559 -13.614,12.469 v 1.738 h 8.641" /><path
             id="path136"
             style="fill:#ffffff;fill-opacity:1;fill-rule:nonzero;stroke:none"
             d="m 567.949,178.227 h -0.125 c -1.738,-3.184 -4.738,-4.618 -8.215,-4.618 -5.156,0 -8.211,2.821 -8.211,9.176 v 23.934 h 8.27 v -22.262 c 0,-3.23 1.086,-4.492 3.535,-4.492 2.824,0 4.387,1.738 4.387,5.332 v 21.422 h 8.269 v -32.27 h -7.91 v 3.778" /><path
             id="path138"
             style="fill:#ffffff;fill-opacity:1;fill-rule:nonzero;stroke:none"
             d="m 598.43,195.074 c 0,3.129 -0.606,6.489 -3.723,6.489 -4.082,0 -4.734,-3.606 -4.734,-11.04 0,-7.98 0.711,-11.281 4.433,-11.281 2.762,0 4.024,2.344 4.024,7.559 h 7.91 c 0,-8.457 -3.535,-13.192 -12.297,-13.192 -8.27,0 -12.352,4.012 -12.352,16.969 0,13.258 5.457,16.981 13.075,16.981 7.617,0 11.574,-4.864 11.574,-12.485 h -7.91" /><path
             id="path140"
             style="fill:#ffffff;fill-opacity:1;fill-rule:nonzero;stroke:none"
             d="m 612.18,206.719 h 7.91 v -4.317 h 0.125 c 1.672,3.114 4.015,5.157 7.433,5.157 0.477,0 1.016,-0.071 1.504,-0.129 v -7.91 c -0.839,0.058 -1.75,0.117 -2.589,0.117 -2.872,0 -6.114,-1.492 -6.114,-5.824 v -19.364 h -8.269 v 32.27" /><path
             id="path142"
             style="fill:#ffffff;fill-opacity:1;fill-rule:nonzero;stroke:none"
             d="m 649.191,194.234 c -0.187,4.926 -0.781,7.68 -4.199,7.68 -3.301,0 -4.258,-3.418 -4.258,-6.422 v -1.258 z m -8.457,-4.914 v -2.578 c 0,-3.777 1.016,-7.5 4.071,-7.5 2.765,0 3.906,2.102 4.386,6.055 h 7.43 c -0.301,-7.488 -3.894,-11.688 -11.687,-11.688 -11.993,0 -12.481,9.239 -12.481,17.274 0,8.637 1.68,16.676 12.832,16.676 9.656,0 11.817,-6.485 11.817,-16.383 v -1.856 h -16.368" /><path
             id="path144"
             style="fill:#ffffff;fill-opacity:1;fill-rule:nonzero;stroke:none"
             d="m 668.984,185.004 v -1.082 c 0,-2.813 1.504,-4.68 4.329,-4.68 2.507,0 4.187,1.262 4.187,3.836 0,2.102 -1.375,3.059 -2.996,3.664 l -5.813,2.102 c -4.558,1.621 -6.894,4.433 -6.894,8.996 0,5.332 3.351,9.719 11.867,9.719 7.5,0 11.035,-3.36 11.035,-9.18 v -1.32 h -7.433 c 0,3.242 -0.957,4.855 -3.661,4.855 -2.101,0 -3.898,-1.191 -3.898,-3.476 0,-1.555 0.84,-2.872 3.606,-3.786 l 4.968,-1.679 c 5.215,-1.739 7.141,-4.375 7.141,-9.231 0,-6.773 -5.039,-10.133 -11.992,-10.133 -9.297,0 -11.875,4.082 -11.875,10.254 v 1.141 h 7.429" /><path
             id="path146"
             style="fill:#ffffff;fill-opacity:1;fill-rule:nonzero;stroke:none"
             d="m 297.121,272.266 v -1.262 c 0,-4.012 1.137,-6.59 5.692,-6.59 2.64,0 5.16,1.68 5.16,5.274 0,3.894 -1.981,5.339 -7.676,7.312 -7.676,2.648 -11.215,5.82 -11.215,12.961 0,8.328 5.098,12.586 13.254,12.586 7.676,0 13.25,-3.289 13.25,-11.512 v -1.191 h -8.277 c 0,4.011 -1.375,6.347 -4.672,6.347 -3.903,0 -4.918,-2.453 -4.918,-4.972 0,-2.637 0.777,-4.258 4.433,-5.821 l 6.661,-2.878 c 6.476,-2.813 8.156,-6.114 8.156,-11.329 0,-9.054 -5.52,-13.136 -14.875,-13.136 -9.774,0 -13.614,4.562 -13.614,12.472 v 1.739 h 8.641" /><path
             id="path148"
             style="fill:#ffffff;fill-opacity:1;fill-rule:nonzero;stroke:none"
             d="m 337.617,275.027 c -1.14,-0.839 -2.519,-1.375 -3.539,-1.621 -3.359,-0.722 -4.68,-2.332 -4.68,-5.215 0,-2.461 0.899,-4.5 3.122,-4.5 2.218,0 5.097,1.446 5.097,4.981 z m -15.109,6.231 v 0.781 c 0,7.441 5.094,9.961 11.332,9.961 9.832,0 11.691,-4.082 11.691,-9.902 v -16.961 c 0,-3 0.18,-4.387 1.016,-6.242 h -7.914 c -0.535,1.015 -0.778,2.277 -1.016,3.359 h -0.121 c -1.918,-3.359 -4.258,-4.199 -8.219,-4.199 -5.757,0 -7.793,4.922 -7.793,9.238 0,6.055 2.457,8.516 8.157,10.07 l 4.675,1.258 c 2.461,0.664 3.301,1.621 3.301,3.781 0,2.461 -1.082,3.953 -3.836,3.953 -2.519,0 -3.84,-1.679 -3.84,-4.187 v -0.91 h -7.433" /><path
             id="path150"
             style="fill:#ffffff;fill-opacity:1;fill-rule:nonzero;stroke:none"
             d="m 354.719,300.391 h 8.273 v -9.231 h 4.801 v -5.644 h -4.801 v -17.442 c 0,-2.519 0.543,-3.543 2.942,-3.543 0.66,0 1.32,0.059 1.859,0.125 v -5.761 c -1.801,-0.176 -3.48,-0.36 -5.398,-0.36 -6.477,0 -7.676,1.981 -7.676,8.516 v 18.465 h -4.196 v 5.644 h 4.196 v 9.231" /><path
             id="path152"
             style="fill:#ffffff;fill-opacity:1;fill-rule:nonzero;stroke:none"
             d="m 389.879,285.516 h -4.195 v 5.644 h 4.195 v 3.653 c 0,5.82 3.301,7.734 8.637,7.734 1.5,0 2.941,-0.059 4.437,-0.176 v -5.879 c -0.539,0.059 -1.078,0.059 -1.617,0.059 -2.34,0 -3.18,-0.711 -3.18,-2.578 v -2.813 h 4.797 v -5.644 h -4.797 v -26.621 h -8.277 v 26.621" /><path
             id="path154"
             style="fill:#ffffff;fill-opacity:1;fill-rule:nonzero;stroke:none"
             d="m 421.191,275.027 c -1.14,-0.839 -2.519,-1.375 -3.543,-1.621 -3.359,-0.722 -4.679,-2.332 -4.679,-5.215 0,-2.461 0.898,-4.5 3.125,-4.5 2.219,0 5.097,1.446 5.097,4.981 z m -15.113,6.231 v 0.781 c 0,7.441 5.094,9.961 11.336,9.961 9.832,0 11.688,-4.082 11.688,-9.902 v -16.961 c 0,-3 0.175,-4.387 1.015,-6.242 h -7.91 c -0.535,1.015 -0.781,2.277 -1.016,3.359 h -0.125 c -1.914,-3.359 -4.257,-4.199 -8.214,-4.199 -5.758,0 -7.793,4.922 -7.793,9.238 0,6.055 2.457,8.516 8.156,10.07 l 4.676,1.258 c 2.461,0.664 3.3,1.621 3.3,3.781 0,2.461 -1.082,3.953 -3.836,3.953 -2.519,0 -3.839,-1.679 -3.839,-4.187 v -0.91 h -7.438" /><path
             id="path156"
             style="fill:#ffffff;fill-opacity:1;fill-rule:nonzero;stroke:none"
             d="m 438.293,300.391 h 8.281 v -9.231 h 4.793 v -5.644 h -4.793 v -17.442 c 0,-2.519 0.535,-3.543 2.938,-3.543 0.656,0 1.32,0.059 1.855,0.125 v -5.761 c -1.797,-0.176 -3.476,-0.36 -5.398,-0.36 -6.477,0 -7.676,1.981 -7.676,8.516 v 18.465 h -4.191 v 5.644 h 4.191 v 9.231" /><path
             id="path158"
             style="fill:#ffffff;fill-opacity:1;fill-rule:nonzero;stroke:none"
             d="m 482.277,302.547 h 6.707 l -13.543,-44.492 h -6.718 l 13.554,44.492" /><path
             id="path160"
             style="fill:#ffffff;fill-opacity:1;fill-rule:nonzero;stroke:none"
             d="m 528.223,289.004 c 0,3.172 -1.446,7.187 -4.922,7.187 -4.199,0 -5.867,-4.316 -5.867,-14.992 0,-10.312 0.957,-16.785 5.925,-16.785 2.043,0 5.344,2.215 5.344,6.836 v 4.375 h -5.695 v 6.355 h 13.965 v -23.085 h -6.356 v 3.957 H 530.5 c -2.043,-3.36 -4.973,-4.797 -8.996,-4.797 -10.613,0 -12.715,7.922 -12.715,22.726 0,14.395 3.359,21.766 14.395,21.766 9.472,0 13.312,-4.852 13.312,-13.543 h -8.273" /><path
             id="path162"
             style="fill:#ffffff;fill-opacity:1;fill-rule:nonzero;stroke:none"
             d="m 543.84,291.16 h 7.91 v -4.316 h 0.125 c 1.672,3.117 4.016,5.156 7.434,5.156 0.476,0 1.015,-0.066 1.504,-0.125 v -7.91 c -0.84,0.058 -1.75,0.117 -2.59,0.117 -2.871,0 -6.114,-1.496 -6.114,-5.82 v -19.367 h -8.269 v 32.265" /><path
             id="path164"
             style="fill:#ffffff;fill-opacity:1;fill-rule:nonzero;stroke:none"
             d="m 580.371,275.027 c -1.141,-0.839 -2.519,-1.375 -3.543,-1.621 -3.359,-0.722 -4.68,-2.332 -4.68,-5.215 0,-2.461 0.899,-4.5 3.125,-4.5 2.219,0 5.098,1.446 5.098,4.981 z m -15.117,6.231 v 0.781 c 0,7.441 5.098,9.961 11.34,9.961 9.832,0 11.687,-4.082 11.687,-9.902 v -16.961 c 0,-3 0.176,-4.387 1.016,-6.242 h -7.91 c -0.535,1.015 -0.782,2.277 -1.016,3.359 h -0.125 c -1.914,-3.359 -4.258,-4.199 -8.215,-4.199 -5.761,0 -7.793,4.922 -7.793,9.238 0,6.055 2.453,8.516 8.157,10.07 l 4.675,1.258 c 2.461,0.664 3.301,1.621 3.301,3.781 0,2.461 -1.082,3.953 -3.836,3.953 -2.519,0 -3.84,-1.679 -3.84,-4.187 v -0.91 h -7.441" /><path
             id="path166"
             style="fill:#ffffff;fill-opacity:1;fill-rule:nonzero;stroke:none"
             d="m 601.73,269.453 v -1.086 c 0,-2.812 1.493,-4.676 4.317,-4.676 2.519,0 4.199,1.258 4.199,3.836 0,2.102 -1.379,3.059 -3,3.664 l -5.82,2.098 c -4.551,1.621 -6.895,4.434 -6.895,8.996 0,5.332 3.36,9.715 11.875,9.715 7.492,0 11.035,-3.359 11.035,-9.18 v -1.316 H 610 c 0,3.242 -0.957,4.851 -3.652,4.851 -2.098,0 -3.895,-1.191 -3.895,-3.476 0,-1.551 0.84,-2.871 3.594,-3.777 l 4.98,-1.68 c 5.215,-1.738 7.129,-4.375 7.129,-9.231 0,-6.777 -5.031,-10.136 -11.992,-10.136 -9.289,0 -11.875,4.082 -11.875,10.254 v 1.144 h 7.441" /><path
             id="path168"
             style="fill:#ffffff;fill-opacity:1;fill-rule:nonzero;stroke:none"
             d="m 645.762,269.453 v -1.086 c 0,-2.812 1.504,-4.676 4.328,-4.676 2.508,0 4.187,1.258 4.187,3.836 0,2.102 -1.375,3.059 -2.996,3.664 l -5.812,2.098 c -4.559,1.621 -6.895,4.434 -6.895,8.996 0,5.332 3.352,9.715 11.867,9.715 7.5,0 11.036,-3.359 11.036,-9.18 v -1.316 h -7.434 c 0,3.242 -0.957,4.851 -3.66,4.851 -2.102,0 -3.899,-1.191 -3.899,-3.476 0,-1.551 0.84,-2.871 3.606,-3.777 l 4.969,-1.68 c 5.214,-1.738 7.14,-4.375 7.14,-9.231 0,-6.777 -5.039,-10.136 -11.992,-10.136 -9.297,0 -11.875,4.082 -11.875,10.254 v 1.144 h 7.43" /><path
             id="path170"
             style="fill:#ffffff;fill-opacity:1;fill-rule:nonzero;stroke:none"
             d="m 682.902,275.027 c -1.144,-0.839 -2.519,-1.375 -3.535,-1.621 -3.359,-0.722 -4.679,-2.332 -4.679,-5.215 0,-2.461 0.898,-4.5 3.117,-4.5 2.215,0 5.097,1.446 5.097,4.981 z m -15.109,6.231 v 0.781 c 0,7.441 5.098,9.961 11.328,9.961 9.836,0 11.699,-4.082 11.699,-9.902 v -16.961 c 0,-3 0.176,-4.387 1.016,-6.242 h -7.918 c -0.539,1.015 -0.773,2.277 -1.016,3.359 h -0.117 c -1.926,-3.359 -4.258,-4.199 -8.222,-4.199 -5.754,0 -7.793,4.922 -7.793,9.238 0,6.055 2.46,8.516 8.152,10.07 l 4.68,1.258 c 2.461,0.664 3.3,1.621 3.3,3.781 0,2.461 -1.086,3.953 -3.839,3.953 -2.52,0 -3.836,-1.679 -3.836,-4.187 v -0.91 h -7.434" /><path
             id="path172"
             style="fill:#ffffff;fill-opacity:1;fill-rule:nonzero;stroke:none"
             d="m 700.012,300.391 h 8.269 v -9.231 h 4.805 v -5.644 h -4.805 v -17.442 c 0,-2.519 0.547,-3.543 2.942,-3.543 0.664,0 1.316,0.059 1.863,0.125 v -5.761 c -1.805,-0.176 -3.484,-0.36 -5.398,-0.36 -6.477,0 -7.676,1.981 -7.676,8.516 v 18.465 h -4.199 v 5.644 h 4.199 v 9.231" /><path
             id="path174"
             style="fill:#ffffff;fill-opacity:1;fill-rule:nonzero;stroke:none"
             d="m 725.859,268.25 v -9.355 h -7.91 v 9.355 h 7.91" /><path
             id="path176"
             style="fill:#231f20;fill-opacity:1;fill-rule:nonzero;stroke:none"
             d="m 202.102,154.719 c -22.141,-37.715 -70.7,-50.36 -108.3715,-28.215 -37.7149,22.137 -50.3633,70.738 -28.2266,108.453 22.1445,37.672 70.3321,50.231 108.4611,28.184 38.125,-22.004 50.32,-70.746 28.137,-108.422 z M 186.965,285.98 C 136.676,315.527 72.5664,298.801 42.9805,248.508 17.1094,203.863 26.9961,148.063 64.5703,115.715 L 22.2656,44.625 c -4.2109,-7.1797 -1.582,-16.4219 5.7735,-20.3125 l 10.1484,-5.375 c 6.9961,-3.7031 15.6719,-1.168 19.5703,5.7227 l 40.125,71.457 C 144.91,79.1914 198.438,97.7227 224.441,141.996 c 29.5,50.285 12.856,114.445 -37.476,143.984" /></g></g></g></g></svg>