<?xml version="1.0" encoding="UTF-8" standalone="no"?>
<svg
   xmlns:dc="http://purl.org/dc/elements/1.1/"
   xmlns:cc="http://creativecommons.org/ns#"
   xmlns:rdf="http://www.w3.org/1999/02/22-rdf-syntax-ns#"
   xmlns:svg="http://www.w3.org/2000/svg"
   xmlns="http://www.w3.org/2000/svg"
   viewBox="0 0 66.141731 125.10212"
   height="125.10213"
   width="66.141731"
   xml:space="preserve"
   id="svg2"
   version="1.1"><metadata
     id="metadata8"><rdf:RDF><cc:Work
         rdf:about=""><dc:format>image/svg+xml</dc:format><dc:type
           rdf:resource="http://purl.org/dc/dcmitype/StillImage" /></cc:Work></rdf:RDF></metadata><defs
     id="defs6"><clipPath
       id="clipPath20"
       clipPathUnits="userSpaceOnUse"><path
         id="path18"
         d="M 0,0 H 496.063 V 938.266 H 0 Z" /></clipPath></defs><g
     transform="matrix(1.3333333,0,0,-1.3333333,0,125.10213)"
     id="g10"><g
       transform="scale(0.1)"
       id="g12"><g
         id="g14"><g
           clip-path="url(#clipPath20)"
           id="g16"><path
             id="path22"
             style="fill:#ffffff;fill-opacity:1;fill-rule:nonzero;stroke:none"
             d="M 2.49609,2.50391 V 935.77 H 493.566 V 2.50391 H 2.49609" /><path
             id="path24"
             style="fill:#231f20;fill-opacity:1;fill-rule:nonzero;stroke:none"
             d="M 496.063,938.266 H 0 V 0 h 496.063 z m -5.004,-5 V 5.00391 H 5.00391 V 933.266 H 491.059" /><path
             id="path26"
             style="fill:#231f20;fill-opacity:1;fill-rule:nonzero;stroke:none"
             d="m 198.57,905.355 h 11.516 v -21.832 h 13.437 v 21.832 h 11.512 v -57.089 h -11.512 v 25.343 H 210.086 V 848.266 H 198.57 v 57.089" /><path
             id="path28"
             style="fill:#231f20;fill-opacity:1;fill-rule:nonzero;stroke:none"
             d="m 245.145,891.281 h 11.027 v -43.015 h -11.027 z m 0,14.711 h 11.027 v -9.433 h -11.027 v 9.433" /><path
             id="path30"
             style="fill:#231f20;fill-opacity:1;fill-rule:nonzero;stroke:none"
             d="m 281.605,857.219 c 4.637,0 5.997,5.039 5.997,12.312 0,10.477 -1.36,14.391 -5.754,14.391 -4.883,0 -5.762,-3.914 -5.762,-15.508 0,-5.918 0.879,-11.195 5.519,-11.195 z m 16.551,34.062 v -40.859 c 0,-11.352 -5.039,-16.871 -17.91,-16.871 -9.355,0 -14.629,4.16 -14.629,11.515 h 10.559 c 0,-1.441 0.633,-2.558 1.679,-3.277 1.036,-0.723 2.313,-1.199 3.672,-1.199 4.481,0 6.075,3.359 6.075,7.754 v 5.676 h -0.157 c -2.238,-3.196 -5.675,-5.278 -9.191,-5.278 -8.797,0 -13.191,5.996 -13.191,21.746 0,10.075 1.511,21.91 13.503,21.91 3.039,0 6.797,-1.437 8.879,-5.918 h 0.157 v 4.801 h 10.554" /><path
             id="path32"
             style="fill:#231f20;fill-opacity:1;fill-rule:nonzero;stroke:none"
             d="m 307.934,905.355 h 11.023 v -18.472 h 0.168 c 2.078,3.676 5.84,5.515 10.469,5.515 6.883,0 10.957,-3.757 10.957,-12.23 v -31.902 h -11.035 v 29.66 c 0,4.316 -1.438,5.996 -4.719,5.996 -3.758,0 -5.84,-2.317 -5.84,-7.113 v -28.543 h -11.023 v 57.089" /><path
             id="path34"
             style="fill:#231f20;fill-opacity:1;fill-rule:nonzero;stroke:none"
             d="m 371.535,891.281 h 11.028 v -43.015 h -11.028 z m 0,14.711 h 11.028 v -9.433 h -11.028 v 9.433" /><path
             id="path36"
             style="fill:#231f20;fill-opacity:1;fill-rule:nonzero;stroke:none"
             d="m 392.336,891.281 h 10.547 v -5.039 h 0.168 c 2.312,4.238 6.316,6.156 10.945,6.156 6.887,0 10.957,-3.757 10.957,-12.23 v -31.902 h -11.035 v 29.66 c 0,4.316 -1.434,5.996 -4.715,5.996 -3.762,0 -5.832,-2.317 -5.832,-7.113 v -28.543 h -11.035 v 43.015" /><path
             id="path38"
             style="fill:#231f20;fill-opacity:1;fill-rule:nonzero;stroke:none"
             d="m 213.926,840.223 h 11.035 l -7.832,-11.516 h -7.524 z m 16.551,-14.868 v -9.441 h -20.391 v -13.426 h 19.187 v -9.437 h -19.187 v -15.352 h 21.191 v -9.433 H 198.57 v 57.089 h 31.907" /><path
             id="path40"
             style="fill:#231f20;fill-opacity:1;fill-rule:nonzero;stroke:none"
             d="m 239.137,825.355 h 11.027 v -57.089 h -11.027 v 57.089" /><path
             id="path42"
             style="fill:#231f20;fill-opacity:1;fill-rule:nonzero;stroke:none"
             d="m 280.637,794.652 c -0.235,6.555 -1.035,10.235 -5.594,10.235 -4.395,0 -5.676,-4.563 -5.676,-8.559 v -1.676 z m -11.27,-6.558 v -3.438 c 0,-5.039 1.36,-9.996 5.43,-9.996 3.683,0 5.207,2.797 5.84,8.078 h 9.914 c -0.403,-9.996 -5.196,-15.593 -15.586,-15.593 -15.996,0 -16.633,12.316 -16.633,23.027 0,11.516 2.238,22.226 17.109,22.226 12.872,0 15.754,-8.632 15.754,-21.824 v -2.48 h -21.828" /><path
             id="path44"
             style="fill:#231f20;fill-opacity:1;fill-rule:nonzero;stroke:none"
             d="m 319.348,811.281 h 11.035 l -10.789,-43.015 h -12.793 l -11.113,43.015 h 11.511 l 6.153,-30.785 h 0.168 l 5.828,30.785" /><path
             id="path46"
             style="fill:#231f20;fill-opacity:1;fill-rule:nonzero;stroke:none"
             d="m 350.473,827.828 h 11.035 l -7.832,-11.512 h -7.52 z m 6.718,-33.176 c -0.234,6.555 -1.035,10.235 -5.597,10.235 -4.395,0 -5.672,-4.563 -5.672,-8.559 v -1.676 z m -11.269,-6.558 v -3.438 c 0,-5.039 1.355,-9.996 5.437,-9.996 3.672,0 5.196,2.797 5.832,8.078 h 9.911 c -0.391,-9.996 -5.196,-15.593 -15.586,-15.593 -15.996,0 -16.629,12.316 -16.629,23.027 0,11.516 2.234,22.226 17.109,22.226 12.871,0 15.75,-8.632 15.75,-21.824 v -2.48 h -21.824" /><path
             id="path48"
             style="fill:#231f20;fill-opacity:1;fill-rule:nonzero;stroke:none"
             d="m 417.434,794.652 c -0.235,6.555 -1.036,10.235 -5.594,10.235 -4.395,0 -5.676,-4.563 -5.676,-8.559 v -1.676 z m -11.27,-6.558 v -3.438 c 0,-5.039 1.359,-9.996 5.43,-9.996 3.683,0 5.207,2.797 5.84,8.078 h 9.914 c -0.403,-9.996 -5.196,-15.593 -15.586,-15.593 -15.996,0 -16.633,12.316 -16.633,23.027 0,11.516 2.238,22.226 17.109,22.226 12.871,0 15.754,-8.632 15.754,-21.824 v -2.48 h -21.828" /><path
             id="path50"
             style="fill:#231f20;fill-opacity:1;fill-rule:nonzero;stroke:none"
             d="m 435.773,811.281 h 10.547 v -5.039 h 0.168 c 2.313,4.238 6.317,6.156 10.946,6.156 6.886,0 10.957,-3.757 10.957,-12.23 v -31.902 h -11.036 v 29.66 c 0,4.316 -1.433,5.996 -4.714,5.996 -3.762,0 -5.832,-2.317 -5.832,-7.113 v -28.543 h -11.036 v 43.015" /><path
             id="path52"
             style="fill:#231f20;fill-opacity:1;fill-rule:nonzero;stroke:none"
             d="m 95.2539,101.398 h -6.1641 v 24.09 H 71.9297 v -24.09 h -6.1602 v 50.008 h 6.1602 v -20.445 h 17.1601 v 20.445 h 6.1641 v -50.008" /><path
             id="path54"
             style="fill:#231f20;fill-opacity:1;fill-rule:nonzero;stroke:none"
             d="m 121.637,124.094 v 2.031 c 0,4.199 -1.328,9.172 -6.512,9.172 -6.16,0 -6.863,-7.559 -6.863,-9.809 v -1.394 z m -13.59,-4.629 c 0,-5.742 0,-14.426 7.215,-14.426 5.605,0 6.375,5.883 6.375,8.684 h 5.879 c 0,-3.993 -2.379,-13.301 -12.606,-13.301 -9.172,0 -13.027,6.367 -13.027,19.258 0,9.386 1.828,20.246 13.379,20.246 11.484,0 12.539,-10.02 12.539,-18.078 v -2.383 h -19.754" /><path
             id="path56"
             style="fill:#231f20;fill-opacity:1;fill-rule:nonzero;stroke:none"
             d="m 151.453,121.848 c -2.18,-2.305 -7.355,-2.801 -10.019,-4.414 -1.883,-1.192 -2.871,-2.657 -2.871,-5.946 0,-3.789 1.328,-6.449 5.324,-6.449 3.855,0 7.566,3.293 7.566,7.141 z m -18.144,5.742 c 0,8.547 3.64,12.336 12.605,12.336 11.418,0 11.418,-6.867 11.418,-10.793 v -20.938 c 0,-1.543 0,-3.015 1.824,-3.015 0.774,0 1.114,0.144 1.399,0.351 v -4.203 c -0.418,-0.066 -1.961,-0.348 -3.426,-0.348 -2.246,0 -5.051,0 -5.324,4.833 h -0.149 c -1.883,-3.36 -5.523,-5.391 -9.031,-5.391 -7.004,0 -10.227,4.199 -10.227,10.918 0,5.254 2.239,8.898 7.071,10.371 l 7.922,2.383 c 4.265,1.328 4.265,2.519 4.265,5.676 0,3.496 -2.097,5.527 -6.023,5.527 -6.438,0 -6.438,-6.027 -6.438,-7.356 v -0.351 h -5.886" /><path
             id="path58"
             style="fill:#231f20;fill-opacity:1;fill-rule:nonzero;stroke:none"
             d="m 165.641,151.406 h 5.89 v -50.008 h -5.89 v 50.008" /><path
             id="path60"
             style="fill:#231f20;fill-opacity:1;fill-rule:nonzero;stroke:none"
             d="m 181.324,149.863 h 5.879 v -10.925 h 6.516 v -4.618 h -6.516 v -24.093 c 0,-3.016 0.774,-4.207 3.86,-4.207 1.257,0 1.953,0.144 2.585,0.214 v -4.836 c -0.769,-0.136 -2.312,-0.418 -4.761,-0.418 -6.098,0 -7.563,2.516 -7.563,7.422 v 25.918 h -5.469 v 4.618 h 5.469 v 10.925" /><path
             id="path62"
             style="fill:#231f20;fill-opacity:1;fill-rule:nonzero;stroke:none"
             d="m 197.691,151.406 h 5.891 v -16.734 h 0.137 c 1.543,3.074 5.672,5.254 9.035,5.254 9.668,0 9.668,-7.5 9.668,-11.914 v -26.614 h -5.883 v 25.918 c 0,2.872 -0.215,7.559 -5.535,7.559 -3.156,0 -7.422,-2.098 -7.422,-7.559 v -25.918 h -5.891 v 50.008" /><path
             id="path64"
             style="fill:#231f20;fill-opacity:1;fill-rule:nonzero;stroke:none"
             d="m 277.719,118.559 c -0.559,-9.454 -4.27,-18.137 -15.196,-18.137 -14.214,0 -16.109,13.367 -16.109,25.976 0,12.61 2.313,25.989 16.109,25.989 10.223,0 14.493,-5.742 14.774,-15.547 h -6.445 c -0.137,5.672 -1.961,10.508 -8.329,10.508 -8.543,0 -9.664,-9.387 -9.664,-20.95 0,-11.55 1.121,-20.937 9.664,-20.937 7.489,0 8.543,7.004 8.75,13.098 h 6.446" /><path
             id="path66"
             style="fill:#231f20;fill-opacity:1;fill-rule:nonzero;stroke:none"
             d="m 300.461,121.848 c -2.176,-2.305 -7.352,-2.801 -10.02,-4.414 -1.882,-1.192 -2.871,-2.657 -2.871,-5.946 0,-3.789 1.328,-6.449 5.325,-6.449 3.855,0 7.566,3.293 7.566,7.141 z m -18.145,5.742 c 0,8.547 3.645,12.336 12.61,12.336 11.414,0 11.414,-6.867 11.414,-10.793 v -20.938 c 0,-1.543 0,-3.015 1.828,-3.015 0.77,0 1.113,0.144 1.395,0.351 v -4.203 c -0.418,-0.066 -1.961,-0.348 -3.426,-0.348 -2.246,0 -5.051,0 -5.324,4.833 h -0.145 c -1.887,-3.36 -5.527,-5.391 -9.035,-5.391 -7,0 -10.223,4.199 -10.223,10.918 0,5.254 2.235,8.898 7.07,10.371 l 7.918,2.383 c 4.27,1.328 4.27,2.519 4.27,5.676 0,3.496 -2.102,5.527 -6.027,5.527 -6.434,0 -6.434,-6.027 -6.434,-7.356 v -0.351 h -5.891" /><path
             id="path68"
             style="fill:#231f20;fill-opacity:1;fill-rule:nonzero;stroke:none"
             d="m 314.301,138.938 h 5.605 v -4.415 h 0.145 c 1.535,3.438 5.461,5.403 9.101,5.403 9.875,0 9.875,-7.5 9.875,-11.914 v -26.614 h -5.879 v 25.918 c 0,2.872 -0.214,7.559 -5.539,7.559 -3.152,0 -7.421,-2.098 -7.421,-7.559 v -25.918 h -5.887 v 37.54" /><path
             id="path70"
             style="fill:#231f20;fill-opacity:1;fill-rule:nonzero;stroke:none"
             d="m 363.949,121.848 c -2.179,-2.305 -7.355,-2.801 -10.019,-4.414 -1.887,-1.192 -2.871,-2.657 -2.871,-5.946 0,-3.789 1.328,-6.449 5.32,-6.449 3.859,0 7.57,3.293 7.57,7.141 z m -18.144,5.742 c 0,8.547 3.64,12.336 12.605,12.336 11.418,0 11.418,-6.867 11.418,-10.793 v -20.938 c 0,-1.543 0,-3.015 1.824,-3.015 0.774,0 1.114,0.144 1.399,0.351 v -4.203 c -0.422,-0.066 -1.965,-0.348 -3.43,-0.348 -2.246,0 -5.047,0 -5.32,4.833 h -0.149 c -1.882,-3.36 -5.527,-5.391 -9.031,-5.391 -7.004,0 -10.226,4.199 -10.226,10.918 0,5.254 2.238,8.898 7.07,10.371 l 7.922,2.383 c 4.265,1.328 4.265,2.519 4.265,5.676 0,3.496 -2.097,5.527 -6.023,5.527 -6.438,0 -6.438,-6.027 -6.438,-7.356 v -0.351 h -5.886" /><path
             id="path72"
             style="fill:#231f20;fill-opacity:1;fill-rule:nonzero;stroke:none"
             d="m 389.418,105.461 c 6.512,0 7.566,6.16 7.566,14.707 0,7.285 -1.269,14.707 -7.566,14.707 -5.461,0 -6.867,-5.742 -6.867,-14.707 0,-8.965 1.406,-14.707 6.867,-14.707 z m 13.094,-4.063 h -5.606 v 4.622 h -0.136 c -0.77,-2.805 -4.063,-5.598 -8.125,-5.598 -8.895,0 -12.254,7.91 -12.254,19.746 0,7.844 1.257,19.758 11.836,19.758 3.359,0 6.933,-2.031 8.261,-5.254 h 0.145 v 16.734 h 5.879 v -50.008" /><path
             id="path74"
             style="fill:#231f20;fill-opacity:1;fill-rule:nonzero;stroke:none"
             d="m 427.434,121.848 c -2.176,-2.305 -7.352,-2.801 -10.02,-4.414 -1.883,-1.192 -2.871,-2.657 -2.871,-5.946 0,-3.789 1.328,-6.449 5.324,-6.449 3.856,0 7.567,3.293 7.567,7.141 z m -18.145,5.742 c 0,8.547 3.645,12.336 12.609,12.336 11.415,0 11.415,-6.867 11.415,-10.793 v -20.938 c 0,-1.543 0,-3.015 1.828,-3.015 0.769,0 1.113,0.144 1.394,0.351 v -4.203 c -0.418,-0.066 -1.961,-0.348 -3.426,-0.348 -2.246,0 -5.05,0 -5.324,4.833 h -0.144 c -1.887,-3.36 -5.528,-5.391 -9.036,-5.391 -7,0 -10.222,4.199 -10.222,10.918 0,5.254 2.234,8.898 7.07,10.371 l 7.918,2.383 c 4.27,1.328 4.27,2.519 4.27,5.676 0,3.496 -2.102,5.527 -6.028,5.527 -6.433,0 -6.433,-6.027 -6.433,-7.356 v -0.351 h -5.891" /><path
             id="path76"
             style="fill:#231f20;fill-opacity:1;fill-rule:nonzero;stroke:none"
             d="m 95.418,68.4492 c 0,5.2539 -1.8946,8.8985 -7.7735,8.8985 -5.1836,0 -8.2617,-2.8047 -8.2617,-8.125 0,-14.0821 23.6012,-5.6758 23.6012,-23.9571 0,-11.5508 -8.4723,-14.8437 -15.5543,-14.8437 -11.6914,0 -15.1289,6.0156 -15.1289,16.6719 h 6.164 c 0,-5.6055 0.3516,-11.6329 9.3829,-11.6329 4.914,0 8.6914,3.5079 8.6914,8.8282 0,14.1406 -23.6016,5.9492 -23.6016,24.2968 0,4.6289 1.9609,13.8008 14.6367,13.8008 9.5235,0 13.8668,-4.7695 14.0038,-13.9375 h -6.16" /><path
             id="path78"
             style="fill:#231f20;fill-opacity:1;fill-rule:nonzero;stroke:none"
             d="m 126.219,51.8477 c -2.18,-2.3047 -7.356,-2.8008 -10.02,-4.4141 -1.886,-1.1914 -2.871,-2.6563 -2.871,-5.9453 0,-3.7891 1.328,-6.4492 5.32,-6.4492 3.86,0 7.571,3.2929 7.571,7.1406 z m -18.145,5.7421 c 0,8.5469 3.645,12.336 12.606,12.336 11.418,0 11.418,-6.8672 11.418,-10.793 V 38.1953 c 0,-1.543 0,-3.0156 1.828,-3.0156 0.769,0 1.109,0.1445 1.394,0.3516 v -4.2032 c -0.422,-0.0664 -1.965,-0.3476 -3.429,-0.3476 -2.246,0 -5.047,0 -5.321,4.832 h -0.144 c -1.887,-3.3594 -5.531,-5.3906 -9.035,-5.3906 -7.004,0 -10.227,4.1992 -10.227,10.9179 0,5.254 2.238,8.8985 7.07,10.3711 l 7.922,2.3829 c 4.27,1.3281 4.27,2.5195 4.27,5.6757 0,3.4961 -2.102,5.5274 -6.028,5.5274 -6.433,0 -6.433,-6.0274 -6.433,-7.3555 v -0.3516 h -5.891" /><path
             id="path80"
             style="fill:#231f20;fill-opacity:1;fill-rule:nonzero;stroke:none"
             d="m 140.055,68.9375 h 5.605 v -4.4141 h 0.149 c 1.535,3.4375 5.457,5.4024 9.101,5.4024 9.871,0 9.871,-7.5 9.871,-11.9141 V 31.3984 h -5.879 v 25.918 c 0,2.8711 -0.214,7.5586 -5.535,7.5586 -3.152,0 -7.422,-2.0977 -7.422,-7.5586 v -25.918 h -5.89 v 37.5391" /><path
             id="path82"
             style="fill:#231f20;fill-opacity:1;fill-rule:nonzero;stroke:none"
             d="m 174.227,79.8633 h 5.878 V 68.9375 h 6.512 v -4.6172 h -6.512 V 40.2266 c 0,-3.0157 0.774,-4.2071 3.86,-4.2071 1.258,0 1.949,0.1446 2.586,0.2149 v -4.836 c -0.774,-0.1367 -2.317,-0.4179 -4.766,-0.4179 -6.094,0 -7.558,2.5156 -7.558,7.4218 v 25.918 h -5.469 v 4.6172 h 5.469 v 10.9258" /><path
             id="path84"
             style="fill:#231f20;fill-opacity:1;fill-rule:nonzero;stroke:none"
             d="m 203.699,84.0664 h 6.856 l -7.559,-9.9453 h -4.199 z m 5.391,-29.9726 v 2.0312 c 0,4.1992 -1.328,9.1719 -6.516,9.1719 -6.16,0 -6.863,-7.5586 -6.863,-9.8086 v -1.3945 z m -13.594,-4.629 c 0,-5.7421 0,-14.4257 7.219,-14.4257 5.601,0 6.375,5.8828 6.375,8.6836 h 5.879 c 0,-3.9922 -2.383,-13.3008 -12.61,-13.3008 -9.168,0 -13.023,6.3672 -13.023,19.2578 0,9.3867 1.824,20.2461 13.379,20.2461 11.48,0 12.539,-10.0195 12.539,-18.0781 v -2.3829 h -19.758" /><path
             id="path86"
             style="fill:#231f20;fill-opacity:1;fill-rule:nonzero;stroke:none"
             d="m 269.281,48.5586 c -0.558,-9.4531 -4.269,-18.1367 -15.191,-18.1367 -14.219,0 -16.113,13.3672 -16.113,25.9765 0,12.6094 2.312,25.9883 16.113,25.9883 10.219,0 14.488,-5.7422 14.769,-15.5469 h -6.445 c -0.137,5.6719 -1.961,10.5079 -8.324,10.5079 -8.543,0 -9.668,-9.3868 -9.668,-20.9493 0,-11.5507 1.125,-20.9375 9.668,-20.9375 7.484,0 8.539,7.0039 8.746,13.0977 h 6.445" /><path
             id="path88"
             style="fill:#231f20;fill-opacity:1;fill-rule:nonzero;stroke:none"
             d="m 292.023,51.8477 c -2.175,-2.3047 -7.351,-2.8008 -10.019,-4.4141 -1.883,-1.1914 -2.871,-2.6563 -2.871,-5.9453 0,-3.7891 1.328,-6.4492 5.324,-6.4492 3.856,0 7.566,3.2929 7.566,7.1406 z m -18.144,5.7421 c 0,8.5469 3.644,12.336 12.609,12.336 11.414,0 11.414,-6.8672 11.414,-10.793 V 38.1953 c 0,-1.543 0,-3.0156 1.828,-3.0156 0.77,0 1.114,0.1445 1.395,0.3516 v -4.2032 c -0.418,-0.0664 -1.961,-0.3476 -3.426,-0.3476 -2.246,0 -5.051,0 -5.324,4.832 h -0.145 c -1.886,-3.3594 -5.527,-5.3906 -9.035,-5.3906 -7,0 -10.222,4.1992 -10.222,10.9179 0,5.254 2.234,8.8985 7.07,10.3711 l 7.918,2.3829 c 4.269,1.3281 4.269,2.5195 4.269,5.6757 0,3.4961 -2.101,5.5274 -6.027,5.5274 -6.433,0 -6.433,-6.0274 -6.433,-7.3555 v -0.3516 h -5.891" /><path
             id="path90"
             style="fill:#231f20;fill-opacity:1;fill-rule:nonzero;stroke:none"
             d="m 305.863,68.9375 h 5.606 v -4.4141 h 0.144 c 1.535,3.4375 5.461,5.4024 9.102,5.4024 9.875,0 9.875,-7.5 9.875,-11.9141 V 31.3984 h -5.879 v 25.918 c 0,2.8711 -0.215,7.5586 -5.539,7.5586 -3.152,0 -7.422,-2.0977 -7.422,-7.5586 v -25.918 h -5.887 v 37.5391" /><path
             id="path92"
             style="fill:#231f20;fill-opacity:1;fill-rule:nonzero;stroke:none"
             d="m 355.512,51.8477 c -2.18,-2.3047 -7.356,-2.8008 -10.02,-4.4141 -1.887,-1.1914 -2.871,-2.6563 -2.871,-5.9453 0,-3.7891 1.328,-6.4492 5.32,-6.4492 3.86,0 7.571,3.2929 7.571,7.1406 z m -18.145,5.7421 c 0,8.5469 3.641,12.336 12.606,12.336 11.418,0 11.418,-6.8672 11.418,-10.793 V 38.1953 c 0,-1.543 0,-3.0156 1.824,-3.0156 0.773,0 1.113,0.1445 1.398,0.3516 v -4.2032 c -0.422,-0.0664 -1.965,-0.3476 -3.429,-0.3476 -2.246,0 -5.047,0 -5.321,4.832 h -0.148 c -1.883,-3.3594 -5.527,-5.3906 -9.031,-5.3906 -7.004,0 -10.227,4.1992 -10.227,10.9179 0,5.254 2.238,8.8985 7.07,10.3711 l 7.922,2.3829 c 4.266,1.3281 4.266,2.5195 4.266,5.6757 0,3.4961 -2.098,5.5274 -6.024,5.5274 -6.437,0 -6.437,-6.0274 -6.437,-7.3555 v -0.3516 h -5.887" /><path
             id="path94"
             style="fill:#231f20;fill-opacity:1;fill-rule:nonzero;stroke:none"
             d="m 380.98,35.4609 c 6.512,0 7.567,6.1602 7.567,14.7071 0,7.2851 -1.27,14.707 -7.567,14.707 -5.46,0 -6.867,-5.7422 -6.867,-14.707 0,-8.9649 1.407,-14.7071 6.867,-14.7071 z m 13.094,-4.0625 h -5.605 v 4.6211 h -0.137 c -0.769,-2.8047 -4.062,-5.5976 -8.125,-5.5976 -8.894,0 -12.254,7.9101 -12.254,19.7461 0,7.8437 1.258,19.7578 11.836,19.7578 3.359,0 6.934,-2.0313 8.262,-5.2539 h 0.144 v 16.7344 h 5.879 V 31.3984" /><path
             id="path96"
             style="fill:#231f20;fill-opacity:1;fill-rule:nonzero;stroke:none"
             d="m 418.996,51.8477 c -2.176,-2.3047 -7.351,-2.8008 -10.019,-4.4141 -1.883,-1.1914 -2.872,-2.6563 -2.872,-5.9453 0,-3.7891 1.329,-6.4492 5.325,-6.4492 3.855,0 7.566,3.2929 7.566,7.1406 z m -18.144,5.7421 c 0,8.5469 3.644,12.336 12.609,12.336 11.414,0 11.414,-6.8672 11.414,-10.793 V 38.1953 c 0,-1.543 0,-3.0156 1.828,-3.0156 0.77,0 1.113,0.1445 1.395,0.3516 v -4.2032 c -0.418,-0.0664 -1.961,-0.3476 -3.426,-0.3476 -2.246,0 -5.051,0 -5.324,4.832 h -0.145 c -1.887,-3.3594 -5.527,-5.3906 -9.035,-5.3906 -7,0 -10.223,4.1992 -10.223,10.9179 0,5.254 2.235,8.8985 7.071,10.3711 l 7.918,2.3829 c 4.269,1.3281 4.269,2.5195 4.269,5.6757 0,3.4961 -2.101,5.5274 -6.027,5.5274 -6.434,0 -6.434,-6.0274 -6.434,-7.3555 v -0.3516 h -5.89" /><path
             id="path98"
             style="fill:#231f20;fill-opacity:1;fill-rule:nonzero;stroke:none"
             d="M 81.2305,353.395 V 174.813 H 469.965 V 353.395 H 81.2305" /><path
             id="path100"
             style="fill:#ffffff;fill-opacity:1;fill-rule:nonzero;stroke:none"
             d="m 151.504,254.426 v -1.68 c 0,-5.359 1.519,-8.797 7.594,-8.797 3.515,0 6.875,2.246 6.875,7.039 0,5.196 -2.633,7.11 -10.235,9.754 -10.23,3.52 -14.949,7.754 -14.949,17.27 0,11.109 6.797,16.797 17.664,16.797 10.235,0 17.68,-4.407 17.68,-15.356 v -1.598 h -11.039 c 0,5.348 -1.832,8.473 -6.239,8.473 -5.195,0 -6.554,-3.277 -6.554,-6.637 0,-3.515 1.039,-5.675 5.918,-7.753 l 8.879,-3.84 c 8.632,-3.758 10.871,-8.153 10.871,-15.118 0,-12.07 -7.356,-17.507 -19.828,-17.507 -13.036,0 -18.153,6.082 -18.153,16.629 v 2.324 h 11.516" /><path
             id="path102"
             style="fill:#ffffff;fill-opacity:1;fill-rule:nonzero;stroke:none"
             d="m 200.945,242.988 c 4.481,0 5.918,4.399 5.918,15.11 0,10.722 -1.437,15.117 -5.918,15.117 -5.437,0 -5.918,-6.317 -5.918,-15.117 0,-8.789 0.481,-15.11 5.918,-15.11 z m 0,37.739 c 13.274,0.242 16.953,-7.676 16.953,-22.629 0,-14.707 -4.316,-22.625 -16.953,-22.625 -13.269,-0.235 -16.953,7.675 -16.953,22.625 0,14.718 4.317,22.629 16.953,22.629" /><path
             id="path104"
             style="fill:#ffffff;fill-opacity:1;fill-rule:nonzero;stroke:none"
             d="m 241.59,243.949 c 4.875,0 5.832,4.805 5.832,14.149 0,9.355 -0.957,14.16 -5.832,14.16 -4.805,0 -5.762,-4.805 -5.762,-14.16 0,-9.344 0.957,-14.149 5.762,-14.149 z m 6.308,-2.793 h -0.156 c -2.402,-4.004 -5.441,-5.683 -9.758,-5.683 -9.031,0 -13.191,6.64 -13.191,22.625 0,15.996 4.16,22.629 13.191,22.629 4.161,0 6.954,-1.672 9.278,-5.118 h 0.16 v 18.075 h 11.027 v -57.09 h -10.551 v 4.562" /><path
             id="path106"
             style="fill:#ffffff;fill-opacity:1;fill-rule:nonzero;stroke:none"
             d="m 268.227,279.613 h 11.023 v -43.019 h -11.023 z m 0,14.715 h 11.023 v -9.441 h -11.023 v 9.441" /><path
             id="path108"
             style="fill:#ffffff;fill-opacity:1;fill-rule:nonzero;stroke:none"
             d="m 311.086,241.633 h -0.156 c -2.313,-4.238 -6.317,-6.16 -10.957,-6.16 -6.875,0 -10.946,3.757 -10.946,12.234 v 31.906 h 11.024 v -29.668 c 0,-4.316 1.445,-5.996 4.726,-5.996 3.75,0 5.832,2.324 5.832,7.117 v 28.547 h 11.036 v -43.019 h -10.559 v 5.039" /><path
             id="path110"
             style="fill:#ffffff;fill-opacity:1;fill-rule:nonzero;stroke:none"
             d="m 331.027,279.613 h 10.547 v -4.394 h 0.168 c 2.793,3.914 6.231,5.508 10.867,5.508 5.039,0 8.723,-2.473 9.922,-6.875 h 0.157 c 1.679,4.558 5.675,6.875 10.871,6.875 7.273,0 10.711,-4.551 10.711,-12.872 v -31.261 h -11.024 v 30.066 c 0,3.598 -1.203,5.598 -4.328,5.598 -3.516,0 -5.75,-2.403 -5.75,-7.363 v -28.301 h -11.035 v 30.066 c 0,3.598 -1.203,5.598 -4.317,5.598 -3.515,0 -5.753,-2.403 -5.753,-7.363 v -28.301 h -11.036 v 43.019" /><path
             id="path112"
             style="fill:#231f20;fill-opacity:1;fill-rule:nonzero;stroke:none"
             d="M 81.2305,546.445 V 367.863 H 469.965 V 546.445 H 81.2305" /><path
             id="path114"
             style="fill:#ffffff;fill-opacity:1;fill-rule:nonzero;stroke:none"
             d="m 151.504,488.016 v -1.68 c 0,-5.356 1.519,-8.797 7.594,-8.797 3.515,0 6.875,2.238 6.875,7.035 0,5.199 -2.633,7.117 -10.235,9.754 -10.23,3.52 -14.949,7.758 -14.949,17.27 0,11.113 6.797,16.793 17.664,16.793 10.235,0 17.68,-4.399 17.68,-15.352 v -1.601 h -11.039 c 0,5.363 -1.832,8.476 -6.239,8.476 -5.195,0 -6.554,-3.277 -6.554,-6.637 0,-3.515 1.039,-5.675 5.918,-7.754 l 8.879,-3.835 c 8.632,-3.762 10.871,-8.161 10.871,-15.114 0,-12.074 -7.356,-17.508 -19.828,-17.508 -13.036,0 -18.153,6.075 -18.153,16.629 v 2.321 h 11.516" /><path
             id="path116"
             style="fill:#ffffff;fill-opacity:1;fill-rule:nonzero;stroke:none"
             d="m 207.496,475.223 h -0.152 c -2.317,-4.239 -6.321,-6.157 -10.957,-6.157 -6.875,0 -10.949,3.754 -10.949,12.231 v 31.902 h 11.027 v -29.664 c 0,-4.32 1.441,-5.996 4.723,-5.996 3.75,0 5.832,2.316 5.832,7.117 v 28.543 h 11.035 v -43.015 h -10.559 v 5.039" /><path
             id="path118"
             style="fill:#ffffff;fill-opacity:1;fill-rule:nonzero;stroke:none"
             d="m 243.102,479.137 c 4.64,0 5.996,5.039 5.996,12.316 0,10.473 -1.356,14.391 -5.75,14.391 -4.875,0 -5.762,-3.918 -5.762,-15.512 0,-5.918 0.887,-11.195 5.516,-11.195 z m 16.55,34.062 V 472.34 c 0,-11.352 -5.035,-16.867 -17.906,-16.867 -9.355,0 -14.629,4.16 -14.629,11.511 h 10.559 c 0,-1.441 0.633,-2.558 1.676,-3.269 1.035,-0.727 2.316,-1.203 3.671,-1.203 4.485,0 6.075,3.355 6.075,7.75 v 5.679 h -0.157 c -2.234,-3.199 -5.671,-5.281 -9.199,-5.281 -8.789,0 -13.183,5.996 -13.183,21.75 0,10.074 1.515,21.91 13.507,21.91 3.036,0 6.797,-1.441 8.875,-5.918 h 0.157 v 4.797 h 10.554" /><path
             id="path120"
             style="fill:#ffffff;fill-opacity:1;fill-rule:nonzero;stroke:none"
             d="m 289.496,491.691 c -1.523,-1.117 -3.359,-1.839 -4.719,-2.16 -4.48,-0.961 -6.238,-3.117 -6.238,-6.957 0,-3.273 1.199,-5.996 4.16,-5.996 2.957,0 6.797,1.918 6.797,6.637 z m -20.156,8.317 v 1.039 c 0,9.91 6.797,13.273 15.117,13.273 13.113,0 15.586,-5.441 15.586,-13.195 v -22.629 c 0,-3.996 0.242,-5.832 1.367,-8.312 h -10.558 c -0.723,1.355 -1.043,3.035 -1.356,4.476 h -0.168 c -2.558,-4.476 -5.672,-5.594 -10.945,-5.594 -7.676,0 -10.403,6.551 -10.403,12.313 0,8.07 3.282,11.351 10.879,13.43 l 6.231,1.679 c 3.281,0.875 4.406,2.157 4.406,5.039 0,3.274 -1.445,5.278 -5.117,5.278 -3.359,0 -5.117,-2.242 -5.117,-5.602 v -1.195 h -9.922" /><path
             id="path122"
             style="fill:#ffffff;fill-opacity:1;fill-rule:nonzero;stroke:none"
             d="m 309.906,513.199 h 10.547 v -5.754 h 0.164 c 2.238,4.153 5.352,6.875 9.914,6.875 0.633,0 1.356,-0.082 2,-0.164 v -10.551 c -1.121,0.079 -2.324,0.157 -3.437,0.157 -3.836,0 -8.164,-1.996 -8.164,-7.754 v -25.824 h -11.024 v 43.015" /><path
             id="path124"
             style="fill:#ffffff;fill-opacity:1;fill-rule:nonzero;stroke:none"
             d="m 346.625,484.254 v -1.438 c 0,-3.757 1.992,-6.238 5.75,-6.238 3.359,0 5.598,1.68 5.598,5.117 0,2.797 -1.836,4.078 -3.996,4.879 l -7.754,2.797 c -6.082,2.16 -9.2,5.918 -9.2,11.992 0,7.121 4.485,12.957 15.832,12.957 10,0 14.715,-4.48 14.715,-12.234 v -1.762 h -9.922 c 0,4.321 -1.277,6.481 -4.871,6.481 -2.804,0 -5.195,-1.602 -5.195,-4.641 0,-2.078 1.113,-3.836 4.793,-5.039 l 6.641,-2.234 c 6.953,-2.321 9.511,-5.836 9.511,-12.317 0,-9.031 -6.718,-13.508 -15.996,-13.508 -12.39,0 -15.828,5.434 -15.828,13.672 v 1.516 h 9.922" /><path
             id="path126"
             style="fill:#ffffff;fill-opacity:1;fill-rule:nonzero;stroke:none"
             d="m 151.504,408.02 v -1.68 c 0,-5.36 1.519,-8.801 7.594,-8.801 3.515,0 6.875,2.238 6.875,7.035 0,5.203 -2.633,7.117 -10.235,9.754 -10.23,3.527 -14.949,7.766 -14.949,17.277 0,11.114 6.797,16.786 17.664,16.786 10.235,0 17.68,-4.395 17.68,-15.352 v -1.601 h -11.039 c 0,5.363 -1.832,8.476 -6.239,8.476 -5.195,0 -6.554,-3.269 -6.554,-6.633 0,-3.511 1.039,-5.679 5.918,-7.75 l 8.879,-3.84 c 8.632,-3.757 10.871,-8.164 10.871,-15.117 0,-12.07 -7.356,-17.508 -19.828,-17.508 -13.036,0 -18.153,6.075 -18.153,16.629 v 2.325 h 11.516" /><path
             id="path128"
             style="fill:#ffffff;fill-opacity:1;fill-rule:nonzero;stroke:none"
             d="m 207.496,395.227 h -0.152 c -2.317,-4.239 -6.321,-6.161 -10.957,-6.161 -6.875,0 -10.949,3.758 -10.949,12.235 v 31.902 h 11.027 v -29.668 c 0,-4.312 1.441,-5.996 4.723,-5.996 3.75,0 5.832,2.316 5.832,7.121 v 28.543 h 11.035 v -43.015 h -10.559 v 5.039" /><path
             id="path130"
             style="fill:#ffffff;fill-opacity:1;fill-rule:nonzero;stroke:none"
             d="m 248.141,417.688 c 0,4.16 -0.797,8.632 -4.95,8.632 -5.437,0 -6.32,-4.793 -6.32,-14.707 0,-10.633 0.957,-15.027 5.918,-15.027 3.676,0 5.352,3.113 5.352,10.066 h 10.554 c 0,-11.269 -4.715,-17.586 -16.394,-17.586 -11.024,0 -16.461,5.36 -16.461,22.625 0,17.676 7.273,22.629 17.43,22.629 10.156,0 15.425,-6.476 15.425,-16.632 h -10.554" /><path
             id="path132"
             style="fill:#ffffff;fill-opacity:1;fill-rule:nonzero;stroke:none"
             d="m 266.469,433.203 h 10.547 v -5.758 h 0.164 c 2.238,4.16 5.351,6.875 9.914,6.875 0.633,0 1.355,-0.082 2,-0.16 v -10.555 c -1.121,0.079 -2.324,0.157 -3.438,0.157 -3.836,0 -8.164,-1.992 -8.164,-7.754 v -25.82 h -11.023 v 43.015" /><path
             id="path134"
             style="fill:#ffffff;fill-opacity:1;fill-rule:nonzero;stroke:none"
             d="m 315.813,416.574 c -0.235,6.555 -1.036,10.235 -5.594,10.235 -4.395,0 -5.676,-4.563 -5.676,-8.555 v -1.68 z m -11.27,-6.562 v -3.438 c 0,-5.039 1.359,-9.988 5.43,-9.988 3.683,0 5.207,2.793 5.84,8.074 h 9.914 c -0.403,-10 -5.196,-15.594 -15.586,-15.594 -15.996,0 -16.633,12.313 -16.633,23.028 0,11.511 2.238,22.226 17.109,22.226 12.871,0 15.754,-8.632 15.754,-21.828 v -2.48 h -21.828" /><path
             id="path136"
             style="fill:#ffffff;fill-opacity:1;fill-rule:nonzero;stroke:none"
             d="m 342.23,404.262 v -1.446 c 0,-3.75 1.993,-6.23 5.75,-6.23 3.36,0 5.598,1.68 5.598,5.113 0,2.793 -1.836,4.074 -3.996,4.875 l -7.754,2.805 c -6.082,2.156 -9.199,5.918 -9.199,11.988 0,7.121 4.484,12.953 15.832,12.953 10,0 14.715,-4.472 14.715,-12.226 v -1.77 h -9.922 c 0,4.328 -1.277,6.485 -4.871,6.485 -2.805,0 -5.195,-1.602 -5.195,-4.637 0,-2.082 1.113,-3.84 4.792,-5.039 l 6.641,-2.238 c 6.953,-2.325 9.512,-5.84 9.512,-12.317 0,-9.031 -6.719,-13.512 -15.996,-13.512 -12.391,0 -15.828,5.438 -15.828,13.672 v 1.524 h 9.921" /><path
             id="path138"
             style="fill:#231f20;fill-opacity:1;fill-rule:nonzero;stroke:none"
             d="M 81.2305,739.617 V 561.035 H 469.965 V 739.617 H 81.2305" /><path
             id="path140"
             style="fill:#ffffff;fill-opacity:1;fill-rule:nonzero;stroke:none"
             d="m 151.504,681.605 v -1.679 c 0,-5.36 1.519,-8.797 7.594,-8.797 3.515,0 6.875,2.238 6.875,7.031 0,5.203 -2.633,7.121 -10.235,9.758 -10.23,3.52 -14.949,7.758 -14.949,17.27 0,11.113 6.797,16.792 17.664,16.792 10.235,0 17.68,-4.402 17.68,-15.351 v -1.602 h -11.039 c 0,5.36 -1.832,8.477 -6.239,8.477 -5.195,0 -6.554,-3.277 -6.554,-6.637 0,-3.515 1.039,-5.679 5.918,-7.754 l 8.879,-3.836 c 8.632,-3.761 10.871,-8.16 10.871,-15.113 0,-12.074 -7.356,-17.512 -19.828,-17.512 -13.036,0 -18.153,6.075 -18.153,16.633 v 2.32 h 11.516" /><path
             id="path142"
             style="fill:#ffffff;fill-opacity:1;fill-rule:nonzero;stroke:none"
             d="m 205.508,685.281 c -1.528,-1.121 -3.363,-1.84 -4.719,-2.16 -4.484,-0.961 -6.238,-3.117 -6.238,-6.957 0,-3.277 1.199,-5.996 4.16,-5.996 2.957,0 6.797,1.918 6.797,6.637 z m -20.16,8.317 v 1.039 c 0,9.91 6.797,13.269 15.121,13.269 13.113,0 15.582,-5.437 15.582,-13.191 v -22.629 c 0,-3.996 0.246,-5.832 1.371,-8.313 h -10.559 c -0.722,1.356 -1.047,3.036 -1.355,4.477 h -0.168 c -2.559,-4.477 -5.676,-5.598 -10.949,-5.598 -7.672,0 -10.399,6.555 -10.399,12.317 0,8.07 3.281,11.351 10.879,13.426 l 6.231,1.679 c 3.281,0.879 4.406,2.16 4.406,5.039 0,3.278 -1.449,5.282 -5.121,5.282 -3.36,0 -5.117,-2.243 -5.117,-5.602 v -1.195 h -9.922" /><path
             id="path144"
             style="fill:#ffffff;fill-opacity:1;fill-rule:nonzero;stroke:none"
             d="m 228.309,719.098 h 11.035 v -12.309 h 6.394 v -7.516 h -6.394 v -23.269 c 0,-3.356 0.722,-4.719 3.918,-4.719 0.875,0 1.754,0.082 2.476,0.164 v -7.676 c -2.398,-0.242 -4.636,-0.48 -7.195,-0.48 -8.633,0 -10.234,2.637 -10.234,11.352 v 24.628 h -5.594 v 7.516 h 5.594 v 12.309" /><path
             id="path146"
             style="fill:#ffffff;fill-opacity:1;fill-rule:nonzero;stroke:none"
             d="m 275.18,699.273 h -5.598 v 7.516 h 5.598 v 4.879 c 0,7.754 4.402,10.312 11.511,10.312 2.004,0 3.918,-0.078 5.918,-0.242 v -7.836 c -0.722,0.078 -1.433,0.078 -2.156,0.078 -3.117,0 -4.238,-0.957 -4.238,-3.437 v -3.754 h 6.394 v -7.516 h -6.394 v -35.5 H 275.18 v 35.5" /><path
             id="path148"
             style="fill:#ffffff;fill-opacity:1;fill-rule:nonzero;stroke:none"
             d="m 316.938,685.281 c -1.524,-1.121 -3.36,-1.84 -4.719,-2.16 -4.481,-0.961 -6.239,-3.117 -6.239,-6.957 0,-3.277 1.2,-5.996 4.161,-5.996 2.957,0 6.797,1.918 6.797,6.637 z m -20.157,8.317 v 1.039 c 0,9.91 6.797,13.269 15.117,13.269 13.114,0 15.586,-5.437 15.586,-13.191 v -22.629 c 0,-3.996 0.243,-5.832 1.368,-8.313 h -10.559 c -0.723,1.356 -1.043,3.036 -1.355,4.477 h -0.168 c -2.559,-4.477 -5.672,-5.598 -10.946,-5.598 -7.676,0 -10.402,6.555 -10.402,12.317 0,8.07 3.281,11.351 10.879,13.426 l 6.23,1.679 c 3.282,0.879 4.407,2.16 4.407,5.039 0,3.278 -1.446,5.282 -5.118,5.282 -3.359,0 -5.117,-2.243 -5.117,-5.602 v -1.195 h -9.922" /><path
             id="path150"
             style="fill:#ffffff;fill-opacity:1;fill-rule:nonzero;stroke:none"
             d="m 339.738,719.098 h 11.035 v -12.309 h 6.399 v -7.516 h -6.399 v -23.269 c 0,-3.356 0.723,-4.719 3.918,-4.719 0.879,0 1.758,0.082 2.481,0.164 v -7.676 c -2.395,-0.242 -4.641,-0.48 -7.199,-0.48 -8.633,0 -10.235,2.637 -10.235,11.352 v 24.628 h -5.593 v 7.516 h 5.593 v 12.309" /><path
             id="path152"
             style="fill:#ffffff;fill-opacity:1;fill-rule:nonzero;stroke:none"
             d="m 167.574,623.906 c 0,4.242 -1.922,9.598 -6.562,9.598 -5.594,0 -7.832,-5.758 -7.832,-19.992 0,-13.75 1.281,-22.383 7.922,-22.383 2.714,0 7.109,2.957 7.109,9.113 v 5.84 h -7.59 v 8.473 h 18.625 v -30.782 h -8.476 v 5.278 h -0.157 c -2.715,-4.477 -6.64,-6.399 -11.992,-6.399 -14.152,0 -16.953,10.551 -16.953,30.305 0,19.188 4.48,29.023 19.187,29.023 12.637,0 17.754,-6.476 17.754,-18.074 h -11.035" /><path
             id="path154"
             style="fill:#ffffff;fill-opacity:1;fill-rule:nonzero;stroke:none"
             d="m 188.395,626.789 h 10.546 v -5.758 h 0.168 c 2.235,4.157 5.352,6.875 9.911,6.875 0.644,0 1.359,-0.078 2.003,-0.16 v -10.551 c -1.125,0.078 -2.324,0.157 -3.437,0.157 -3.84,0 -8.156,-1.997 -8.156,-7.754 v -25.825 h -11.035 v 43.016" /><path
             id="path156"
             style="fill:#ffffff;fill-opacity:1;fill-rule:nonzero;stroke:none"
             d="m 237.105,605.281 c -1.519,-1.121 -3.359,-1.84 -4.714,-2.16 -4.485,-0.961 -6.243,-3.117 -6.243,-6.957 0,-3.277 1.204,-5.996 4.161,-5.996 2.961,0 6.796,1.918 6.796,6.637 z m -20.156,8.317 v 1.039 c 0,9.91 6.797,13.269 15.117,13.269 13.118,0 15.586,-5.437 15.586,-13.191 v -22.629 c 0,-3.996 0.246,-5.832 1.368,-8.313 h -10.555 c -0.723,1.356 -1.043,3.036 -1.36,4.477 h -0.164 c -2.558,-4.477 -5.675,-5.598 -10.949,-5.598 -7.676,0 -10.398,6.555 -10.398,12.317 0,8.07 3.281,11.351 10.879,13.426 l 6.23,1.679 c 3.281,0.879 4.402,2.16 4.402,5.039 0,3.278 -1.445,5.282 -5.117,5.282 -3.355,0 -5.117,-2.243 -5.117,-5.602 v -1.195 h -9.922" /><path
             id="path158"
             style="fill:#ffffff;fill-opacity:1;fill-rule:nonzero;stroke:none"
             d="m 265.578,597.844 v -1.442 c 0,-3.754 1.992,-6.234 5.754,-6.234 3.359,0 5.594,1.68 5.594,5.117 0,2.797 -1.836,4.078 -3.992,4.879 l -7.754,2.797 c -6.086,2.156 -9.196,5.918 -9.196,11.992 0,7.121 4.477,12.953 15.825,12.953 10,0 14.718,-4.476 14.718,-12.23 v -1.762 h -9.922 c 0,4.32 -1.281,6.481 -4.875,6.481 -2.8,0 -5.195,-1.602 -5.195,-4.641 0,-2.078 1.113,-3.84 4.797,-5.039 l 6.641,-2.235 c 6.953,-2.32 9.511,-5.835 9.511,-12.316 0,-9.031 -6.718,-13.512 -15.996,-13.512 -12.394,0 -15.828,5.438 -15.828,13.672 v 1.52 h 9.918" /><path
             id="path160"
             style="fill:#ffffff;fill-opacity:1;fill-rule:nonzero;stroke:none"
             d="m 324.301,597.844 v -1.442 c 0,-3.754 1.992,-6.234 5.75,-6.234 3.359,0 5.597,1.68 5.597,5.117 0,2.797 -1.835,4.078 -3.996,4.879 l -7.754,2.797 c -6.082,2.156 -9.199,5.918 -9.199,11.992 0,7.121 4.485,12.953 15.832,12.953 10,0 14.715,-4.476 14.715,-12.23 v -1.762 h -9.922 c 0,4.32 -1.277,6.481 -4.871,6.481 -2.805,0 -5.195,-1.602 -5.195,-4.641 0,-2.078 1.113,-3.84 4.793,-5.039 l 6.64,-2.235 c 6.954,-2.32 9.512,-5.835 9.512,-12.316 0,-9.031 -6.719,-13.512 -15.996,-13.512 -12.391,0 -15.828,5.438 -15.828,13.672 v 1.52 h 9.922" /><path
             id="path162"
             style="fill:#ffffff;fill-opacity:1;fill-rule:nonzero;stroke:none"
             d="m 373.813,605.281 c -1.524,-1.121 -3.36,-1.84 -4.719,-2.16 -4.481,-0.961 -6.239,-3.117 -6.239,-6.957 0,-3.277 1.2,-5.996 4.161,-5.996 2.957,0 6.797,1.918 6.797,6.637 z m -20.157,8.317 v 1.039 c 0,9.91 6.797,13.269 15.117,13.269 13.114,0 15.586,-5.437 15.586,-13.191 v -22.629 c 0,-3.996 0.243,-5.832 1.368,-8.313 h -10.559 c -0.723,1.356 -1.043,3.036 -1.355,4.477 h -0.168 c -2.559,-4.477 -5.672,-5.598 -10.946,-5.598 -7.676,0 -10.402,6.555 -10.402,12.317 0,8.07 3.281,11.351 10.879,13.426 l 6.23,1.679 c 3.282,0.879 4.407,2.16 4.407,5.039 0,3.278 -1.446,5.282 -5.118,5.282 -3.359,0 -5.117,-2.243 -5.117,-5.602 v -1.195 h -9.922" /><path
             id="path164"
             style="fill:#ffffff;fill-opacity:1;fill-rule:nonzero;stroke:none"
             d="m 396.613,639.098 h 11.035 v -12.309 h 6.399 v -7.516 h -6.399 v -23.269 c 0,-3.356 0.723,-4.719 3.918,-4.719 0.879,0 1.758,0.082 2.481,0.164 v -7.676 c -2.395,-0.242 -4.641,-0.48 -7.199,-0.48 -8.633,0 -10.235,2.637 -10.235,11.352 v 24.628 h -5.593 v 7.516 h 5.593 v 12.309" /><path
             id="path166"
             style="fill:#ffffff;fill-opacity:1;fill-rule:nonzero;stroke:none"
             d="m 431.086,596.246 v -12.473 h -10.555 v 12.473 h 10.555" /><path
             id="path168"
             style="fill:#231f20;fill-opacity:1;fill-rule:nonzero;stroke:none"
             d="m 145.637,811.66 c -14.926,-25.418 -47.6565,-33.941 -73.0511,-19.015 -25.4218,14.921 -33.9453,47.679 -19.0234,73.101 14.9258,25.395 47.4065,33.859 73.1055,19 25.699,-14.832 33.922,-47.687 18.969,-73.086 z m -10.203,88.481 C 101.535,920.059 58.3203,908.781 38.3789,874.883 20.9414,844.789 27.6055,807.176 52.9297,785.371 L 24.4141,737.453 c -2.836,-4.84 -1.0664,-11.066 3.8945,-13.691 l 6.8398,-3.621 c 4.7149,-2.496 10.5625,-0.789 13.1914,3.855 l 27.0469,48.168 c 31.6993,-11.41 67.7813,1.078 85.3043,30.926 19.887,33.89 8.668,77.14 -25.257,97.051" /></g></g></g></g></svg>