<?xml version="1.0" encoding="UTF-8" standalone="no"?>
<svg
   xmlns:dc="http://purl.org/dc/elements/1.1/"
   xmlns:cc="http://creativecommons.org/ns#"
   xmlns:rdf="http://www.w3.org/1999/02/22-rdf-syntax-ns#"
   xmlns:svg="http://www.w3.org/2000/svg"
   xmlns="http://www.w3.org/2000/svg"
   viewBox="0 0 51.779732 56.694795"
   height="56.694798"
   width="51.779732"
   xml:space="preserve"
   id="svg2"
   version="1.1"><metadata
     id="metadata8"><rdf:RDF><cc:Work
         rdf:about=""><dc:format>image/svg+xml</dc:format><dc:type
           rdf:resource="http://purl.org/dc/dcmitype/StillImage" /></cc:Work></rdf:RDF></metadata><defs
     id="defs6"><clipPath
       id="clipPath20"
       clipPathUnits="userSpaceOnUse"><path
         id="path18"
         d="M 0,0 H 388.348 V 425.211 H 0 Z" /></clipPath></defs><g
     transform="matrix(1.3333333,0,0,-1.3333333,0,56.694799)"
     id="g10"><g
       transform="scale(0.1)"
       id="g12"><g
         id="g14"><g
           clip-path="url(#clipPath20)"
           id="g16"><path
             id="path22"
             style="fill:#ffffff;fill-opacity:1;fill-rule:nonzero;stroke:none"
             d="M 2.5,2.50391 V 422.711 H 385.848 V 2.50391 H 2.5" /><path
             id="path24"
             style="fill:#231f20;fill-opacity:1;fill-rule:nonzero;stroke:none"
             d="M 388.348,425.211 H 0 V 0 h 388.348 z m -5,-5 V 5 H 5 v 415.211 h 378.348" /><path
             id="path26"
             style="fill:#231f20;fill-opacity:1;fill-rule:nonzero;stroke:none"
             d="m 138.66,401.391 h 8.633 v -16.368 h 10.078 v 16.368 h 8.633 v -42.813 h -8.633 v 19.012 h -10.078 v -19.012 h -8.633 v 42.813" /><path
             id="path28"
             style="fill:#231f20;fill-opacity:1;fill-rule:nonzero;stroke:none"
             d="m 173.281,390.844 h 8.282 v -32.266 h -8.282 z m 0,11.035 h 8.282 v -7.082 h -8.282 v 7.082" /><path
             id="path30"
             style="fill:#231f20;fill-opacity:1;fill-rule:nonzero;stroke:none"
             d="m 200.332,365.297 c 3.477,0 4.5,3.777 4.5,9.226 0,7.864 -1.023,10.801 -4.324,10.801 -3.653,0 -4.317,-2.937 -4.317,-11.64 0,-4.434 0.664,-8.387 4.141,-8.387 z m 12.406,25.547 v -30.645 c 0,-8.515 -3.769,-12.656 -13.422,-12.656 -7.023,0 -10.976,3.113 -10.976,8.633 h 7.91 c 0,-1.074 0.488,-1.914 1.258,-2.453 0.781,-0.547 1.75,-0.899 2.765,-0.899 3.36,0 4.559,2.512 4.559,5.813 v 4.258 h -0.125 c -1.68,-2.395 -4.258,-3.957 -6.894,-3.957 -6.594,0 -9.895,4.492 -9.895,16.308 0,7.559 1.145,16.438 10.137,16.438 2.277,0 5.097,-1.086 6.652,-4.446 h 0.125 v 3.606 h 7.906" /><path
             id="path32"
             style="fill:#231f20;fill-opacity:1;fill-rule:nonzero;stroke:none"
             d="m 219.77,401.391 h 8.281 v -13.848 h 0.117 c 1.562,2.754 4.375,4.141 7.871,4.141 5.156,0 8.203,-2.825 8.203,-9.18 v -23.926 h -8.281 v 22.246 c 0,3.242 -1.074,4.5 -3.535,4.5 -2.813,0 -4.375,-1.738 -4.375,-5.34 v -21.406 h -8.281 v 42.813" /><path
             id="path34"
             style="fill:#231f20;fill-opacity:1;fill-rule:nonzero;stroke:none"
             d="m 266.879,390.844 h 8.281 v -32.266 h -8.281 z m 0,11.035 h 8.281 v -7.082 h -8.281 v 7.082" /><path
             id="path36"
             style="fill:#231f20;fill-opacity:1;fill-rule:nonzero;stroke:none"
             d="m 282.172,390.844 h 7.93 v -3.781 h 0.117 c 1.738,3.175 4.726,4.621 8.222,4.621 5.157,0 8.204,-2.825 8.204,-9.18 v -23.926 h -8.282 v 22.246 c 0,3.242 -1.074,4.5 -3.535,4.5 -2.812,0 -4.375,-1.738 -4.375,-5.34 v -21.406 h -8.281 v 32.266" /><path
             id="path38"
             style="fill:#231f20;fill-opacity:1;fill-rule:nonzero;stroke:none"
             d="m 150.176,352.551 h 8.269 l -5.867,-8.641 h -5.644 z m 12.41,-11.16 v -7.071 h -15.293 v -10.078 h 14.395 v -7.07 h -14.395 v -11.516 h 15.898 v -7.078 H 138.66 v 42.813 h 23.926" /><path
             id="path40"
             style="fill:#231f20;fill-opacity:1;fill-rule:nonzero;stroke:none"
             d="m 168.777,341.391 h 8.282 v -42.813 h -8.282 v 42.813" /><path
             id="path42"
             style="fill:#231f20;fill-opacity:1;fill-rule:nonzero;stroke:none"
             d="m 199.609,318.363 c -0.187,4.922 -0.781,7.676 -4.199,7.676 -3.301,0 -4.258,-3.418 -4.258,-6.418 v -1.258 z m -8.457,-4.914 v -2.578 c 0,-3.777 1.016,-7.5 4.082,-7.5 2.754,0 3.895,2.102 4.375,6.055 h 7.43 c -0.293,-7.488 -3.894,-11.688 -11.687,-11.688 -11.993,0 -12.473,9.239 -12.473,17.274 0,8.633 1.68,16.672 12.832,16.672 9.648,0 11.812,-6.485 11.812,-16.379 v -1.856 h -16.371" /><path
             id="path44"
             style="fill:#231f20;fill-opacity:1;fill-rule:nonzero;stroke:none"
             d="m 228.344,330.844 h 8.281 l -8.086,-32.266 h -9.609 l -8.321,32.266 h 8.633 l 4.61,-23.086 h 0.117 l 4.375,23.086" /><path
             id="path46"
             style="fill:#231f20;fill-opacity:1;fill-rule:nonzero;stroke:none"
             d="m 251.391,343.254 h 8.281 l -5.879,-8.633 h -5.645 z m 5.039,-24.891 c -0.176,4.922 -0.782,7.676 -4.2,7.676 -3.3,0 -4.257,-3.418 -4.257,-6.418 v -1.258 z m -8.457,-4.914 v -2.578 c 0,-3.777 1.015,-7.5 4.082,-7.5 2.754,0 3.906,2.102 4.375,6.055 h 7.441 c -0.293,-7.488 -3.906,-11.688 -11.699,-11.688 -11.992,0 -12.461,9.239 -12.461,17.274 0,8.633 1.68,16.672 12.832,16.672 9.648,0 11.797,-6.485 11.797,-16.379 v -1.856 h -16.367" /><path
             id="path48"
             style="fill:#231f20;fill-opacity:1;fill-rule:nonzero;stroke:none"
             d="m 301.02,318.363 c -0.196,4.922 -0.782,7.676 -4.2,7.676 -3.3,0 -4.257,-3.418 -4.257,-6.418 v -1.258 z m -8.457,-4.914 v -2.578 c 0,-3.777 1.015,-7.5 4.082,-7.5 2.753,0 3.886,2.102 4.375,6.055 h 7.421 c -0.293,-7.488 -3.886,-11.688 -11.679,-11.688 -11.992,0 -12.481,9.239 -12.481,17.274 0,8.633 1.68,16.672 12.832,16.672 9.649,0 11.817,-6.485 11.817,-16.379 v -1.856 h -16.367" /><path
             id="path50"
             style="fill:#231f20;fill-opacity:1;fill-rule:nonzero;stroke:none"
             d="m 314.457,330.844 h 7.91 v -3.781 h 0.117 c 1.739,3.175 4.746,4.621 8.223,4.621 5.156,0 8.223,-2.825 8.223,-9.18 v -23.926 h -8.282 v 22.246 c 0,3.242 -1.074,4.5 -3.535,4.5 -2.812,0 -4.375,-1.738 -4.375,-5.34 v -21.406 h -8.281 v 32.266" /><path
             id="path52"
             style="fill:#231f20;fill-opacity:1;fill-rule:nonzero;stroke:none"
             d="M 61.8594,81.7969 H 56.5859 V 102.422 H 41.8984 V 81.7969 h -5.2812 v 42.8121 h 5.2812 v -17.511 h 14.6875 v 17.511 h 5.2735 V 81.7969" /><path
             id="path54"
             style="fill:#231f20;fill-opacity:1;fill-rule:nonzero;stroke:none"
             d="m 84.4883,101.23 v 1.739 c 0,3.594 -1.1445,7.851 -5.5781,7.851 -5.2852,0 -5.8789,-6.476 -5.8789,-8.398 V 101.23 Z M 72.8555,97.2656 c 0,-4.914 0,-12.3554 6.1718,-12.3554 4.7969,0 5.461,5.039 5.461,7.4414 h 5.039 c 0,-3.418 -2.0429,-11.3985 -10.8007,-11.3985 -7.8516,0 -11.1524,5.461 -11.1524,16.4961 0,8.0348 1.5625,17.3238 11.4531,17.3238 9.836,0 10.7344,-8.574 10.7344,-15.4683 V 97.2656 H 72.8555" /><path
             id="path56"
             style="fill:#231f20;fill-opacity:1;fill-rule:nonzero;stroke:none"
             d="m 110.043,99.3047 c -1.855,-1.9844 -6.289,-2.4024 -8.574,-3.7774 -1.6213,-1.0156 -2.4612,-2.2773 -2.4612,-5.0976 0,-3.2344 1.1442,-5.5195 4.5622,-5.5195 3.301,0 6.473,2.8242 6.473,6.1211 z m -15.5274,4.9223 c 0,7.312 3.1172,10.546 10.7934,10.546 9.773,0 9.773,-5.871 9.773,-9.226 V 87.6133 c 0,-1.3164 0,-2.5781 1.563,-2.5781 0.656,0 0.957,0.1171 1.203,0.2929 v -3.5937 c -0.364,-0.0547 -1.68,-0.3008 -2.942,-0.3008 -1.922,0 -4.316,0 -4.558,4.1406 h -0.118 c -1.621,-2.8789 -4.738,-4.6211 -7.734,-4.6211 -5.996,0 -8.7616,3.5977 -8.7616,9.3594 0,4.5 1.9258,7.6172 6.0547,8.875 l 6.7769,2.0425 c 3.664,1.129 3.664,2.157 3.664,4.852 0,2.996 -1.796,4.738 -5.156,4.738 -5.5193,0 -5.5193,-5.16 -5.5193,-6.3 v -0.293 h -5.0391" /><path
             id="path58"
             style="fill:#231f20;fill-opacity:1;fill-rule:nonzero;stroke:none"
             d="m 122.23,124.609 h 5.04 V 81.7969 h -5.04 v 42.8121" /><path
             id="path60"
             style="fill:#231f20;fill-opacity:1;fill-rule:nonzero;stroke:none"
             d="m 135.668,123.289 h 5.039 v -9.355 h 5.578 v -3.954 h -5.578 V 89.3555 c 0,-2.5782 0.664,-3.6055 3.301,-3.6055 1.074,0 1.68,0.1289 2.219,0.1875 v -4.1406 c -0.664,-0.1172 -1.985,-0.3633 -4.082,-0.3633 -5.215,0 -6.477,2.1602 -6.477,6.3555 V 109.98 h -4.676 v 3.954 h 4.676 v 9.355" /><path
             id="path62"
             style="fill:#231f20;fill-opacity:1;fill-rule:nonzero;stroke:none"
             d="m 149.723,124.609 h 5.039 v -14.328 h 0.117 c 1.316,2.637 4.851,4.492 7.734,4.492 8.27,0 8.27,-6.414 8.27,-10.195 V 81.7969 h -5.028 v 22.1871 c 0,2.461 -0.187,6.473 -4.746,6.473 -2.695,0 -6.347,-1.797 -6.347,-6.473 V 81.7969 h -5.039 v 42.8121" /><path
             id="path64"
             style="fill:#231f20;fill-opacity:1;fill-rule:nonzero;stroke:none"
             d="m 218.285,96.4844 c -0.488,-8.0977 -3.66,-15.5313 -13.015,-15.5313 -12.168,0 -13.79,11.4571 -13.79,22.2459 0,10.805 1.973,22.246 13.79,22.246 8.757,0 12.41,-4.91 12.656,-13.308 h -5.52 c -0.117,4.863 -1.679,8.996 -7.136,8.996 -7.317,0 -8.274,-8.039 -8.274,-17.934 0,-9.8904 0.957,-17.9256 8.274,-17.9256 6.414,0 7.312,5.9961 7.5,11.211 h 5.515" /><path
             id="path66"
             style="fill:#231f20;fill-opacity:1;fill-rule:nonzero;stroke:none"
             d="m 237.777,99.3047 c -1.855,-1.9844 -6.289,-2.4024 -8.574,-3.7774 -1.621,-1.0156 -2.461,-2.2773 -2.461,-5.0976 0,-3.2344 1.145,-5.5195 4.563,-5.5195 3.3,0 6.472,2.8242 6.472,6.1211 z m -15.527,4.9223 c 0,7.312 3.117,10.546 10.793,10.546 9.773,0 9.773,-5.871 9.773,-9.226 V 87.6133 c 0,-1.3164 0,-2.5781 1.563,-2.5781 0.656,0 0.957,0.1171 1.203,0.2929 v -3.5937 c -0.363,-0.0547 -1.68,-0.3008 -2.941,-0.3008 -1.922,0 -4.317,0 -4.559,4.1406 h -0.117 c -1.621,-2.8789 -4.738,-4.6211 -7.735,-4.6211 -5.996,0 -8.761,3.5977 -8.761,9.3594 0,4.5 1.926,7.6172 6.054,8.875 l 6.778,2.0425 c 3.664,1.129 3.664,2.157 3.664,4.852 0,2.996 -1.797,4.738 -5.156,4.738 -5.52,0 -5.52,-5.16 -5.52,-6.3 v -0.293 h -5.039" /><path
             id="path68"
             style="fill:#231f20;fill-opacity:1;fill-rule:nonzero;stroke:none"
             d="m 249.672,113.934 h 4.797 v -3.77 h 0.117 c 1.316,2.93 4.676,4.609 7.801,4.609 8.449,0 8.449,-6.414 8.449,-10.195 V 81.7969 h -5.031 v 22.1871 c 0,2.461 -0.184,6.473 -4.746,6.473 -2.696,0 -6.348,-1.797 -6.348,-6.473 V 81.7969 h -5.039 v 32.1371" /><path
             id="path70"
             style="fill:#231f20;fill-opacity:1;fill-rule:nonzero;stroke:none"
             d="m 292.203,99.3047 c -1.855,-1.9844 -6.289,-2.4024 -8.574,-3.7774 -1.621,-1.0156 -2.461,-2.2773 -2.461,-5.0976 0,-3.2344 1.141,-5.5195 4.559,-5.5195 3.3,0 6.476,2.8242 6.476,6.1211 z m -15.527,4.9223 c 0,7.312 3.113,10.546 10.789,10.546 9.777,0 9.777,-5.871 9.777,-9.226 V 87.6133 c 0,-1.3164 0,-2.5781 1.563,-2.5781 0.652,0 0.957,0.1171 1.199,0.2929 v -3.5937 c -0.359,-0.0547 -1.68,-0.3008 -2.938,-0.3008 -1.925,0 -4.316,0 -4.562,4.1406 h -0.117 c -1.621,-2.8789 -4.735,-4.6211 -7.735,-4.6211 -5.996,0 -8.757,3.5977 -8.757,9.3594 0,4.5 1.921,7.6172 6.054,8.875 l 6.778,2.0425 c 3.66,1.129 3.66,2.157 3.66,4.852 0,2.996 -1.797,4.738 -5.157,4.738 -5.515,0 -5.515,-5.16 -5.515,-6.3 v -0.293 h -5.039" /><path
             id="path72"
             style="fill:#231f20;fill-opacity:1;fill-rule:nonzero;stroke:none"
             d="m 314.047,85.2734 c 5.578,0 6.476,5.2813 6.476,12.5938 0,6.2348 -1.074,12.5898 -6.476,12.5898 -4.676,0 -5.879,-4.91 -5.879,-12.5898 0,-7.6719 1.203,-12.5938 5.879,-12.5938 z m 11.211,-3.4765 h -4.793 V 85.75 h -0.117 c -0.664,-2.3906 -3.477,-4.7969 -6.953,-4.7969 -7.618,0 -10.5,6.7813 -10.5,16.9141 0,6.7108 1.074,16.9058 10.136,16.9058 2.871,0 5.938,-1.738 7.071,-4.492 h 0.128 v 14.328 h 5.028 V 81.7969" /><path
             id="path74"
             style="fill:#231f20;fill-opacity:1;fill-rule:nonzero;stroke:none"
             d="m 346.617,99.3047 c -1.855,-1.9844 -6.289,-2.4024 -8.574,-3.7774 -1.621,-1.0156 -2.461,-2.2773 -2.461,-5.0976 0,-3.2344 1.141,-5.5195 4.559,-5.5195 3.3,0 6.476,2.8242 6.476,6.1211 z m -15.527,4.9223 c 0,7.312 3.113,10.546 10.789,10.546 9.777,0 9.777,-5.871 9.777,-9.226 V 87.6133 c 0,-1.3164 0,-2.5781 1.563,-2.5781 0.652,0 0.957,0.1171 1.199,0.2929 v -3.5937 c -0.359,-0.0547 -1.68,-0.3008 -2.938,-0.3008 -1.925,0 -4.316,0 -4.562,4.1406 h -0.117 c -1.621,-2.8789 -4.735,-4.6211 -7.735,-4.6211 -5.996,0 -8.757,3.5977 -8.757,9.3594 0,4.5 1.921,7.6172 6.054,8.875 l 6.778,2.0425 c 3.66,1.129 3.66,2.157 3.66,4.852 0,2.996 -1.797,4.738 -5.156,4.738 -5.516,0 -5.516,-5.16 -5.516,-6.3 v -0.293 h -5.039" /><path
             id="path76"
             style="fill:#231f20;fill-opacity:1;fill-rule:nonzero;stroke:none"
             d="m 62.0156,53.5156 c 0,4.5 -1.6211,7.6172 -6.6601,7.6172 -4.4336,0 -7.0703,-2.3945 -7.0703,-6.9531 0,-12.0508 20.207,-4.8555 20.207,-20.5078 0,-9.8946 -7.2578,-12.7188 -13.3125,-12.7188 -10.0195,0 -12.957,5.1563 -12.957,14.2696 h 5.2812 c 0,-4.793 0.293,-9.9493 8.0391,-9.9493 4.1875,0 7.4297,2.9961 7.4297,7.5547 0,12.1133 -20.2032,5.1016 -20.2032,20.8125 0,3.9571 1.6797,11.8047 12.5274,11.8047 8.1562,0 11.875,-4.0703 11.9922,-11.9297 h -5.2735" /><path
             id="path78"
             style="fill:#231f20;fill-opacity:1;fill-rule:nonzero;stroke:none"
             d="M 88.4141,39.3047 C 86.5586,37.3203 82.125,36.9023 79.8398,35.5273 78.2188,34.5117 77.375,33.25 77.375,30.4297 c 0,-3.2344 1.1445,-5.5195 4.5625,-5.5195 3.3008,0 6.4766,2.8242 6.4766,6.1211 z m -15.5274,4.9219 c 0,7.3125 3.1133,10.5468 10.7891,10.5468 9.7773,0 9.7773,-5.8711 9.7773,-9.2265 V 27.6133 c 0,-1.3164 0,-2.5781 1.5625,-2.5781 0.6524,0 0.9571,0.1171 1.1992,0.2929 v -3.5937 c -0.3593,-0.0547 -1.6796,-0.3008 -2.9375,-0.3008 -1.9257,0 -4.3203,0 -4.5625,4.1406 h -0.1171 c -1.6211,-2.8789 -4.7344,-4.6211 -7.7344,-4.6211 -5.9961,0 -8.7578,3.5977 -8.7578,9.3594 0,4.5 1.9218,7.6172 6.0547,8.875 l 6.7773,2.043 c 3.6602,1.1289 3.6602,2.1562 3.6602,4.8515 0,2.9961 -1.7969,4.7383 -5.1563,4.7383 -5.5156,0 -5.5156,-5.1601 -5.5156,-6.3008 v -0.2929 h -5.0391" /><path
             id="path80"
             style="fill:#231f20;fill-opacity:1;fill-rule:nonzero;stroke:none"
             d="m 100.309,53.9336 h 4.793 v -3.7695 h 0.117 c 1.32,2.9297 4.679,4.6093 7.804,4.6093 8.446,0 8.446,-6.414 8.446,-10.1953 V 21.7969 h -5.028 v 22.1875 c 0,2.4609 -0.187,6.4726 -4.746,6.4726 -2.695,0 -6.347,-1.7968 -6.347,-6.4726 V 21.7969 h -5.039 v 32.1367" /><path
             id="path82"
             style="fill:#231f20;fill-opacity:1;fill-rule:nonzero;stroke:none"
             d="m 129.574,63.2891 h 5.039 v -9.3555 h 5.578 v -3.9531 h -5.578 v -20.625 c 0,-2.5782 0.664,-3.6055 3.301,-3.6055 1.074,0 1.68,0.1289 2.219,0.1875 v -4.1406 c -0.664,-0.1172 -1.985,-0.3633 -4.082,-0.3633 -5.215,0 -6.477,2.1602 -6.477,6.3555 v 22.1914 h -4.676 v 3.9531 h 4.676 v 9.3555" /><path
             id="path84"
             style="fill:#231f20;fill-opacity:1;fill-rule:nonzero;stroke:none"
             d="m 154.84,66.8945 h 5.879 l -6.477,-8.5156 h -3.601 z m 4.617,-25.664 v 1.7383 c 0,3.5937 -1.141,7.8515 -5.574,7.8515 -5.285,0 -5.879,-6.4765 -5.879,-8.3984 v -1.1914 z m -11.629,-3.9649 c 0,-4.914 0,-12.3554 6.172,-12.3554 4.793,0 5.457,5.039 5.457,7.4414 h 5.039 c 0,-3.418 -2.039,-11.3985 -10.801,-11.3985 -7.851,0 -11.152,5.461 -11.152,16.4961 0,8.0352 1.562,17.3242 11.457,17.3242 9.832,0 10.73,-8.5742 10.73,-15.4687 v -2.0391 h -16.902" /><path
             id="path86"
             style="fill:#231f20;fill-opacity:1;fill-rule:nonzero;stroke:none"
             d="m 211.051,36.4844 c -0.488,-8.0977 -3.664,-15.5313 -13.02,-15.5313 -12.168,0 -13.789,11.4571 -13.789,22.2461 0,10.8047 1.973,22.2461 13.789,22.2461 8.762,0 12.414,-4.9101 12.657,-13.3086 h -5.516 c -0.117,4.8633 -1.68,8.9961 -7.141,8.9961 -7.312,0 -8.269,-8.039 -8.269,-17.9336 0,-9.8906 0.957,-17.9258 8.269,-17.9258 6.418,0 7.317,5.9961 7.5,11.211 h 5.52" /><path
             id="path88"
             style="fill:#231f20;fill-opacity:1;fill-rule:nonzero;stroke:none"
             d="m 230.551,39.3047 c -1.856,-1.9844 -6.289,-2.4024 -8.574,-3.7774 -1.622,-1.0156 -2.461,-2.2773 -2.461,-5.0976 0,-3.2344 1.144,-5.5195 4.562,-5.5195 3.301,0 6.473,2.8242 6.473,6.1211 z m -15.528,4.9219 c 0,7.3125 3.118,10.5468 10.793,10.5468 9.774,0 9.774,-5.8711 9.774,-9.2265 V 27.6133 c 0,-1.3164 0,-2.5781 1.562,-2.5781 0.657,0 0.957,0.1171 1.203,0.2929 v -3.5937 c -0.363,-0.0547 -1.679,-0.3008 -2.941,-0.3008 -1.922,0 -4.316,0 -4.559,4.1406 h -0.117 c -1.621,-2.8789 -4.738,-4.6211 -7.734,-4.6211 -5.996,0 -8.762,3.5977 -8.762,9.3594 0,4.5 1.926,7.6172 6.055,8.875 l 6.777,2.043 c 3.664,1.1289 3.664,2.1562 3.664,4.8515 0,2.9961 -1.797,4.7383 -5.156,4.7383 -5.519,0 -5.519,-5.1601 -5.519,-6.3008 v -0.2929 h -5.04" /><path
             id="path90"
             style="fill:#231f20;fill-opacity:1;fill-rule:nonzero;stroke:none"
             d="m 242.445,53.9336 h 4.797 v -3.7695 h 0.117 c 1.317,2.9297 4.676,4.6093 7.801,4.6093 8.449,0 8.449,-6.414 8.449,-10.1953 V 21.7969 h -5.031 v 22.1875 c 0,2.4609 -0.183,6.4726 -4.746,6.4726 -2.695,0 -6.348,-1.7968 -6.348,-6.4726 V 21.7969 h -5.039 v 32.1367" /><path
             id="path92"
             style="fill:#231f20;fill-opacity:1;fill-rule:nonzero;stroke:none"
             d="m 284.965,39.3047 c -1.856,-1.9844 -6.289,-2.4024 -8.574,-3.7774 -1.621,-1.0156 -2.461,-2.2773 -2.461,-5.0976 0,-3.2344 1.144,-5.5195 4.562,-5.5195 3.301,0 6.473,2.8242 6.473,6.1211 z m -15.527,4.9219 c 0,7.3125 3.117,10.5468 10.792,10.5468 9.774,0 9.774,-5.8711 9.774,-9.2265 V 27.6133 c 0,-1.3164 0,-2.5781 1.562,-2.5781 0.657,0 0.957,0.1171 1.204,0.2929 v -3.5937 c -0.364,-0.0547 -1.68,-0.3008 -2.942,-0.3008 -1.922,0 -4.316,0 -4.558,4.1406 h -0.118 c -1.621,-2.8789 -4.738,-4.6211 -7.734,-4.6211 -5.996,0 -8.762,3.5977 -8.762,9.3594 0,4.5 1.926,7.6172 6.055,8.875 l 6.777,2.043 c 3.664,1.1289 3.664,2.1562 3.664,4.8515 0,2.9961 -1.797,4.7383 -5.156,4.7383 -5.519,0 -5.519,-5.1601 -5.519,-6.3008 v -0.2929 h -5.039" /><path
             id="path94"
             style="fill:#231f20;fill-opacity:1;fill-rule:nonzero;stroke:none"
             d="m 306.813,25.2734 c 5.574,0 6.472,5.2813 6.472,12.5938 0,6.2344 -1.074,12.5898 -6.472,12.5898 -4.68,0 -5.879,-4.9101 -5.879,-12.5898 0,-7.6719 1.199,-12.5938 5.879,-12.5938 z m 11.21,-3.4765 h -4.796 V 25.75 h -0.118 c -0.664,-2.3906 -3.476,-4.7969 -6.953,-4.7969 -7.617,0 -10.496,6.7813 -10.496,16.9141 0,6.7109 1.074,16.9062 10.137,16.9062 2.871,0 5.937,-1.7382 7.07,-4.4921 h 0.125 v 14.3281 h 5.031 V 21.7969" /><path
             id="path96"
             style="fill:#231f20;fill-opacity:1;fill-rule:nonzero;stroke:none"
             d="m 339.391,39.3047 c -1.856,-1.9844 -6.289,-2.4024 -8.575,-3.7774 -1.621,-1.0156 -2.461,-2.2773 -2.461,-5.0976 0,-3.2344 1.141,-5.5195 4.559,-5.5195 3.301,0 6.477,2.8242 6.477,6.1211 z m -15.528,4.9219 c 0,7.3125 3.114,10.5468 10.789,10.5468 9.778,0 9.778,-5.8711 9.778,-9.2265 V 27.6133 c 0,-1.3164 0,-2.5781 1.562,-2.5781 0.653,0 0.957,0.1171 1.199,0.2929 v -3.5937 c -0.359,-0.0547 -1.679,-0.3008 -2.937,-0.3008 -1.926,0 -4.316,0 -4.563,4.1406 h -0.117 c -1.621,-2.8789 -4.734,-4.6211 -7.734,-4.6211 -5.996,0 -8.758,3.5977 -8.758,9.3594 0,4.5 1.922,7.6172 6.055,8.875 l 6.777,2.043 c 3.66,1.1289 3.66,2.1562 3.66,4.8515 0,2.9961 -1.797,4.7383 -5.156,4.7383 -5.516,0 -5.516,-5.1601 -5.516,-6.3008 v -0.2929 h -5.039" /><path
             id="path98"
             style="fill:#231f20;fill-opacity:1;fill-rule:nonzero;stroke:none"
             d="M 71.3594,275.773 V 136.879 H 367.465 V 275.773 H 71.3594" /><path
             id="path100"
             style="fill:#ffffff;fill-opacity:1;fill-rule:nonzero;stroke:none"
             d="m 116.473,232.355 v -1.257 c 0,-4.016 1.144,-6.594 5.703,-6.594 2.637,0 5.156,1.68 5.156,5.273 0,3.899 -1.98,5.344 -7.676,7.317 -7.676,2.644 -11.218,5.82 -11.218,12.957 0,8.332 5.097,12.59 13.261,12.59 7.676,0 13.25,-3.293 13.25,-11.516 v -1.191 h -8.281 c 0,4.015 -1.375,6.347 -4.676,6.347 -3.898,0 -4.914,-2.449 -4.914,-4.968 0,-2.637 0.781,-4.258 4.434,-5.821 l 6.66,-2.883 c 6.476,-2.812 8.156,-6.113 8.156,-11.328 0,-9.051 -5.519,-13.133 -14.875,-13.133 -9.773,0 -13.613,4.559 -13.613,12.469 v 1.738 h 8.633" /><path
             id="path102"
             style="fill:#ffffff;fill-opacity:1;fill-rule:nonzero;stroke:none"
             d="m 156.973,235.121 c -1.145,-0.84 -2.52,-1.379 -3.547,-1.621 -3.348,-0.723 -4.676,-2.336 -4.676,-5.215 0,-2.461 0.906,-4.504 3.125,-4.504 2.215,0 5.098,1.446 5.098,4.981 z m -15.118,6.231 v 0.781 c 0,7.441 5.098,9.961 11.336,9.961 9.836,0 11.692,-4.082 11.692,-9.903 v -16.964 c 0,-2.997 0.183,-4.383 1.023,-6.239 h -7.918 c -0.539,1.016 -0.781,2.274 -1.015,3.36 h -0.129 c -1.914,-3.36 -4.246,-4.2 -8.211,-4.2 -5.754,0 -7.793,4.922 -7.793,9.239 0,6.054 2.461,8.515 8.152,10.066 l 4.68,1.262 c 2.461,0.664 3.301,1.621 3.301,3.777 0,2.461 -1.086,3.957 -3.84,3.957 -2.52,0 -3.836,-1.679 -3.836,-4.191 v -0.906 h -7.442" /><path
             id="path104"
             style="fill:#ffffff;fill-opacity:1;fill-rule:nonzero;stroke:none"
             d="m 174.082,260.48 h 8.27 v -9.226 h 4.796 v -5.645 h -4.796 v -17.441 c 0,-2.52 0.539,-3.547 2.941,-3.547 0.664,0 1.316,0.059 1.855,0.129 v -5.762 c -1.796,-0.175 -3.476,-0.363 -5.39,-0.363 -6.485,0 -7.676,1.984 -7.676,8.516 v 18.468 h -4.199 v 5.645 h 4.199 v 9.226" /><path
             id="path106"
             style="fill:#ffffff;fill-opacity:1;fill-rule:nonzero;stroke:none"
             d="m 209.242,245.609 h -4.203 v 5.645 h 4.203 v 3.652 c 0,5.821 3.281,7.735 8.633,7.735 1.484,0 2.93,-0.059 4.434,-0.176 v -5.879 c -0.547,0.059 -1.075,0.059 -1.621,0.059 -2.344,0 -3.184,-0.715 -3.184,-2.579 v -2.812 h 4.805 v -5.645 h -4.805 v -26.621 h -8.262 v 26.621" /><path
             id="path108"
             style="fill:#ffffff;fill-opacity:1;fill-rule:nonzero;stroke:none"
             d="m 240.551,235.121 c -1.133,-0.84 -2.52,-1.379 -3.535,-1.621 -3.36,-0.723 -4.668,-2.336 -4.668,-5.215 0,-2.461 0.898,-4.504 3.105,-4.504 2.227,0 5.098,1.446 5.098,4.981 z m -15.117,6.231 v 0.781 c 0,7.441 5.097,9.961 11.347,9.961 9.824,0 11.68,-4.082 11.68,-9.903 v -16.964 c 0,-2.997 0.195,-4.383 1.035,-6.239 h -7.93 c -0.527,1.016 -0.781,2.274 -1.015,3.36 h -0.117 c -1.914,-3.36 -4.258,-4.2 -8.223,-4.2 -5.742,0 -7.793,4.922 -7.793,9.239 0,6.054 2.461,8.515 8.164,10.066 l 4.668,1.262 c 2.461,0.664 3.301,1.621 3.301,3.777 0,2.461 -1.074,3.957 -3.828,3.957 -2.52,0 -3.848,-1.679 -3.848,-4.191 v -0.906 h -7.441" /><path
             id="path110"
             style="fill:#ffffff;fill-opacity:1;fill-rule:nonzero;stroke:none"
             d="m 257.66,260.48 h 8.281 v -9.226 h 4.786 v -5.645 h -4.786 v -17.441 c 0,-2.52 0.528,-3.547 2.93,-3.547 0.664,0 1.328,0.059 1.856,0.129 v -5.762 c -1.797,-0.175 -3.477,-0.363 -5.391,-0.363 -6.465,0 -7.676,1.984 -7.676,8.516 v 18.468 h -4.199 v 5.645 h 4.199 v 9.226" /><path
             id="path112"
             style="fill:#ffffff;fill-opacity:1;fill-rule:nonzero;stroke:none"
             d="m 128.535,189.09 c 0,3.176 -1.445,7.187 -4.922,7.187 -4.199,0 -5.879,-4.316 -5.879,-14.992 0,-10.308 0.965,-16.785 5.938,-16.785 2.039,0 5.34,2.219 5.34,6.836 v 4.375 h -5.703 v 6.359 h 13.976 v -23.086 h -6.359 v 3.954 h -0.117 c -2.039,-3.36 -4.981,-4.793 -8.993,-4.793 -10.617,0 -12.714,7.918 -12.714,22.722 0,14.395 3.359,21.77 14.394,21.77 9.473,0 13.309,-4.856 13.309,-13.547 h -8.27" /><path
             id="path114"
             style="fill:#ffffff;fill-opacity:1;fill-rule:nonzero;stroke:none"
             d="m 144.141,191.246 h 7.918 v -4.312 h 0.117 c 1.679,3.113 4.023,5.156 7.441,5.156 0.481,0 1.016,-0.07 1.496,-0.129 v -7.91 c -0.84,0.058 -1.738,0.117 -2.578,0.117 -2.883,0 -6.113,-1.492 -6.113,-5.82 v -19.364 h -8.281 v 32.262" /><path
             id="path116"
             style="fill:#ffffff;fill-opacity:1;fill-rule:nonzero;stroke:none"
             d="m 180.672,175.113 c -1.141,-0.836 -2.52,-1.375 -3.543,-1.621 -3.352,-0.719 -4.668,-2.332 -4.668,-5.215 0,-2.457 0.898,-4.5 3.113,-4.5 2.219,0 5.098,1.446 5.098,4.981 z m -15.117,6.235 v 0.781 c 0,7.441 5.097,9.961 11.34,9.961 9.832,0 11.687,-4.082 11.687,-9.902 v -16.965 c 0,-2.996 0.188,-4.383 1.027,-6.239 h -7.921 c -0.536,1.012 -0.782,2.274 -1.016,3.36 h -0.125 c -1.914,-3.36 -4.258,-4.199 -8.215,-4.199 -5.75,0 -7.793,4.921 -7.793,9.238 0,6.055 2.461,8.515 8.156,10.066 l 4.676,1.262 c 2.461,0.66 3.301,1.617 3.301,3.777 0,2.461 -1.082,3.957 -3.836,3.957 -2.52,0 -3.84,-1.679 -3.84,-4.191 v -0.906 h -7.441" /><path
             id="path118"
             style="fill:#ffffff;fill-opacity:1;fill-rule:nonzero;stroke:none"
             d="m 202.039,169.539 v -1.086 c 0,-2.808 1.496,-4.676 4.316,-4.676 2.516,0 4.196,1.258 4.196,3.836 0,2.102 -1.387,3.059 -2.988,3.664 l -5.825,2.102 c -4.562,1.617 -6.894,4.434 -6.894,8.992 0,5.332 3.359,9.719 11.875,9.719 7.484,0 11.039,-3.36 11.039,-9.184 v -1.316 h -7.442 c 0,3.242 -0.957,4.855 -3.656,4.855 -2.101,0 -3.906,-1.191 -3.906,-3.476 0,-1.555 0.84,-2.871 3.601,-3.781 l 4.977,-1.68 c 5.215,-1.738 7.129,-4.375 7.129,-9.231 0,-6.773 -5.039,-10.132 -11.988,-10.132 -9.297,0 -11.875,4.082 -11.875,10.253 v 1.141 h 7.441" /><path
             id="path120"
             style="fill:#ffffff;fill-opacity:1;fill-rule:nonzero;stroke:none"
             d="m 246.078,169.539 v -1.086 c 0,-2.808 1.504,-4.676 4.317,-4.676 2.519,0 4.199,1.258 4.199,3.836 0,2.102 -1.387,3.059 -2.989,3.664 l -5.82,2.102 c -4.57,1.617 -6.894,4.434 -6.894,8.992 0,5.332 3.359,9.719 11.875,9.719 7.48,0 11.035,-3.36 11.035,-9.184 v -1.316 h -7.442 c 0,3.242 -0.957,4.855 -3.652,4.855 -2.109,0 -3.906,-1.191 -3.906,-3.476 0,-1.555 0.84,-2.871 3.594,-3.781 l 4.98,-1.68 c 5.215,-1.738 7.129,-4.375 7.129,-9.231 0,-6.773 -5.039,-10.132 -11.992,-10.132 -9.297,0 -11.875,4.082 -11.875,10.253 v 1.141 h 7.441" /><path
             id="path122"
             style="fill:#ffffff;fill-opacity:1;fill-rule:nonzero;stroke:none"
             d="m 283.207,175.113 c -1.133,-0.836 -2.519,-1.375 -3.535,-1.621 -3.359,-0.719 -4.668,-2.332 -4.668,-5.215 0,-2.457 0.898,-4.5 3.105,-4.5 2.227,0 5.098,1.446 5.098,4.981 z m -15.117,6.235 v 0.781 c 0,7.441 5.098,9.961 11.348,9.961 9.824,0 11.679,-4.082 11.679,-9.902 v -16.965 c 0,-2.996 0.196,-4.383 1.035,-6.239 h -7.929 c -0.528,1.012 -0.782,2.274 -1.016,3.36 h -0.117 c -1.914,-3.36 -4.258,-4.199 -8.223,-4.199 -5.742,0 -7.793,4.921 -7.793,9.238 0,6.055 2.461,8.515 8.164,10.066 l 4.668,1.262 c 2.461,0.66 3.301,1.617 3.301,3.777 0,2.461 -1.074,3.957 -3.828,3.957 -2.52,0 -3.848,-1.679 -3.848,-4.191 v -0.906 h -7.441" /><path
             id="path124"
             style="fill:#ffffff;fill-opacity:1;fill-rule:nonzero;stroke:none"
             d="m 300.316,200.477 h 8.282 v -9.231 h 4.785 v -5.641 h -4.785 V 168.16 c 0,-2.515 0.527,-3.543 2.929,-3.543 0.664,0 1.328,0.059 1.856,0.125 v -5.758 c -1.797,-0.175 -3.477,-0.363 -5.391,-0.363 -6.465,0 -7.676,1.984 -7.676,8.516 v 18.468 h -4.199 v 5.641 h 4.199 v 9.231" /><path
             id="path126"
             style="fill:#ffffff;fill-opacity:1;fill-rule:nonzero;stroke:none"
             d="m 326.176,168.34 v -9.356 h -7.91 v 9.356 h 7.91" /><path
             id="path128"
             style="fill:#231f20;fill-opacity:1;fill-rule:nonzero;stroke:none"
             d="M 104.434,337.746 C 94.6992,321.16 73.3477,315.602 56.7852,325.34 c -16.5821,9.734 -22.1446,31.101 -12.4102,47.683 9.7344,16.563 30.9219,22.082 47.6875,12.391 16.7615,-9.672 22.1255,-31.105 12.3715,-47.668 z m -6.6567,57.711 C 75.668,408.449 47.4805,401.094 34.4727,378.98 23.0977,359.352 27.4453,334.816 43.9648,320.594 L 25.3633,289.34 c -1.8477,-3.156 -0.6953,-7.219 2.539,-8.93 l 4.4649,-2.363 c 3.0742,-1.629 6.8867,-0.516 8.6016,2.516 l 17.6445,31.417 c 20.6758,-7.441 44.2107,0.704 55.6407,20.172 12.973,22.11 5.652,50.317 -16.4767,63.305" /></g></g></g></g></svg>