<?xml version="1.0" encoding="UTF-8" standalone="no"?>
<svg
   xmlns:dc="http://purl.org/dc/elements/1.1/"
   xmlns:cc="http://creativecommons.org/ns#"
   xmlns:rdf="http://www.w3.org/1999/02/22-rdf-syntax-ns#"
   xmlns:svg="http://www.w3.org/2000/svg"
   xmlns="http://www.w3.org/2000/svg"
   viewBox="0 0 51.779732 56.694795"
   height="56.694798"
   width="51.779732"
   xml:space="preserve"
   id="svg2"
   version="1.1"><metadata
     id="metadata8"><rdf:RDF><cc:Work
         rdf:about=""><dc:format>image/svg+xml</dc:format><dc:type
           rdf:resource="http://purl.org/dc/dcmitype/StillImage" /></cc:Work></rdf:RDF></metadata><defs
     id="defs6"><clipPath
       id="clipPath20"
       clipPathUnits="userSpaceOnUse"><path
         id="path18"
         d="M 0,0 H 388.348 V 425.211 H 0 Z" /></clipPath></defs><g
     transform="matrix(1.3333333,0,0,-1.3333333,0,56.694799)"
     id="g10"><g
       transform="scale(0.1)"
       id="g12"><g
         id="g14"><g
           clip-path="url(#clipPath20)"
           id="g16"><path
             id="path22"
             style="fill:#ffffff;fill-opacity:1;fill-rule:nonzero;stroke:none"
             d="M 2.5,2.50391 V 422.711 H 385.852 V 2.50391 H 2.5" /><path
             id="path24"
             style="fill:#231f20;fill-opacity:1;fill-rule:nonzero;stroke:none"
             d="M 388.348,425.211 H 0 V 0 h 388.348 z m -5,-5 V 5 H 5 v 415.211 h 378.348" /><path
             id="path26"
             style="fill:#231f20;fill-opacity:1;fill-rule:nonzero;stroke:none"
             d="m 138.664,401.391 h 8.633 v -16.368 h 10.078 v 16.368 h 8.633 v -42.813 h -8.633 v 19.012 h -10.078 v -19.012 h -8.633 v 42.813" /><path
             id="path28"
             style="fill:#231f20;fill-opacity:1;fill-rule:nonzero;stroke:none"
             d="m 173.281,390.844 h 8.282 v -32.266 h -8.282 z m 0,11.035 h 8.282 v -7.082 h -8.282 v 7.082" /><path
             id="path30"
             style="fill:#231f20;fill-opacity:1;fill-rule:nonzero;stroke:none"
             d="m 200.332,365.297 c 3.477,0 4.504,3.777 4.504,9.226 0,7.864 -1.027,10.801 -4.328,10.801 -3.653,0 -4.317,-2.937 -4.317,-11.64 0,-4.434 0.664,-8.387 4.141,-8.387 z m 12.414,25.547 v -30.645 c 0,-8.515 -3.781,-12.656 -13.43,-12.656 -7.019,0 -10.976,3.113 -10.976,8.633 h 7.91 c 0,-1.074 0.488,-1.914 1.262,-2.453 0.781,-0.547 1.746,-0.899 2.761,-0.899 3.36,0 4.563,2.512 4.563,5.813 v 4.258 h -0.129 c -1.68,-2.395 -4.258,-3.957 -6.894,-3.957 -6.59,0 -9.891,4.492 -9.891,16.308 0,7.559 1.141,16.438 10.137,16.438 2.273,0 5.097,-1.086 6.648,-4.446 h 0.129 v 3.606 h 7.91" /><path
             id="path32"
             style="fill:#231f20;fill-opacity:1;fill-rule:nonzero;stroke:none"
             d="m 219.777,401.391 h 8.282 v -13.848 h 0.117 c 1.562,2.754 4.375,4.141 7.859,4.141 5.156,0 8.215,-2.825 8.215,-9.18 v -23.926 h -8.281 v 22.246 c 0,3.242 -1.074,4.5 -3.535,4.5 -2.813,0 -4.375,-1.738 -4.375,-5.34 v -21.406 h -8.282 v 42.813" /><path
             id="path34"
             style="fill:#231f20;fill-opacity:1;fill-rule:nonzero;stroke:none"
             d="m 266.875,390.844 h 8.281 v -32.266 h -8.281 z m 0,11.035 h 8.281 v -7.082 h -8.281 v 7.082" /><path
             id="path36"
             style="fill:#231f20;fill-opacity:1;fill-rule:nonzero;stroke:none"
             d="m 282.18,390.844 h 7.918 v -3.781 h 0.117 c 1.738,3.175 4.738,4.621 8.223,4.621 5.156,0 8.214,-2.825 8.214,-9.18 v -23.926 h -8.281 v 22.246 c 0,3.242 -1.074,4.5 -3.535,4.5 -2.813,0 -4.375,-1.738 -4.375,-5.34 v -21.406 h -8.281 v 32.266" /><path
             id="path38"
             style="fill:#231f20;fill-opacity:1;fill-rule:nonzero;stroke:none"
             d="m 150.176,352.551 h 8.273 l -5.871,-8.641 h -5.644 z m 12.414,-11.16 v -7.071 h -15.293 v -10.078 h 14.394 v -7.07 h -14.394 v -11.516 h 15.898 v -7.078 h -24.531 v 42.813 h 23.926" /><path
             id="path40"
             style="fill:#231f20;fill-opacity:1;fill-rule:nonzero;stroke:none"
             d="m 168.781,341.391 h 8.282 v -42.813 h -8.282 v 42.813" /><path
             id="path42"
             style="fill:#231f20;fill-opacity:1;fill-rule:nonzero;stroke:none"
             d="m 199.609,318.363 c -0.183,4.922 -0.781,7.676 -4.199,7.676 -3.301,0 -4.258,-3.418 -4.258,-6.418 v -1.258 z m -8.457,-4.914 v -2.578 c 0,-3.777 1.016,-7.5 4.082,-7.5 2.754,0 3.899,2.102 4.375,6.055 h 7.434 c -0.293,-7.488 -3.898,-11.688 -11.691,-11.688 -11.993,0 -12.469,9.239 -12.469,17.274 0,8.633 1.68,16.672 12.832,16.672 9.648,0 11.805,-6.485 11.805,-16.379 v -1.856 h -16.368" /><path
             id="path44"
             style="fill:#231f20;fill-opacity:1;fill-rule:nonzero;stroke:none"
             d="m 228.352,330.844 h 8.281 l -8.098,-32.266 h -9.597 l -8.333,32.266 h 8.633 l 4.621,-23.086 h 0.118 l 4.375,23.086" /><path
             id="path46"
             style="fill:#231f20;fill-opacity:1;fill-rule:nonzero;stroke:none"
             d="m 251.398,343.254 h 8.27 l -5.867,-8.633 h -5.645 z m 5.04,-24.891 c -0.188,4.922 -0.782,7.676 -4.2,7.676 -3.3,0 -4.258,-3.418 -4.258,-6.418 v -1.258 z m -8.458,-4.914 v -2.578 c 0,-3.777 1.016,-7.5 4.083,-7.5 2.753,0 3.894,2.102 4.375,6.055 h 7.429 c -0.293,-7.488 -3.894,-11.688 -11.687,-11.688 -11.992,0 -12.473,9.239 -12.473,17.274 0,8.633 1.68,16.672 12.832,16.672 9.649,0 11.809,-6.485 11.809,-16.379 v -1.856 H 247.98" /><path
             id="path48"
             style="fill:#231f20;fill-opacity:1;fill-rule:nonzero;stroke:none"
             d="m 301.016,318.363 c -0.184,4.922 -0.782,7.676 -4.2,7.676 -3.3,0 -4.257,-3.418 -4.257,-6.418 v -1.258 z m -8.457,-4.914 v -2.578 c 0,-3.777 1.015,-7.5 4.082,-7.5 2.754,0 3.898,2.102 4.375,6.055 h 7.433 c -0.293,-7.488 -3.898,-11.688 -11.691,-11.688 -11.992,0 -12.469,9.239 -12.469,17.274 0,8.633 1.68,16.672 12.832,16.672 9.649,0 11.805,-6.485 11.805,-16.379 v -1.856 h -16.367" /><path
             id="path50"
             style="fill:#231f20;fill-opacity:1;fill-rule:nonzero;stroke:none"
             d="m 314.453,330.844 h 7.922 v -3.781 h 0.117 c 1.738,3.175 4.735,4.621 8.223,4.621 5.156,0 8.211,-2.825 8.211,-9.18 v -23.926 h -8.281 v 22.246 c 0,3.242 -1.075,4.5 -3.536,4.5 -2.812,0 -4.375,-1.738 -4.375,-5.34 v -21.406 h -8.281 v 32.266" /><path
             id="path52"
             style="fill:#231f20;fill-opacity:1;fill-rule:nonzero;stroke:none"
             d="M 59.1797,81.7969 H 53.9063 V 102.422 H 39.2188 V 81.7969 h -5.2813 v 42.8121 h 5.2813 v -17.511 h 14.6875 v 17.511 h 5.2734 V 81.7969" /><path
             id="path54"
             style="fill:#231f20;fill-opacity:1;fill-rule:nonzero;stroke:none"
             d="m 81.8086,101.23 v 1.739 c 0,3.594 -1.1445,7.851 -5.5781,7.851 -5.2813,0 -5.8789,-6.476 -5.8789,-8.398 V 101.23 Z M 70.1758,97.2656 c 0,-4.914 0,-12.3554 6.1719,-12.3554 4.7968,0 5.4609,5.039 5.4609,7.4414 h 5.0391 c 0,-3.418 -2.043,-11.3985 -10.8008,-11.3985 -7.8516,0 -11.1524,5.461 -11.1524,16.4961 0,8.0388 1.5625,17.3238 11.4532,17.3238 9.8359,0 10.7343,-8.574 10.7343,-15.4683 V 97.2656 H 70.1758" /><path
             id="path56"
             style="fill:#231f20;fill-opacity:1;fill-rule:nonzero;stroke:none"
             d="m 107.363,99.3047 c -1.855,-1.9844 -6.289,-2.4024 -8.5739,-3.7774 -1.6211,-1.0156 -2.461,-2.2773 -2.461,-5.0976 0,-3.2344 1.1446,-5.5195 4.5629,-5.5195 3.3,0 6.472,2.8242 6.472,6.1211 z m -15.5271,4.9223 c 0,7.312 3.1172,10.546 10.7931,10.546 9.773,0 9.773,-5.867 9.773,-9.226 V 87.6133 c 0,-1.3164 0,-2.5781 1.563,-2.5781 0.656,0 0.957,0.1211 1.203,0.2929 v -3.5898 c -0.363,-0.0586 -1.68,-0.3047 -2.941,-0.3047 -1.922,0 -4.317,0 -4.559,4.1406 h -0.117 c -1.621,-2.8789 -4.738,-4.6211 -7.7346,-4.6211 -5.9961,0 -8.7617,3.5977 -8.7617,9.3594 0,4.5 1.9258,7.6172 6.0547,8.875 l 6.7776,2.0425 c 3.664,1.133 3.664,2.157 3.664,4.852 0,2.996 -1.797,4.738 -5.156,4.738 -5.52,0 -5.52,-5.16 -5.52,-6.3 v -0.293 h -5.0391" /><path
             id="path58"
             style="fill:#231f20;fill-opacity:1;fill-rule:nonzero;stroke:none"
             d="m 119.551,124.609 h 5.039 V 81.7969 h -5.039 v 42.8121" /><path
             id="path60"
             style="fill:#231f20;fill-opacity:1;fill-rule:nonzero;stroke:none"
             d="m 132.988,123.289 h 5.039 v -9.355 h 5.578 v -3.954 h -5.578 V 89.3555 c 0,-2.5782 0.664,-3.6055 3.301,-3.6055 1.074,0 1.68,0.1289 2.219,0.1875 v -4.1406 c -0.664,-0.1172 -1.984,-0.3633 -4.082,-0.3633 -5.215,0 -6.477,2.1602 -6.477,6.3555 V 109.98 h -4.675 v 3.954 h 4.675 v 9.355" /><path
             id="path62"
             style="fill:#231f20;fill-opacity:1;fill-rule:nonzero;stroke:none"
             d="m 147.043,124.609 h 5.039 v -14.328 h 0.117 c 1.317,2.637 4.852,4.492 7.735,4.492 8.269,0 8.269,-6.414 8.269,-10.195 V 81.7969 h -5.027 v 22.1871 c 0,2.461 -0.188,6.473 -4.746,6.473 -2.696,0 -6.348,-1.797 -6.348,-6.473 V 81.7969 h -5.039 v 42.8121" /><path
             id="path64"
             style="fill:#231f20;fill-opacity:1;fill-rule:nonzero;stroke:none"
             d="m 215.605,96.4844 c -0.488,-8.0977 -3.66,-15.5313 -13.015,-15.5313 -12.168,0 -13.789,11.4571 -13.789,22.2459 0,10.805 1.972,22.246 13.789,22.246 8.758,0 12.41,-4.91 12.656,-13.308 h -5.519 c -0.118,4.863 -1.68,8.996 -7.137,8.996 -7.317,0 -8.274,-8.039 -8.274,-17.934 0,-9.8904 0.957,-17.9256 8.274,-17.9256 6.414,0 7.312,5.9961 7.5,11.211 h 5.515" /><path
             id="path66"
             style="fill:#231f20;fill-opacity:1;fill-rule:nonzero;stroke:none"
             d="m 235.098,99.3047 c -1.856,-1.9844 -6.289,-2.4024 -8.575,-3.7774 -1.621,-1.0156 -2.46,-2.2773 -2.46,-5.0976 0,-3.2344 1.144,-5.5195 4.562,-5.5195 3.301,0 6.473,2.8242 6.473,6.1211 z m -15.528,4.9223 c 0,7.312 3.118,10.546 10.793,10.546 9.774,0 9.774,-5.867 9.774,-9.226 V 87.6133 c 0,-1.3164 0,-2.5781 1.562,-2.5781 0.656,0 0.957,0.1211 1.203,0.2929 v -3.5898 c -0.363,-0.0586 -1.679,-0.3047 -2.941,-0.3047 -1.922,0 -4.316,0 -4.559,4.1406 h -0.117 c -1.621,-2.8789 -4.738,-4.6211 -7.734,-4.6211 -5.996,0 -8.762,3.5977 -8.762,9.3594 0,4.5 1.926,7.6172 6.055,8.875 l 6.777,2.0425 c 3.664,1.133 3.664,2.157 3.664,4.852 0,2.996 -1.797,4.738 -5.156,4.738 -5.52,0 -5.52,-5.16 -5.52,-6.3 v -0.293 h -5.039" /><path
             id="path68"
             style="fill:#231f20;fill-opacity:1;fill-rule:nonzero;stroke:none"
             d="m 246.992,113.934 h 4.797 v -3.77 h 0.117 c 1.317,2.93 4.676,4.609 7.801,4.609 8.449,0 8.449,-6.414 8.449,-10.195 V 81.7969 h -5.031 v 22.1871 c 0,2.461 -0.184,6.473 -4.746,6.473 -2.695,0 -6.348,-1.797 -6.348,-6.473 V 81.7969 h -5.039 v 32.1371" /><path
             id="path70"
             style="fill:#231f20;fill-opacity:1;fill-rule:nonzero;stroke:none"
             d="m 289.523,99.3047 c -1.855,-1.9844 -6.289,-2.4024 -8.574,-3.7774 -1.621,-1.0156 -2.461,-2.2773 -2.461,-5.0976 0,-3.2344 1.141,-5.5195 4.559,-5.5195 3.301,0 6.476,2.8242 6.476,6.1211 z m -15.527,4.9223 c 0,7.312 3.113,10.546 10.789,10.546 9.778,0 9.778,-5.867 9.778,-9.226 V 87.6133 c 0,-1.3164 0,-2.5781 1.562,-2.5781 0.652,0 0.957,0.1211 1.199,0.2929 v -3.5898 c -0.359,-0.0586 -1.679,-0.3047 -2.937,-0.3047 -1.926,0 -4.317,0 -4.563,4.1406 h -0.117 c -1.621,-2.8789 -4.734,-4.6211 -7.734,-4.6211 -5.996,0 -8.758,3.5977 -8.758,9.3594 0,4.5 1.922,7.6172 6.055,8.875 l 6.777,2.0425 c 3.66,1.133 3.66,2.157 3.66,4.852 0,2.996 -1.797,4.738 -5.156,4.738 -5.516,0 -5.516,-5.16 -5.516,-6.3 v -0.293 h -5.039" /><path
             id="path72"
             style="fill:#231f20;fill-opacity:1;fill-rule:nonzero;stroke:none"
             d="m 311.367,85.2734 c 5.578,0 6.477,5.2813 6.477,12.5938 0,6.2348 -1.074,12.5898 -6.477,12.5898 -4.676,0 -5.879,-4.91 -5.879,-12.5898 0,-7.6719 1.203,-12.5938 5.879,-12.5938 z m 11.211,-3.4765 h -4.793 V 85.75 h -0.117 c -0.664,-2.3906 -3.477,-4.7969 -6.953,-4.7969 -7.617,0 -10.5,6.7813 -10.5,16.9141 0,6.7108 1.074,16.9058 10.137,16.9058 2.871,0 5.937,-1.738 7.07,-4.492 h 0.129 v 14.328 h 5.027 V 81.7969" /><path
             id="path74"
             style="fill:#231f20;fill-opacity:1;fill-rule:nonzero;stroke:none"
             d="m 343.938,99.3047 c -1.856,-1.9844 -6.29,-2.4024 -8.575,-3.7774 -1.621,-1.0156 -2.461,-2.2773 -2.461,-5.0976 0,-3.2344 1.141,-5.5195 4.559,-5.5195 3.301,0 6.477,2.8242 6.477,6.1211 z m -15.528,4.9223 c 0,7.312 3.113,10.546 10.789,10.546 9.778,0 9.778,-5.867 9.778,-9.226 V 87.6133 c 0,-1.3164 0,-2.5781 1.562,-2.5781 0.652,0 0.957,0.1211 1.199,0.2929 v -3.5898 c -0.359,-0.0586 -1.679,-0.3047 -2.937,-0.3047 -1.926,0 -4.317,0 -4.563,4.1406 h -0.117 c -1.621,-2.8789 -4.734,-4.6211 -7.734,-4.6211 -5.996,0 -8.758,3.5977 -8.758,9.3594 0,4.5 1.922,7.6172 6.055,8.875 l 6.777,2.0425 c 3.66,1.133 3.66,2.157 3.66,4.852 0,2.996 -1.797,4.738 -5.156,4.738 -5.516,0 -5.516,-5.16 -5.516,-6.3 v -0.293 h -5.039" /><path
             id="path76"
             style="fill:#231f20;fill-opacity:1;fill-rule:nonzero;stroke:none"
             d="m 59.3359,53.5156 c 0,4.5 -1.6211,7.6172 -6.6601,7.6172 -4.4336,0 -7.0703,-2.3945 -7.0703,-6.9531 0,-12.0508 20.207,-4.8555 20.207,-20.5078 0,-9.8946 -7.2578,-12.7188 -13.3125,-12.7188 -10.0195,0 -12.957,5.1602 -12.957,14.2696 h 5.2812 c 0,-4.793 0.293,-9.9493 8.0391,-9.9493 4.1875,0 7.4297,2.9961 7.4297,7.5547 0,12.1133 -20.2032,5.1016 -20.2032,20.8125 0,3.9571 1.6797,11.8047 12.5274,11.8047 8.1562,0 11.875,-4.0703 11.9922,-11.9297 h -5.2735" /><path
             id="path78"
             style="fill:#231f20;fill-opacity:1;fill-rule:nonzero;stroke:none"
             d="m 85.7344,39.3047 c -1.8555,-1.9844 -6.2891,-2.4024 -8.5742,-3.7774 -1.6211,-1.0156 -2.461,-2.2773 -2.461,-5.0976 0,-3.2344 1.1406,-5.5195 4.5586,-5.5195 3.3008,0 6.4766,2.8242 6.4766,6.1211 z M 70.207,44.2266 c 0,7.3125 3.1133,10.5468 10.7891,10.5468 9.7773,0 9.7773,-5.8671 9.7773,-9.2265 V 27.6133 c 0,-1.3164 0,-2.5781 1.5625,-2.5781 0.6524,0 0.9571,0.1211 1.1993,0.2929 v -3.5898 c -0.3594,-0.0586 -1.6797,-0.3047 -2.9375,-0.3047 -1.9258,0 -4.3164,0 -4.5625,4.1406 H 85.918 c -1.6211,-2.8789 -4.7344,-4.6211 -7.7344,-4.6211 -5.9961,0 -8.7578,3.5977 -8.7578,9.3594 0,4.5 1.9219,7.6172 6.0547,8.875 l 6.7773,2.043 c 3.6602,1.1328 3.6602,2.1562 3.6602,4.8515 0,2.9961 -1.7969,4.7383 -5.1563,4.7383 -5.5156,0 -5.5156,-5.1601 -5.5156,-6.3008 V 44.2266 H 70.207" /><path
             id="path80"
             style="fill:#231f20;fill-opacity:1;fill-rule:nonzero;stroke:none"
             d="m 97.6289,53.9336 h 4.7931 v -3.7695 h 0.117 c 1.32,2.9297 4.68,4.6093 7.805,4.6093 8.445,0 8.445,-6.414 8.445,-10.1953 V 21.7969 h -5.027 v 22.1875 c 0,2.4609 -0.188,6.4726 -4.746,6.4726 -2.696,0 -6.348,-1.7968 -6.348,-6.4726 V 21.7969 h -5.0391 v 32.1367" /><path
             id="path82"
             style="fill:#231f20;fill-opacity:1;fill-rule:nonzero;stroke:none"
             d="m 126.895,63.2891 h 5.039 v -9.3555 h 5.578 v -3.9531 h -5.578 v -20.625 c 0,-2.5782 0.664,-3.6055 3.3,-3.6055 1.075,0 1.68,0.1289 2.219,0.1875 v -4.1406 c -0.664,-0.1172 -1.984,-0.3633 -4.082,-0.3633 -5.215,0 -6.476,2.1602 -6.476,6.3555 v 22.1914 h -4.676 v 3.9531 h 4.676 v 9.3555" /><path
             id="path84"
             style="fill:#231f20;fill-opacity:1;fill-rule:nonzero;stroke:none"
             d="m 152.16,66.8945 h 5.879 l -6.476,-8.5156 h -3.602 z m 4.617,-25.664 v 1.7383 c 0,3.5937 -1.14,7.8515 -5.574,7.8515 -5.285,0 -5.879,-6.4765 -5.879,-8.3984 v -1.1914 z m -11.629,-3.9649 c 0,-4.914 0,-12.3554 6.172,-12.3554 4.793,0 5.457,5.039 5.457,7.4414 h 5.039 c 0,-3.418 -2.039,-11.3985 -10.8,-11.3985 -7.852,0 -11.153,5.461 -11.153,16.4961 0,8.0391 1.563,17.3242 11.457,17.3242 9.832,0 10.731,-8.5742 10.731,-15.4687 v -2.0391 h -16.903" /><path
             id="path86"
             style="fill:#231f20;fill-opacity:1;fill-rule:nonzero;stroke:none"
             d="m 208.371,36.4844 c -0.488,-8.0977 -3.664,-15.5313 -13.019,-15.5313 -12.168,0 -13.789,11.4571 -13.789,22.2461 0,10.8047 1.972,22.2461 13.789,22.2461 8.761,0 12.414,-4.9101 12.656,-13.3086 h -5.516 c -0.117,4.8633 -1.679,8.9961 -7.14,8.9961 -7.313,0 -8.27,-8.039 -8.27,-17.9336 0,-9.8906 0.957,-17.9258 8.27,-17.9258 6.418,0 7.316,5.9961 7.5,11.211 h 5.519" /><path
             id="path88"
             style="fill:#231f20;fill-opacity:1;fill-rule:nonzero;stroke:none"
             d="m 227.871,39.3047 c -1.855,-1.9844 -6.289,-2.4024 -8.574,-3.7774 -1.621,-1.0156 -2.461,-2.2773 -2.461,-5.0976 0,-3.2344 1.144,-5.5195 4.562,-5.5195 3.301,0 6.473,2.8242 6.473,6.1211 z m -15.527,4.9219 c 0,7.3125 3.117,10.5468 10.793,10.5468 9.773,0 9.773,-5.8671 9.773,-9.2265 V 27.6133 c 0,-1.3164 0,-2.5781 1.563,-2.5781 0.656,0 0.957,0.1211 1.203,0.2929 v -3.5898 c -0.363,-0.0586 -1.68,-0.3047 -2.942,-0.3047 -1.921,0 -4.316,0 -4.558,4.1406 h -0.117 c -1.621,-2.8789 -4.739,-4.6211 -7.735,-4.6211 -5.996,0 -8.761,3.5977 -8.761,9.3594 0,4.5 1.925,7.6172 6.054,8.875 l 6.778,2.043 c 3.664,1.1328 3.664,2.1562 3.664,4.8515 0,2.9961 -1.797,4.7383 -5.157,4.7383 -5.519,0 -5.519,-5.1601 -5.519,-6.3008 v -0.2929 h -5.039" /><path
             id="path90"
             style="fill:#231f20;fill-opacity:1;fill-rule:nonzero;stroke:none"
             d="m 239.766,53.9336 h 4.797 v -3.7695 h 0.117 c 1.316,2.9297 4.675,4.6093 7.8,4.6093 8.45,0 8.45,-6.414 8.45,-10.1953 V 21.7969 h -5.032 v 22.1875 c 0,2.4609 -0.183,6.4726 -4.746,6.4726 -2.695,0 -6.347,-1.7968 -6.347,-6.4726 V 21.7969 h -5.039 v 32.1367" /><path
             id="path92"
             style="fill:#231f20;fill-opacity:1;fill-rule:nonzero;stroke:none"
             d="m 282.285,39.3047 c -1.855,-1.9844 -6.289,-2.4024 -8.574,-3.7774 -1.621,-1.0156 -2.461,-2.2773 -2.461,-5.0976 0,-3.2344 1.145,-5.5195 4.563,-5.5195 3.3,0 6.472,2.8242 6.472,6.1211 z m -15.527,4.9219 c 0,7.3125 3.117,10.5468 10.793,10.5468 9.773,0 9.773,-5.8671 9.773,-9.2265 V 27.6133 c 0,-1.3164 0,-2.5781 1.563,-2.5781 0.656,0 0.957,0.1211 1.203,0.2929 v -3.5898 c -0.363,-0.0586 -1.68,-0.3047 -2.942,-0.3047 -1.921,0 -4.316,0 -4.558,4.1406 h -0.117 c -1.621,-2.8789 -4.739,-4.6211 -7.735,-4.6211 -5.996,0 -8.761,3.5977 -8.761,9.3594 0,4.5 1.925,7.6172 6.054,8.875 l 6.778,2.043 c 3.664,1.1328 3.664,2.1562 3.664,4.8515 0,2.9961 -1.797,4.7383 -5.157,4.7383 -5.519,0 -5.519,-5.1601 -5.519,-6.3008 v -0.2929 h -5.039" /><path
             id="path94"
             style="fill:#231f20;fill-opacity:1;fill-rule:nonzero;stroke:none"
             d="m 304.133,25.2734 c 5.574,0 6.472,5.2813 6.472,12.5938 0,6.2344 -1.074,12.5898 -6.472,12.5898 -4.68,0 -5.879,-4.9101 -5.879,-12.5898 0,-7.6719 1.199,-12.5938 5.879,-12.5938 z m 11.211,-3.4765 h -4.797 V 25.75 h -0.117 c -0.664,-2.3906 -3.477,-4.7969 -6.953,-4.7969 -7.618,0 -10.497,6.7813 -10.497,16.9141 0,6.7109 1.075,16.9062 10.137,16.9062 2.871,0 5.938,-1.7382 7.071,-4.4921 h 0.125 v 14.3281 h 5.031 V 21.7969" /><path
             id="path96"
             style="fill:#231f20;fill-opacity:1;fill-rule:nonzero;stroke:none"
             d="m 336.711,39.3047 c -1.856,-1.9844 -6.289,-2.4024 -8.574,-3.7774 -1.621,-1.0156 -2.461,-2.2773 -2.461,-5.0976 0,-3.2344 1.14,-5.5195 4.558,-5.5195 3.301,0 6.477,2.8242 6.477,6.1211 z m -15.527,4.9219 c 0,7.3125 3.113,10.5468 10.789,10.5468 9.777,0 9.777,-5.8671 9.777,-9.2265 V 27.6133 c 0,-1.3164 0,-2.5781 1.563,-2.5781 0.652,0 0.957,0.1211 1.199,0.2929 v -3.5898 c -0.36,-0.0586 -1.68,-0.3047 -2.938,-0.3047 -1.926,0 -4.316,0 -4.562,4.1406 h -0.117 c -1.622,-2.8789 -4.735,-4.6211 -7.735,-4.6211 -5.996,0 -8.758,3.5977 -8.758,9.3594 0,4.5 1.922,7.6172 6.055,8.875 l 6.777,2.043 c 3.661,1.1328 3.661,2.1562 3.661,4.8515 0,2.9961 -1.797,4.7383 -5.157,4.7383 -5.515,0 -5.515,-5.1601 -5.515,-6.3008 v -0.2929 h -5.039" /><path
             id="path98"
             style="fill:#231f20;fill-opacity:1;fill-rule:nonzero;stroke:none"
             d="M 71.3594,275.773 V 136.879 H 367.465 V 275.773 H 71.3594" /><path
             id="path100"
             style="fill:#ffffff;fill-opacity:1;fill-rule:nonzero;stroke:none"
             d="m 116.477,204.277 v -1.261 c 0,-4.012 1.14,-6.59 5.703,-6.59 2.636,0 5.156,1.679 5.156,5.269 0,3.899 -1.984,5.344 -7.676,7.317 -7.676,2.644 -11.222,5.82 -11.222,12.961 0,8.328 5.097,12.586 13.261,12.586 7.676,0 13.254,-3.289 13.254,-11.512 v -1.192 h -8.281 c 0,4.012 -1.379,6.344 -4.68,6.344 -3.894,0 -4.91,-2.449 -4.91,-4.969 0,-2.636 0.781,-4.257 4.434,-5.82 l 6.66,-2.879 c 6.472,-2.812 8.152,-6.117 8.152,-11.332 0,-9.051 -5.515,-13.133 -14.871,-13.133 -9.777,0 -13.613,4.563 -13.613,12.469 v 1.742 h 8.633" /><path
             id="path102"
             style="fill:#ffffff;fill-opacity:1;fill-rule:nonzero;stroke:none"
             d="m 153.566,195.699 c 3.36,0 4.434,3.305 4.434,11.34 0,8.035 -1.074,11.328 -4.434,11.328 -4.082,0 -4.445,-4.734 -4.445,-11.328 0,-6.601 0.363,-11.34 4.445,-11.34 z m 0,28.313 c 9.95,0.176 12.715,-5.762 12.715,-16.973 0,-11.035 -3.242,-16.973 -12.715,-16.973 -9.961,-0.175 -12.714,5.762 -12.714,16.973 0,11.035 3.242,16.973 12.714,16.973" /><path
             id="path104"
             style="fill:#ffffff;fill-opacity:1;fill-rule:nonzero;stroke:none"
             d="m 184.043,196.426 c 3.664,0 4.375,3.594 4.375,10.613 0,7.012 -0.711,10.617 -4.375,10.617 -3.594,0 -4.316,-3.605 -4.316,-10.617 0,-7.019 0.722,-10.613 4.316,-10.613 z m 4.738,-2.102 h -0.117 c -1.797,-3 -4.082,-4.258 -7.316,-4.258 -6.778,0 -9.891,4.981 -9.891,16.973 0,11.992 3.113,16.973 9.891,16.973 3.117,0 5.215,-1.258 6.953,-3.836 h 0.117 v 13.543 h 8.281 v -42.813 h -7.918 v 3.418" /><path
             id="path106"
             style="fill:#ffffff;fill-opacity:1;fill-rule:nonzero;stroke:none"
             d="m 204.043,223.172 h 8.281 v -32.266 h -8.281 z m 0,11.035 h 8.281 v -7.078 h -8.281 v 7.078" /><path
             id="path108"
             style="fill:#ffffff;fill-opacity:1;fill-rule:nonzero;stroke:none"
             d="m 236.191,194.688 h -0.117 c -1.738,-3.184 -4.734,-4.622 -8.211,-4.622 -5.156,0 -8.222,2.825 -8.222,9.18 v 23.926 h 8.281 v -22.258 c 0,-3.23 1.074,-4.488 3.535,-4.488 2.82,0 4.375,1.734 4.375,5.332 v 21.414 h 8.281 v -32.266 h -7.922 v 3.782" /><path
             id="path110"
             style="fill:#ffffff;fill-opacity:1;fill-rule:nonzero;stroke:none"
             d="m 251.152,223.172 h 7.922 v -3.301 h 0.117 c 2.098,2.942 4.676,4.141 8.153,4.141 3.781,0 6.543,-1.864 7.441,-5.157 h 0.117 c 1.262,3.418 4.258,5.157 8.157,5.157 5.457,0 8.035,-3.418 8.035,-9.657 v -23.449 h -8.27 v 22.547 c 0,2.699 -0.898,4.203 -3.242,4.203 -2.637,0 -4.316,-1.808 -4.316,-5.519 v -21.231 h -8.274 v 22.547 c 0,2.699 -0.906,4.203 -3.242,4.203 -2.637,0 -4.316,-1.808 -4.316,-5.519 v -21.231 h -8.282 v 32.266" /><path
             id="path112"
             style="fill:#231f20;fill-opacity:1;fill-rule:nonzero;stroke:none"
             d="M 104.434,337.746 C 94.6992,321.164 73.3477,315.602 56.7852,325.34 c -16.5821,9.73 -22.1446,31.101 -12.4102,47.683 9.7344,16.563 30.9219,22.082 47.6875,12.391 16.7615,-9.672 22.1255,-31.105 12.3715,-47.668 z m -6.6567,57.711 C 75.668,408.449 47.4805,401.094 34.4727,378.98 23.0977,359.352 27.4453,334.816 43.9648,320.594 L 25.3633,289.34 c -1.8477,-3.156 -0.6953,-7.219 2.539,-8.93 l 4.4649,-2.363 c 3.0742,-1.629 6.8867,-0.516 8.6016,2.516 l 17.6445,31.417 c 20.6758,-7.441 44.2107,0.704 55.6407,20.172 12.973,22.11 5.652,50.317 -16.4767,63.305" /></g></g></g></g></svg>