<?xml version="1.0" encoding="UTF-8" standalone="no"?>
<svg
   xmlns:dc="http://purl.org/dc/elements/1.1/"
   xmlns:cc="http://creativecommons.org/ns#"
   xmlns:rdf="http://www.w3.org/1999/02/22-rdf-syntax-ns#"
   xmlns:svg="http://www.w3.org/2000/svg"
   xmlns="http://www.w3.org/2000/svg"
   viewBox="0 0 51.779732 98.267727"
   height="98.267731"
   width="51.779732"
   xml:space="preserve"
   id="svg2"
   version="1.1"><metadata
     id="metadata8"><rdf:RDF><cc:Work
         rdf:about=""><dc:format>image/svg+xml</dc:format><dc:type
           rdf:resource="http://purl.org/dc/dcmitype/StillImage" /></cc:Work></rdf:RDF></metadata><defs
     id="defs6"><clipPath
       id="clipPath20"
       clipPathUnits="userSpaceOnUse"><path
         id="path18"
         d="M 0,0 H 388.348 V 737.008 H 0 Z" /></clipPath></defs><g
     transform="matrix(1.3333333,0,0,-1.3333333,0,98.267731)"
     id="g10"><g
       transform="scale(0.1)"
       id="g12"><g
         id="g14"><g
           clip-path="url(#clipPath20)"
           id="g16"><path
             id="path22"
             style="fill:#ffffff;fill-opacity:1;fill-rule:nonzero;stroke:none"
             d="M 2.50391,2.5 V 734.508 H 385.848 V 2.5 H 2.50391" /><path
             id="path24"
             style="fill:#231f20;fill-opacity:1;fill-rule:nonzero;stroke:none"
             d="M 388.348,737.008 H 0 V 0 h 388.348 z m -5,-5 V 5 H 5 v 727.008 h 378.348" /><path
             id="path26"
             style="fill:#231f20;fill-opacity:1;fill-rule:nonzero;stroke:none"
             d="m 155.211,709.027 h 8.633 v -16.371 h 10.078 v 16.371 h 8.633 v -42.812 h -8.633 v 19.012 h -10.078 v -19.012 h -8.633 v 42.812" /><path
             id="path28"
             style="fill:#231f20;fill-opacity:1;fill-rule:nonzero;stroke:none"
             d="m 190.133,698.48 h 8.281 v -32.265 h -8.281 z m 0,11.036 h 8.281 v -7.082 h -8.281 v 7.082" /><path
             id="path30"
             style="fill:#231f20;fill-opacity:1;fill-rule:nonzero;stroke:none"
             d="m 217.488,672.934 c 3.477,0 4.492,3.777 4.492,9.226 0,7.863 -1.015,10.801 -4.316,10.801 -3.652,0 -4.316,-2.938 -4.316,-11.641 0,-4.433 0.664,-8.386 4.14,-8.386 z m 12.403,25.546 v -30.644 c 0,-8.52 -3.77,-12.656 -13.418,-12.656 -7.032,0 -10.981,3.113 -10.981,8.633 h 7.914 c 0,-1.079 0.489,-1.915 1.25,-2.454 0.782,-0.546 1.758,-0.91 2.774,-0.91 3.359,0 4.55,2.524 4.55,5.824 v 4.254 h -0.117 c -1.679,-2.398 -4.258,-3.953 -6.894,-3.953 -6.602,0 -9.895,4.492 -9.895,16.309 0,7.558 1.145,16.433 10.129,16.433 2.285,0 5.098,-1.082 6.66,-4.441 h 0.117 v 3.605 h 7.911" /><path
             id="path32"
             style="fill:#231f20;fill-opacity:1;fill-rule:nonzero;stroke:none"
             d="m 237.215,709.027 h 8.281 V 695.18 h 0.117 c 1.563,2.754 4.375,4.136 7.871,4.136 5.157,0 8.204,-2.82 8.204,-9.175 v -23.926 h -8.282 v 22.246 c 0,3.238 -1.074,4.5 -3.535,4.5 -2.812,0 -4.375,-1.738 -4.375,-5.344 v -21.402 h -8.281 v 42.812" /><path
             id="path34"
             style="fill:#231f20;fill-opacity:1;fill-rule:nonzero;stroke:none"
             d="m 284.93,698.48 h 8.281 v -32.265 h -8.281 z m 0,11.036 h 8.281 v -7.082 h -8.281 v 7.082" /><path
             id="path36"
             style="fill:#231f20;fill-opacity:1;fill-rule:nonzero;stroke:none"
             d="m 300.516,698.48 h 7.929 v -3.781 h 0.118 c 1.738,3.172 4.726,4.617 8.222,4.617 5.156,0 8.203,-2.82 8.203,-9.175 v -23.926 h -8.281 v 22.246 c 0,3.238 -1.074,4.5 -3.535,4.5 -2.813,0 -4.375,-1.738 -4.375,-5.344 v -21.402 h -8.281 v 32.265" /><path
             id="path38"
             style="fill:#231f20;fill-opacity:1;fill-rule:nonzero;stroke:none"
             d="m 166.723,660.188 h 8.273 l -5.871,-8.641 h -5.645 z m 12.414,-11.161 v -7.074 h -15.293 v -10.074 h 14.394 v -7.07 h -14.394 v -11.516 h 15.898 v -7.078 h -24.531 v 42.812 h 23.926" /><path
             id="path40"
             style="fill:#231f20;fill-opacity:1;fill-rule:nonzero;stroke:none"
             d="m 185.629,649.027 h 8.281 v -42.812 h -8.281 v 42.812" /><path
             id="path42"
             style="fill:#231f20;fill-opacity:1;fill-rule:nonzero;stroke:none"
             d="m 216.766,625.996 c -0.196,4.926 -0.782,7.68 -4.2,7.68 -3.3,0 -4.257,-3.418 -4.257,-6.418 v -1.262 z m -8.457,-4.91 v -2.578 c 0,-3.778 1.015,-7.5 4.082,-7.5 2.754,0 3.886,2.101 4.375,6.055 h 7.422 c -0.293,-7.493 -3.887,-11.692 -11.68,-11.692 -11.996,0 -12.473,9.238 -12.473,17.277 0,8.633 1.68,16.668 12.824,16.668 9.649,0 11.817,-6.48 11.817,-16.375 v -1.855 h -16.367" /><path
             id="path44"
             style="fill:#231f20;fill-opacity:1;fill-rule:nonzero;stroke:none"
             d="m 245.789,638.48 h 8.281 l -8.086,-32.265 h -9.609 l -8.32,32.265 h 8.633 l 4.609,-23.085 h 0.117 l 4.375,23.085" /><path
             id="path46"
             style="fill:#231f20;fill-opacity:1;fill-rule:nonzero;stroke:none"
             d="m 269.148,650.891 h 8.262 l -5.859,-8.633 h -5.645 z m 5.04,-24.895 c -0.196,4.926 -0.782,7.68 -4.2,7.68 -3.3,0 -4.258,-3.418 -4.258,-6.418 v -1.262 z m -8.458,-4.91 v -2.578 c 0,-3.778 1.016,-7.5 4.083,-7.5 2.753,0 3.886,2.101 4.375,6.055 h 7.421 c -0.293,-7.493 -3.886,-11.692 -11.679,-11.692 -11.992,0 -12.481,9.238 -12.481,17.277 0,8.633 1.68,16.668 12.832,16.668 9.649,0 11.817,-6.48 11.817,-16.375 v -1.855 H 265.73" /><path
             id="path48"
             style="fill:#231f20;fill-opacity:1;fill-rule:nonzero;stroke:none"
             d="m 319.363,625.996 c -0.195,4.926 -0.781,7.68 -4.199,7.68 -3.301,0 -4.258,-3.418 -4.258,-6.418 v -1.262 z m -8.457,-4.91 v -2.578 c 0,-3.778 1.016,-7.5 4.082,-7.5 2.754,0 3.887,2.101 4.375,6.055 h 7.422 c -0.293,-7.493 -3.887,-11.692 -11.68,-11.692 -11.992,0 -12.48,9.238 -12.48,17.277 0,8.633 1.68,16.668 12.832,16.668 9.648,0 11.816,-6.48 11.816,-16.375 v -1.855 h -16.367" /><path
             id="path50"
             style="fill:#231f20;fill-opacity:1;fill-rule:nonzero;stroke:none"
             d="m 333.094,638.48 h 7.929 v -3.781 h 0.118 c 1.738,3.172 4.726,4.617 8.222,4.617 5.157,0 8.203,-2.82 8.203,-9.175 v -23.926 h -8.281 v 22.246 c 0,3.238 -1.074,4.5 -3.535,4.5 -2.812,0 -4.375,-1.738 -4.375,-5.344 v -21.402 h -8.281 v 32.265" /><path
             id="path52"
             style="fill:#231f20;fill-opacity:1;fill-rule:nonzero;stroke:none"
             d="m 63.1406,78.9453 h -5.2734 v 20.625 H 43.1797 v -20.625 h -5.2852 v 42.8167 h 5.2852 V 104.25 h 14.6875 v 17.512 h 5.2734 V 78.9453" /><path
             id="path54"
             style="fill:#231f20;fill-opacity:1;fill-rule:nonzero;stroke:none"
             d="m 85.7656,98.3828 v 1.7342 c 0,3.598 -1.1445,7.856 -5.5742,7.856 -5.2851,0 -5.8789,-6.477 -5.8789,-8.4027 V 98.3828 Z M 74.1367,94.4141 c 0,-4.9102 0,-12.3516 6.1719,-12.3516 4.793,0 5.457,5.0391 5.457,7.4414 h 5.0391 c 0,-3.418 -2.0391,-11.3945 -10.8008,-11.3945 -7.8516,0 -11.1523,5.457 -11.1523,16.4922 0,8.0394 1.5625,17.3244 11.457,17.3244 9.832,0 10.7305,-8.574 10.7305,-15.469 V 94.4141 H 74.1367" /><path
             id="path56"
             style="fill:#231f20;fill-opacity:1;fill-rule:nonzero;stroke:none"
             d="m 111.324,96.457 c -1.855,-1.9804 -6.289,-2.4023 -8.578,-3.7773 -1.617,-1.0195 -2.457,-2.2774 -2.457,-5.1016 0,-3.2304 1.141,-5.5156 4.559,-5.5156 3.3,0 6.476,2.8242 6.476,6.125 z m -15.5271,4.922 c 0,7.312 3.1133,10.547 10.7891,10.547 9.777,0 9.777,-5.867 9.777,-9.231 V 84.7695 c 0,-1.3203 0,-2.5781 1.563,-2.5781 0.652,0 0.957,0.1172 1.199,0.293 v -3.5938 c -0.359,-0.0625 -1.68,-0.3047 -2.937,-0.3047 -1.926,0 -4.317,0 -4.563,4.1407 h -0.117 c -1.621,-2.8789 -4.735,-4.6172 -7.735,-4.6172 -5.9957,0 -8.7574,3.5898 -8.7574,9.3554 0,4.5 1.9219,7.6133 6.0544,8.875 l 6.778,2.043 c 3.66,1.1328 3.66,2.1562 3.66,4.8512 0,3 -1.797,4.739 -5.156,4.739 -5.516,0 -5.516,-5.157 -5.516,-6.301 v -0.293 h -5.0391" /><path
             id="path58"
             style="fill:#231f20;fill-opacity:1;fill-rule:nonzero;stroke:none"
             d="m 123.512,121.762 h 5.039 V 78.9453 h -5.039 v 42.8167" /><path
             id="path60"
             style="fill:#231f20;fill-opacity:1;fill-rule:nonzero;stroke:none"
             d="m 136.949,120.441 h 5.039 v -9.355 h 5.575 v -3.953 h -5.575 V 86.5078 c 0,-2.5781 0.664,-3.6055 3.301,-3.6055 1.074,0 1.68,0.125 2.215,0.1875 v -4.1445 c -0.664,-0.1172 -1.981,-0.3594 -4.082,-0.3594 -5.215,0 -6.473,2.1563 -6.473,6.3555 v 22.1916 h -4.679 v 3.953 h 4.679 v 9.355" /><path
             id="path62"
             style="fill:#231f20;fill-opacity:1;fill-rule:nonzero;stroke:none"
             d="m 151,121.762 h 5.039 v -14.328 h 0.117 c 1.321,2.636 4.856,4.492 7.735,4.492 8.273,0 8.273,-6.414 8.273,-10.196 V 78.9453 h -5.031 v 22.1917 c 0,2.461 -0.184,6.472 -4.746,6.472 -2.696,0 -6.348,-1.796 -6.348,-6.472 V 78.9453 H 151 v 42.8167" /><path
             id="path64"
             style="fill:#231f20;fill-opacity:1;fill-rule:nonzero;stroke:none"
             d="m 219.559,93.6367 c -0.489,-8.0976 -3.653,-15.5273 -13.008,-15.5273 -12.172,0 -13.793,11.4531 -13.793,22.2456 0,10.797 1.972,22.247 13.793,22.247 8.75,0 12.402,-4.914 12.656,-13.313 h -5.527 c -0.117,4.863 -1.68,8.992 -7.129,8.992 -7.317,0 -8.274,-8.035 -8.274,-17.926 0,-9.8941 0.957,-17.9292 8.274,-17.9292 6.406,0 7.304,5.9961 7.5,11.2109 h 5.508" /><path
             id="path66"
             style="fill:#231f20;fill-opacity:1;fill-rule:nonzero;stroke:none"
             d="m 239.051,96.457 c -1.856,-1.9804 -6.289,-2.4023 -8.574,-3.7773 -1.622,-1.0195 -2.461,-2.2774 -2.461,-5.1016 0,-3.2304 1.152,-5.5156 4.57,-5.5156 3.301,0 6.465,2.8242 6.465,6.125 z m -15.528,4.922 c 0,7.312 3.125,10.547 10.801,10.547 9.766,0 9.766,-5.867 9.766,-9.231 V 84.7695 c 0,-1.3203 0,-2.5781 1.562,-2.5781 0.664,0 0.957,0.1172 1.211,0.293 v -3.5938 c -0.371,-0.0625 -1.679,-0.3047 -2.949,-0.3047 -1.914,0 -4.316,0 -4.551,4.1407 h -0.117 c -1.621,-2.8789 -4.746,-4.6172 -7.734,-4.6172 -5.996,0 -8.77,3.5898 -8.77,9.3554 0,4.5 1.934,7.6133 6.055,8.875 l 6.777,2.043 c 3.672,1.1328 3.672,2.1562 3.672,4.8512 0,3 -1.797,4.739 -5.156,4.739 -5.527,0 -5.527,-5.157 -5.527,-6.301 v -0.293 h -5.04" /><path
             id="path68"
             style="fill:#231f20;fill-opacity:1;fill-rule:nonzero;stroke:none"
             d="m 250.945,111.086 h 4.805 v -3.77 h 0.117 c 1.309,2.93 4.668,4.61 7.793,4.61 8.457,0 8.457,-6.414 8.457,-10.196 V 78.9453 h -5.039 v 22.1917 c 0,2.461 -0.176,6.472 -4.746,6.472 -2.695,0 -6.348,-1.796 -6.348,-6.472 V 78.9453 h -5.039 v 32.1407" /><path
             id="path70"
             style="fill:#231f20;fill-opacity:1;fill-rule:nonzero;stroke:none"
             d="m 293.484,96.457 c -1.855,-1.9804 -6.289,-2.4023 -8.574,-3.7773 -1.621,-1.0195 -2.461,-2.2774 -2.461,-5.1016 0,-3.2304 1.133,-5.5156 4.551,-5.5156 3.301,0 6.484,2.8242 6.484,6.125 z m -15.527,4.922 c 0,7.312 3.106,10.547 10.781,10.547 9.785,0 9.785,-5.867 9.785,-9.231 V 84.7695 c 0,-1.3203 0,-2.5781 1.563,-2.5781 0.644,0 0.957,0.1172 1.191,0.293 v -3.5938 c -0.351,-0.0625 -1.679,-0.3047 -2.929,-0.3047 -1.934,0 -4.317,0 -4.571,4.1407 h -0.117 c -1.621,-2.8789 -4.726,-4.6172 -7.734,-4.6172 -5.996,0 -8.75,3.5898 -8.75,9.3554 0,4.5 1.914,7.6133 6.054,8.875 l 6.778,2.043 c 3.652,1.1328 3.652,2.1562 3.652,4.8512 0,3 -1.797,4.739 -5.156,4.739 -5.508,0 -5.508,-5.157 -5.508,-6.301 v -0.293 h -5.039" /><path
             id="path72"
             style="fill:#231f20;fill-opacity:1;fill-rule:nonzero;stroke:none"
             d="m 315.32,82.4258 c 5.586,0 6.485,5.2812 6.485,12.5976 0,6.2306 -1.075,12.5856 -6.485,12.5856 -4.668,0 -5.879,-4.914 -5.879,-12.5856 0,-7.6757 1.211,-12.5976 5.879,-12.5976 z m 11.211,-3.4805 h -4.785 v 3.957 h -0.117 c -0.664,-2.3906 -3.477,-4.7929 -6.953,-4.7929 -7.617,0 -10.508,6.7773 -10.508,16.914 0,6.7066 1.074,16.9026 10.137,16.9026 2.871,0 5.937,-1.738 7.07,-4.492 h 0.137 v 14.328 h 5.019 V 78.9453" /><path
             id="path74"
             style="fill:#231f20;fill-opacity:1;fill-rule:nonzero;stroke:none"
             d="m 347.898,96.457 c -1.855,-1.9804 -6.289,-2.4023 -8.574,-3.7773 -1.621,-1.0195 -2.461,-2.2774 -2.461,-5.1016 0,-3.2304 1.133,-5.5156 4.551,-5.5156 3.301,0 6.484,2.8242 6.484,6.125 z m -15.527,4.922 c 0,7.312 3.106,10.547 10.781,10.547 9.786,0 9.786,-5.867 9.786,-9.231 V 84.7695 c 0,-1.3203 0,-2.5781 1.562,-2.5781 0.645,0 0.957,0.1172 1.191,0.293 v -3.5938 c -0.351,-0.0625 -1.679,-0.3047 -2.929,-0.3047 -1.934,0 -4.317,0 -4.571,4.1407 h -0.117 c -1.621,-2.8789 -4.726,-4.6172 -7.734,-4.6172 -5.996,0 -8.75,3.5898 -8.75,9.3554 0,4.5 1.914,7.6133 6.055,8.875 l 6.777,2.043 c 3.652,1.1328 3.652,2.1562 3.652,4.8512 0,3 -1.797,4.739 -5.156,4.739 -5.508,0 -5.508,-5.157 -5.508,-6.301 v -0.293 h -5.039" /><path
             id="path76"
             style="fill:#231f20;fill-opacity:1;fill-rule:nonzero;stroke:none"
             d="m 63.2969,50.6641 c 0,4.5039 -1.6211,7.6172 -6.6602,7.6172 -4.4336,0 -7.0703,-2.3907 -7.0703,-6.9532 0,-12.0508 20.2031,-4.8515 20.2031,-20.5078 0,-9.8906 -7.2539,-12.7109 -13.3086,-12.7109 -10.0195,0 -12.9609,5.1562 -12.9609,14.2773 h 5.2852 c 0,-4.8086 0.2929,-9.9609 8.0351,-9.9609 4.1914,0 7.4336,2.9961 7.4336,7.5586 0,12.1094 -20.207,5.0937 -20.207,20.8086 0,3.9531 1.6797,11.8086 12.5312,11.8086 8.1524,0 11.875,-4.0743 11.9922,-11.9375 h -5.2734" /><path
             id="path78"
             style="fill:#231f20;fill-opacity:1;fill-rule:nonzero;stroke:none"
             d="m 89.6914,36.457 c -1.8555,-1.9804 -6.2891,-2.4023 -8.5742,-3.7773 -1.6211,-1.0195 -2.4609,-2.2774 -2.4609,-5.1016 0,-3.2304 1.1445,-5.5156 4.5625,-5.5156 3.3007,0 6.4726,2.8242 6.4726,6.125 z m -15.5273,4.9219 c 0,7.3125 3.1172,10.5469 10.789,10.5469 9.7774,0 9.7774,-5.8672 9.7774,-9.2305 V 24.7695 c 0,-1.3203 0,-2.5781 1.5625,-2.5781 0.6562,0 0.957,0.1172 1.2031,0.293 v -3.5938 c -0.3633,-0.0625 -1.6797,-0.3047 -2.9414,-0.3047 -1.9219,0 -4.3164,0 -4.5586,4.1407 h -0.1172 c -1.6211,-2.8789 -4.7383,-4.6172 -7.7344,-4.6172 -5.9961,0 -8.7617,3.5898 -8.7617,9.3554 0,4.5 1.9258,7.6133 6.0547,8.875 l 6.7773,2.043 c 3.6641,1.1328 3.6641,2.1563 3.6641,4.8516 0,3 -1.8008,4.7383 -5.1562,4.7383 -5.5196,0 -5.5196,-5.1563 -5.5196,-6.3008 v -0.293 h -5.039" /><path
             id="path80"
             style="fill:#231f20;fill-opacity:1;fill-rule:nonzero;stroke:none"
             d="m 101.586,51.0859 h 4.797 v -3.7695 h 0.113 c 1.32,2.9297 4.68,4.6094 7.805,4.6094 8.445,0 8.445,-6.4141 8.445,-10.1953 V 18.9453 h -5.027 v 22.1914 c 0,2.461 -0.184,6.4727 -4.746,6.4727 -2.696,0 -6.348,-1.7969 -6.348,-6.4727 V 18.9453 h -5.039 v 32.1406" /><path
             id="path82"
             style="fill:#231f20;fill-opacity:1;fill-rule:nonzero;stroke:none"
             d="m 130.855,60.4414 h 5.04 v -9.3555 h 5.574 v -3.9531 h -5.574 v -20.625 c 0,-2.5781 0.664,-3.6055 3.3,-3.6055 1.075,0 1.676,0.125 2.215,0.1875 v -4.1445 c -0.664,-0.1172 -1.98,-0.3594 -4.082,-0.3594 -5.215,0 -6.473,2.1563 -6.473,6.3555 v 22.1914 h -4.679 v 3.9531 h 4.679 v 9.3555" /><path
             id="path84"
             style="fill:#231f20;fill-opacity:1;fill-rule:nonzero;stroke:none"
             d="m 156.117,64.0469 h 5.879 l -6.473,-8.5196 h -3.605 z m 4.621,-25.6641 v 1.7344 c 0,3.5976 -1.144,7.8555 -5.578,7.8555 -5.281,0 -5.879,-6.4766 -5.879,-8.4024 v -1.1875 z m -11.633,-3.9687 c 0,-4.9102 0,-12.3516 6.172,-12.3516 4.797,0 5.461,5.0391 5.461,7.4414 h 5.039 c 0,-3.418 -2.043,-11.3945 -10.8,-11.3945 -7.856,0 -11.153,5.457 -11.153,16.4922 0,8.039 1.563,17.3242 11.453,17.3242 9.836,0 10.735,-8.5742 10.735,-15.4688 v -2.0429 h -16.907" /><path
             id="path86"
             style="fill:#231f20;fill-opacity:1;fill-rule:nonzero;stroke:none"
             d="m 212.332,33.6367 c -0.488,-8.0976 -3.672,-15.5273 -13.019,-15.5273 -12.168,0 -13.79,11.4531 -13.79,22.2461 0,10.7968 1.973,22.2461 13.79,22.2461 8.761,0 12.414,-4.9141 12.648,-13.3125 h -5.508 c -0.117,4.8632 -1.683,8.9922 -7.14,8.9922 -7.317,0 -8.274,-8.0352 -8.274,-17.9258 0,-9.8946 0.957,-17.9297 8.274,-17.9297 6.414,0 7.316,5.9961 7.492,11.2109 h 5.527" /><path
             id="path88"
             style="fill:#231f20;fill-opacity:1;fill-rule:nonzero;stroke:none"
             d="m 231.824,36.457 c -1.855,-1.9804 -6.289,-2.4023 -8.574,-3.7773 -1.621,-1.0195 -2.461,-2.2774 -2.461,-5.1016 0,-3.2304 1.152,-5.5156 4.57,-5.5156 3.301,0 6.465,2.8242 6.465,6.125 z m -15.527,4.9219 c 0,7.3125 3.125,10.5469 10.801,10.5469 9.765,0 9.765,-5.8672 9.765,-9.2305 V 24.7695 c 0,-1.3203 0,-2.5781 1.563,-2.5781 0.664,0 0.957,0.1172 1.211,0.293 v -3.5938 c -0.371,-0.0625 -1.68,-0.3047 -2.949,-0.3047 -1.915,0 -4.317,0 -4.551,4.1407 h -0.117 c -1.622,-2.8789 -4.747,-4.6172 -7.735,-4.6172 -5.996,0 -8.769,3.5898 -8.769,9.3554 0,4.5 1.933,7.6133 6.054,8.875 l 6.778,2.043 c 3.672,1.1328 3.672,2.1563 3.672,4.8516 0,3 -1.797,4.7383 -5.157,4.7383 -5.527,0 -5.527,-5.1563 -5.527,-6.3008 v -0.293 h -5.039" /><path
             id="path90"
             style="fill:#231f20;fill-opacity:1;fill-rule:nonzero;stroke:none"
             d="m 243.719,51.0859 h 4.804 v -3.7695 h 0.118 c 1.308,2.9297 4.668,4.6094 7.793,4.6094 8.457,0 8.457,-6.4141 8.457,-10.1953 V 18.9453 h -5.039 v 22.1914 c 0,2.461 -0.176,6.4727 -4.747,6.4727 -2.695,0 -6.347,-1.7969 -6.347,-6.4727 V 18.9453 h -5.039 v 32.1406" /><path
             id="path92"
             style="fill:#231f20;fill-opacity:1;fill-rule:nonzero;stroke:none"
             d="m 286.238,36.457 c -1.855,-1.9804 -6.289,-2.4023 -8.574,-3.7773 -1.621,-1.0195 -2.461,-2.2774 -2.461,-5.1016 0,-3.2304 1.152,-5.5156 4.57,-5.5156 3.301,0 6.465,2.8242 6.465,6.125 z m -15.527,4.9219 c 0,7.3125 3.125,10.5469 10.801,10.5469 9.765,0 9.765,-5.8672 9.765,-9.2305 V 24.7695 c 0,-1.3203 0,-2.5781 1.563,-2.5781 0.664,0 0.957,0.1172 1.211,0.293 v -3.5938 c -0.371,-0.0625 -1.68,-0.3047 -2.949,-0.3047 -1.914,0 -4.317,0 -4.551,4.1407 h -0.117 c -1.621,-2.8789 -4.746,-4.6172 -7.735,-4.6172 -5.996,0 -8.769,3.5898 -8.769,9.3554 0,4.5 1.933,7.6133 6.054,8.875 l 6.778,2.043 c 3.672,1.1328 3.672,2.1563 3.672,4.8516 0,3 -1.797,4.7383 -5.157,4.7383 -5.527,0 -5.527,-5.1563 -5.527,-6.3008 v -0.293 h -5.039" /><path
             id="path94"
             style="fill:#231f20;fill-opacity:1;fill-rule:nonzero;stroke:none"
             d="m 308.094,22.4258 c 5.566,0 6.465,5.2812 6.465,12.5976 0,6.2305 -1.075,12.586 -6.465,12.586 -4.688,0 -5.879,-4.9141 -5.879,-12.586 0,-7.6757 1.191,-12.5976 5.879,-12.5976 z m 11.211,-3.4805 H 314.5 v 3.957 h -0.117 c -0.664,-2.3906 -3.477,-4.7929 -6.953,-4.7929 -7.617,0 -10.489,6.7773 -10.489,16.914 0,6.7071 1.075,16.9024 10.137,16.9024 2.871,0 5.938,-1.7383 7.07,-4.4922 h 0.118 v 14.3281 h 5.039 V 18.9453" /><path
             id="path96"
             style="fill:#231f20;fill-opacity:1;fill-rule:nonzero;stroke:none"
             d="m 340.672,36.457 c -1.856,-1.9804 -6.289,-2.4023 -8.574,-3.7773 -1.621,-1.0195 -2.461,-2.2774 -2.461,-5.1016 0,-3.2304 1.133,-5.5156 4.551,-5.5156 3.3,0 6.484,2.8242 6.484,6.125 z m -15.527,4.9219 c 0,7.3125 3.105,10.5469 10.781,10.5469 9.785,0 9.785,-5.8672 9.785,-9.2305 V 24.7695 c 0,-1.3203 0,-2.5781 1.562,-2.5781 0.645,0 0.957,0.1172 1.192,0.293 v -3.5938 c -0.352,-0.0625 -1.68,-0.3047 -2.93,-0.3047 -1.933,0 -4.316,0 -4.57,4.1407 h -0.117 c -1.621,-2.8789 -4.727,-4.6172 -7.735,-4.6172 -5.996,0 -8.75,3.5898 -8.75,9.3554 0,4.5 1.914,7.6133 6.055,8.875 l 6.777,2.043 c 3.653,1.1328 3.653,2.1563 3.653,4.8516 0,3 -1.797,4.7383 -5.157,4.7383 -5.507,0 -5.507,-5.1563 -5.507,-6.3008 v -0.293 h -5.039" /><path
             id="path98"
             style="fill:#231f20;fill-opacity:1;fill-rule:nonzero;stroke:none"
             d="M 63.0938,277.102 V 138.203 H 364.75 V 277.102 H 63.0938" /><path
             id="path100"
             style="fill:#ffffff;fill-opacity:1;fill-rule:nonzero;stroke:none"
             d="m 117.867,201.027 v -1.257 c 0,-4.016 1.141,-6.594 5.703,-6.594 2.633,0 5.157,1.679 5.157,5.273 0,3.899 -1.985,5.34 -7.676,7.317 -7.68,2.644 -11.223,5.82 -11.223,12.957 0,8.332 5.098,12.59 13.262,12.59 7.676,0 13.254,-3.293 13.254,-11.516 v -1.192 h -8.281 c 0,4.012 -1.379,6.348 -4.68,6.348 -3.895,0 -4.91,-2.449 -4.91,-4.969 0,-2.636 0.781,-4.257 4.433,-5.824 l 6.66,-2.879 c 6.473,-2.812 8.153,-6.113 8.153,-11.328 0,-9.051 -5.516,-13.137 -14.871,-13.137 -9.778,0 -13.614,4.563 -13.614,12.473 v 1.738 h 8.633" /><path
             id="path102"
             style="fill:#ffffff;fill-opacity:1;fill-rule:nonzero;stroke:none"
             d="m 154.945,192.453 c 3.36,0 4.434,3.301 4.434,11.336 0,8.039 -1.074,11.328 -4.434,11.328 -4.082,0 -4.441,-4.734 -4.441,-11.328 0,-6.598 0.359,-11.336 4.441,-11.336 z m 0,28.313 c 9.953,0.175 12.715,-5.762 12.715,-16.977 0,-11.031 -3.242,-16.973 -12.715,-16.973 -9.961,-0.171 -12.715,5.762 -12.715,16.973 0,11.035 3.243,16.977 12.715,16.977" /><path
             id="path104"
             style="fill:#ffffff;fill-opacity:1;fill-rule:nonzero;stroke:none"
             d="m 185.426,193.176 c 3.66,0 4.375,3.594 4.375,10.613 0,7.016 -0.715,10.617 -4.375,10.617 -3.598,0 -4.317,-3.601 -4.317,-10.617 0,-7.019 0.719,-10.613 4.317,-10.613 z m 4.734,-2.102 h -0.117 c -1.797,-2.996 -4.082,-4.258 -7.313,-4.258 -6.777,0 -9.894,4.985 -9.894,16.973 0,11.992 3.117,16.977 9.894,16.977 3.114,0 5.215,-1.262 6.954,-3.84 h 0.117 v 13.547 h 8.277 v -42.817 h -7.918 v 3.418" /><path
             id="path106"
             style="fill:#ffffff;fill-opacity:1;fill-rule:nonzero;stroke:none"
             d="m 205.414,219.926 h 8.285 v -32.27 h -8.285 z m 0,11.035 h 8.285 v -7.082 h -8.285 v 7.082" /><path
             id="path108"
             style="fill:#ffffff;fill-opacity:1;fill-rule:nonzero;stroke:none"
             d="m 237.566,191.438 h -0.117 c -1.738,-3.184 -4.746,-4.622 -8.222,-4.622 -5.157,0 -8.223,2.825 -8.223,9.18 v 23.93 h 8.281 v -22.258 c 0,-3.23 1.074,-4.492 3.535,-4.492 2.832,0 4.375,1.738 4.375,5.332 v 21.418 h 8.282 v -32.27 h -7.911 v 3.782" /><path
             id="path110"
             style="fill:#ffffff;fill-opacity:1;fill-rule:nonzero;stroke:none"
             d="m 252.508,219.926 h 7.91 v -3.305 h 0.117 c 2.11,2.942 4.688,4.145 8.164,4.145 3.77,0 6.543,-1.868 7.442,-5.157 h 0.117 c 1.25,3.418 4.258,5.157 8.144,5.157 5.469,0 8.047,-3.418 8.047,-9.661 v -23.449 h -8.281 v 22.551 c 0,2.695 -0.898,4.199 -3.242,4.199 -2.637,0 -4.317,-1.804 -4.317,-5.515 v -21.235 h -8.261 v 22.551 c 0,2.695 -0.918,4.199 -3.243,4.199 -2.636,0 -4.316,-1.804 -4.316,-5.515 v -21.235 h -8.281 v 32.27" /><path
             id="path112"
             style="fill:#231f20;fill-opacity:1;fill-rule:nonzero;stroke:none"
             d="M 63.0938,428.902 V 290.004 H 364.75 V 428.902 H 63.0938" /><path
             id="path114"
             style="fill:#ffffff;fill-opacity:1;fill-rule:nonzero;stroke:none"
             d="m 117.867,382.777 v -1.261 c 0,-4.012 1.141,-6.59 5.703,-6.59 2.633,0 5.157,1.679 5.157,5.269 0,3.899 -1.985,5.344 -7.676,7.317 -7.68,2.644 -11.223,5.82 -11.223,12.961 0,8.328 5.098,12.586 13.262,12.586 7.676,0 13.254,-3.289 13.254,-11.512 v -1.192 h -8.281 c 0,4.012 -1.379,6.344 -4.68,6.344 -3.895,0 -4.91,-2.449 -4.91,-4.969 0,-2.636 0.781,-4.257 4.433,-5.82 l 6.66,-2.883 c 6.473,-2.808 8.153,-6.113 8.153,-11.328 0,-9.051 -5.516,-13.133 -14.871,-13.133 -9.778,0 -13.614,4.563 -13.614,12.469 v 1.742 h 8.633" /><path
             id="path116"
             style="fill:#ffffff;fill-opacity:1;fill-rule:nonzero;stroke:none"
             d="m 159.859,373.188 h -0.117 c -1.738,-3.184 -4.738,-4.622 -8.215,-4.622 -5.156,0 -8.222,2.825 -8.222,9.18 v 23.926 h 8.281 v -22.258 c 0,-3.23 1.074,-4.488 3.535,-4.488 2.824,0 4.375,1.734 4.375,5.332 v 21.414 h 8.281 v -32.266 h -7.918 v 3.782" /><path
             id="path118"
             style="fill:#ffffff;fill-opacity:1;fill-rule:nonzero;stroke:none"
             d="m 186.566,376.125 c 3.477,0 4.504,3.777 4.504,9.23 0,7.86 -1.027,10.797 -4.328,10.797 -3.652,0 -4.316,-2.937 -4.316,-11.636 0,-4.438 0.664,-8.391 4.14,-8.391 z m 12.414,25.547 v -30.645 c 0,-8.515 -3.781,-12.656 -13.429,-12.656 -7.02,0 -10.977,3.113 -10.977,8.633 h 7.91 c 0,-1.074 0.489,-1.914 1.262,-2.449 0.781,-0.547 1.746,-0.903 2.762,-0.903 3.359,0 4.562,2.512 4.562,5.813 v 4.258 h -0.129 c -1.679,-2.395 -4.257,-3.953 -6.894,-3.953 -6.594,0 -9.891,4.492 -9.891,16.304 0,7.563 1.141,16.438 10.133,16.438 2.277,0 5.102,-1.082 6.652,-4.446 h 0.129 v 3.606 h 7.91" /><path
             id="path120"
             style="fill:#ffffff;fill-opacity:1;fill-rule:nonzero;stroke:none"
             d="m 221.375,385.539 c -1.152,-0.84 -2.52,-1.379 -3.555,-1.621 -3.34,-0.723 -4.668,-2.332 -4.668,-5.215 0,-2.461 0.899,-4.504 3.125,-4.504 2.207,0 5.098,1.449 5.098,4.985 z m -15.117,6.231 v 0.781 c 0,7.441 5.097,9.961 11.328,9.961 9.844,0 11.699,-4.082 11.699,-9.903 v -16.961 c 0,-3 0.176,-4.386 1.016,-6.242 h -7.91 c -0.547,1.016 -0.782,2.278 -1.016,3.36 h -0.137 c -1.914,-3.36 -4.238,-4.2 -8.203,-4.2 -5.762,0 -7.797,4.922 -7.797,9.239 0,6.054 2.465,8.515 8.149,10.066 l 4.687,1.262 c 2.461,0.664 3.301,1.621 3.301,3.777 0,2.461 -1.094,3.957 -3.848,3.957 -2.519,0 -3.828,-1.679 -3.828,-4.187 v -0.91 h -7.441" /><path
             id="path122"
             style="fill:#ffffff;fill-opacity:1;fill-rule:nonzero;stroke:none"
             d="m 236.668,401.672 h 7.91 v -4.317 h 0.117 c 1.68,3.118 4.024,5.157 7.442,5.157 0.488,0 1.015,-0.071 1.504,-0.125 v -7.91 c -0.84,0.054 -1.739,0.117 -2.578,0.117 -2.891,0 -6.114,-1.496 -6.114,-5.821 v -19.367 h -8.281 v 32.266" /><path
             id="path124"
             style="fill:#ffffff;fill-opacity:1;fill-rule:nonzero;stroke:none"
             d="m 264.207,379.965 v -1.086 c 0,-2.813 1.504,-4.68 4.316,-4.68 2.52,0 4.2,1.262 4.2,3.84 0,2.102 -1.387,3.059 -2.989,3.66 l -5.82,2.102 c -4.57,1.621 -6.894,4.433 -6.894,8.996 0,5.332 3.359,9.715 11.875,9.715 7.48,0 11.035,-3.36 11.035,-9.18 v -1.316 h -7.442 c 0,3.242 -0.957,4.851 -3.652,4.851 -2.109,0 -3.906,-1.191 -3.906,-3.476 0,-1.551 0.84,-2.879 3.593,-3.782 l 4.981,-1.675 c 5.215,-1.743 7.129,-4.375 7.129,-9.231 0,-6.777 -5.039,-10.137 -11.992,-10.137 -9.297,0 -11.875,4.082 -11.875,10.254 v 1.145 h 7.441" /><path
             id="path126"
             style="fill:#ffffff;fill-opacity:1;fill-rule:nonzero;stroke:none"
             d="m 117.867,322.777 v -1.261 c 0,-4.012 1.141,-6.59 5.703,-6.59 2.633,0 5.157,1.679 5.157,5.269 0,3.899 -1.985,5.344 -7.676,7.317 -7.68,2.644 -11.223,5.82 -11.223,12.961 0,8.328 5.098,12.586 13.262,12.586 7.676,0 13.254,-3.289 13.254,-11.512 v -1.192 h -8.281 c 0,4.012 -1.379,6.344 -4.68,6.344 -3.895,0 -4.91,-2.449 -4.91,-4.969 0,-2.636 0.781,-4.257 4.433,-5.82 l 6.66,-2.883 c 6.473,-2.808 8.153,-6.113 8.153,-11.328 0,-9.051 -5.516,-13.133 -14.871,-13.133 -9.778,0 -13.614,4.563 -13.614,12.469 v 1.742 h 8.633" /><path
             id="path128"
             style="fill:#ffffff;fill-opacity:1;fill-rule:nonzero;stroke:none"
             d="m 159.859,313.188 h -0.117 c -1.738,-3.184 -4.738,-4.622 -8.215,-4.622 -5.156,0 -8.222,2.825 -8.222,9.18 v 23.926 h 8.281 v -22.258 c 0,-3.23 1.074,-4.488 3.535,-4.488 2.824,0 4.375,1.734 4.375,5.332 v 21.414 h 8.281 v -32.266 h -7.918 v 3.782" /><path
             id="path130"
             style="fill:#ffffff;fill-opacity:1;fill-rule:nonzero;stroke:none"
             d="m 190.348,330.031 c 0,3.125 -0.606,6.485 -3.723,6.485 -4.07,0 -4.734,-3.606 -4.734,-11.036 0,-7.976 0.722,-11.281 4.433,-11.281 2.762,0 4.024,2.348 4.024,7.563 h 7.91 c 0,-8.457 -3.535,-13.196 -12.285,-13.196 -8.282,0 -12.356,4.012 -12.356,16.973 0,13.25 5.449,16.973 13.067,16.973 7.617,0 11.574,-4.864 11.574,-12.481 h -7.91" /><path
             id="path132"
             style="fill:#ffffff;fill-opacity:1;fill-rule:nonzero;stroke:none"
             d="M 204.086,341.672 H 212 v -4.317 h 0.117 c 1.68,3.118 4.024,5.157 7.442,5.157 0.488,0 1.015,-0.071 1.504,-0.125 v -7.91 c -0.84,0.054 -1.739,0.117 -2.579,0.117 -2.89,0 -6.113,-1.496 -6.113,-5.821 v -19.367 h -8.285 v 32.266" /><path
             id="path134"
             style="fill:#ffffff;fill-opacity:1;fill-rule:nonzero;stroke:none"
             d="m 241.102,329.191 c -0.176,4.922 -0.782,7.676 -4.2,7.676 -3.3,0 -4.257,-3.418 -4.257,-6.418 v -1.258 z m -8.457,-4.914 v -2.578 c 0,-3.777 1.015,-7.5 4.082,-7.5 2.753,0 3.906,2.102 4.375,6.059 h 7.441 c -0.293,-7.492 -3.906,-11.692 -11.699,-11.692 -11.992,0 -12.461,9.239 -12.461,17.278 0,8.633 1.68,16.668 12.832,16.668 9.648,0 11.797,-6.485 11.797,-16.375 v -1.86 h -16.367" /><path
             id="path136"
             style="fill:#ffffff;fill-opacity:1;fill-rule:nonzero;stroke:none"
             d="m 260.906,319.965 v -1.086 c 0,-2.813 1.504,-4.68 4.317,-4.68 2.519,0 4.199,1.262 4.199,3.84 0,2.102 -1.387,3.059 -2.988,3.66 l -5.821,2.102 c -4.57,1.621 -6.894,4.433 -6.894,8.996 0,5.332 3.359,9.715 11.875,9.715 7.48,0 11.035,-3.36 11.035,-9.18 v -1.316 h -7.441 c 0,3.242 -0.958,4.851 -3.653,4.851 -2.109,0 -3.906,-1.191 -3.906,-3.476 0,-1.551 0.84,-2.879 3.594,-3.782 l 4.98,-1.675 c 5.215,-1.743 7.129,-4.375 7.129,-9.231 0,-6.777 -5.039,-10.137 -11.992,-10.137 -9.297,0 -11.875,4.082 -11.875,10.254 v 1.145 h 7.441" /><path
             id="path138"
             style="fill:#231f20;fill-opacity:1;fill-rule:nonzero;stroke:none"
             d="M 63.0938,580.801 V 441.902 H 364.75 V 580.801 H 63.0938" /><path
             id="path140"
             style="fill:#ffffff;fill-opacity:1;fill-rule:nonzero;stroke:none"
             d="m 117.867,534.523 v -1.257 c 0,-4.016 1.141,-6.594 5.703,-6.594 2.633,0 5.157,1.68 5.157,5.273 0,3.899 -1.985,5.34 -7.676,7.317 -7.68,2.644 -11.223,5.816 -11.223,12.957 0,8.332 5.098,12.59 13.262,12.59 7.676,0 13.254,-3.293 13.254,-11.516 v -1.191 h -8.281 c 0,4.011 -1.379,6.347 -4.68,6.347 -3.895,0 -4.91,-2.453 -4.91,-4.969 0,-2.636 0.781,-4.257 4.433,-5.824 l 6.66,-2.879 c 6.473,-2.812 8.153,-6.113 8.153,-11.328 0,-9.051 -5.516,-13.133 -14.871,-13.133 -9.778,0 -13.614,4.559 -13.614,12.469 v 1.738 h 8.633" /><path
             id="path142"
             style="fill:#ffffff;fill-opacity:1;fill-rule:nonzero;stroke:none"
             d="m 158.363,537.285 c -1.14,-0.84 -2.519,-1.375 -3.543,-1.617 -3.351,-0.727 -4.679,-2.336 -4.679,-5.219 0,-2.461 0.91,-4.5 3.125,-4.5 2.218,0 5.097,1.446 5.097,4.981 z m -15.117,6.235 v 0.781 c 0,7.437 5.098,9.961 11.34,9.961 9.832,0 11.687,-4.082 11.687,-9.903 v -16.964 c 0,-2.997 0.188,-4.383 1.028,-6.243 h -7.922 c -0.535,1.02 -0.781,2.278 -1.016,3.364 h -0.125 c -1.914,-3.364 -4.25,-4.2 -8.215,-4.2 -5.75,0 -7.793,4.918 -7.793,9.239 0,6.054 2.461,8.511 8.157,10.066 l 4.676,1.262 c 2.46,0.664 3.3,1.621 3.3,3.777 0,2.461 -1.082,3.953 -3.836,3.953 -2.519,0 -3.839,-1.675 -3.839,-4.187 v -0.906 h -7.442" /><path
             id="path144"
             style="fill:#ffffff;fill-opacity:1;fill-rule:nonzero;stroke:none"
             d="m 175.473,562.648 h 8.273 v -9.226 h 4.793 v -5.645 h -4.793 v -17.441 c 0,-2.52 0.535,-3.547 2.938,-3.547 0.664,0 1.32,0.059 1.855,0.129 v -5.766 c -1.797,-0.172 -3.476,-0.359 -5.391,-0.359 -6.484,0 -7.675,1.984 -7.675,8.516 v 18.468 h -4.2 v 5.645 h 4.2 v 9.226" /><path
             id="path146"
             style="fill:#ffffff;fill-opacity:1;fill-rule:nonzero;stroke:none"
             d="m 210.633,547.777 h -4.199 v 5.645 h 4.199 v 3.648 c 0,5.825 3.281,7.739 8.633,7.739 1.484,0 2.929,-0.063 4.433,-0.176 v -5.879 c -0.547,0.059 -1.074,0.059 -1.621,0.059 -2.344,0 -3.183,-0.715 -3.183,-2.579 v -2.812 h 4.804 v -5.645 h -4.804 v -26.625 h -8.262 v 26.625" /><path
             id="path148"
             style="fill:#ffffff;fill-opacity:1;fill-rule:nonzero;stroke:none"
             d="m 241.941,537.285 c -1.132,-0.84 -2.519,-1.375 -3.535,-1.617 -3.359,-0.727 -4.668,-2.336 -4.668,-5.219 0,-2.461 0.899,-4.5 3.106,-4.5 2.226,0 5.097,1.446 5.097,4.981 z m -15.117,6.235 v 0.781 c 0,7.437 5.098,9.961 11.348,9.961 9.824,0 11.68,-4.082 11.68,-9.903 v -16.964 c 0,-2.997 0.195,-4.383 1.035,-6.243 h -7.93 c -0.527,1.02 -0.781,2.278 -1.016,3.364 h -0.117 c -1.914,-3.364 -4.258,-4.2 -8.222,-4.2 -5.743,0 -7.793,4.918 -7.793,9.239 0,6.054 2.461,8.511 8.164,10.066 l 4.668,1.262 c 2.461,0.664 3.3,1.621 3.3,3.777 0,2.461 -1.074,3.953 -3.828,3.953 -2.519,0 -3.847,-1.675 -3.847,-4.187 v -0.906 h -7.442" /><path
             id="path150"
             style="fill:#ffffff;fill-opacity:1;fill-rule:nonzero;stroke:none"
             d="m 259.051,562.648 h 8.281 v -9.226 h 4.785 v -5.645 h -4.785 v -17.441 c 0,-2.52 0.527,-3.547 2.93,-3.547 0.664,0 1.328,0.059 1.855,0.129 v -5.766 c -1.797,-0.172 -3.476,-0.359 -5.39,-0.359 -6.465,0 -7.676,1.984 -7.676,8.516 v 18.468 h -4.199 v 5.645 h 4.199 v 9.226" /><path
             id="path152"
             style="fill:#ffffff;fill-opacity:1;fill-rule:nonzero;stroke:none"
             d="m 129.926,491.262 c 0,3.176 -1.446,7.187 -4.922,7.187 -4.199,0 -5.879,-4.316 -5.879,-14.988 0,-10.313 0.969,-16.789 5.938,-16.789 2.042,0 5.343,2.219 5.343,6.836 v 4.375 h -5.703 v 6.355 h 13.973 v -23.086 h -6.356 v 3.957 h -0.117 c -2.043,-3.359 -4.98,-4.793 -8.996,-4.793 -10.613,0 -12.715,7.918 -12.715,22.723 0,14.395 3.36,21.77 14.395,21.77 9.472,0 13.312,-4.856 13.312,-13.547 h -8.273" /><path
             id="path154"
             style="fill:#ffffff;fill-opacity:1;fill-rule:nonzero;stroke:none"
             d="m 145.531,493.422 h 7.922 v -4.317 h 0.117 c 1.676,3.114 4.024,5.157 7.442,5.157 0.476,0 1.015,-0.071 1.492,-0.129 v -7.91 c -0.84,0.058 -1.738,0.117 -2.578,0.117 -2.879,0 -6.113,-1.492 -6.113,-5.82 v -19.368 h -8.282 v 32.27" /><path
             id="path156"
             style="fill:#ffffff;fill-opacity:1;fill-rule:nonzero;stroke:none"
             d="m 182.066,477.285 c -1.144,-0.84 -2.519,-1.375 -3.546,-1.617 -3.348,-0.727 -4.668,-2.336 -4.668,-5.219 0,-2.461 0.898,-4.5 3.117,-4.5 2.215,0 5.097,1.446 5.097,4.981 z m -15.117,6.235 v 0.781 c 0,7.437 5.098,9.961 11.336,9.961 9.836,0 11.692,-4.082 11.692,-9.903 v -16.964 c 0,-2.997 0.183,-4.383 1.023,-6.243 h -7.922 c -0.535,1.02 -0.777,2.278 -1.012,3.364 h -0.128 c -1.915,-3.364 -4.258,-4.2 -8.211,-4.2 -5.754,0 -7.793,4.918 -7.793,9.239 0,6.054 2.461,8.511 8.152,10.066 l 4.68,1.262 c 2.461,0.664 3.3,1.621 3.3,3.777 0,2.461 -1.086,3.953 -3.839,3.953 -2.52,0 -3.836,-1.675 -3.836,-4.187 v -0.906 h -7.442" /><path
             id="path158"
             style="fill:#ffffff;fill-opacity:1;fill-rule:nonzero;stroke:none"
             d="m 203.434,471.711 v -1.082 c 0,-2.813 1.492,-4.68 4.308,-4.68 2.52,0 4.199,1.262 4.199,3.836 0,2.102 -1.386,3.059 -2.988,3.664 l -5.824,2.102 c -4.559,1.621 -6.895,4.433 -6.895,8.992 0,5.332 3.36,9.719 11.879,9.719 7.481,0 11.035,-3.36 11.035,-9.184 v -1.316 h -7.441 c 0,3.242 -0.957,4.851 -3.652,4.851 -2.102,0 -3.91,-1.187 -3.91,-3.472 0,-1.555 0.839,-2.871 3.597,-3.782 l 4.981,-1.679 c 5.215,-1.739 7.129,-4.375 7.129,-9.231 0,-6.773 -5.039,-10.133 -11.993,-10.133 -9.289,0 -11.867,4.082 -11.867,10.25 v 1.145 h 7.442" /><path
             id="path160"
             style="fill:#ffffff;fill-opacity:1;fill-rule:nonzero;stroke:none"
             d="m 247.469,471.711 v -1.082 c 0,-2.813 1.504,-4.68 4.316,-4.68 2.52,0 4.199,1.262 4.199,3.836 0,2.102 -1.386,3.059 -2.988,3.664 l -5.82,2.102 c -4.571,1.621 -6.895,4.433 -6.895,8.992 0,5.332 3.36,9.719 11.875,9.719 7.481,0 11.035,-3.36 11.035,-9.184 v -1.316 h -7.441 c 0,3.242 -0.957,4.851 -3.652,4.851 -2.11,0 -3.907,-1.187 -3.907,-3.472 0,-1.555 0.84,-2.871 3.594,-3.782 l 4.981,-1.679 c 5.214,-1.739 7.129,-4.375 7.129,-9.231 0,-6.773 -5.04,-10.133 -11.993,-10.133 -9.297,0 -11.875,4.082 -11.875,10.25 v 1.145 h 7.442" /><path
             id="path162"
             style="fill:#ffffff;fill-opacity:1;fill-rule:nonzero;stroke:none"
             d="m 284.598,477.285 c -1.133,-0.84 -2.52,-1.375 -3.535,-1.617 -3.36,-0.727 -4.668,-2.336 -4.668,-5.219 0,-2.461 0.898,-4.5 3.105,-4.5 2.227,0 5.098,1.446 5.098,4.981 z m -15.118,6.235 v 0.781 c 0,7.437 5.098,9.961 11.348,9.961 9.824,0 11.68,-4.082 11.68,-9.903 v -16.964 c 0,-2.997 0.195,-4.383 1.035,-6.243 h -7.93 c -0.527,1.02 -0.781,2.278 -1.015,3.364 h -0.118 c -1.914,-3.364 -4.257,-4.2 -8.222,-4.2 -5.742,0 -7.793,4.918 -7.793,9.239 0,6.054 2.461,8.511 8.164,10.066 l 4.668,1.262 c 2.461,0.664 3.301,1.621 3.301,3.777 0,2.461 -1.075,3.953 -3.828,3.953 -2.52,0 -3.848,-1.675 -3.848,-4.187 v -0.906 h -7.442" /><path
             id="path164"
             style="fill:#ffffff;fill-opacity:1;fill-rule:nonzero;stroke:none"
             d="m 301.707,502.648 h 8.281 v -9.226 h 4.785 v -5.645 h -4.785 v -17.441 c 0,-2.52 0.528,-3.547 2.93,-3.547 0.664,0 1.328,0.059 1.855,0.129 v -5.766 c -1.796,-0.172 -3.476,-0.359 -5.39,-0.359 -6.465,0 -7.676,1.984 -7.676,8.516 v 18.468 h -4.199 v 5.645 h 4.199 v 9.226" /><path
             id="path166"
             style="fill:#ffffff;fill-opacity:1;fill-rule:nonzero;stroke:none"
             d="m 327.566,470.512 v -9.36 h -7.91 v 9.36 h 7.91" /><path
             id="path168"
             style="fill:#231f20;fill-opacity:1;fill-rule:nonzero;stroke:none"
             d="m 113.738,637.453 c -11.734,-19.988 -37.4724,-26.691 -57.4411,-14.957 -19.9883,11.734 -26.6953,37.496 -14.961,57.488 11.7383,19.965 37.2774,26.621 57.4883,14.938 20.2068,-11.664 26.6718,-37.496 14.9138,-57.469 z m -8.023,69.574 C 79.0586,722.688 45.0781,713.824 29.3984,687.164 15.6836,663.504 20.9258,633.926 40.8398,616.777 L 18.418,579.102 c -2.2305,-3.809 -0.8399,-8.704 3.0586,-10.77 l 5.3828,-2.848 c 3.707,-1.961 8.3047,-0.617 10.3711,3.036 L 58.5,606.395 c 24.9258,-8.973 53.297,0.847 67.078,24.316 15.637,26.652 6.817,60.66 -19.863,76.316" /></g></g></g></g></svg>