<?xml version="1.0" encoding="UTF-8" standalone="no"?>
<svg
   xmlns:dc="http://purl.org/dc/elements/1.1/"
   xmlns:cc="http://creativecommons.org/ns#"
   xmlns:rdf="http://www.w3.org/1999/02/22-rdf-syntax-ns#"
   xmlns:svg="http://www.w3.org/2000/svg"
   xmlns="http://www.w3.org/2000/svg"
   viewBox="0 0 94.487999 71.432797"
   height="71.4328"
   width="94.487999"
   xml:space="preserve"
   id="svg2"
   version="1.1"><metadata
     id="metadata8"><rdf:RDF><cc:Work
         rdf:about=""><dc:format>image/svg+xml</dc:format><dc:type
           rdf:resource="http://purl.org/dc/dcmitype/StillImage" /></cc:Work></rdf:RDF></metadata><defs
     id="defs6"><clipPath
       id="clipPath20"
       clipPathUnits="userSpaceOnUse"><path
         id="path18"
         d="M 0,0 H 708.66 V 535.746 H 0 Z" /></clipPath></defs><g
     transform="matrix(1.3333333,0,0,-1.3333333,0,71.432798)"
     id="g10"><g
       transform="scale(0.1)"
       id="g12"><g
         id="g14"><g
           clip-path="url(#clipPath20)"
           id="g16"><path
             id="path22"
             style="fill:#ffffff;fill-opacity:1;fill-rule:nonzero;stroke:none"
             d="M 2.5,2.49609 V 533.25 H 706.164 V 2.49609 H 2.5" /><path
             id="path24"
             style="fill:#231f20;fill-opacity:1;fill-rule:nonzero;stroke:none"
             d="M 708.66,535.746 H 0 V 0 h 708.66 z m -4.996,-4.996 V 5 H 5 v 525.75 h 698.664" /><path
             id="path26"
             style="fill:#ffffff;fill-opacity:1;fill-rule:nonzero;stroke:none"
             d="m 264.277,103.699 c 37.645,20.36 67.434,54.141 82.786,94.207 H 681.965 V 103.699 H 264.277" /><path
             id="path28"
             style="fill:#231f20;fill-opacity:1;fill-rule:nonzero;stroke:none"
             d="M 684.461,200.406 H 345.332 C 329,156.469 295.848,120.785 253.738,101.191 h 430.723 z m -5,-5 V 106.191 H 273.629 c 33.812,20.649 60.562,52.227 75.141,89.215 h 330.691" /><path
             id="path30"
             style="fill:#231f20;fill-opacity:1;fill-rule:nonzero;stroke:none"
             d="m 382.043,507.664 h 11.512 v -21.832 h 13.437 v 21.832 h 11.516 v -57.09 h -11.516 v 25.348 h -13.437 v -25.348 h -11.512 v 57.09" /><path
             id="path32"
             style="fill:#231f20;fill-opacity:1;fill-rule:nonzero;stroke:none"
             d="m 428.613,493.59 h 11.028 v -43.016 h -11.028 z m 0,14.715 h 11.028 v -9.438 h -11.028 v 9.438" /><path
             id="path34"
             style="fill:#231f20;fill-opacity:1;fill-rule:nonzero;stroke:none"
             d="m 465.078,459.527 c 4.641,0 5.996,5.039 5.996,12.317 0,10.472 -1.355,14.386 -5.75,14.386 -4.883,0 -5.761,-3.914 -5.761,-15.503 0,-5.918 0.878,-11.2 5.515,-11.2 z m 16.555,34.063 v -40.86 c 0,-11.351 -5.039,-16.871 -17.91,-16.871 -9.356,0 -14.629,4.164 -14.629,11.516 h 10.554 c 0,-1.441 0.637,-2.559 1.68,-3.277 1.035,-0.723 2.317,-1.2 3.672,-1.2 4.484,0 6.074,3.36 6.074,7.754 v 5.676 h -0.156 c -2.234,-3.195 -5.672,-5.277 -9.188,-5.277 -8.8,0 -13.195,5.996 -13.195,21.75 0,10.07 1.516,21.91 13.508,21.91 3.035,0 6.797,-1.441 8.875,-5.922 h 0.156 v 4.801 h 10.559" /><path
             id="path36"
             style="fill:#231f20;fill-opacity:1;fill-rule:nonzero;stroke:none"
             d="m 491.406,507.664 h 11.028 v -18.473 h 0.164 c 2.082,3.676 5.84,5.52 10.468,5.52 6.887,0 10.957,-3.762 10.957,-12.234 v -31.903 h -11.035 v 29.66 c 0,4.321 -1.433,5.996 -4.715,5.996 -3.761,0 -5.839,-2.316 -5.839,-7.113 v -28.543 h -11.028 v 57.09" /><path
             id="path38"
             style="fill:#231f20;fill-opacity:1;fill-rule:nonzero;stroke:none"
             d="m 555.012,493.59 h 11.023 v -43.016 h -11.023 z m 0,14.715 h 11.023 v -9.438 h -11.023 v 9.438" /><path
             id="path40"
             style="fill:#231f20;fill-opacity:1;fill-rule:nonzero;stroke:none"
             d="m 575.813,493.59 h 10.546 v -5.039 h 0.164 c 2.317,4.238 6.321,6.16 10.95,6.16 6.882,0 10.957,-3.762 10.957,-12.234 v -31.903 h -11.035 v 29.66 c 0,4.321 -1.438,5.996 -4.719,5.996 -3.758,0 -5.828,-2.316 -5.828,-7.113 v -28.543 h -11.035 v 43.016" /><path
             id="path42"
             style="fill:#231f20;fill-opacity:1;fill-rule:nonzero;stroke:none"
             d="m 200.703,25.3867 h -6.16 v 24.0938 h -17.16 V 25.3867 h -6.16 v 50 h 6.16 V 54.9492 h 17.16 v 20.4375 h 6.16 v -50" /><path
             id="path44"
             style="fill:#231f20;fill-opacity:1;fill-rule:nonzero;stroke:none"
             d="m 227.09,48.082 v 2.0313 c 0,4.1992 -1.328,9.1719 -6.512,9.1719 -6.164,0 -6.867,-7.5586 -6.867,-9.8047 V 48.082 Z m -13.594,-4.6289 c 0,-5.7422 0,-14.4218 7.219,-14.4218 5.605,0 6.375,5.8789 6.375,8.6796 h 5.879 c 0,-3.9921 -2.383,-13.3007 -12.606,-13.3007 -9.172,0 -13.027,6.3671 -13.027,19.2578 0,9.3867 1.824,20.2343 13.379,20.2343 11.484,0 12.539,-10.0078 12.539,-18.0664 v -2.3828 h -19.758" /><path
             id="path46"
             style="fill:#231f20;fill-opacity:1;fill-rule:nonzero;stroke:none"
             d="m 256.906,45.8359 c -2.179,-2.3046 -7.355,-2.8007 -10.019,-4.414 -1.887,-1.1914 -2.871,-2.6563 -2.871,-5.9453 0,-3.7891 1.328,-6.4453 5.32,-6.4453 3.859,0 7.57,3.289 7.57,7.1367 z m -18.144,5.7422 c 0,8.5469 3.64,12.3242 12.605,12.3242 11.418,0 11.418,-6.8554 11.418,-10.7812 V 32.1836 c 0,-1.543 0,-3.0156 1.824,-3.0156 0.774,0 1.114,0.1445 1.399,0.3515 v -4.1992 c -0.422,-0.0703 -1.965,-0.3515 -3.43,-0.3515 -2.246,0 -5.047,0 -5.32,4.832 h -0.149 c -1.882,-3.3594 -5.527,-5.3906 -9.031,-5.3906 -7.004,0 -10.226,4.1992 -10.226,10.9179 0,5.2539 2.238,8.8985 7.07,10.3711 l 7.922,2.3828 c 4.265,1.3282 4.265,2.5196 4.265,5.6758 0,3.4961 -2.097,5.5274 -6.023,5.5274 -6.438,0 -6.438,-6.0274 -6.438,-7.3555 v -0.3516 h -5.886" /><path
             id="path48"
             style="fill:#231f20;fill-opacity:1;fill-rule:nonzero;stroke:none"
             d="m 271.094,75.3867 h 5.89 v -50 h -5.89 v 50" /><path
             id="path50"
             style="fill:#231f20;fill-opacity:1;fill-rule:nonzero;stroke:none"
             d="m 286.777,73.8555 h 5.879 V 62.9258 h 6.516 v -4.6172 h -6.516 V 34.2148 c 0,-3.0156 0.774,-4.207 3.86,-4.207 1.257,0 1.953,0.1445 2.586,0.2149 v -4.836 c -0.77,-0.1367 -2.313,-0.4179 -4.766,-0.4179 -6.094,0 -7.559,2.5195 -7.559,7.4218 v 25.918 h -5.468 v 4.6172 h 5.468 v 10.9297" /><path
             id="path52"
             style="fill:#231f20;fill-opacity:1;fill-rule:nonzero;stroke:none"
             d="m 303.145,75.3867 h 5.89 V 58.6602 h 0.137 c 1.543,3.0742 5.672,5.2421 9.031,5.2421 9.668,0 9.668,-7.4882 9.668,-11.9023 V 25.3867 h -5.879 v 25.918 c 0,2.8711 -0.215,7.5586 -5.535,7.5586 -3.156,0 -7.422,-2.0977 -7.422,-7.5586 v -25.918 h -5.89 v 50" /><path
             id="path54"
             style="fill:#231f20;fill-opacity:1;fill-rule:nonzero;stroke:none"
             d="m 383.176,42.5469 c -0.559,-9.4531 -4.27,-18.1367 -15.196,-18.1367 -14.218,0 -16.113,13.3711 -16.113,25.9765 0,12.6094 2.313,25.9883 16.113,25.9883 10.223,0 14.493,-5.7422 14.774,-15.5469 h -6.445 c -0.137,5.6719 -1.961,10.5078 -8.329,10.5078 -8.546,0 -9.667,-9.3945 -9.667,-20.9492 0,-11.5508 1.121,-20.9375 9.667,-20.9375 7.489,0 8.543,7.0039 8.75,13.0977 h 6.446" /><path
             id="path56"
             style="fill:#231f20;fill-opacity:1;fill-rule:nonzero;stroke:none"
             d="m 405.918,45.8359 c -2.176,-2.3046 -7.352,-2.8007 -10.02,-4.414 -1.882,-1.1914 -2.871,-2.6563 -2.871,-5.9453 0,-3.7891 1.328,-6.4453 5.325,-6.4453 3.855,0 7.566,3.289 7.566,7.1367 z m -18.145,5.7422 c 0,8.5469 3.645,12.3242 12.61,12.3242 11.414,0 11.414,-6.8554 11.414,-10.7812 V 32.1836 c 0,-1.543 0,-3.0156 1.828,-3.0156 0.77,0 1.113,0.1445 1.395,0.3515 v -4.1992 c -0.418,-0.0703 -1.961,-0.3515 -3.426,-0.3515 -2.246,0 -5.051,0 -5.324,4.832 h -0.145 c -1.887,-3.3594 -5.527,-5.3906 -9.035,-5.3906 -7,0 -10.223,4.1992 -10.223,10.9179 0,5.2539 2.235,8.8985 7.071,10.3711 l 7.917,2.3828 c 4.27,1.3282 4.27,2.5196 4.27,5.6758 0,3.4961 -2.102,5.5274 -6.027,5.5274 -6.434,0 -6.434,-6.0274 -6.434,-7.3555 v -0.3516 h -5.891" /><path
             id="path58"
             style="fill:#231f20;fill-opacity:1;fill-rule:nonzero;stroke:none"
             d="m 419.758,62.9258 h 5.605 v -4.4141 h 0.145 c 1.535,3.4297 5.461,5.3906 9.101,5.3906 9.875,0 9.875,-7.4882 9.875,-11.9023 V 25.3867 h -5.879 v 25.918 c 0,2.8711 -0.214,7.5586 -5.539,7.5586 -3.152,0 -7.421,-2.0977 -7.421,-7.5586 v -25.918 h -5.887 v 37.5391" /><path
             id="path60"
             style="fill:#231f20;fill-opacity:1;fill-rule:nonzero;stroke:none"
             d="m 469.406,45.8359 c -2.179,-2.3046 -7.355,-2.8007 -10.019,-4.414 -1.887,-1.1914 -2.871,-2.6563 -2.871,-5.9453 0,-3.7891 1.328,-6.4453 5.32,-6.4453 3.859,0 7.57,3.289 7.57,7.1367 z m -18.144,5.7422 c 0,8.5469 3.64,12.3242 12.605,12.3242 11.418,0 11.418,-6.8554 11.418,-10.7812 V 32.1836 c 0,-1.543 0,-3.0156 1.824,-3.0156 0.774,0 1.114,0.1445 1.399,0.3515 v -4.1992 c -0.422,-0.0703 -1.965,-0.3515 -3.43,-0.3515 -2.246,0 -5.047,0 -5.32,4.832 h -0.149 c -1.882,-3.3594 -5.527,-5.3906 -9.031,-5.3906 -7.004,0 -10.226,4.1992 -10.226,10.9179 0,5.2539 2.238,8.8985 7.07,10.3711 l 7.922,2.3828 c 4.265,1.3282 4.265,2.5196 4.265,5.6758 0,3.4961 -2.097,5.5274 -6.023,5.5274 -6.438,0 -6.438,-6.0274 -6.438,-7.3555 v -0.3516 h -5.886" /><path
             id="path62"
             style="fill:#231f20;fill-opacity:1;fill-rule:nonzero;stroke:none"
             d="m 494.875,29.4492 c 6.512,0 7.566,6.1641 7.566,14.7071 0,7.2851 -1.269,14.707 -7.566,14.707 -5.461,0 -6.867,-5.7422 -6.867,-14.707 0,-8.9649 1.406,-14.7071 6.867,-14.7071 z m 13.094,-4.0625 h -5.606 v 4.6211 h -0.136 c -0.77,-2.8047 -4.063,-5.5976 -8.125,-5.5976 -8.895,0 -12.254,7.9101 -12.254,19.7461 0,7.8437 1.257,19.746 11.836,19.746 3.359,0 6.933,-2.0312 8.261,-5.2421 h 0.145 v 16.7265 h 5.879 v -50" /><path
             id="path64"
             style="fill:#231f20;fill-opacity:1;fill-rule:nonzero;stroke:none"
             d="m 532.891,45.8359 c -2.176,-2.3046 -7.352,-2.8007 -10.02,-4.414 C 520.988,40.2305 520,38.7656 520,35.4766 c 0,-3.7891 1.328,-6.4453 5.324,-6.4453 3.856,0 7.567,3.289 7.567,7.1367 z m -18.145,5.7422 c 0,8.5469 3.645,12.3242 12.609,12.3242 11.415,0 11.415,-6.8554 11.415,-10.7812 V 32.1836 c 0,-1.543 0,-3.0156 1.828,-3.0156 0.769,0 1.113,0.1445 1.394,0.3515 v -4.1992 c -0.418,-0.0703 -1.961,-0.3515 -3.426,-0.3515 -2.246,0 -5.05,0 -5.324,4.832 h -0.144 c -1.887,-3.3594 -5.528,-5.3906 -9.035,-5.3906 -7,0 -10.223,4.1992 -10.223,10.9179 0,5.2539 2.234,8.8985 7.07,10.3711 l 7.918,2.3828 c 4.27,1.3282 4.27,2.5196 4.27,5.6758 0,3.4961 -2.102,5.5274 -6.028,5.5274 -6.433,0 -6.433,-6.0274 -6.433,-7.3555 v -0.3516 h -5.891" /><path
             id="path66"
             style="fill:#231f20;fill-opacity:1;fill-rule:nonzero;stroke:none"
             d="m 246.984,425.887 c 44.36,-18.403 79.61,-54.344 97.231,-99.211 h 340.66 v 99.211 H 246.984" /><path
             id="path68"
             style="fill:#ffffff;fill-opacity:1;fill-rule:nonzero;stroke:none"
             d="m 353.063,216.434 c 3.89,14.929 5.859,30.261 5.859,45.613 0,16.457 -2.234,32.789 -6.641,48.601 H 682.266 V 216.434 H 353.063" /><path
             id="path70"
             style="fill:#231f20;fill-opacity:1;fill-rule:nonzero;stroke:none"
             d="M 684.766,313.145 H 348.957 c 4.836,-16.188 7.469,-33.332 7.469,-51.098 0,-16.684 -2.34,-32.805 -6.625,-48.113 h 334.965 z m -4.996,-4.997 v -89.214 h -323.5 c 3.421,14.144 5.152,28.617 5.152,43.113 0,15.574 -1.977,31.055 -5.883,46.101 H 679.77" /><path
             id="path72"
             style="fill:#ffffff;fill-opacity:1;fill-rule:nonzero;stroke:none"
             d="m 391.328,366.848 v -1.68 c 0,-5.355 1.524,-8.801 7.598,-8.801 3.515,0 6.875,2.242 6.875,7.043 0,5.195 -2.637,7.113 -10.235,9.75 -10.234,3.524 -14.949,7.762 -14.949,17.274 0,11.113 6.797,16.789 17.664,16.789 10.235,0 17.676,-4.399 17.676,-15.352 v -1.598 h -11.035 c 0,5.36 -1.836,8.473 -6.238,8.473 -5.196,0 -6.555,-3.273 -6.555,-6.637 0,-3.511 1.035,-5.671 5.918,-7.754 l 8.879,-3.835 c 8.633,-3.758 10.867,-8.157 10.867,-15.114 0,-12.074 -7.352,-17.508 -19.824,-17.508 -13.035,0 -18.153,6.075 -18.153,16.629 v 2.321 h 11.512" /><path
             id="path74"
             style="fill:#ffffff;fill-opacity:1;fill-rule:nonzero;stroke:none"
             d="m 445.332,370.523 c -1.523,-1.117 -3.359,-1.839 -4.715,-2.156 -4.484,-0.965 -6.242,-3.121 -6.242,-6.961 0,-3.273 1.203,-5.996 4.16,-5.996 2.961,0 6.797,1.922 6.797,6.637 z m -20.156,8.317 v 1.039 c 0,9.914 6.797,13.273 15.117,13.273 13.117,0 15.586,-5.433 15.586,-13.195 v -22.625 c 0,-4 0.246,-5.836 1.367,-8.316 h -10.555 c -0.722,1.355 -1.046,3.039 -1.359,4.476 h -0.164 c -2.559,-4.476 -5.676,-5.594 -10.949,-5.594 -7.676,0 -10.399,6.555 -10.399,12.309 0,8.074 3.282,11.356 10.879,13.438 l 6.231,1.675 c 3.281,0.883 4.402,2.16 4.402,5.039 0,3.278 -1.445,5.278 -5.117,5.278 -3.36,0 -5.117,-2.242 -5.117,-5.598 v -1.199 h -9.922" /><path
             id="path76"
             style="fill:#ffffff;fill-opacity:1;fill-rule:nonzero;stroke:none"
             d="m 468.137,404.348 h 11.035 v -12.317 h 6.394 v -7.515 h -6.394 v -23.27 c 0,-3.351 0.723,-4.715 3.914,-4.715 0.879,0 1.758,0.082 2.48,0.16 v -7.675 c -2.39,-0.239 -4.636,-0.481 -7.195,-0.481 -8.633,0 -10.234,2.641 -10.234,11.356 v 24.625 h -5.598 v 7.515 h 5.598 v 12.317" /><path
             id="path78"
             style="fill:#ffffff;fill-opacity:1;fill-rule:nonzero;stroke:none"
             d="m 515.012,384.516 h -5.598 v 7.515 h 5.598 v 4.879 c 0,7.754 4.402,10.313 11.511,10.313 2.004,0 3.918,-0.078 5.918,-0.239 v -7.836 c -0.722,0.082 -1.433,0.082 -2.156,0.082 -3.117,0 -4.238,-0.96 -4.238,-3.441 v -3.758 h 6.394 v -7.515 h -6.394 v -35.5 h -11.035 v 35.5" /><path
             id="path80"
             style="fill:#ffffff;fill-opacity:1;fill-rule:nonzero;stroke:none"
             d="m 556.77,370.523 c -1.524,-1.117 -3.36,-1.839 -4.719,-2.156 -4.481,-0.965 -6.238,-3.121 -6.238,-6.961 0,-3.273 1.199,-5.996 4.16,-5.996 2.957,0 6.797,1.922 6.797,6.637 z m -20.157,8.317 v 1.039 c 0,9.914 6.797,13.273 15.117,13.273 13.114,0 15.586,-5.433 15.586,-13.195 v -22.625 c 0,-4 0.243,-5.836 1.368,-8.316 h -10.559 c -0.723,1.355 -1.043,3.039 -1.355,4.476 h -0.168 c -2.559,-4.476 -5.672,-5.594 -10.946,-5.594 -7.676,0 -10.402,6.555 -10.402,12.309 0,8.074 3.281,11.356 10.879,13.438 l 6.23,1.675 c 3.282,0.883 4.407,2.16 4.407,5.039 0,3.278 -1.446,5.278 -5.118,5.278 -3.359,0 -5.117,-2.242 -5.117,-5.598 v -1.199 h -9.922" /><path
             id="path82"
             style="fill:#ffffff;fill-opacity:1;fill-rule:nonzero;stroke:none"
             d="m 579.57,404.348 h 11.035 v -12.317 h 6.399 v -7.515 h -6.399 v -23.27 c 0,-3.351 0.723,-4.715 3.918,-4.715 0.879,0 1.758,0.082 2.481,0.16 v -7.675 c -2.402,-0.239 -4.641,-0.481 -7.199,-0.481 -8.633,0 -10.235,2.641 -10.235,11.356 v 24.625 h -5.593 v 7.515 h 5.593 v 12.317" /><path
             id="path84"
             style="fill:#231f20;fill-opacity:1;fill-rule:nonzero;stroke:none"
             d="M 266.066,207.188 C 236.922,157.535 172.992,140.891 123.398,170.039 73.7461,199.188 57.0938,263.172 86.2383,312.82 c 29.1527,49.598 92.5857,66.129 142.7847,37.106 50.192,-28.969 66.25,-93.137 37.043,-142.738 z M 246.141,379.996 C 179.934,418.895 95.5352,396.875 56.5859,330.66 22.5234,271.887 35.5391,198.426 85.0039,155.84 L 29.3086,62.25 C 23.7695,52.7969 27.2305,40.6328 36.9141,35.5078 l 13.3593,-7.0742 c 9.211,-4.875 20.6329,-1.5352 25.7618,7.5352 l 52.8278,94.0742 c 61.914,-22.285 132.383,2.109 166.614,60.398 38.839,66.2 16.925,150.668 -49.336,189.555" /></g></g></g></g></svg>