<?xml version="1.0" encoding="UTF-8" standalone="no"?>
<svg
   xmlns:dc="http://purl.org/dc/elements/1.1/"
   xmlns:cc="http://creativecommons.org/ns#"
   xmlns:rdf="http://www.w3.org/1999/02/22-rdf-syntax-ns#"
   xmlns:svg="http://www.w3.org/2000/svg"
   xmlns="http://www.w3.org/2000/svg"
   viewBox="0 0 51.779732 32.125998"
   height="32.125999"
   width="51.779732"
   xml:space="preserve"
   id="svg2"
   version="1.1"><metadata
     id="metadata8"><rdf:RDF><cc:Work
         rdf:about=""><dc:format>image/svg+xml</dc:format><dc:type
           rdf:resource="http://purl.org/dc/dcmitype/StillImage" /></cc:Work></rdf:RDF></metadata><defs
     id="defs6"><clipPath
       id="clipPath20"
       clipPathUnits="userSpaceOnUse"><path
         id="path18"
         d="M 0,0 H 388.348 V 240.945 H 0 Z" /></clipPath></defs><g
     transform="matrix(1.3333333,0,0,-1.3333333,0,32.125999)"
     id="g10"><g
       transform="scale(0.1)"
       id="g12"><g
         id="g14"><g
           clip-path="url(#clipPath20)"
           id="g16"><path
             id="path22"
             style="fill:#ffffff;fill-opacity:1;fill-rule:nonzero;stroke:none"
             d="M 2.50391,238.34 385.844,238.445 V 2.60547 L 2.50391,2.5 v 235.84" /><path
             id="path24"
             style="fill:#231f20;fill-opacity:1;fill-rule:nonzero;stroke:none"
             d="M 388.348,240.945 0,240.844 V 0 l 388.348,0.101563 z m -5,-5.004 V 5.10156 L 5,5 v 230.844 l 378.348,0.097" /><path
             id="path26"
             style="fill:#231f20;fill-opacity:1;fill-rule:nonzero;stroke:none"
             d="M 61.9453,19.9141 H 56.668 V 40.5508 H 41.9766 V 19.9141 h -5.2774 v 42.8242 h 5.2774 V 45.2266 H 56.668 v 17.5117 h 5.2773 V 19.9141" /><path
             id="path28"
             style="fill:#231f20;fill-opacity:1;fill-rule:nonzero;stroke:none"
             d="m 84.5703,39.3477 v 1.7382 c 0,3.5938 -1.1445,7.8516 -5.5781,7.8516 -5.2774,0 -5.8789,-6.4727 -5.8789,-8.3867 V 39.3477 Z M 72.9336,35.3945 c 0,-4.9218 0,-12.3554 6.1758,-12.3554 4.8008,0 5.4609,5.0312 5.4609,7.4336 h 5.0313 c 0,-3.418 -2.0352,-11.3985 -10.7891,-11.3985 -7.8555,0 -11.1562,5.461 -11.1562,16.4961 0,8.0352 1.5625,17.332 11.4531,17.332 9.8359,0 10.7344,-8.582 10.7344,-15.4765 V 35.3945 H 72.9336" /><path
             id="path30"
             style="fill:#231f20;fill-opacity:1;fill-rule:nonzero;stroke:none"
             d="m 110.133,37.4258 c -1.863,-1.9727 -6.301,-2.3945 -8.582,-3.7813 -1.6174,-1.0156 -2.4533,-2.2734 -2.4533,-5.0976 0,-3.2305 1.1363,-5.5078 4.5543,-5.5078 3.301,0 6.481,2.8125 6.481,6.1132 z m -15.5353,4.9219 c 0,7.3125 3.1171,10.5546 10.7933,10.5546 9.773,0 9.773,-5.8789 9.773,-9.2382 V 25.7344 c 0,-1.3164 0,-2.5781 1.563,-2.5781 0.66,0 0.957,0.1171 1.199,0.3046 v -3.6054 c -0.36,-0.0586 -1.684,-0.3008 -2.942,-0.3008 -1.918,0 -4.316,0 -4.554,4.1406 h -0.117 c -1.622,-2.8828 -4.743,-4.6211 -7.743,-4.6211 -5.9958,0 -8.7536,3.6055 -8.7536,9.3555 0,4.5039 1.918,7.6172 6.0625,8.8789 l 6.7691,2.0391 c 3.665,1.1328 3.665,2.1601 3.665,4.8554 0,2.9961 -1.801,4.7344 -5.165,4.7344 -5.5152,0 -5.5152,-5.1562 -5.5152,-6.2891 v -0.3007 h -5.0351" /><path
             id="path32"
             style="fill:#231f20;fill-opacity:1;fill-rule:nonzero;stroke:none"
             d="m 122.316,62.7383 h 5.036 V 19.9141 h -5.036 v 42.8242" /><path
             id="path34"
             style="fill:#231f20;fill-opacity:1;fill-rule:nonzero;stroke:none"
             d="m 135.762,61.418 h 5.035 v -9.3555 h 5.574 v -3.9648 h -5.574 v -20.625 c 0,-2.5782 0.656,-3.5938 3.301,-3.5938 1.078,0 1.672,0.1172 2.215,0.1758 v -4.1406 c -0.661,-0.1172 -1.977,-0.3594 -4.079,-0.3594 -5.218,0 -6.472,2.1562 -6.472,6.3555 v 22.1875 h -4.68 v 3.9648 h 4.68 v 9.3555" /><path
             id="path36"
             style="fill:#231f20;fill-opacity:1;fill-rule:nonzero;stroke:none"
             d="m 149.793,62.7383 h 5.039 v -14.336 h 0.121 c 1.32,2.6368 4.856,4.5 7.735,4.5 8.277,0 8.277,-6.414 8.277,-10.1953 V 19.9141 h -5.039 v 22.1875 c 0,2.4609 -0.18,6.4765 -4.735,6.4765 -2.703,0 -6.359,-1.7968 -6.359,-6.4765 V 19.9141 h -5.039 v 42.8242" /><path
             id="path38"
             style="fill:#231f20;fill-opacity:1;fill-rule:nonzero;stroke:none"
             d="m 218.363,34.6133 c -0.476,-8.0977 -3.664,-15.5391 -13.015,-15.5391 -12.176,0 -13.797,11.4571 -13.797,22.2461 0,10.8008 1.984,22.2578 13.797,22.2578 8.757,0 12.41,-4.9218 12.656,-13.3203 h -5.52 c -0.117,4.8633 -1.679,8.9922 -7.136,8.9922 -7.317,0 -8.278,-8.0273 -8.278,-17.9297 0,-9.8906 0.961,-17.9297 8.278,-17.9297 6.414,0 7.324,5.9961 7.5,11.2227 h 5.515" /><path
             id="path40"
             style="fill:#231f20;fill-opacity:1;fill-rule:nonzero;stroke:none"
             d="m 237.875,37.4258 c -1.863,-1.9727 -6.301,-2.3945 -8.586,-3.7813 -1.609,-1.0156 -2.449,-2.2734 -2.449,-5.0976 0,-3.2305 1.133,-5.5078 4.551,-5.5078 3.3,0 6.484,2.8125 6.484,6.1132 z m -15.535,4.9219 c 0,7.3125 3.113,10.5546 10.789,10.5546 9.773,0 9.773,-5.8789 9.773,-9.2382 V 25.7344 c 0,-1.3164 0,-2.5781 1.567,-2.5781 0.664,0 0.957,0.1171 1.199,0.3046 v -3.6054 c -0.359,-0.0586 -1.68,-0.3008 -2.941,-0.3008 -1.922,0 -4.317,0 -4.559,4.1406 h -0.117 c -1.621,-2.8828 -4.738,-4.6211 -7.735,-4.6211 -5.996,0 -8.757,3.6055 -8.757,9.3555 0,4.5039 1.921,7.6172 6.062,8.8789 l 6.77,2.0391 c 3.66,1.1328 3.66,2.1601 3.66,4.8554 0,2.9961 -1.797,4.7344 -5.156,4.7344 -5.516,0 -5.516,-5.1562 -5.516,-6.2891 v -0.3007 h -5.039" /><path
             id="path42"
             style="fill:#231f20;fill-opacity:1;fill-rule:nonzero;stroke:none"
             d="m 249.75,52.0625 h 4.805 v -3.7773 h 0.117 c 1.316,2.9375 4.676,4.6171 7.793,4.6171 8.457,0 8.457,-6.414 8.457,-10.1953 V 19.9141 h -5.039 v 22.1875 c 0,2.4609 -0.176,6.4765 -4.738,6.4765 -2.696,0 -6.356,-1.7968 -6.356,-6.4765 V 19.9141 h -5.039 v 32.1484" /><path
             id="path44"
             style="fill:#231f20;fill-opacity:1;fill-rule:nonzero;stroke:none"
             d="m 292.289,37.4258 c -1.855,-1.9727 -6.301,-2.3945 -8.574,-3.7813 -1.621,-1.0156 -2.461,-2.2734 -2.461,-5.0976 0,-3.2305 1.141,-5.5078 4.559,-5.5078 3.3,0 6.476,2.8125 6.476,6.1132 z m -15.527,4.9219 c 0,7.3125 3.117,10.5546 10.793,10.5546 9.773,0 9.773,-5.8789 9.773,-9.2382 V 25.7344 c 0,-1.3164 0,-2.5781 1.563,-2.5781 0.656,0 0.957,0.1171 1.191,0.3046 v -3.6054 c -0.352,-0.0586 -1.68,-0.3008 -2.941,-0.3008 -1.914,0 -4.317,0 -4.547,4.1406 h -0.121 c -1.621,-2.8828 -4.746,-4.6211 -7.743,-4.6211 -5.996,0 -8.75,3.6055 -8.75,9.3555 0,4.5039 1.915,7.6172 6.055,8.8789 l 6.778,2.0391 c 3.66,1.1328 3.66,2.1601 3.66,4.8554 0,2.9961 -1.805,4.7344 -5.164,4.7344 -5.516,0 -5.516,-5.1562 -5.516,-6.2891 v -0.3007 h -5.031" /><path
             id="path46"
             style="fill:#231f20;fill-opacity:1;fill-rule:nonzero;stroke:none"
             d="m 314.125,23.3906 c 5.574,0 6.484,5.2852 6.484,12.5977 0,6.2422 -1.086,12.5898 -6.484,12.5898 -4.68,0 -5.867,-4.914 -5.867,-12.5898 0,-7.6758 1.187,-12.5977 5.867,-12.5977 z m 11.223,-3.4765 h -4.805 v 3.9648 h -0.117 c -0.656,-2.4023 -3.481,-4.8047 -6.953,-4.8047 -7.621,0 -10.5,6.7774 -10.5,16.9141 0,6.7187 1.086,16.914 10.136,16.914 2.879,0 5.938,-1.7382 7.079,-4.5 h 0.121 v 14.336 h 5.039 V 19.9141" /><path
             id="path48"
             style="fill:#231f20;fill-opacity:1;fill-rule:nonzero;stroke:none"
             d="m 346.715,37.4258 c -1.867,-1.9727 -6.301,-2.3945 -8.586,-3.7813 -1.613,-1.0156 -2.449,-2.2734 -2.449,-5.0976 0,-3.2305 1.129,-5.5078 4.547,-5.5078 3.3,0 6.488,2.8125 6.488,6.1132 z m -15.539,4.9219 c 0,7.3125 3.117,10.5546 10.793,10.5546 9.773,0 9.773,-5.8789 9.773,-9.2382 V 25.7344 c 0,-1.3164 0,-2.5781 1.563,-2.5781 0.664,0 0.957,0.1171 1.203,0.3046 v -3.6054 c -0.363,-0.0586 -1.684,-0.3008 -2.942,-0.3008 -1.925,0 -4.316,0 -4.558,4.1406 h -0.117 c -1.625,-2.8828 -4.739,-4.6211 -7.739,-4.6211 -5.996,0 -8.757,3.6055 -8.757,9.3555 0,4.5039 1.921,7.6172 6.066,8.8789 l 6.766,2.0391 c 3.664,1.1328 3.664,2.1601 3.664,4.8554 0,2.9961 -1.797,4.7344 -5.161,4.7344 -5.515,0 -5.515,-5.1562 -5.515,-6.2891 v -0.3007 h -5.039" /><path
             id="path50"
             style="fill:#231f20;fill-opacity:1;fill-rule:nonzero;stroke:none"
             d="m 136.566,219.25 h 8.633 v -16.367 h 10.078 v 16.367 h 8.633 v -42.812 h -8.633 v 19.015 h -10.078 v -19.015 h -8.633 v 42.812" /><path
             id="path52"
             style="fill:#231f20;fill-opacity:1;fill-rule:nonzero;stroke:none"
             d="m 171.488,208.703 h 8.282 v -32.265 h -8.282 z m 0,11.035 h 8.282 v -7.078 h -8.282 v 7.078" /><path
             id="path54"
             style="fill:#231f20;fill-opacity:1;fill-rule:nonzero;stroke:none"
             d="m 198.852,183.156 c 3.476,0 4.5,3.782 4.5,9.231 0,7.859 -1.024,10.801 -4.325,10.801 -3.652,0 -4.316,-2.942 -4.316,-11.641 0,-4.434 0.664,-8.391 4.141,-8.391 z m 12.414,25.547 v -30.644 c 0,-8.516 -3.782,-12.657 -13.43,-12.657 -7.023,0 -10.977,3.118 -10.977,8.633 h 7.911 c 0,-1.074 0.488,-1.914 1.257,-2.449 0.782,-0.547 1.739,-0.898 2.766,-0.898 3.359,0 4.559,2.507 4.559,5.808 v 4.258 h -0.125 c -1.68,-2.391 -4.258,-3.953 -6.895,-3.953 -6.594,0 -9.894,4.492 -9.894,16.308 0,7.559 1.144,16.434 10.136,16.434 2.278,0 5.102,-1.082 6.653,-4.441 h 0.125 v 3.601 h 7.914" /><path
             id="path56"
             style="fill:#231f20;fill-opacity:1;fill-rule:nonzero;stroke:none"
             d="m 218.598,219.25 h 8.281 v -13.848 h 0.117 c 1.563,2.754 4.375,4.141 7.859,4.141 5.161,0 8.215,-2.82 8.215,-9.18 v -23.925 h -8.281 v 22.246 c 0,3.242 -1.074,4.504 -3.535,4.504 -2.813,0 -4.375,-1.739 -4.375,-5.344 v -21.406 h -8.281 v 42.812" /><path
             id="path58"
             style="fill:#231f20;fill-opacity:1;fill-rule:nonzero;stroke:none"
             d="m 266.313,208.703 h 8.281 v -32.265 h -8.281 z m 0,11.035 h 8.281 v -7.078 h -8.281 v 7.078" /><path
             id="path60"
             style="fill:#231f20;fill-opacity:1;fill-rule:nonzero;stroke:none"
             d="m 281.906,208.703 h 7.922 v -3.777 h 0.117 c 1.739,3.172 4.739,4.617 8.223,4.617 5.156,0 8.215,-2.82 8.215,-9.18 v -23.925 h -8.285 v 22.246 c 0,3.242 -1.075,4.504 -3.535,4.504 -2.809,0 -4.375,-1.739 -4.375,-5.344 v -21.406 h -8.282 v 32.265" /><path
             id="path62"
             style="fill:#231f20;fill-opacity:1;fill-rule:nonzero;stroke:none"
             d="M 116.68,153.559 V 79.957 l 253.691,0.1016 V 153.66 L 116.68,153.559" /><path
             id="path64"
             style="fill:#ffffff;fill-opacity:1;fill-rule:nonzero;stroke:none"
             d="m 143.133,110.109 v -1.257 c 0,-4.016 1.144,-6.594 5.703,-6.594 2.637,0 5.156,1.68 5.156,5.273 0,3.899 -1.98,5.344 -7.676,7.317 -7.675,2.644 -11.218,5.82 -11.218,12.957 0,8.332 5.097,12.59 13.261,12.59 7.676,0 13.25,-3.293 13.25,-11.516 v -1.191 h -8.281 c 0,4.015 -1.375,6.347 -4.676,6.347 -3.898,0 -4.914,-2.449 -4.914,-4.969 0,-2.636 0.782,-4.257 4.434,-5.82 l 6.66,-2.883 c 6.477,-2.812 8.156,-6.113 8.156,-11.328 0,-9.0506 -5.519,-13.1327 -14.875,-13.1327 -9.773,0 -13.613,4.5587 -13.613,12.4687 v 1.738 h 8.633" /><path
             id="path66"
             style="fill:#ffffff;fill-opacity:1;fill-rule:nonzero;stroke:none"
             d="m 180.215,101.535 c 3.359,0 4.433,3.301 4.433,11.34 0,8.035 -1.074,11.328 -4.433,11.328 -4.082,0 -4.445,-4.738 -4.445,-11.328 0,-6.602 0.363,-11.34 4.445,-11.34 z m 0,28.313 c 9.949,0.175 12.715,-5.762 12.715,-16.973 0,-11.035 -3.242,-16.9727 -12.715,-16.9727 -9.961,-0.1757 -12.715,5.7617 -12.715,16.9727 0,11.035 3.242,16.973 12.715,16.973" /><path
             id="path68"
             style="fill:#ffffff;fill-opacity:1;fill-rule:nonzero;stroke:none"
             d="m 210.68,102.258 c 3.66,0 4.375,3.594 4.375,10.617 0,7.012 -0.715,10.613 -4.375,10.613 -3.59,0 -4.313,-3.601 -4.313,-10.613 0,-7.023 0.723,-10.617 4.313,-10.617 z m 4.734,-2.098 h -0.117 c -1.797,-2.9998 -4.082,-4.2577 -7.317,-4.2577 -6.769,0 -9.886,4.9807 -9.886,16.9727 0,11.992 3.117,16.973 9.886,16.973 3.118,0 5.215,-1.262 6.954,-3.84 h 0.121 v 13.547 h 8.281 V 96.7422 h -7.922 v 3.4178" /><path
             id="path70"
             style="fill:#ffffff;fill-opacity:1;fill-rule:nonzero;stroke:none"
             d="m 230.656,129.008 h 8.282 V 96.7422 h -8.282 z m 0,11.035 h 8.282 v -7.082 h -8.282 v 7.082" /><path
             id="path72"
             style="fill:#ffffff;fill-opacity:1;fill-rule:nonzero;stroke:none"
             d="m 262.797,100.52 h -0.117 c -1.739,-3.1841 -4.739,-4.6177 -8.211,-4.6177 -5.16,0 -8.227,2.8204 -8.227,9.1797 v 23.926 h 8.281 V 106.75 c 0,-3.23 1.075,-4.492 3.536,-4.492 2.824,0 4.375,1.738 4.375,5.332 v 21.418 h 8.285 V 96.7422 h -7.922 v 3.7778" /><path
             id="path74"
             style="fill:#ffffff;fill-opacity:1;fill-rule:nonzero;stroke:none"
             d="m 277.738,129.008 h 7.918 v -3.301 h 0.117 c 2.102,2.938 4.68,4.141 8.157,4.141 3.781,0 6.543,-1.868 7.441,-5.157 h 0.117 c 1.258,3.418 4.258,5.157 8.153,5.157 5.461,0 8.039,-3.418 8.039,-9.66 V 96.7422 h -8.274 v 22.5468 c 0,2.695 -0.894,4.199 -3.238,4.199 -2.641,0 -4.32,-1.797 -4.32,-5.515 V 96.7422 h -8.27 v 22.5468 c 0,2.695 -0.906,4.199 -3.242,4.199 -2.637,0 -4.316,-1.797 -4.316,-5.515 V 96.7422 h -8.282 v 32.2658" /><path
             id="path76"
             style="fill:#231f20;fill-opacity:1;fill-rule:nonzero;stroke:none"
             d="M 92.4609,162.691 C 83.8555,148.039 64.9883,143.125 50.3516,151.73 c -14.6524,8.602 -19.5664,27.485 -10.9649,42.137 8.6016,14.641 27.3242,19.52 42.1406,10.953 14.8125,-8.55 19.5507,-27.488 10.9336,-42.129 z m -5.8828,51.004 C 67.0391,225.176 42.1289,218.676 30.6328,199.133 20.582,181.785 24.4219,160.105 39.0234,147.539 L 22.5859,119.918 c -1.6367,-2.789 -0.6132,-6.383 2.2422,-7.895 l 3.9453,-2.085 c 2.7188,-1.442 6.086,-0.454 7.6016,2.222 l 15.5898,27.766 c 18.2735,-6.578 39.0704,0.621 49.1762,17.824 11.461,19.539 4.992,44.469 -14.5629,55.945" /></g></g></g></g></svg>