<?xml version="1.0" encoding="UTF-8" standalone="no"?>
<svg
   xmlns:dc="http://purl.org/dc/elements/1.1/"
   xmlns:cc="http://creativecommons.org/ns#"
   xmlns:rdf="http://www.w3.org/1999/02/22-rdf-syntax-ns#"
   xmlns:svg="http://www.w3.org/2000/svg"
   xmlns="http://www.w3.org/2000/svg"
   viewBox="0 0 51.779732 45.354132"
   height="45.354134"
   width="51.779732"
   xml:space="preserve"
   id="svg2"
   version="1.1"><metadata
     id="metadata8"><rdf:RDF><cc:Work
         rdf:about=""><dc:format>image/svg+xml</dc:format><dc:type
           rdf:resource="http://purl.org/dc/dcmitype/StillImage" /></cc:Work></rdf:RDF></metadata><defs
     id="defs6"><clipPath
       id="clipPath20"
       clipPathUnits="userSpaceOnUse"><path
         id="path18"
         d="M 0,0 H 388.348 V 340.156 H 0 Z" /></clipPath></defs><g
     transform="matrix(1.3333333,0,0,-1.3333333,0,45.354132)"
     id="g10"><g
       transform="scale(0.1)"
       id="g12"><g
         id="g14"><g
           clip-path="url(#clipPath20)"
           id="g16"><path
             id="path22"
             style="fill:#ffffff;fill-opacity:1;fill-rule:nonzero;stroke:none"
             d="M 2.50391,337.547 385.828,337.656 385.848,2.61328 2.51953,2.50391 2.50391,337.547" /><path
             id="path24"
             style="fill:#231f20;fill-opacity:1;fill-rule:nonzero;stroke:none"
             d="M 388.324,340.156 0,340.051 0.0234375,0 388.348,0.105469 Z m -5,-5 L 383.348,5.10547 5.02344,5.00391 5,335.051 l 378.324,0.105" /><path
             id="path26"
             style="fill:#231f20;fill-opacity:1;fill-rule:nonzero;stroke:none"
             d="m 61.9375,28.8203 h -5.2773 v 20.625 H 41.9688 v -20.625 h -5.2813 v 42.8125 h 5.2813 V 54.1211 h 14.6914 v 17.5117 h 5.2773 V 28.8203" /><path
             id="path28"
             style="fill:#231f20;fill-opacity:1;fill-rule:nonzero;stroke:none"
             d="m 84.5586,48.2422 v 1.7383 c 0,3.6054 -1.1406,7.8633 -5.5742,7.8633 -5.2813,0 -5.8789,-6.4766 -5.8789,-8.3985 V 48.2422 Z M 72.9258,44.2891 c 0,-4.9141 0,-12.3555 6.1758,-12.3555 4.7968,0 5.457,5.0391 5.457,7.4414 h 5.0352 c 0,-3.4258 -2.0352,-11.3945 -10.7891,-11.3945 -7.8594,0 -11.1602,5.457 -11.1602,16.4843 0,8.0352 1.5625,17.3321 11.4571,17.3321 9.832,0 10.7304,-8.5742 10.7304,-15.4688 v -2.039 H 72.9258" /><path
             id="path30"
             style="fill:#231f20;fill-opacity:1;fill-rule:nonzero;stroke:none"
             d="m 110.121,46.3281 c -1.859,-1.9804 -6.301,-2.4023 -8.578,-3.7773 -1.6172,-1.0156 -2.4571,-2.2774 -2.4571,-5.0977 0,-3.2422 1.1371,-5.5195 4.5551,-5.5195 3.3,0 6.48,2.8242 6.48,6.1133 z m -15.5312,4.9141 c 0,7.3242 3.1133,10.5547 10.7892,10.5547 9.777,0 9.777,-5.8789 9.777,-9.2383 V 34.6289 c 0,-1.3164 0,-2.5781 1.563,-2.5781 0.66,0 0.957,0.1289 1.195,0.3047 v -3.5938 c -0.355,-0.0703 -1.68,-0.3047 -2.941,-0.3047 -1.918,0 -4.317,0 -4.555,4.1407 h -0.117 c -1.621,-2.8789 -4.742,-4.6172 -7.738,-4.6172 -5.9966,0 -8.7544,3.5937 -8.7544,9.3554 0,4.4922 1.918,7.6172 6.0586,8.875 l 6.7738,2.0313 c 3.66,1.1445 3.66,2.1601 3.66,4.8633 0,3 -1.801,4.7383 -5.16,4.7383 -5.5199,0 -5.5199,-5.1563 -5.5199,-6.3008 v -0.3008 h -5.0313" /><path
             id="path32"
             style="fill:#231f20;fill-opacity:1;fill-rule:nonzero;stroke:none"
             d="m 122.309,71.6328 h 5.035 V 28.8203 h -5.035 v 42.8125" /><path
             id="path34"
             style="fill:#231f20;fill-opacity:1;fill-rule:nonzero;stroke:none"
             d="m 135.75,70.3125 h 5.035 V 60.957 h 5.574 v -3.9531 h -5.574 V 36.3672 c 0,-2.5781 0.66,-3.5938 3.301,-3.5938 1.078,0 1.676,0.1172 2.219,0.1758 v -4.1289 c -0.66,-0.1289 -1.981,-0.3633 -4.078,-0.3633 -5.219,0 -6.477,2.1602 -6.477,6.3594 v 22.1875 h -4.676 v 3.9531 h 4.676 v 9.3555" /><path
             id="path36"
             style="fill:#231f20;fill-opacity:1;fill-rule:nonzero;stroke:none"
             d="m 149.785,71.6328 h 5.039 V 57.3047 h 0.121 c 1.321,2.6367 4.856,4.4922 7.735,4.4922 8.277,0 8.277,-6.4141 8.277,-10.1953 V 28.8203 h -5.039 v 22.1875 c 0,2.461 -0.184,6.4727 -4.738,6.4727 -2.7,0 -6.356,-1.7969 -6.356,-6.4727 V 28.8203 h -5.039 v 42.8125" /><path
             id="path38"
             style="fill:#231f20;fill-opacity:1;fill-rule:nonzero;stroke:none"
             d="m 218.344,43.5078 c -0.481,-8.0976 -3.653,-15.5273 -13.008,-15.5273 -12.172,0 -13.793,11.4531 -13.793,22.2461 0,10.789 1.98,22.2461 13.793,22.2461 8.75,0 12.41,-4.9141 12.656,-13.3125 h -5.519 c -0.125,4.8554 -1.676,8.9961 -7.137,8.9961 -7.316,0 -8.277,-8.0391 -8.277,-17.9297 0,-9.8946 0.961,-17.9297 8.277,-17.9297 6.418,0 7.312,5.9961 7.488,11.2109 h 5.52" /><path
             id="path40"
             style="fill:#231f20;fill-opacity:1;fill-rule:nonzero;stroke:none"
             d="m 237.855,46.3281 c -1.855,-1.9804 -6.296,-2.4023 -8.574,-3.7773 -1.621,-1.0156 -2.461,-2.2774 -2.461,-5.0977 0,-3.2422 1.145,-5.5195 4.563,-5.5195 3.301,0 6.472,2.8242 6.472,6.1133 z m -15.527,4.9141 c 0,7.3242 3.113,10.5547 10.789,10.5547 9.778,0 9.778,-5.8789 9.778,-9.2383 V 34.6289 c 0,-1.3164 0,-2.5781 1.562,-2.5781 0.652,0 0.957,0.1289 1.191,0.3047 v -3.5938 c -0.351,-0.0703 -1.679,-0.3047 -2.937,-0.3047 -1.914,0 -4.32,0 -4.555,4.1407 h -0.125 c -1.609,-2.8789 -4.734,-4.6172 -7.734,-4.6172 -5.996,0 -8.75,3.5937 -8.75,9.3554 0,4.4922 1.914,7.6172 6.055,8.875 l 6.777,2.0313 c 3.652,1.1445 3.652,2.1601 3.652,4.8633 0,3 -1.797,4.7383 -5.156,4.7383 -5.52,0 -5.52,-5.1563 -5.52,-6.3008 v -0.3008 h -5.027" /><path
             id="path42"
             style="fill:#231f20;fill-opacity:1;fill-rule:nonzero;stroke:none"
             d="m 249.738,60.957 h 4.797 v -3.7773 h 0.125 c 1.32,2.9375 4.668,4.6172 7.793,4.6172 8.457,0 8.457,-6.4141 8.457,-10.1953 V 28.8203 h -5.039 v 22.1875 c 0,2.461 -0.183,6.4727 -4.734,6.4727 -2.703,0 -6.36,-1.7969 -6.36,-6.4727 V 28.8203 h -5.039 V 60.957" /><path
             id="path44"
             style="fill:#231f20;fill-opacity:1;fill-rule:nonzero;stroke:none"
             d="m 292.277,46.3281 c -1.863,-1.9804 -6.297,-2.4023 -8.582,-3.7773 -1.609,-1.0156 -2.453,-2.2774 -2.453,-5.0977 0,-3.2422 1.137,-5.5195 4.555,-5.5195 3.301,0 6.48,2.8242 6.48,6.1133 z m -15.535,4.9141 c 0,7.3242 3.113,10.5547 10.789,10.5547 9.778,0 9.778,-5.8789 9.778,-9.2383 V 34.6289 c 0,-1.3164 0,-2.5781 1.562,-2.5781 0.664,0 0.957,0.1289 1.199,0.3047 v -3.5938 c -0.359,-0.0703 -1.679,-0.3047 -2.937,-0.3047 -1.922,0 -4.317,0 -4.563,4.1407 h -0.117 c -1.617,-2.8789 -4.734,-4.6172 -7.73,-4.6172 -6,0 -8.762,3.5937 -8.762,9.3554 0,4.4922 1.926,7.6172 6.062,8.875 l 6.77,2.0313 c 3.66,1.1445 3.66,2.1601 3.66,4.8633 0,3 -1.797,4.7383 -5.152,4.7383 -5.52,0 -5.52,-5.1563 -5.52,-6.3008 v -0.3008 h -5.039" /><path
             id="path46"
             style="fill:#231f20;fill-opacity:1;fill-rule:nonzero;stroke:none"
             d="m 314.113,32.2969 c 5.578,0 6.477,5.2734 6.477,12.5859 0,6.2422 -1.082,12.5977 -6.477,12.5977 -4.675,0 -5.879,-4.9219 -5.879,-12.5977 0,-7.6758 1.204,-12.5859 5.879,-12.5859 z m 11.211,-3.4766 h -4.793 v 3.9531 h -0.117 c -0.664,-2.4023 -3.484,-4.7929 -6.965,-4.7929 -7.613,0 -10.484,6.7773 -10.484,16.9023 0,6.7188 1.07,16.9141 10.125,16.9141 2.883,0 5.937,-1.7383 7.082,-4.4922 h 0.113 v 14.3281 h 5.039 V 28.8203" /><path
             id="path48"
             style="fill:#231f20;fill-opacity:1;fill-rule:nonzero;stroke:none"
             d="m 346.691,46.3281 c -1.851,-1.9804 -6.296,-2.4023 -8.574,-3.7773 -1.621,-1.0156 -2.461,-2.2774 -2.461,-5.0977 0,-3.2422 1.145,-5.5195 4.563,-5.5195 3.301,0 6.472,2.8242 6.472,6.1133 z m -15.523,4.9141 c 0,7.3242 3.113,10.5547 10.789,10.5547 9.773,0 9.773,-5.8789 9.773,-9.2383 V 34.6289 c 0,-1.3164 0,-2.5781 1.567,-2.5781 0.652,0 0.957,0.1289 1.187,0.3047 v -3.5938 c -0.347,-0.0703 -1.675,-0.3047 -2.937,-0.3047 -1.914,0 -4.317,0 -4.551,4.1407 h -0.129 c -1.609,-2.8789 -4.734,-4.6172 -7.73,-4.6172 -5.996,0 -8.75,3.5937 -8.75,9.3554 0,4.4922 1.914,7.6172 6.051,8.875 l 6.781,2.0313 c 3.648,1.1445 3.648,2.1601 3.648,4.8633 0,3 -1.797,4.7383 -5.152,4.7383 -5.52,0 -5.52,-5.1563 -5.52,-6.3008 v -0.3008 h -5.027" /><path
             id="path50"
             style="fill:#231f20;fill-opacity:1;fill-rule:nonzero;stroke:none"
             d="m 136.551,315.129 h 8.633 v -16.367 h 10.078 v 16.367 h 8.633 v -42.813 h -8.633 v 19.012 h -10.078 v -19.012 h -8.633 v 42.813" /><path
             id="path52"
             style="fill:#231f20;fill-opacity:1;fill-rule:nonzero;stroke:none"
             d="m 171.473,304.582 h 8.281 v -32.266 h -8.281 z m 0,11.035 h 8.281 v -7.082 h -8.281 v 7.082" /><path
             id="path54"
             style="fill:#231f20;fill-opacity:1;fill-rule:nonzero;stroke:none"
             d="m 198.836,279.035 c 3.477,0 4.504,3.778 4.504,9.227 0,7.863 -1.027,10.801 -4.328,10.801 -3.653,0 -4.317,-2.938 -4.317,-11.641 0,-4.434 0.664,-8.387 4.141,-8.387 z m 12.418,25.547 v -30.644 c 0,-8.516 -3.785,-12.657 -13.434,-12.657 -7.019,0 -10.976,3.114 -10.976,8.633 h 7.91 c 0,-1.074 0.488,-1.914 1.262,-2.453 0.781,-0.547 1.738,-0.898 2.761,-0.898 3.36,0 4.563,2.511 4.563,5.812 v 4.258 h -0.129 c -1.68,-2.395 -4.258,-3.957 -6.895,-3.957 -6.589,0 -9.89,4.492 -9.89,16.308 0,7.559 1.14,16.438 10.137,16.438 2.273,0 5.097,-1.086 6.648,-4.445 h 0.129 v 3.605 h 7.914" /><path
             id="path56"
             style="fill:#231f20;fill-opacity:1;fill-rule:nonzero;stroke:none"
             d="m 218.59,315.129 h 8.277 v -13.848 h 0.117 c 1.567,2.754 4.375,4.141 7.864,4.141 5.156,0 8.211,-2.824 8.211,-9.18 v -23.926 h -8.282 v 22.247 c 0,3.242 -1.074,4.5 -3.535,4.5 -2.808,0 -4.375,-1.739 -4.375,-5.34 v -21.407 h -8.277 v 42.813" /><path
             id="path58"
             style="fill:#231f20;fill-opacity:1;fill-rule:nonzero;stroke:none"
             d="m 266.305,304.582 h 8.281 v -32.266 h -8.281 z m 0,11.035 h 8.281 v -7.082 h -8.281 v 7.082" /><path
             id="path60"
             style="fill:#231f20;fill-opacity:1;fill-rule:nonzero;stroke:none"
             d="m 281.898,304.582 h 7.918 v -3.781 h 0.118 c 1.742,3.176 4.738,4.621 8.222,4.621 5.157,0 8.215,-2.824 8.215,-9.18 v -23.926 h -8.281 v 22.247 c 0,3.242 -1.074,4.5 -3.535,4.5 -2.813,0 -4.375,-1.739 -4.375,-5.34 v -21.407 h -8.282 v 32.266" /><path
             id="path62"
             style="fill:#231f20;fill-opacity:1;fill-rule:nonzero;stroke:none"
             d="m 116.668,251.105 v -73.601 l 253.691,0.101 v 73.602 l -253.691,-0.102" /><path
             id="path64"
             style="fill:#ffffff;fill-opacity:1;fill-rule:nonzero;stroke:none"
             d="m 143.117,207.656 v -1.258 c 0,-4.015 1.145,-6.593 5.703,-6.593 2.641,0 5.157,1.679 5.157,5.273 0,3.899 -1.981,5.344 -7.672,7.317 -7.676,2.644 -11.223,5.82 -11.223,12.957 0,8.332 5.098,12.589 13.262,12.589 7.676,0 13.254,-3.293 13.254,-11.515 v -1.192 h -8.285 c 0,4.016 -1.375,6.348 -4.676,6.348 -3.899,0 -4.914,-2.449 -4.914,-4.969 0,-2.636 0.785,-4.258 4.433,-5.82 l 6.66,-2.883 c 6.477,-2.812 8.157,-6.113 8.157,-11.328 0,-9.051 -5.52,-13.133 -14.875,-13.133 -9.774,0 -13.614,4.559 -13.614,12.469 v 1.738 h 8.633" /><path
             id="path66"
             style="fill:#ffffff;fill-opacity:1;fill-rule:nonzero;stroke:none"
             d="m 183.629,210.422 c -1.145,-0.84 -2.524,-1.379 -3.547,-1.621 -3.352,-0.723 -4.668,-2.336 -4.668,-5.215 0,-2.461 0.899,-4.504 3.113,-4.504 2.219,0 5.102,1.445 5.102,4.981 z m -15.117,6.23 v 0.782 c 0,7.441 5.093,9.961 11.336,9.961 9.836,0 11.687,-4.082 11.687,-9.903 v -16.965 c 0,-2.996 0.188,-4.382 1.028,-6.238 h -7.922 c -0.536,1.016 -0.782,2.274 -1.012,3.359 H 183.5 c -1.914,-3.359 -4.258,-4.199 -8.215,-4.199 -5.75,0 -7.793,4.922 -7.793,9.239 0,6.054 2.461,8.515 8.156,10.066 l 4.676,1.262 c 2.461,0.664 3.305,1.621 3.305,3.777 0,2.461 -1.086,3.957 -3.84,3.957 -2.519,0 -3.84,-1.68 -3.84,-4.191 v -0.907 h -7.437" /><path
             id="path68"
             style="fill:#ffffff;fill-opacity:1;fill-rule:nonzero;stroke:none"
             d="m 200.746,235.781 h 8.27 v -9.226 h 4.797 v -5.645 h -4.797 v -17.441 c 0,-2.52 0.539,-3.547 2.941,-3.547 0.664,0 1.316,0.058 1.856,0.117 v -5.75 c -1.797,-0.176 -3.477,-0.363 -5.391,-0.363 -6.484,0 -7.676,1.984 -7.676,8.515 v 18.469 h -4.199 v 5.645 h 4.199 v 9.226" /><path
             id="path70"
             style="fill:#ffffff;fill-opacity:1;fill-rule:nonzero;stroke:none"
             d="m 235.91,220.91 h -4.195 v 5.645 h 4.195 v 3.652 c 0,5.82 3.293,7.734 8.637,7.734 1.492,0 2.937,-0.058 4.43,-0.175 v -5.879 c -0.536,0.058 -1.075,0.058 -1.61,0.058 -2.344,0 -3.183,-0.715 -3.183,-2.578 v -2.812 h 4.793 v -5.645 h -4.793 v -26.621 h -8.274 v 26.621" /><path
             id="path72"
             style="fill:#ffffff;fill-opacity:1;fill-rule:nonzero;stroke:none"
             d="m 267.223,210.422 c -1.145,-0.84 -2.524,-1.379 -3.547,-1.621 -3.352,-0.723 -4.668,-2.336 -4.668,-5.215 0,-2.461 0.898,-4.504 3.113,-4.504 2.219,0 5.102,1.445 5.102,4.981 z m -15.121,6.23 v 0.782 c 0,7.441 5.097,9.961 11.339,9.961 9.832,0 11.692,-4.082 11.692,-9.903 v -16.965 c 0,-2.996 0.183,-4.382 1.023,-6.238 h -7.922 c -0.535,1.016 -0.781,2.274 -1.011,3.359 h -0.129 c -1.914,-3.359 -4.258,-4.199 -8.211,-4.199 -5.754,0 -7.793,4.922 -7.793,9.239 0,6.054 2.461,8.515 8.152,10.066 l 4.68,1.262 c 2.461,0.664 3.301,1.621 3.301,3.777 0,2.461 -1.086,3.957 -3.84,3.957 -2.52,0 -3.836,-1.68 -3.836,-4.191 v -0.907 h -7.445" /><path
             id="path74"
             style="fill:#ffffff;fill-opacity:1;fill-rule:nonzero;stroke:none"
             d="m 284.34,235.781 h 8.269 v -9.226 h 4.797 v -5.645 h -4.797 v -17.441 c 0,-2.52 0.539,-3.547 2.942,-3.547 0.664,0 1.316,0.058 1.855,0.117 v -5.75 c -1.797,-0.176 -3.476,-0.363 -5.39,-0.363 -6.485,0 -7.676,1.984 -7.676,8.515 v 18.469 h -4.199 v 5.645 h 4.199 v 9.226" /><path
             id="path76"
             style="fill:#231f20;fill-opacity:1;fill-rule:nonzero;stroke:none"
             d="M 116.668,165.27 V 91.6719 l 253.691,0.1015 V 165.371 L 116.668,165.27" /><path
             id="path78"
             style="fill:#ffffff;fill-opacity:1;fill-rule:nonzero;stroke:none"
             d="m 143.117,121.828 v -1.262 c 0,-4.011 1.145,-6.589 5.703,-6.589 2.641,0 5.157,1.679 5.157,5.273 0,3.895 -1.981,5.34 -7.672,7.313 -7.676,2.648 -11.223,5.82 -11.223,12.96 0,8.329 5.098,12.586 13.262,12.586 7.676,0 13.254,-3.289 13.254,-11.511 v -1.192 h -8.285 c 0,4.012 -1.375,6.348 -4.676,6.348 -3.899,0 -4.914,-2.453 -4.914,-4.973 0,-2.636 0.785,-4.258 4.433,-5.82 l 6.66,-2.879 c 6.477,-2.812 8.157,-6.113 8.157,-11.328 0,-9.055 -5.52,-13.137 -14.875,-13.137 -9.774,0 -13.614,4.563 -13.614,12.473 v 1.738 h 8.633" /><path
             id="path80"
             style="fill:#ffffff;fill-opacity:1;fill-rule:nonzero;stroke:none"
             d="m 185.121,112.238 h -0.117 c -1.738,-3.183 -4.738,-4.621 -8.215,-4.621 -5.152,0 -8.223,2.824 -8.223,9.18 v 23.926 h 8.282 v -22.254 c 0,-3.235 1.078,-4.492 3.539,-4.492 2.82,0 4.375,1.738 4.375,5.332 v 21.414 h 8.277 v -32.266 h -7.918 v 3.781" /><path
             id="path82"
             style="fill:#ffffff;fill-opacity:1;fill-rule:nonzero;stroke:none"
             d="m 211.828,115.176 c 3.481,0 4.504,3.781 4.504,9.23 0,7.86 -1.023,10.801 -4.324,10.801 -3.656,0 -4.32,-2.941 -4.32,-11.641 0,-4.433 0.664,-8.39 4.14,-8.39 z m 12.414,25.547 v -30.645 c 0,-8.515 -3.777,-12.6561 -13.429,-12.6561 -7.02,0 -10.973,3.1171 -10.973,8.6331 h 7.906 c 0,-1.075 0.488,-1.914 1.262,-2.45 0.781,-0.546 1.738,-0.898 2.762,-0.898 3.363,0 4.562,2.508 4.562,5.809 v 4.257 h -0.129 c -1.68,-2.39 -4.258,-3.953 -6.894,-3.953 -6.59,0 -9.891,4.493 -9.891,16.309 0,7.559 1.141,16.434 10.137,16.434 2.273,0 5.097,-1.083 6.648,-4.442 h 0.129 v 3.602 h 7.91" /><path
             id="path84"
             style="fill:#ffffff;fill-opacity:1;fill-rule:nonzero;stroke:none"
             d="m 246.645,124.59 c -1.141,-0.84 -2.52,-1.375 -3.547,-1.621 -3.348,-0.723 -4.676,-2.332 -4.676,-5.215 0,-2.461 0.906,-4.5 3.125,-4.5 2.219,0 5.098,1.445 5.098,4.98 z m -15.118,6.23 v 0.782 c 0,7.441 5.098,9.961 11.336,9.961 9.836,0 11.692,-4.083 11.692,-9.903 v -16.961 c 0,-3 0.183,-4.386 1.023,-6.242 h -7.918 c -0.539,1.016 -0.781,2.277 -1.015,3.359 h -0.129 c -1.914,-3.359 -4.246,-4.199 -8.211,-4.199 -5.75,0 -7.793,4.922 -7.793,9.238 0,6.055 2.461,8.516 8.152,10.071 l 4.68,1.258 c 2.461,0.664 3.301,1.621 3.301,3.781 0,2.461 -1.086,3.953 -3.836,3.953 -2.524,0 -3.84,-1.68 -3.84,-4.188 v -0.91 h -7.442" /><path
             id="path86"
             style="fill:#ffffff;fill-opacity:1;fill-rule:nonzero;stroke:none"
             d="m 261.945,140.723 h 7.922 v -4.317 h 0.117 c 1.68,3.117 4.024,5.157 7.442,5.157 0.476,0 1.015,-0.067 1.496,-0.125 v -7.911 c -0.844,0.059 -1.738,0.118 -2.578,0.118 -2.883,0 -6.117,-1.497 -6.117,-5.821 v -19.367 h -8.282 v 32.266" /><path
             id="path88"
             style="fill:#ffffff;fill-opacity:1;fill-rule:nonzero;stroke:none"
             d="m 289.496,119.016 v -1.086 c 0,-2.813 1.492,-4.676 4.317,-4.676 2.519,0 4.199,1.258 4.199,3.836 0,2.101 -1.387,3.058 -2.996,3.664 l -5.825,2.098 c -4.558,1.621 -6.89,4.433 -6.89,8.996 0,5.332 3.355,9.715 11.875,9.715 7.488,0 11.035,-3.36 11.035,-9.18 v -1.317 h -7.445 c 0,3.243 -0.957,4.852 -3.661,4.852 -2.089,0 -3.894,-1.191 -3.894,-3.477 0,-1.55 0.84,-2.878 3.602,-3.777 l 4.968,-1.68 c 5.227,-1.738 7.141,-4.375 7.141,-9.23 0,-6.777 -5.039,-10.137 -11.992,-10.137 -9.297,0 -11.875,4.082 -11.875,10.254 v 1.145 h 7.441" /><path
             id="path90"
             style="fill:#231f20;fill-opacity:1;fill-rule:nonzero;stroke:none"
             d="M 92.4492,261.906 C 83.8477,247.254 64.9805,242.34 50.3438,250.941 35.6875,259.543 30.7734,278.43 39.375,293.082 c 8.6016,14.637 27.3242,19.516 42.1406,10.949 14.8125,-8.547 19.5504,-27.484 10.9336,-42.125 z m -5.8828,51 C 67.0273,324.387 42.1172,317.891 30.6211,298.348 20.5703,281 24.4141,259.32 39.0117,246.75 L 22.5742,219.129 c -1.6367,-2.789 -0.6133,-6.379 2.2422,-7.891 l 3.9453,-2.09 c 2.7188,-1.437 6.0899,-0.453 7.6016,2.227 l 15.5937,27.762 c 18.2696,-6.574 39.0664,0.625 49.172,17.828 11.461,19.535 4.992,44.465 -14.5626,55.941" /></g></g></g></g></svg>