<?xml version="1.0" encoding="UTF-8" standalone="no"?>
<svg
   xmlns:dc="http://purl.org/dc/elements/1.1/"
   xmlns:cc="http://creativecommons.org/ns#"
   xmlns:rdf="http://www.w3.org/1999/02/22-rdf-syntax-ns#"
   xmlns:svg="http://www.w3.org/2000/svg"
   xmlns="http://www.w3.org/2000/svg"
   viewBox="0 0 70.677063 53.669328"
   height="53.669331"
   width="70.677063"
   xml:space="preserve"
   id="svg2"
   version="1.1"><metadata
     id="metadata8"><rdf:RDF><cc:Work
         rdf:about=""><dc:format>image/svg+xml</dc:format><dc:type
           rdf:resource="http://purl.org/dc/dcmitype/StillImage" /></cc:Work></rdf:RDF></metadata><defs
     id="defs6"><clipPath
       id="clipPath20"
       clipPathUnits="userSpaceOnUse"><path
         id="path18"
         d="M 0,0 H 530.078 V 402.52 H 0 Z" /></clipPath></defs><g
     transform="matrix(1.3333333,0,0,-1.3333333,0,53.669332)"
     id="g10"><g
       transform="scale(0.1)"
       id="g12"><g
         id="g14"><g
           clip-path="url(#clipPath20)"
           id="g16"><path
             id="path22"
             style="fill:#ffffff;fill-opacity:1;fill-rule:nonzero;stroke:none"
             d="M 2.5,2.50391 V 400.02 H 527.574 V 2.50391 H 2.5" /><path
             id="path24"
             style="fill:#231f20;fill-opacity:1;fill-rule:nonzero;stroke:none"
             d="M 530.078,402.52 H 0 V 0 h 530.078 z m -5,-5 V 5 H 5 v 392.52 h 520.078" /><path
             id="path26"
             style="fill:#231f20;fill-opacity:1;fill-rule:nonzero;stroke:none"
             d="M 258.309,151.684 C 246.094,119.047 221.297,92.5391 189.797,77.9844 h 322.18 V 151.684 H 258.309" /><path
             id="path28"
             style="fill:#231f20;fill-opacity:1;fill-rule:nonzero;stroke:none"
             d="m 285.77,381.625 h 8.632 v -16.367 h 10.078 v 16.367 h 8.633 v -42.812 h -8.633 v 19.015 h -10.078 v -19.015 h -8.632 v 42.812" /><path
             id="path30"
             style="fill:#231f20;fill-opacity:1;fill-rule:nonzero;stroke:none"
             d="m 320.691,371.078 h 8.282 v -32.265 h -8.282 z m 0,11.035 h 8.282 v -7.078 h -8.282 v 7.078" /><path
             id="path32"
             style="fill:#231f20;fill-opacity:1;fill-rule:nonzero;stroke:none"
             d="m 348.047,345.531 c 3.476,0 4.5,3.782 4.5,9.231 0,7.859 -1.024,10.801 -4.324,10.801 -3.653,0 -4.317,-2.942 -4.317,-11.641 0,-4.434 0.664,-8.391 4.141,-8.391 z m 12.414,25.547 v -30.644 c 0,-8.516 -3.781,-12.657 -13.43,-12.657 -7.023,0 -10.976,3.118 -10.976,8.633 h 7.91 c 0,-1.074 0.488,-1.914 1.258,-2.449 0.785,-0.547 1.742,-0.898 2.765,-0.898 3.36,0 4.559,2.507 4.559,5.808 v 4.258 h -0.125 c -1.68,-2.391 -4.258,-3.953 -6.895,-3.953 -6.593,0 -9.894,4.492 -9.894,16.308 0,7.559 1.144,16.434 10.137,16.434 2.277,0 5.097,-1.082 6.652,-4.441 h 0.125 v 3.601 h 7.914" /><path
             id="path34"
             style="fill:#231f20;fill-opacity:1;fill-rule:nonzero;stroke:none"
             d="m 367.781,381.625 h 8.282 v -13.848 h 0.117 c 1.562,2.754 4.375,4.141 7.863,4.141 5.156,0 8.215,-2.82 8.215,-9.18 v -23.925 h -8.285 v 22.246 c 0,3.242 -1.075,4.504 -3.535,4.504 -2.809,0 -4.375,-1.739 -4.375,-5.344 v -21.406 h -8.282 v 42.812" /><path
             id="path36"
             style="fill:#231f20;fill-opacity:1;fill-rule:nonzero;stroke:none"
             d="m 415.488,371.078 h 8.282 v -32.265 h -8.282 z m 0,11.035 h 8.282 v -7.078 h -8.282 v 7.078" /><path
             id="path38"
             style="fill:#231f20;fill-opacity:1;fill-rule:nonzero;stroke:none"
             d="m 431.086,371.078 h 7.918 v -3.777 h 0.117 c 1.738,3.172 4.734,4.617 8.223,4.617 5.156,0 8.211,-2.82 8.211,-9.18 v -23.925 h -8.282 v 22.246 c 0,3.242 -1.074,4.504 -3.535,4.504 -2.812,0 -4.375,-1.739 -4.375,-5.344 v -21.406 h -8.277 v 32.265" /><path
             id="path40"
             style="fill:#231f20;fill-opacity:1;fill-rule:nonzero;stroke:none"
             d="m 132.723,19.2461 h -5.274 v 20.625 h -14.687 v -20.625 h -5.282 v 42.8125 h 5.282 V 44.5508 h 14.687 v 17.5078 h 5.274 V 19.2461" /><path
             id="path42"
             style="fill:#231f20;fill-opacity:1;fill-rule:nonzero;stroke:none"
             d="m 155.352,38.6797 v 1.7422 c 0,3.5898 -1.141,7.8476 -5.579,7.8476 -5.281,0 -5.878,-6.4726 -5.878,-8.3984 v -1.1914 z m -11.633,-3.9609 c 0,-4.9141 0,-12.3555 6.172,-12.3555 4.797,0 5.461,5.039 5.461,7.4414 h 5.039 c 0,-3.418 -2.043,-11.3984 -10.801,-11.3984 -7.852,0 -11.152,5.4609 -11.152,16.496 0,8.0352 1.562,17.3243 11.453,17.3243 9.836,0 10.734,-8.5743 10.734,-15.4688 v -2.039 h -16.906" /><path
             id="path44"
             style="fill:#231f20;fill-opacity:1;fill-rule:nonzero;stroke:none"
             d="m 180.906,36.7578 c -1.855,-1.9844 -6.289,-2.4023 -8.57,-3.7812 -1.621,-1.0118 -2.465,-2.2735 -2.465,-5.0938 0,-3.2344 1.145,-5.5195 4.563,-5.5195 3.3,0 6.472,2.8203 6.472,6.1211 z m -15.523,4.9219 c 0,7.3125 3.113,10.5469 10.789,10.5469 9.773,0 9.773,-5.8711 9.773,-9.2305 V 25.0664 c 0,-1.3164 0,-2.5781 1.563,-2.5781 0.656,0 0.957,0.1172 1.203,0.293 v -3.5938 c -0.363,-0.0547 -1.68,-0.3008 -2.941,-0.3008 -1.922,0 -4.317,0 -4.559,4.1406 h -0.117 c -1.621,-2.8828 -4.739,-4.621 -7.735,-4.621 -5.996,0 -8.761,3.5976 -8.761,9.3554 0,4.5039 1.925,7.6211 6.054,8.8789 l 6.778,2.0391 c 3.664,1.1328 3.664,2.1601 3.664,4.8555 0,2.9961 -1.797,4.7343 -5.156,4.7343 -5.516,0 -5.516,-5.1562 -5.516,-6.2968 v -0.293 h -5.039" /><path
             id="path46"
             style="fill:#231f20;fill-opacity:1;fill-rule:nonzero;stroke:none"
             d="m 193.094,62.0586 h 5.039 V 19.2461 h -5.039 v 42.8125" /><path
             id="path48"
             style="fill:#231f20;fill-opacity:1;fill-rule:nonzero;stroke:none"
             d="m 206.531,60.7422 h 5.039 v -9.3555 h 5.578 v -3.957 h -5.578 v -20.625 c 0,-2.5781 0.664,-3.6016 3.301,-3.6016 1.074,0 1.68,0.125 2.219,0.1836 v -4.1406 c -0.664,-0.1133 -1.985,-0.3594 -4.082,-0.3594 -5.215,0 -6.477,2.1602 -6.477,6.3555 v 22.1875 h -4.676 v 3.957 h 4.676 v 9.3555" /><path
             id="path50"
             style="fill:#231f20;fill-opacity:1;fill-rule:nonzero;stroke:none"
             d="m 220.586,62.0586 h 5.039 V 47.7344 h 0.117 c 1.317,2.6367 4.852,4.4922 7.735,4.4922 8.269,0 8.269,-6.418 8.269,-10.1953 V 19.2461 h -5.027 v 22.1875 c 0,2.4609 -0.188,6.4766 -4.746,6.4766 -2.696,0 -6.348,-1.7969 -6.348,-6.4766 V 19.2461 h -5.039 v 42.8125" /><path
             id="path52"
             style="fill:#231f20;fill-opacity:1;fill-rule:nonzero;stroke:none"
             d="m 289.148,33.9336 c -0.488,-8.0938 -3.66,-15.5273 -13.015,-15.5273 -12.168,0 -13.789,11.457 -13.789,22.246 0,10.8008 1.972,22.2461 13.789,22.2461 8.758,0 12.414,-4.9101 12.656,-13.3086 h -5.519 c -0.118,4.8633 -1.68,8.9961 -7.137,8.9961 -7.317,0 -8.274,-8.039 -8.274,-17.9336 0,-9.8906 0.957,-17.9296 8.274,-17.9296 6.414,0 7.312,6 7.5,11.2109 h 5.515" /><path
             id="path54"
             style="fill:#231f20;fill-opacity:1;fill-rule:nonzero;stroke:none"
             d="m 308.641,36.7578 c -1.856,-1.9844 -6.289,-2.4023 -8.575,-3.7812 -1.621,-1.0118 -2.461,-2.2735 -2.461,-5.0938 0,-3.2344 1.145,-5.5195 4.563,-5.5195 3.301,0 6.473,2.8203 6.473,6.1211 z m -15.528,4.9219 c 0,7.3125 3.117,10.5469 10.793,10.5469 9.774,0 9.774,-5.8711 9.774,-9.2305 V 25.0664 c 0,-1.3164 0,-2.5781 1.562,-2.5781 0.656,0 0.957,0.1172 1.203,0.293 v -3.5938 c -0.359,-0.0547 -1.679,-0.3008 -2.937,-0.3008 -1.926,0 -4.32,0 -4.563,4.1406 h -0.117 c -1.621,-2.8828 -4.738,-4.621 -7.734,-4.621 -5.996,0 -8.758,3.5976 -8.758,9.3554 0,4.5039 1.922,7.6211 6.051,8.8789 l 6.777,2.0391 c 3.664,1.1328 3.664,2.1601 3.664,4.8555 0,2.9961 -1.797,4.7343 -5.156,4.7343 -5.52,0 -5.52,-5.1562 -5.52,-6.2968 v -0.293 h -5.039" /><path
             id="path56"
             style="fill:#231f20;fill-opacity:1;fill-rule:nonzero;stroke:none"
             d="m 320.535,51.3867 h 4.797 v -3.7695 h 0.117 c 1.317,2.9297 4.68,4.6094 7.805,4.6094 8.445,0 8.445,-6.418 8.445,-10.1953 V 19.2461 h -5.027 v 22.1875 c 0,2.4609 -0.188,6.4766 -4.75,6.4766 -2.695,0 -6.348,-1.7969 -6.348,-6.4766 V 19.2461 h -5.039 v 32.1406" /><path
             id="path58"
             style="fill:#231f20;fill-opacity:1;fill-rule:nonzero;stroke:none"
             d="m 363.066,36.7578 c -1.855,-1.9844 -6.289,-2.4023 -8.574,-3.7812 -1.621,-1.0118 -2.461,-2.2735 -2.461,-5.0938 0,-3.2344 1.141,-5.5195 4.559,-5.5195 3.301,0 6.476,2.8203 6.476,6.1211 z m -15.527,4.9219 c 0,7.3125 3.113,10.5469 10.789,10.5469 9.777,0 9.777,-5.8711 9.777,-9.2305 V 25.0664 c 0,-1.3164 0,-2.5781 1.563,-2.5781 0.652,0 0.957,0.1172 1.199,0.293 v -3.5938 c -0.359,-0.0547 -1.679,-0.3008 -2.937,-0.3008 -1.922,0 -4.317,0 -4.563,4.1406 h -0.113 c -1.621,-2.8828 -4.738,-4.621 -7.738,-4.621 -5.996,0 -8.758,3.5976 -8.758,9.3554 0,4.5039 1.922,7.6211 6.055,8.8789 l 6.777,2.0391 c 3.664,1.1328 3.664,2.1601 3.664,4.8555 0,2.9961 -1.801,4.7343 -5.16,4.7343 -5.516,0 -5.516,-5.1562 -5.516,-6.2968 v -0.293 h -5.039" /><path
             id="path60"
             style="fill:#231f20;fill-opacity:1;fill-rule:nonzero;stroke:none"
             d="m 384.91,22.7227 c 5.578,0 6.477,5.2851 6.477,12.5976 0,6.2344 -1.074,12.5899 -6.477,12.5899 -4.676,0 -5.879,-4.9141 -5.879,-12.5899 0,-7.6758 1.203,-12.5976 5.879,-12.5976 z m 11.211,-3.4766 h -4.793 v 3.957 h -0.117 c -0.664,-2.3945 -3.477,-4.7968 -6.953,-4.7968 -7.617,0 -10.5,6.7773 -10.5,16.914 0,6.711 1.078,16.9063 10.137,16.9063 2.871,0 5.941,-1.7383 7.07,-4.4922 h 0.129 v 14.3242 h 5.027 V 19.2461" /><path
             id="path62"
             style="fill:#231f20;fill-opacity:1;fill-rule:nonzero;stroke:none"
             d="m 417.48,36.7578 c -1.855,-1.9844 -6.289,-2.4023 -8.574,-3.7812 -1.621,-1.0118 -2.461,-2.2735 -2.461,-5.0938 0,-3.2344 1.145,-5.5195 4.563,-5.5195 3.297,0 6.472,2.8203 6.472,6.1211 z m -15.527,4.9219 c 0,7.3125 3.113,10.5469 10.789,10.5469 9.778,0 9.778,-5.8711 9.778,-9.2305 V 25.0664 c 0,-1.3164 0,-2.5781 1.562,-2.5781 0.652,0 0.957,0.1172 1.199,0.293 v -3.5938 c -0.359,-0.0547 -1.679,-0.3008 -2.937,-0.3008 -1.922,0 -4.317,0 -4.563,4.1406 h -0.113 c -1.621,-2.8828 -4.738,-4.621 -7.738,-4.621 -5.996,0 -8.758,3.5976 -8.758,9.3554 0,4.5039 1.922,7.6211 6.055,8.8789 l 6.777,2.0391 c 3.664,1.1328 3.664,2.1601 3.664,4.8555 0,2.9961 -1.801,4.7343 -5.16,4.7343 -5.516,0 -5.516,-5.1562 -5.516,-6.2968 v -0.293 h -5.039" /><path
             id="path64"
             style="fill:#ffffff;fill-opacity:1;fill-rule:nonzero;stroke:none"
             d="m 292.734,107.781 v -1.258 c 0,-4.011 1.145,-6.5933 5.704,-6.5933 2.636,0 5.156,1.6793 5.156,5.2733 0,3.899 -1.985,5.344 -7.676,7.317 -7.676,2.644 -11.223,5.82 -11.223,12.957 0,8.332 5.102,12.589 13.266,12.589 7.672,0 13.25,-3.293 13.25,-11.511 v -1.196 h -8.281 c 0,4.016 -1.379,6.352 -4.676,6.352 -3.899,0 -4.914,-2.453 -4.914,-4.973 0,-2.636 0.781,-4.258 4.433,-5.82 l 6.661,-2.883 c 6.472,-2.812 8.156,-6.109 8.156,-11.324 0,-9.0547 -5.52,-13.1368 -14.875,-13.1368 -9.777,0 -13.613,4.5625 -13.613,12.4728 v 1.734 h 8.632" /><path
             id="path66"
             style="fill:#ffffff;fill-opacity:1;fill-rule:nonzero;stroke:none"
             d="m 329.813,99.2109 c 3.359,0 4.433,3.3011 4.433,11.3361 0,8.039 -1.074,11.328 -4.433,11.328 -4.083,0 -4.442,-4.738 -4.442,-11.328 0,-6.602 0.359,-11.3361 4.442,-11.3361 z m 0,28.3091 c 9.953,0.175 12.714,-5.762 12.714,-16.973 0,-11.0353 -3.242,-16.9728 -12.714,-16.9728 -9.961,-0.1758 -12.715,5.7617 -12.715,16.9728 0,11.035 3.242,16.973 12.715,16.973" /><path
             id="path68"
             style="fill:#ffffff;fill-opacity:1;fill-rule:nonzero;stroke:none"
             d="m 360.293,99.9297 c 3.66,0 4.375,3.5933 4.375,10.6173 0,7.012 -0.715,10.613 -4.375,10.613 -3.594,0 -4.316,-3.601 -4.316,-10.613 0,-7.024 0.722,-10.6173 4.316,-10.6173 z m 4.734,-2.0977 h -0.117 c -1.797,-2.9961 -4.082,-4.2578 -7.312,-4.2578 -6.778,0 -9.895,4.9805 -9.895,16.9728 0,11.992 3.117,16.973 9.895,16.973 3.117,0 5.215,-1.258 6.953,-3.84 h 0.117 v 13.547 h 8.281 V 94.4141 h -7.922 v 3.4179" /><path
             id="path70"
             style="fill:#ffffff;fill-opacity:1;fill-rule:nonzero;stroke:none"
             d="m 380.281,126.68 h 8.282 V 94.4141 h -8.282 z m 0,11.035 h 8.282 v -7.078 h -8.282 v 7.078" /><path
             id="path72"
             style="fill:#ffffff;fill-opacity:1;fill-rule:nonzero;stroke:none"
             d="m 412.43,98.1914 h -0.117 c -1.739,-3.1797 -4.735,-4.6172 -8.211,-4.6172 -5.157,0 -8.223,2.8203 -8.223,9.1798 v 23.926 h 8.281 v -22.254 c 0,-3.235 1.074,-4.4963 3.535,-4.4963 2.821,0 4.375,1.7423 4.375,5.3323 v 21.418 h 8.282 V 94.4141 h -7.922 v 3.7773" /><path
             id="path74"
             style="fill:#ffffff;fill-opacity:1;fill-rule:nonzero;stroke:none"
             d="m 427.371,126.68 h 7.922 v -3.301 h 0.117 c 2.098,2.937 4.68,4.141 8.153,4.141 3.781,0 6.542,-1.868 7.445,-5.157 h 0.113 c 1.262,3.418 4.262,5.157 8.156,5.157 5.457,0 8.036,-3.418 8.036,-9.661 V 94.4141 h -8.27 v 22.5509 c 0,2.691 -0.898,4.195 -3.242,4.195 -2.637,0 -4.317,-1.797 -4.317,-5.515 V 94.4141 h -8.269 v 22.5509 c 0,2.691 -0.91,4.195 -3.246,4.195 -2.633,0 -4.317,-1.797 -4.317,-5.515 V 94.4141 h -8.281 V 126.68" /><path
             id="path76"
             style="fill:#231f20;fill-opacity:1;fill-rule:nonzero;stroke:none"
             d="m 184.742,320.344 c 33.18,-13.668 59.547,-40.371 72.731,-73.699 h 254.812 v 73.699 H 184.742" /><path
             id="path78"
             style="fill:#231f20;fill-opacity:1;fill-rule:nonzero;stroke:none"
             d="m 261.02,236.016 c 3.617,-12.028 5.585,-24.762 5.585,-37.961 0,-12.395 -1.75,-24.371 -4.953,-35.742 h 250.551 v 73.703 H 261.02" /><path
             id="path80"
             style="fill:#ffffff;fill-opacity:1;fill-rule:nonzero;stroke:none"
             d="m 292.734,192.004 v -1.262 c 0,-4.015 1.145,-6.594 5.704,-6.594 2.636,0 5.156,1.68 5.156,5.278 0,3.894 -1.985,5.34 -7.676,7.312 -7.676,2.649 -11.223,5.821 -11.223,12.957 0,8.332 5.102,12.59 13.266,12.59 7.672,0 13.25,-3.293 13.25,-11.515 v -1.192 h -8.281 c 0,4.016 -1.379,6.352 -4.676,6.352 -3.899,0 -4.914,-2.453 -4.914,-4.973 0,-2.637 0.781,-4.258 4.433,-5.82 l 6.661,-2.879 c 6.472,-2.817 8.156,-6.117 8.156,-11.328 0,-9.055 -5.52,-13.137 -14.875,-13.137 -9.777,0 -13.613,4.559 -13.613,12.469 v 1.742 h 8.632" /><path
             id="path82"
             style="fill:#ffffff;fill-opacity:1;fill-rule:nonzero;stroke:none"
             d="m 334.727,182.41 h -0.118 c -1.738,-3.183 -4.738,-4.617 -8.214,-4.617 -5.157,0 -8.223,2.82 -8.223,9.18 v 23.925 h 8.281 v -22.257 c 0,-3.231 1.074,-4.493 3.535,-4.493 2.825,0 4.375,1.739 4.375,5.332 v 21.418 h 8.282 v -32.265 h -7.918 v 3.777" /><path
             id="path84"
             style="fill:#ffffff;fill-opacity:1;fill-rule:nonzero;stroke:none"
             d="m 361.434,185.352 c 3.476,0 4.504,3.781 4.504,9.226 0,7.863 -1.028,10.805 -4.329,10.805 -3.648,0 -4.312,-2.942 -4.312,-11.645 0,-4.433 0.664,-8.386 4.137,-8.386 z m 12.414,25.546 v -30.644 c 0,-8.516 -3.782,-12.656 -13.426,-12.656 -7.024,0 -10.981,3.117 -10.981,8.632 h 7.911 c 0,-1.074 0.488,-1.914 1.261,-2.453 0.782,-0.547 1.746,-0.906 2.766,-0.906 3.355,0 4.559,2.52 4.559,5.82 v 4.258 h -0.129 c -1.676,-2.402 -4.258,-3.957 -6.891,-3.957 -6.594,0 -9.895,4.492 -9.895,16.313 0,7.554 1.145,16.433 10.137,16.433 2.274,0 5.098,-1.086 6.649,-4.441 h 0.129 v 3.601 h 7.91" /><path
             id="path86"
             style="fill:#ffffff;fill-opacity:1;fill-rule:nonzero;stroke:none"
             d="m 396.238,194.766 c -1.14,-0.84 -2.519,-1.379 -3.543,-1.621 -3.351,-0.723 -4.679,-2.336 -4.679,-5.215 0,-2.461 0.91,-4.5 3.125,-4.5 2.218,0 5.097,1.441 5.097,4.976 z m -15.117,6.23 v 0.781 c 0,7.442 5.098,9.961 11.34,9.961 9.836,0 11.687,-4.082 11.687,-9.902 v -16.965 c 0,-2.996 0.188,-4.383 1.028,-6.238 h -7.918 c -0.539,1.015 -0.785,2.273 -1.02,3.359 h -0.125 c -1.914,-3.359 -4.25,-4.199 -8.215,-4.199 -5.75,0 -7.793,4.922 -7.793,9.238 0,6.055 2.461,8.516 8.157,10.067 l 4.676,1.261 c 2.46,0.664 3.3,1.621 3.3,3.778 0,2.461 -1.082,3.957 -3.836,3.957 -2.519,0 -3.839,-1.68 -3.839,-4.192 v -0.906 h -7.442" /><path
             id="path88"
             style="fill:#ffffff;fill-opacity:1;fill-rule:nonzero;stroke:none"
             d="m 411.531,210.898 h 7.922 v -4.316 h 0.117 c 1.68,3.113 4.024,5.156 7.442,5.156 0.476,0 1.015,-0.066 1.496,-0.129 v -7.91 c -0.84,0.063 -1.742,0.117 -2.582,0.117 -2.879,0 -6.113,-1.492 -6.113,-5.82 v -19.363 h -8.282 v 32.265" /><path
             id="path90"
             style="fill:#ffffff;fill-opacity:1;fill-rule:nonzero;stroke:none"
             d="m 439.082,189.188 v -1.083 c 0,-2.812 1.492,-4.675 4.316,-4.675 2.52,0 4.2,1.258 4.2,3.836 0,2.097 -1.387,3.054 -3,3.664 l -5.821,2.097 c -4.558,1.621 -6.894,4.434 -6.894,8.993 0,5.332 3.359,9.718 11.875,9.718 7.492,0 11.039,-3.359 11.039,-9.179 v -1.321 h -7.445 c 0,3.242 -0.957,4.856 -3.653,4.856 -2.097,0 -3.902,-1.192 -3.902,-3.477 0,-1.554 0.836,-2.871 3.601,-3.777 l 4.969,-1.684 c 5.227,-1.734 7.141,-4.375 7.141,-9.226 0,-6.778 -5.039,-10.137 -11.992,-10.137 -9.297,0 -11.875,4.082 -11.875,10.254 v 1.141 h 7.441" /><path
             id="path92"
             style="fill:#ffffff;fill-opacity:1;fill-rule:nonzero;stroke:none"
             d="m 292.734,276.215 v -1.258 c 0,-4.016 1.145,-6.594 5.704,-6.594 2.636,0 5.156,1.68 5.156,5.274 0,3.898 -1.985,5.343 -7.676,7.316 -7.676,2.645 -11.223,5.82 -11.223,12.957 0,8.332 5.102,12.59 13.266,12.59 7.672,0 13.25,-3.293 13.25,-11.516 v -1.191 h -8.281 c 0,4.016 -1.379,6.348 -4.676,6.348 -3.899,0 -4.914,-2.45 -4.914,-4.969 0,-2.637 0.781,-4.258 4.433,-5.82 l 6.661,-2.883 c 6.472,-2.813 8.156,-6.114 8.156,-11.328 0,-9.051 -5.52,-13.133 -14.875,-13.133 -9.777,0 -13.613,4.558 -13.613,12.469 v 1.738 h 8.632" /><path
             id="path94"
             style="fill:#ffffff;fill-opacity:1;fill-rule:nonzero;stroke:none"
             d="m 333.23,278.98 c -1.14,-0.839 -2.515,-1.378 -3.542,-1.621 -3.348,-0.722 -4.68,-2.336 -4.68,-5.214 0,-2.461 0.91,-4.504 3.125,-4.504 2.219,0 5.097,1.445 5.097,4.98 z m -15.117,6.231 v 0.781 c 0,7.442 5.102,9.961 11.34,9.961 9.832,0 11.688,-4.082 11.688,-9.902 v -16.965 c 0,-2.996 0.187,-4.383 1.027,-6.238 h -7.922 c -0.535,1.015 -0.781,2.273 -1.016,3.359 h -0.125 c -1.914,-3.359 -4.25,-4.199 -8.214,-4.199 -5.75,0 -7.793,4.922 -7.793,9.238 0,6.055 2.461,8.516 8.156,10.067 l 4.676,1.261 c 2.461,0.664 3.3,1.621 3.3,3.778 0,2.461 -1.082,3.957 -3.835,3.957 -2.52,0 -3.84,-1.68 -3.84,-4.192 v -0.906 h -7.442" /><path
             id="path96"
             style="fill:#ffffff;fill-opacity:1;fill-rule:nonzero;stroke:none"
             d="m 350.34,304.34 h 8.273 v -9.227 h 4.793 v -5.644 h -4.793 v -17.442 c 0,-2.519 0.535,-3.547 2.938,-3.547 0.664,0 1.32,0.059 1.855,0.129 v -5.761 c -1.797,-0.176 -3.476,-0.364 -5.39,-0.364 -6.485,0 -7.676,1.985 -7.676,8.516 v 18.469 h -4.199 v 5.644 h 4.199 v 9.227" /><path
             id="path98"
             style="fill:#ffffff;fill-opacity:1;fill-rule:nonzero;stroke:none"
             d="m 385.496,289.469 h -4.199 v 5.644 h 4.199 v 3.653 c 0,5.82 3.293,7.734 8.637,7.734 1.492,0 2.937,-0.059 4.43,-0.176 v -5.879 c -0.536,0.059 -1.075,0.059 -1.61,0.059 -2.344,0 -3.183,-0.715 -3.183,-2.578 v -2.813 h 4.793 v -5.644 h -4.793 v -26.621 h -8.274 v 26.621" /><path
             id="path100"
             style="fill:#ffffff;fill-opacity:1;fill-rule:nonzero;stroke:none"
             d="m 416.816,278.98 c -1.144,-0.839 -2.519,-1.378 -3.546,-1.621 -3.348,-0.722 -4.668,-2.336 -4.668,-5.214 0,-2.461 0.902,-4.504 3.117,-4.504 2.215,0 5.097,1.445 5.097,4.98 z m -15.117,6.231 v 0.781 c 0,7.442 5.098,9.961 11.336,9.961 9.836,0 11.692,-4.082 11.692,-9.902 v -16.965 c 0,-2.996 0.183,-4.383 1.027,-6.238 h -7.922 c -0.535,1.015 -0.781,2.273 -1.016,3.359 h -0.128 c -1.915,-3.359 -4.258,-4.199 -8.211,-4.199 -5.754,0 -7.793,4.922 -7.793,9.238 0,6.055 2.461,8.516 8.156,10.067 l 4.676,1.261 c 2.461,0.664 3.3,1.621 3.3,3.778 0,2.461 -1.086,3.957 -3.839,3.957 -2.516,0 -3.836,-1.68 -3.836,-4.192 v -0.906 h -7.442" /><path
             id="path102"
             style="fill:#ffffff;fill-opacity:1;fill-rule:nonzero;stroke:none"
             d="m 433.926,304.34 h 8.269 v -9.227 h 4.797 v -5.644 h -4.797 v -17.442 c 0,-2.519 0.539,-3.547 2.942,-3.547 0.664,0 1.316,0.059 1.855,0.129 v -5.761 c -1.797,-0.176 -3.476,-0.364 -5.39,-0.364 -6.473,0 -7.676,1.985 -7.676,8.516 v 18.469 h -4.199 v 5.644 h 4.199 v 9.227" /><path
             id="path104"
             style="fill:#231f20;fill-opacity:1;fill-rule:nonzero;stroke:none"
             d="m 199.016,156.758 c -21.801,-37.141 -69.618,-49.59 -106.7152,-27.785 -37.1406,21.8 -49.5977,69.66 -27.7969,106.8 21.8047,37.098 69.2581,49.461 106.8051,27.75 37.543,-21.664 49.554,-69.664 27.707,-106.765 z M 184.113,286.02 C 134.59,315.113 71.4609,298.645 42.3242,249.117 16.8477,205.152 26.582,150.203 63.582,118.348 L 21.9219,48.3438 c -4.1406,-7.0704 -1.5547,-16.168 5.6875,-20.004 l 9.9961,-5.289 c 6.8906,-3.6485 15.4297,-1.1485 19.2695,5.6367 L 96.3906,99.0547 C 142.699,82.3828 195.41,100.629 221.016,144.23 c 29.054,49.516 12.66,112.7 -36.903,141.79" /></g></g></g></g></svg>