<?xml version="1.0" encoding="UTF-8" standalone="no"?>
<svg
   xmlns:dc="http://purl.org/dc/elements/1.1/"
   xmlns:cc="http://creativecommons.org/ns#"
   xmlns:rdf="http://www.w3.org/1999/02/22-rdf-syntax-ns#"
   xmlns:svg="http://www.w3.org/2000/svg"
   xmlns="http://www.w3.org/2000/svg"
   viewBox="0 0 66.141731 82.771862"
   height="82.771866"
   width="66.141731"
   xml:space="preserve"
   id="svg2"
   version="1.1"><metadata
     id="metadata8"><rdf:RDF><cc:Work
         rdf:about=""><dc:format>image/svg+xml</dc:format><dc:type
           rdf:resource="http://purl.org/dc/dcmitype/StillImage" /></cc:Work></rdf:RDF></metadata><defs
     id="defs6"><clipPath
       id="clipPath20"
       clipPathUnits="userSpaceOnUse"><path
         id="path18"
         d="M 0,0 H 496.063 V 620.789 H 0 Z" /></clipPath></defs><g
     transform="matrix(1.3333333,0,0,-1.3333333,0,82.771865)"
     id="g10"><g
       transform="scale(0.1)"
       id="g12"><g
         id="g14"><g
           clip-path="url(#clipPath20)"
           id="g16"><path
             id="path22"
             style="fill:#ffffff;fill-opacity:1;fill-rule:nonzero;stroke:none"
             d="M 2.49609,2.50391 V 618.289 H 493.566 V 2.50391 H 2.49609" /><path
             id="path24"
             style="fill:#231f20;fill-opacity:1;fill-rule:nonzero;stroke:none"
             d="M 496.063,620.789 H 0 V 0 h 496.063 z m -5,-5 V 5 H 5 v 610.789 h 486.063" /><path
             id="path26"
             style="fill:#231f20;fill-opacity:1;fill-rule:nonzero;stroke:none"
             d="m 193.754,552.039 h 11.512 v -21.832 h 13.437 v 21.832 h 11.516 v -57.09 h -11.516 v 25.348 h -13.437 v -25.348 h -11.512 v 57.09" /><path
             id="path28"
             style="fill:#231f20;fill-opacity:1;fill-rule:nonzero;stroke:none"
             d="m 240.324,537.965 h 11.028 v -43.016 h -11.028 z m 0,14.715 h 11.028 v -9.442 h -11.028 v 9.442" /><path
             id="path30"
             style="fill:#231f20;fill-opacity:1;fill-rule:nonzero;stroke:none"
             d="m 276.789,503.902 c 4.641,0 5.996,5.039 5.996,12.317 0,10.472 -1.355,14.39 -5.75,14.39 -4.883,0 -5.762,-3.918 -5.762,-15.515 0,-5.91 0.879,-11.192 5.516,-11.192 z m 16.555,34.063 v -40.86 c 0,-11.351 -5.039,-16.867 -17.91,-16.867 -9.356,0 -14.629,4.153 -14.629,11.512 h 10.554 c 0,-1.441 0.637,-2.559 1.68,-3.277 1.035,-0.723 2.316,-1.2 3.672,-1.2 4.484,0 6.074,3.36 6.074,7.754 v 5.676 h -0.156 c -2.234,-3.195 -5.672,-5.277 -9.188,-5.277 -8.8,0 -13.195,5.996 -13.195,21.75 0,10.078 1.516,21.91 13.508,21.91 3.035,0 6.797,-1.441 8.875,-5.918 h 0.156 v 4.797 h 10.559" /><path
             id="path32"
             style="fill:#231f20;fill-opacity:1;fill-rule:nonzero;stroke:none"
             d="m 303.117,552.039 h 11.028 v -18.473 h 0.164 c 2.082,3.676 5.839,5.52 10.468,5.52 6.887,0 10.957,-3.762 10.957,-12.234 v -31.903 h -11.035 v 29.664 c 0,4.317 -1.433,5.996 -4.715,5.996 -3.761,0 -5.839,-2.32 -5.839,-7.117 v -28.543 h -11.028 v 57.09" /><path
             id="path34"
             style="fill:#231f20;fill-opacity:1;fill-rule:nonzero;stroke:none"
             d="m 366.723,537.965 h 11.023 v -43.016 h -11.023 z m 0,14.715 h 11.023 v -9.442 h -11.023 v 9.442" /><path
             id="path36"
             style="fill:#231f20;fill-opacity:1;fill-rule:nonzero;stroke:none"
             d="m 387.523,537.965 h 10.547 v -5.039 h 0.164 c 2.317,4.238 6.321,6.16 10.95,6.16 6.882,0 10.957,-3.762 10.957,-12.234 v -31.903 h -11.036 v 29.664 c 0,4.317 -1.437,5.996 -4.718,5.996 -3.758,0 -5.828,-2.32 -5.828,-7.117 v -28.543 h -11.036 v 43.016" /><path
             id="path38"
             style="fill:#ffffff;fill-opacity:1;fill-rule:nonzero;stroke:none"
             d="m 88.9766,328.688 v 94.214 H 465.051 V 328.688 H 88.9766" /><path
             id="path40"
             style="fill:#231f20;fill-opacity:1;fill-rule:nonzero;stroke:none"
             d="M 467.555,425.402 H 86.4766 V 326.188 H 467.555 Z m -5,-5 V 331.188 H 91.4766 v 89.214 H 462.555" /><path
             id="path42"
             style="fill:#ffffff;fill-opacity:1;fill-rule:nonzero;stroke:none"
             d="m 88.9766,213.828 v 94.211 H 465.051 V 213.828 H 88.9766" /><path
             id="path44"
             style="fill:#231f20;fill-opacity:1;fill-rule:nonzero;stroke:none"
             d="M 467.555,310.539 H 86.4766 V 211.328 H 467.555 Z m -5,-5 V 216.328 H 91.4766 v 89.211 H 462.555" /><path
             id="path46"
             style="fill:#231f20;fill-opacity:1;fill-rule:nonzero;stroke:none"
             d="M 86.4766,197.008 V 97.7969 H 467.555 V 197.008 H 86.4766" /><path
             id="path48"
             style="fill:#ffffff;fill-opacity:1;fill-rule:nonzero;stroke:none"
             d="m 143.898,139.289 v -1.68 c 0,-5.363 1.524,-8.796 7.598,-8.796 3.516,0 6.875,2.234 6.875,7.039 0,5.195 -2.637,7.109 -10.234,9.746 -10.235,3.523 -14.949,7.765 -14.949,17.273 0,11.117 6.796,16.789 17.664,16.789 10.234,0 17.675,-4.394 17.675,-15.351 v -1.59 h -11.035 c 0,5.351 -1.836,8.465 -6.238,8.465 -5.195,0 -6.555,-3.274 -6.555,-6.629 0,-3.52 1.035,-5.676 5.918,-7.754 l 8.879,-3.84 c 8.633,-3.758 10.867,-8.152 10.867,-15.117 0,-12.071 -7.351,-17.508 -19.824,-17.508 -13.035,0 -18.152,6.074 -18.152,16.629 v 2.324 h 11.511" /><path
             id="path50"
             style="fill:#ffffff;fill-opacity:1;fill-rule:nonzero;stroke:none"
             d="m 193.344,127.855 c 4.472,0 5.918,4.391 5.918,15.106 0,10.715 -1.446,15.117 -5.918,15.117 -5.442,0 -5.918,-6.316 -5.918,-15.117 0,-8.789 0.476,-15.106 5.918,-15.106 z m 0,37.735 c 13.269,0.242 16.953,-7.68 16.953,-22.629 0,-14.707 -4.317,-22.625 -16.953,-22.625 -13.274,-0.234 -16.953,7.676 -16.953,22.625 0,14.719 4.316,22.629 16.953,22.629" /><path
             id="path52"
             style="fill:#ffffff;fill-opacity:1;fill-rule:nonzero;stroke:none"
             d="m 233.988,128.813 c 4.871,0 5.828,4.792 5.828,14.148 0,9.355 -0.957,14.152 -5.828,14.152 -4.804,0 -5.761,-4.797 -5.761,-14.152 0,-9.356 0.957,-14.148 5.761,-14.148 z m 6.309,-2.805 h -0.156 c -2.403,-3.992 -5.442,-5.672 -9.758,-5.672 -9.031,0 -13.192,6.641 -13.192,22.625 0,15.996 4.161,22.629 13.192,22.629 4.16,0 6.953,-1.68 9.277,-5.117 h 0.156 v 18.074 h 11.036 v -57.09 h -10.555 v 4.551" /><path
             id="path54"
             style="fill:#ffffff;fill-opacity:1;fill-rule:nonzero;stroke:none"
             d="m 260.629,164.477 h 11.023 v -43.02 h -11.023 z m 0,14.707 h 11.023 v -9.438 h -11.023 v 9.438" /><path
             id="path56"
             style="fill:#ffffff;fill-opacity:1;fill-rule:nonzero;stroke:none"
             d="m 303.488,126.496 h -0.156 c -2.312,-4.238 -6.316,-6.16 -10.957,-6.16 -6.875,0 -10.945,3.758 -10.945,12.234 v 31.907 h 11.035 v -29.668 c 0,-4.317 1.433,-5.996 4.715,-5.996 3.75,0 5.832,2.312 5.832,7.117 v 28.547 h 11.035 v -43.02 h -10.559 v 5.039" /><path
             id="path58"
             style="fill:#ffffff;fill-opacity:1;fill-rule:nonzero;stroke:none"
             d="m 323.43,164.477 h 10.547 v -4.407 h 0.168 c 2.793,3.926 6.23,5.52 10.867,5.52 5.039,0 8.722,-2.481 9.914,-6.875 h 0.164 c 1.68,4.558 5.676,6.875 10.871,6.875 7.273,0 10.723,-4.555 10.723,-12.871 v -31.262 h -11.036 v 30.059 c 0,3.605 -1.203,5.597 -4.316,5.597 -3.527,0 -5.762,-2.394 -5.762,-7.355 v -28.301 h -11.035 v 30.059 c 0,3.605 -1.203,5.597 -4.316,5.597 -3.516,0 -5.762,-2.394 -5.762,-7.355 V 121.457 H 323.43 v 43.02" /><path
             id="path60"
             style="fill:#231f20;fill-opacity:1;fill-rule:nonzero;stroke:none"
             d="M 90.8047,27.543 H 84.6406 V 51.6328 H 67.4844 V 27.543 h -6.1641 v 50 h 6.1641 V 57.0938 H 84.6406 V 77.543 h 6.1641 v -50" /><path
             id="path62"
             style="fill:#231f20;fill-opacity:1;fill-rule:nonzero;stroke:none"
             d="m 117.191,50.2266 v 2.0312 c 0,4.211 -1.328,9.1797 -6.515,9.1797 -6.16,0 -6.863,-7.5664 -6.863,-9.8047 v -1.4062 z m -13.593,-4.6172 c 0,-5.7422 0,-14.4258 7.215,-14.4258 5.605,0 6.378,5.8789 6.378,8.6836 h 5.879 c 0,-3.9961 -2.382,-13.3125 -12.609,-13.3125 -9.168,0 -13.0274,6.3789 -13.0274,19.2695 0,9.3828 1.8281,20.2344 13.3794,20.2344 11.484,0 12.539,-10.0117 12.539,-18.0664 v -2.3828 h -19.754" /><path
             id="path64"
             style="fill:#231f20;fill-opacity:1;fill-rule:nonzero;stroke:none"
             d="m 147.004,47.9922 c -2.176,-2.3164 -7.352,-2.8047 -10.02,-4.4141 -1.882,-1.1914 -2.871,-2.6562 -2.871,-5.9492 0,-3.7891 1.328,-6.4453 5.325,-6.4453 3.855,0 7.566,3.293 7.566,7.1406 z m -18.145,5.7422 c 0,8.5429 3.645,12.3242 12.61,12.3242 11.414,0 11.414,-6.8672 11.414,-10.7813 V 34.3281 c 0,-1.5312 0,-3.0078 1.828,-3.0078 0.769,0 1.113,0.1367 1.394,0.3516 v -4.1992 c -0.417,-0.0782 -1.96,-0.3516 -3.425,-0.3516 -2.246,0 -5.051,0 -5.325,4.832 h -0.144 c -1.887,-3.3672 -5.527,-5.3984 -9.035,-5.3984 -7,0 -10.223,4.2109 -10.223,10.9297 0,5.2539 2.235,8.8945 7.07,10.3711 l 7.918,2.3711 c 4.27,1.3398 4.27,2.5312 4.27,5.6757 0,3.504 -2.102,5.5352 -6.027,5.5352 -6.434,0 -6.434,-6.0273 -6.434,-7.3516 v -0.3515 h -5.891" /><path
             id="path66"
             style="fill:#231f20;fill-opacity:1;fill-rule:nonzero;stroke:none"
             d="m 161.195,77.543 h 5.887 v -50 h -5.887 v 50" /><path
             id="path68"
             style="fill:#231f20;fill-opacity:1;fill-rule:nonzero;stroke:none"
             d="m 176.879,76.0078 h 5.879 V 65.0781 h 6.512 v -4.6172 h -6.512 V 36.3594 c 0,-3.0078 0.769,-4.1992 3.855,-4.1992 1.262,0 1.953,0.1367 2.59,0.2148 v -4.832 c -0.773,-0.1485 -2.316,-0.4219 -4.765,-0.4219 -6.094,0 -7.559,2.5195 -7.559,7.4219 v 25.9179 h -5.469 v 4.6172 h 5.469 v 10.9297" /><path
             id="path70"
             style="fill:#231f20;fill-opacity:1;fill-rule:nonzero;stroke:none"
             d="m 193.246,77.543 h 5.887 V 60.8047 h 0.137 c 1.543,3.0859 5.675,5.2539 9.035,5.2539 9.668,0 9.668,-7.4922 9.668,-11.9063 V 27.543 h -5.879 v 25.9062 c 0,2.8711 -0.215,7.5703 -5.539,7.5703 -3.153,0 -7.422,-2.1015 -7.422,-7.5703 V 27.543 h -5.887 v 50" /><path
             id="path72"
             style="fill:#231f20;fill-opacity:1;fill-rule:nonzero;stroke:none"
             d="m 273.273,44.6992 c -0.554,-9.4531 -4.265,-18.1445 -15.195,-18.1445 -14.219,0 -16.113,13.3789 -16.113,25.9883 0,12.6054 2.316,25.9843 16.113,25.9843 10.227,0 14.492,-5.7421 14.777,-15.5468 h -6.445 c -0.137,5.6758 -1.965,10.5078 -8.332,10.5078 -8.543,0 -9.668,-9.3945 -9.668,-20.9453 0,-11.5547 1.125,-20.9375 9.668,-20.9375 7.492,0 8.547,7 8.75,13.0937 h 6.445" /><path
             id="path74"
             style="fill:#231f20;fill-opacity:1;fill-rule:nonzero;stroke:none"
             d="m 296.02,47.9922 c -2.18,-2.3164 -7.356,-2.8047 -10.02,-4.4141 -1.887,-1.1914 -2.871,-2.6562 -2.871,-5.9492 0,-3.7891 1.328,-6.4453 5.32,-6.4453 3.86,0 7.571,3.293 7.571,7.1406 z m -18.145,5.7422 c 0,8.5429 3.641,12.3242 12.605,12.3242 11.418,0 11.418,-6.8672 11.418,-10.7813 V 34.3281 c 0,-1.5312 0,-3.0078 1.825,-3.0078 0.773,0 1.113,0.1367 1.398,0.3516 v -4.1992 c -0.422,-0.0782 -1.965,-0.3516 -3.43,-0.3516 -2.246,0 -5.046,0 -5.32,4.832 h -0.148 c -1.883,-3.3672 -5.528,-5.3984 -9.032,-5.3984 -7.003,0 -10.226,4.2109 -10.226,10.9297 0,5.2539 2.238,8.8945 7.07,10.3711 l 7.922,2.3711 c 4.266,1.3398 4.266,2.5312 4.266,5.6757 0,3.504 -2.098,5.5352 -6.024,5.5352 -6.437,0 -6.437,-6.0273 -6.437,-7.3516 v -0.3515 h -5.887" /><path
             id="path76"
             style="fill:#231f20;fill-opacity:1;fill-rule:nonzero;stroke:none"
             d="m 309.855,65.0781 h 5.606 V 60.668 h 0.148 c 1.532,3.4258 5.457,5.3906 9.102,5.3906 9.871,0 9.871,-7.4922 9.871,-11.9063 V 27.543 h -5.879 v 25.9062 c 0,2.8711 -0.215,7.5703 -5.535,7.5703 -3.156,0 -7.422,-2.1015 -7.422,-7.5703 V 27.543 h -5.891 v 37.5351" /><path
             id="path78"
             style="fill:#231f20;fill-opacity:1;fill-rule:nonzero;stroke:none"
             d="m 359.504,47.9922 c -2.176,-2.3164 -7.352,-2.8047 -10.02,-4.4141 -1.882,-1.1914 -2.871,-2.6562 -2.871,-5.9492 0,-3.7891 1.328,-6.4453 5.325,-6.4453 3.855,0 7.566,3.293 7.566,7.1406 z m -18.145,5.7422 c 0,8.5429 3.645,12.3242 12.61,12.3242 11.414,0 11.414,-6.8672 11.414,-10.7813 V 34.3281 c 0,-1.5312 0,-3.0078 1.828,-3.0078 0.769,0 1.113,0.1367 1.394,0.3516 v -4.1992 c -0.417,-0.0782 -1.96,-0.3516 -3.425,-0.3516 -2.246,0 -5.051,0 -5.325,4.832 h -0.144 c -1.887,-3.3672 -5.527,-5.3984 -9.035,-5.3984 -7,0 -10.223,4.2109 -10.223,10.9297 0,5.2539 2.235,8.8945 7.07,10.3711 l 7.918,2.3711 c 4.27,1.3398 4.27,2.5312 4.27,5.6757 0,3.504 -2.102,5.5352 -6.027,5.5352 -6.434,0 -6.434,-6.0273 -6.434,-7.3516 v -0.3515 h -5.891" /><path
             id="path80"
             style="fill:#231f20;fill-opacity:1;fill-rule:nonzero;stroke:none"
             d="m 384.973,31.6055 c 6.515,0 7.57,6.1601 7.57,14.707 0,7.2852 -1.27,14.707 -7.57,14.707 -5.457,0 -6.864,-5.7422 -6.864,-14.707 0,-8.9648 1.407,-14.707 6.864,-14.707 z M 398.07,27.543 h -5.605 v 4.6172 h -0.137 c -0.773,-2.8008 -4.062,-5.6055 -8.125,-5.6055 -8.898,0 -12.258,7.9219 -12.258,19.7578 0,7.8398 1.262,19.7461 11.836,19.7461 3.36,0 6.934,-2.0313 8.262,-5.2539 h 0.148 V 77.543 h 5.879 v -50" /><path
             id="path82"
             style="fill:#231f20;fill-opacity:1;fill-rule:nonzero;stroke:none"
             d="m 422.992,47.9922 c -2.179,-2.3164 -7.355,-2.8047 -10.019,-4.4141 -1.887,-1.1914 -2.871,-2.6562 -2.871,-5.9492 0,-3.7891 1.328,-6.4453 5.32,-6.4453 3.859,0 7.57,3.293 7.57,7.1406 z m -18.144,5.7422 c 0,8.5429 3.64,12.3242 12.605,12.3242 11.418,0 11.418,-6.8672 11.418,-10.7813 V 34.3281 c 0,-1.5312 0,-3.0078 1.824,-3.0078 0.774,0 1.114,0.1367 1.399,0.3516 v -4.1992 c -0.422,-0.0782 -1.965,-0.3516 -3.43,-0.3516 -2.246,0 -5.047,0 -5.32,4.832 h -0.149 c -1.882,-3.3672 -5.527,-5.3984 -9.031,-5.3984 -7.004,0 -10.226,4.2109 -10.226,10.9297 0,5.2539 2.238,8.8945 7.07,10.3711 l 7.922,2.3711 c 4.265,1.3398 4.265,2.5312 4.265,5.6757 0,3.504 -2.097,5.5352 -6.023,5.5352 -6.438,0 -6.438,-6.0273 -6.438,-7.3516 v -0.3515 h -5.886" /><path
             id="path84"
             style="fill:#231f20;fill-opacity:1;fill-rule:nonzero;stroke:none"
             d="m 148.219,503.898 c -14.77,-25.164 -47.172,-33.597 -72.3088,-18.824 -25.1641,14.77 -33.6016,47.199 -18.8321,72.364 14.7735,25.136 46.9259,33.511 72.3669,18.804 25.438,-14.679 33.578,-47.203 18.774,-72.344 z m -10.098,87.586 C 104.566,611.195 61.793,600.035 42.0508,566.48 24.7891,536.691 31.3867,499.461 56.4531,477.875 L 28.2266,430.441 c -2.8047,-4.789 -1.0547,-10.953 3.8515,-13.55 l 6.7735,-3.586 c 4.6679,-2.473 10.457,-0.782 13.0586,3.816 l 26.7734,47.68 c 31.3794,-11.293 67.0934,1.07 84.4414,30.609 19.684,33.555 8.578,76.363 -25.004,96.074" /></g></g></g></g></svg>