<?xml version="1.0" encoding="UTF-8" standalone="no"?>
<svg
   xmlns:dc="http://purl.org/dc/elements/1.1/"
   xmlns:cc="http://creativecommons.org/ns#"
   xmlns:rdf="http://www.w3.org/1999/02/22-rdf-syntax-ns#"
   xmlns:svg="http://www.w3.org/2000/svg"
   xmlns="http://www.w3.org/2000/svg"
   viewBox="0 0 51.779732 52.913595"
   height="52.913597"
   width="51.779732"
   xml:space="preserve"
   id="svg2"
   version="1.1"><metadata
     id="metadata8"><rdf:RDF><cc:Work
         rdf:about=""><dc:format>image/svg+xml</dc:format><dc:type
           rdf:resource="http://purl.org/dc/dcmitype/StillImage" /></cc:Work></rdf:RDF></metadata><defs
     id="defs6"><clipPath
       id="clipPath20"
       clipPathUnits="userSpaceOnUse"><path
         id="path18"
         d="M 0,0 H 388.348 V 396.852 H 0 Z" /></clipPath></defs><g
     transform="matrix(1.3333333,0,0,-1.3333333,0,52.913599)"
     id="g10"><g
       transform="scale(0.1)"
       id="g12"><g
         id="g14"><g
           clip-path="url(#clipPath20)"
           id="g16"><path
             id="path22"
             style="fill:#ffffff;fill-opacity:1;fill-rule:nonzero;stroke:none"
             d="M 2.5,2.5 V 394.352 H 385.844 V 2.5 H 2.5" /><path
             id="path24"
             style="fill:#231f20;fill-opacity:1;fill-rule:nonzero;stroke:none"
             d="M 388.348,396.852 H 0 V 0 h 388.348 z m -5,-5 V 5 H 5 v 386.852 h 378.348" /><path
             id="path26"
             style="fill:#231f20;fill-opacity:1;fill-rule:nonzero;stroke:none"
             d="m 138.664,349.176 h 8.633 v -16.367 h 10.078 v 16.367 h 8.633 v -42.813 h -8.633 v 19.012 h -10.078 v -19.012 h -8.633 v 42.813" /><path
             id="path28"
             style="fill:#231f20;fill-opacity:1;fill-rule:nonzero;stroke:none"
             d="m 173.281,338.629 h 8.282 v -32.266 h -8.282 z m 0,11.035 h 8.282 v -7.082 h -8.282 v 7.082" /><path
             id="path30"
             style="fill:#231f20;fill-opacity:1;fill-rule:nonzero;stroke:none"
             d="m 200.332,313.082 c 3.477,0 4.504,3.777 4.504,9.227 0,7.863 -1.027,10.8 -4.328,10.8 -3.653,0 -4.317,-2.937 -4.317,-11.64 0,-4.434 0.664,-8.387 4.141,-8.387 z m 12.414,25.547 v -30.645 c 0,-8.515 -3.781,-12.656 -13.43,-12.656 -7.019,0 -10.976,3.113 -10.976,8.633 h 7.91 c 0,-1.074 0.488,-1.914 1.262,-2.453 0.781,-0.547 1.746,-0.899 2.761,-0.899 3.36,0 4.563,2.512 4.563,5.813 v 4.258 h -0.129 c -1.68,-2.395 -4.258,-3.957 -6.894,-3.957 -6.59,0 -9.891,4.492 -9.891,16.308 0,7.559 1.141,16.438 10.137,16.438 2.273,0 5.097,-1.086 6.648,-4.446 h 0.129 v 3.606 h 7.91" /><path
             id="path32"
             style="fill:#231f20;fill-opacity:1;fill-rule:nonzero;stroke:none"
             d="m 219.777,349.176 h 8.282 v -13.848 h 0.117 c 1.562,2.754 4.375,4.141 7.859,4.141 5.156,0 8.215,-2.824 8.215,-9.18 v -23.926 h -8.281 v 22.246 c 0,3.243 -1.074,4.5 -3.535,4.5 -2.813,0 -4.375,-1.738 -4.375,-5.339 v -21.407 h -8.282 v 42.813" /><path
             id="path34"
             style="fill:#231f20;fill-opacity:1;fill-rule:nonzero;stroke:none"
             d="m 266.875,338.629 h 8.281 v -32.266 h -8.281 z m 0,11.035 h 8.281 v -7.082 h -8.281 v 7.082" /><path
             id="path36"
             style="fill:#231f20;fill-opacity:1;fill-rule:nonzero;stroke:none"
             d="m 282.18,338.629 h 7.918 v -3.781 h 0.117 c 1.738,3.175 4.738,4.621 8.223,4.621 5.156,0 8.214,-2.824 8.214,-9.18 v -23.926 h -8.281 v 22.246 c 0,3.243 -1.074,4.5 -3.535,4.5 -2.813,0 -4.375,-1.738 -4.375,-5.339 v -21.407 h -8.281 v 32.266" /><path
             id="path38"
             style="fill:#231f20;fill-opacity:1;fill-rule:nonzero;stroke:none"
             d="m 61.8594,24.0195 h -5.2735 v 20.625 H 41.8984 V 24.0195 H 36.6172 V 66.832 h 5.2812 V 49.3203 H 56.5859 V 66.832 h 5.2735 V 24.0195" /><path
             id="path40"
             style="fill:#231f20;fill-opacity:1;fill-rule:nonzero;stroke:none"
             d="m 84.4883,43.4531 v 1.7383 c 0,3.5938 -1.1445,7.8516 -5.5781,7.8516 -5.2813,0 -5.8789,-6.4766 -5.8789,-8.3985 V 43.4531 Z M 72.8555,39.4883 c 0,-4.9141 0,-12.3555 6.1718,-12.3555 4.7969,0 5.461,5.0391 5.461,7.4414 h 5.039 c 0,-3.4179 -2.0429,-11.3945 -10.8007,-11.3945 -7.8516,0 -11.1524,5.457 -11.1524,16.4922 0,8.039 1.5625,17.3242 11.4531,17.3242 9.836,0 10.7344,-8.5742 10.7344,-15.4688 v -2.039 H 72.8555" /><path
             id="path42"
             style="fill:#231f20;fill-opacity:1;fill-rule:nonzero;stroke:none"
             d="m 110.047,41.5273 c -1.859,-1.9804 -6.289,-2.4023 -8.578,-3.7773 -1.6213,-1.0156 -2.4612,-2.2773 -2.4612,-5.0977 0,-3.2343 1.1442,-5.5195 4.5622,-5.5195 3.301,0 6.477,2.8242 6.477,6.125 z m -15.5314,4.9219 c 0,7.3164 3.1172,10.5469 10.7934,10.5469 9.777,0 9.777,-5.8672 9.777,-9.2266 V 29.8398 c 0,-1.3203 0,-2.5781 1.559,-2.5781 0.656,0 0.957,0.1172 1.203,0.293 v -3.5938 c -0.364,-0.0586 -1.68,-0.3046 -2.942,-0.3046 -1.922,0 -4.316,0 -4.558,4.1406 h -0.118 c -1.621,-2.8789 -4.738,-4.6172 -7.734,-4.6172 -5.996,0 -8.7616,3.5937 -8.7616,9.3555 0,4.5 1.9258,7.6171 6.0547,8.875 l 6.7769,2.0429 c 3.664,1.1328 3.664,2.1563 3.664,4.8516 0,3 -1.796,4.7383 -5.156,4.7383 -5.5193,0 -5.5193,-5.1563 -5.5193,-6.3008 v -0.293 h -5.0391" /><path
             id="path44"
             style="fill:#231f20;fill-opacity:1;fill-rule:nonzero;stroke:none"
             d="m 122.23,66.832 h 5.04 V 24.0195 h -5.04 V 66.832" /><path
             id="path46"
             style="fill:#231f20;fill-opacity:1;fill-rule:nonzero;stroke:none"
             d="m 135.672,65.5117 h 5.039 v -9.3554 h 5.574 v -3.9532 h -5.574 v -20.625 c 0,-2.5781 0.66,-3.6054 3.297,-3.6054 1.078,0 1.68,0.1289 2.219,0.1875 v -4.1407 c -0.664,-0.1172 -1.985,-0.3632 -4.082,-0.3632 -5.215,0 -6.473,2.1601 -6.473,6.3593 v 22.1875 h -4.68 v 3.9532 h 4.68 v 9.3554" /><path
             id="path48"
             style="fill:#231f20;fill-opacity:1;fill-rule:nonzero;stroke:none"
             d="m 149.723,66.832 h 5.039 V 52.5039 h 0.117 c 1.316,2.6367 4.851,4.4922 7.734,4.4922 8.27,0 8.27,-6.4141 8.27,-10.1953 V 24.0195 h -5.028 V 46.207 c 0,2.461 -0.183,6.4727 -4.746,6.4727 -2.695,0 -6.347,-1.7969 -6.347,-6.4727 V 24.0195 h -5.039 V 66.832" /><path
             id="path50"
             style="fill:#231f20;fill-opacity:1;fill-rule:nonzero;stroke:none"
             d="m 218.293,38.707 c -0.488,-8.0976 -3.672,-15.5273 -13.023,-15.5273 -12.168,0 -13.79,11.4531 -13.79,22.2461 0,10.8008 1.973,22.2461 13.79,22.2461 8.765,0 12.418,-4.9141 12.652,-13.3125 h -5.508 c -0.117,4.8633 -1.68,8.9961 -7.144,8.9961 -7.317,0 -8.274,-8.0391 -8.274,-17.9297 0,-9.8945 0.957,-17.9297 8.274,-17.9297 6.421,0 7.32,5.9961 7.496,11.2109 h 5.527" /><path
             id="path52"
             style="fill:#231f20;fill-opacity:1;fill-rule:nonzero;stroke:none"
             d="m 237.785,41.5273 c -1.855,-1.9804 -6.289,-2.4023 -8.574,-3.7773 -1.621,-1.0156 -2.461,-2.2773 -2.461,-5.0977 0,-3.2343 1.133,-5.5195 4.551,-5.5195 3.301,0 6.484,2.8242 6.484,6.125 z m -15.527,4.9219 c 0,7.3164 3.105,10.5469 10.781,10.5469 9.785,0 9.785,-5.8672 9.785,-9.2266 V 29.8398 c 0,-1.3203 0,-2.5781 1.563,-2.5781 0.644,0 0.957,0.1172 1.191,0.293 v -3.5938 c -0.351,-0.0586 -1.68,-0.3046 -2.93,-0.3046 -1.933,0 -4.316,0 -4.57,4.1406 h -0.117 c -1.621,-2.8789 -4.727,-4.6172 -7.734,-4.6172 -5.997,0 -8.75,3.5937 -8.75,9.3555 0,4.5 1.914,7.6171 6.054,8.875 l 6.778,2.0429 c 3.652,1.1328 3.652,2.1563 3.652,4.8516 0,3 -1.797,4.7383 -5.156,4.7383 -5.508,0 -5.508,-5.1563 -5.508,-6.3008 v -0.293 h -5.039" /><path
             id="path54"
             style="fill:#231f20;fill-opacity:1;fill-rule:nonzero;stroke:none"
             d="m 249.68,56.1563 h 4.785 v -3.7696 h 0.117 c 1.328,2.9297 4.688,4.6094 7.813,4.6094 8.437,0 8.437,-6.4141 8.437,-10.1953 V 24.0195 h -5.019 V 46.207 c 0,2.461 -0.196,6.4727 -4.747,6.4727 -2.695,0 -6.347,-1.7969 -6.347,-6.4727 V 24.0195 h -5.039 v 32.1368" /><path
             id="path56"
             style="fill:#231f20;fill-opacity:1;fill-rule:nonzero;stroke:none"
             d="m 292.199,41.5273 c -1.855,-1.9804 -6.289,-2.4023 -8.574,-3.7773 -1.621,-1.0156 -2.461,-2.2773 -2.461,-5.0977 0,-3.2343 1.152,-5.5195 4.57,-5.5195 3.301,0 6.465,2.8242 6.465,6.125 z m -15.527,4.9219 c 0,7.3164 3.125,10.5469 10.801,10.5469 9.765,0 9.765,-5.8672 9.765,-9.2266 V 29.8398 c 0,-1.3203 0,-2.5781 1.563,-2.5781 0.664,0 0.957,0.1172 1.211,0.293 v -3.5938 c -0.371,-0.0586 -1.68,-0.3046 -2.949,-0.3046 -1.915,0 -4.317,0 -4.551,4.1406 h -0.117 c -1.622,-2.8789 -4.747,-4.6172 -7.735,-4.6172 -5.996,0 -8.769,3.5937 -8.769,9.3555 0,4.5 1.933,7.6171 6.054,8.875 l 6.778,2.0429 c 3.672,1.1328 3.672,2.1563 3.672,4.8516 0,3 -1.797,4.7383 -5.157,4.7383 -5.527,0 -5.527,-5.1563 -5.527,-6.3008 v -0.293 h -5.039" /><path
             id="path58"
             style="fill:#231f20;fill-opacity:1;fill-rule:nonzero;stroke:none"
             d="m 314.055,27.4961 c 5.566,0 6.465,5.2812 6.465,12.5977 0,6.2304 -1.075,12.5859 -6.465,12.5859 -4.688,0 -5.879,-4.9102 -5.879,-12.5859 0,-7.6758 1.191,-12.5977 5.879,-12.5977 z m 11.211,-3.4766 h -4.805 v 3.9532 h -0.117 c -0.664,-2.3907 -3.477,-4.793 -6.953,-4.793 -7.618,0 -10.489,6.7773 -10.489,16.9141 0,6.707 1.075,16.9023 10.137,16.9023 2.871,0 5.938,-1.7383 7.07,-4.4922 h 0.118 V 66.832 h 5.039 V 24.0195" /><path
             id="path60"
             style="fill:#231f20;fill-opacity:1;fill-rule:nonzero;stroke:none"
             d="m 346.613,41.5273 c -1.855,-1.9804 -6.289,-2.4023 -8.574,-3.7773 -1.621,-1.0156 -2.461,-2.2773 -2.461,-5.0977 0,-3.2343 1.152,-5.5195 4.57,-5.5195 3.301,0 6.465,2.8242 6.465,6.125 z m -15.527,4.9219 c 0,7.3164 3.125,10.5469 10.801,10.5469 9.765,0 9.765,-5.8672 9.765,-9.2266 V 29.8398 c 0,-1.3203 0,-2.5781 1.563,-2.5781 0.664,0 0.957,0.1172 1.211,0.293 v -3.5938 c -0.371,-0.0586 -1.68,-0.3046 -2.949,-0.3046 -1.914,0 -4.317,0 -4.551,4.1406 h -0.117 c -1.621,-2.8789 -4.746,-4.6172 -7.735,-4.6172 -5.996,0 -8.769,3.5937 -8.769,9.3555 0,4.5 1.933,7.6171 6.054,8.875 l 6.778,2.0429 c 3.672,1.1328 3.672,2.1563 3.672,4.8516 0,3 -1.797,4.7383 -5.157,4.7383 -5.527,0 -5.527,-5.1563 -5.527,-6.3008 v -0.293 h -5.039" /><path
             id="path62"
             style="fill:#231f20;fill-opacity:1;fill-rule:nonzero;stroke:none"
             d="M 104.434,309.383 C 94.6992,292.805 73.3477,287.242 56.7852,296.98 c -16.5821,9.731 -22.1446,31.102 -12.4102,47.684 9.7344,16.563 30.9219,22.082 47.6875,12.391 16.7615,-9.676 22.1255,-31.106 12.3715,-47.672 z m -6.6567,57.715 c -22.1093,12.988 -50.2968,5.636 -63.3046,-16.477 -11.375,-19.629 -7.0274,-44.16 9.4921,-58.387 L 25.3633,260.98 c -1.8477,-3.156 -0.6953,-7.218 2.539,-8.929 l 4.4649,-2.363 c 3.0742,-1.629 6.8867,-0.512 8.6016,2.515 l 17.6445,31.418 c 20.6758,-7.441 44.2107,0.703 55.6407,20.172 12.973,22.105 5.652,50.316 -16.4767,63.305" /><path
             id="path64"
             style="fill:#231f20;fill-opacity:1;fill-rule:nonzero;stroke:none"
             d="M 87.5234,265.527 V 183.32 H 364.418 v 82.207 H 87.5234" /><path
             id="path66"
             style="fill:#ffffff;fill-opacity:1;fill-rule:nonzero;stroke:none"
             d="m 125.52,217.504 v -1.258 c 0,-4.016 1.14,-6.594 5.703,-6.594 2.636,0 5.156,1.68 5.156,5.274 0,3.898 -1.984,5.344 -7.676,7.316 -7.676,2.645 -11.211,5.821 -11.211,12.957 0,8.332 5.086,12.59 13.25,12.59 7.676,0 13.254,-3.293 13.254,-11.516 v -1.191 h -8.281 c 0,4.016 -1.379,6.348 -4.68,6.348 -3.894,0 -4.91,-2.45 -4.91,-4.969 0,-2.637 0.781,-4.258 4.434,-5.82 l 6.66,-2.883 c 6.472,-2.813 8.152,-6.113 8.152,-11.328 0,-9.051 -5.516,-13.133 -14.871,-13.133 -9.777,0 -13.613,4.558 -13.613,12.469 v 1.738 h 8.633" /><path
             id="path68"
             style="fill:#ffffff;fill-opacity:1;fill-rule:nonzero;stroke:none"
             d="m 166.016,220.27 c -1.141,-0.84 -2.52,-1.379 -3.543,-1.622 -3.352,-0.722 -4.668,-2.335 -4.668,-5.214 0,-2.461 0.898,-4.504 3.113,-4.504 2.219,0 5.098,1.445 5.098,4.98 z m -15.118,6.23 v 0.781 c 0,7.442 5.098,9.961 11.34,9.961 9.832,0 11.688,-4.082 11.688,-9.902 v -16.965 c 0,-2.996 0.187,-4.383 1.027,-6.238 h -7.922 c -0.535,1.015 -0.781,2.273 -1.015,3.359 h -0.125 c -1.914,-3.359 -4.258,-4.199 -8.215,-4.199 -5.75,0 -7.793,4.922 -7.793,9.238 0,6.055 2.461,8.516 8.156,10.067 l 4.676,1.261 c 2.461,0.664 3.301,1.621 3.301,3.778 0,2.461 -1.082,3.957 -3.836,3.957 -2.52,0 -3.84,-1.68 -3.84,-4.192 V 226.5 h -7.442" /><path
             id="path70"
             style="fill:#ffffff;fill-opacity:1;fill-rule:nonzero;stroke:none"
             d="m 183.125,245.629 h 8.273 v -9.227 h 4.793 v -5.644 h -4.793 v -17.442 c 0,-2.519 0.536,-3.546 2.938,-3.546 0.664,0 1.32,0.058 1.855,0.117 v -5.75 c -1.796,-0.176 -3.476,-0.364 -5.39,-0.364 -6.473,0 -7.676,1.985 -7.676,8.516 v 18.469 h -4.199 v 5.644 h 4.199 v 9.227" /><path
             id="path72"
             style="fill:#ffffff;fill-opacity:1;fill-rule:nonzero;stroke:none"
             d="m 218.281,230.758 h -4.199 v 5.644 h 4.199 v 3.653 c 0,5.82 3.293,7.734 8.633,7.734 1.496,0 2.941,-0.059 4.434,-0.176 v -5.879 c -0.535,0.059 -1.075,0.059 -1.61,0.059 -2.343,0 -3.183,-0.715 -3.183,-2.578 v -2.813 h 4.793 v -5.644 h -4.793 v -26.621 h -8.274 v 26.621" /><path
             id="path74"
             style="fill:#ffffff;fill-opacity:1;fill-rule:nonzero;stroke:none"
             d="m 249.602,220.27 c -1.145,-0.84 -2.52,-1.379 -3.547,-1.622 -3.348,-0.722 -4.676,-2.335 -4.676,-5.214 0,-2.461 0.906,-4.504 3.125,-4.504 2.215,0 5.098,1.445 5.098,4.98 z m -15.118,6.23 v 0.781 c 0,7.442 5.098,9.961 11.336,9.961 9.836,0 11.692,-4.082 11.692,-9.902 v -16.965 c 0,-2.996 0.183,-4.383 1.023,-6.238 h -7.918 c -0.539,1.015 -0.781,2.273 -1.015,3.359 h -0.129 c -1.914,-3.359 -4.246,-4.199 -8.211,-4.199 -5.754,0 -7.793,4.922 -7.793,9.238 0,6.055 2.461,8.516 8.152,10.067 l 4.68,1.261 c 2.461,0.664 3.301,1.621 3.301,3.778 0,2.461 -1.086,3.957 -3.84,3.957 -2.52,0 -3.836,-1.68 -3.836,-4.192 V 226.5 h -7.442" /><path
             id="path76"
             style="fill:#ffffff;fill-opacity:1;fill-rule:nonzero;stroke:none"
             d="m 266.711,245.629 h 8.269 v -9.227 h 4.797 v -5.644 h -4.797 v -17.442 c 0,-2.519 0.54,-3.546 2.942,-3.546 0.664,0 1.316,0.058 1.855,0.117 v -5.75 c -1.797,-0.176 -3.476,-0.364 -5.39,-0.364 -6.485,0 -7.676,1.985 -7.676,8.516 v 18.469 h -4.199 v 5.644 h 4.199 v 9.227" /><path
             id="path78"
             style="fill:#231f20;fill-opacity:1;fill-rule:nonzero;stroke:none"
             d="M 87.5234,170.508 V 88.3008 H 364.418 V 170.508 H 87.5234" /><path
             id="path80"
             style="fill:#ffffff;fill-opacity:1;fill-rule:nonzero;stroke:none"
             d="m 125.52,121.637 v -1.262 c 0,-4.012 1.14,-6.59 5.703,-6.59 2.636,0 5.156,1.68 5.156,5.274 0,3.894 -1.984,5.339 -7.676,7.312 -7.676,2.649 -11.211,5.82 -11.211,12.961 0,8.328 5.086,12.586 13.25,12.586 7.676,0 13.254,-3.289 13.254,-11.512 v -1.191 h -8.281 c 0,4.012 -1.379,6.348 -4.68,6.348 -3.894,0 -4.91,-2.454 -4.91,-4.973 0,-2.637 0.781,-4.258 4.434,-5.82 l 6.66,-2.879 c 6.472,-2.813 8.152,-6.114 8.152,-11.328 0,-9.055 -5.516,-13.137 -14.871,-13.137 -9.777,0 -13.613,4.562 -13.613,12.472 v 1.739 h 8.633" /><path
             id="path82"
             style="fill:#ffffff;fill-opacity:1;fill-rule:nonzero;stroke:none"
             d="m 162.598,113.063 c 3.359,0 4.433,3.3 4.433,11.335 0,8.04 -1.074,11.329 -4.433,11.329 -4.082,0 -4.442,-4.735 -4.442,-11.329 0,-6.601 0.36,-11.335 4.442,-11.335 z m 0,28.308 c 9.953,0.176 12.715,-5.762 12.715,-16.973 0,-11.035 -3.243,-16.972 -12.715,-16.972 -9.961,-0.176 -12.715,5.762 -12.715,16.972 0,11.036 3.242,16.973 12.715,16.973" /><path
             id="path84"
             style="fill:#ffffff;fill-opacity:1;fill-rule:nonzero;stroke:none"
             d="m 193.078,113.785 c 3.66,0 4.375,3.594 4.375,10.613 0,7.012 -0.715,10.618 -4.375,10.618 -3.594,0 -4.316,-3.606 -4.316,-10.618 0,-7.019 0.722,-10.613 4.316,-10.613 z m 4.735,-2.101 h -0.118 c -1.797,-2.996 -4.082,-4.258 -7.312,-4.258 -6.778,0 -9.895,4.98 -9.895,16.972 0,11.993 3.117,16.973 9.895,16.973 3.113,0 5.215,-1.258 6.953,-3.836 h 0.117 v 13.543 h 8.281 v -42.812 h -7.921 v 3.418" /><path
             id="path86"
             style="fill:#ffffff;fill-opacity:1;fill-rule:nonzero;stroke:none"
             d="m 213.066,140.531 h 8.282 v -32.265 h -8.282 z m 0,11.035 h 8.282 v -7.078 h -8.282 v 7.078" /><path
             id="path88"
             style="fill:#ffffff;fill-opacity:1;fill-rule:nonzero;stroke:none"
             d="m 245.215,112.047 h -0.117 c -1.739,-3.184 -4.735,-4.621 -8.211,-4.621 -5.157,0 -8.223,2.824 -8.223,9.179 v 23.926 h 8.281 v -22.254 c 0,-3.234 1.075,-4.492 3.535,-4.492 2.821,0 4.375,1.738 4.375,5.332 v 21.414 h 8.282 v -32.265 h -7.922 v 3.781" /><path
             id="path90"
             style="fill:#ffffff;fill-opacity:1;fill-rule:nonzero;stroke:none"
             d="m 260.156,140.531 h 7.922 v -3.301 h 0.117 c 2.098,2.942 4.676,4.141 8.153,4.141 3.781,0 6.543,-1.863 7.441,-5.156 h 0.117 c 1.262,3.418 4.258,5.156 8.157,5.156 5.457,0 8.035,-3.418 8.035,-9.656 v -23.449 h -8.27 v 22.55 c 0,2.696 -0.898,4.2 -3.242,4.2 -2.637,0 -4.316,-1.809 -4.316,-5.52 v -21.23 h -8.274 v 22.55 c 0,2.696 -0.906,4.2 -3.242,4.2 -2.637,0 -4.316,-1.809 -4.316,-5.52 v -21.23 h -8.282 v 32.265" /></g></g></g></g></svg>