<?xml version="1.0" encoding="UTF-8" standalone="no"?>
<svg
   xmlns:dc="http://purl.org/dc/elements/1.1/"
   xmlns:cc="http://creativecommons.org/ns#"
   xmlns:rdf="http://www.w3.org/1999/02/22-rdf-syntax-ns#"
   xmlns:svg="http://www.w3.org/2000/svg"
   xmlns="http://www.w3.org/2000/svg"
   viewBox="0 0 105.82653 53.669328"
   height="53.669331"
   width="105.82653"
   xml:space="preserve"
   id="svg2"
   version="1.1"><metadata
     id="metadata8"><rdf:RDF><cc:Work
         rdf:about=""><dc:format>image/svg+xml</dc:format><dc:type
           rdf:resource="http://purl.org/dc/dcmitype/StillImage" /></cc:Work></rdf:RDF></metadata><defs
     id="defs6"><clipPath
       id="clipPath20"
       clipPathUnits="userSpaceOnUse"><path
         id="path18"
         d="M 0,0 H 793.699 V 402.52 H 0 Z" /></clipPath></defs><g
     transform="matrix(1.3333333,0,0,-1.3333333,0,53.669332)"
     id="g10"><g
       transform="scale(0.1)"
       id="g12"><g
         id="g14"><g
           clip-path="url(#clipPath20)"
           id="g16"><path
             id="path22"
             style="fill:#ffffff;fill-opacity:1;fill-rule:nonzero;stroke:none"
             d="M 2.5,2.5 V 400.02 H 791.203 V 2.5 H 2.5" /><path
             id="path24"
             style="fill:#231f20;fill-opacity:1;fill-rule:nonzero;stroke:none"
             d="M 793.699,402.52 H 0 V 0 h 793.699 z m -5,-5 V 5 H 5 v 392.52 h 783.699" /><path
             id="path26"
             style="fill:#231f20;fill-opacity:1;fill-rule:nonzero;stroke:none"
             d="M 261.719,146.012 C 249.348,113.375 224.23,86.8672 192.332,72.3125 H 772.047 V 146.012 H 261.719" /><path
             id="path28"
             style="fill:#231f20;fill-opacity:1;fill-rule:nonzero;stroke:none"
             d="m 300.219,391.793 h 8.277 l -5.879,-8.645 h -5.633 z m 12.414,-11.16 v -7.074 H 297.344 V 363.48 h 14.39 v -7.07 h -14.39 v -11.512 h 15.89 v -7.082 h -24.527 v 42.817 h 23.926" /><path
             id="path30"
             style="fill:#231f20;fill-opacity:1;fill-rule:nonzero;stroke:none"
             d="m 319.125,380.633 h 8.277 v -42.817 h -8.277 v 42.817" /><path
             id="path32"
             style="fill:#231f20;fill-opacity:1;fill-rule:nonzero;stroke:none"
             d="m 350.258,357.602 c -0.18,4.921 -0.781,7.675 -4.199,7.675 -3.293,0 -4.258,-3.418 -4.258,-6.414 v -1.261 z m -8.457,-4.911 v -2.578 c 0,-3.777 1.023,-7.5 4.078,-7.5 2.758,0 3.902,2.102 4.379,6.055 h 7.437 c -0.3,-7.488 -3.902,-11.691 -11.695,-11.691 -11.992,0 -12.473,9.242 -12.473,17.277 0,8.633 1.676,16.672 12.836,16.672 9.653,0 11.813,-6.488 11.813,-16.379 v -1.856 h -16.375" /><path
             id="path34"
             style="fill:#231f20;fill-opacity:1;fill-rule:nonzero;stroke:none"
             d="m 379.297,370.086 h 8.273 l -8.093,-32.27 h -9.598 l -8.336,32.27 h 8.637 l 4.621,-23.09 h 0.117 l 4.379,23.09" /><path
             id="path36"
             style="fill:#231f20;fill-opacity:1;fill-rule:nonzero;stroke:none"
             d="m 402.637,382.496 h 8.277 l -5.879,-8.633 h -5.637 z m 5.039,-24.894 c -0.18,4.921 -0.781,7.675 -4.199,7.675 -3.297,0 -4.258,-3.418 -4.258,-6.414 v -1.261 z m -8.457,-4.911 v -2.578 c 0,-3.777 1.019,-7.5 4.078,-7.5 2.758,0 3.902,2.102 4.379,6.055 h 7.437 c -0.304,-7.488 -3.902,-11.691 -11.695,-11.691 -11.992,0 -12.477,9.242 -12.477,17.277 0,8.633 1.68,16.672 12.832,16.672 9.661,0 11.817,-6.488 11.817,-16.379 v -1.856 h -16.371" /><path
             id="path38"
             style="fill:#231f20;fill-opacity:1;fill-rule:nonzero;stroke:none"
             d="m 452.855,357.602 c -0.179,4.921 -0.781,7.675 -4.199,7.675 -3.293,0 -4.258,-3.418 -4.258,-6.414 v -1.261 z m -8.457,-4.911 v -2.578 c 0,-3.777 1.024,-7.5 4.079,-7.5 2.757,0 3.902,2.102 4.378,6.055 h 7.438 c -0.301,-7.488 -3.902,-11.691 -11.695,-11.691 -11.993,0 -12.477,9.242 -12.477,17.277 0,8.633 1.684,16.672 12.84,16.672 9.652,0 11.812,-6.488 11.812,-16.379 v -1.856 h -16.375" /><path
             id="path40"
             style="fill:#231f20;fill-opacity:1;fill-rule:nonzero;stroke:none"
             d="m 466.602,370.086 h 7.914 v -3.781 h 0.125 c 1.738,3.172 4.734,4.621 8.211,4.621 5.156,0 8.218,-2.824 8.218,-9.184 v -23.926 h -8.277 v 22.247 c 0,3.246 -1.078,4.503 -3.539,4.503 -2.816,0 -4.375,-1.738 -4.375,-5.339 v -21.411 h -8.277 v 32.27" /><path
             id="path42"
             style="fill:#231f20;fill-opacity:1;fill-rule:nonzero;stroke:none"
             d="m 524.621,381.473 h 6.711 l -13.547,-44.496 h -6.719 l 13.555,44.496" /><path
             id="path44"
             style="fill:#231f20;fill-opacity:1;fill-rule:nonzero;stroke:none"
             d="m 551.563,380.633 h 8.636 v -16.367 h 10.074 v 16.367 h 8.633 v -42.817 h -8.633 v 19.016 h -10.074 v -19.016 h -8.636 v 42.817" /><path
             id="path46"
             style="fill:#231f20;fill-opacity:1;fill-rule:nonzero;stroke:none"
             d="m 586.48,370.086 h 8.278 v -32.27 h -8.278 z m 0,11.031 h 8.278 v -7.078 h -8.278 v 7.078" /><path
             id="path48"
             style="fill:#231f20;fill-opacity:1;fill-rule:nonzero;stroke:none"
             d="m 613.832,344.535 c 3.477,0 4.496,3.781 4.496,9.231 0,7.863 -1.019,10.8 -4.312,10.8 -3.661,0 -4.317,-2.937 -4.317,-11.64 0,-4.434 0.656,-8.391 4.133,-8.391 z m 12.414,25.551 v -30.648 c 0,-8.512 -3.773,-12.657 -13.433,-12.657 -7.016,0 -10.973,3.117 -10.973,8.633 h 7.918 c 0,-1.07 0.476,-1.91 1.258,-2.449 0.777,-0.547 1.738,-0.899 2.757,-0.899 3.36,0 4.555,2.508 4.555,5.813 v 4.258 h -0.113 c -1.68,-2.395 -4.262,-3.957 -6.902,-3.957 -6.594,0 -9.891,4.492 -9.891,16.308 0,7.559 1.137,16.438 10.133,16.438 2.277,0 5.097,-1.086 6.66,-4.446 h 0.113 v 3.606 h 7.918" /><path
             id="path50"
             style="fill:#231f20;fill-opacity:1;fill-rule:nonzero;stroke:none"
             d="m 633.578,380.633 h 8.277 v -13.852 h 0.118 c 1.562,2.754 4.379,4.145 7.855,4.145 5.156,0 8.219,-2.824 8.219,-9.184 v -23.926 h -8.277 v 22.247 c 0,3.246 -1.079,4.503 -3.54,4.503 -2.816,0 -4.375,-1.738 -4.375,-5.339 v -21.411 h -8.277 v 42.817" /><path
             id="path52"
             style="fill:#231f20;fill-opacity:1;fill-rule:nonzero;stroke:none"
             d="m 681.281,370.086 h 8.274 v -32.27 h -8.274 z m 0,11.031 h 8.274 v -7.078 h -8.274 v 7.078" /><path
             id="path54"
             style="fill:#231f20;fill-opacity:1;fill-rule:nonzero;stroke:none"
             d="m 696.879,370.086 h 7.918 v -3.781 h 0.121 c 1.738,3.172 4.734,4.621 8.211,4.621 5.156,0 8.219,-2.824 8.219,-9.184 v -23.926 h -8.278 v 22.247 c 0,3.246 -1.078,4.503 -3.539,4.503 -2.816,0 -4.375,-1.738 -4.375,-5.339 v -21.411 h -8.277 v 32.27" /><path
             id="path56"
             style="fill:#231f20;fill-opacity:1;fill-rule:nonzero;stroke:none"
             d="m 118.773,50.6758 c 0,4.5 -1.621,7.6172 -6.66,7.6172 -4.433,0 -7.074,-2.3946 -7.074,-6.9532 0,-12.0507 20.211,-4.8554 20.211,-20.5078 0,-9.8945 -7.258,-12.7148 -13.316,-12.7148 -10.016,0 -12.9496,5.1562 -12.9496,14.2773 h 5.2736 c 0,-4.8047 0.305,-9.9609 8.039,-9.9609 4.199,0 7.433,2.9961 7.433,7.5586 0,12.1094 -20.2066,5.0976 -20.2066,20.8086 0,3.957 1.6796,11.8086 12.5316,11.8086 8.156,0 11.875,-4.0742 11.992,-11.9336 h -5.274" /><path
             id="path58"
             style="fill:#231f20;fill-opacity:1;fill-rule:nonzero;stroke:none"
             d="m 145.176,36.4648 c -1.86,-1.9804 -6.297,-2.4023 -8.578,-3.7773 -1.618,-1.0156 -2.457,-2.2773 -2.457,-5.0977 0,-3.2343 1.136,-5.5195 4.554,-5.5195 3.301,0 6.481,2.8242 6.481,6.125 z m -15.531,4.9219 c 0,7.3164 3.113,10.5469 10.789,10.5469 9.777,0 9.777,-5.8672 9.777,-9.2266 V 24.7773 c 0,-1.3203 0,-2.5781 1.562,-2.5781 0.661,0 0.957,0.1172 1.196,0.293 v -3.5938 c -0.356,-0.0586 -1.68,-0.3046 -2.938,-0.3046 -1.922,0 -4.316,0 -4.558,4.1406 h -0.118 c -1.621,-2.8789 -4.738,-4.6172 -7.738,-4.6172 -5.996,0 -8.754,3.5937 -8.754,9.3555 0,4.5 1.918,7.6171 6.059,8.875 l 6.773,2.0429 c 3.66,1.1328 3.66,2.1563 3.66,4.8516 0,3 -1.8,4.7383 -5.16,4.7383 -5.515,0 -5.515,-5.1563 -5.515,-6.3008 v -0.293 h -5.035" /><path
             id="path60"
             style="fill:#231f20;fill-opacity:1;fill-rule:nonzero;stroke:none"
             d="m 157.063,51.0938 h 4.796 v -3.7696 h 0.125 c 1.317,2.9297 4.672,4.6094 7.793,4.6094 8.457,0 8.457,-6.4141 8.457,-10.1953 V 18.957 h -5.039 v 22.1875 c 0,2.461 -0.183,6.4727 -4.738,6.4727 -2.699,0 -6.355,-1.7969 -6.355,-6.4727 V 18.957 h -5.039 v 32.1368" /><path
             id="path62"
             style="fill:#231f20;fill-opacity:1;fill-rule:nonzero;stroke:none"
             d="m 186.344,60.4492 h 5.035 v -9.3554 h 5.574 v -3.9532 h -5.574 v -20.625 c 0,-2.5781 0.656,-3.6054 3.301,-3.6054 1.078,0 1.672,0.1289 2.215,0.1875 V 18.957 c -0.661,-0.1172 -1.977,-0.3632 -4.079,-0.3632 -5.218,0 -6.472,2.1601 -6.472,6.3593 v 22.1875 h -4.68 v 3.9532 h 4.68 v 9.3554" /><path
             id="path64"
             style="fill:#231f20;fill-opacity:1;fill-rule:nonzero;stroke:none"
             d="m 211.594,64.0547 h 5.879 l -6.481,-8.5156 h -3.597 z m 4.617,-25.6641 v 1.7383 c 0,3.5938 -1.141,7.8516 -5.574,7.8516 -5.282,0 -5.879,-6.4766 -5.879,-8.3985 v -1.1914 z m -11.637,-3.9648 c 0,-4.9141 0,-12.3555 6.18,-12.3555 4.797,0 5.457,5.0391 5.457,7.4414 h 5.035 c 0,-3.4179 -2.035,-11.3945 -10.793,-11.3945 -7.855,0 -11.156,5.457 -11.156,16.4922 0,8.039 1.562,17.3242 11.457,17.3242 9.832,0 10.73,-8.5742 10.73,-15.4688 v -2.039 h -16.91" /><path
             id="path66"
             style="fill:#231f20;fill-opacity:1;fill-rule:nonzero;stroke:none"
             d="m 267.805,33.6445 c -0.481,-8.0976 -3.66,-15.5273 -13.016,-15.5273 -12.172,0 -13.789,11.4531 -13.789,22.2461 0,10.8008 1.98,22.2461 13.789,22.2461 8.758,0 12.414,-4.9141 12.656,-13.3125 h -5.515 c -0.121,4.8633 -1.68,8.9961 -7.141,8.9961 -7.312,0 -8.273,-8.0391 -8.273,-17.9297 0,-9.8945 0.961,-17.9297 8.273,-17.9297 6.418,0 7.316,5.9961 7.496,11.2109 h 5.52" /><path
             id="path68"
             style="fill:#231f20;fill-opacity:1;fill-rule:nonzero;stroke:none"
             d="m 287.316,36.4648 c -1.863,-1.9804 -6.3,-2.4023 -8.582,-3.7773 -1.613,-1.0156 -2.453,-2.2773 -2.453,-5.0977 0,-3.2343 1.137,-5.5195 4.555,-5.5195 3.301,0 6.48,2.8242 6.48,6.125 z m -15.535,4.9219 c 0,7.3164 3.117,10.5469 10.793,10.5469 9.774,0 9.774,-5.8672 9.774,-9.2266 V 24.7773 c 0,-1.3203 0,-2.5781 1.562,-2.5781 0.66,0 0.957,0.1172 1.199,0.293 v -3.5938 c -0.359,-0.0586 -1.679,-0.3046 -2.941,-0.3046 -1.918,0 -4.316,0 -4.555,4.1406 h -0.117 c -1.621,-2.8789 -4.742,-4.6172 -7.738,-4.6172 -5.996,0 -8.758,3.5937 -8.758,9.3555 0,4.5 1.922,7.6171 6.063,8.875 l 6.769,2.0429 c 3.664,1.1328 3.664,2.1563 3.664,4.8516 0,3 -1.801,4.7383 -5.16,4.7383 -5.52,0 -5.52,-5.1563 -5.52,-6.3008 v -0.293 h -5.035" /><path
             id="path70"
             style="fill:#231f20;fill-opacity:1;fill-rule:nonzero;stroke:none"
             d="m 299.195,51.0938 h 4.801 v -3.7696 h 0.121 c 1.317,2.9297 4.672,4.6094 7.793,4.6094 8.457,0 8.457,-6.4141 8.457,-10.1953 V 18.957 h -5.039 v 22.1875 c 0,2.461 -0.18,6.4727 -4.738,6.4727 -2.699,0 -6.356,-1.7969 -6.356,-6.4727 V 18.957 h -5.039 v 32.1368" /><path
             id="path72"
             style="fill:#231f20;fill-opacity:1;fill-rule:nonzero;stroke:none"
             d="m 341.734,36.4648 c -1.863,-1.9804 -6.3,-2.4023 -8.578,-3.7773 -1.617,-1.0156 -2.457,-2.2773 -2.457,-5.0977 0,-3.2343 1.137,-5.5195 4.555,-5.5195 3.301,0 6.48,2.8242 6.48,6.125 z m -15.531,4.9219 c 0,7.3164 3.113,10.5469 10.789,10.5469 9.778,0 9.778,-5.8672 9.778,-9.2266 V 24.7773 c 0,-1.3203 0,-2.5781 1.558,-2.5781 0.66,0 0.961,0.1172 1.199,0.293 v -3.5938 c -0.355,-0.0586 -1.679,-0.3046 -2.941,-0.3046 -1.918,0 -4.316,0 -4.555,4.1406 h -0.121 c -1.617,-2.8789 -4.738,-4.6172 -7.734,-4.6172 -5.996,0 -8.754,3.5937 -8.754,9.3555 0,4.5 1.918,7.6171 6.058,8.875 l 6.774,2.0429 c 3.656,1.1328 3.656,2.1563 3.656,4.8516 0,3 -1.797,4.7383 -5.156,4.7383 -5.52,0 -5.52,-5.1563 -5.52,-6.3008 v -0.293 h -5.031" /><path
             id="path74"
             style="fill:#231f20;fill-opacity:1;fill-rule:nonzero;stroke:none"
             d="m 363.57,22.4336 c 5.575,0 6.481,5.2812 6.481,12.5977 0,6.2304 -1.086,12.5859 -6.481,12.5859 -4.679,0 -5.875,-4.9102 -5.875,-12.5859 0,-7.6758 1.196,-12.5977 5.875,-12.5977 z m 11.215,-3.4766 h -4.801 v 3.9532 h -0.117 c -0.656,-2.3907 -3.48,-4.793 -6.957,-4.793 -7.617,0 -10.492,6.7773 -10.492,16.9141 0,6.707 1.078,16.9023 10.133,16.9023 2.879,0 5.937,-1.7383 7.078,-4.4922 h 0.117 v 14.3281 h 5.039 V 18.957" /><path
             id="path76"
             style="fill:#231f20;fill-opacity:1;fill-rule:nonzero;stroke:none"
             d="m 396.152,36.4648 c -1.859,-1.9804 -6.297,-2.4023 -8.578,-3.7773 -1.617,-1.0156 -2.457,-2.2773 -2.457,-5.0977 0,-3.2343 1.137,-5.5195 4.555,-5.5195 3.301,0 6.48,2.8242 6.48,6.125 z m -15.531,4.9219 c 0,7.3164 3.113,10.5469 10.789,10.5469 9.778,0 9.778,-5.8672 9.778,-9.2266 V 24.7773 c 0,-1.3203 0,-2.5781 1.562,-2.5781 0.66,0 0.957,0.1172 1.195,0.293 v -3.5938 c -0.355,-0.0586 -1.679,-0.3046 -2.937,-0.3046 -1.922,0 -4.317,0 -4.559,4.1406 h -0.117 c -1.621,-2.8789 -4.738,-4.6172 -7.738,-4.6172 -5.996,0 -8.754,3.5937 -8.754,9.3555 0,4.5 1.918,7.6171 6.058,8.875 l 6.774,2.0429 c 3.66,1.1328 3.66,2.1563 3.66,4.8516 0,3 -1.801,4.7383 -5.16,4.7383 -5.516,0 -5.516,-5.1563 -5.516,-6.3008 v -0.293 h -5.035" /><path
             id="path78"
             style="fill:#231f20;fill-opacity:1;fill-rule:nonzero;stroke:none"
             d="m 432.445,62.6094 h 3.961 l -13.91,-44.4922 h -3.961 l 13.91,44.4922" /><path
             id="path80"
             style="fill:#231f20;fill-opacity:1;fill-rule:nonzero;stroke:none"
             d="m 478.941,18.957 h -5.277 V 39.582 H 458.969 V 18.957 h -5.278 v 42.8125 h 5.278 V 44.2578 h 14.695 v 17.5117 h 5.277 V 18.957" /><path
             id="path82"
             style="fill:#231f20;fill-opacity:1;fill-rule:nonzero;stroke:none"
             d="m 501.566,38.3906 v 1.7383 c 0,3.5938 -1.14,7.8516 -5.574,7.8516 -5.277,0 -5.879,-6.4766 -5.879,-8.3985 v -1.1914 z m -11.632,-3.9648 c 0,-4.9141 0,-12.3555 6.175,-12.3555 4.801,0 5.457,5.0391 5.457,7.4414 h 5.036 c 0,-3.4179 -2.036,-11.3945 -10.789,-11.3945 -7.86,0 -11.161,5.457 -11.161,16.4922 0,8.039 1.563,17.3242 11.457,17.3242 9.832,0 10.731,-8.5742 10.731,-15.4688 v -2.039 h -16.906" /><path
             id="path84"
             style="fill:#231f20;fill-opacity:1;fill-rule:nonzero;stroke:none"
             d="m 527.129,36.4648 c -1.859,-1.9804 -6.301,-2.4023 -8.578,-3.7773 -1.617,-1.0156 -2.457,-2.2773 -2.457,-5.0977 0,-3.2343 1.136,-5.5195 4.554,-5.5195 3.301,0 6.481,2.8242 6.481,6.125 z m -15.531,4.9219 c 0,7.3164 3.113,10.5469 10.789,10.5469 9.777,0 9.777,-5.8672 9.777,-9.2266 V 24.7773 c 0,-1.3203 0,-2.5781 1.563,-2.5781 0.66,0 0.957,0.1172 1.195,0.293 v -3.5938 c -0.356,-0.0586 -1.68,-0.3046 -2.938,-0.3046 -1.921,0 -4.316,0 -4.558,4.1406 h -0.117 c -1.621,-2.8789 -4.739,-4.6172 -7.739,-4.6172 -5.996,0 -8.754,3.5937 -8.754,9.3555 0,4.5 1.918,7.6171 6.059,8.875 l 6.773,2.0429 c 3.661,1.1328 3.661,2.1563 3.661,4.8516 0,3 -1.801,4.7383 -5.161,4.7383 -5.515,0 -5.515,-5.1563 -5.515,-6.3008 v -0.293 h -5.035" /><path
             id="path86"
             style="fill:#231f20;fill-opacity:1;fill-rule:nonzero;stroke:none"
             d="m 539.313,61.7695 h 5.039 V 18.957 h -5.039 v 42.8125" /><path
             id="path88"
             style="fill:#231f20;fill-opacity:1;fill-rule:nonzero;stroke:none"
             d="m 552.75,60.4492 h 5.039 v -9.3554 h 5.574 v -3.9532 h -5.574 v -20.625 c 0,-2.5781 0.66,-3.6054 3.301,-3.6054 1.078,0 1.676,0.1289 2.215,0.1875 V 18.957 c -0.657,-0.1172 -1.977,-0.3632 -4.075,-0.3632 -5.222,0 -6.48,2.1601 -6.48,6.3593 v 22.1875 h -4.672 v 3.9532 h 4.672 v 9.3554" /><path
             id="path90"
             style="fill:#231f20;fill-opacity:1;fill-rule:nonzero;stroke:none"
             d="m 566.789,61.7695 h 5.039 V 47.4414 h 0.121 c 1.317,2.6367 4.852,4.4922 7.735,4.4922 8.277,0 8.277,-6.4141 8.277,-10.1953 V 18.957 h -5.039 v 22.1875 c 0,2.461 -0.184,6.4727 -4.738,6.4727 -2.7,0 -6.356,-1.7969 -6.356,-6.4727 V 18.957 h -5.039 v 42.8125" /><path
             id="path92"
             style="fill:#231f20;fill-opacity:1;fill-rule:nonzero;stroke:none"
             d="m 635.355,33.6445 c -0.476,-8.0976 -3.656,-15.5273 -13.011,-15.5273 -12.172,0 -13.793,11.4531 -13.793,22.2461 0,10.8008 1.98,22.2461 13.793,22.2461 8.754,0 12.414,-4.9141 12.656,-13.3125 h -5.516 c -0.125,4.8633 -1.679,8.9961 -7.14,8.9961 -7.313,0 -8.278,-8.0391 -8.278,-17.9297 0,-9.8945 0.965,-17.9297 8.278,-17.9297 6.418,0 7.32,5.9961 7.496,11.2109 h 5.515" /><path
             id="path94"
             style="fill:#231f20;fill-opacity:1;fill-rule:nonzero;stroke:none"
             d="m 654.863,36.4648 c -1.859,-1.9804 -6.297,-2.4023 -8.578,-3.7773 -1.617,-1.0156 -2.457,-2.2773 -2.457,-5.0977 0,-3.2343 1.137,-5.5195 4.555,-5.5195 3.301,0 6.48,2.8242 6.48,6.125 z m -15.531,4.9219 c 0,7.3164 3.113,10.5469 10.789,10.5469 9.777,0 9.777,-5.8672 9.777,-9.2266 V 24.7773 c 0,-1.3203 0,-2.5781 1.563,-2.5781 0.66,0 0.957,0.1172 1.195,0.293 v -3.5938 c -0.355,-0.0586 -1.679,-0.3046 -2.937,-0.3046 -1.922,0 -4.317,0 -4.559,4.1406 h -0.117 c -1.621,-2.8789 -4.738,-4.6172 -7.738,-4.6172 -5.996,0 -8.754,3.5937 -8.754,9.3555 0,4.5 1.918,7.6171 6.058,8.875 l 6.774,2.0429 c 3.66,1.1328 3.66,2.1563 3.66,4.8516 0,3 -1.801,4.7383 -5.16,4.7383 -5.516,0 -5.516,-5.1563 -5.516,-6.3008 v -0.293 h -5.035" /><path
             id="path96"
             style="fill:#231f20;fill-opacity:1;fill-rule:nonzero;stroke:none"
             d="m 666.746,51.0938 h 4.801 v -3.7696 h 0.125 c 1.316,2.9297 4.672,4.6094 7.793,4.6094 8.457,0 8.457,-6.4141 8.457,-10.1953 V 18.957 h -5.039 v 22.1875 c 0,2.461 -0.184,6.4727 -4.738,6.4727 -2.7,0 -6.356,-1.7969 -6.356,-6.4727 V 18.957 h -5.043 v 32.1368" /><path
             id="path98"
             style="fill:#231f20;fill-opacity:1;fill-rule:nonzero;stroke:none"
             d="m 709.281,36.4648 c -1.859,-1.9804 -6.297,-2.4023 -8.578,-3.7773 -1.617,-1.0156 -2.457,-2.2773 -2.457,-5.0977 0,-3.2343 1.141,-5.5195 4.559,-5.5195 3.3,0 6.476,2.8242 6.476,6.125 z m -15.531,4.9219 c 0,7.3164 3.117,10.5469 10.793,10.5469 9.773,0 9.773,-5.8672 9.773,-9.2266 V 24.7773 c 0,-1.3203 0,-2.5781 1.563,-2.5781 0.66,0 0.957,0.1172 1.195,0.293 v -3.5938 c -0.355,-0.0586 -1.679,-0.3046 -2.937,-0.3046 -1.918,0 -4.317,0 -4.559,4.1406 h -0.121 c -1.613,-2.8789 -4.734,-4.6172 -7.734,-4.6172 -5.996,0 -8.754,3.5937 -8.754,9.3555 0,4.5 1.918,7.6171 6.058,8.875 l 6.774,2.0429 c 3.656,1.1328 3.656,2.1563 3.656,4.8516 0,3 -1.797,4.7383 -5.156,4.7383 -5.516,0 -5.516,-5.1563 -5.516,-6.3008 v -0.293 h -5.035" /><path
             id="path100"
             style="fill:#231f20;fill-opacity:1;fill-rule:nonzero;stroke:none"
             d="m 731.121,22.4336 c 5.578,0 6.481,5.2812 6.481,12.5977 0,6.2304 -1.082,12.5859 -6.481,12.5859 -4.676,0 -5.871,-4.9102 -5.871,-12.5859 0,-7.6758 1.195,-12.5977 5.871,-12.5977 z M 742.34,18.957 h -4.801 v 3.9532 h -0.117 c -0.66,-2.3907 -3.481,-4.793 -6.957,-4.793 -7.617,0 -10.492,6.7773 -10.492,16.9141 0,6.707 1.078,16.9023 10.129,16.9023 2.882,0 5.937,-1.7383 7.082,-4.4922 h 0.117 v 14.3281 h 5.039 V 18.957" /><path
             id="path102"
             style="fill:#231f20;fill-opacity:1;fill-rule:nonzero;stroke:none"
             d="m 763.703,36.4648 c -1.863,-1.9804 -6.301,-2.4023 -8.582,-3.7773 -1.613,-1.0156 -2.453,-2.2773 -2.453,-5.0977 0,-3.2343 1.137,-5.5195 4.555,-5.5195 3.3,0 6.48,2.8242 6.48,6.125 z m -15.535,4.9219 c 0,7.3164 3.117,10.5469 10.793,10.5469 9.773,0 9.773,-5.8672 9.773,-9.2266 V 24.7773 c 0,-1.3203 0,-2.5781 1.563,-2.5781 0.66,0 0.957,0.1172 1.199,0.293 v -3.5938 c -0.359,-0.0586 -1.68,-0.3046 -2.941,-0.3046 -1.918,0 -4.317,0 -4.555,4.1406 h -0.117 c -1.621,-2.8789 -4.742,-4.6172 -7.738,-4.6172 -5.997,0 -8.758,3.5937 -8.758,9.3555 0,4.5 1.922,7.6171 6.062,8.875 l 6.77,2.0429 c 3.664,1.1328 3.664,2.1563 3.664,4.8516 0,3 -1.805,4.7383 -5.16,4.7383 -5.52,0 -5.52,-5.1563 -5.52,-6.3008 v -0.293 h -5.035" /><path
             id="path104"
             style="fill:#ffffff;fill-opacity:1;fill-rule:nonzero;stroke:none"
             d="m 297.121,102.617 v -1.258 c 0,-4.0152 1.137,-6.5934 5.692,-6.5934 2.64,0 5.16,1.6797 5.16,5.2734 0,3.899 -1.981,5.344 -7.676,7.316 -7.676,2.645 -11.215,5.821 -11.215,12.958 0,8.332 5.098,12.589 13.254,12.589 7.676,0 13.25,-3.293 13.25,-11.515 v -1.192 h -8.277 c 0,4.016 -1.375,6.348 -4.672,6.348 -3.903,0 -4.918,-2.449 -4.918,-4.969 0,-2.636 0.777,-4.258 4.433,-5.82 l 6.661,-2.883 c 6.476,-2.812 8.156,-6.113 8.156,-11.328 0,-9.0508 -5.52,-13.1328 -14.875,-13.1328 -9.774,0 -13.614,4.5586 -13.614,12.4688 v 1.738 h 8.641" /><path
             id="path106"
             style="fill:#ffffff;fill-opacity:1;fill-rule:nonzero;stroke:none"
             d="m 334.195,94.043 c 3.36,0 4.438,3.3008 4.438,11.34 0,8.035 -1.078,11.328 -4.438,11.328 -4.078,0 -4.433,-4.738 -4.433,-11.328 0,-6.6017 0.355,-11.34 4.433,-11.34 z m 0,28.312 c 9.957,0.176 12.715,-5.761 12.715,-16.972 0,-11.0353 -3.238,-16.9728 -12.715,-16.9728 -9.953,-0.1758 -12.711,5.7617 -12.711,16.9728 0,11.035 3.239,16.972 12.711,16.972" /><path
             id="path108"
             style="fill:#ffffff;fill-opacity:1;fill-rule:nonzero;stroke:none"
             d="m 364.672,94.7656 c 3.664,0 4.383,3.5938 4.383,10.6174 0,7.012 -0.719,10.613 -4.383,10.613 -3.598,0 -4.317,-3.601 -4.317,-10.613 0,-7.0236 0.719,-10.6174 4.317,-10.6174 z m 4.742,-2.0976 h -0.121 c -1.797,-3 -4.078,-4.2578 -7.316,-4.2578 -6.778,0 -9.899,4.9804 -9.899,16.9728 0,11.992 3.121,16.972 9.899,16.972 3.117,0 5.214,-1.261 6.953,-3.839 h 0.125 v 13.547 h 8.273 V 89.25 h -7.914 v 3.418" /><path
             id="path110"
             style="fill:#ffffff;fill-opacity:1;fill-rule:nonzero;stroke:none"
             d="m 384.66,121.516 h 8.274 V 89.25 h -8.274 z m 0,11.035 h 8.274 v -7.082 h -8.274 v 7.082" /><path
             id="path112"
             style="fill:#ffffff;fill-opacity:1;fill-rule:nonzero;stroke:none"
             d="m 416.813,93.0273 h -0.122 c -1.738,-3.1835 -4.738,-4.6171 -8.218,-4.6171 -5.157,0 -8.215,2.8203 -8.215,9.1796 v 23.9262 h 8.277 V 99.2578 c 0,-3.2305 1.078,-4.4922 3.535,-4.4922 2.825,0 4.379,1.7383 4.379,5.3324 v 21.418 h 8.278 V 89.25 h -7.914 v 3.7773" /><path
             id="path114"
             style="fill:#ffffff;fill-opacity:1;fill-rule:nonzero;stroke:none"
             d="m 431.762,121.516 h 7.918 v -3.301 h 0.121 c 2.094,2.937 4.676,4.14 8.152,4.14 3.781,0 6.539,-1.867 7.438,-5.156 h 0.117 c 1.262,3.418 4.258,5.156 8.16,5.156 5.453,0 8.031,-3.417 8.031,-9.66 V 89.25 h -8.277 v 22.547 c 0,2.695 -0.899,4.199 -3.234,4.199 -2.637,0 -4.317,-1.805 -4.317,-5.516 V 89.25 h -8.277 v 22.547 c 0,2.695 -0.899,4.199 -3.239,4.199 -2.636,0 -4.316,-1.805 -4.316,-5.516 V 89.25 h -8.277 v 32.266" /><path
             id="path116"
             style="fill:#231f20;fill-opacity:1;fill-rule:nonzero;stroke:none"
             d="m 187.211,317.285 c 33.586,-13.668 60.273,-40.371 73.617,-73.699 h 511.219 v 73.699 H 187.211" /><path
             id="path118"
             style="fill:#231f20;fill-opacity:1;fill-rule:nonzero;stroke:none"
             d="m 264.504,231.648 c 3.66,-12.027 5.652,-24.761 5.652,-37.96 0,-12.391 -1.769,-24.368 -5.011,-35.739 h 506.902 v 73.699 H 264.504" /><path
             id="path120"
             style="fill:#ffffff;fill-opacity:1;fill-rule:nonzero;stroke:none"
             d="m 297.121,187.824 v -1.261 c 0,-4.012 1.137,-6.59 5.692,-6.59 2.64,0 5.16,1.679 5.16,5.273 0,3.895 -1.981,5.34 -7.676,7.313 -7.676,2.648 -11.215,5.82 -11.215,12.961 0,8.328 5.098,12.585 13.254,12.585 7.676,0 13.25,-3.289 13.25,-11.511 v -1.192 h -8.277 c 0,4.012 -1.375,6.348 -4.672,6.348 -3.903,0 -4.918,-2.453 -4.918,-4.973 0,-2.636 0.777,-4.257 4.433,-5.82 l 6.661,-2.879 c 6.476,-2.812 8.156,-6.113 8.156,-11.328 0,-9.055 -5.52,-13.137 -14.875,-13.137 -9.774,0 -13.614,4.563 -13.614,12.473 v 1.738 h 8.641" /><path
             id="path122"
             style="fill:#ffffff;fill-opacity:1;fill-rule:nonzero;stroke:none"
             d="m 339.117,178.234 h -0.121 c -1.738,-3.183 -4.738,-4.621 -8.219,-4.621 -5.156,0 -8.214,2.825 -8.214,9.18 v 23.926 h 8.277 v -22.254 c 0,-3.235 1.078,-4.492 3.535,-4.492 2.824,0 4.379,1.738 4.379,5.332 v 21.414 h 8.277 v -32.266 h -7.914 v 3.781" /><path
             id="path124"
             style="fill:#ffffff;fill-opacity:1;fill-rule:nonzero;stroke:none"
             d="m 369.594,195.078 c 0,3.125 -0.598,6.485 -3.719,6.485 -4.078,0 -4.738,-3.602 -4.738,-11.036 0,-7.976 0.722,-11.277 4.441,-11.277 2.758,0 4.016,2.344 4.016,7.559 h 7.918 c 0,-8.457 -3.543,-13.196 -12.297,-13.196 -8.277,0 -12.352,4.016 -12.352,16.973 0,13.254 5.457,16.973 13.075,16.973 7.613,0 11.574,-4.864 11.574,-12.481 h -7.918" /><path
             id="path126"
             style="fill:#ffffff;fill-opacity:1;fill-rule:nonzero;stroke:none"
             d="m 383.34,206.719 h 7.914 v -4.317 h 0.125 c 1.672,3.118 4.012,5.157 7.434,5.157 0.48,0 1.015,-0.067 1.5,-0.125 v -7.911 c -0.84,0.059 -1.743,0.118 -2.583,0.118 -2.875,0 -6.113,-1.496 -6.113,-5.821 v -19.367 h -8.277 v 32.266" /><path
             id="path128"
             style="fill:#ffffff;fill-opacity:1;fill-rule:nonzero;stroke:none"
             d="m 420.352,194.238 c -0.18,4.922 -0.782,7.676 -4.2,7.676 -3.297,0 -4.257,-3.418 -4.257,-6.414 v -1.262 z m -8.457,-4.91 v -2.578 c 0,-3.781 1.019,-7.5 4.078,-7.5 2.757,0 3.898,2.098 4.379,6.055 h 7.437 c -0.305,-7.492 -3.902,-11.692 -11.695,-11.692 -11.992,0 -12.477,9.239 -12.477,17.278 0,8.632 1.68,16.668 12.832,16.668 9.66,0 11.817,-6.485 11.817,-16.375 v -1.856 h -16.371" /><path
             id="path130"
             style="fill:#ffffff;fill-opacity:1;fill-rule:nonzero;stroke:none"
             d="m 440.156,185.012 v -1.086 c 0,-2.813 1.5,-4.676 4.321,-4.676 2.515,0 4.195,1.258 4.195,3.836 0,2.102 -1.375,3.059 -2.996,3.664 l -5.817,2.098 c -4.554,1.621 -6.894,4.433 -6.894,8.996 0,5.332 3.355,9.715 11.871,9.715 7.492,0 11.035,-3.36 11.035,-9.18 v -1.316 h -7.437 c 0,3.242 -0.957,4.851 -3.657,4.851 -2.101,0 -3.898,-1.191 -3.898,-3.476 0,-1.551 0.84,-2.872 3.598,-3.778 l 4.976,-1.68 c 5.215,-1.738 7.133,-4.375 7.133,-9.23 0,-6.777 -5.031,-10.137 -11.992,-10.137 -9.289,0 -11.875,4.082 -11.875,10.254 v 1.145 h 7.437" /><path
             id="path132"
             style="fill:#ffffff;fill-opacity:1;fill-rule:nonzero;stroke:none"
             d="m 488.754,218.105 h 6.715 l -13.551,-44.492 h -6.719 l 13.555,44.492" /><path
             id="path134"
             style="fill:#ffffff;fill-opacity:1;fill-rule:nonzero;stroke:none"
             d="m 522.656,187.824 v -1.261 c 0,-4.012 1.137,-6.59 5.696,-6.59 2.64,0 5.16,1.679 5.16,5.273 0,3.895 -1.985,5.34 -7.676,7.313 -7.676,2.648 -11.215,5.82 -11.215,12.961 0,8.328 5.098,12.585 13.25,12.585 7.676,0 13.25,-3.289 13.25,-11.511 v -1.192 h -8.273 c 0,4.012 -1.379,6.348 -4.672,6.348 -3.903,0 -4.918,-2.453 -4.918,-4.973 0,-2.636 0.777,-4.257 4.433,-5.82 l 6.661,-2.879 c 6.472,-2.812 8.152,-6.113 8.152,-11.328 0,-9.055 -5.516,-13.137 -14.871,-13.137 -9.778,0 -13.613,4.563 -13.613,12.473 v 1.738 h 8.636" /><path
             id="path136"
             style="fill:#ffffff;fill-opacity:1;fill-rule:nonzero;stroke:none"
             d="m 564.648,178.234 h -0.121 c -1.738,-3.183 -4.738,-4.621 -8.218,-4.621 -5.157,0 -8.211,2.825 -8.211,9.18 v 23.926 h 8.273 v -22.254 c 0,-3.235 1.082,-4.492 3.535,-4.492 2.824,0 4.383,1.738 4.383,5.332 v 21.414 h 8.274 v -32.266 h -7.915 v 3.781" /><path
             id="path138"
             style="fill:#ffffff;fill-opacity:1;fill-rule:nonzero;stroke:none"
             d="m 591.352,181.172 c 3.476,0 4.5,3.781 4.5,9.23 0,7.86 -1.024,10.801 -4.317,10.801 -3.66,0 -4.316,-2.941 -4.316,-11.64 0,-4.434 0.656,-8.391 4.133,-8.391 z m 12.414,25.547 v -30.645 c 0,-8.515 -3.774,-12.656 -13.434,-12.656 -7.016,0 -10.973,3.117 -10.973,8.633 h 7.918 c 0,-1.074 0.477,-1.914 1.258,-2.449 0.778,-0.547 1.738,-0.911 2.758,-0.911 3.359,0 4.559,2.52 4.559,5.821 v 4.258 h -0.118 c -1.679,-2.403 -4.257,-3.954 -6.902,-3.954 -6.594,0 -9.891,4.493 -9.891,16.309 0,7.559 1.137,16.434 10.133,16.434 2.278,0 5.098,-1.082 6.66,-4.442 h 0.118 v 3.602 h 7.914" /><path
             id="path140"
             style="fill:#ffffff;fill-opacity:1;fill-rule:nonzero;stroke:none"
             d="m 626.152,190.586 c -1.14,-0.84 -2.519,-1.375 -3.539,-1.621 -3.359,-0.723 -4.679,-2.332 -4.679,-5.215 0,-2.461 0.898,-4.5 3.121,-4.5 2.218,0 5.097,1.445 5.097,4.98 z m -15.113,6.23 v 0.782 c 0,7.441 5.098,9.961 11.332,9.961 9.836,0 11.695,-4.082 11.695,-9.903 v -16.961 c 0,-3 0.176,-4.386 1.016,-6.242 h -7.914 c -0.535,1.016 -0.777,2.277 -1.016,3.36 h -0.121 c -1.918,-3.36 -4.258,-4.2 -8.218,-4.2 -5.758,0 -7.793,4.922 -7.793,9.239 0,6.054 2.457,8.515 8.156,10.07 l 4.676,1.258 c 2.461,0.664 3.3,1.621 3.3,3.781 0,2.461 -1.082,3.953 -3.836,3.953 -2.519,0 -3.839,-1.68 -3.839,-4.187 v -0.911 h -7.438" /><path
             id="path142"
             style="fill:#ffffff;fill-opacity:1;fill-rule:nonzero;stroke:none"
             d="m 641.453,206.719 h 7.918 v -4.317 h 0.121 c 1.676,3.118 4.016,5.157 7.438,5.157 0.476,0 1.015,-0.067 1.5,-0.125 v -7.911 c -0.84,0.059 -1.746,0.118 -2.586,0.118 -2.875,0 -6.114,-1.496 -6.114,-5.821 v -19.367 h -8.277 v 32.266" /><path
             id="path144"
             style="fill:#ffffff;fill-opacity:1;fill-rule:nonzero;stroke:none"
             d="m 668.988,185.012 v -1.086 c 0,-2.813 1.5,-4.676 4.325,-4.676 2.511,0 4.191,1.258 4.191,3.836 0,2.102 -1.375,3.059 -2.996,3.664 l -5.817,2.098 c -4.554,1.621 -6.894,4.433 -6.894,8.996 0,5.332 3.355,9.715 11.871,9.715 7.496,0 11.035,-3.36 11.035,-9.18 v -1.316 h -7.437 c 0,3.242 -0.957,4.851 -3.657,4.851 -2.101,0 -3.898,-1.191 -3.898,-3.476 0,-1.551 0.84,-2.872 3.602,-3.778 l 4.972,-1.68 c 5.215,-1.738 7.137,-4.375 7.137,-9.23 0,-6.777 -5.035,-10.137 -11.992,-10.137 -9.293,0 -11.875,4.082 -11.875,10.254 v 1.145 h 7.433" /><path
             id="path146"
             style="fill:#ffffff;fill-opacity:1;fill-rule:nonzero;stroke:none"
             d="m 309.172,289 c 0,3.176 -1.442,7.188 -4.918,7.188 -4.199,0 -5.875,-4.317 -5.875,-14.993 0,-10.308 0.957,-16.781 5.934,-16.781 2.039,0 5.335,2.219 5.335,6.832 v 4.375 h -5.695 v 6.356 h 13.973 v -23.079 h -6.36 v 3.954 h -0.117 c -2.039,-3.36 -4.972,-4.793 -8.992,-4.793 -10.617,0 -12.715,7.918 -12.715,22.718 0,14.395 3.36,21.77 14.395,21.77 9.472,0 13.308,-4.856 13.308,-13.547 h -8.273" /><path
             id="path148"
             style="fill:#ffffff;fill-opacity:1;fill-rule:nonzero;stroke:none"
             d="m 324.781,291.156 h 7.914 v -4.312 h 0.121 c 1.68,3.113 4.016,5.152 7.434,5.152 0.484,0 1.02,-0.066 1.504,-0.125 v -7.91 c -0.84,0.059 -1.742,0.117 -2.582,0.117 -2.879,0 -6.113,-1.492 -6.113,-5.82 v -19.36 h -8.278 v 32.258" /><path
             id="path150"
             style="fill:#ffffff;fill-opacity:1;fill-rule:nonzero;stroke:none"
             d="m 361.313,275.023 c -1.141,-0.839 -2.52,-1.375 -3.54,-1.621 -3.359,-0.718 -4.675,-2.332 -4.675,-5.207 0,-2.461 0.898,-4.504 3.117,-4.504 2.219,0 5.098,1.446 5.098,4.981 z m -15.11,6.235 v 0.777 c 0,7.442 5.098,9.961 11.332,9.961 9.832,0 11.695,-4.082 11.695,-9.898 v -16.961 c 0,-2.996 0.18,-4.383 1.016,-6.239 h -7.918 c -0.535,1.016 -0.773,2.274 -1.015,3.36 h -0.122 c -1.918,-3.36 -4.257,-4.199 -8.218,-4.199 -5.754,0 -7.793,4.921 -7.793,9.238 0,6.051 2.457,8.512 8.156,10.062 l 4.676,1.258 c 2.461,0.664 3.301,1.621 3.301,3.781 0,2.461 -1.083,3.954 -3.836,3.954 -2.52,0 -3.84,-1.676 -3.84,-4.188 v -0.906 h -7.434" /><path
             id="path152"
             style="fill:#ffffff;fill-opacity:1;fill-rule:nonzero;stroke:none"
             d="m 382.676,269.449 v -1.078 c 0,-2.812 1.5,-4.68 4.32,-4.68 2.516,0 4.195,1.262 4.195,3.84 0,2.094 -1.375,3.051 -2.996,3.657 l -5.816,2.097 c -4.555,1.621 -6.895,4.438 -6.895,8.996 0,5.332 3.356,9.715 11.871,9.715 7.493,0 11.036,-3.355 11.036,-9.18 V 281.5 h -7.438 c 0,3.242 -0.957,4.852 -3.656,4.852 -2.102,0 -3.899,-1.192 -3.899,-3.473 0,-1.555 0.84,-2.871 3.598,-3.781 l 4.977,-1.68 c 5.215,-1.738 7.132,-4.375 7.132,-9.223 0,-6.777 -5.031,-10.136 -11.992,-10.136 -9.289,0 -11.875,4.082 -11.875,10.254 v 1.136 h 7.438" /><path
             id="path154"
             style="fill:#ffffff;fill-opacity:1;fill-rule:nonzero;stroke:none"
             d="m 426.715,269.449 v -1.078 c 0,-2.812 1.5,-4.68 4.32,-4.68 2.516,0 4.195,1.262 4.195,3.84 0,2.094 -1.378,3.051 -3,3.657 l -5.812,2.097 c -4.559,1.621 -6.895,4.438 -6.895,8.996 0,5.332 3.352,9.715 11.868,9.715 7.496,0 11.035,-3.355 11.035,-9.18 V 281.5 h -7.434 c 0,3.242 -0.957,4.852 -3.66,4.852 -2.098,0 -3.894,-1.192 -3.894,-3.473 0,-1.555 0.839,-2.871 3.597,-3.781 l 4.977,-1.68 c 5.215,-1.738 7.133,-4.375 7.133,-9.223 0,-6.777 -5.036,-10.136 -11.993,-10.136 -9.293,0 -11.875,4.082 -11.875,10.254 v 1.136 h 7.438" /><path
             id="path156"
             style="fill:#ffffff;fill-opacity:1;fill-rule:nonzero;stroke:none"
             d="m 463.852,275.023 c -1.141,-0.839 -2.52,-1.375 -3.539,-1.621 -3.36,-0.718 -4.676,-2.332 -4.676,-5.207 0,-2.461 0.898,-4.504 3.117,-4.504 2.219,0 5.098,1.446 5.098,4.981 z m -15.11,6.235 v 0.777 c 0,7.442 5.098,9.961 11.332,9.961 9.832,0 11.696,-4.082 11.696,-9.898 v -16.961 c 0,-2.996 0.179,-4.383 1.015,-6.239 h -7.918 c -0.535,1.016 -0.773,2.274 -1.015,3.36 h -0.122 c -1.917,-3.36 -4.257,-4.199 -8.218,-4.199 -5.754,0 -7.793,4.921 -7.793,9.238 0,6.051 2.457,8.512 8.156,10.062 l 4.676,1.258 c 2.461,0.664 3.301,1.621 3.301,3.781 0,2.461 -1.082,3.954 -3.836,3.954 -2.52,0 -3.84,-1.676 -3.84,-4.188 v -0.906 h -7.434" /><path
             id="path158"
             style="fill:#ffffff;fill-opacity:1;fill-rule:nonzero;stroke:none"
             d="m 480.953,300.387 h 8.277 v -9.231 h 4.797 v -5.64 h -4.797 v -17.438 c 0,-2.519 0.54,-3.547 2.938,-3.547 0.66,0 1.32,0.059 1.859,0.129 v -5.762 c -1.8,-0.175 -3.48,-0.363 -5.398,-0.363 -6.477,0 -7.676,1.985 -7.676,8.516 v 18.465 h -4.195 v 5.64 h 4.195 v 9.231" /><path
             id="path160"
             style="fill:#ffffff;fill-opacity:1;fill-rule:nonzero;stroke:none"
             d="m 506.813,268.254 v -9.356 h -7.915 v 9.356 h 7.915" /><path
             id="path162"
             style="fill:#ffffff;fill-opacity:1;fill-rule:nonzero;stroke:none"
             d="m 538.613,302.547 h 6.715 l -13.551,-44.488 h -6.718 l 13.554,44.488" /><path
             id="path164"
             style="fill:#ffffff;fill-opacity:1;fill-rule:nonzero;stroke:none"
             d="m 572.516,272.262 v -1.258 c 0,-4.012 1.136,-6.59 5.691,-6.59 2.645,0 5.164,1.68 5.164,5.27 0,3.894 -1.984,5.339 -7.676,7.312 -7.675,2.649 -11.218,5.82 -11.218,12.961 0,8.328 5.097,12.59 13.253,12.59 7.676,0 13.25,-3.293 13.25,-11.516 v -1.191 h -8.269 c 0,4.012 -1.383,6.348 -4.68,6.348 -3.898,0 -4.922,-2.454 -4.922,-4.969 0,-2.641 0.782,-4.258 4.442,-5.824 l 6.66,-2.879 c 6.473,-2.813 8.152,-6.114 8.152,-11.328 0,-9.047 -5.515,-13.129 -14.871,-13.129 -9.777,0 -13.613,4.558 -13.613,12.464 v 1.739 h 8.637" /><path
             id="path166"
             style="fill:#ffffff;fill-opacity:1;fill-rule:nonzero;stroke:none"
             d="m 613.008,275.023 c -1.141,-0.839 -2.52,-1.375 -3.539,-1.621 -3.36,-0.718 -4.68,-2.332 -4.68,-5.207 0,-2.461 0.899,-4.504 3.121,-4.504 2.219,0 5.098,1.446 5.098,4.981 z m -15.113,6.235 v 0.777 c 0,7.442 5.097,9.961 11.335,9.961 9.833,0 11.692,-4.082 11.692,-9.898 v -16.961 c 0,-2.996 0.176,-4.383 1.016,-6.239 h -7.915 c -0.535,1.016 -0.777,2.274 -1.015,3.36 h -0.121 c -1.918,-3.36 -4.258,-4.199 -8.219,-4.199 -5.758,0 -7.793,4.921 -7.793,9.238 0,6.051 2.457,8.512 8.156,10.062 l 4.676,1.258 c 2.461,0.664 3.301,1.621 3.301,3.781 0,2.461 -1.082,3.954 -3.836,3.954 -2.52,0 -3.84,-1.676 -3.84,-4.188 v -0.906 h -7.437" /><path
             id="path168"
             style="fill:#ffffff;fill-opacity:1;fill-rule:nonzero;stroke:none"
             d="m 630.113,300.387 h 8.278 v -9.231 h 4.797 v -5.64 h -4.797 v -17.438 c 0,-2.519 0.539,-3.547 2.937,-3.547 0.66,0 1.32,0.059 1.86,0.129 v -5.762 c -1.801,-0.175 -3.481,-0.363 -5.399,-0.363 -6.476,0 -7.676,1.985 -7.676,8.516 v 18.465 h -4.195 v 5.64 h 4.195 v 9.231" /><path
             id="path170"
             style="fill:#ffffff;fill-opacity:1;fill-rule:nonzero;stroke:none"
             d="m 665.27,285.516 h -4.196 v 5.64 h 4.196 v 3.653 c 0,5.824 3.3,7.738 8.636,7.738 1.5,0 2.942,-0.063 4.438,-0.18 v -5.879 c -0.539,0.063 -1.078,0.063 -1.621,0.063 -2.336,0 -3.176,-0.715 -3.176,-2.578 v -2.817 h 4.797 v -5.64 h -4.797 v -26.618 h -8.277 v 26.618" /><path
             id="path172"
             style="fill:#ffffff;fill-opacity:1;fill-rule:nonzero;stroke:none"
             d="m 696.586,275.023 c -1.141,-0.839 -2.52,-1.375 -3.539,-1.621 -3.359,-0.718 -4.676,-2.332 -4.676,-5.207 0,-2.461 0.899,-4.504 3.117,-4.504 2.219,0 5.098,1.446 5.098,4.981 z m -15.109,6.235 v 0.777 c 0,7.442 5.097,9.961 11.332,9.961 9.832,0 11.695,-4.082 11.695,-9.898 v -16.961 c 0,-2.996 0.18,-4.383 1.016,-6.239 h -7.918 c -0.536,1.016 -0.774,2.274 -1.016,3.36 h -0.121 c -1.918,-3.36 -4.258,-4.199 -8.219,-4.199 -5.754,0 -7.793,4.921 -7.793,9.238 0,6.051 2.457,8.512 8.156,10.062 l 4.676,1.258 c 2.461,0.664 3.301,1.621 3.301,3.781 0,2.461 -1.082,3.954 -3.836,3.954 -2.52,0 -3.84,-1.676 -3.84,-4.188 v -0.906 h -7.433" /><path
             id="path174"
             style="fill:#ffffff;fill-opacity:1;fill-rule:nonzero;stroke:none"
             d="m 713.691,300.387 h 8.278 v -9.231 h 4.801 v -5.64 h -4.801 v -17.438 c 0,-2.519 0.543,-3.547 2.937,-3.547 0.66,0 1.321,0.059 1.864,0.129 v -5.762 c -1.805,-0.175 -3.485,-0.363 -5.403,-0.363 -6.472,0 -7.676,1.985 -7.676,8.516 v 18.465 h -4.195 v 5.64 h 4.195 v 9.231" /><path
             id="path176"
             style="fill:#231f20;fill-opacity:1;fill-rule:nonzero;stroke:none"
             d="m 202.102,154.719 c -22.141,-37.715 -70.7,-50.36 -108.3715,-28.215 -37.7149,22.137 -50.3633,70.738 -28.2266,108.453 22.1445,37.672 70.3321,50.231 108.4611,28.184 38.125,-22.004 50.32,-70.746 28.137,-108.422 z M 186.965,285.98 C 136.676,315.527 72.5664,298.801 42.9805,248.508 17.1094,203.863 26.9961,148.063 64.5703,115.715 L 22.2656,44.625 c -4.2109,-7.1797 -1.582,-16.4219 5.7735,-20.3125 l 10.1484,-5.375 c 6.9961,-3.7031 15.6719,-1.168 19.5703,5.7227 l 40.125,71.457 C 144.91,79.1914 198.438,97.7188 224.441,141.996 c 29.5,50.285 12.856,114.445 -37.476,143.984" /></g></g></g></g></svg>