<?xml version="1.0" encoding="UTF-8" standalone="no"?>
<svg
   xmlns:dc="http://purl.org/dc/elements/1.1/"
   xmlns:cc="http://creativecommons.org/ns#"
   xmlns:rdf="http://www.w3.org/1999/02/22-rdf-syntax-ns#"
   xmlns:svg="http://www.w3.org/2000/svg"
   xmlns="http://www.w3.org/2000/svg"
   viewBox="0 0 94.487999 32.125998"
   height="32.125999"
   width="94.487999"
   xml:space="preserve"
   id="svg2"
   version="1.1"><metadata
     id="metadata8"><rdf:RDF><cc:Work
         rdf:about=""><dc:format>image/svg+xml</dc:format><dc:type
           rdf:resource="http://purl.org/dc/dcmitype/StillImage" /></cc:Work></rdf:RDF></metadata><defs
     id="defs6"><clipPath
       id="clipPath20"
       clipPathUnits="userSpaceOnUse"><path
         id="path18"
         d="M 0,0 H 708.66 V 240.945 H 0 Z" /></clipPath></defs><g
     transform="matrix(1.3333333,0,0,-1.3333333,0,32.125999)"
     id="g10"><g
       transform="scale(0.1)"
       id="g12"><g
         id="g14"><g
           clip-path="url(#clipPath20)"
           id="g16"><path
             id="path22"
             style="fill:#ffffff;fill-opacity:1;fill-rule:nonzero;stroke:none"
             d="M 2.5,2.50391 V 238.445 H 706.156 V 2.50391 H 2.5" /><path
             id="path24"
             style="fill:#231f20;fill-opacity:1;fill-rule:nonzero;stroke:none"
             d="M 708.66,240.945 H 0 V 0 h 708.66 z m -5,-5 V 5 H 5 v 230.945 h 698.66" /><path
             id="path26"
             style="fill:#231f20;fill-opacity:1;fill-rule:nonzero;stroke:none"
             d="m 38.4414,51.7148 c 0,4.4922 -1.6211,7.6094 -6.6601,7.6094 -4.4415,0 -7.0782,-2.3945 -7.0782,-6.9531 0,-12.0508 20.211,-4.8555 20.211,-20.5078 0,-9.8945 -7.2578,-12.7149 -13.3164,-12.7149 -10.0079,0 -12.9493,5.1563 -12.9493,14.2774 h 5.2735 c 0,-4.8047 0.3047,-9.961 8.039,-9.961 4.1993,0 7.4375,2.9961 7.4375,7.5586 0,12.1172 -20.2109,5.0977 -20.2109,20.8086 0,3.9571 1.6797,11.8164 12.5352,11.8164 8.1523,0 11.875,-4.082 11.9921,-11.9336 h -5.2734" /><path
             id="path28"
             style="fill:#231f20;fill-opacity:1;fill-rule:nonzero;stroke:none"
             d="m 64.8398,37.4961 c -1.8593,-1.9727 -6.2968,-2.3906 -8.5781,-3.7773 -1.6172,-1.0157 -2.457,-2.2774 -2.457,-5.0977 0,-3.2344 1.1406,-5.5078 4.5586,-5.5078 3.2969,0 6.4765,2.8125 6.4765,6.1133 z M 49.3086,42.418 c 0,7.3164 3.1172,10.5586 10.793,10.5586 9.7734,0 9.7734,-5.8789 9.7734,-9.2383 V 25.8086 c 0,-1.3203 0,-2.5781 1.5625,-2.5781 0.6602,0 0.957,0.1172 1.1953,0.3008 v -3.6016 c -0.3555,-0.0586 -1.6797,-0.3047 -2.9375,-0.3047 -1.918,0 -4.3164,0 -4.5547,4.1406 h -0.125 c -1.6133,-2.8789 -4.7343,-4.6172 -7.7343,-4.6172 -5.9961,0 -8.754,3.6016 -8.754,9.3555 0,4.5 1.918,7.6172 6.0586,8.875 l 6.7735,2.043 c 3.6562,1.1328 3.6562,2.1562 3.6562,4.8515 0,3 -1.7968,4.7383 -5.1562,4.7383 -5.5156,0 -5.5156,-5.1562 -5.5156,-6.289 V 42.418 h -5.0352" /><path
             id="path30"
             style="fill:#231f20;fill-opacity:1;fill-rule:nonzero;stroke:none"
             d="m 76.7266,52.1367 h 4.8007 v -3.7812 h 0.1211 c 1.3164,2.9414 4.6719,4.6211 7.793,4.6211 8.457,0 8.457,-6.418 8.457,-10.1953 v -22.793 h -5.039 v 22.1875 c 0,2.4609 -0.1797,6.4726 -4.7383,6.4726 -2.6992,0 -6.3555,-1.7968 -6.3555,-6.4726 V 19.9883 h -5.039 v 32.1484" /><path
             id="path32"
             style="fill:#231f20;fill-opacity:1;fill-rule:nonzero;stroke:none"
             d="m 106.004,61.4922 h 5.039 v -9.3555 h 5.574 v -3.9648 h -5.574 v -20.625 c 0,-2.5781 0.656,-3.5938 3.301,-3.5938 1.078,0 1.676,0.1172 2.215,0.1758 v -4.1406 c -0.657,-0.1172 -1.977,-0.3633 -4.075,-0.3633 -5.222,0 -6.48,2.1602 -6.48,6.3594 v 22.1875 h -4.676 v 3.9648 h 4.676 v 9.3555" /><path
             id="path34"
             style="fill:#231f20;fill-opacity:1;fill-rule:nonzero;stroke:none"
             d="m 131.258,65.0859 h 5.879 l -6.481,-8.5156 h -3.597 z m 4.617,-25.664 v 1.7383 c 0,3.5937 -1.141,7.8515 -5.574,7.8515 -5.278,0 -5.879,-6.4765 -5.879,-8.3906 v -1.1992 z m -11.637,-3.9571 c 0,-4.9218 0,-12.3515 6.18,-12.3515 4.801,0 5.457,5.0273 5.457,7.4297 h 5.035 c 0,-3.418 -2.035,-11.3946 -10.793,-11.3946 -7.855,0 -11.156,5.4571 -11.156,16.4922 0,8.0391 1.562,17.336 11.457,17.336 9.832,0 10.73,-8.586 10.73,-15.4805 v -2.0313 h -16.91" /><path
             id="path36"
             style="fill:#231f20;fill-opacity:1;fill-rule:nonzero;stroke:none"
             d="m 187.469,34.6836 c -0.481,-8.0938 -3.656,-15.5352 -13.016,-15.5352 -12.172,0 -13.793,11.4532 -13.793,22.2461 0,10.8008 1.985,22.2539 13.793,22.2539 8.758,0 12.414,-4.9218 12.66,-13.3203 h -5.519 c -0.121,4.8633 -1.68,8.9961 -7.141,8.9961 -7.312,0 -8.273,-8.0273 -8.273,-17.9297 0,-9.8945 0.961,-17.9297 8.273,-17.9297 6.418,0 7.32,5.9961 7.496,11.2188 h 5.52" /><path
             id="path38"
             style="fill:#231f20;fill-opacity:1;fill-rule:nonzero;stroke:none"
             d="m 206.98,37.4961 c -1.863,-1.9727 -6.3,-2.3906 -8.578,-3.7773 -1.617,-1.0157 -2.457,-2.2774 -2.457,-5.0977 0,-3.2344 1.137,-5.5078 4.555,-5.5078 3.301,0 6.48,2.8125 6.48,6.1133 z m -15.535,4.9219 c 0,7.3164 3.118,10.5586 10.793,10.5586 9.778,0 9.778,-5.8789 9.778,-9.2383 V 25.8086 c 0,-1.3203 0,-2.5781 1.558,-2.5781 0.66,0 0.957,0.1172 1.199,0.3008 v -3.6016 c -0.355,-0.0586 -1.679,-0.3047 -2.941,-0.3047 -1.918,0 -4.316,0 -4.555,4.1406 h -0.121 c -1.617,-2.8789 -4.738,-4.6172 -7.734,-4.6172 -5.996,0 -8.754,3.6016 -8.754,9.3555 0,4.5 1.918,7.6172 6.059,8.875 l 6.769,2.043 c 3.66,1.1328 3.66,2.1562 3.66,4.8515 0,3 -1.797,4.7383 -5.156,4.7383 -5.52,0 -5.52,-5.1562 -5.52,-6.289 V 42.418 h -5.035" /><path
             id="path40"
             style="fill:#231f20;fill-opacity:1;fill-rule:nonzero;stroke:none"
             d="m 218.859,52.1367 h 4.801 v -3.7812 h 0.121 c 1.321,2.9414 4.672,4.6211 7.793,4.6211 8.457,0 8.457,-6.418 8.457,-10.1953 v -22.793 h -5.039 v 22.1875 c 0,2.4609 -0.179,6.4726 -4.734,6.4726 -2.703,0 -6.36,-1.7968 -6.36,-6.4726 V 19.9883 h -5.039 v 32.1484" /><path
             id="path42"
             style="fill:#231f20;fill-opacity:1;fill-rule:nonzero;stroke:none"
             d="m 261.398,37.4961 c -1.859,-1.9727 -6.296,-2.3906 -8.578,-3.7773 -1.617,-1.0157 -2.457,-2.2774 -2.457,-5.0977 0,-3.2344 1.137,-5.5078 4.555,-5.5078 3.301,0 6.48,2.8125 6.48,6.1133 z m -15.531,4.9219 c 0,7.3164 3.113,10.5586 10.789,10.5586 9.778,0 9.778,-5.8789 9.778,-9.2383 V 25.8086 c 0,-1.3203 0,-2.5781 1.562,-2.5781 0.66,0 0.957,0.1172 1.195,0.3008 v -3.6016 c -0.355,-0.0586 -1.679,-0.3047 -2.937,-0.3047 -1.922,0 -4.316,0 -4.559,4.1406 h -0.117 c -1.621,-2.8789 -4.738,-4.6172 -7.738,-4.6172 -5.996,0 -8.754,3.6016 -8.754,9.3555 0,4.5 1.918,7.6172 6.059,8.875 l 6.773,2.043 c 3.66,1.1328 3.66,2.1562 3.66,4.8515 0,3 -1.801,4.7383 -5.16,4.7383 -5.516,0 -5.516,-5.1562 -5.516,-6.289 V 42.418 h -5.035" /><path
             id="path44"
             style="fill:#231f20;fill-opacity:1;fill-rule:nonzero;stroke:none"
             d="m 283.234,23.4648 c 5.579,0 6.481,5.2813 6.481,12.5977 0,6.2383 -1.086,12.5859 -6.481,12.5859 -4.675,0 -5.875,-4.9101 -5.875,-12.5859 0,-7.6758 1.2,-12.5977 5.875,-12.5977 z m 11.215,-3.4765 h -4.797 v 3.9648 h -0.121 c -0.656,-2.4023 -3.48,-4.8047 -6.957,-4.8047 -7.617,0 -10.492,6.7774 -10.492,16.9141 0,6.7188 1.078,16.9141 10.133,16.9141 2.879,0 5.937,-1.7383 7.078,-4.5039 h 0.117 v 14.3359 h 5.039 V 19.9883" /><path
             id="path46"
             style="fill:#231f20;fill-opacity:1;fill-rule:nonzero;stroke:none"
             d="m 315.816,37.4961 c -1.859,-1.9727 -6.296,-2.3906 -8.578,-3.7773 -1.617,-1.0157 -2.457,-2.2774 -2.457,-5.0977 0,-3.2344 1.141,-5.5078 4.559,-5.5078 3.301,0 6.476,2.8125 6.476,6.1133 z m -15.531,4.9219 c 0,7.3164 3.117,10.5586 10.789,10.5586 9.778,0 9.778,-5.8789 9.778,-9.2383 V 25.8086 c 0,-1.3203 0,-2.5781 1.562,-2.5781 0.66,0 0.957,0.1172 1.195,0.3008 v -3.6016 c -0.355,-0.0586 -1.679,-0.3047 -2.937,-0.3047 -1.918,0 -4.317,0 -4.559,4.1406 h -0.121 c -1.613,-2.8789 -4.734,-4.6172 -7.734,-4.6172 -5.996,0 -8.754,3.6016 -8.754,9.3555 0,4.5 1.918,7.6172 6.059,8.875 l 6.773,2.043 c 3.656,1.1328 3.656,2.1562 3.656,4.8515 0,3 -1.797,4.7383 -5.156,4.7383 -5.516,0 -5.516,-5.1562 -5.516,-6.289 V 42.418 h -5.035" /><path
             id="path48"
             style="fill:#231f20;fill-opacity:1;fill-rule:nonzero;stroke:none"
             d="m 352.113,63.6484 h 3.957 l -13.91,-44.5 h -3.961 l 13.914,44.5" /><path
             id="path50"
             style="fill:#231f20;fill-opacity:1;fill-rule:nonzero;stroke:none"
             d="m 398.605,19.9883 h -5.273 V 40.6211 H 378.637 V 19.9883 h -5.274 v 42.8203 h 5.274 V 45.3008 h 14.695 v 17.5078 h 5.273 V 19.9883" /><path
             id="path52"
             style="fill:#231f20;fill-opacity:1;fill-rule:nonzero;stroke:none"
             d="m 421.234,39.4219 v 1.7383 c 0,3.5937 -1.144,7.8515 -5.578,7.8515 -5.273,0 -5.879,-6.4765 -5.879,-8.3906 v -1.1992 z m -11.632,-3.9571 c 0,-4.9218 0,-12.3515 6.171,-12.3515 4.805,0 5.461,5.0273 5.461,7.4297 h 5.039 c 0,-3.418 -2.043,-11.3946 -10.793,-11.3946 -7.863,0 -11.16,5.4571 -11.16,16.4922 0,8.0391 1.563,17.336 11.453,17.336 9.836,0 10.735,-8.586 10.735,-15.4805 v -2.0313 h -16.906" /><path
             id="path54"
             style="fill:#231f20;fill-opacity:1;fill-rule:nonzero;stroke:none"
             d="m 446.789,37.4961 c -1.855,-1.9727 -6.301,-2.3906 -8.574,-3.7773 -1.621,-1.0157 -2.461,-2.2774 -2.461,-5.0977 0,-3.2344 1.144,-5.5078 4.562,-5.5078 3.297,0 6.473,2.8125 6.473,6.1133 z m -15.527,4.9219 c 0,7.3164 3.117,10.5586 10.793,10.5586 9.773,0 9.773,-5.8789 9.773,-9.2383 V 25.8086 c 0,-1.3203 0,-2.5781 1.563,-2.5781 0.656,0 0.957,0.1172 1.191,0.3008 v -3.6016 c -0.352,-0.0586 -1.68,-0.3047 -2.937,-0.3047 -1.915,0 -4.321,0 -4.551,4.1406 h -0.117 c -1.622,-2.8789 -4.747,-4.6172 -7.747,-4.6172 -5.996,0 -8.75,3.6016 -8.75,9.3555 0,4.5 1.915,7.6172 6.055,8.875 l 6.778,2.043 c 3.664,1.1328 3.664,2.1562 3.664,4.8515 0,3 -1.809,4.7383 -5.168,4.7383 -5.516,0 -5.516,-5.1562 -5.516,-6.289 V 42.418 h -5.031" /><path
             id="path56"
             style="fill:#231f20;fill-opacity:1;fill-rule:nonzero;stroke:none"
             d="m 458.977,62.8086 h 5.039 V 19.9883 h -5.039 v 42.8203" /><path
             id="path58"
             style="fill:#231f20;fill-opacity:1;fill-rule:nonzero;stroke:none"
             d="m 472.426,61.4922 h 5.027 v -9.3555 h 5.578 v -3.9648 h -5.578 v -20.625 c 0,-2.5781 0.664,-3.5938 3.301,-3.5938 1.086,0 1.68,0.1172 2.219,0.1758 v -4.1406 c -0.657,-0.1172 -1.977,-0.3633 -4.075,-0.3633 -5.222,0 -6.472,2.1602 -6.472,6.3594 v 22.1875 h -4.68 v 3.9648 h 4.68 v 9.3555" /><path
             id="path60"
             style="fill:#231f20;fill-opacity:1;fill-rule:nonzero;stroke:none"
             d="m 486.457,62.8086 h 5.039 V 48.4727 h 0.117 c 1.321,2.6367 4.856,4.5039 7.735,4.5039 8.281,0 8.281,-6.418 8.281,-10.1953 v -22.793 h -5.039 v 22.1875 c 0,2.4609 -0.184,6.4726 -4.735,6.4726 -2.707,0 -6.359,-1.7968 -6.359,-6.4726 V 19.9883 h -5.039 v 42.8203" /><path
             id="path62"
             style="fill:#231f20;fill-opacity:1;fill-rule:nonzero;stroke:none"
             d="m 555.023,34.6836 c -0.48,-8.0938 -3.656,-15.5352 -13.007,-15.5352 -12.18,0 -13.789,11.4532 -13.789,22.2461 0,10.8008 1.968,22.2539 13.789,22.2539 8.75,0 12.41,-4.9218 12.656,-13.3203 h -5.52 c -0.125,4.8633 -1.679,8.9961 -7.136,8.9961 -7.317,0 -8.282,-8.0273 -8.282,-17.9297 0,-9.8945 0.965,-17.9297 8.282,-17.9297 6.414,0 7.312,5.9961 7.488,11.2188 h 5.519" /><path
             id="path64"
             style="fill:#231f20;fill-opacity:1;fill-rule:nonzero;stroke:none"
             d="m 574.531,37.4961 c -1.863,-1.9727 -6.297,-2.3906 -8.582,-3.7773 -1.609,-1.0157 -2.453,-2.2774 -2.453,-5.0977 0,-3.2344 1.137,-5.5078 4.555,-5.5078 3.301,0 6.48,2.8125 6.48,6.1133 z m -15.535,4.9219 c 0,7.3164 3.117,10.5586 10.789,10.5586 9.778,0 9.778,-5.8789 9.778,-9.2383 V 25.8086 c 0,-1.3203 0,-2.5781 1.562,-2.5781 0.664,0 0.957,0.1172 1.199,0.3008 v -3.6016 c -0.359,-0.0586 -1.676,-0.3047 -2.937,-0.3047 -1.922,0 -4.317,0 -4.563,4.1406 h -0.113 c -1.621,-2.8789 -4.738,-4.6172 -7.734,-4.6172 -5.997,0 -8.762,3.6016 -8.762,9.3555 0,4.5 1.926,7.6172 6.066,8.875 l 6.766,2.043 c 3.664,1.1328 3.664,2.1562 3.664,4.8515 0,3 -1.801,4.7383 -5.156,4.7383 -5.52,0 -5.52,-5.1562 -5.52,-6.289 V 42.418 h -5.039" /><path
             id="path66"
             style="fill:#231f20;fill-opacity:1;fill-rule:nonzero;stroke:none"
             d="m 586.418,52.1367 h 4.797 v -3.7812 h 0.125 c 1.316,2.9414 4.668,4.6211 7.793,4.6211 8.457,0 8.457,-6.418 8.457,-10.1953 v -22.793 h -5.039 v 22.1875 c 0,2.4609 -0.188,6.4726 -4.735,6.4726 -2.707,0 -6.359,-1.7968 -6.359,-6.4726 V 19.9883 h -5.039 v 32.1484" /><path
             id="path68"
             style="fill:#231f20;fill-opacity:1;fill-rule:nonzero;stroke:none"
             d="m 628.945,37.4961 c -1.851,-1.9727 -6.297,-2.3906 -8.574,-3.7773 -1.617,-1.0157 -2.461,-2.2774 -2.461,-5.0977 0,-3.2344 1.145,-5.5078 4.563,-5.5078 3.3,0 6.472,2.8125 6.472,6.1133 z m -15.523,4.9219 c 0,7.3164 3.113,10.5586 10.789,10.5586 9.777,0 9.777,-5.8789 9.777,-9.2383 V 25.8086 c 0,-1.3203 0,-2.5781 1.563,-2.5781 0.652,0 0.957,0.1172 1.187,0.3008 v -3.6016 c -0.347,-0.0586 -1.675,-0.3047 -2.937,-0.3047 -1.914,0 -4.317,0 -4.551,4.1406 h -0.117 c -1.621,-2.8789 -4.746,-4.6172 -7.742,-4.6172 -5.996,0 -8.75,3.6016 -8.75,9.3555 0,4.5 1.914,7.6172 6.054,8.875 l 6.778,2.043 c 3.66,1.1328 3.66,2.1562 3.66,4.8515 0,3 -1.809,4.7383 -5.164,4.7383 -5.52,0 -5.52,-5.1562 -5.52,-6.289 V 42.418 h -5.027" /><path
             id="path70"
             style="fill:#231f20;fill-opacity:1;fill-rule:nonzero;stroke:none"
             d="m 650.793,23.4648 c 5.574,0 6.477,5.2813 6.477,12.5977 0,6.2383 -1.086,12.5859 -6.477,12.5859 -4.68,0 -5.879,-4.9101 -5.879,-12.5859 0,-7.6758 1.199,-12.5977 5.879,-12.5977 z m 11.211,-3.4765 h -4.793 v 3.9648 h -0.117 c -0.664,-2.4023 -3.489,-4.8047 -6.965,-4.8047 -7.617,0 -10.488,6.7774 -10.488,16.9141 0,6.7188 1.074,16.9141 10.129,16.9141 2.878,0 5.933,-1.7383 7.078,-4.5039 h 0.117 v 14.3359 h 5.039 V 19.9883" /><path
             id="path72"
             style="fill:#231f20;fill-opacity:1;fill-rule:nonzero;stroke:none"
             d="m 683.371,37.4961 c -1.863,-1.9727 -6.301,-2.3906 -8.586,-3.7773 -1.609,-1.0157 -2.449,-2.2774 -2.449,-5.0977 0,-3.2344 1.133,-5.5078 4.551,-5.5078 3.301,0 6.484,2.8125 6.484,6.1133 z m -15.535,4.9219 c 0,7.3164 3.113,10.5586 10.789,10.5586 9.777,0 9.777,-5.8789 9.777,-9.2383 V 25.8086 c 0,-1.3203 0,-2.5781 1.563,-2.5781 0.664,0 0.957,0.1172 1.199,0.3008 v -3.6016 c -0.359,-0.0586 -1.68,-0.3047 -2.937,-0.3047 -1.926,0 -4.321,0 -4.563,4.1406 h -0.117 c -1.621,-2.8789 -4.734,-4.6172 -7.734,-4.6172 -5.997,0 -8.758,3.6016 -8.758,9.3555 0,4.5 1.922,7.6172 6.062,8.875 l 6.77,2.043 c 3.66,1.1328 3.66,2.1562 3.66,4.8515 0,3 -1.797,4.7383 -5.156,4.7383 -5.52,0 -5.52,-5.1562 -5.52,-6.289 V 42.418 h -5.035" /><path
             id="path74"
             style="fill:#231f20;fill-opacity:1;fill-rule:nonzero;stroke:none"
             d="m 219.875,227.984 h 8.273 l -5.871,-8.64 h -5.644 z m 12.41,-11.16 v -7.07 h -15.293 v -10.078 h 14.399 v -7.071 H 216.992 V 181.09 h 15.903 v -7.078 h -24.532 v 42.812 h 23.922" /><path
             id="path76"
             style="fill:#231f20;fill-opacity:1;fill-rule:nonzero;stroke:none"
             d="m 238.781,216.824 h 8.282 v -42.812 h -8.282 v 42.812" /><path
             id="path78"
             style="fill:#231f20;fill-opacity:1;fill-rule:nonzero;stroke:none"
             d="m 269.926,193.797 c -0.188,4.922 -0.781,7.676 -4.199,7.676 -3.301,0 -4.258,-3.418 -4.258,-6.418 v -1.258 z m -8.457,-4.914 v -2.578 c 0,-3.778 1.015,-7.5 4.082,-7.5 2.754,0 3.894,2.101 4.375,6.054 h 7.429 c -0.292,-7.488 -3.894,-11.687 -11.687,-11.687 -11.992,0 -12.473,9.238 -12.473,17.273 0,8.633 1.68,16.672 12.832,16.672 9.649,0 11.809,-6.484 11.809,-16.379 v -1.855 h -16.367" /><path
             id="path80"
             style="fill:#231f20;fill-opacity:1;fill-rule:nonzero;stroke:none"
             d="m 298.969,206.277 h 8.277 l -8.094,-32.265 h -9.597 l -8.332,32.265 h 8.632 l 4.622,-23.086 h 0.117 l 4.375,23.086" /><path
             id="path82"
             style="fill:#231f20;fill-opacity:1;fill-rule:nonzero;stroke:none"
             d="m 322.316,218.688 h 8.274 l -5.871,-8.633 h -5.645 z m 5.039,-24.891 c -0.183,4.922 -0.781,7.676 -4.199,7.676 -3.301,0 -4.258,-3.418 -4.258,-6.418 v -1.258 z m -8.457,-4.914 v -2.578 c 0,-3.778 1.016,-7.5 4.082,-7.5 2.754,0 3.899,2.101 4.375,6.054 h 7.43 c -0.293,-7.488 -3.894,-11.687 -11.687,-11.687 -11.993,0 -12.469,9.238 -12.469,17.273 0,8.633 1.68,16.672 12.832,16.672 9.648,0 11.805,-6.484 11.805,-16.379 v -1.855 h -16.368" /><path
             id="path84"
             style="fill:#231f20;fill-opacity:1;fill-rule:nonzero;stroke:none"
             d="m 372.543,193.797 c -0.188,4.922 -0.781,7.676 -4.199,7.676 -3.301,0 -4.258,-3.418 -4.258,-6.418 v -1.258 z m -8.457,-4.914 v -2.578 c 0,-3.778 1.016,-7.5 4.082,-7.5 2.754,0 3.895,2.101 4.375,6.054 h 7.43 c -0.293,-7.488 -3.899,-11.687 -11.692,-11.687 -11.988,0 -12.468,9.238 -12.468,17.273 0,8.633 1.679,16.672 12.832,16.672 9.648,0 11.804,-6.484 11.804,-16.379 v -1.855 h -16.363" /><path
             id="path86"
             style="fill:#231f20;fill-opacity:1;fill-rule:nonzero;stroke:none"
             d="m 386.293,206.277 h 7.918 v -3.781 h 0.117 c 1.738,3.176 4.738,4.621 8.223,4.621 5.156,0 8.215,-2.824 8.215,-9.179 v -23.926 h -8.282 v 22.246 c 0,3.242 -1.078,4.5 -3.539,4.5 -2.808,0 -4.375,-1.738 -4.375,-5.34 v -21.406 h -8.277 v 32.265" /><path
             id="path88"
             style="fill:#231f20;fill-opacity:1;fill-rule:nonzero;stroke:none"
             d="m 444.32,217.664 h 6.715 l -13.551,-44.492 h -6.711 l 13.547,44.492" /><path
             id="path90"
             style="fill:#231f20;fill-opacity:1;fill-rule:nonzero;stroke:none"
             d="m 471.273,216.824 h 8.633 v -16.367 h 10.078 v 16.367 h 8.629 v -42.812 h -8.629 v 19.011 h -10.078 v -19.011 h -8.633 v 42.812" /><path
             id="path92"
             style="fill:#231f20;fill-opacity:1;fill-rule:nonzero;stroke:none"
             d="m 506.203,206.277 h 8.281 v -32.265 h -8.281 z m 0,11.036 h 8.281 v -7.083 h -8.281 v 7.083" /><path
             id="path94"
             style="fill:#231f20;fill-opacity:1;fill-rule:nonzero;stroke:none"
             d="m 533.559,180.73 c 3.472,0 4.5,3.778 4.5,9.227 0,7.863 -1.028,10.801 -4.325,10.801 -3.656,0 -4.316,-2.938 -4.316,-11.641 0,-4.433 0.66,-8.387 4.141,-8.387 z m 12.41,25.547 v -30.644 c 0,-8.516 -3.778,-12.656 -13.426,-12.656 -7.023,0 -10.977,3.113 -10.977,8.632 h 7.911 c 0,-1.074 0.488,-1.914 1.257,-2.453 0.782,-0.547 1.739,-0.898 2.762,-0.898 3.363,0 4.563,2.512 4.563,5.812 v 4.258 h -0.125 c -1.68,-2.394 -4.258,-3.957 -6.899,-3.957 -6.59,0 -9.89,4.492 -9.89,16.309 0,7.558 1.14,16.437 10.136,16.437 2.278,0 5.098,-1.086 6.653,-4.445 h 0.125 v 3.605 h 7.91" /><path
             id="path96"
             style="fill:#231f20;fill-opacity:1;fill-rule:nonzero;stroke:none"
             d="m 553.313,216.824 h 8.281 v -13.847 h 0.117 c 1.562,2.753 4.375,4.14 7.859,4.14 5.16,0 8.215,-2.824 8.215,-9.179 v -23.926 h -8.281 v 22.246 c 0,3.242 -1.074,4.5 -3.535,4.5 -2.813,0 -4.375,-1.738 -4.375,-5.34 v -21.406 h -8.281 v 42.812" /><path
             id="path98"
             style="fill:#231f20;fill-opacity:1;fill-rule:nonzero;stroke:none"
             d="m 601.02,206.277 h 8.281 v -32.265 h -8.281 z m 0,11.036 h 8.281 v -7.083 h -8.281 v 7.083" /><path
             id="path100"
             style="fill:#231f20;fill-opacity:1;fill-rule:nonzero;stroke:none"
             d="m 616.621,206.277 h 7.922 v -3.781 h 0.117 c 1.738,3.176 4.738,4.621 8.223,4.621 5.156,0 8.215,-2.824 8.215,-9.179 v -23.926 h -8.282 v 22.246 c 0,3.242 -1.078,4.5 -3.535,4.5 -2.812,0 -4.375,-1.738 -4.375,-5.34 v -21.406 h -8.285 v 32.265" /><path
             id="path102"
             style="fill:#231f20;fill-opacity:1;fill-rule:nonzero;stroke:none"
             d="M 169.992,153.633 V 79.9297 H 690.34 V 153.633 H 169.992" /><path
             id="path104"
             style="fill:#ffffff;fill-opacity:1;fill-rule:nonzero;stroke:none"
             d="m 227.797,127.125 c 0,3.176 -1.445,7.188 -4.926,7.188 -4.195,0 -5.879,-4.317 -5.879,-14.989 0,-10.312 0.969,-16.789 5.942,-16.789 2.039,0 5.339,2.219 5.339,6.836 v 4.375 h -5.703 v 6.359 h 13.977 V 97.0195 h -6.359 v 3.9535 h -0.118 c -2.039,-3.3597 -4.98,-4.7933 -8.996,-4.7933 -10.613,0 -12.711,7.9183 -12.711,22.7223 0,14.395 3.36,21.77 14.395,21.77 9.472,0 13.308,-4.856 13.308,-13.547 h -8.269" /><path
             id="path106"
             style="fill:#ffffff;fill-opacity:1;fill-rule:nonzero;stroke:none"
             d="m 243.402,129.285 h 7.918 v -4.316 h 0.118 c 1.679,3.113 4.023,5.156 7.441,5.156 0.48,0 1.016,-0.07 1.492,-0.129 v -7.91 c -0.84,0.059 -1.734,0.117 -2.574,0.117 -2.883,0 -6.113,-1.492 -6.113,-5.82 V 97.0195 h -8.282 v 32.2655" /><path
             id="path108"
             style="fill:#ffffff;fill-opacity:1;fill-rule:nonzero;stroke:none"
             d="m 279.945,113.152 c -1.144,-0.839 -2.519,-1.379 -3.547,-1.621 -3.347,-0.722 -4.675,-2.336 -4.675,-5.215 0,-2.461 0.906,-4.503 3.125,-4.503 2.215,0 5.097,1.445 5.097,4.98 z m -15.121,6.231 v 0.781 c 0,7.441 5.102,9.961 11.34,9.961 9.832,0 11.691,-4.082 11.691,-9.902 v -16.965 c 0,-2.996 0.184,-4.383 1.024,-6.2385 h -7.918 c -0.539,1.0157 -0.781,2.2735 -1.016,3.3595 h -0.129 c -1.914,-3.3595 -4.246,-4.1993 -8.211,-4.1993 -5.753,0 -7.792,4.9223 -7.792,9.2383 0,6.055 2.46,8.516 8.152,10.066 l 4.68,1.262 c 2.46,0.664 3.3,1.621 3.3,3.777 0,2.461 -1.086,3.957 -3.84,3.957 -2.519,0 -3.835,-1.679 -3.835,-4.191 v -0.906 h -7.446" /><path
             id="path110"
             style="fill:#ffffff;fill-opacity:1;fill-rule:nonzero;stroke:none"
             d="m 301.32,107.574 v -1.082 c 0,-2.812 1.496,-4.679 4.317,-4.679 2.519,0 4.199,1.261 4.199,3.839 0,2.098 -1.387,3.055 -2.996,3.661 l -5.82,2.101 c -4.563,1.621 -6.899,4.434 -6.899,8.992 0,5.332 3.363,9.719 11.875,9.719 7.492,0 11.035,-3.359 11.035,-9.18 v -1.32 h -7.437 c 0,3.242 -0.957,4.855 -3.653,4.855 -2.101,0 -3.91,-1.191 -3.91,-3.476 0,-1.555 0.84,-2.883 3.606,-3.781 l 4.972,-1.68 c 5.223,-1.738 7.137,-4.375 7.137,-9.227 0,-6.7769 -5.039,-10.1363 -11.992,-10.1363 -9.297,0 -11.875,4.0823 -11.875,10.2543 v 1.14 h 7.441" /><path
             id="path112"
             style="fill:#ffffff;fill-opacity:1;fill-rule:nonzero;stroke:none"
             d="m 345.363,107.574 v -1.082 c 0,-2.812 1.496,-4.679 4.317,-4.679 2.519,0 4.199,1.261 4.199,3.839 0,2.098 -1.387,3.055 -2.996,3.661 l -5.82,2.101 c -4.563,1.621 -6.895,4.434 -6.895,8.992 0,5.332 3.359,9.719 11.875,9.719 7.488,0 11.031,-3.359 11.031,-9.18 v -1.32 h -7.437 c 0,3.242 -0.957,4.855 -3.653,4.855 -2.101,0 -3.91,-1.191 -3.91,-3.476 0,-1.555 0.844,-2.883 3.606,-3.781 l 4.972,-1.68 c 5.223,-1.738 7.137,-4.375 7.137,-9.227 0,-6.7769 -5.039,-10.1363 -11.992,-10.1363 -9.297,0 -11.875,4.0823 -11.875,10.2543 v 1.14 h 7.441" /><path
             id="path114"
             style="fill:#ffffff;fill-opacity:1;fill-rule:nonzero;stroke:none"
             d="m 382.512,113.152 c -1.145,-0.839 -2.52,-1.379 -3.543,-1.621 -3.352,-0.722 -4.668,-2.336 -4.668,-5.215 0,-2.461 0.894,-4.503 3.113,-4.503 2.219,0 5.098,1.445 5.098,4.98 z m -15.117,6.231 v 0.781 c 0,7.441 5.097,9.961 11.339,9.961 9.832,0 11.688,-4.082 11.688,-9.902 v -16.965 c 0,-2.996 0.187,-4.383 1.023,-6.2385 h -7.918 c -0.539,1.0157 -0.781,2.2735 -1.015,3.3595 h -0.125 c -1.914,-3.3595 -4.258,-4.1993 -8.215,-4.1993 -5.75,0 -7.793,4.9223 -7.793,9.2383 0,6.055 2.461,8.516 8.152,10.066 l 4.68,1.262 c 2.461,0.664 3.301,1.621 3.301,3.777 0,2.461 -1.082,3.957 -3.836,3.957 -2.52,0 -3.84,-1.679 -3.84,-4.191 v -0.906 h -7.441" /><path
             id="path116"
             style="fill:#ffffff;fill-opacity:1;fill-rule:nonzero;stroke:none"
             d="m 399.621,138.512 h 8.274 v -9.227 h 4.793 v -5.644 h -4.793 v -17.442 c 0,-2.519 0.535,-3.547 2.937,-3.547 0.664,0 1.32,0.059 1.856,0.118 v -5.7505 c -1.797,-0.1757 -3.477,-0.3632 -5.391,-0.3632 -6.477,0 -7.676,1.9843 -7.676,8.5157 v 18.469 h -4.199 v 5.644 h 4.199 v 9.227" /><path
             id="path118"
             style="fill:#ffffff;fill-opacity:1;fill-rule:nonzero;stroke:none"
             d="m 425.48,106.375 v -9.3555 h -7.91 v 9.3555 h 7.91" /><path
             id="path120"
             style="fill:#ffffff;fill-opacity:1;fill-rule:nonzero;stroke:none"
             d="m 457.277,140.672 h 6.719 L 450.441,96.1797 h -6.707 l 13.543,44.4923" /><path
             id="path122"
             style="fill:#ffffff;fill-opacity:1;fill-rule:nonzero;stroke:none"
             d="m 491.195,110.387 v -1.258 c 0,-4.016 1.141,-6.594 5.703,-6.594 2.633,0 5.157,1.68 5.157,5.274 0,3.898 -1.985,5.343 -7.676,7.316 -7.68,2.645 -11.211,5.82 -11.211,12.957 0,8.332 5.086,12.59 13.25,12.59 7.676,0 13.254,-3.293 13.254,-11.516 v -1.191 h -8.281 c 0,4.015 -1.379,6.348 -4.68,6.348 -3.895,0 -4.91,-2.45 -4.91,-4.969 0,-2.637 0.777,-4.258 4.433,-5.821 l 6.661,-2.882 c 6.472,-2.813 8.152,-6.114 8.152,-11.328 0,-9.051 -5.516,-13.1333 -14.871,-13.1333 -9.778,0 -13.613,4.5583 -13.613,12.4683 v 1.739 h 8.632" /><path
             id="path124"
             style="fill:#ffffff;fill-opacity:1;fill-rule:nonzero;stroke:none"
             d="m 531.699,113.152 c -1.14,-0.839 -2.515,-1.379 -3.543,-1.621 -3.347,-0.722 -4.676,-2.336 -4.676,-5.215 0,-2.461 0.907,-4.503 3.125,-4.503 2.215,0 5.094,1.445 5.094,4.98 z m -15.113,6.231 v 0.781 c 0,7.441 5.098,9.961 11.336,9.961 9.836,0 11.691,-4.082 11.691,-9.902 v -16.965 c 0,-2.996 0.184,-4.383 1.024,-6.2385 h -7.918 c -0.539,1.0157 -0.781,2.2735 -1.02,3.3595 h -0.125 c -1.914,-3.3595 -4.25,-4.1993 -8.211,-4.1993 -5.754,0 -7.793,4.9223 -7.793,9.2383 0,6.055 2.461,8.516 8.153,10.066 l 4.679,1.262 c 2.461,0.664 3.297,1.621 3.297,3.777 0,2.461 -1.082,3.957 -3.836,3.957 -2.519,0 -3.836,-1.679 -3.836,-4.191 v -0.906 h -7.441" /><path
             id="path126"
             style="fill:#ffffff;fill-opacity:1;fill-rule:nonzero;stroke:none"
             d="m 548.813,138.512 h 8.269 v -9.227 h 4.797 v -5.644 h -4.797 v -17.442 c 0,-2.519 0.535,-3.547 2.941,-3.547 0.665,0 1.317,0.059 1.856,0.118 v -5.7505 c -1.801,-0.1757 -3.477,-0.3632 -5.391,-0.3632 -6.484,0 -7.675,1.9843 -7.675,8.5157 v 18.469 h -4.2 v 5.644 h 4.2 v 9.227" /><path
             id="path128"
             style="fill:#ffffff;fill-opacity:1;fill-rule:nonzero;stroke:none"
             d="m 583.977,123.641 h -4.2 v 5.644 h 4.2 v 3.653 c 0,5.82 3.293,7.734 8.632,7.734 1.496,0 2.942,-0.059 4.434,-0.176 v -5.879 c -0.535,0.059 -1.074,0.059 -1.609,0.059 -2.344,0 -3.188,-0.715 -3.188,-2.578 v -2.813 h 4.797 v -5.644 h -4.797 V 97.0195 h -8.269 v 26.6215" /><path
             id="path130"
             style="fill:#ffffff;fill-opacity:1;fill-rule:nonzero;stroke:none"
             d="m 615.297,113.152 c -1.145,-0.839 -2.52,-1.379 -3.547,-1.621 -3.348,-0.722 -4.68,-2.336 -4.68,-5.215 0,-2.461 0.91,-4.503 3.125,-4.503 2.219,0 5.102,1.445 5.102,4.98 z m -15.117,6.231 v 0.781 c 0,7.441 5.097,9.961 11.336,9.961 9.836,0 11.687,-4.082 11.687,-9.902 v -16.965 c 0,-2.996 0.188,-4.383 1.027,-6.2385 h -7.917 c -0.54,1.0157 -0.782,2.2735 -1.016,3.3595 h -0.129 c -1.914,-3.3595 -4.246,-4.1993 -8.215,-4.1993 -5.75,0 -7.793,4.9223 -7.793,9.2383 0,6.055 2.461,8.516 8.156,10.066 l 4.676,1.262 c 2.461,0.664 3.305,1.621 3.305,3.777 0,2.461 -1.086,3.957 -3.84,3.957 -2.519,0 -3.84,-1.679 -3.84,-4.191 v -0.906 h -7.437" /><path
             id="path132"
             style="fill:#ffffff;fill-opacity:1;fill-rule:nonzero;stroke:none"
             d="m 632.406,138.512 h 8.27 v -9.227 h 4.797 v -5.644 h -4.797 v -17.442 c 0,-2.519 0.539,-3.547 2.937,-3.547 0.668,0 1.321,0.059 1.86,0.118 v -5.7505 c -1.797,-0.1757 -3.481,-0.3632 -5.395,-0.3632 -6.48,0 -7.672,1.9843 -7.672,8.5157 v 18.469 h -4.203 v 5.644 h 4.203 v 9.227" /><path
             id="path134"
             style="fill:#231f20;fill-opacity:1;fill-rule:nonzero;stroke:none"
             d="M 130.285,145.07 C 118.762,125.438 93.4766,118.852 73.8633,130.383 54.2266,141.906 47.6406,167.211 59.168,186.848 70.6953,206.461 95.7852,213 115.637,201.52 c 19.851,-11.454 26.199,-36.832 14.648,-56.45 z m -7.879,68.344 C 96.2227,228.797 62.8477,220.09 47.4414,193.902 33.9727,170.66 39.1172,141.605 58.6797,124.766 L 36.6563,87.7539 C 34.4648,84.0156 35.832,79.2031 39.6602,77.1758 l 5.2851,-2.7969 c 3.6445,-1.9297 8.1602,-0.6094 10.1875,2.9805 l 20.8945,37.2036 c 24.4847,-8.813 52.3517,0.835 65.8907,23.886 15.359,26.18 6.691,59.586 -19.512,74.965" /></g></g></g></g></svg>