<?xml version="1.0" encoding="UTF-8" standalone="no"?>
<svg
   xmlns:dc="http://purl.org/dc/elements/1.1/"
   xmlns:cc="http://creativecommons.org/ns#"
   xmlns:rdf="http://www.w3.org/1999/02/22-rdf-syntax-ns#"
   xmlns:svg="http://www.w3.org/2000/svg"
   xmlns="http://www.w3.org/2000/svg"
   viewBox="0 0 136.06267 71.432797"
   height="71.4328"
   width="136.06267"
   xml:space="preserve"
   id="svg2"
   version="1.1"><metadata
     id="metadata8"><rdf:RDF><cc:Work
         rdf:about=""><dc:format>image/svg+xml</dc:format><dc:type
           rdf:resource="http://purl.org/dc/dcmitype/StillImage" /></cc:Work></rdf:RDF></metadata><defs
     id="defs6"><clipPath
       id="clipPath20"
       clipPathUnits="userSpaceOnUse"><path
         id="path18"
         d="M 0,0 H 1020.47 V 535.746 H 0 Z" /></clipPath></defs><g
     transform="matrix(1.3333333,0,0,-1.3333333,0,71.432798)"
     id="g10"><g
       transform="scale(0.1)"
       id="g12"><g
         id="g14"><g
           clip-path="url(#clipPath20)"
           id="g16"><path
             id="path22"
             style="fill:#ffffff;fill-opacity:1;fill-rule:nonzero;stroke:none"
             d="M 2.5,2.49609 V 533.25 H 1017.97 V 2.49609 H 2.5" /><path
             id="path24"
             style="fill:#231f20;fill-opacity:1;fill-rule:nonzero;stroke:none"
             d="M 1020.47,535.746 H 0 V 0 h 1020.47 z m -5,-5 V 5.00391 H 5 V 530.746 h 1010.47" /><path
             id="path26"
             style="fill:#ffffff;fill-opacity:1;fill-rule:nonzero;stroke:none"
             d="m 267.641,95.1445 c 38.097,20.3595 68.242,54.1405 83.781,94.2075 H 992.363 V 95.1445 H 267.641" /><path
             id="path28"
             style="fill:#231f20;fill-opacity:1;fill-rule:nonzero;stroke:none"
             d="M 994.867,191.855 H 349.695 c -16.531,-43.941 -50.09,-79.621 -92.711,-99.2144 h 737.883 z m -5.004,-5.003 V 97.6445 H 277.094 c 34.211,20.6445 61.273,52.2225 76.027,89.2075 h 636.742" /><path
             id="path30"
             style="fill:#231f20;fill-opacity:1;fill-rule:nonzero;stroke:none"
             d="m 400.293,521.438 h 11.031 l -7.832,-11.516 h -7.519 z M 416.84,506.57 v -9.441 h -20.387 v -13.426 h 19.192 v -9.437 h -19.192 v -15.352 h 21.188 v -9.434 h -32.7 v 57.09 h 31.899" /><path
             id="path32"
             style="fill:#231f20;fill-opacity:1;fill-rule:nonzero;stroke:none"
             d="m 425.496,506.57 h 11.035 v -57.09 h -11.035 v 57.09" /><path
             id="path34"
             style="fill:#231f20;fill-opacity:1;fill-rule:nonzero;stroke:none"
             d="m 467,475.867 c -0.238,6.555 -1.039,10.235 -5.594,10.235 -4.398,0 -5.679,-4.563 -5.679,-8.559 v -1.676 z m -11.273,-6.558 v -3.438 c 0,-5.039 1.363,-9.996 5.441,-9.996 3.676,0 5.195,2.797 5.832,8.078 h 9.918 c -0.398,-9.996 -5.195,-15.594 -15.59,-15.594 -15.992,0 -16.633,12.317 -16.633,23.028 0,11.515 2.239,22.226 17.11,22.226 12.871,0 15.754,-8.633 15.754,-21.824 v -2.48 h -21.832" /><path
             id="path36"
             style="fill:#231f20;fill-opacity:1;fill-rule:nonzero;stroke:none"
             d="m 505.727,492.496 h 11.035 L 505.965,449.48 h -12.793 l -11.113,43.016 h 11.515 l 6.156,-30.785 h 0.157 l 5.84,30.785" /><path
             id="path38"
             style="fill:#231f20;fill-opacity:1;fill-rule:nonzero;stroke:none"
             d="m 536.844,509.043 h 11.035 l -7.84,-11.512 h -7.512 z m 6.711,-33.176 c -0.235,6.555 -1.035,10.235 -5.594,10.235 -4.398,0 -5.676,-4.563 -5.676,-8.559 v -1.676 z m -11.27,-6.558 v -3.438 c 0,-5.039 1.356,-9.996 5.438,-9.996 3.672,0 5.195,2.797 5.832,8.078 h 9.922 c -0.403,-9.996 -5.207,-15.594 -15.598,-15.594 -15.984,0 -16.629,12.317 -16.629,23.028 0,11.515 2.234,22.226 17.109,22.226 12.871,0 15.75,-8.633 15.75,-21.824 v -2.48 h -21.824" /><path
             id="path40"
             style="fill:#231f20;fill-opacity:1;fill-rule:nonzero;stroke:none"
             d="m 603.797,475.867 c -0.234,6.555 -1.035,10.235 -5.594,10.235 -4.394,0 -5.676,-4.563 -5.676,-8.559 v -1.676 z m -11.27,-6.558 v -3.438 c 0,-5.039 1.36,-9.996 5.442,-9.996 3.672,0 5.195,2.797 5.828,8.078 h 9.922 c -0.399,-9.996 -5.203,-15.594 -15.594,-15.594 -15.988,0 -16.633,12.317 -16.633,23.028 0,11.515 2.238,22.226 17.11,22.226 12.871,0 15.753,-8.633 15.753,-21.824 v -2.48 h -21.828" /><path
             id="path42"
             style="fill:#231f20;fill-opacity:1;fill-rule:nonzero;stroke:none"
             d="m 622.129,492.496 h 10.555 v -5.039 h 0.156 c 2.328,4.238 6.32,6.156 10.957,6.156 6.875,0 10.957,-3.758 10.957,-12.23 V 449.48 h -11.035 v 29.661 c 0,4.316 -1.434,5.996 -4.715,5.996 -3.762,0 -5.84,-2.317 -5.84,-7.114 V 449.48 h -11.035 v 43.016" /><path
             id="path44"
             style="fill:#231f20;fill-opacity:1;fill-rule:nonzero;stroke:none"
             d="m 699.48,507.688 h 8.958 l -18.067,-59.329 h -8.953 l 18.062,59.329" /><path
             id="path46"
             style="fill:#231f20;fill-opacity:1;fill-rule:nonzero;stroke:none"
             d="m 735.41,506.57 h 11.512 v -21.832 h 13.437 v 21.832 h 11.516 v -57.09 h -11.516 v 25.344 H 746.922 V 449.48 H 735.41 v 57.09" /><path
             id="path48"
             style="fill:#231f20;fill-opacity:1;fill-rule:nonzero;stroke:none"
             d="m 781.961,492.496 h 11.035 V 449.48 h -11.035 z m 0,14.711 h 11.035 v -9.434 h -11.035 v 9.434" /><path
             id="path50"
             style="fill:#231f20;fill-opacity:1;fill-rule:nonzero;stroke:none"
             d="m 818.438,458.434 c 4.636,0 5.996,5.039 5.996,12.312 0,10.477 -1.36,14.391 -5.754,14.391 -4.883,0 -5.762,-3.914 -5.762,-15.508 0,-5.918 0.879,-11.195 5.52,-11.195 z m 16.55,34.062 v -40.859 c 0,-11.352 -5.039,-16.871 -17.91,-16.871 -9.355,0 -14.629,4.16 -14.629,11.515 h 10.547 c 0,-1.441 0.645,-2.558 1.68,-3.277 1.047,-0.723 2.324,-1.203 3.683,-1.203 4.473,0 6.075,3.363 6.075,7.758 v 5.675 h -0.157 c -2.234,-3.195 -5.683,-5.277 -9.199,-5.277 -8.789,0 -13.195,5.996 -13.195,21.746 0,10.074 1.523,21.91 13.515,21.91 3.04,0 6.797,-1.437 8.879,-5.918 h 0.157 v 4.801 h 10.554" /><path
             id="path52"
             style="fill:#231f20;fill-opacity:1;fill-rule:nonzero;stroke:none"
             d="m 844.766,506.57 h 11.035 v -18.472 h 0.156 c 2.078,3.675 5.84,5.515 10.477,5.515 6.875,0 10.949,-3.758 10.949,-12.23 V 449.48 h -11.035 v 29.661 c 0,4.316 -1.438,5.996 -4.719,5.996 -3.75,0 -5.828,-2.317 -5.828,-7.114 V 449.48 h -11.035 v 57.09" /><path
             id="path54"
             style="fill:#231f20;fill-opacity:1;fill-rule:nonzero;stroke:none"
             d="m 908.367,492.496 h 11.035 V 449.48 h -11.035 z m 0,14.711 h 11.035 v -9.434 h -11.035 v 9.434" /><path
             id="path56"
             style="fill:#231f20;fill-opacity:1;fill-rule:nonzero;stroke:none"
             d="m 929.16,492.496 h 10.555 v -5.039 h 0.156 c 2.324,4.238 6.32,6.156 10.957,6.156 6.875,0 10.957,-3.758 10.957,-12.23 V 449.48 H 950.75 v 29.661 c 0,4.316 -1.434,5.996 -4.715,5.996 -3.762,0 -5.84,-2.317 -5.84,-7.114 V 449.48 H 929.16 v 43.016" /><path
             id="path58"
             style="fill:#231f20;fill-opacity:1;fill-rule:nonzero;stroke:none"
             d="m 160.215,63.6016 c 0,5.2539 -1.891,8.8945 -7.774,8.8945 -5.179,0 -8.265,-2.8008 -8.265,-8.125 0,-14.0703 23.601,-5.6719 23.601,-23.957 0,-11.5508 -8.472,-14.8399 -15.547,-14.8399 -11.699,0 -15.125,6.0235 -15.125,16.668 h 6.161 c 0,-5.6055 0.351,-11.6289 9.386,-11.6289 4.903,0 8.684,3.5039 8.684,8.8281 0,14.1484 -23.602,5.9453 -23.602,24.3047 0,4.6211 1.957,13.7891 14.637,13.7891 9.524,0 13.867,-4.7539 14.004,-13.9336 h -6.16" /><path
             id="path60"
             style="fill:#231f20;fill-opacity:1;fill-rule:nonzero;stroke:none"
             d="m 191.012,46.9961 c -2.168,-2.3008 -7.356,-2.793 -10.016,-4.4023 -1.891,-1.1915 -2.871,-2.6641 -2.871,-5.9571 0,-3.7773 1.332,-6.4453 5.32,-6.4453 3.856,0 7.567,3.293 7.567,7.1484 z M 172.871,52.75 c 0,8.5469 3.641,12.3242 12.606,12.3242 11.418,0 11.418,-6.8633 11.418,-10.789 V 33.3477 c 0,-1.543 0,-3.0079 1.82,-3.0079 0.773,0 1.125,0.1368 1.402,0.3399 v -4.1992 c -0.422,-0.0664 -1.957,-0.3516 -3.433,-0.3516 -2.243,0 -5.039,0 -5.321,4.8359 h -0.136 c -1.895,-3.3593 -5.539,-5.3906 -9.039,-5.3906 -7.004,0 -10.227,4.1992 -10.227,10.9258 0,5.2539 2.242,8.8867 7.078,10.3633 l 7.914,2.3828 c 4.274,1.3281 4.274,2.5195 4.274,5.6719 0,3.4961 -2.106,5.5273 -6.028,5.5273 -6.445,0 -6.445,-6.0156 -6.445,-7.3515 V 52.75 h -5.883" /><path
             id="path62"
             style="fill:#231f20;fill-opacity:1;fill-rule:nonzero;stroke:none"
             d="m 204.863,64.0898 h 5.602 v -4.4062 h 0.14 c 1.543,3.4297 5.465,5.3906 9.106,5.3906 9.875,0 9.875,-7.5 9.875,-11.9023 V 26.5508 h -5.887 v 25.918 c 0,2.871 -0.207,7.5585 -5.531,7.5585 -3.148,0 -7.422,-2.1015 -7.422,-7.5585 v -25.918 h -5.883 v 37.539" /><path
             id="path64"
             style="fill:#231f20;fill-opacity:1;fill-rule:nonzero;stroke:none"
             d="m 239.027,75.0156 h 5.879 V 64.0898 h 6.516 v -4.621 h -6.516 V 35.3789 c 0,-3.0078 0.774,-4.1992 3.852,-4.1992 1.262,0 1.965,0.1367 2.594,0.2031 v -4.832 c -0.77,-0.1367 -2.309,-0.4219 -4.762,-0.4219 -6.094,0 -7.563,2.5195 -7.563,7.4219 v 25.918 h -5.464 v 4.621 h 5.464 v 10.9258" /><path
             id="path66"
             style="fill:#231f20;fill-opacity:1;fill-rule:nonzero;stroke:none"
             d="m 268.5,79.2266 h 6.867 l -7.566,-9.9532 h -4.203 z m 5.395,-29.9805 v 2.0312 c 0,4.1993 -1.332,9.168 -6.512,9.168 -6.168,0 -6.867,-7.5586 -6.867,-9.8047 V 49.2461 Z M 260.309,44.625 c 0,-5.7422 0,-14.4336 7.211,-14.4336 5.605,0 6.375,5.8867 6.375,8.6914 h 5.886 c 0,-3.9922 -2.383,-13.3086 -12.609,-13.3086 -9.176,0 -13.027,6.3672 -13.027,19.2539 0,9.3867 1.82,20.2461 13.375,20.2461 11.488,0 12.539,-10.0195 12.539,-18.0781 V 44.625 h -19.75" /><path
             id="path68"
             style="fill:#231f20;fill-opacity:1;fill-rule:nonzero;stroke:none"
             d="m 334.098,43.707 c -0.563,-9.4531 -4.274,-18.1328 -15.196,-18.1328 -14.218,0 -16.113,13.3789 -16.113,25.9844 0,12.6055 2.313,25.9766 16.113,25.9766 10.223,0 14.496,-5.7422 14.774,-15.5469 h -6.446 c -0.136,5.6758 -1.957,10.5078 -8.328,10.5078 -8.547,0 -9.668,-9.3828 -9.668,-20.9375 0,-11.5625 1.121,-20.9453 9.668,-20.9453 7.489,0 8.543,7 8.754,13.0937 h 6.442" /><path
             id="path70"
             style="fill:#231f20;fill-opacity:1;fill-rule:nonzero;stroke:none"
             d="m 356.836,46.9961 c -2.168,-2.3008 -7.356,-2.793 -10.016,-4.4023 -1.89,-1.1915 -2.871,-2.6641 -2.871,-5.9571 0,-3.7773 1.332,-6.4453 5.324,-6.4453 3.852,0 7.563,3.293 7.563,7.1484 z M 338.695,52.75 c 0,8.5469 3.645,12.3242 12.61,12.3242 11.414,0 11.414,-6.8633 11.414,-10.789 V 33.3477 c 0,-1.543 0,-3.0079 1.824,-3.0079 0.77,0 1.121,0.1368 1.398,0.3399 v -4.1992 c -0.418,-0.0664 -1.957,-0.3516 -3.433,-0.3516 -2.238,0 -5.039,0 -5.32,4.8359 h -0.141 c -1.891,-3.3593 -5.535,-5.3906 -9.035,-5.3906 -7,0 -10.223,4.1992 -10.223,10.9258 0,5.2539 2.238,8.8867 7.074,10.3633 l 7.914,2.3828 c 4.27,1.3281 4.27,2.5195 4.27,5.6719 0,3.4961 -2.102,5.5273 -6.024,5.5273 -6.445,0 -6.445,-6.0156 -6.445,-7.3515 V 52.75 h -5.883" /><path
             id="path72"
             style="fill:#231f20;fill-opacity:1;fill-rule:nonzero;stroke:none"
             d="m 370.688,64.0898 h 5.601 v -4.4062 h 0.141 c 1.543,3.4297 5.465,5.3906 9.105,5.3906 9.875,0 9.875,-7.5 9.875,-11.9023 V 26.5508 h -5.883 v 25.918 c 0,2.871 -0.211,7.5585 -5.535,7.5585 -3.148,0 -7.422,-2.1015 -7.422,-7.5585 v -25.918 h -5.882 v 37.539" /><path
             id="path74"
             style="fill:#231f20;fill-opacity:1;fill-rule:nonzero;stroke:none"
             d="m 420.328,46.9961 c -2.168,-2.3008 -7.355,-2.793 -10.015,-4.4023 -1.891,-1.1915 -2.872,-2.6641 -2.872,-5.9571 0,-3.7773 1.332,-6.4453 5.321,-6.4453 3.855,0 7.566,3.293 7.566,7.1484 z m -18.14,5.7539 c 0,8.5469 3.64,12.3242 12.605,12.3242 11.418,0 11.418,-6.8633 11.418,-10.789 V 33.3477 c 0,-1.543 0,-3.0079 1.82,-3.0079 0.774,0 1.125,0.1368 1.403,0.3399 v -4.1992 c -0.422,-0.0664 -1.957,-0.3516 -3.434,-0.3516 -2.242,0 -5.039,0 -5.32,4.8359 h -0.137 c -1.895,-3.3593 -5.539,-5.3906 -9.039,-5.3906 -7.004,0 -10.227,4.1992 -10.227,10.9258 0,5.2539 2.243,8.8867 7.078,10.3633 l 7.915,2.3828 c 4.273,1.3281 4.273,2.5195 4.273,5.6719 0,3.4961 -2.105,5.5273 -6.027,5.5273 -6.446,0 -6.446,-6.0156 -6.446,-7.3515 V 52.75 h -5.882" /><path
             id="path76"
             style="fill:#231f20;fill-opacity:1;fill-rule:nonzero;stroke:none"
             d="m 445.805,30.6133 c 6.515,0 7.562,6.1601 7.562,14.707 0,7.2852 -1.258,14.707 -7.562,14.707 -5.465,0 -6.864,-5.7421 -6.864,-14.707 0,-8.9648 1.399,-14.707 6.864,-14.707 z m 13.097,-4.0625 h -5.601 v 4.6289 h -0.141 c -0.773,-2.8047 -4.062,-5.6055 -8.125,-5.6055 -8.894,0 -12.258,7.9102 -12.258,19.7461 0,7.8516 1.262,19.7539 11.836,19.7539 3.364,0 6.934,-2.0312 8.266,-5.2539 h 0.137 v 16.7383 h 5.886 V 26.5508" /><path
             id="path78"
             style="fill:#231f20;fill-opacity:1;fill-rule:nonzero;stroke:none"
             d="m 483.816,46.9961 c -2.168,-2.3008 -7.351,-2.793 -10.011,-4.4023 -1.891,-1.1915 -2.871,-2.6641 -2.871,-5.9571 0,-3.7773 1.332,-6.4453 5.32,-6.4453 3.851,0 7.562,3.293 7.562,7.1484 z M 465.68,52.75 c 0,8.5469 3.64,12.3242 12.605,12.3242 11.418,0 11.418,-6.8633 11.418,-10.789 V 33.3477 c 0,-1.543 0,-3.0079 1.82,-3.0079 0.77,0 1.122,0.1368 1.403,0.3399 v -4.1992 c -0.422,-0.0664 -1.961,-0.3516 -3.434,-0.3516 -2.242,0 -5.039,0 -5.324,4.8359 h -0.141 c -1.89,-3.3593 -5.531,-5.3906 -9.031,-5.3906 -7.004,0 -10.226,4.1992 -10.226,10.9258 0,5.2539 2.242,8.8867 7.074,10.3633 l 7.918,2.3828 c 4.265,1.3281 4.265,2.5195 4.265,5.6719 0,3.4961 -2.097,5.5273 -6.019,5.5273 -6.445,0 -6.445,-6.0156 -6.445,-7.3515 V 52.75 h -5.883" /><path
             id="path80"
             style="fill:#231f20;fill-opacity:1;fill-rule:nonzero;stroke:none"
             d="m 526.16,77.5352 h 4.633 l -16.25,-51.961 h -4.621 l 16.238,51.961" /><path
             id="path82"
             style="fill:#231f20;fill-opacity:1;fill-rule:nonzero;stroke:none"
             d="m 580.43,26.5508 h -6.172 v 24.0898 h -17.16 V 26.5508 h -6.16 v 50.0078 h 6.16 V 56.1094 h 17.16 v 20.4492 h 6.172 V 26.5508" /><path
             id="path84"
             style="fill:#231f20;fill-opacity:1;fill-rule:nonzero;stroke:none"
             d="m 606.805,49.2461 v 2.0312 c 0,4.1993 -1.328,9.168 -6.512,9.168 -6.164,0 -6.867,-7.5586 -6.867,-9.8047 V 49.2461 Z M 593.223,44.625 c 0,-5.7422 0,-14.4336 7.207,-14.4336 5.605,0 6.375,5.8867 6.375,8.6914 h 5.89 c 0,-3.9922 -2.382,-13.3086 -12.609,-13.3086 -9.18,0 -13.027,6.3672 -13.027,19.2539 0,9.3867 1.816,20.2461 13.371,20.2461 11.492,0 12.539,-10.0195 12.539,-18.0781 V 44.625 h -19.746" /><path
             id="path86"
             style="fill:#231f20;fill-opacity:1;fill-rule:nonzero;stroke:none"
             d="m 636.621,46.9961 c -2.168,-2.3008 -7.355,-2.793 -10.012,-4.4023 -1.894,-1.1915 -2.871,-2.6641 -2.871,-5.9571 0,-3.7773 1.328,-6.4453 5.325,-6.4453 3.847,0 7.558,3.293 7.558,7.1484 z M 618.484,52.75 c 0,8.5469 3.645,12.3242 12.61,12.3242 11.414,0 11.414,-6.8633 11.414,-10.789 V 33.3477 c 0,-1.543 0,-3.0079 1.816,-3.0079 0.774,0 1.125,0.1368 1.406,0.3399 v -4.1992 c -0.417,-0.0664 -1.96,-0.3516 -3.437,-0.3516 -2.234,0 -5.039,0 -5.32,4.8359 h -0.137 c -1.895,-3.3593 -5.539,-5.3906 -9.035,-5.3906 -7,0 -10.223,4.1992 -10.223,10.9258 0,5.2539 2.235,8.8867 7.07,10.3633 l 7.918,2.3828 c 4.27,1.3281 4.27,2.5195 4.27,5.6719 0,3.4961 -2.102,5.5273 -6.027,5.5273 -6.446,0 -6.446,-6.0156 -6.446,-7.3515 V 52.75 h -5.879" /><path
             id="path88"
             style="fill:#231f20;fill-opacity:1;fill-rule:nonzero;stroke:none"
             d="m 650.828,76.5586 h 5.883 V 26.5508 h -5.883 v 50.0078" /><path
             id="path90"
             style="fill:#231f20;fill-opacity:1;fill-rule:nonzero;stroke:none"
             d="m 666.504,75.0156 h 5.879 V 64.0898 h 6.512 v -4.621 h -6.512 V 35.3789 c 0,-3.0078 0.769,-4.1992 3.855,-4.1992 1.262,0 1.965,0.1367 2.59,0.2031 v -4.832 c -0.773,-0.1367 -2.305,-0.4219 -4.758,-0.4219 -6.093,0 -7.566,2.5195 -7.566,7.4219 v 25.918 h -5.461 v 4.621 h 5.461 v 10.9258" /><path
             id="path92"
             style="fill:#231f20;fill-opacity:1;fill-rule:nonzero;stroke:none"
             d="m 682.879,76.5586 h 5.891 V 59.8203 h 0.136 c 1.543,3.0781 5.672,5.2539 9.032,5.2539 9.667,0 9.667,-7.5 9.667,-11.9023 V 26.5508 h -5.886 v 25.918 c 0,2.871 -0.207,7.5585 -5.528,7.5585 -3.156,0 -7.421,-2.1015 -7.421,-7.5585 v -25.918 h -5.891 v 50.0078" /><path
             id="path94"
             style="fill:#231f20;fill-opacity:1;fill-rule:nonzero;stroke:none"
             d="m 762.91,43.707 c -0.558,-9.4531 -4.269,-18.1328 -15.195,-18.1328 -14.219,0 -16.113,13.3789 -16.113,25.9844 0,12.6055 2.316,25.9766 16.113,25.9766 10.223,0 14.5,-5.7422 14.773,-15.5469 h -6.445 c -0.137,5.6758 -1.953,10.5078 -8.328,10.5078 -8.547,0 -9.668,-9.3828 -9.668,-20.9375 0,-11.5625 1.121,-20.9453 9.668,-20.9453 7.488,0 8.543,7 8.758,13.0937 h 6.437" /><path
             id="path96"
             style="fill:#231f20;fill-opacity:1;fill-rule:nonzero;stroke:none"
             d="m 785.652,46.9961 c -2.168,-2.3008 -7.351,-2.793 -10.019,-4.4023 -1.883,-1.1915 -2.871,-2.6641 -2.871,-5.9571 0,-3.7773 1.34,-6.4453 5.324,-6.4453 3.855,0 7.566,3.293 7.566,7.1484 z M 767.508,52.75 c 0,8.5469 3.644,12.3242 12.609,12.3242 11.414,0 11.414,-6.8633 11.414,-10.789 V 33.3477 c 0,-1.543 0,-3.0079 1.828,-3.0079 0.77,0 1.121,0.1368 1.395,0.3399 v -4.1992 c -0.418,-0.0664 -1.953,-0.3516 -3.426,-0.3516 -2.246,0 -5.039,0 -5.324,4.8359 h -0.145 c -1.886,-3.3593 -5.527,-5.3906 -9.035,-5.3906 -7,0 -10.222,4.1992 -10.222,10.9258 0,5.2539 2.246,8.8867 7.078,10.3633 l 7.91,2.3828 c 4.269,1.3281 4.269,2.5195 4.269,5.6719 0,3.4961 -2.101,5.5273 -6.015,5.5273 -6.446,0 -6.446,-6.0156 -6.446,-7.3515 V 52.75 h -5.89" /><path
             id="path98"
             style="fill:#231f20;fill-opacity:1;fill-rule:nonzero;stroke:none"
             d="m 799.5,64.0898 h 5.605 v -4.4062 h 0.137 c 1.543,3.4297 5.469,5.3906 9.113,5.3906 9.872,0 9.872,-7.5 9.872,-11.9023 V 26.5508 h -5.887 v 25.918 c 0,2.871 -0.207,7.5585 -5.527,7.5585 -3.157,0 -7.422,-2.1015 -7.422,-7.5585 V 26.5508 H 799.5 v 37.539" /><path
             id="path100"
             style="fill:#231f20;fill-opacity:1;fill-rule:nonzero;stroke:none"
             d="m 849.141,46.9961 c -2.168,-2.3008 -7.356,-2.793 -10.012,-4.4023 -1.895,-1.1915 -2.871,-2.6641 -2.871,-5.9571 0,-3.7773 1.328,-6.4453 5.324,-6.4453 3.848,0 7.559,3.293 7.559,7.1484 z M 831.004,52.75 c 0,8.5469 3.644,12.3242 12.609,12.3242 11.414,0 11.414,-6.8633 11.414,-10.789 V 33.3477 c 0,-1.543 0,-3.0079 1.817,-3.0079 0.773,0 1.125,0.1368 1.406,0.3399 v -4.1992 c -0.418,-0.0664 -1.961,-0.3516 -3.437,-0.3516 -2.235,0 -5.04,0 -5.321,4.8359 h -0.137 c -1.894,-3.3593 -5.539,-5.3906 -9.035,-5.3906 -7,0 -10.222,4.1992 -10.222,10.9258 0,5.2539 2.238,8.8867 7.07,10.3633 l 7.918,2.3828 c 4.269,1.3281 4.269,2.5195 4.269,5.6719 0,3.4961 -2.101,5.5273 -6.027,5.5273 -6.445,0 -6.445,-6.0156 -6.445,-7.3515 V 52.75 h -5.879" /><path
             id="path102"
             style="fill:#231f20;fill-opacity:1;fill-rule:nonzero;stroke:none"
             d="m 874.617,30.6133 c 6.516,0 7.571,6.1601 7.571,14.707 0,7.2852 -1.262,14.707 -7.571,14.707 -5.457,0 -6.863,-5.7421 -6.863,-14.707 0,-8.9648 1.406,-14.707 6.863,-14.707 z m 13.098,-4.0625 h -5.598 v 4.6289 h -0.144 c -0.774,-2.8047 -4.063,-5.6055 -8.125,-5.6055 -8.887,0 -12.258,7.9102 -12.258,19.7461 0,7.8516 1.262,19.7539 11.836,19.7539 3.371,0 6.933,-2.0312 8.273,-5.2539 h 0.137 v 16.7383 h 5.879 V 26.5508" /><path
             id="path104"
             style="fill:#231f20;fill-opacity:1;fill-rule:nonzero;stroke:none"
             d="m 912.637,46.9961 c -2.168,-2.3008 -7.356,-2.793 -10.02,-4.4023 -1.887,-1.1915 -2.871,-2.6641 -2.871,-5.9571 0,-3.7773 1.34,-6.4453 5.32,-6.4453 3.86,0 7.571,3.293 7.571,7.1484 z M 894.492,52.75 c 0,8.5469 3.641,12.3242 12.606,12.3242 11.418,0 11.418,-6.8633 11.418,-10.789 V 33.3477 c 0,-1.543 0,-3.0079 1.824,-3.0079 0.773,0 1.125,0.1368 1.398,0.3399 v -4.1992 c -0.422,-0.0664 -1.953,-0.3516 -3.429,-0.3516 -2.246,0 -5.039,0 -5.321,4.8359 h -0.148 c -1.883,-3.3593 -5.527,-5.3906 -9.031,-5.3906 -7.004,0 -10.223,4.1992 -10.223,10.9258 0,5.2539 2.242,8.8867 7.078,10.3633 l 7.91,2.3828 c 4.266,1.3281 4.266,2.5195 4.266,5.6719 0,3.4961 -2.098,5.5273 -6.016,5.5273 -6.445,0 -6.445,-6.0156 -6.445,-7.3515 V 52.75 h -5.887" /><path
             id="path106"
             style="fill:#ffffff;fill-opacity:1;fill-rule:nonzero;stroke:none"
             d="m 350.195,323.504 c -16.742,40.988 -48.531,74.738 -88.379,94.211 H 992.363 V 323.504 H 350.195" /><path
             id="path108"
             style="fill:#231f20;fill-opacity:1;fill-rule:nonzero;stroke:none"
             d="M 994.867,420.219 H 250.141 c 44.875,-18.403 80.535,-54.348 98.367,-99.215 h 646.359 z m -5.004,-5.004 v -89.207 h -638 c -15.82,37.707 -44.234,69.246 -79.886,89.207 h 717.886" /><path
             id="path110"
             style="fill:#231f20;fill-opacity:1;fill-rule:nonzero;stroke:none"
             d="m 353.418,306.035 c 4.891,-16.187 7.555,-33.332 7.555,-51.101 0,-16.68 -2.368,-32.801 -6.7,-48.11 h 640.594 v 99.211 H 353.418" /><path
             id="path112"
             style="fill:#ffffff;fill-opacity:1;fill-rule:nonzero;stroke:none"
             d="m 396.156,246.16 v -1.68 c 0,-5.351 1.52,-8.789 7.598,-8.789 3.516,0 6.875,2.235 6.875,7.032 0,5.191 -2.637,7.117 -10.234,9.754 -10.235,3.515 -14.95,7.753 -14.95,17.265 0,11.113 6.797,16.793 17.668,16.793 10.235,0 17.672,-4.398 17.672,-15.351 v -1.602 H 409.75 c 0,5.359 -1.84,8.477 -6.234,8.477 -5.2,0 -6.559,-3.278 -6.559,-6.637 0,-3.516 1.039,-5.68 5.918,-7.754 l 8.871,-3.84 c 8.641,-3.758 10.875,-8.152 10.875,-15.105 0,-12.078 -7.351,-17.508 -19.828,-17.508 -13.031,0 -18.148,6.074 -18.148,16.629 v 2.316 h 11.511" /><path
             id="path114"
             style="fill:#ffffff;fill-opacity:1;fill-rule:nonzero;stroke:none"
             d="m 452.152,233.367 h -0.16 c -2.32,-4.238 -6.32,-6.152 -10.953,-6.152 -6.879,0 -10.957,3.75 -10.957,12.226 v 31.903 h 11.035 v -29.656 c 0,-4.329 1.442,-5.997 4.719,-5.997 3.758,0 5.84,2.313 5.84,7.11 v 28.543 h 11.027 v -43.016 h -10.551 v 5.039" /><path
             id="path116"
             style="fill:#ffffff;fill-opacity:1;fill-rule:nonzero;stroke:none"
             d="m 492.789,255.836 c 0,4.156 -0.797,8.629 -4.957,8.629 -5.434,0 -6.312,-4.797 -6.312,-14.703 0,-10.633 0.957,-15.039 5.91,-15.039 3.679,0 5.359,3.125 5.359,10.078 h 10.555 c 0,-11.278 -4.715,-17.586 -16.391,-17.586 -11.035,0 -16.469,5.351 -16.469,22.625 0,17.668 7.274,22.621 17.43,22.621 10.152,0 15.43,-6.473 15.43,-16.625 h -10.555" /><path
             id="path118"
             style="fill:#ffffff;fill-opacity:1;fill-rule:nonzero;stroke:none"
             d="m 511.121,271.344 h 10.559 v -5.758 h 0.156 c 2.234,4.156 5.359,6.875 9.91,6.875 0.645,0 1.359,-0.078 2.004,-0.16 V 261.75 c -1.125,0.078 -2.324,0.156 -3.437,0.156 -3.84,0 -8.157,-1.996 -8.157,-7.75 v -25.828 h -11.035 v 43.016" /><path
             id="path120"
             style="fill:#ffffff;fill-opacity:1;fill-rule:nonzero;stroke:none"
             d="m 560.469,254.715 c -0.246,6.555 -1.047,10.234 -5.598,10.234 -4.402,0 -5.683,-4.562 -5.683,-8.554 v -1.68 z m -11.281,-6.555 v -3.437 c 0,-5.039 1.367,-10 5.441,-10 3.68,0 5.195,2.804 5.84,8.078 h 9.91 c -0.399,-9.992 -5.195,-15.586 -15.586,-15.586 -15.996,0 -16.629,12.312 -16.629,23.027 0,11.508 2.234,22.219 17.109,22.219 12.872,0 15.75,-8.633 15.75,-21.82 v -2.481 h -21.835" /><path
             id="path122"
             style="fill:#ffffff;fill-opacity:1;fill-rule:nonzero;stroke:none"
             d="m 586.875,242.398 v -1.433 c 0,-3.762 2,-6.242 5.762,-6.242 3.359,0 5.593,1.679 5.593,5.117 0,2.805 -1.835,4.082 -3.992,4.883 l -7.765,2.793 c -6.075,2.16 -9.188,5.918 -9.188,11.992 0,7.121 4.473,12.953 15.828,12.953 9.992,0 14.707,-4.477 14.707,-12.231 v -1.761 h -9.91 c 0,4.32 -1.281,6.48 -4.875,6.48 -2.801,0 -5.195,-1.601 -5.195,-4.64 0,-2.079 1.113,-3.836 4.797,-5.039 l 6.629,-2.235 c 6.964,-2.316 9.523,-5.832 9.523,-12.316 0,-9.031 -6.719,-13.504 -15.996,-13.504 -12.395,0 -15.832,5.43 -15.832,13.672 v 1.511 h 9.914" /><path
             id="path124"
             style="fill:#ffffff;fill-opacity:1;fill-rule:nonzero;stroke:none"
             d="m 651.668,286.535 h 8.957 l -18.066,-59.32 h -8.957 l 18.066,59.32" /><path
             id="path126"
             style="fill:#ffffff;fill-opacity:1;fill-rule:nonzero;stroke:none"
             d="m 696.863,246.16 v -1.68 c 0,-5.351 1.524,-8.789 7.598,-8.789 3.516,0 6.875,2.235 6.875,7.032 0,5.191 -2.637,7.117 -10.234,9.754 -10.235,3.515 -14.95,7.753 -14.95,17.265 0,11.113 6.797,16.793 17.676,16.793 10.235,0 17.664,-4.398 17.664,-15.351 v -1.602 h -11.031 c 0,5.359 -1.84,8.477 -6.234,8.477 -5.204,0 -6.559,-3.278 -6.559,-6.637 0,-3.516 1.043,-5.68 5.918,-7.754 l 8.875,-3.84 c 8.633,-3.758 10.867,-8.152 10.867,-15.105 0,-12.078 -7.351,-17.508 -19.824,-17.508 -13.035,0 -18.152,6.074 -18.152,16.629 v 2.316 h 11.511" /><path
             id="path128"
             style="fill:#ffffff;fill-opacity:1;fill-rule:nonzero;stroke:none"
             d="m 752.859,233.367 h -0.156 c -2.324,-4.238 -6.316,-6.152 -10.957,-6.152 -6.875,0 -10.953,3.75 -10.953,12.226 v 31.903 h 11.031 v -29.656 c 0,-4.329 1.446,-5.997 4.719,-5.997 3.758,0 5.84,2.313 5.84,7.11 v 28.543 h 11.035 v -43.016 h -10.559 v 5.039" /><path
             id="path130"
             style="fill:#ffffff;fill-opacity:1;fill-rule:nonzero;stroke:none"
             d="m 788.465,237.281 c 4.64,0 5.996,5.039 5.996,12.317 0,10.472 -1.356,14.386 -5.75,14.386 -4.883,0 -5.762,-3.914 -5.762,-15.5 0,-5.918 0.879,-11.203 5.516,-11.203 z m 16.555,34.063 v -40.86 c 0,-11.347 -5.04,-16.863 -17.911,-16.863 -9.355,0 -14.629,4.16 -14.629,11.512 h 10.547 c 0,-1.445 0.645,-2.559 1.68,-3.281 1.043,-0.723 2.324,-1.2 3.68,-1.2 4.472,0 6.074,3.36 6.074,7.754 v 5.684 h -0.156 c -2.235,-3.203 -5.684,-5.285 -9.2,-5.285 -8.789,0 -13.191,5.996 -13.191,21.75 0,10.07 1.524,21.906 13.516,21.906 3.035,0 6.797,-1.438 8.875,-5.918 h 0.156 v 4.801 h 10.559" /><path
             id="path132"
             style="fill:#ffffff;fill-opacity:1;fill-rule:nonzero;stroke:none"
             d="m 834.863,249.84 c -1.523,-1.121 -3.359,-1.844 -4.718,-2.156 -4.481,-0.969 -6.239,-3.125 -6.239,-6.965 0,-3.27 1.199,-5.996 4.16,-5.996 2.957,0 6.797,1.925 6.797,6.64 z m -20.148,8.312 v 1.039 c 0,9.911 6.797,13.27 15.109,13.27 13.114,0 15.594,-5.438 15.594,-13.191 v -22.622 c 0,-4.003 0.234,-5.839 1.359,-8.32 h -10.558 c -0.723,1.356 -1.035,3.035 -1.356,4.481 h -0.156 c -2.559,-4.481 -5.684,-5.594 -10.957,-5.594 -7.676,0 -10.402,6.551 -10.402,12.312 0,8.067 3.281,11.348 10.879,13.426 l 6.242,1.684 c 3.269,0.879 4.394,2.156 4.394,5.031 0,3.277 -1.437,5.281 -5.117,5.281 -3.359,0 -5.117,-2.242 -5.117,-5.601 v -1.196 h -9.914" /><path
             id="path134"
             style="fill:#ffffff;fill-opacity:1;fill-rule:nonzero;stroke:none"
             d="m 855.273,271.344 h 10.555 v -5.758 h 0.156 c 2.246,4.156 5.364,6.875 9.922,6.875 0.637,0 1.36,-0.078 1.992,-0.16 V 261.75 c -1.113,0.078 -2.312,0.156 -3.437,0.156 -3.836,0 -8.152,-1.996 -8.152,-7.75 v -25.828 h -11.036 v 43.016" /><path
             id="path136"
             style="fill:#ffffff;fill-opacity:1;fill-rule:nonzero;stroke:none"
             d="m 891.992,242.398 v -1.433 c 0,-3.762 1.992,-6.242 5.75,-6.242 3.36,0 5.598,1.679 5.598,5.117 0,2.805 -1.836,4.082 -3.996,4.883 l -7.754,2.793 c -6.074,2.16 -9.199,5.918 -9.199,11.992 0,7.121 4.484,12.953 15.832,12.953 10,0 14.715,-4.477 14.715,-12.231 v -1.761 h -9.911 c 0,4.32 -1.281,6.48 -4.882,6.48 -2.793,0 -5.196,-1.601 -5.196,-4.64 0,-2.079 1.121,-3.836 4.793,-5.039 l 6.641,-2.235 c 6.953,-2.316 9.512,-5.832 9.512,-12.316 0,-9.031 -6.719,-13.504 -15.985,-13.504 -12.394,0 -15.832,5.43 -15.832,13.672 v 1.511 h 9.914" /><path
             id="path138"
             style="fill:#231f20;fill-opacity:1;fill-rule:nonzero;stroke:none"
             d="m 269.469,202.988 c -29.52,-50.285 -94.266,-67.144 -144.496,-37.621 -50.2855,29.516 -67.1527,94.321 -37.6332,144.606 29.5232,50.23 93.7692,66.972 144.6092,37.578 50.836,-29.336 67.098,-94.328 37.52,-144.563 z m -20.184,175.02 C 182.234,417.402 96.7578,395.102 57.3086,328.039 22.8125,268.516 35.9922,194.113 86.0898,150.98 L 29.6836,56.1992 C 24.0742,46.625 27.5781,34.3047 37.3828,29.1133 L 50.918,21.9492 c 9.3281,-4.9375 20.8945,-1.5547 26.0898,7.6289 l 53.5042,95.2769 c 62.703,-22.57 134.074,2.137 168.742,61.172 39.336,67.047 17.141,152.594 -49.969,191.981" /></g></g></g></g></svg>