<?xml version="1.0" encoding="UTF-8" standalone="no"?>
<svg
   xmlns:dc="http://purl.org/dc/elements/1.1/"
   xmlns:cc="http://creativecommons.org/ns#"
   xmlns:rdf="http://www.w3.org/1999/02/22-rdf-syntax-ns#"
   xmlns:svg="http://www.w3.org/2000/svg"
   xmlns="http://www.w3.org/2000/svg"
   viewBox="0 0 94.487999 45.354132"
   height="45.354134"
   width="94.487999"
   xml:space="preserve"
   id="svg2"
   version="1.1"><metadata
     id="metadata8"><rdf:RDF><cc:Work
         rdf:about=""><dc:format>image/svg+xml</dc:format><dc:type
           rdf:resource="http://purl.org/dc/dcmitype/StillImage" /></cc:Work></rdf:RDF></metadata><defs
     id="defs6"><clipPath
       id="clipPath20"
       clipPathUnits="userSpaceOnUse"><path
         id="path18"
         d="M 0,0 H 708.66 V 340.156 H 0 Z" /></clipPath></defs><g
     transform="matrix(1.3333333,0,0,-1.3333333,0,45.354132)"
     id="g10"><g
       transform="scale(0.1)"
       id="g12"><g
         id="g14"><g
           clip-path="url(#clipPath20)"
           id="g16"><path
             id="path22"
             style="fill:#ffffff;fill-opacity:1;fill-rule:nonzero;stroke:none"
             d="M 2.5,2.50391 V 337.656 H 706.16 V 2.50391 H 2.5" /><path
             id="path24"
             style="fill:#231f20;fill-opacity:1;fill-rule:nonzero;stroke:none"
             d="M 708.66,340.156 H 0 V 0 h 708.66 z m -5,-5 V 5 H 5 v 330.156 h 698.66" /><path
             id="path26"
             style="fill:#231f20;fill-opacity:1;fill-rule:nonzero;stroke:none"
             d="M 689.941,243.469 H 167.105 c 19.383,-19.008 31.622,-44.953 32.84,-73.699 h 489.996 v 73.699" /><path
             id="path28"
             style="fill:#231f20;fill-opacity:1;fill-rule:nonzero;stroke:none"
             d="M 165.707,84.0195 H 689.941 V 157.719 H 199.883 c -1.555,-28.903 -14.305,-54.848 -34.176,-73.6995" /><path
             id="path30"
             style="fill:#231f20;fill-opacity:1;fill-rule:nonzero;stroke:none"
             d="m 38.4414,52.7969 c 0,4.5039 -1.6211,7.6172 -6.6601,7.6172 -4.4375,0 -7.0743,-2.4024 -7.0743,-6.9532 0,-12.0586 20.211,-4.8632 20.211,-20.5078 0,-9.9023 -7.2578,-12.7148 -13.3164,-12.7148 -10.0078,0 -12.9493,5.1562 -12.9493,14.2695 h 5.2735 c 0,-4.7969 0.3047,-9.9531 8.039,-9.9531 4.1954,0 7.4336,3 7.4336,7.5586 0,12.1094 -20.207,5.0976 -20.207,20.8008 0,3.9648 1.6758,11.8164 12.5313,11.8164 8.1562,0 11.875,-4.0703 11.9921,-11.9336 h -5.2734" /><path
             id="path32"
             style="fill:#231f20;fill-opacity:1;fill-rule:nonzero;stroke:none"
             d="m 64.8438,38.5898 c -1.8594,-1.9843 -6.2969,-2.4023 -8.5782,-3.7812 -1.6172,-1.0156 -2.457,-2.2734 -2.457,-5.0977 0,-3.2421 1.1367,-5.5156 4.5547,-5.5156 3.3008,0 6.4805,2.8203 6.4805,6.1133 z M 49.3125,43.5 c 0,7.3242 3.1133,10.5586 10.7891,10.5586 9.7773,0 9.7773,-5.8789 9.7773,-9.2383 V 26.8906 c 0,-1.3203 0,-2.5781 1.5625,-2.5781 0.6602,0 0.957,0.125 1.1953,0.3008 v -3.5938 c -0.3554,-0.0664 -1.6797,-0.3007 -2.9414,-0.3007 -1.918,0 -4.3125,0 -4.5547,4.1406 h -0.1211 c -1.6172,-2.8828 -4.7382,-4.6211 -7.7343,-4.6211 -5.9961,0 -8.7539,3.5937 -8.7539,9.3555 0,4.4921 1.9179,7.6171 6.0585,8.8789 l 6.7735,2.0312 c 3.6562,1.1406 3.6562,2.1563 3.6562,4.8633 0,2.9961 -1.7968,4.7344 -5.1562,4.7344 -5.5156,0 -5.5156,-5.1563 -5.5156,-6.2969 V 43.5 h -5.0352" /><path
             id="path34"
             style="fill:#231f20;fill-opacity:1;fill-rule:nonzero;stroke:none"
             d="m 76.7305,53.2188 h 4.7968 v -3.7813 h 0.125 c 1.3165,2.9414 4.6719,4.6211 7.793,4.6211 8.457,0 8.457,-6.418 8.457,-10.1953 V 21.0781 h -5.039 v 22.1875 c 0,2.461 -0.1836,6.4766 -4.7383,6.4766 -2.6992,0 -6.3555,-1.7969 -6.3555,-6.4766 V 21.0781 h -5.039 v 32.1407" /><path
             id="path36"
             style="fill:#231f20;fill-opacity:1;fill-rule:nonzero;stroke:none"
             d="m 106.008,62.5742 h 5.039 v -9.3554 h 5.574 v -3.9571 h -5.574 V 28.6289 c 0,-2.5781 0.656,-3.5937 3.301,-3.5937 1.078,0 1.672,0.1171 2.215,0.1757 v -4.1328 c -0.661,-0.125 -1.977,-0.3593 -4.079,-0.3593 -5.218,0 -6.476,2.1562 -6.476,6.3554 v 22.1875 h -4.676 v 3.9571 h 4.676 v 9.3554" /><path
             id="path38"
             style="fill:#231f20;fill-opacity:1;fill-rule:nonzero;stroke:none"
             d="m 131.262,66.1758 h 5.879 l -6.481,-8.5156 h -3.597 z m 4.617,-25.6719 v 1.7383 c 0,3.6016 -1.141,7.8594 -5.574,7.8594 -5.282,0 -5.879,-6.4727 -5.879,-8.3985 v -1.1992 z m -11.637,-3.957 c 0,-4.9102 0,-12.3516 6.18,-12.3516 4.797,0 5.457,5.0391 5.457,7.4414 h 5.035 c 0,-3.4297 -2.035,-11.3984 -10.793,-11.3984 -7.855,0 -11.156,5.4609 -11.156,16.4844 0,8.039 1.562,17.3359 11.457,17.3359 9.832,0 10.73,-8.5742 10.73,-15.4688 v -2.0429 h -16.91" /><path
             id="path40"
             style="fill:#231f20;fill-opacity:1;fill-rule:nonzero;stroke:none"
             d="m 187.473,35.7656 c -0.481,-8.0937 -3.66,-15.5273 -13.016,-15.5273 -12.172,0 -13.793,11.457 -13.793,22.2461 0,10.7929 1.984,22.2461 13.793,22.2461 8.758,0 12.414,-4.9102 12.656,-13.3086 h -5.515 c -0.121,4.8515 -1.68,8.9922 -7.141,8.9922 -7.312,0 -8.273,-8.0352 -8.273,-17.9297 0,-9.8906 0.961,-17.9297 8.273,-17.9297 6.418,0 7.32,5.9961 7.496,11.2109 h 5.52" /><path
             id="path42"
             style="fill:#231f20;fill-opacity:1;fill-rule:nonzero;stroke:none"
             d="m 206.984,38.5898 c -1.863,-1.9843 -6.3,-2.4023 -8.582,-3.7812 -1.617,-1.0156 -2.457,-2.2734 -2.457,-5.0977 0,-3.2421 1.141,-5.5156 4.559,-5.5156 3.301,0 6.48,2.8203 6.48,6.1133 z M 191.449,43.5 c 0,7.3242 3.117,10.5586 10.793,10.5586 9.774,0 9.774,-5.8789 9.774,-9.2383 V 26.8906 c 0,-1.3203 0,-2.5781 1.562,-2.5781 0.66,0 0.957,0.125 1.199,0.3008 v -3.5938 c -0.359,-0.0664 -1.679,-0.3007 -2.941,-0.3007 -1.918,0 -4.316,0 -4.555,4.1406 h -0.125 c -1.613,-2.8828 -4.734,-4.6211 -7.73,-4.6211 -5.996,0 -8.758,3.5937 -8.758,9.3555 0,4.4921 1.922,7.6171 6.062,8.8789 l 6.77,2.0312 c 3.656,1.1406 3.656,2.1563 3.656,4.8633 0,2.9961 -1.793,4.7344 -5.152,4.7344 -5.52,0 -5.52,-5.1563 -5.52,-6.2969 V 43.5 h -5.035" /><path
             id="path44"
             style="fill:#231f20;fill-opacity:1;fill-rule:nonzero;stroke:none"
             d="m 218.863,53.2188 h 4.797 v -3.7813 h 0.125 c 1.317,2.9414 4.672,4.6211 7.793,4.6211 8.457,0 8.457,-6.418 8.457,-10.1953 V 21.0781 h -5.039 v 22.1875 c 0,2.461 -0.18,6.4766 -4.738,6.4766 -2.699,0 -6.356,-1.7969 -6.356,-6.4766 V 21.0781 h -5.039 v 32.1407" /><path
             id="path46"
             style="fill:#231f20;fill-opacity:1;fill-rule:nonzero;stroke:none"
             d="m 261.402,38.5898 c -1.863,-1.9843 -6.3,-2.4023 -8.582,-3.7812 -1.613,-1.0156 -2.453,-2.2734 -2.453,-5.0977 0,-3.2421 1.137,-5.5156 4.555,-5.5156 3.301,0 6.48,2.8203 6.48,6.1133 z M 245.867,43.5 c 0,7.3242 3.117,10.5586 10.793,10.5586 9.778,0 9.778,-5.8789 9.778,-9.2383 V 26.8906 c 0,-1.3203 0,-2.5781 1.558,-2.5781 0.66,0 0.957,0.125 1.199,0.3008 v -3.5938 c -0.355,-0.0664 -1.679,-0.3007 -2.941,-0.3007 -1.918,0 -4.316,0 -4.555,4.1406 h -0.117 c -1.621,-2.8828 -4.742,-4.6211 -7.738,-4.6211 -5.996,0 -8.754,3.5937 -8.754,9.3555 0,4.4921 1.918,7.6171 6.058,8.8789 l 6.774,2.0312 c 3.66,1.1406 3.66,2.1563 3.66,4.8633 0,2.9961 -1.801,4.7344 -5.16,4.7344 -5.52,0 -5.52,-5.1563 -5.52,-6.2969 V 43.5 h -5.035" /><path
             id="path48"
             style="fill:#231f20;fill-opacity:1;fill-rule:nonzero;stroke:none"
             d="m 283.238,24.5547 c 5.575,0 6.481,5.2734 6.481,12.5898 0,6.2383 -1.086,12.5977 -6.481,12.5977 -4.679,0 -5.875,-4.9219 -5.875,-12.5977 0,-7.6757 1.196,-12.5898 5.875,-12.5898 z m 11.215,-3.4766 h -4.801 v 3.9571 h -0.117 c -0.656,-2.4024 -3.48,-4.7969 -6.957,-4.7969 -7.617,0 -10.492,6.7773 -10.492,16.9062 0,6.7188 1.078,16.9141 10.133,16.9141 2.879,0 5.933,-1.7383 7.078,-4.4922 h 0.117 v 14.3242 h 5.039 V 21.0781" /><path
             id="path50"
             style="fill:#231f20;fill-opacity:1;fill-rule:nonzero;stroke:none"
             d="m 315.82,38.5898 c -1.859,-1.9843 -6.297,-2.4023 -8.578,-3.7812 -1.617,-1.0156 -2.457,-2.2734 -2.457,-5.0977 0,-3.2421 1.137,-5.5156 4.555,-5.5156 3.301,0 6.48,2.8203 6.48,6.1133 z M 300.289,43.5 c 0,7.3242 3.113,10.5586 10.789,10.5586 9.777,0 9.777,-5.8789 9.777,-9.2383 V 26.8906 c 0,-1.3203 0,-2.5781 1.563,-2.5781 0.656,0 0.957,0.125 1.195,0.3008 v -3.5938 c -0.355,-0.0664 -1.679,-0.3007 -2.937,-0.3007 -1.922,0 -4.317,0 -4.559,4.1406 h -0.121 c -1.617,-2.8828 -4.734,-4.6211 -7.734,-4.6211 -5.996,0 -8.754,3.5937 -8.754,9.3555 0,4.4921 1.918,7.6171 6.058,8.8789 l 6.774,2.0312 c 3.656,1.1406 3.656,2.1563 3.656,4.8633 0,2.9961 -1.797,4.7344 -5.156,4.7344 -5.52,0 -5.52,-5.1563 -5.52,-6.2969 V 43.5 h -5.031" /><path
             id="path52"
             style="fill:#231f20;fill-opacity:1;fill-rule:nonzero;stroke:none"
             d="m 352.113,64.7305 h 3.961 l -13.91,-44.4922 h -3.961 l 13.91,44.4922" /><path
             id="path54"
             style="fill:#231f20;fill-opacity:1;fill-rule:nonzero;stroke:none"
             d="m 398.605,21.0781 h -5.277 v 20.625 h -14.695 v -20.625 h -5.274 v 42.8125 h 5.274 V 46.3828 h 14.695 v 17.5078 h 5.277 V 21.0781" /><path
             id="path56"
             style="fill:#231f20;fill-opacity:1;fill-rule:nonzero;stroke:none"
             d="m 421.23,40.5039 v 1.7383 c 0,3.6016 -1.14,7.8594 -5.578,7.8594 -5.269,0 -5.875,-6.4727 -5.875,-8.3985 v -1.1992 z m -11.628,-3.957 c 0,-4.9102 0,-12.3516 6.171,-12.3516 4.801,0 5.457,5.0391 5.457,7.4414 h 5.04 c 0,-3.4297 -2.04,-11.3984 -10.79,-11.3984 -7.863,0 -11.164,5.4609 -11.164,16.4844 0,8.039 1.563,17.3359 11.457,17.3359 9.832,0 10.731,-8.5742 10.731,-15.4688 v -2.0429 h -16.902" /><path
             id="path58"
             style="fill:#231f20;fill-opacity:1;fill-rule:nonzero;stroke:none"
             d="m 446.785,38.5898 c -1.851,-1.9843 -6.297,-2.4023 -8.57,-3.7812 -1.621,-1.0156 -2.461,-2.2734 -2.461,-5.0977 0,-3.2421 1.141,-5.5156 4.559,-5.5156 3.3,0 6.472,2.8203 6.472,6.1133 z M 431.262,43.5 c 0,7.3242 3.113,10.5586 10.789,10.5586 9.773,0 9.773,-5.8789 9.773,-9.2383 V 26.8906 c 0,-1.3203 0,-2.5781 1.567,-2.5781 0.652,0 0.957,0.125 1.187,0.3008 v -3.5938 c -0.348,-0.0664 -1.676,-0.3007 -2.937,-0.3007 -1.914,0 -4.317,0 -4.551,4.1406 h -0.117 c -1.621,-2.8828 -4.746,-4.6211 -7.743,-4.6211 -5.996,0 -8.75,3.5937 -8.75,9.3555 0,4.4921 1.915,7.6171 6.051,8.8789 l 6.782,2.0312 c 3.66,1.1406 3.66,2.1563 3.66,4.8633 0,2.9961 -1.805,4.7344 -5.164,4.7344 -5.52,0 -5.52,-5.1563 -5.52,-6.2969 V 43.5 h -5.027" /><path
             id="path60"
             style="fill:#231f20;fill-opacity:1;fill-rule:nonzero;stroke:none"
             d="m 458.977,63.8906 h 5.039 V 21.0781 h -5.039 v 42.8125" /><path
             id="path62"
             style="fill:#231f20;fill-opacity:1;fill-rule:nonzero;stroke:none"
             d="m 472.422,62.5742 h 5.027 v -9.3554 h 5.578 v -3.9571 h -5.578 V 28.6289 c 0,-2.5781 0.664,-3.5937 3.305,-3.5937 1.082,0 1.68,0.1171 2.215,0.1757 v -4.1328 c -0.653,-0.125 -1.973,-0.3593 -4.071,-0.3593 -5.226,0 -6.476,2.1562 -6.476,6.3554 v 22.1875 h -4.68 v 3.9571 h 4.68 v 9.3554" /><path
             id="path64"
             style="fill:#231f20;fill-opacity:1;fill-rule:nonzero;stroke:none"
             d="m 486.453,63.8906 h 5.039 V 49.5664 h 0.121 c 1.317,2.6367 4.852,4.4922 7.735,4.4922 8.281,0 8.281,-6.418 8.281,-10.1953 V 21.0781 h -5.039 v 22.1875 c 0,2.461 -0.188,6.4766 -4.738,6.4766 -2.704,0 -6.36,-1.7969 -6.36,-6.4766 V 21.0781 h -5.039 v 42.8125" /><path
             id="path66"
             style="fill:#231f20;fill-opacity:1;fill-rule:nonzero;stroke:none"
             d="m 555.02,35.7656 c -0.477,-8.0937 -3.653,-15.5273 -13.008,-15.5273 -12.176,0 -13.789,11.457 -13.789,22.2461 0,10.7929 1.972,22.2461 13.789,22.2461 8.75,0 12.414,-4.9102 12.656,-13.3086 h -5.516 c -0.129,4.8515 -1.679,8.9922 -7.14,8.9922 -7.317,0 -8.282,-8.0352 -8.282,-17.9297 0,-9.8906 0.965,-17.9297 8.282,-17.9297 6.418,0 7.312,5.9961 7.492,11.2109 h 5.516" /><path
             id="path68"
             style="fill:#231f20;fill-opacity:1;fill-rule:nonzero;stroke:none"
             d="m 574.531,38.5898 c -1.863,-1.9843 -6.297,-2.4023 -8.586,-3.7812 -1.609,-1.0156 -2.449,-2.2734 -2.449,-5.0977 0,-3.2421 1.133,-5.5156 4.551,-5.5156 3.301,0 6.484,2.8203 6.484,6.1133 z M 558.992,43.5 c 0,7.3242 3.117,10.5586 10.793,10.5586 9.778,0 9.778,-5.8789 9.778,-9.2383 V 26.8906 c 0,-1.3203 0,-2.5781 1.558,-2.5781 0.664,0 0.957,0.125 1.203,0.3008 v -3.5938 c -0.359,-0.0664 -1.679,-0.3007 -2.937,-0.3007 -1.926,0 -4.317,0 -4.563,4.1406 h -0.117 c -1.621,-2.8828 -4.734,-4.6211 -7.734,-4.6211 -5.996,0 -8.758,3.5937 -8.758,9.3555 0,4.4921 1.922,7.6171 6.062,8.8789 l 6.77,2.0312 c 3.66,1.1406 3.66,2.1563 3.66,4.8633 0,2.9961 -1.797,4.7344 -5.156,4.7344 -5.52,0 -5.52,-5.1563 -5.52,-6.2969 V 43.5 h -5.039" /><path
             id="path70"
             style="fill:#231f20;fill-opacity:1;fill-rule:nonzero;stroke:none"
             d="m 586.418,53.2188 h 4.793 v -3.7813 h 0.129 c 1.316,2.9414 4.668,4.6211 7.793,4.6211 8.457,0 8.457,-6.418 8.457,-10.1953 V 21.0781 h -5.039 v 22.1875 c 0,2.461 -0.188,6.4766 -4.738,6.4766 -2.704,0 -6.36,-1.7969 -6.36,-6.4766 V 21.0781 h -5.035 v 32.1407" /><path
             id="path72"
             style="fill:#231f20;fill-opacity:1;fill-rule:nonzero;stroke:none"
             d="m 628.945,38.5898 c -1.855,-1.9843 -6.297,-2.4023 -8.574,-3.7812 -1.621,-1.0156 -2.461,-2.2734 -2.461,-5.0977 0,-3.2421 1.145,-5.5156 4.563,-5.5156 3.3,0 6.472,2.8203 6.472,6.1133 z M 613.418,43.5 c 0,7.3242 3.113,10.5586 10.793,10.5586 9.773,0 9.773,-5.8789 9.773,-9.2383 V 26.8906 c 0,-1.3203 0,-2.5781 1.563,-2.5781 0.652,0 0.957,0.125 1.191,0.3008 v -3.5938 c -0.351,-0.0664 -1.679,-0.3007 -2.937,-0.3007 -1.914,0 -4.317,0 -4.555,4.1406 h -0.113 c -1.621,-2.8828 -4.746,-4.6211 -7.746,-4.6211 -5.996,0 -8.75,3.5937 -8.75,9.3555 0,4.4921 1.914,7.6171 6.054,8.8789 l 6.778,2.0312 c 3.664,1.1406 3.664,2.1563 3.664,4.8633 0,2.9961 -1.809,4.7344 -5.168,4.7344 -5.52,0 -5.52,-5.1563 -5.52,-6.2969 V 43.5 h -5.027" /><path
             id="path74"
             style="fill:#231f20;fill-opacity:1;fill-rule:nonzero;stroke:none"
             d="m 650.793,24.5547 c 5.574,0 6.473,5.2734 6.473,12.5898 0,6.2383 -1.082,12.5977 -6.473,12.5977 -4.68,0 -5.883,-4.9219 -5.883,-12.5977 0,-7.6757 1.203,-12.5898 5.883,-12.5898 z m 11.211,-3.4766 h -4.797 v 3.9571 h -0.117 c -0.664,-2.4024 -3.485,-4.7969 -6.961,-4.7969 -7.617,0 -10.488,6.7773 -10.488,16.9062 0,6.7188 1.074,16.9141 10.125,16.9141 2.882,0 5.937,-1.7383 7.082,-4.4922 h 0.117 v 14.3242 h 5.039 V 21.0781" /><path
             id="path76"
             style="fill:#231f20;fill-opacity:1;fill-rule:nonzero;stroke:none"
             d="m 683.367,38.5898 c -1.863,-1.9843 -6.297,-2.4023 -8.582,-3.7812 -1.609,-1.0156 -2.449,-2.2734 -2.449,-5.0977 0,-3.2421 1.133,-5.5156 4.551,-5.5156 3.301,0 6.48,2.8203 6.48,6.1133 z M 667.832,43.5 c 0,7.3242 3.113,10.5586 10.789,10.5586 9.777,0 9.777,-5.8789 9.777,-9.2383 V 26.8906 c 0,-1.3203 0,-2.5781 1.563,-2.5781 0.664,0 0.957,0.125 1.199,0.3008 v -3.5938 c -0.359,-0.0664 -1.676,-0.3007 -2.937,-0.3007 -1.922,0 -4.317,0 -4.563,4.1406 h -0.113 c -1.621,-2.8828 -4.738,-4.6211 -7.734,-4.6211 -5.997,0 -8.762,3.5937 -8.762,9.3555 0,4.4921 1.926,7.6171 6.062,8.8789 l 6.77,2.0312 c 3.664,1.1406 3.664,2.1563 3.664,4.8633 0,2.9961 -1.801,4.7344 -5.156,4.7344 -5.52,0 -5.52,-5.1563 -5.52,-6.2969 V 43.5 h -5.039" /><path
             id="path78"
             style="fill:#231f20;fill-opacity:1;fill-rule:nonzero;stroke:none"
             d="m 235.715,322.195 h 8.269 l -5.871,-8.64 h -5.64 z m 12.41,-11.16 v -7.07 h -15.293 v -10.078 h 14.395 v -7.071 h -14.395 v -11.511 h 15.898 v -7.082 h -24.531 v 42.812 h 23.926" /><path
             id="path80"
             style="fill:#231f20;fill-opacity:1;fill-rule:nonzero;stroke:none"
             d="m 254.617,311.035 h 8.285 v -42.812 h -8.285 v 42.812" /><path
             id="path82"
             style="fill:#231f20;fill-opacity:1;fill-rule:nonzero;stroke:none"
             d="m 285.762,288.008 c -0.188,4.922 -0.782,7.676 -4.199,7.676 -3.301,0 -4.258,-3.418 -4.258,-6.414 v -1.262 z m -8.457,-4.91 v -2.578 c 0,-3.782 1.015,-7.5 4.082,-7.5 2.754,0 3.894,2.097 4.375,6.05 h 7.433 c -0.293,-7.488 -3.898,-11.687 -11.691,-11.687 -11.992,0 -12.473,9.238 -12.473,17.273 0,8.637 1.684,16.672 12.832,16.672 9.653,0 11.809,-6.484 11.809,-16.379 v -1.851 h -16.367" /><path
             id="path84"
             style="fill:#231f20;fill-opacity:1;fill-rule:nonzero;stroke:none"
             d="m 314.805,300.488 h 8.281 l -8.098,-32.265 h -9.597 l -8.328,32.265 h 8.632 l 4.618,-23.086 h 0.117 l 4.375,23.086" /><path
             id="path86"
             style="fill:#231f20;fill-opacity:1;fill-rule:nonzero;stroke:none"
             d="m 338.152,312.898 h 8.274 l -5.867,-8.628 h -5.649 z m 5.043,-24.89 c -0.187,4.922 -0.785,7.676 -4.203,7.676 -3.297,0 -4.254,-3.418 -4.254,-6.414 v -1.262 z m -8.457,-4.91 v -2.578 c 0,-3.782 1.016,-7.5 4.082,-7.5 2.75,0 3.895,2.097 4.375,6.05 h 7.43 c -0.293,-7.488 -3.895,-11.687 -11.687,-11.687 -11.993,0 -12.473,9.238 -12.473,17.273 0,8.637 1.68,16.672 12.832,16.672 9.648,0 11.808,-6.484 11.808,-16.379 v -1.851 h -16.367" /><path
             id="path88"
             style="fill:#231f20;fill-opacity:1;fill-rule:nonzero;stroke:none"
             d="m 388.379,288.008 c -0.184,4.922 -0.781,7.676 -4.199,7.676 -3.301,0 -4.258,-3.418 -4.258,-6.414 v -1.262 z m -8.457,-4.91 v -2.578 c 0,-3.782 1.016,-7.5 4.082,-7.5 2.754,0 3.898,2.097 4.375,6.05 h 7.434 c -0.293,-7.488 -3.899,-11.687 -11.692,-11.687 -11.992,0 -12.469,9.238 -12.469,17.273 0,8.637 1.676,16.672 12.832,16.672 9.649,0 11.805,-6.484 11.805,-16.379 v -1.851 h -16.367" /><path
             id="path90"
             style="fill:#231f20;fill-opacity:1;fill-rule:nonzero;stroke:none"
             d="m 402.129,300.488 h 7.922 v -3.777 h 0.117 c 1.734,3.172 4.734,4.617 8.223,4.617 5.156,0 8.211,-2.82 8.211,-9.18 v -23.925 h -8.282 v 22.246 c 0,3.242 -1.074,4.504 -3.535,4.504 -2.812,0 -4.375,-1.743 -4.375,-5.344 v -21.406 h -8.281 v 32.265" /><path
             id="path92"
             style="fill:#231f20;fill-opacity:1;fill-rule:nonzero;stroke:none"
             d="m 460.156,311.875 h 6.719 L 453.32,267.383 h -6.707 l 13.543,44.492" /><path
             id="path94"
             style="fill:#231f20;fill-opacity:1;fill-rule:nonzero;stroke:none"
             d="m 487.109,311.035 h 8.633 v -16.367 h 10.078 v 16.367 h 8.633 v -42.812 h -8.633 v 19.011 h -10.078 v -19.011 h -8.633 v 42.812" /><path
             id="path96"
             style="fill:#231f20;fill-opacity:1;fill-rule:nonzero;stroke:none"
             d="m 522.043,300.488 h 8.277 v -32.265 h -8.277 z m 0,11.035 h 8.277 v -7.082 h -8.277 v 7.082" /><path
             id="path98"
             style="fill:#231f20;fill-opacity:1;fill-rule:nonzero;stroke:none"
             d="m 549.395,274.941 c 3.476,0 4.503,3.782 4.503,9.231 0,7.859 -1.027,10.801 -4.328,10.801 -3.652,0 -4.316,-2.942 -4.316,-11.645 0,-4.433 0.664,-8.387 4.141,-8.387 z m 12.414,25.547 v -30.644 c 0,-8.516 -3.782,-12.656 -13.43,-12.656 -7.02,0 -10.977,3.117 -10.977,8.632 h 7.911 c 0,-1.074 0.488,-1.914 1.257,-2.453 0.785,-0.547 1.743,-0.894 2.766,-0.894 3.359,0 4.562,2.507 4.562,5.808 v 4.258 h -0.128 c -1.68,-2.394 -4.258,-3.953 -6.895,-3.953 -6.594,0 -9.891,4.488 -9.891,16.309 0,7.554 1.141,16.433 10.133,16.433 2.278,0 5.102,-1.086 6.653,-4.441 h 0.128 v 3.601 h 7.911" /><path
             id="path100"
             style="fill:#231f20;fill-opacity:1;fill-rule:nonzero;stroke:none"
             d="m 569.152,311.035 h 8.282 v -13.847 h 0.117 c 1.562,2.753 4.375,4.14 7.859,4.14 5.156,0 8.211,-2.82 8.211,-9.18 v -23.925 h -8.277 v 22.246 c 0,3.242 -1.074,4.504 -3.535,4.504 -2.817,0 -4.375,-1.743 -4.375,-5.344 v -21.406 h -8.282 v 42.812" /><path
             id="path102"
             style="fill:#231f20;fill-opacity:1;fill-rule:nonzero;stroke:none"
             d="m 616.855,300.488 h 8.282 v -32.265 h -8.282 z m 0,11.035 h 8.282 v -7.082 h -8.282 v 7.082" /><path
             id="path104"
             style="fill:#231f20;fill-opacity:1;fill-rule:nonzero;stroke:none"
             d="m 632.461,300.488 h 7.922 v -3.777 h 0.113 c 1.742,3.172 4.738,4.617 8.227,4.617 5.156,0 8.211,-2.82 8.211,-9.18 v -23.925 h -8.282 v 22.246 c 0,3.242 -1.074,4.504 -3.535,4.504 -2.812,0 -4.375,-1.743 -4.375,-5.344 v -21.406 h -8.281 v 32.265" /><path
             id="path106"
             style="fill:#ffffff;fill-opacity:1;fill-rule:nonzero;stroke:none"
             d="m 232.832,200.023 v -1.257 c 0,-4.016 1.145,-6.594 5.703,-6.594 2.637,0 5.156,1.68 5.156,5.273 0,3.899 -1.98,5.344 -7.675,7.317 -7.676,2.644 -11.219,5.82 -11.219,12.957 0,8.332 5.098,12.59 13.262,12.59 7.675,0 13.25,-3.293 13.25,-11.516 v -1.191 h -8.282 c 0,4.015 -1.375,6.347 -4.675,6.347 -3.899,0 -4.914,-2.449 -4.914,-4.969 0,-2.636 0.781,-4.257 4.433,-5.82 l 6.66,-2.883 c 6.477,-2.812 8.157,-6.113 8.157,-11.328 0,-9.051 -5.52,-13.133 -14.875,-13.133 -9.778,0 -13.614,4.559 -13.614,12.469 v 1.738 h 8.633" /><path
             id="path108"
             style="fill:#ffffff;fill-opacity:1;fill-rule:nonzero;stroke:none"
             d="m 274.836,190.434 h -0.117 c -1.739,-3.184 -4.739,-4.618 -8.215,-4.618 -5.156,0 -8.223,2.821 -8.223,9.18 v 23.926 h 8.282 v -22.258 c 0,-3.23 1.074,-4.492 3.535,-4.492 2.824,0 4.375,1.738 4.375,5.332 v 21.418 h 8.281 v -32.266 h -7.918 v 3.778" /><path
             id="path110"
             style="fill:#ffffff;fill-opacity:1;fill-rule:nonzero;stroke:none"
             d="m 305.32,207.281 c 0,3.125 -0.601,6.485 -3.718,6.485 -4.075,0 -4.739,-3.606 -4.739,-11.036 0,-7.98 0.727,-11.281 4.438,-11.281 2.762,0 4.019,2.344 4.019,7.559 h 7.914 c 0,-8.457 -3.539,-13.192 -12.289,-13.192 -8.281,0 -12.351,4.012 -12.351,16.973 0,13.25 5.449,16.973 13.066,16.973 7.617,0 11.574,-4.864 11.574,-12.481 h -7.914" /><path
             id="path112"
             style="fill:#ffffff;fill-opacity:1;fill-rule:nonzero;stroke:none"
             d="m 319.07,218.922 h 7.922 v -4.317 h 0.117 c 1.68,3.114 4.024,5.157 7.442,5.157 0.476,0 1.015,-0.071 1.496,-0.129 v -7.91 c -0.844,0.058 -1.738,0.117 -2.578,0.117 -2.883,0 -6.114,-1.492 -6.114,-5.82 v -19.364 h -8.285 v 32.266" /><path
             id="path114"
             style="fill:#ffffff;fill-opacity:1;fill-rule:nonzero;stroke:none"
             d="m 356.094,206.441 c -0.188,4.922 -0.781,7.676 -4.199,7.676 -3.301,0 -4.258,-3.418 -4.258,-6.418 v -1.258 z m -8.457,-4.914 v -2.578 c 0,-3.777 1.015,-7.5 4.082,-7.5 2.754,0 3.894,2.102 4.375,6.055 h 7.433 c -0.293,-7.488 -3.898,-11.688 -11.691,-11.688 -11.992,0 -12.473,9.239 -12.473,17.274 0,8.633 1.684,16.672 12.832,16.672 9.653,0 11.809,-6.485 11.809,-16.379 v -1.856 h -16.367" /><path
             id="path116"
             style="fill:#ffffff;fill-opacity:1;fill-rule:nonzero;stroke:none"
             d="m 375.906,197.211 v -1.082 c 0,-2.813 1.496,-4.68 4.321,-4.68 2.515,0 4.199,1.262 4.199,3.84 0,2.098 -1.391,3.055 -3,3.66 l -5.821,2.102 c -4.558,1.621 -6.894,4.433 -6.894,8.992 0,5.332 3.359,9.719 11.875,9.719 7.488,0 11.035,-3.36 11.035,-9.18 v -1.32 h -7.441 c 0,3.242 -0.957,4.855 -3.66,4.855 -2.09,0 -3.899,-1.191 -3.899,-3.476 0,-1.555 0.84,-2.883 3.606,-3.782 l 4.968,-1.679 c 5.227,-1.739 7.141,-4.375 7.141,-9.227 0,-6.777 -5.039,-10.137 -11.992,-10.137 -9.297,0 -11.875,4.082 -11.875,10.254 v 1.141 h 7.437" /><path
             id="path118"
             style="fill:#ffffff;fill-opacity:1;fill-rule:nonzero;stroke:none"
             d="m 424.512,230.309 h 6.718 l -13.554,-44.493 h -6.707 l 13.543,44.493" /><path
             id="path120"
             style="fill:#ffffff;fill-opacity:1;fill-rule:nonzero;stroke:none"
             d="m 458.418,200.023 v -1.257 c 0,-4.016 1.145,-6.594 5.703,-6.594 2.637,0 5.156,1.68 5.156,5.273 0,3.899 -1.98,5.344 -7.675,7.317 -7.676,2.644 -11.219,5.82 -11.219,12.957 0,8.332 5.097,12.59 13.262,12.59 7.675,0 13.25,-3.293 13.25,-11.516 v -1.191 h -8.282 c 0,4.015 -1.375,6.347 -4.675,6.347 -3.899,0 -4.915,-2.449 -4.915,-4.969 0,-2.636 0.782,-4.257 4.434,-5.82 l 6.66,-2.883 c 6.477,-2.812 8.156,-6.113 8.156,-11.328 0,-9.051 -5.519,-13.133 -14.875,-13.133 -9.777,0 -13.613,4.559 -13.613,12.469 v 1.738 h 8.633" /><path
             id="path122"
             style="fill:#ffffff;fill-opacity:1;fill-rule:nonzero;stroke:none"
             d="m 500.422,190.434 h -0.117 c -1.739,-3.184 -4.739,-4.618 -8.215,-4.618 -5.156,0 -8.223,2.821 -8.223,9.18 v 23.926 h 8.281 v -22.258 c 0,-3.23 1.075,-4.492 3.536,-4.492 2.824,0 4.375,1.738 4.375,5.332 v 21.418 h 8.281 v -32.266 h -7.918 v 3.778" /><path
             id="path124"
             style="fill:#ffffff;fill-opacity:1;fill-rule:nonzero;stroke:none"
             d="m 527.129,193.375 c 3.476,0 4.504,3.777 4.504,9.227 0,7.863 -1.028,10.8 -4.328,10.8 -3.653,0 -4.317,-2.937 -4.317,-11.64 0,-4.434 0.664,-8.387 4.141,-8.387 z m 12.414,25.547 v -30.645 c 0,-8.515 -3.781,-12.656 -13.43,-12.656 -7.019,0 -10.976,3.113 -10.976,8.633 h 7.91 c 0,-1.074 0.488,-1.914 1.262,-2.453 0.781,-0.547 1.738,-0.899 2.761,-0.899 3.36,0 4.563,2.512 4.563,5.813 v 4.258 h -0.129 c -1.68,-2.395 -4.258,-3.957 -6.895,-3.957 -6.589,0 -9.89,4.492 -9.89,16.308 0,7.559 1.14,16.438 10.136,16.438 2.274,0 5.094,-1.086 6.649,-4.446 h 0.129 v 3.606 h 7.91" /><path
             id="path126"
             style="fill:#ffffff;fill-opacity:1;fill-rule:nonzero;stroke:none"
             d="m 561.945,202.789 c -1.144,-0.84 -2.519,-1.379 -3.547,-1.621 -3.347,-0.723 -4.675,-2.336 -4.675,-5.215 0,-2.461 0.906,-4.504 3.125,-4.504 2.215,0 5.097,1.446 5.097,4.981 z m -15.121,6.231 v 0.781 c 0,7.441 5.102,9.961 11.34,9.961 9.832,0 11.691,-4.082 11.691,-9.903 v -16.964 c 0,-2.997 0.184,-4.383 1.024,-6.239 h -7.918 c -0.539,1.016 -0.781,2.274 -1.016,3.36 h -0.129 c -1.914,-3.36 -4.246,-4.2 -8.211,-4.2 -5.753,0 -7.792,4.922 -7.792,9.239 0,6.054 2.46,8.515 8.152,10.066 l 4.68,1.262 c 2.46,0.664 3.3,1.621 3.3,3.777 0,2.461 -1.086,3.957 -3.84,3.957 -2.519,0 -3.835,-1.679 -3.835,-4.191 v -0.906 h -7.446" /><path
             id="path128"
             style="fill:#ffffff;fill-opacity:1;fill-rule:nonzero;stroke:none"
             d="m 577.246,218.922 h 7.922 v -4.317 h 0.113 c 1.684,3.114 4.028,5.157 7.446,5.157 0.476,0 1.011,-0.071 1.492,-0.129 v -7.91 c -0.84,0.058 -1.739,0.117 -2.578,0.117 -2.879,0 -6.114,-1.492 -6.114,-5.82 v -19.364 h -8.281 v 32.266" /><path
             id="path130"
             style="fill:#ffffff;fill-opacity:1;fill-rule:nonzero;stroke:none"
             d="m 604.797,197.211 v -1.082 c 0,-2.813 1.492,-4.68 4.316,-4.68 2.52,0 4.2,1.262 4.2,3.84 0,2.098 -1.387,3.055 -3,3.66 l -5.821,2.102 c -4.558,1.621 -6.894,4.433 -6.894,8.992 0,5.332 3.359,9.719 11.875,9.719 7.492,0 11.035,-3.36 11.035,-9.18 v -1.32 h -7.442 c 0,3.242 -0.957,4.855 -3.664,4.855 -2.086,0 -3.894,-1.191 -3.894,-3.476 0,-1.555 0.84,-2.883 3.605,-3.782 l 4.969,-1.679 c 5.227,-1.739 7.141,-4.375 7.141,-9.227 0,-6.777 -5.039,-10.137 -11.993,-10.137 -9.296,0 -11.875,4.082 -11.875,10.254 v 1.141 h 7.442" /><path
             id="path132"
             style="fill:#ffffff;fill-opacity:1;fill-rule:nonzero;stroke:none"
             d="m 232.832,111.898 v -1.257 c 0,-4.016 1.145,-6.594 5.703,-6.594 2.637,0 5.156,1.68 5.156,5.273 0,3.899 -1.98,5.344 -7.675,7.317 -7.676,2.644 -11.219,5.82 -11.219,12.957 0,8.332 5.098,12.59 13.262,12.59 7.675,0 13.25,-3.293 13.25,-11.516 v -1.191 h -8.282 c 0,4.015 -1.375,6.347 -4.675,6.347 -3.899,0 -4.914,-2.449 -4.914,-4.969 0,-2.636 0.781,-4.257 4.433,-5.82 l 6.66,-2.883 c 6.477,-2.812 8.157,-6.113 8.157,-11.328 0,-9.051 -5.52,-13.1326 -14.875,-13.1326 -9.778,0 -13.614,4.5586 -13.614,12.4686 v 1.738 h 8.633" /><path
             id="path134"
             style="fill:#ffffff;fill-opacity:1;fill-rule:nonzero;stroke:none"
             d="m 269.922,103.324 c 3.359,0 4.433,3.301 4.433,11.34 0,8.035 -1.074,11.328 -4.433,11.328 -4.082,0 -4.442,-4.738 -4.442,-11.328 0,-6.601 0.36,-11.34 4.442,-11.34 z m 0,28.313 c 9.949,0.176 12.715,-5.762 12.715,-16.973 0,-11.035 -3.242,-16.9726 -12.715,-16.9726 -9.961,-0.1758 -12.715,5.7616 -12.715,16.9726 0,11.035 3.242,16.973 12.715,16.973" /><path
             id="path136"
             style="fill:#ffffff;fill-opacity:1;fill-rule:nonzero;stroke:none"
             d="m 300.402,104.047 c 3.661,0 4.375,3.594 4.375,10.617 0,7.012 -0.714,10.613 -4.375,10.613 -3.593,0 -4.316,-3.601 -4.316,-10.613 0,-7.023 0.723,-10.617 4.316,-10.617 z m 4.735,-2.098 h -0.117 c -1.797,-2.9998 -4.082,-4.2576 -7.317,-4.2576 -6.773,0 -9.89,4.9806 -9.89,16.9726 0,11.992 3.117,16.973 9.89,16.973 3.117,0 5.219,-1.262 6.953,-3.84 h 0.121 v 13.547 h 8.282 V 98.5313 h -7.922 v 3.4177" /><path
             id="path138"
             style="fill:#ffffff;fill-opacity:1;fill-rule:nonzero;stroke:none"
             d="m 320.402,130.797 h 8.282 V 98.5313 h -8.282 z m 0,11.035 h 8.282 v -7.082 h -8.282 v 7.082" /><path
             id="path140"
             style="fill:#ffffff;fill-opacity:1;fill-rule:nonzero;stroke:none"
             d="m 352.551,102.309 h -0.117 c -1.739,-3.184 -4.739,-4.6176 -8.215,-4.6176 -5.156,0 -8.223,2.8206 -8.223,9.1796 v 23.926 h 8.281 v -22.258 c 0,-3.23 1.075,-4.492 3.536,-4.492 2.824,0 4.375,1.738 4.375,5.332 v 21.418 h 8.281 V 98.5313 h -7.918 v 3.7777" /><path
             id="path142"
             style="fill:#ffffff;fill-opacity:1;fill-rule:nonzero;stroke:none"
             d="m 367.512,130.797 h 7.918 v -3.301 h 0.117 c 2.101,2.938 4.68,4.141 8.152,4.141 3.781,0 6.543,-1.867 7.446,-5.157 h 0.117 c 1.258,3.418 4.258,5.157 8.152,5.157 5.457,0 8.035,-3.418 8.035,-9.66 V 98.5313 h -8.269 v 22.5467 c 0,2.695 -0.899,4.199 -3.242,4.199 -2.637,0 -4.317,-1.797 -4.317,-5.515 V 98.5313 h -8.269 v 22.5467 c 0,2.695 -0.911,4.199 -3.243,4.199 -2.636,0 -4.316,-1.797 -4.316,-5.515 V 98.5313 h -8.281 v 32.2657" /><path
             id="path144"
             style="fill:#231f20;fill-opacity:1;fill-rule:nonzero;stroke:none"
             d="M 135.84,160.188 C 123.395,138.984 96.0938,131.879 74.918,144.324 53.7188,156.77 46.6055,184.094 59.0508,205.293 71.5,226.469 98.5859,233.527 120.02,221.137 c 21.433,-12.371 28.289,-39.77 15.82,-60.949 z m -8.512,73.789 C 99.0586,250.586 63.0234,241.184 46.3906,212.91 31.8477,187.813 37.4023,156.445 58.5234,138.262 L 34.7422,98.3008 c -2.3633,-4.0391 -0.8867,-9.2305 3.2461,-11.4219 l 5.707,-3.0195 c 3.9336,-2.0821 8.8086,-0.6563 11,3.2187 l 22.5586,40.1679 c 26.4341,-9.516 56.5231,0.899 71.1411,25.789 16.585,28.27 7.226,64.336 -21.067,80.942" /></g></g></g></g></svg>