<?xml version="1.0" encoding="UTF-8" standalone="no"?>
<svg
   xmlns:dc="http://purl.org/dc/elements/1.1/"
   xmlns:cc="http://creativecommons.org/ns#"
   xmlns:rdf="http://www.w3.org/1999/02/22-rdf-syntax-ns#"
   xmlns:svg="http://www.w3.org/2000/svg"
   xmlns="http://www.w3.org/2000/svg"
   viewBox="0 0 94.487999 32.125998"
   height="32.125999"
   width="94.487999"
   xml:space="preserve"
   id="svg2"
   version="1.1"><metadata
     id="metadata8"><rdf:RDF><cc:Work
         rdf:about=""><dc:format>image/svg+xml</dc:format><dc:type
           rdf:resource="http://purl.org/dc/dcmitype/StillImage" /></cc:Work></rdf:RDF></metadata><defs
     id="defs6"><clipPath
       id="clipPath20"
       clipPathUnits="userSpaceOnUse"><path
         id="path18"
         d="M 0,0 H 708.66 V 240.945 H 0 Z" /></clipPath></defs><g
     transform="matrix(1.3333333,0,0,-1.3333333,0,32.125999)"
     id="g10"><g
       transform="scale(0.1)"
       id="g12"><g
         id="g14"><g
           clip-path="url(#clipPath20)"
           id="g16"><path
             id="path22"
             style="fill:#ffffff;fill-opacity:1;fill-rule:nonzero;stroke:none"
             d="M 2.5,2.50391 V 238.441 H 706.156 V 2.50391 H 2.5" /><path
             id="path24"
             style="fill:#231f20;fill-opacity:1;fill-rule:nonzero;stroke:none"
             d="M 708.66,240.945 H 0 V 0 h 708.66 z m -5,-5 V 5 H 5 v 230.945 h 698.66" /><path
             id="path26"
             style="fill:#231f20;fill-opacity:1;fill-rule:nonzero;stroke:none"
             d="m 38.4414,51.7148 c 0,4.4922 -1.6211,7.6094 -6.6601,7.6094 -4.4375,0 -7.0743,-2.3945 -7.0743,-6.9531 0,-12.0508 20.211,-4.8555 20.211,-20.5078 0,-9.8945 -7.2578,-12.7149 -13.3164,-12.7149 -10.0078,0 -12.9493,5.1563 -12.9493,14.2774 h 5.2735 c 0,-4.8047 0.3047,-9.961 8.039,-9.961 4.1954,0 7.4336,2.9961 7.4336,7.5586 0,12.1172 -20.207,5.0977 -20.207,20.8086 0,3.9571 1.6758,11.8164 12.5313,11.8164 8.1562,0 11.875,-4.082 11.9921,-11.9336 h -5.2734" /><path
             id="path28"
             style="fill:#231f20;fill-opacity:1;fill-rule:nonzero;stroke:none"
             d="m 64.8438,37.4961 c -1.8594,-1.9727 -6.2969,-2.3906 -8.5782,-3.7773 -1.6172,-1.0157 -2.457,-2.2774 -2.457,-5.0977 0,-3.2344 1.1367,-5.5078 4.5547,-5.5078 3.3008,0 6.4805,2.8125 6.4805,6.1133 z M 49.3125,42.418 c 0,7.3164 3.1133,10.5586 10.7891,10.5586 9.7773,0 9.7773,-5.8789 9.7773,-9.2383 V 25.8086 c 0,-1.3203 0,-2.5781 1.5625,-2.5781 0.6602,0 0.957,0.1172 1.1953,0.3008 V 19.9297 C 72.2813,19.8711 70.957,19.625 69.6953,19.625 c -1.918,0 -4.3125,0 -4.5547,4.1406 h -0.1211 c -1.6172,-2.8789 -4.7382,-4.6172 -7.7343,-4.6172 -5.9961,0 -8.7539,3.6016 -8.7539,9.3555 0,4.5 1.9179,7.6172 6.0585,8.875 l 6.7735,2.043 c 3.6562,1.1328 3.6562,2.1562 3.6562,4.8515 0,3 -1.7968,4.7383 -5.1562,4.7383 -5.5156,0 -5.5156,-5.1562 -5.5156,-6.289 V 42.418 h -5.0352" /><path
             id="path30"
             style="fill:#231f20;fill-opacity:1;fill-rule:nonzero;stroke:none"
             d="m 76.7305,52.1367 h 4.7968 v -3.7812 h 0.125 c 1.3165,2.9414 4.6719,4.6211 7.793,4.6211 8.457,0 8.457,-6.418 8.457,-10.1953 v -22.793 h -5.039 v 22.1875 c 0,2.4609 -0.1836,6.4726 -4.7383,6.4726 -2.6992,0 -6.3555,-1.7968 -6.3555,-6.4726 V 19.9883 h -5.039 v 32.1484" /><path
             id="path32"
             style="fill:#231f20;fill-opacity:1;fill-rule:nonzero;stroke:none"
             d="m 106.008,61.4922 h 5.039 v -9.3555 h 5.574 v -3.9648 h -5.574 v -20.625 c 0,-2.5781 0.656,-3.5938 3.301,-3.5938 1.078,0 1.672,0.1172 2.215,0.1758 v -4.1406 c -0.661,-0.1172 -1.977,-0.3633 -4.079,-0.3633 -5.218,0 -6.476,2.1602 -6.476,6.3594 v 22.1875 h -4.676 v 3.9648 h 4.676 v 9.3555" /><path
             id="path34"
             style="fill:#231f20;fill-opacity:1;fill-rule:nonzero;stroke:none"
             d="m 131.262,65.0859 h 5.879 l -6.481,-8.5156 h -3.597 z m 4.617,-25.664 v 1.7383 c 0,3.5937 -1.141,7.8515 -5.574,7.8515 -5.282,0 -5.879,-6.4765 -5.879,-8.3906 v -1.1992 z m -11.637,-3.9571 c 0,-4.9218 0,-12.3515 6.18,-12.3515 4.797,0 5.457,5.0273 5.457,7.4297 h 5.035 c 0,-3.418 -2.035,-11.3946 -10.793,-11.3946 -7.855,0 -11.156,5.4571 -11.156,16.4922 0,8.0391 1.562,17.336 11.457,17.336 9.832,0 10.73,-8.586 10.73,-15.4805 v -2.0313 h -16.91" /><path
             id="path36"
             style="fill:#231f20;fill-opacity:1;fill-rule:nonzero;stroke:none"
             d="m 187.473,34.6836 c -0.481,-8.0938 -3.66,-15.5352 -13.016,-15.5352 -12.172,0 -13.793,11.4532 -13.793,22.2461 0,10.8008 1.984,22.2539 13.793,22.2539 8.758,0 12.414,-4.9218 12.656,-13.3203 h -5.515 c -0.121,4.8633 -1.68,8.9961 -7.141,8.9961 -7.312,0 -8.273,-8.0273 -8.273,-17.9297 0,-9.8945 0.961,-17.9297 8.273,-17.9297 6.418,0 7.32,5.9961 7.496,11.2188 h 5.52" /><path
             id="path38"
             style="fill:#231f20;fill-opacity:1;fill-rule:nonzero;stroke:none"
             d="m 206.984,37.4961 c -1.863,-1.9727 -6.3,-2.3906 -8.582,-3.7773 -1.617,-1.0157 -2.457,-2.2774 -2.457,-5.0977 0,-3.2344 1.141,-5.5078 4.559,-5.5078 3.301,0 6.48,2.8125 6.48,6.1133 z m -15.535,4.9219 c 0,7.3164 3.117,10.5586 10.793,10.5586 9.774,0 9.774,-5.8789 9.774,-9.2383 V 25.8086 c 0,-1.3203 0,-2.5781 1.562,-2.5781 0.66,0 0.957,0.1172 1.199,0.3008 v -3.6016 c -0.359,-0.0586 -1.679,-0.3047 -2.941,-0.3047 -1.918,0 -4.316,0 -4.555,4.1406 h -0.125 c -1.613,-2.8789 -4.734,-4.6172 -7.73,-4.6172 -5.996,0 -8.758,3.6016 -8.758,9.3555 0,4.5 1.922,7.6172 6.062,8.875 l 6.77,2.043 c 3.656,1.1328 3.656,2.1562 3.656,4.8515 0,3 -1.793,4.7383 -5.152,4.7383 -5.52,0 -5.52,-5.1562 -5.52,-6.289 V 42.418 h -5.035" /><path
             id="path40"
             style="fill:#231f20;fill-opacity:1;fill-rule:nonzero;stroke:none"
             d="m 218.863,52.1367 h 4.797 v -3.7812 h 0.125 c 1.317,2.9414 4.672,4.6211 7.793,4.6211 8.457,0 8.457,-6.418 8.457,-10.1953 v -22.793 h -5.039 v 22.1875 c 0,2.4609 -0.18,6.4726 -4.738,6.4726 -2.699,0 -6.356,-1.7968 -6.356,-6.4726 V 19.9883 h -5.039 v 32.1484" /><path
             id="path42"
             style="fill:#231f20;fill-opacity:1;fill-rule:nonzero;stroke:none"
             d="m 261.402,37.4961 c -1.863,-1.9727 -6.3,-2.3906 -8.582,-3.7773 -1.613,-1.0157 -2.453,-2.2774 -2.453,-5.0977 0,-3.2344 1.137,-5.5078 4.555,-5.5078 3.301,0 6.48,2.8125 6.48,6.1133 z m -15.535,4.9219 c 0,7.3164 3.117,10.5586 10.793,10.5586 9.778,0 9.778,-5.8789 9.778,-9.2383 V 25.8086 c 0,-1.3203 0,-2.5781 1.558,-2.5781 0.66,0 0.957,0.1172 1.199,0.3008 v -3.6016 c -0.355,-0.0586 -1.679,-0.3047 -2.941,-0.3047 -1.918,0 -4.316,0 -4.555,4.1406 h -0.117 c -1.621,-2.8789 -4.742,-4.6172 -7.738,-4.6172 -5.996,0 -8.754,3.6016 -8.754,9.3555 0,4.5 1.918,7.6172 6.058,8.875 l 6.774,2.043 c 3.66,1.1328 3.66,2.1562 3.66,4.8515 0,3 -1.801,4.7383 -5.16,4.7383 -5.52,0 -5.52,-5.1562 -5.52,-6.289 V 42.418 h -5.035" /><path
             id="path44"
             style="fill:#231f20;fill-opacity:1;fill-rule:nonzero;stroke:none"
             d="m 283.238,23.4648 c 5.575,0 6.481,5.2813 6.481,12.5977 0,6.2383 -1.086,12.5859 -6.481,12.5859 -4.679,0 -5.875,-4.9101 -5.875,-12.5859 0,-7.6758 1.196,-12.5977 5.875,-12.5977 z m 11.215,-3.4765 h -4.801 v 3.9648 h -0.117 c -0.656,-2.4023 -3.48,-4.8047 -6.957,-4.8047 -7.617,0 -10.492,6.7774 -10.492,16.9141 0,6.7188 1.078,16.9141 10.133,16.9141 2.879,0 5.933,-1.7383 7.078,-4.5039 h 0.117 v 14.3359 h 5.039 V 19.9883" /><path
             id="path46"
             style="fill:#231f20;fill-opacity:1;fill-rule:nonzero;stroke:none"
             d="m 315.82,37.4961 c -1.859,-1.9727 -6.297,-2.3906 -8.578,-3.7773 -1.617,-1.0157 -2.457,-2.2774 -2.457,-5.0977 0,-3.2344 1.137,-5.5078 4.555,-5.5078 3.301,0 6.48,2.8125 6.48,6.1133 z m -15.531,4.9219 c 0,7.3164 3.113,10.5586 10.789,10.5586 9.777,0 9.777,-5.8789 9.777,-9.2383 V 25.8086 c 0,-1.3203 0,-2.5781 1.563,-2.5781 0.656,0 0.957,0.1172 1.195,0.3008 v -3.6016 c -0.355,-0.0586 -1.679,-0.3047 -2.937,-0.3047 -1.922,0 -4.317,0 -4.559,4.1406 h -0.121 c -1.617,-2.8789 -4.734,-4.6172 -7.734,-4.6172 -5.996,0 -8.754,3.6016 -8.754,9.3555 0,4.5 1.918,7.6172 6.058,8.875 l 6.774,2.043 c 3.656,1.1328 3.656,2.1562 3.656,4.8515 0,3 -1.797,4.7383 -5.156,4.7383 -5.52,0 -5.52,-5.1562 -5.52,-6.289 V 42.418 h -5.031" /><path
             id="path48"
             style="fill:#231f20;fill-opacity:1;fill-rule:nonzero;stroke:none"
             d="m 352.113,63.6484 h 3.961 l -13.91,-44.5 h -3.961 l 13.91,44.5" /><path
             id="path50"
             style="fill:#231f20;fill-opacity:1;fill-rule:nonzero;stroke:none"
             d="m 398.605,19.9883 h -5.277 V 40.6211 H 378.633 V 19.9883 h -5.274 v 42.8203 h 5.274 V 45.3008 h 14.695 v 17.5078 h 5.277 V 19.9883" /><path
             id="path52"
             style="fill:#231f20;fill-opacity:1;fill-rule:nonzero;stroke:none"
             d="m 421.23,39.4219 v 1.7383 c 0,3.5937 -1.14,7.8515 -5.578,7.8515 -5.269,0 -5.875,-6.4765 -5.875,-8.3906 v -1.1992 z m -11.628,-3.9571 c 0,-4.9218 0,-12.3515 6.171,-12.3515 4.801,0 5.457,5.0273 5.457,7.4297 h 5.04 c 0,-3.418 -2.04,-11.3946 -10.79,-11.3946 -7.863,0 -11.164,5.4571 -11.164,16.4922 0,8.0391 1.563,17.336 11.457,17.336 9.832,0 10.731,-8.586 10.731,-15.4805 v -2.0313 h -16.902" /><path
             id="path54"
             style="fill:#231f20;fill-opacity:1;fill-rule:nonzero;stroke:none"
             d="m 446.785,37.4961 c -1.851,-1.9727 -6.297,-2.3906 -8.57,-3.7773 -1.621,-1.0157 -2.461,-2.2774 -2.461,-5.0977 0,-3.2344 1.141,-5.5078 4.559,-5.5078 3.3,0 6.472,2.8125 6.472,6.1133 z m -15.523,4.9219 c 0,7.3164 3.113,10.5586 10.789,10.5586 9.773,0 9.773,-5.8789 9.773,-9.2383 V 25.8086 c 0,-1.3203 0,-2.5781 1.567,-2.5781 0.652,0 0.957,0.1172 1.187,0.3008 v -3.6016 c -0.348,-0.0586 -1.676,-0.3047 -2.937,-0.3047 -1.914,0 -4.317,0 -4.551,4.1406 h -0.117 c -1.621,-2.8789 -4.746,-4.6172 -7.743,-4.6172 -5.996,0 -8.75,3.6016 -8.75,9.3555 0,4.5 1.915,7.6172 6.051,8.875 l 6.782,2.043 c 3.66,1.1328 3.66,2.1562 3.66,4.8515 0,3 -1.805,4.7383 -5.164,4.7383 -5.52,0 -5.52,-5.1562 -5.52,-6.289 V 42.418 h -5.027" /><path
             id="path56"
             style="fill:#231f20;fill-opacity:1;fill-rule:nonzero;stroke:none"
             d="m 458.977,62.8086 h 5.039 V 19.9883 h -5.039 v 42.8203" /><path
             id="path58"
             style="fill:#231f20;fill-opacity:1;fill-rule:nonzero;stroke:none"
             d="m 472.422,61.4922 h 5.027 v -9.3555 h 5.578 v -3.9648 h -5.578 v -20.625 c 0,-2.5781 0.664,-3.5938 3.305,-3.5938 1.082,0 1.68,0.1172 2.215,0.1758 v -4.1406 c -0.653,-0.1172 -1.973,-0.3633 -4.071,-0.3633 -5.226,0 -6.476,2.1602 -6.476,6.3594 v 22.1875 h -4.68 v 3.9648 h 4.68 v 9.3555" /><path
             id="path60"
             style="fill:#231f20;fill-opacity:1;fill-rule:nonzero;stroke:none"
             d="m 486.453,62.8086 h 5.039 V 48.4727 h 0.121 c 1.317,2.6367 4.852,4.5039 7.735,4.5039 8.281,0 8.281,-6.418 8.281,-10.1953 v -22.793 h -5.039 v 22.1875 c 0,2.4609 -0.188,6.4726 -4.738,6.4726 -2.704,0 -6.36,-1.7968 -6.36,-6.4726 V 19.9883 h -5.039 v 42.8203" /><path
             id="path62"
             style="fill:#231f20;fill-opacity:1;fill-rule:nonzero;stroke:none"
             d="m 555.02,34.6836 c -0.477,-8.0938 -3.653,-15.5352 -13.008,-15.5352 -12.176,0 -13.789,11.4532 -13.789,22.2461 0,10.8008 1.972,22.2539 13.789,22.2539 8.75,0 12.414,-4.9218 12.656,-13.3203 h -5.516 c -0.129,4.8633 -1.679,8.9961 -7.14,8.9961 -7.317,0 -8.282,-8.0273 -8.282,-17.9297 0,-9.8945 0.965,-17.9297 8.282,-17.9297 6.418,0 7.312,5.9961 7.492,11.2188 h 5.516" /><path
             id="path64"
             style="fill:#231f20;fill-opacity:1;fill-rule:nonzero;stroke:none"
             d="m 574.531,37.4961 c -1.863,-1.9727 -6.297,-2.3906 -8.586,-3.7773 -1.609,-1.0157 -2.449,-2.2774 -2.449,-5.0977 0,-3.2344 1.133,-5.5078 4.551,-5.5078 3.301,0 6.484,2.8125 6.484,6.1133 z m -15.539,4.9219 c 0,7.3164 3.117,10.5586 10.793,10.5586 9.778,0 9.778,-5.8789 9.778,-9.2383 V 25.8086 c 0,-1.3203 0,-2.5781 1.558,-2.5781 0.664,0 0.957,0.1172 1.203,0.3008 v -3.6016 c -0.359,-0.0586 -1.679,-0.3047 -2.937,-0.3047 -1.926,0 -4.317,0 -4.563,4.1406 h -0.117 c -1.621,-2.8789 -4.734,-4.6172 -7.734,-4.6172 -5.996,0 -8.758,3.6016 -8.758,9.3555 0,4.5 1.922,7.6172 6.062,8.875 l 6.77,2.043 c 3.66,1.1328 3.66,2.1562 3.66,4.8515 0,3 -1.797,4.7383 -5.156,4.7383 -5.52,0 -5.52,-5.1562 -5.52,-6.289 V 42.418 h -5.039" /><path
             id="path66"
             style="fill:#231f20;fill-opacity:1;fill-rule:nonzero;stroke:none"
             d="m 586.418,52.1367 h 4.793 v -3.7812 h 0.129 c 1.316,2.9414 4.668,4.6211 7.793,4.6211 8.457,0 8.457,-6.418 8.457,-10.1953 v -22.793 h -5.039 v 22.1875 c 0,2.4609 -0.188,6.4726 -4.738,6.4726 -2.704,0 -6.36,-1.7968 -6.36,-6.4726 V 19.9883 h -5.035 v 32.1484" /><path
             id="path68"
             style="fill:#231f20;fill-opacity:1;fill-rule:nonzero;stroke:none"
             d="m 628.945,37.4961 c -1.855,-1.9727 -6.297,-2.3906 -8.574,-3.7773 -1.621,-1.0157 -2.461,-2.2774 -2.461,-5.0977 0,-3.2344 1.145,-5.5078 4.563,-5.5078 3.3,0 6.472,2.8125 6.472,6.1133 z m -15.527,4.9219 c 0,7.3164 3.113,10.5586 10.793,10.5586 9.773,0 9.773,-5.8789 9.773,-9.2383 V 25.8086 c 0,-1.3203 0,-2.5781 1.563,-2.5781 0.652,0 0.957,0.1172 1.191,0.3008 v -3.6016 c -0.351,-0.0586 -1.679,-0.3047 -2.937,-0.3047 -1.914,0 -4.317,0 -4.555,4.1406 h -0.113 c -1.621,-2.8789 -4.746,-4.6172 -7.746,-4.6172 -5.996,0 -8.75,3.6016 -8.75,9.3555 0,4.5 1.914,7.6172 6.054,8.875 l 6.778,2.043 c 3.664,1.1328 3.664,2.1562 3.664,4.8515 0,3 -1.809,4.7383 -5.168,4.7383 -5.52,0 -5.52,-5.1562 -5.52,-6.289 V 42.418 h -5.027" /><path
             id="path70"
             style="fill:#231f20;fill-opacity:1;fill-rule:nonzero;stroke:none"
             d="m 650.793,23.4648 c 5.574,0 6.473,5.2813 6.473,12.5977 0,6.2383 -1.082,12.5859 -6.473,12.5859 -4.68,0 -5.883,-4.9101 -5.883,-12.5859 0,-7.6758 1.203,-12.5977 5.883,-12.5977 z m 11.211,-3.4765 h -4.797 v 3.9648 h -0.117 c -0.664,-2.4023 -3.485,-4.8047 -6.961,-4.8047 -7.617,0 -10.488,6.7774 -10.488,16.9141 0,6.7188 1.074,16.9141 10.125,16.9141 2.882,0 5.937,-1.7383 7.082,-4.5039 h 0.117 v 14.3359 h 5.039 V 19.9883" /><path
             id="path72"
             style="fill:#231f20;fill-opacity:1;fill-rule:nonzero;stroke:none"
             d="m 683.367,37.4961 c -1.863,-1.9727 -6.297,-2.3906 -8.582,-3.7773 -1.609,-1.0157 -2.449,-2.2774 -2.449,-5.0977 0,-3.2344 1.133,-5.5078 4.551,-5.5078 3.301,0 6.48,2.8125 6.48,6.1133 z m -15.535,4.9219 c 0,7.3164 3.113,10.5586 10.789,10.5586 9.777,0 9.777,-5.8789 9.777,-9.2383 V 25.8086 c 0,-1.3203 0,-2.5781 1.563,-2.5781 0.664,0 0.957,0.1172 1.199,0.3008 v -3.6016 c -0.359,-0.0586 -1.676,-0.3047 -2.937,-0.3047 -1.922,0 -4.317,0 -4.563,4.1406 h -0.113 c -1.621,-2.8789 -4.738,-4.6172 -7.734,-4.6172 -5.997,0 -8.762,3.6016 -8.762,9.3555 0,4.5 1.926,7.6172 6.062,8.875 l 6.77,2.043 c 3.664,1.1328 3.664,2.1562 3.664,4.8515 0,3 -1.801,4.7383 -5.156,4.7383 -5.52,0 -5.52,-5.1562 -5.52,-6.289 V 42.418 h -5.039" /><path
             id="path74"
             style="fill:#231f20;fill-opacity:1;fill-rule:nonzero;stroke:none"
             d="m 219.871,227.984 h 8.274 l -5.868,-8.64 h -5.644 z m 12.414,-11.16 v -7.07 h -15.293 v -10.078 h 14.395 v -7.071 H 216.992 V 181.09 h 15.899 v -7.078 h -24.532 v 42.812 h 23.926" /><path
             id="path76"
             style="fill:#231f20;fill-opacity:1;fill-rule:nonzero;stroke:none"
             d="m 238.777,216.824 h 8.286 v -42.812 h -8.286 v 42.812" /><path
             id="path78"
             style="fill:#231f20;fill-opacity:1;fill-rule:nonzero;stroke:none"
             d="m 269.922,193.797 c -0.184,4.922 -0.781,7.676 -4.199,7.676 -3.301,0 -4.258,-3.418 -4.258,-6.418 v -1.258 z m -8.457,-4.914 v -2.578 c 0,-3.778 1.015,-7.5 4.082,-7.5 2.754,0 3.898,2.101 4.375,6.054 h 7.433 c -0.292,-7.488 -3.898,-11.687 -11.691,-11.687 -11.992,0 -12.469,9.238 -12.469,17.273 0,8.633 1.676,16.672 12.832,16.672 9.649,0 11.805,-6.484 11.805,-16.379 v -1.855 h -16.367" /><path
             id="path80"
             style="fill:#231f20;fill-opacity:1;fill-rule:nonzero;stroke:none"
             d="m 298.965,206.277 h 8.281 l -8.094,-32.265 h -9.601 l -8.328,32.265 h 8.632 l 4.618,-23.086 h 0.117 l 4.375,23.086" /><path
             id="path82"
             style="fill:#231f20;fill-opacity:1;fill-rule:nonzero;stroke:none"
             d="m 322.316,218.688 h 8.27 l -5.867,-8.633 h -5.649 z m 5.039,-24.891 c -0.187,4.922 -0.785,7.676 -4.203,7.676 -3.297,0 -4.254,-3.418 -4.254,-6.418 v -1.258 z m -8.457,-4.914 v -2.578 c 0,-3.778 1.012,-7.5 4.082,-7.5 2.754,0 3.895,2.101 4.375,6.054 h 7.43 c -0.293,-7.488 -3.894,-11.687 -11.687,-11.687 -11.993,0 -12.473,9.238 -12.473,17.273 0,8.633 1.68,16.672 12.832,16.672 9.648,0 11.809,-6.484 11.809,-16.379 v -1.855 h -16.368" /><path
             id="path84"
             style="fill:#231f20;fill-opacity:1;fill-rule:nonzero;stroke:none"
             d="m 372.539,193.797 c -0.184,4.922 -0.781,7.676 -4.199,7.676 -3.301,0 -4.258,-3.418 -4.258,-6.418 v -1.258 z m -8.457,-4.914 v -2.578 c 0,-3.778 1.016,-7.5 4.082,-7.5 2.754,0 3.899,2.101 4.375,6.054 h 7.434 c -0.293,-7.488 -3.899,-11.687 -11.692,-11.687 -11.992,0 -12.468,9.238 -12.468,17.273 0,8.633 1.675,16.672 12.832,16.672 9.648,0 11.804,-6.484 11.804,-16.379 v -1.855 h -16.367" /><path
             id="path86"
             style="fill:#231f20;fill-opacity:1;fill-rule:nonzero;stroke:none"
             d="m 386.289,206.277 h 7.922 v -3.781 h 0.113 c 1.742,3.176 4.739,4.621 8.227,4.621 5.152,0 8.211,-2.824 8.211,-9.179 v -23.926 h -8.282 v 22.246 c 0,3.242 -1.074,4.5 -3.535,4.5 -2.812,0 -4.375,-1.738 -4.375,-5.34 v -21.406 h -8.281 v 32.265" /><path
             id="path88"
             style="fill:#231f20;fill-opacity:1;fill-rule:nonzero;stroke:none"
             d="m 444.316,217.664 h 6.719 L 437.48,173.172 h -6.707 l 13.543,44.492" /><path
             id="path90"
             style="fill:#231f20;fill-opacity:1;fill-rule:nonzero;stroke:none"
             d="m 471.27,216.824 h 8.632 v -16.367 h 10.078 v 16.367 h 8.633 v -42.812 h -8.633 v 19.011 h -10.078 v -19.011 h -8.632 v 42.812" /><path
             id="path92"
             style="fill:#231f20;fill-opacity:1;fill-rule:nonzero;stroke:none"
             d="m 506.199,206.277 h 8.285 v -32.265 h -8.285 z m 0,11.036 h 8.285 v -7.083 h -8.285 v 7.083" /><path
             id="path94"
             style="fill:#231f20;fill-opacity:1;fill-rule:nonzero;stroke:none"
             d="m 533.555,180.73 c 3.476,0 4.504,3.778 4.504,9.227 0,7.863 -1.028,10.801 -4.329,10.801 -3.652,0 -4.316,-2.938 -4.316,-11.641 0,-4.433 0.664,-8.387 4.141,-8.387 z m 12.414,25.547 v -30.644 c 0,-8.516 -3.781,-12.656 -13.43,-12.656 -7.019,0 -10.976,3.113 -10.976,8.632 h 7.91 c 0,-1.074 0.488,-1.914 1.261,-2.453 0.782,-0.547 1.739,-0.898 2.762,-0.898 3.359,0 4.563,2.512 4.563,5.812 v 4.258 h -0.129 c -1.68,-2.394 -4.258,-3.957 -6.895,-3.957 -6.59,0 -9.89,4.492 -9.89,16.309 0,7.558 1.14,16.437 10.132,16.437 2.278,0 5.102,-1.086 6.653,-4.445 h 0.129 v 3.605 h 7.91" /><path
             id="path96"
             style="fill:#231f20;fill-opacity:1;fill-rule:nonzero;stroke:none"
             d="m 553.313,216.824 h 8.281 v -13.847 h 0.117 c 1.562,2.753 4.375,4.14 7.859,4.14 5.157,0 8.211,-2.824 8.211,-9.179 v -23.926 h -8.277 v 22.246 c 0,3.242 -1.074,4.5 -3.535,4.5 -2.817,0 -4.375,-1.738 -4.375,-5.34 v -21.406 h -8.281 v 42.812" /><path
             id="path98"
             style="fill:#231f20;fill-opacity:1;fill-rule:nonzero;stroke:none"
             d="m 601.016,206.277 h 8.281 v -32.265 h -8.281 z m 0,11.036 h 8.281 v -7.083 h -8.281 v 7.083" /><path
             id="path100"
             style="fill:#231f20;fill-opacity:1;fill-rule:nonzero;stroke:none"
             d="m 616.621,206.277 h 7.922 v -3.781 h 0.113 c 1.742,3.176 4.739,4.621 8.227,4.621 5.152,0 8.211,-2.824 8.211,-9.179 v -23.926 h -8.281 v 22.246 c 0,3.242 -1.075,4.5 -3.536,4.5 -2.812,0 -4.375,-1.738 -4.375,-5.34 v -21.406 h -8.281 v 32.265" /><path
             id="path102"
             style="fill:#231f20;fill-opacity:1;fill-rule:nonzero;stroke:none"
             d="M 169.992,153.633 V 79.9297 H 690.336 V 153.633 H 169.992" /><path
             id="path104"
             style="fill:#ffffff;fill-opacity:1;fill-rule:nonzero;stroke:none"
             d="m 216.992,110.387 v -1.258 c 0,-4.016 1.145,-6.594 5.703,-6.594 2.637,0 5.157,1.68 5.157,5.274 0,3.898 -1.985,5.343 -7.676,7.316 -7.676,2.645 -11.223,5.82 -11.223,12.957 0,8.332 5.102,12.59 13.266,12.59 7.676,0 13.25,-3.293 13.25,-11.516 v -1.191 h -8.281 c 0,4.015 -1.375,6.348 -4.676,6.348 -3.899,0 -4.914,-2.45 -4.914,-4.969 0,-2.637 0.781,-4.258 4.433,-5.821 l 6.66,-2.882 c 6.473,-2.813 8.157,-6.114 8.157,-11.328 0,-9.051 -5.52,-13.1333 -14.875,-13.1333 -9.778,0 -13.614,4.5583 -13.614,12.4683 v 1.739 h 8.633" /><path
             id="path106"
             style="fill:#ffffff;fill-opacity:1;fill-rule:nonzero;stroke:none"
             d="m 258.992,100.797 h -0.113 c -1.738,-3.1837 -4.738,-4.6173 -8.215,-4.6173 -5.156,0 -8.223,2.8203 -8.223,9.1793 v 23.926 h 8.282 v -22.258 c 0,-3.23 1.074,-4.492 3.535,-4.492 2.82,0 4.375,1.738 4.375,5.332 v 21.418 h 8.281 V 97.0195 h -7.922 v 3.7775" /><path
             id="path108"
             style="fill:#ffffff;fill-opacity:1;fill-rule:nonzero;stroke:none"
             d="m 289.484,117.645 c 0,3.125 -0.605,6.484 -3.722,6.484 -4.071,0 -4.735,-3.606 -4.735,-11.035 0,-7.981 0.719,-11.281 4.434,-11.281 2.762,0 4.023,2.343 4.023,7.558 h 7.911 c 0,-8.457 -3.536,-13.1913 -12.286,-13.1913 -8.285,0 -12.355,4.0113 -12.355,16.9723 0,13.25 5.449,16.973 13.066,16.973 7.618,0 11.575,-4.863 11.575,-12.48 h -7.911" /><path
             id="path110"
             style="fill:#ffffff;fill-opacity:1;fill-rule:nonzero;stroke:none"
             d="m 303.234,129.285 h 7.918 v -4.316 h 0.118 c 1.679,3.113 4.023,5.156 7.441,5.156 0.48,0 1.016,-0.07 1.492,-0.129 v -7.91 c -0.84,0.059 -1.734,0.117 -2.574,0.117 -2.883,0 -6.113,-1.492 -6.113,-5.82 V 97.0195 h -8.282 v 32.2655" /><path
             id="path112"
             style="fill:#ffffff;fill-opacity:1;fill-rule:nonzero;stroke:none"
             d="m 340.254,116.805 c -0.184,4.922 -0.781,7.675 -4.199,7.675 -3.301,0 -4.258,-3.417 -4.258,-6.417 v -1.258 z m -8.457,-4.914 v -2.578 c 0,-3.778 1.016,-7.5 4.082,-7.5 2.754,0 3.898,2.101 4.375,6.054 h 7.434 c -0.293,-7.488 -3.899,-11.6873 -11.692,-11.6873 -11.992,0 -12.469,9.2383 -12.469,17.2733 0,8.633 1.676,16.672 12.832,16.672 9.649,0 11.805,-6.484 11.805,-16.379 v -1.855 h -16.367" /><path
             id="path114"
             style="fill:#ffffff;fill-opacity:1;fill-rule:nonzero;stroke:none"
             d="m 360.07,107.574 v -1.082 c 0,-2.812 1.493,-4.679 4.317,-4.679 2.515,0 4.199,1.261 4.199,3.839 0,2.098 -1.391,3.055 -3,3.661 l -5.82,2.101 c -4.563,1.621 -6.895,4.434 -6.895,8.992 0,5.332 3.359,9.719 11.875,9.719 7.492,0 11.035,-3.359 11.035,-9.18 v -1.32 h -7.441 c 0,3.242 -0.957,4.855 -3.66,4.855 -2.09,0 -3.899,-1.191 -3.899,-3.476 0,-1.555 0.84,-2.883 3.606,-3.781 l 4.968,-1.68 c 5.223,-1.738 7.137,-4.375 7.137,-9.227 0,-6.7769 -5.039,-10.1363 -11.988,-10.1363 -9.301,0 -11.875,4.0823 -11.875,10.2543 v 1.14 h 7.441" /><path
             id="path116"
             style="fill:#ffffff;fill-opacity:1;fill-rule:nonzero;stroke:none"
             d="m 408.672,140.672 h 6.719 L 401.836,96.1797 h -6.707 l 13.543,44.4923" /><path
             id="path118"
             style="fill:#ffffff;fill-opacity:1;fill-rule:nonzero;stroke:none"
             d="m 442.578,110.387 v -1.258 c 0,-4.016 1.145,-6.594 5.703,-6.594 2.637,0 5.157,1.68 5.157,5.274 0,3.898 -1.985,5.343 -7.676,7.316 -7.676,2.645 -11.219,5.82 -11.219,12.957 0,8.332 5.098,12.59 13.262,12.59 7.675,0 13.25,-3.293 13.25,-11.516 v -1.191 h -8.282 c 0,4.015 -1.375,6.348 -4.675,6.348 -3.899,0 -4.914,-2.45 -4.914,-4.969 0,-2.637 0.781,-4.258 4.433,-5.821 l 6.66,-2.882 c 6.477,-2.813 8.157,-6.114 8.157,-11.328 0,-9.051 -5.52,-13.1333 -14.875,-13.1333 -9.778,0 -13.614,4.5583 -13.614,12.4683 v 1.739 h 8.633" /><path
             id="path120"
             style="fill:#ffffff;fill-opacity:1;fill-rule:nonzero;stroke:none"
             d="m 484.578,100.797 h -0.113 c -1.738,-3.1837 -4.738,-4.6173 -8.215,-4.6173 -5.156,0 -8.223,2.8203 -8.223,9.1793 v 23.926 h 8.282 v -22.258 c 0,-3.23 1.074,-4.492 3.535,-4.492 2.824,0 4.375,1.738 4.375,5.332 v 21.418 H 492.5 V 97.0195 h -7.922 v 3.7775" /><path
             id="path122"
             style="fill:#ffffff;fill-opacity:1;fill-rule:nonzero;stroke:none"
             d="m 511.289,103.738 c 3.477,0 4.504,3.778 4.504,9.227 0,7.863 -1.027,10.801 -4.328,10.801 -3.652,0 -4.317,-2.938 -4.317,-11.641 0,-4.434 0.665,-8.387 4.141,-8.387 z m 12.41,25.547 V 98.6406 c 0,-8.5156 -3.777,-12.6562 -13.426,-12.6562 -7.019,0 -10.976,3.1133 -10.976,8.6328 h 7.91 c 0,-1.0742 0.488,-1.9141 1.262,-2.4531 0.777,-0.5469 1.734,-0.8985 2.761,-0.8985 3.36,0 4.563,2.5117 4.563,5.8125 v 4.2579 h -0.129 c -1.68,-2.3946 -4.258,-3.9571 -6.894,-3.9571 -6.59,0 -9.891,4.4921 -9.891,16.3091 0,7.558 1.141,16.437 10.137,16.437 2.273,0 5.097,-1.086 6.648,-4.445 h 0.129 v 3.605 h 7.906" /><path
             id="path124"
             style="fill:#ffffff;fill-opacity:1;fill-rule:nonzero;stroke:none"
             d="m 546.105,113.152 c -1.144,-0.839 -2.519,-1.379 -3.546,-1.621 -3.348,-0.722 -4.676,-2.336 -4.676,-5.215 0,-2.461 0.906,-4.503 3.125,-4.503 2.215,0 5.097,1.445 5.097,4.98 z m -15.117,6.231 v 0.781 c 0,7.441 5.098,9.961 11.336,9.961 9.832,0 11.692,-4.082 11.692,-9.902 v -16.965 c 0,-2.996 0.183,-4.383 1.023,-6.2385 h -7.922 c -0.535,1.0157 -0.777,2.2735 -1.012,3.3595 h -0.128 c -1.914,-3.3595 -4.247,-4.1993 -8.211,-4.1993 -5.754,0 -7.793,4.9223 -7.793,9.2383 0,6.055 2.461,8.516 8.152,10.066 l 4.68,1.262 c 2.461,0.664 3.3,1.621 3.3,3.777 0,2.461 -1.085,3.957 -3.839,3.957 -2.52,0 -3.836,-1.679 -3.836,-4.191 v -0.906 h -7.442" /><path
             id="path126"
             style="fill:#ffffff;fill-opacity:1;fill-rule:nonzero;stroke:none"
             d="m 561.406,129.285 h 7.918 v -4.316 h 0.121 c 1.676,3.113 4.024,5.156 7.442,5.156 0.476,0 1.015,-0.07 1.492,-0.129 v -7.91 c -0.84,0.059 -1.738,0.117 -2.578,0.117 -2.879,0 -6.113,-1.492 -6.113,-5.82 V 97.0195 h -8.282 v 32.2655" /><path
             id="path128"
             style="fill:#ffffff;fill-opacity:1;fill-rule:nonzero;stroke:none"
             d="m 588.953,107.574 v -1.082 c 0,-2.812 1.496,-4.679 4.32,-4.679 2.52,0 4.2,1.261 4.2,3.839 0,2.098 -1.387,3.055 -3,3.661 l -5.821,2.101 c -4.558,1.621 -6.894,4.434 -6.894,8.992 0,5.332 3.359,9.719 11.875,9.719 7.488,0 11.035,-3.359 11.035,-9.18 v -1.32 h -7.441 c 0,3.242 -0.957,4.855 -3.661,4.855 -2.089,0 -3.898,-1.191 -3.898,-3.476 0,-1.555 0.84,-2.883 3.605,-3.781 l 4.969,-1.68 c 5.227,-1.738 7.141,-4.375 7.141,-9.227 0,-6.7769 -5.039,-10.1363 -11.992,-10.1363 -9.297,0 -11.875,4.0823 -11.875,10.2543 v 1.14 h 7.437" /><path
             id="path130"
             style="fill:#231f20;fill-opacity:1;fill-rule:nonzero;stroke:none"
             d="M 130.285,145.07 C 118.762,125.438 93.4766,118.852 73.8633,130.383 54.2266,141.906 47.6406,167.211 59.168,186.848 70.6953,206.461 95.7852,213 115.637,201.52 c 19.851,-11.454 26.199,-36.832 14.648,-56.45 z m -7.879,68.344 C 96.2227,228.797 62.8477,220.09 47.4414,193.902 33.9727,170.66 39.1172,141.605 58.6797,124.766 L 36.6563,87.7539 C 34.4648,84.0156 35.832,79.2031 39.6602,77.1758 l 5.2851,-2.7969 c 3.6445,-1.9297 8.1602,-0.6094 10.1875,2.9805 l 20.8945,37.2036 c 24.4847,-8.813 52.3517,0.835 65.8907,23.886 15.359,26.18 6.691,59.586 -19.512,74.965" /></g></g></g></g></svg>