<?xml version="1.0" encoding="UTF-8" standalone="no"?>
<svg
   xmlns:dc="http://purl.org/dc/elements/1.1/"
   xmlns:cc="http://creativecommons.org/ns#"
   xmlns:rdf="http://www.w3.org/1999/02/22-rdf-syntax-ns#"
   xmlns:svg="http://www.w3.org/2000/svg"
   xmlns="http://www.w3.org/2000/svg"
   viewBox="0 0 51.779732 77.481724"
   height="77.481728"
   width="51.779732"
   xml:space="preserve"
   id="svg2"
   version="1.1"><metadata
     id="metadata8"><rdf:RDF><cc:Work
         rdf:about=""><dc:format>image/svg+xml</dc:format><dc:type
           rdf:resource="http://purl.org/dc/dcmitype/StillImage" /></cc:Work></rdf:RDF></metadata><defs
     id="defs6"><clipPath
       id="clipPath20"
       clipPathUnits="userSpaceOnUse"><path
         id="path18"
         d="M 0,0 H 388.348 V 581.113 H 0 Z" /></clipPath></defs><g
     transform="matrix(1.3333333,0,0,-1.3333333,0,77.481731)"
     id="g10"><g
       transform="scale(0.1)"
       id="g12"><g
         id="g14"><g
           clip-path="url(#clipPath20)"
           id="g16"><path
             id="path22"
             style="fill:#ffffff;fill-opacity:1;fill-rule:nonzero;stroke:none"
             d="M 2.5,2.5 V 578.613 H 385.844 V 2.5 H 2.5" /><path
             id="path24"
             style="fill:#231f20;fill-opacity:1;fill-rule:nonzero;stroke:none"
             d="M 388.348,581.113 H 0 V 0 h 388.348 z m -5,-5 V 5 H 5 v 571.113 h 378.348" /><path
             id="path26"
             style="fill:#231f20;fill-opacity:1;fill-rule:nonzero;stroke:none"
             d="m 150.176,568.457 h 8.269 l -5.867,-8.644 h -5.644 z m 12.41,-11.164 v -7.07 h -15.293 v -10.078 h 14.395 v -7.071 h -14.395 v -11.511 h 15.898 V 514.48 H 138.66 v 42.813 h 23.926" /><path
             id="path28"
             style="fill:#231f20;fill-opacity:1;fill-rule:nonzero;stroke:none"
             d="m 169.082,557.293 h 8.281 V 514.48 h -8.281 v 42.813" /><path
             id="path30"
             style="fill:#231f20;fill-opacity:1;fill-rule:nonzero;stroke:none"
             d="m 200.215,534.266 c -0.188,4.922 -0.781,7.675 -4.199,7.675 -3.301,0 -4.258,-3.418 -4.258,-6.414 v -1.261 z m -8.457,-4.911 v -2.578 c 0,-3.781 1.015,-7.5 4.082,-7.5 2.754,0 3.894,2.098 4.375,6.055 h 7.43 c -0.293,-7.492 -3.895,-11.691 -11.688,-11.691 -11.992,0 -12.473,9.238 -12.473,17.277 0,8.633 1.68,16.668 12.832,16.668 9.649,0 11.809,-6.484 11.809,-16.375 v -1.856 h -16.367" /><path
             id="path32"
             style="fill:#231f20;fill-opacity:1;fill-rule:nonzero;stroke:none"
             d="m 229.246,546.746 h 8.281 l -8.093,-32.266 h -9.602 l -8.328,32.266 h 8.633 l 4.617,-23.086 h 0.117 l 4.375,23.086" /><path
             id="path34"
             style="fill:#231f20;fill-opacity:1;fill-rule:nonzero;stroke:none"
             d="m 252.598,559.16 h 8.269 L 255,550.527 h -5.645 z m 5.039,-24.894 c -0.188,4.922 -0.782,7.675 -4.199,7.675 -3.301,0 -4.258,-3.418 -4.258,-6.414 v -1.261 z m -8.457,-4.911 v -2.578 c 0,-3.781 1.015,-7.5 4.082,-7.5 2.754,0 3.894,2.098 4.375,6.055 h 7.429 c -0.293,-7.492 -3.894,-11.691 -11.687,-11.691 -11.992,0 -12.473,9.238 -12.473,17.277 0,8.633 1.68,16.668 12.832,16.668 9.649,0 11.809,-6.484 11.809,-16.375 v -1.856 H 249.18" /><path
             id="path36"
             style="fill:#231f20;fill-opacity:1;fill-rule:nonzero;stroke:none"
             d="m 302.813,534.266 c -0.188,4.922 -0.782,7.675 -4.2,7.675 -3.3,0 -4.258,-3.418 -4.258,-6.414 v -1.261 z m -8.458,-4.911 v -2.578 c 0,-3.781 1.016,-7.5 4.083,-7.5 2.753,0 3.894,2.098 4.375,6.055 h 7.429 c -0.293,-7.492 -3.894,-11.691 -11.687,-11.691 -11.992,0 -12.473,9.238 -12.473,17.277 0,8.633 1.68,16.668 12.832,16.668 9.649,0 11.809,-6.484 11.809,-16.375 v -1.856 h -16.368" /><path
             id="path38"
             style="fill:#231f20;fill-opacity:1;fill-rule:nonzero;stroke:none"
             d="m 316.551,546.746 h 7.922 v -3.777 h 0.117 c 1.738,3.172 4.734,4.617 8.223,4.617 5.156,0 8.21,-2.82 8.21,-9.18 V 514.48 h -8.281 v 22.247 c 0,3.242 -1.074,4.503 -3.535,4.503 -2.812,0 -4.375,-1.738 -4.375,-5.343 V 514.48 h -8.281 v 32.266" /><path
             id="path40"
             style="fill:#231f20;fill-opacity:1;fill-rule:nonzero;stroke:none"
             d="m 138.66,497.293 h 8.633 v -16.367 h 10.078 v 16.367 h 8.633 V 454.48 h -8.633 v 19.016 H 147.293 V 454.48 h -8.633 v 42.813" /><path
             id="path42"
             style="fill:#231f20;fill-opacity:1;fill-rule:nonzero;stroke:none"
             d="m 173.582,486.746 h 8.281 V 454.48 h -8.281 z m 0,11.035 h 8.281 v -7.078 h -8.281 v 7.078" /><path
             id="path44"
             style="fill:#231f20;fill-opacity:1;fill-rule:nonzero;stroke:none"
             d="m 200.938,461.199 c 3.476,0 4.5,3.781 4.5,9.231 0,7.859 -1.024,10.8 -4.325,10.8 -3.652,0 -4.316,-2.941 -4.316,-11.64 0,-4.434 0.664,-8.391 4.141,-8.391 z m 12.41,25.547 v -30.644 c 0,-8.516 -3.778,-12.657 -13.426,-12.657 -7.024,0 -10.977,3.118 -10.977,8.633 h 7.91 c 0,-1.074 0.489,-1.914 1.258,-2.449 0.782,-0.547 1.75,-0.899 2.766,-0.899 3.359,0 4.559,2.508 4.559,5.809 v 4.258 h -0.125 c -1.68,-2.391 -4.258,-3.953 -6.895,-3.953 -6.594,0 -9.895,4.492 -9.895,16.308 0,7.559 1.145,16.434 10.137,16.434 2.278,0 5.098,-1.082 6.653,-4.441 h 0.125 v 3.601 h 7.91" /><path
             id="path46"
             style="fill:#231f20;fill-opacity:1;fill-rule:nonzero;stroke:none"
             d="m 220.672,497.293 h 8.281 v -13.848 h 0.117 c 1.563,2.754 4.375,4.141 7.864,4.141 5.156,0 8.211,-2.82 8.211,-9.18 V 454.48 h -8.282 v 22.247 c 0,3.242 -1.074,4.503 -3.535,4.503 -2.812,0 -4.375,-1.738 -4.375,-5.343 V 454.48 h -8.281 v 42.813" /><path
             id="path48"
             style="fill:#231f20;fill-opacity:1;fill-rule:nonzero;stroke:none"
             d="m 268.379,486.746 h 8.281 V 454.48 h -8.281 z m 0,11.035 h 8.281 v -7.078 h -8.281 v 7.078" /><path
             id="path50"
             style="fill:#231f20;fill-opacity:1;fill-rule:nonzero;stroke:none"
             d="m 283.973,486.746 h 7.922 v -3.777 h 0.117 c 1.738,3.172 4.734,4.617 8.222,4.617 5.157,0 8.211,-2.82 8.211,-9.18 V 454.48 h -8.281 v 22.247 c 0,3.242 -1.074,4.503 -3.535,4.503 -2.813,0 -4.375,-1.738 -4.375,-5.343 V 454.48 h -8.281 v 32.266" /><path
             id="path52"
             style="fill:#231f20;fill-opacity:1;fill-rule:nonzero;stroke:none"
             d="m 62.0195,115.668 c 0,4.504 -1.6211,7.617 -6.6601,7.617 -4.4336,0 -7.0703,-2.39 -7.0703,-6.953 0,-12.051 20.207,-4.852 20.207,-20.5078 0,-9.8906 -7.2578,-12.7148 -13.3125,-12.7148 -10.0195,0 -12.957,5.1562 -12.957,14.2695 h 5.2812 c 0,-4.7969 0.293,-9.9531 8.0391,-9.9531 4.1875,0 7.4297,3 7.4297,7.5586 0,12.1096 -20.2032,5.0976 -20.2032,20.8126 0,3.953 1.6797,11.805 12.5274,11.805 8.1562,0 11.875,-4.071 11.9922,-11.934 h -5.2735" /><path
             id="path54"
             style="fill:#231f20;fill-opacity:1;fill-rule:nonzero;stroke:none"
             d="m 88.418,101.461 c -1.8555,-1.9844 -6.2891,-2.4024 -8.5742,-3.7813 -1.6211,-1.0156 -2.461,-2.2734 -2.461,-5.0977 0,-3.2304 1.1406,-5.5156 4.5586,-5.5156 3.3008,0 6.4766,2.8203 6.4766,6.1211 z m -15.5274,4.922 c 0,7.312 3.1133,10.547 10.7891,10.547 9.7773,0 9.7773,-5.871 9.7773,-9.231 V 89.7695 c 0,-1.3164 0,-2.5781 1.5625,-2.5781 0.6524,0 0.9571,0.1172 1.1993,0.293 v -3.5938 c -0.3594,-0.0586 -1.6797,-0.3008 -2.9375,-0.3008 -1.9258,0 -4.3165,0 -4.5625,4.1407 h -0.1172 c -1.6211,-2.8828 -4.7344,-4.6211 -7.7344,-4.6211 -5.9961,0 -8.7578,3.5937 -8.7578,9.3554 0,4.504 1.9219,7.6172 6.0547,8.8792 l 6.7773,2.039 c 3.6602,1.133 3.6602,2.16 3.6602,4.855 0,2.996 -1.7969,4.735 -5.1563,4.735 -5.5156,0 -5.5156,-5.157 -5.5156,-6.297 v -0.293 h -5.0391" /><path
             id="path56"
             style="fill:#231f20;fill-opacity:1;fill-rule:nonzero;stroke:none"
             d="m 100.313,116.09 h 4.792 v -3.77 h 0.118 c 1.32,2.926 4.679,4.61 7.804,4.61 8.446,0 8.446,-6.418 8.446,-10.196 V 83.9492 h -5.028 v 22.1878 c 0,2.461 -0.187,6.476 -4.746,6.476 -2.695,0 -6.347,-1.797 -6.347,-6.476 V 83.9492 h -5.039 V 116.09" /><path
             id="path58"
             style="fill:#231f20;fill-opacity:1;fill-rule:nonzero;stroke:none"
             d="m 129.578,125.445 h 5.039 v -9.355 h 5.578 v -3.957 h -5.578 V 91.5078 c 0,-2.5781 0.664,-3.6015 3.301,-3.6015 1.074,0 1.68,0.125 2.219,0.1835 v -4.1406 c -0.664,-0.1172 -1.985,-0.3594 -4.082,-0.3594 -5.215,0 -6.477,2.1563 -6.477,6.3555 v 22.1877 h -4.676 v 3.957 h 4.676 v 9.355" /><path
             id="path60"
             style="fill:#231f20;fill-opacity:1;fill-rule:nonzero;stroke:none"
             d="m 154.844,129.047 h 5.879 l -6.477,-8.516 h -3.601 z m 4.617,-25.664 v 1.738 c 0,3.594 -1.141,7.852 -5.574,7.852 -5.285,0 -5.879,-6.477 -5.879,-8.399 v -1.191 z m -11.629,-3.965 c 0,-4.9102 0,-12.3516 6.172,-12.3516 4.793,0 5.457,5.0391 5.457,7.4414 h 5.039 c 0,-3.418 -2.039,-11.3984 -10.801,-11.3984 -7.851,0 -11.152,5.4609 -11.152,16.4961 0,8.0355 1.562,17.3245 11.457,17.3245 9.832,0 10.73,-8.575 10.73,-15.469 v -2.043 h -16.902" /><path
             id="path62"
             style="fill:#231f20;fill-opacity:1;fill-rule:nonzero;stroke:none"
             d="m 211.055,98.6367 c -0.489,-8.0937 -3.664,-15.5273 -13.02,-15.5273 -12.168,0 -13.789,11.457 -13.789,22.2456 0,10.801 1.973,22.247 13.789,22.247 8.762,0 12.414,-4.911 12.656,-13.309 h -5.515 c -0.117,4.863 -1.68,8.992 -7.141,8.992 -7.312,0 -8.269,-8.039 -8.269,-17.93 0,-9.8902 0.957,-17.9292 8.269,-17.9292 6.418,0 7.317,5.9961 7.5,11.2109 h 5.52" /><path
             id="path64"
             style="fill:#231f20;fill-opacity:1;fill-rule:nonzero;stroke:none"
             d="m 230.555,101.461 c -1.856,-1.9844 -6.289,-2.4024 -8.575,-3.7813 -1.621,-1.0156 -2.46,-2.2734 -2.46,-5.0977 0,-3.2304 1.144,-5.5156 4.562,-5.5156 3.301,0 6.473,2.8203 6.473,6.1211 z m -15.528,4.922 c 0,7.312 3.118,10.547 10.793,10.547 9.774,0 9.774,-5.871 9.774,-9.231 V 89.7695 c 0,-1.3164 0,-2.5781 1.562,-2.5781 0.657,0 0.957,0.1172 1.203,0.293 v -3.5938 c -0.363,-0.0586 -1.679,-0.3008 -2.941,-0.3008 -1.922,0 -4.316,0 -4.559,4.1407 h -0.117 c -1.621,-2.8828 -4.738,-4.6211 -7.734,-4.6211 -5.996,0 -8.762,3.5937 -8.762,9.3554 0,4.504 1.926,7.6172 6.055,8.8792 l 6.777,2.039 c 3.664,1.133 3.664,2.16 3.664,4.855 0,2.996 -1.797,4.735 -5.156,4.735 -5.52,0 -5.52,-5.157 -5.52,-6.297 v -0.293 h -5.039" /><path
             id="path66"
             style="fill:#231f20;fill-opacity:1;fill-rule:nonzero;stroke:none"
             d="m 242.449,116.09 h 4.797 v -3.77 h 0.117 c 1.317,2.926 4.676,4.61 7.801,4.61 8.449,0 8.449,-6.418 8.449,-10.196 V 83.9492 h -5.031 v 22.1878 c 0,2.461 -0.184,6.476 -4.746,6.476 -2.695,0 -6.348,-1.797 -6.348,-6.476 V 83.9492 h -5.039 V 116.09" /><path
             id="path68"
             style="fill:#231f20;fill-opacity:1;fill-rule:nonzero;stroke:none"
             d="m 284.969,101.461 c -1.856,-1.9844 -6.289,-2.4024 -8.574,-3.7813 -1.622,-1.0156 -2.461,-2.2734 -2.461,-5.0977 0,-3.2304 1.144,-5.5156 4.562,-5.5156 3.301,0 6.473,2.8203 6.473,6.1211 z m -15.528,4.922 c 0,7.312 3.118,10.547 10.793,10.547 9.774,0 9.774,-5.871 9.774,-9.231 V 89.7695 c 0,-1.3164 0,-2.5781 1.562,-2.5781 0.657,0 0.957,0.1172 1.203,0.293 v -3.5938 c -0.363,-0.0586 -1.679,-0.3008 -2.941,-0.3008 -1.922,0 -4.316,0 -4.559,4.1407 h -0.117 c -1.621,-2.8828 -4.738,-4.6211 -7.734,-4.6211 -5.996,0 -8.762,3.5937 -8.762,9.3554 0,4.504 1.926,7.6172 6.055,8.8792 l 6.777,2.039 c 3.664,1.133 3.664,2.16 3.664,4.855 0,2.996 -1.797,4.735 -5.156,4.735 -5.52,0 -5.52,-5.157 -5.52,-6.297 v -0.293 h -5.039" /><path
             id="path70"
             style="fill:#231f20;fill-opacity:1;fill-rule:nonzero;stroke:none"
             d="m 306.816,87.4258 c 5.575,0 6.473,5.2851 6.473,12.5972 0,6.231 -1.074,12.59 -6.473,12.59 -4.679,0 -5.878,-4.914 -5.878,-12.59 0,-7.6753 1.199,-12.5972 5.878,-12.5972 z m 11.211,-3.4766 h -4.797 v 3.9571 h -0.117 c -0.664,-2.3946 -3.476,-4.7969 -6.953,-4.7969 -7.617,0 -10.496,6.7773 -10.496,16.9136 0,6.711 1.074,16.907 10.137,16.907 2.871,0 5.937,-1.739 7.07,-4.492 h 0.125 v 14.324 h 5.031 V 83.9492" /><path
             id="path72"
             style="fill:#231f20;fill-opacity:1;fill-rule:nonzero;stroke:none"
             d="m 339.395,101.461 c -1.856,-1.9844 -6.29,-2.4024 -8.575,-3.7813 -1.621,-1.0156 -2.461,-2.2734 -2.461,-5.0977 0,-3.2304 1.141,-5.5156 4.559,-5.5156 3.301,0 6.477,2.8203 6.477,6.1211 z m -15.528,4.922 c 0,7.312 3.113,10.547 10.789,10.547 9.778,0 9.778,-5.871 9.778,-9.231 V 89.7695 c 0,-1.3164 0,-2.5781 1.562,-2.5781 0.652,0 0.957,0.1172 1.199,0.293 v -3.5938 c -0.359,-0.0586 -1.679,-0.3008 -2.937,-0.3008 -1.926,0 -4.317,0 -4.563,4.1407 h -0.117 c -1.621,-2.8828 -4.734,-4.6211 -7.734,-4.6211 -5.996,0 -8.758,3.5937 -8.758,9.3554 0,4.504 1.922,7.6172 6.055,8.8792 l 6.777,2.039 c 3.66,1.133 3.66,2.16 3.66,4.855 0,2.996 -1.797,4.735 -5.156,4.735 -5.516,0 -5.516,-5.157 -5.516,-6.297 v -0.293 h -5.039" /><path
             id="path74"
             style="fill:#231f20;fill-opacity:1;fill-rule:nonzero;stroke:none"
             d="m 61.8633,23.9492 h -5.2735 v 20.625 H 41.9023 v -20.625 h -5.2812 v 42.8125 h 5.2812 V 49.2539 h 14.6875 v 17.5078 h 5.2735 V 23.9492" /><path
             id="path76"
             style="fill:#231f20;fill-opacity:1;fill-rule:nonzero;stroke:none"
             d="m 84.4922,43.3828 v 1.7383 c 0,3.5937 -1.1445,7.8516 -5.5781,7.8516 -5.2813,0 -5.8789,-6.4766 -5.8789,-8.3985 V 43.3828 Z M 72.8594,39.418 c 0,-4.9102 0,-12.3516 6.1719,-12.3516 4.7968,0 5.4609,5.0391 5.4609,7.4414 h 5.0391 c 0,-3.418 -2.043,-11.3984 -10.8008,-11.3984 -7.8516,0 -11.1524,5.4609 -11.1524,16.4961 0,8.0351 1.5625,17.3242 11.4532,17.3242 9.8359,0 10.7343,-8.5742 10.7343,-15.4688 V 39.418 H 72.8594" /><path
             id="path78"
             style="fill:#231f20;fill-opacity:1;fill-rule:nonzero;stroke:none"
             d="m 110.047,41.4609 c -1.856,-1.9843 -6.289,-2.4023 -8.574,-3.7812 -1.6214,-1.0156 -2.4613,-2.2734 -2.4613,-5.0977 0,-3.2304 1.1443,-5.5156 4.5623,-5.5156 3.301,0 6.473,2.8203 6.473,6.1211 z m -15.5275,4.9219 c 0,7.3125 3.1172,10.5469 10.7935,10.5469 9.773,0 9.773,-5.8711 9.773,-9.2305 V 29.7695 c 0,-1.3164 0,-2.5781 1.562,-2.5781 0.657,0 0.957,0.1172 1.204,0.293 v -3.5938 c -0.364,-0.0586 -1.68,-0.3008 -2.942,-0.3008 -1.922,0 -4.316,0 -4.558,4.1407 h -0.118 c -1.621,-2.8828 -4.738,-4.6211 -7.734,-4.6211 -5.9961,0 -8.7617,3.5937 -8.7617,9.3554 0,4.504 1.9258,7.6172 6.0547,8.879 l 6.777,2.039 c 3.664,1.1328 3.664,2.1602 3.664,4.8555 0,2.9961 -1.796,4.7344 -5.156,4.7344 -5.5194,0 -5.5194,-5.1563 -5.5194,-6.2969 v -0.293 h -5.0391" /><path
             id="path80"
             style="fill:#231f20;fill-opacity:1;fill-rule:nonzero;stroke:none"
             d="m 122.234,66.7617 h 5.039 V 23.9492 h -5.039 v 42.8125" /><path
             id="path82"
             style="fill:#231f20;fill-opacity:1;fill-rule:nonzero;stroke:none"
             d="m 135.672,65.4453 h 5.039 v -9.3555 h 5.578 v -3.957 h -5.578 v -20.625 c 0,-2.5781 0.664,-3.6015 3.301,-3.6015 1.074,0 1.679,0.125 2.218,0.1835 v -4.1406 c -0.664,-0.1172 -1.984,-0.3594 -4.082,-0.3594 -5.214,0 -6.476,2.1563 -6.476,6.3555 v 22.1875 h -4.676 v 3.957 h 4.676 v 9.3555" /><path
             id="path84"
             style="fill:#231f20;fill-opacity:1;fill-rule:nonzero;stroke:none"
             d="m 149.727,66.7617 h 5.039 V 52.4375 h 0.117 c 1.316,2.6367 4.851,4.4922 7.734,4.4922 8.27,0 8.27,-6.418 8.27,-10.1953 V 23.9492 h -5.028 v 22.1875 c 0,2.461 -0.187,6.4766 -4.746,6.4766 -2.695,0 -6.347,-1.7969 -6.347,-6.4766 V 23.9492 h -5.039 v 42.8125" /><path
             id="path86"
             style="fill:#231f20;fill-opacity:1;fill-rule:nonzero;stroke:none"
             d="m 218.289,38.6367 c -0.488,-8.0937 -3.66,-15.5273 -13.016,-15.5273 -12.168,0 -13.789,11.457 -13.789,22.2461 0,10.8008 1.973,22.2461 13.789,22.2461 8.758,0 12.411,-4.9102 12.657,-13.3086 h -5.52 c -0.117,4.8633 -1.68,8.9922 -7.137,8.9922 -7.316,0 -8.273,-8.0391 -8.273,-17.9297 0,-9.8907 0.957,-17.9297 8.273,-17.9297 6.415,0 7.313,5.9961 7.5,11.2109 h 5.516" /><path
             id="path88"
             style="fill:#231f20;fill-opacity:1;fill-rule:nonzero;stroke:none"
             d="m 237.781,41.4609 c -1.855,-1.9843 -6.289,-2.4023 -8.574,-3.7812 -1.621,-1.0156 -2.461,-2.2734 -2.461,-5.0977 0,-3.2304 1.145,-5.5156 4.563,-5.5156 3.3,0 6.472,2.8203 6.472,6.1211 z m -15.527,4.9219 c 0,7.3125 3.117,10.5469 10.793,10.5469 9.773,0 9.773,-5.8711 9.773,-9.2305 V 29.7695 c 0,-1.3164 0,-2.5781 1.563,-2.5781 0.656,0 0.957,0.1172 1.203,0.293 v -3.5938 c -0.363,-0.0586 -1.68,-0.3008 -2.941,-0.3008 -1.922,0 -4.317,0 -4.559,4.1407 h -0.117 c -1.621,-2.8828 -4.739,-4.6211 -7.735,-4.6211 -5.996,0 -8.761,3.5937 -8.761,9.3554 0,4.504 1.925,7.6172 6.054,8.879 l 6.778,2.039 c 3.664,1.1328 3.664,2.1602 3.664,4.8555 0,2.9961 -1.797,4.7344 -5.156,4.7344 -5.52,0 -5.52,-5.1563 -5.52,-6.2969 v -0.293 h -5.039" /><path
             id="path90"
             style="fill:#231f20;fill-opacity:1;fill-rule:nonzero;stroke:none"
             d="m 249.676,56.0898 h 4.797 v -3.7695 h 0.117 c 1.316,2.9258 4.676,4.6094 7.801,4.6094 8.449,0 8.449,-6.418 8.449,-10.1953 V 23.9492 h -5.031 v 22.1875 c 0,2.461 -0.184,6.4766 -4.746,6.4766 -2.696,0 -6.348,-1.7969 -6.348,-6.4766 V 23.9492 h -5.039 v 32.1406" /><path
             id="path92"
             style="fill:#231f20;fill-opacity:1;fill-rule:nonzero;stroke:none"
             d="m 292.207,41.4609 c -1.855,-1.9843 -6.289,-2.4023 -8.574,-3.7812 -1.621,-1.0156 -2.461,-2.2734 -2.461,-5.0977 0,-3.2304 1.141,-5.5156 4.558,-5.5156 3.301,0 6.477,2.8203 6.477,6.1211 z m -15.527,4.9219 c 0,7.3125 3.113,10.5469 10.789,10.5469 9.777,0 9.777,-5.8711 9.777,-9.2305 V 29.7695 c 0,-1.3164 0,-2.5781 1.563,-2.5781 0.652,0 0.957,0.1172 1.199,0.293 v -3.5938 c -0.36,-0.0586 -1.68,-0.3008 -2.938,-0.3008 -1.925,0 -4.316,0 -4.562,4.1407 h -0.117 c -1.621,-2.8828 -4.735,-4.6211 -7.735,-4.6211 -5.996,0 -8.758,3.5937 -8.758,9.3554 0,4.504 1.922,7.6172 6.055,8.879 l 6.777,2.039 c 3.661,1.1328 3.661,2.1602 3.661,4.8555 0,2.9961 -1.797,4.7344 -5.157,4.7344 -5.515,0 -5.515,-5.1563 -5.515,-6.2969 v -0.293 h -5.039" /><path
             id="path94"
             style="fill:#231f20;fill-opacity:1;fill-rule:nonzero;stroke:none"
             d="m 314.051,27.4258 c 5.578,0 6.476,5.2851 6.476,12.5976 0,6.2305 -1.074,12.5899 -6.476,12.5899 -4.676,0 -5.879,-4.9141 -5.879,-12.5899 0,-7.6757 1.203,-12.5976 5.879,-12.5976 z m 11.211,-3.4766 h -4.793 v 3.9571 h -0.117 c -0.664,-2.3946 -3.477,-4.7969 -6.954,-4.7969 -7.617,0 -10.5,6.7773 -10.5,16.914 0,6.711 1.075,16.9063 10.137,16.9063 2.871,0 5.938,-1.7383 7.07,-4.4922 h 0.129 v 14.3242 h 5.028 V 23.9492" /><path
             id="path96"
             style="fill:#231f20;fill-opacity:1;fill-rule:nonzero;stroke:none"
             d="m 346.621,41.4609 c -1.855,-1.9843 -6.289,-2.4023 -8.574,-3.7812 -1.621,-1.0156 -2.461,-2.2734 -2.461,-5.0977 0,-3.2304 1.141,-5.5156 4.559,-5.5156 3.3,0 6.476,2.8203 6.476,6.1211 z m -15.527,4.9219 c 0,7.3125 3.113,10.5469 10.789,10.5469 9.777,0 9.777,-5.8711 9.777,-9.2305 V 29.7695 c 0,-1.3164 0,-2.5781 1.563,-2.5781 0.652,0 0.957,0.1172 1.199,0.293 v -3.5938 c -0.359,-0.0586 -1.68,-0.3008 -2.938,-0.3008 -1.925,0 -4.316,0 -4.562,4.1407 h -0.117 c -1.621,-2.8828 -4.735,-4.6211 -7.735,-4.6211 -5.996,0 -8.757,3.5937 -8.757,9.3554 0,4.504 1.921,7.6172 6.054,8.879 l 6.778,2.039 c 3.66,1.1328 3.66,2.1602 3.66,4.8555 0,2.9961 -1.797,4.7344 -5.157,4.7344 -5.515,0 -5.515,-5.1563 -5.515,-6.2969 v -0.293 h -5.039" /><path
             id="path98"
             style="fill:#231f20;fill-opacity:1;fill-rule:nonzero;stroke:none"
             d="M 71.3594,431.668 V 292.77 H 367.465 V 431.668 H 71.3594" /><path
             id="path100"
             style="fill:#ffffff;fill-opacity:1;fill-rule:nonzero;stroke:none"
             d="m 131.195,402.523 c 0,3.176 -1.445,7.188 -4.922,7.188 -4.199,0 -5.878,-4.316 -5.878,-14.988 0,-10.313 0.968,-16.789 5.937,-16.789 2.039,0 5.344,2.218 5.344,6.836 v 4.375 h -5.703 v 6.359 h 13.972 v -23.086 h -6.355 v 3.953 h -0.117 c -2.043,-3.359 -4.981,-4.793 -8.996,-4.793 -10.614,0 -12.715,7.918 -12.715,22.723 0,14.394 3.359,21.769 14.394,21.769 9.473,0 13.313,-4.855 13.313,-13.547 h -8.274" /><path
             id="path102"
             style="fill:#ffffff;fill-opacity:1;fill-rule:nonzero;stroke:none"
             d="m 146.801,404.684 h 7.922 v -4.317 h 0.117 c 1.68,3.113 4.023,5.156 7.441,5.156 0.477,0 1.016,-0.07 1.492,-0.128 v -7.911 c -0.839,0.059 -1.738,0.118 -2.578,0.118 -2.879,0 -6.113,-1.493 -6.113,-5.821 v -19.363 h -8.281 v 32.266" /><path
             id="path104"
             style="fill:#ffffff;fill-opacity:1;fill-rule:nonzero;stroke:none"
             d="m 183.336,388.551 c -1.145,-0.84 -2.52,-1.379 -3.547,-1.621 -3.348,-0.727 -4.668,-2.336 -4.668,-5.215 0,-2.461 0.899,-4.504 3.117,-4.504 2.215,0 5.098,1.445 5.098,4.98 z m -15.117,6.23 v 0.782 c 0,7.441 5.097,9.96 11.336,9.96 9.836,0 11.691,-4.082 11.691,-9.902 v -16.965 c 0,-2.996 0.184,-4.383 1.024,-6.238 h -7.918 c -0.539,1.016 -0.782,2.273 -1.016,3.359 h -0.129 c -1.914,-3.359 -4.258,-4.199 -8.211,-4.199 -5.754,0 -7.793,4.918 -7.793,9.238 0,6.055 2.461,8.512 8.152,10.067 l 4.68,1.262 c 2.461,0.664 3.301,1.621 3.301,3.777 0,2.461 -1.086,3.957 -3.84,3.957 -2.519,0 -3.836,-1.68 -3.836,-4.191 v -0.907 h -7.441" /><path
             id="path106"
             style="fill:#ffffff;fill-opacity:1;fill-rule:nonzero;stroke:none"
             d="m 204.703,382.973 v -1.082 c 0,-2.813 1.496,-4.68 4.309,-4.68 2.519,0 4.199,1.262 4.199,3.84 0,2.097 -1.387,3.054 -2.988,3.66 l -5.825,2.102 c -4.558,1.621 -6.894,4.433 -6.894,8.992 0,5.332 3.359,9.718 11.879,9.718 7.48,0 11.035,-3.359 11.035,-9.179 v -1.321 h -7.441 c 0,3.243 -0.957,4.856 -3.653,4.856 -2.109,0 -3.91,-1.191 -3.91,-3.477 0,-1.554 0.844,-2.871 3.598,-3.781 l 4.98,-1.68 c 5.215,-1.738 7.129,-4.375 7.129,-9.226 0,-6.777 -5.039,-10.137 -11.992,-10.137 -9.289,0 -11.867,4.082 -11.867,10.25 v 1.145 h 7.441" /><path
             id="path108"
             style="fill:#ffffff;fill-opacity:1;fill-rule:nonzero;stroke:none"
             d="m 248.738,382.973 v -1.082 c 0,-2.813 1.504,-4.68 4.317,-4.68 2.519,0 4.199,1.262 4.199,3.84 0,2.097 -1.387,3.054 -2.988,3.66 l -5.821,2.102 c -4.57,1.621 -6.894,4.433 -6.894,8.992 0,5.332 3.359,9.718 11.875,9.718 7.48,0 11.035,-3.359 11.035,-9.179 v -1.321 h -7.441 c 0,3.243 -0.957,4.856 -3.653,4.856 -2.109,0 -3.906,-1.191 -3.906,-3.477 0,-1.554 0.84,-2.871 3.594,-3.781 l 4.98,-1.68 c 5.215,-1.738 7.129,-4.375 7.129,-9.226 0,-6.777 -5.039,-10.137 -11.992,-10.137 -9.297,0 -11.875,4.082 -11.875,10.25 v 1.145 h 7.441" /><path
             id="path110"
             style="fill:#ffffff;fill-opacity:1;fill-rule:nonzero;stroke:none"
             d="m 285.867,388.551 c -1.133,-0.84 -2.519,-1.379 -3.535,-1.621 -3.359,-0.727 -4.668,-2.336 -4.668,-5.215 0,-2.461 0.899,-4.504 3.106,-4.504 2.226,0 5.097,1.445 5.097,4.98 z m -15.117,6.23 v 0.782 c 0,7.441 5.098,9.96 11.348,9.96 9.824,0 11.679,-4.082 11.679,-9.902 v -16.965 c 0,-2.996 0.196,-4.383 1.036,-6.238 h -7.93 c -0.528,1.016 -0.781,2.273 -1.016,3.359 h -0.117 c -1.914,-3.359 -4.258,-4.199 -8.223,-4.199 -5.742,0 -7.793,4.918 -7.793,9.238 0,6.055 2.461,8.512 8.164,10.067 l 4.668,1.262 c 2.461,0.664 3.301,1.621 3.301,3.777 0,2.461 -1.074,3.957 -3.828,3.957 -2.519,0 -3.848,-1.68 -3.848,-4.191 v -0.907 h -7.441" /><path
             id="path112"
             style="fill:#ffffff;fill-opacity:1;fill-rule:nonzero;stroke:none"
             d="m 302.977,413.91 h 8.281 v -9.226 h 4.785 v -5.645 h -4.785 v -17.441 c 0,-2.52 0.527,-3.547 2.93,-3.547 0.664,0 1.328,0.058 1.855,0.129 v -5.762 c -1.797,-0.176 -3.477,-0.363 -5.391,-0.363 -6.464,0 -7.675,1.984 -7.675,8.515 v 18.469 h -4.2 v 5.645 h 4.2 v 9.226" /><path
             id="path114"
             style="fill:#ffffff;fill-opacity:1;fill-rule:nonzero;stroke:none"
             d="m 328.836,381.773 v -9.355 h -7.91 v 9.355 h 7.91" /><path
             id="path116"
             style="fill:#ffffff;fill-opacity:1;fill-rule:nonzero;stroke:none"
             d="m 119.137,325.785 v -1.258 c 0,-4.015 1.14,-6.593 5.703,-6.593 2.637,0 5.156,1.679 5.156,5.273 0,3.898 -1.984,5.344 -7.676,7.316 -7.675,2.645 -11.222,5.821 -11.222,12.957 0,8.333 5.097,12.59 13.261,12.59 7.676,0 13.254,-3.293 13.254,-11.515 v -1.192 h -8.285 c 0,4.016 -1.375,6.348 -4.676,6.348 -3.894,0 -4.91,-2.449 -4.91,-4.969 0,-2.637 0.781,-4.258 4.434,-5.82 l 6.66,-2.883 c 6.473,-2.812 8.152,-6.113 8.152,-11.328 0,-9.051 -5.515,-13.133 -14.871,-13.133 -9.777,0 -13.613,4.559 -13.613,12.469 v 1.738 h 8.633" /><path
             id="path118"
             style="fill:#ffffff;fill-opacity:1;fill-rule:nonzero;stroke:none"
             d="m 159.633,328.551 c -1.141,-0.84 -2.52,-1.379 -3.543,-1.621 -3.352,-0.727 -4.68,-2.336 -4.68,-5.215 0,-2.461 0.91,-4.504 3.125,-4.504 2.219,0 5.098,1.445 5.098,4.98 z m -15.117,6.23 v 0.782 c 0,7.441 5.097,9.96 11.339,9.96 9.833,0 11.688,-4.082 11.688,-9.902 v -16.965 c 0,-2.996 0.187,-4.383 1.027,-6.238 h -7.922 c -0.535,1.016 -0.781,2.273 -1.015,3.359 h -0.125 c -1.914,-3.359 -4.25,-4.199 -8.215,-4.199 -5.754,0 -7.793,4.918 -7.793,9.238 0,6.055 2.461,8.512 8.156,10.067 l 4.676,1.262 c 2.461,0.664 3.301,1.621 3.301,3.777 0,2.461 -1.082,3.957 -3.836,3.957 -2.52,0 -3.84,-1.68 -3.84,-4.191 v -0.907 h -7.441" /><path
             id="path120"
             style="fill:#ffffff;fill-opacity:1;fill-rule:nonzero;stroke:none"
             d="m 176.742,353.91 h 8.274 v -9.226 h 4.793 v -5.645 h -4.793 v -17.441 c 0,-2.52 0.535,-3.547 2.937,-3.547 0.664,0 1.32,0.058 1.856,0.129 v -5.762 c -1.797,-0.176 -3.477,-0.363 -5.391,-0.363 -6.484,0 -7.676,1.984 -7.676,8.515 v 18.469 h -4.199 v 5.645 h 4.199 v 9.226" /><path
             id="path122"
             style="fill:#ffffff;fill-opacity:1;fill-rule:nonzero;stroke:none"
             d="m 211.902,339.039 h -4.199 v 5.645 h 4.199 v 3.652 c 0,5.82 3.282,7.734 8.633,7.734 1.485,0 2.93,-0.058 4.434,-0.175 v -5.879 c -0.547,0.058 -1.074,0.058 -1.621,0.058 -2.344,0 -3.184,-0.715 -3.184,-2.578 v -2.812 h 4.805 v -5.645 h -4.805 v -26.621 h -8.262 v 26.621" /><path
             id="path124"
             style="fill:#ffffff;fill-opacity:1;fill-rule:nonzero;stroke:none"
             d="m 243.211,328.551 c -1.133,-0.84 -2.52,-1.379 -3.535,-1.621 -3.36,-0.727 -4.668,-2.336 -4.668,-5.215 0,-2.461 0.898,-4.504 3.105,-4.504 2.227,0 5.098,1.445 5.098,4.98 z m -15.117,6.23 v 0.782 c 0,7.441 5.097,9.96 11.347,9.96 9.825,0 11.68,-4.082 11.68,-9.902 v -16.965 c 0,-2.996 0.195,-4.383 1.035,-6.238 h -7.929 c -0.528,1.016 -0.782,2.273 -1.016,3.359 h -0.117 c -1.914,-3.359 -4.258,-4.199 -8.223,-4.199 -5.742,0 -7.793,4.918 -7.793,9.238 0,6.055 2.461,8.512 8.164,10.067 l 4.668,1.262 c 2.461,0.664 3.301,1.621 3.301,3.777 0,2.461 -1.074,3.957 -3.828,3.957 -2.52,0 -3.848,-1.68 -3.848,-4.191 v -0.907 h -7.441" /><path
             id="path126"
             style="fill:#ffffff;fill-opacity:1;fill-rule:nonzero;stroke:none"
             d="m 260.32,353.91 h 8.282 v -9.226 h 4.785 v -5.645 h -4.785 v -17.441 c 0,-2.52 0.527,-3.547 2.929,-3.547 0.664,0 1.328,0.058 1.856,0.129 v -5.762 c -1.797,-0.176 -3.477,-0.363 -5.391,-0.363 -6.465,0 -7.676,1.984 -7.676,8.515 v 18.469 h -4.199 v 5.645 h 4.199 v 9.226" /><path
             id="path128"
             style="fill:#231f20;fill-opacity:1;fill-rule:nonzero;stroke:none"
             d="M 71.3594,279.168 V 140.27 H 367.465 V 279.168 H 71.3594" /><path
             id="path130"
             style="fill:#ffffff;fill-opacity:1;fill-rule:nonzero;stroke:none"
             d="m 119.137,233.285 v -1.258 c 0,-4.015 1.14,-6.593 5.703,-6.593 2.637,0 5.156,1.679 5.156,5.273 0,3.898 -1.984,5.344 -7.676,7.316 -7.675,2.645 -11.222,5.821 -11.222,12.957 0,8.333 5.097,12.59 13.261,12.59 7.676,0 13.254,-3.293 13.254,-11.515 v -1.192 h -8.285 c 0,4.016 -1.375,6.348 -4.676,6.348 -3.894,0 -4.91,-2.449 -4.91,-4.969 0,-2.637 0.781,-4.258 4.434,-5.82 l 6.66,-2.883 c 6.473,-2.812 8.152,-6.113 8.152,-11.328 0,-9.051 -5.515,-13.133 -14.871,-13.133 -9.777,0 -13.613,4.559 -13.613,12.469 v 1.738 h 8.633" /><path
             id="path132"
             style="fill:#ffffff;fill-opacity:1;fill-rule:nonzero;stroke:none"
             d="m 161.129,223.695 h -0.117 c -1.739,-3.183 -4.739,-4.617 -8.215,-4.617 -5.156,0 -8.223,2.82 -8.223,9.18 v 23.926 h 8.281 v -22.258 c 0,-3.231 1.075,-4.492 3.536,-4.492 2.824,0 4.375,1.738 4.375,5.332 v 21.418 h 8.281 v -32.266 h -7.918 v 3.777" /><path
             id="path134"
             style="fill:#ffffff;fill-opacity:1;fill-rule:nonzero;stroke:none"
             d="m 191.617,240.543 c 0,3.125 -0.605,6.484 -3.722,6.484 -4.071,0 -4.735,-3.605 -4.735,-11.035 0,-7.98 0.723,-11.281 4.434,-11.281 2.761,0 4.023,2.344 4.023,7.559 h 7.91 c 0,-8.457 -3.535,-13.192 -12.285,-13.192 -8.281,0 -12.355,4.012 -12.355,16.973 0,13.25 5.449,16.972 13.066,16.972 7.617,0 11.574,-4.863 11.574,-12.48 h -7.91" /><path
             id="path136"
             style="fill:#ffffff;fill-opacity:1;fill-rule:nonzero;stroke:none"
             d="m 205.355,252.184 h 7.915 v -4.317 h 0.117 c 1.679,3.113 4.023,5.156 7.441,5.156 0.488,0 1.016,-0.07 1.504,-0.128 v -7.911 c -0.84,0.059 -1.738,0.118 -2.578,0.118 -2.891,0 -6.113,-1.493 -6.113,-5.821 v -19.363 h -8.286 v 32.266" /><path
             id="path138"
             style="fill:#ffffff;fill-opacity:1;fill-rule:nonzero;stroke:none"
             d="m 242.371,239.703 c -0.176,4.918 -0.781,7.676 -4.199,7.676 -3.301,0 -4.258,-3.418 -4.258,-6.418 v -1.258 z m -8.457,-4.914 v -2.578 c 0,-3.777 1.016,-7.5 4.082,-7.5 2.754,0 3.906,2.102 4.375,6.055 h 7.442 c -0.293,-7.489 -3.907,-11.688 -11.7,-11.688 -11.992,0 -12.461,9.238 -12.461,17.274 0,8.632 1.68,16.671 12.832,16.671 9.649,0 11.797,-6.484 11.797,-16.378 v -1.856 h -16.367" /><path
             id="path140"
             style="fill:#ffffff;fill-opacity:1;fill-rule:nonzero;stroke:none"
             d="m 262.176,230.473 v -1.082 c 0,-2.813 1.504,-4.68 4.316,-4.68 2.52,0 4.199,1.262 4.199,3.84 0,2.097 -1.386,3.054 -2.988,3.66 l -5.82,2.102 c -4.57,1.621 -6.895,4.433 -6.895,8.992 0,5.332 3.36,9.718 11.875,9.718 7.481,0 11.035,-3.359 11.035,-9.179 v -1.321 h -7.441 c 0,3.243 -0.957,4.856 -3.652,4.856 -2.11,0 -3.907,-1.191 -3.907,-3.477 0,-1.554 0.84,-2.871 3.594,-3.781 l 4.981,-1.68 c 5.215,-1.738 7.129,-4.375 7.129,-9.226 0,-6.777 -5.039,-10.137 -11.993,-10.137 -9.296,0 -11.875,4.082 -11.875,10.25 v 1.145 h 7.442" /><path
             id="path142"
             style="fill:#ffffff;fill-opacity:1;fill-rule:nonzero;stroke:none"
             d="m 119.137,173.285 v -1.258 c 0,-4.015 1.14,-6.593 5.703,-6.593 2.637,0 5.156,1.679 5.156,5.273 0,3.898 -1.984,5.344 -7.676,7.316 -7.675,2.645 -11.222,5.821 -11.222,12.957 0,8.333 5.097,12.59 13.261,12.59 7.676,0 13.254,-3.293 13.254,-11.515 v -1.192 h -8.285 c 0,4.016 -1.375,6.348 -4.676,6.348 -3.894,0 -4.91,-2.449 -4.91,-4.969 0,-2.637 0.781,-4.258 4.434,-5.82 l 6.66,-2.883 c 6.473,-2.812 8.152,-6.113 8.152,-11.328 0,-9.051 -5.515,-13.133 -14.871,-13.133 -9.777,0 -13.613,4.559 -13.613,12.469 v 1.738 h 8.633" /><path
             id="path144"
             style="fill:#ffffff;fill-opacity:1;fill-rule:nonzero;stroke:none"
             d="m 161.129,163.695 h -0.117 c -1.739,-3.183 -4.739,-4.617 -8.215,-4.617 -5.156,0 -8.223,2.82 -8.223,9.18 v 23.926 h 8.281 v -22.258 c 0,-3.231 1.075,-4.492 3.536,-4.492 2.824,0 4.375,1.738 4.375,5.332 v 21.418 h 8.281 v -32.266 h -7.918 v 3.777" /><path
             id="path146"
             style="fill:#ffffff;fill-opacity:1;fill-rule:nonzero;stroke:none"
             d="m 187.836,166.637 c 3.477,0 4.504,3.777 4.504,9.226 0,7.864 -1.027,10.801 -4.328,10.801 -3.653,0 -4.317,-2.937 -4.317,-11.641 0,-4.433 0.664,-8.386 4.141,-8.386 z m 12.41,25.547 v -30.645 c 0,-8.516 -3.777,-12.656 -13.426,-12.656 -7.019,0 -10.976,3.113 -10.976,8.633 h 7.91 c 0,-1.075 0.488,-1.914 1.262,-2.453 0.781,-0.547 1.746,-0.907 2.761,-0.907 3.36,0 4.563,2.52 4.563,5.821 v 4.257 h -0.129 c -1.68,-2.406 -4.258,-3.957 -6.895,-3.957 -6.589,0 -9.89,4.493 -9.89,16.309 0,7.559 1.14,16.437 10.137,16.437 2.273,0 5.097,-1.085 6.648,-4.445 h 0.129 v 3.606 h 7.906" /><path
             id="path148"
             style="fill:#ffffff;fill-opacity:1;fill-rule:nonzero;stroke:none"
             d="m 222.645,176.051 c -1.153,-0.84 -2.52,-1.379 -3.555,-1.621 -3.34,-0.727 -4.668,-2.336 -4.668,-5.215 0,-2.461 0.898,-4.504 3.125,-4.504 2.207,0 5.098,1.445 5.098,4.98 z m -15.118,6.23 v 0.782 c 0,7.441 5.098,9.96 11.328,9.96 9.844,0 11.7,-4.082 11.7,-9.902 v -16.965 c 0,-2.996 0.175,-4.383 1.015,-6.238 h -7.91 c -0.547,1.016 -0.781,2.273 -1.015,3.359 h -0.137 c -1.914,-3.359 -4.238,-4.199 -8.203,-4.199 -5.762,0 -7.793,4.918 -7.793,9.238 0,6.055 2.461,8.512 8.144,10.067 l 4.688,1.262 c 2.461,0.664 3.301,1.621 3.301,3.777 0,2.461 -1.094,3.957 -3.848,3.957 -2.52,0 -3.828,-1.68 -3.828,-4.191 v -0.907 h -7.442" /><path
             id="path150"
             style="fill:#ffffff;fill-opacity:1;fill-rule:nonzero;stroke:none"
             d="m 237.938,192.184 h 7.91 v -4.317 h 0.117 c 1.68,3.113 4.023,5.156 7.441,5.156 0.489,0 1.016,-0.07 1.504,-0.128 v -7.911 c -0.84,0.059 -1.738,0.118 -2.578,0.118 -2.891,0 -6.113,-1.493 -6.113,-5.821 v -19.363 h -8.281 v 32.266" /><path
             id="path152"
             style="fill:#ffffff;fill-opacity:1;fill-rule:nonzero;stroke:none"
             d="m 265.477,170.473 v -1.082 c 0,-2.813 1.503,-4.68 4.316,-4.68 2.52,0 4.199,1.262 4.199,3.84 0,2.097 -1.387,3.054 -2.988,3.66 l -5.82,2.102 c -4.571,1.621 -6.895,4.433 -6.895,8.992 0,5.332 3.359,9.718 11.875,9.718 7.481,0 11.035,-3.359 11.035,-9.179 v -1.321 h -7.441 c 0,3.243 -0.957,4.856 -3.653,4.856 -2.109,0 -3.906,-1.191 -3.906,-3.477 0,-1.554 0.84,-2.871 3.594,-3.781 l 4.98,-1.68 c 5.215,-1.738 7.129,-4.375 7.129,-9.226 0,-6.777 -5.039,-10.137 -11.992,-10.137 -9.297,0 -11.875,4.082 -11.875,10.25 v 1.145 h 7.442" /><path
             id="path154"
             style="fill:#231f20;fill-opacity:1;fill-rule:nonzero;stroke:none"
             d="m 104.434,493.648 c -9.7348,-16.582 -31.0863,-22.14 -47.6488,-12.406 -16.5821,9.735 -22.1446,31.102 -12.4102,47.684 9.7383,16.562 30.9219,22.086 47.6875,12.39 16.7615,-9.671 22.1255,-31.101 12.3715,-47.668 z m -6.6567,57.711 C 75.668,564.352 47.4805,556.996 34.4727,534.883 23.0977,515.254 27.4453,490.723 43.9648,476.5 L 25.3633,445.242 c -1.8477,-3.156 -0.6953,-7.219 2.539,-8.929 l 4.4649,-2.364 c 3.0742,-1.629 6.8867,-0.511 8.6016,2.516 l 17.6445,31.418 c 20.6758,-7.442 44.2107,0.707 55.6407,20.172 12.973,22.109 5.652,50.32 -16.4767,63.304" /></g></g></g></g></svg>