<?xml version="1.0" encoding="UTF-8" standalone="no"?>
<svg
   xmlns:dc="http://purl.org/dc/elements/1.1/"
   xmlns:cc="http://creativecommons.org/ns#"
   xmlns:rdf="http://www.w3.org/1999/02/22-rdf-syntax-ns#"
   xmlns:svg="http://www.w3.org/2000/svg"
   xmlns="http://www.w3.org/2000/svg"
   viewBox="0 0 51.779732 98.267727"
   height="98.267731"
   width="51.779732"
   xml:space="preserve"
   id="svg2"
   version="1.1"><metadata
     id="metadata8"><rdf:RDF><cc:Work
         rdf:about=""><dc:format>image/svg+xml</dc:format><dc:type
           rdf:resource="http://purl.org/dc/dcmitype/StillImage" /></cc:Work></rdf:RDF></metadata><defs
     id="defs6"><clipPath
       id="clipPath20"
       clipPathUnits="userSpaceOnUse"><path
         id="path18"
         d="M 0,0 H 388.348 V 737.008 H 0 Z" /></clipPath></defs><g
     transform="matrix(1.3333333,0,0,-1.3333333,0,98.267731)"
     id="g10"><g
       transform="scale(0.1)"
       id="g12"><g
         id="g14"><g
           clip-path="url(#clipPath20)"
           id="g16"><path
             id="path22"
             style="fill:#ffffff;fill-opacity:1;fill-rule:nonzero;stroke:none"
             d="M 2.5,2.5 V 734.508 H 385.848 V 2.5 H 2.5" /><path
             id="path24"
             style="fill:#231f20;fill-opacity:1;fill-rule:nonzero;stroke:none"
             d="M 388.348,737.008 H 0 V 0 h 388.348 z m -5,-5 V 5 H 5 v 727.008 h 378.348" /><path
             id="path26"
             style="fill:#231f20;fill-opacity:1;fill-rule:nonzero;stroke:none"
             d="m 166.723,720.188 h 8.273 l -5.871,-8.641 h -5.645 z m 12.414,-11.161 v -7.074 h -15.293 v -10.074 h 14.394 v -7.07 h -14.394 v -11.516 h 15.898 v -7.078 h -24.531 v 42.812 h 23.926" /><path
             id="path28"
             style="fill:#231f20;fill-opacity:1;fill-rule:nonzero;stroke:none"
             d="m 185.629,709.027 h 8.281 v -42.812 h -8.281 v 42.812" /><path
             id="path30"
             style="fill:#231f20;fill-opacity:1;fill-rule:nonzero;stroke:none"
             d="m 216.758,685.996 c -0.188,4.926 -0.781,7.68 -4.199,7.68 -3.301,0 -4.258,-3.418 -4.258,-6.418 v -1.262 z m -8.457,-4.91 v -2.578 c 0,-3.778 1.015,-7.5 4.082,-7.5 2.754,0 3.894,2.101 4.375,6.055 h 7.43 c -0.293,-7.493 -3.895,-11.692 -11.688,-11.692 -11.988,0 -12.465,9.238 -12.465,17.277 0,8.633 1.68,16.668 12.824,16.668 9.649,0 11.809,-6.48 11.809,-16.375 v -1.855 h -16.367" /><path
             id="path32"
             style="fill:#231f20;fill-opacity:1;fill-rule:nonzero;stroke:none"
             d="m 245.789,698.48 h 8.281 l -8.093,-32.265 h -9.602 l -8.328,32.265 h 8.633 l 4.617,-23.085 h 0.117 l 4.375,23.085" /><path
             id="path34"
             style="fill:#231f20;fill-opacity:1;fill-rule:nonzero;stroke:none"
             d="m 269.141,710.891 h 8.269 l -5.867,-8.633 h -5.645 z m 5.039,-24.895 c -0.188,4.926 -0.782,7.68 -4.2,7.68 -3.3,0 -4.257,-3.418 -4.257,-6.418 v -1.262 z m -8.457,-4.91 v -2.578 c 0,-3.778 1.015,-7.5 4.082,-7.5 2.754,0 3.894,2.101 4.375,6.055 h 7.429 c -0.293,-7.493 -3.894,-11.692 -11.687,-11.692 -11.992,0 -12.473,9.238 -12.473,17.277 0,8.633 1.68,16.668 12.832,16.668 9.649,0 11.809,-6.48 11.809,-16.375 v -1.855 h -16.367" /><path
             id="path36"
             style="fill:#231f20;fill-opacity:1;fill-rule:nonzero;stroke:none"
             d="m 319.355,685.996 c -0.187,4.926 -0.781,7.68 -4.199,7.68 -3.301,0 -4.258,-3.418 -4.258,-6.418 v -1.262 z m -8.457,-4.91 v -2.578 c 0,-3.778 1.016,-7.5 4.082,-7.5 2.754,0 3.895,2.101 4.375,6.055 h 7.43 c -0.293,-7.493 -3.894,-11.692 -11.687,-11.692 -11.993,0 -12.473,9.238 -12.473,17.277 0,8.633 1.68,16.668 12.832,16.668 9.648,0 11.809,-6.48 11.809,-16.375 v -1.855 h -16.368" /><path
             id="path38"
             style="fill:#231f20;fill-opacity:1;fill-rule:nonzero;stroke:none"
             d="m 333.094,698.48 h 7.922 v -3.781 h 0.117 c 1.738,3.172 4.734,4.617 8.222,4.617 5.157,0 8.211,-2.82 8.211,-9.175 v -23.926 h -8.281 v 22.246 c 0,3.238 -1.074,4.5 -3.535,4.5 -2.812,0 -4.375,-1.738 -4.375,-5.344 v -21.402 h -8.281 v 32.265" /><path
             id="path40"
             style="fill:#231f20;fill-opacity:1;fill-rule:nonzero;stroke:none"
             d="m 155.211,649.027 h 8.633 v -16.371 h 10.078 v 16.371 h 8.633 v -42.812 h -8.633 v 19.012 h -10.078 v -19.012 h -8.633 v 42.812" /><path
             id="path42"
             style="fill:#231f20;fill-opacity:1;fill-rule:nonzero;stroke:none"
             d="m 190.133,638.48 h 8.281 v -32.265 h -8.281 z m 0,11.036 h 8.281 v -7.082 h -8.281 v 7.082" /><path
             id="path44"
             style="fill:#231f20;fill-opacity:1;fill-rule:nonzero;stroke:none"
             d="m 217.48,612.934 c 3.477,0 4.5,3.777 4.5,9.226 0,7.863 -1.023,10.801 -4.324,10.801 -3.652,0 -4.316,-2.938 -4.316,-11.641 0,-4.433 0.664,-8.386 4.14,-8.386 z m 12.411,25.546 v -30.644 c 0,-8.52 -3.778,-12.656 -13.426,-12.656 -7.024,0 -10.973,3.113 -10.973,8.633 h 7.906 c 0,-1.079 0.489,-1.915 1.258,-2.454 0.782,-0.546 1.75,-0.91 2.766,-0.91 3.359,0 4.558,2.524 4.558,5.824 v 4.254 h -0.125 c -1.679,-2.398 -4.257,-3.953 -6.894,-3.953 -6.594,0 -9.887,4.492 -9.887,16.309 0,7.558 1.137,16.433 10.129,16.433 2.277,0 5.098,-1.082 6.652,-4.441 h 0.125 v 3.605 h 7.911" /><path
             id="path46"
             style="fill:#231f20;fill-opacity:1;fill-rule:nonzero;stroke:none"
             d="m 237.215,649.027 h 8.281 V 635.18 h 0.117 c 1.563,2.754 4.375,4.136 7.864,4.136 5.156,0 8.211,-2.82 8.211,-9.175 v -23.926 h -8.282 v 22.246 c 0,3.238 -1.074,4.5 -3.535,4.5 -2.812,0 -4.375,-1.738 -4.375,-5.344 v -21.402 h -8.281 v 42.812" /><path
             id="path48"
             style="fill:#231f20;fill-opacity:1;fill-rule:nonzero;stroke:none"
             d="m 284.922,638.48 h 8.281 v -32.265 h -8.281 z m 0,11.036 h 8.281 v -7.082 h -8.281 v 7.082" /><path
             id="path50"
             style="fill:#231f20;fill-opacity:1;fill-rule:nonzero;stroke:none"
             d="m 300.516,638.48 h 7.922 v -3.781 h 0.117 c 1.738,3.172 4.734,4.617 8.222,4.617 5.157,0 8.211,-2.82 8.211,-9.175 v -23.926 h -8.281 v 22.246 c 0,3.238 -1.074,4.5 -3.535,4.5 -2.813,0 -4.375,-1.738 -4.375,-5.344 v -21.402 h -8.281 v 32.265" /><path
             id="path52"
             style="fill:#231f20;fill-opacity:1;fill-rule:nonzero;stroke:none"
             d="m 63.2891,110.664 c 0,4.504 -1.6211,7.617 -6.6602,7.617 -4.4336,0 -7.0703,-2.39 -7.0703,-6.953 0,-12.0507 20.207,-4.851 20.207,-20.5077 0,-9.8906 -7.2578,-12.7109 -13.3125,-12.7109 -10.0195,0 -12.957,5.1562 -12.957,14.2773 h 5.2812 c 0,-4.8086 0.293,-9.9609 8.0391,-9.9609 4.1875,0 7.4297,2.9961 7.4297,7.5586 0,12.1096 -20.2031,5.0937 -20.2031,20.8086 0,3.953 1.6797,11.809 12.5273,11.809 8.1563,0 11.875,-4.075 11.9922,-11.938 h -5.2734" /><path
             id="path54"
             style="fill:#231f20;fill-opacity:1;fill-rule:nonzero;stroke:none"
             d="m 89.6875,96.457 c -1.8555,-1.9804 -6.2891,-2.4023 -8.5742,-3.7773 -1.6211,-1.0195 -2.461,-2.2774 -2.461,-5.1016 0,-3.2304 1.1407,-5.5156 4.5586,-5.5156 3.3008,0 6.4766,2.8242 6.4766,6.125 z m -15.5273,4.922 c 0,7.312 3.1132,10.547 10.789,10.547 9.7774,0 9.7774,-5.867 9.7774,-9.231 V 84.7695 c 0,-1.3203 0,-2.5781 1.5625,-2.5781 0.6523,0 0.957,0.1172 1.1992,0.293 v -3.5938 c -0.3594,-0.0625 -1.6797,-0.3047 -2.9375,-0.3047 -1.9258,0 -4.3164,0 -4.5625,4.1407 h -0.1172 c -1.6211,-2.8789 -4.7344,-4.6172 -7.7344,-4.6172 -5.9961,0 -8.7578,3.5898 -8.7578,9.3554 0,4.5 1.9219,7.6133 6.0547,8.875 l 6.7773,2.043 c 3.6602,1.1328 3.6602,2.1562 3.6602,4.8512 0,3 -1.7969,4.739 -5.1563,4.739 -5.5156,0 -5.5156,-5.157 -5.5156,-6.301 v -0.293 h -5.039" /><path
             id="path56"
             style="fill:#231f20;fill-opacity:1;fill-rule:nonzero;stroke:none"
             d="m 101.582,111.086 h 4.793 v -3.77 h 0.117 c 1.321,2.93 4.68,4.61 7.805,4.61 8.445,0 8.445,-6.414 8.445,-10.196 V 78.9453 h -5.027 v 22.1917 c 0,2.461 -0.188,6.472 -4.746,6.472 -2.696,0 -6.348,-1.796 -6.348,-6.472 V 78.9453 h -5.039 v 32.1407" /><path
             id="path58"
             style="fill:#231f20;fill-opacity:1;fill-rule:nonzero;stroke:none"
             d="m 130.848,120.441 h 5.039 v -9.355 h 5.578 v -3.953 h -5.578 V 86.5078 c 0,-2.5781 0.664,-3.6055 3.301,-3.6055 1.074,0 1.679,0.125 2.218,0.1875 v -4.1445 c -0.664,-0.1172 -1.984,-0.3594 -4.082,-0.3594 -5.215,0 -6.476,2.1563 -6.476,6.3555 v 22.1916 h -4.676 v 3.953 h 4.676 v 9.355" /><path
             id="path60"
             style="fill:#231f20;fill-opacity:1;fill-rule:nonzero;stroke:none"
             d="m 156.113,124.047 h 5.879 l -6.476,-8.52 h -3.602 z m 4.617,-25.6642 v 1.7342 c 0,3.598 -1.14,7.856 -5.574,7.856 -5.285,0 -5.879,-6.477 -5.879,-8.4027 v -1.1875 z m -11.628,-3.9687 c 0,-4.9102 0,-12.3516 6.171,-12.3516 4.793,0 5.457,5.0391 5.457,7.4414 h 5.04 c 0,-3.418 -2.04,-11.3945 -10.801,-11.3945 -7.852,0 -11.153,5.457 -11.153,16.4922 0,8.0394 1.563,17.3244 11.457,17.3244 9.832,0 10.731,-8.574 10.731,-15.469 v -2.0429 h -16.902" /><path
             id="path62"
             style="fill:#231f20;fill-opacity:1;fill-rule:nonzero;stroke:none"
             d="m 212.324,93.6367 c -0.488,-8.0976 -3.664,-15.5273 -13.019,-15.5273 -12.168,0 -13.789,11.4531 -13.789,22.2456 0,10.797 1.972,22.247 13.789,22.247 8.761,0 12.414,-4.914 12.656,-13.313 h -5.516 c -0.117,4.863 -1.679,8.992 -7.14,8.992 -7.313,0 -8.27,-8.035 -8.27,-17.926 0,-9.8941 0.957,-17.9292 8.27,-17.9292 6.418,0 7.316,5.9961 7.5,11.2109 h 5.519" /><path
             id="path64"
             style="fill:#231f20;fill-opacity:1;fill-rule:nonzero;stroke:none"
             d="m 231.824,96.457 c -1.855,-1.9804 -6.289,-2.4023 -8.574,-3.7773 -1.621,-1.0195 -2.461,-2.2774 -2.461,-5.1016 0,-3.2304 1.145,-5.5156 4.563,-5.5156 3.3,0 6.472,2.8242 6.472,6.125 z m -15.527,4.922 c 0,7.312 3.117,10.547 10.793,10.547 9.773,0 9.773,-5.867 9.773,-9.231 V 84.7695 c 0,-1.3203 0,-2.5781 1.563,-2.5781 0.656,0 0.957,0.1172 1.203,0.293 v -3.5938 c -0.363,-0.0625 -1.68,-0.3047 -2.941,-0.3047 -1.922,0 -4.317,0 -4.559,4.1407 h -0.117 c -1.621,-2.8789 -4.739,-4.6172 -7.735,-4.6172 -5.996,0 -8.761,3.5898 -8.761,9.3554 0,4.5 1.925,7.6133 6.054,8.875 l 6.778,2.043 c 3.664,1.1328 3.664,2.1562 3.664,4.8512 0,3 -1.797,4.739 -5.157,4.739 -5.519,0 -5.519,-5.157 -5.519,-6.301 v -0.293 h -5.039" /><path
             id="path66"
             style="fill:#231f20;fill-opacity:1;fill-rule:nonzero;stroke:none"
             d="m 243.719,111.086 h 4.797 v -3.77 h 0.117 c 1.316,2.93 4.676,4.61 7.801,4.61 8.449,0 8.449,-6.414 8.449,-10.196 V 78.9453 h -5.031 v 22.1917 c 0,2.461 -0.184,6.472 -4.747,6.472 -2.695,0 -6.347,-1.796 -6.347,-6.472 V 78.9453 h -5.039 v 32.1407" /><path
             id="path68"
             style="fill:#231f20;fill-opacity:1;fill-rule:nonzero;stroke:none"
             d="m 286.238,96.457 c -1.855,-1.9804 -6.289,-2.4023 -8.574,-3.7773 -1.621,-1.0195 -2.461,-2.2774 -2.461,-5.1016 0,-3.2304 1.145,-5.5156 4.563,-5.5156 3.3,0 6.472,2.8242 6.472,6.125 z m -15.527,4.922 c 0,7.312 3.117,10.547 10.793,10.547 9.773,0 9.773,-5.867 9.773,-9.231 V 84.7695 c 0,-1.3203 0,-2.5781 1.563,-2.5781 0.656,0 0.957,0.1172 1.203,0.293 v -3.5938 c -0.363,-0.0625 -1.68,-0.3047 -2.941,-0.3047 -1.922,0 -4.317,0 -4.559,4.1407 h -0.117 c -1.621,-2.8789 -4.738,-4.6172 -7.735,-4.6172 -5.996,0 -8.761,3.5898 -8.761,9.3554 0,4.5 1.925,7.6133 6.054,8.875 l 6.778,2.043 c 3.664,1.1328 3.664,2.1562 3.664,4.8512 0,3 -1.797,4.739 -5.156,4.739 -5.52,0 -5.52,-5.157 -5.52,-6.301 v -0.293 h -5.039" /><path
             id="path70"
             style="fill:#231f20;fill-opacity:1;fill-rule:nonzero;stroke:none"
             d="m 308.086,82.4258 c 5.574,0 6.473,5.2812 6.473,12.5976 0,6.2306 -1.075,12.5856 -6.473,12.5856 -4.68,0 -5.879,-4.914 -5.879,-12.5856 0,-7.6757 1.199,-12.5976 5.879,-12.5976 z m 11.211,-3.4805 H 314.5 v 3.957 h -0.117 c -0.664,-2.3906 -3.477,-4.7929 -6.953,-4.7929 -7.617,0 -10.496,6.7773 -10.496,16.914 0,6.7066 1.074,16.9026 10.136,16.9026 2.871,0 5.938,-1.738 7.071,-4.492 h 0.125 v 14.328 h 5.031 V 78.9453" /><path
             id="path72"
             style="fill:#231f20;fill-opacity:1;fill-rule:nonzero;stroke:none"
             d="m 340.664,96.457 c -1.855,-1.9804 -6.289,-2.4023 -8.574,-3.7773 -1.621,-1.0195 -2.461,-2.2774 -2.461,-5.1016 0,-3.2304 1.141,-5.5156 4.559,-5.5156 3.3,0 6.476,2.8242 6.476,6.125 z m -15.527,4.922 c 0,7.312 3.113,10.547 10.789,10.547 9.777,0 9.777,-5.867 9.777,-9.231 V 84.7695 c 0,-1.3203 0,-2.5781 1.563,-2.5781 0.652,0 0.957,0.1172 1.199,0.293 v -3.5938 c -0.36,-0.0625 -1.68,-0.3047 -2.938,-0.3047 -1.925,0 -4.316,0 -4.562,4.1407 h -0.117 c -1.621,-2.8789 -4.735,-4.6172 -7.735,-4.6172 -5.996,0 -8.758,3.5898 -8.758,9.3554 0,4.5 1.922,7.6133 6.055,8.875 l 6.778,2.043 c 3.66,1.1328 3.66,2.1562 3.66,4.8512 0,3 -1.797,4.739 -5.157,4.739 -5.515,0 -5.515,-5.157 -5.515,-6.301 v -0.293 h -5.039" /><path
             id="path74"
             style="fill:#231f20;fill-opacity:1;fill-rule:nonzero;stroke:none"
             d="m 63.1328,18.9453 h -5.2734 v 20.625 H 43.1719 v -20.625 h -5.2813 v 42.8164 h 5.2813 V 44.25 h 14.6875 v 17.5117 h 5.2734 V 18.9453" /><path
             id="path76"
             style="fill:#231f20;fill-opacity:1;fill-rule:nonzero;stroke:none"
             d="m 85.7617,38.3828 v 1.7344 c 0,3.5976 -1.1445,7.8555 -5.5781,7.8555 -5.2813,0 -5.8789,-6.4766 -5.8789,-8.4024 V 38.3828 Z M 74.1289,34.4141 c 0,-4.9102 0,-12.3516 6.1719,-12.3516 4.7969,0 5.4609,5.0391 5.4609,7.4414 h 5.0391 c 0,-3.418 -2.043,-11.3945 -10.8008,-11.3945 -7.8516,0 -11.1523,5.457 -11.1523,16.4922 0,8.039 1.5625,17.3242 11.4531,17.3242 9.8359,0 10.7344,-8.5742 10.7344,-15.4688 V 34.4141 H 74.1289" /><path
             id="path78"
             style="fill:#231f20;fill-opacity:1;fill-rule:nonzero;stroke:none"
             d="m 111.316,36.457 c -1.855,-1.9804 -6.289,-2.4023 -8.574,-3.7773 -1.621,-1.0195 -2.461,-2.2774 -2.461,-5.1016 0,-3.2304 1.145,-5.5156 4.563,-5.5156 3.301,0 6.472,2.8242 6.472,6.125 z m -15.5269,4.9219 c 0,7.3125 3.1172,10.5469 10.7929,10.5469 9.773,0 9.773,-5.8672 9.773,-9.2305 V 24.7695 c 0,-1.3203 0,-2.5781 1.563,-2.5781 0.656,0 0.957,0.1172 1.203,0.293 v -3.5938 c -0.363,-0.0625 -1.68,-0.3047 -2.941,-0.3047 -1.922,0 -4.317,0 -4.559,4.1407 h -0.117 c -1.621,-2.8789 -4.738,-4.6172 -7.734,-4.6172 -5.9966,0 -8.7622,3.5898 -8.7622,9.3554 0,4.5 1.9258,7.6133 6.0552,8.875 l 6.777,2.043 c 3.664,1.1328 3.664,2.1563 3.664,4.8516 0,3 -1.797,4.7383 -5.156,4.7383 -5.52,0 -5.52,-5.1563 -5.52,-6.3008 v -0.293 h -5.0389" /><path
             id="path80"
             style="fill:#231f20;fill-opacity:1;fill-rule:nonzero;stroke:none"
             d="m 123.504,61.7617 h 5.039 V 18.9453 h -5.039 v 42.8164" /><path
             id="path82"
             style="fill:#231f20;fill-opacity:1;fill-rule:nonzero;stroke:none"
             d="m 136.941,60.4414 h 5.039 v -9.3555 h 5.579 v -3.9531 h -5.579 v -20.625 c 0,-2.5781 0.665,-3.6055 3.301,-3.6055 1.074,0 1.68,0.125 2.219,0.1875 v -4.1445 c -0.664,-0.1172 -1.984,-0.3594 -4.082,-0.3594 -5.215,0 -6.477,2.1563 -6.477,6.3555 v 22.1914 h -4.675 v 3.9531 h 4.675 v 9.3555" /><path
             id="path84"
             style="fill:#231f20;fill-opacity:1;fill-rule:nonzero;stroke:none"
             d="m 150.996,61.7617 h 5.039 V 47.4336 h 0.117 c 1.317,2.6367 4.852,4.4922 7.735,4.4922 8.269,0 8.269,-6.4141 8.269,-10.1953 V 18.9453 h -5.027 v 22.1914 c 0,2.461 -0.188,6.4727 -4.746,6.4727 -2.695,0 -6.348,-1.7969 -6.348,-6.4727 V 18.9453 h -5.039 v 42.8164" /><path
             id="path86"
             style="fill:#231f20;fill-opacity:1;fill-rule:nonzero;stroke:none"
             d="m 219.559,33.6367 c -0.489,-8.0976 -3.661,-15.5273 -13.016,-15.5273 -12.168,0 -13.789,11.4531 -13.789,22.2461 0,10.7968 1.973,22.2461 13.789,22.2461 8.758,0 12.41,-4.9141 12.656,-13.3125 h -5.519 c -0.117,4.8632 -1.68,8.9922 -7.137,8.9922 -7.316,0 -8.273,-8.0352 -8.273,-17.9258 0,-9.8946 0.957,-17.9297 8.273,-17.9297 6.414,0 7.312,5.9961 7.5,11.2109 h 5.516" /><path
             id="path88"
             style="fill:#231f20;fill-opacity:1;fill-rule:nonzero;stroke:none"
             d="m 239.051,36.457 c -1.856,-1.9804 -6.289,-2.4023 -8.574,-3.7773 -1.622,-1.0195 -2.461,-2.2774 -2.461,-5.1016 0,-3.2304 1.144,-5.5156 4.562,-5.5156 3.301,0 6.473,2.8242 6.473,6.125 z m -15.528,4.9219 c 0,7.3125 3.118,10.5469 10.793,10.5469 9.774,0 9.774,-5.8672 9.774,-9.2305 V 24.7695 c 0,-1.3203 0,-2.5781 1.562,-2.5781 0.657,0 0.957,0.1172 1.203,0.293 v -3.5938 c -0.363,-0.0625 -1.679,-0.3047 -2.941,-0.3047 -1.922,0 -4.316,0 -4.559,4.1407 h -0.117 c -1.621,-2.8789 -4.738,-4.6172 -7.734,-4.6172 -5.996,0 -8.762,3.5898 -8.762,9.3554 0,4.5 1.926,7.6133 6.055,8.875 l 6.777,2.043 c 3.664,1.1328 3.664,2.1563 3.664,4.8516 0,3 -1.797,4.7383 -5.156,4.7383 -5.519,0 -5.519,-5.1563 -5.519,-6.3008 v -0.293 h -5.04" /><path
             id="path90"
             style="fill:#231f20;fill-opacity:1;fill-rule:nonzero;stroke:none"
             d="m 250.945,51.0859 h 4.797 v -3.7695 h 0.117 c 1.317,2.9297 4.676,4.6094 7.801,4.6094 8.449,0 8.449,-6.4141 8.449,-10.1953 V 18.9453 h -5.031 v 22.1914 c 0,2.461 -0.183,6.4727 -4.746,6.4727 -2.695,0 -6.348,-1.7969 -6.348,-6.4727 V 18.9453 h -5.039 v 32.1406" /><path
             id="path92"
             style="fill:#231f20;fill-opacity:1;fill-rule:nonzero;stroke:none"
             d="m 293.477,36.457 c -1.856,-1.9804 -6.289,-2.4023 -8.575,-3.7773 -1.621,-1.0195 -2.461,-2.2774 -2.461,-5.1016 0,-3.2304 1.141,-5.5156 4.559,-5.5156 3.301,0 6.477,2.8242 6.477,6.125 z m -15.528,4.9219 c 0,7.3125 3.114,10.5469 10.789,10.5469 9.778,0 9.778,-5.8672 9.778,-9.2305 V 24.7695 c 0,-1.3203 0,-2.5781 1.562,-2.5781 0.652,0 0.957,0.1172 1.199,0.293 v -3.5938 c -0.359,-0.0625 -1.679,-0.3047 -2.937,-0.3047 -1.926,0 -4.317,0 -4.563,4.1407 h -0.117 c -1.621,-2.8789 -4.734,-4.6172 -7.734,-4.6172 -5.996,0 -8.758,3.5898 -8.758,9.3554 0,4.5 1.922,7.6133 6.055,8.875 l 6.777,2.043 c 3.66,1.1328 3.66,2.1563 3.66,4.8516 0,3 -1.797,4.7383 -5.156,4.7383 -5.516,0 -5.516,-5.1563 -5.516,-6.3008 v -0.293 h -5.039" /><path
             id="path94"
             style="fill:#231f20;fill-opacity:1;fill-rule:nonzero;stroke:none"
             d="m 315.32,22.4258 c 5.578,0 6.477,5.2812 6.477,12.5976 0,6.2305 -1.074,12.586 -6.477,12.586 -4.675,0 -5.879,-4.9141 -5.879,-12.586 0,-7.6757 1.204,-12.5976 5.879,-12.5976 z m 11.211,-3.4805 h -4.793 v 3.957 h -0.117 c -0.664,-2.3906 -3.476,-4.7929 -6.953,-4.7929 -7.617,0 -10.5,6.7773 -10.5,16.914 0,6.7071 1.074,16.9024 10.137,16.9024 2.871,0 5.937,-1.7383 7.07,-4.4922 h 0.129 v 14.3281 h 5.027 V 18.9453" /><path
             id="path96"
             style="fill:#231f20;fill-opacity:1;fill-rule:nonzero;stroke:none"
             d="m 347.891,36.457 c -1.856,-1.9804 -6.289,-2.4023 -8.575,-3.7773 -1.621,-1.0195 -2.461,-2.2774 -2.461,-5.1016 0,-3.2304 1.141,-5.5156 4.559,-5.5156 3.301,0 6.477,2.8242 6.477,6.125 z m -15.528,4.9219 c 0,7.3125 3.114,10.5469 10.789,10.5469 9.778,0 9.778,-5.8672 9.778,-9.2305 V 24.7695 c 0,-1.3203 0,-2.5781 1.562,-2.5781 0.653,0 0.957,0.1172 1.199,0.293 v -3.5938 c -0.359,-0.0625 -1.679,-0.3047 -2.937,-0.3047 -1.926,0 -4.316,0 -4.563,4.1407 h -0.117 c -1.621,-2.8789 -4.734,-4.6172 -7.734,-4.6172 -5.996,0 -8.758,3.5898 -8.758,9.3554 0,4.5 1.922,7.6133 6.055,8.875 l 6.777,2.043 c 3.66,1.1328 3.66,2.1563 3.66,4.8516 0,3 -1.797,4.7383 -5.156,4.7383 -5.516,0 -5.516,-5.1563 -5.516,-6.3008 v -0.293 h -5.039" /><path
             id="path98"
             style="fill:#231f20;fill-opacity:1;fill-rule:nonzero;stroke:none"
             d="M 62.2578,277.102 V 138.203 H 363.922 V 277.102 H 62.2578" /><path
             id="path100"
             style="fill:#ffffff;fill-opacity:1;fill-rule:nonzero;stroke:none"
             d="m 117.867,201.027 v -1.257 c 0,-4.016 1.141,-6.594 5.703,-6.594 2.633,0 5.157,1.679 5.157,5.273 0,3.899 -1.985,5.34 -7.676,7.317 -7.68,2.644 -11.223,5.82 -11.223,12.957 0,8.332 5.098,12.59 13.262,12.59 7.676,0 13.254,-3.293 13.254,-11.516 v -1.192 h -8.281 c 0,4.012 -1.379,6.348 -4.68,6.348 -3.895,0 -4.91,-2.449 -4.91,-4.969 0,-2.636 0.781,-4.257 4.433,-5.824 l 6.66,-2.879 c 6.473,-2.812 8.153,-6.113 8.153,-11.328 0,-9.051 -5.516,-13.137 -14.871,-13.137 -9.778,0 -13.614,4.563 -13.614,12.473 v 1.738 h 8.633" /><path
             id="path102"
             style="fill:#ffffff;fill-opacity:1;fill-rule:nonzero;stroke:none"
             d="m 154.945,192.453 c 3.36,0 4.434,3.301 4.434,11.336 0,8.039 -1.074,11.328 -4.434,11.328 -4.082,0 -4.441,-4.734 -4.441,-11.328 0,-6.598 0.359,-11.336 4.441,-11.336 z m 0,28.313 c 9.953,0.175 12.715,-5.762 12.715,-16.977 0,-11.031 -3.242,-16.973 -12.715,-16.973 -9.961,-0.171 -12.715,5.762 -12.715,16.973 0,11.035 3.243,16.977 12.715,16.977" /><path
             id="path104"
             style="fill:#ffffff;fill-opacity:1;fill-rule:nonzero;stroke:none"
             d="m 185.426,193.176 c 3.66,0 4.375,3.594 4.375,10.613 0,7.016 -0.715,10.617 -4.375,10.617 -3.598,0 -4.317,-3.601 -4.317,-10.617 0,-7.019 0.719,-10.613 4.317,-10.613 z m 4.734,-2.102 h -0.117 c -1.797,-2.996 -4.082,-4.258 -7.313,-4.258 -6.777,0 -9.894,4.985 -9.894,16.973 0,11.992 3.117,16.977 9.894,16.977 3.114,0 5.215,-1.262 6.954,-3.84 h 0.117 v 13.547 h 8.277 v -42.817 h -7.918 v 3.418" /><path
             id="path106"
             style="fill:#ffffff;fill-opacity:1;fill-rule:nonzero;stroke:none"
             d="m 205.414,219.926 h 8.277 v -32.27 h -8.277 z m 0,11.035 h 8.277 v -7.082 h -8.277 v 7.082" /><path
             id="path108"
             style="fill:#ffffff;fill-opacity:1;fill-rule:nonzero;stroke:none"
             d="m 237.559,191.438 h -0.118 c -1.738,-3.184 -4.738,-4.622 -8.214,-4.622 -5.157,0 -8.223,2.825 -8.223,9.18 v 23.93 h 8.281 v -22.258 c 0,-3.23 1.074,-4.492 3.535,-4.492 2.825,0 4.375,1.738 4.375,5.332 v 21.418 h 8.282 v -32.27 h -7.918 v 3.782" /><path
             id="path110"
             style="fill:#ffffff;fill-opacity:1;fill-rule:nonzero;stroke:none"
             d="m 252.5,219.926 h 7.918 v -3.305 h 0.117 c 2.102,2.942 4.68,4.145 8.156,4.145 3.778,0 6.543,-1.868 7.442,-5.157 h 0.117 c 1.258,3.418 4.258,5.157 8.152,5.157 5.461,0 8.039,-3.418 8.039,-9.661 v -23.449 h -8.273 v 22.551 c 0,2.695 -0.898,4.199 -3.242,4.199 -2.637,0 -4.317,-1.804 -4.317,-5.515 v -21.235 h -8.269 v 22.551 c 0,2.695 -0.91,4.199 -3.242,4.199 -2.637,0 -4.317,-1.804 -4.317,-5.515 V 187.656 H 252.5 v 32.27" /><path
             id="path112"
             style="fill:#231f20;fill-opacity:1;fill-rule:nonzero;stroke:none"
             d="M 62.2578,428.902 V 290.004 H 363.922 V 428.902 H 62.2578" /><path
             id="path114"
             style="fill:#ffffff;fill-opacity:1;fill-rule:nonzero;stroke:none"
             d="m 117.867,382.777 v -1.261 c 0,-4.012 1.141,-6.59 5.703,-6.59 2.633,0 5.157,1.679 5.157,5.269 0,3.899 -1.985,5.344 -7.676,7.317 -7.68,2.644 -11.223,5.82 -11.223,12.961 0,8.328 5.098,12.586 13.262,12.586 7.676,0 13.254,-3.289 13.254,-11.512 v -1.192 h -8.281 c 0,4.012 -1.379,6.344 -4.68,6.344 -3.895,0 -4.91,-2.449 -4.91,-4.969 0,-2.636 0.781,-4.257 4.433,-5.82 l 6.66,-2.883 c 6.473,-2.808 8.153,-6.113 8.153,-11.328 0,-9.051 -5.516,-13.133 -14.871,-13.133 -9.778,0 -13.614,4.563 -13.614,12.469 v 1.742 h 8.633" /><path
             id="path116"
             style="fill:#ffffff;fill-opacity:1;fill-rule:nonzero;stroke:none"
             d="m 159.859,373.188 h -0.117 c -1.738,-3.184 -4.738,-4.622 -8.215,-4.622 -5.156,0 -8.222,2.825 -8.222,9.18 v 23.926 h 8.281 v -22.258 c 0,-3.23 1.074,-4.488 3.535,-4.488 2.824,0 4.375,1.734 4.375,5.332 v 21.414 h 8.281 v -32.266 h -7.918 v 3.782" /><path
             id="path118"
             style="fill:#ffffff;fill-opacity:1;fill-rule:nonzero;stroke:none"
             d="m 190.348,390.031 c 0,3.125 -0.606,6.485 -3.723,6.485 -4.07,0 -4.734,-3.606 -4.734,-11.036 0,-7.976 0.722,-11.281 4.433,-11.281 2.762,0 4.024,2.348 4.024,7.563 h 7.91 c 0,-8.457 -3.535,-13.196 -12.285,-13.196 -8.282,0 -12.356,4.012 -12.356,16.973 0,13.25 5.449,16.973 13.067,16.973 7.617,0 11.574,-4.864 11.574,-12.481 h -7.91" /><path
             id="path120"
             style="fill:#ffffff;fill-opacity:1;fill-rule:nonzero;stroke:none"
             d="M 204.086,401.672 H 212 v -4.317 h 0.117 c 1.68,3.118 4.024,5.157 7.442,5.157 0.48,0 1.015,-0.071 1.496,-0.125 v -7.91 c -0.84,0.054 -1.739,0.117 -2.578,0.117 -2.883,0 -6.114,-1.496 -6.114,-5.821 v -19.367 h -8.277 v 32.266" /><path
             id="path122"
             style="fill:#ffffff;fill-opacity:1;fill-rule:nonzero;stroke:none"
             d="m 241.102,389.191 c -0.184,4.922 -0.782,7.676 -4.2,7.676 -3.3,0 -4.257,-3.418 -4.257,-6.418 v -1.258 z m -8.457,-4.914 v -2.578 c 0,-3.777 1.015,-7.5 4.082,-7.5 2.753,0 3.898,2.102 4.375,6.059 h 7.433 c -0.293,-7.492 -3.898,-11.692 -11.691,-11.692 -11.992,0 -12.469,9.239 -12.469,17.278 0,8.633 1.68,16.668 12.832,16.668 9.648,0 11.805,-6.485 11.805,-16.375 v -1.86 h -16.367" /><path
             id="path124"
             style="fill:#ffffff;fill-opacity:1;fill-rule:nonzero;stroke:none"
             d="m 260.906,379.965 v -1.086 c 0,-2.813 1.496,-4.68 4.317,-4.68 2.519,0 4.199,1.262 4.199,3.84 0,2.102 -1.387,3.059 -2.996,3.66 l -5.821,2.102 c -4.562,1.621 -6.894,4.433 -6.894,8.996 0,5.332 3.359,9.715 11.875,9.715 7.488,0 11.035,-3.36 11.035,-9.18 v -1.316 h -7.441 c 0,3.242 -0.957,4.851 -3.653,4.851 -2.101,0 -3.906,-1.191 -3.906,-3.476 0,-1.551 0.84,-2.879 3.602,-3.782 l 4.972,-1.675 c 5.223,-1.743 7.137,-4.375 7.137,-9.231 0,-6.777 -5.039,-10.137 -11.992,-10.137 -9.297,0 -11.875,4.082 -11.875,10.254 v 1.145 h 7.441" /><path
             id="path126"
             style="fill:#ffffff;fill-opacity:1;fill-rule:nonzero;stroke:none"
             d="m 117.867,322.777 v -1.261 c 0,-4.012 1.141,-6.59 5.703,-6.59 2.633,0 5.157,1.679 5.157,5.269 0,3.899 -1.985,5.344 -7.676,7.317 -7.68,2.644 -11.223,5.82 -11.223,12.961 0,8.328 5.098,12.586 13.262,12.586 7.676,0 13.254,-3.289 13.254,-11.512 v -1.192 h -8.281 c 0,4.012 -1.379,6.344 -4.68,6.344 -3.895,0 -4.91,-2.449 -4.91,-4.969 0,-2.636 0.781,-4.257 4.433,-5.82 l 6.66,-2.883 c 6.473,-2.808 8.153,-6.113 8.153,-11.328 0,-9.051 -5.516,-13.133 -14.871,-13.133 -9.778,0 -13.614,4.563 -13.614,12.469 v 1.742 h 8.633" /><path
             id="path128"
             style="fill:#ffffff;fill-opacity:1;fill-rule:nonzero;stroke:none"
             d="m 159.859,313.188 h -0.117 c -1.738,-3.184 -4.738,-4.622 -8.215,-4.622 -5.156,0 -8.222,2.825 -8.222,9.18 v 23.926 h 8.281 v -22.258 c 0,-3.23 1.074,-4.488 3.535,-4.488 2.824,0 4.375,1.734 4.375,5.332 v 21.414 h 8.281 v -32.266 h -7.918 v 3.782" /><path
             id="path130"
             style="fill:#ffffff;fill-opacity:1;fill-rule:nonzero;stroke:none"
             d="m 186.566,316.125 c 3.477,0 4.504,3.777 4.504,9.23 0,7.86 -1.027,10.797 -4.328,10.797 -3.652,0 -4.316,-2.937 -4.316,-11.636 0,-4.438 0.664,-8.391 4.14,-8.391 z m 12.414,25.547 v -30.645 c 0,-8.515 -3.781,-12.656 -13.429,-12.656 -7.02,0 -10.977,3.113 -10.977,8.633 h 7.91 c 0,-1.074 0.489,-1.914 1.262,-2.449 0.781,-0.547 1.746,-0.903 2.762,-0.903 3.359,0 4.562,2.512 4.562,5.813 v 4.258 h -0.129 c -1.679,-2.395 -4.257,-3.953 -6.894,-3.953 -6.594,0 -9.891,4.492 -9.891,16.304 0,7.563 1.141,16.438 10.133,16.438 2.277,0 5.102,-1.082 6.652,-4.446 h 0.129 v 3.606 h 7.91" /><path
             id="path132"
             style="fill:#ffffff;fill-opacity:1;fill-rule:nonzero;stroke:none"
             d="m 221.367,325.539 c -1.144,-0.84 -2.519,-1.379 -3.547,-1.621 -3.347,-0.723 -4.675,-2.332 -4.675,-5.215 0,-2.461 0.906,-4.504 3.125,-4.504 2.214,0 5.097,1.449 5.097,4.985 z m -15.117,6.231 v 0.781 c 0,7.441 5.098,9.961 11.336,9.961 9.836,0 11.691,-4.082 11.691,-9.903 v -16.961 c 0,-3 0.184,-4.386 1.024,-6.242 h -7.918 c -0.539,1.016 -0.781,2.278 -1.016,3.36 h -0.129 c -1.914,-3.36 -4.246,-4.2 -8.211,-4.2 -5.754,0 -7.789,4.922 -7.789,9.239 0,6.054 2.457,8.515 8.149,10.066 l 4.679,1.262 c 2.461,0.664 3.301,1.621 3.301,3.777 0,2.461 -1.086,3.957 -3.84,3.957 -2.519,0 -3.836,-1.679 -3.836,-4.187 v -0.91 h -7.441" /><path
             id="path134"
             style="fill:#ffffff;fill-opacity:1;fill-rule:nonzero;stroke:none"
             d="m 236.66,341.672 h 7.918 v -4.317 h 0.117 c 1.68,3.118 4.024,5.157 7.442,5.157 0.48,0 1.015,-0.071 1.496,-0.125 v -7.91 c -0.84,0.054 -1.738,0.117 -2.578,0.117 -2.883,0 -6.114,-1.496 -6.114,-5.821 v -19.367 h -8.281 v 32.266" /><path
             id="path136"
             style="fill:#ffffff;fill-opacity:1;fill-rule:nonzero;stroke:none"
             d="m 264.207,319.965 v -1.086 c 0,-2.813 1.496,-4.68 4.316,-4.68 2.52,0 4.2,1.262 4.2,3.84 0,2.102 -1.387,3.059 -2.996,3.66 l -5.821,2.102 c -4.562,1.621 -6.894,4.433 -6.894,8.996 0,5.332 3.359,9.715 11.875,9.715 7.488,0 11.035,-3.36 11.035,-9.18 v -1.316 h -7.442 c 0,3.242 -0.957,4.851 -3.652,4.851 -2.101,0 -3.906,-1.191 -3.906,-3.476 0,-1.551 0.84,-2.879 3.601,-3.782 l 4.973,-1.675 c 5.223,-1.743 7.137,-4.375 7.137,-9.231 0,-6.777 -5.039,-10.137 -11.992,-10.137 -9.297,0 -11.875,4.082 -11.875,10.254 v 1.145 h 7.441" /><path
             id="path138"
             style="fill:#231f20;fill-opacity:1;fill-rule:nonzero;stroke:none"
             d="M 62.2578,580.801 V 441.902 H 363.922 V 580.801 H 62.2578" /><path
             id="path140"
             style="fill:#ffffff;fill-opacity:1;fill-rule:nonzero;stroke:none"
             d="m 129.926,551.262 c 0,3.176 -1.446,7.187 -4.922,7.187 -4.199,0 -5.879,-4.316 -5.879,-14.988 0,-10.313 0.969,-16.789 5.938,-16.789 2.042,0 5.343,2.219 5.343,6.836 v 4.375 h -5.703 v 6.355 h 13.973 v -23.086 h -6.356 v 3.957 h -0.117 c -2.043,-3.359 -4.98,-4.793 -8.996,-4.793 -10.613,0 -12.715,7.918 -12.715,22.723 0,14.395 3.36,21.77 14.395,21.77 9.472,0 13.312,-4.856 13.312,-13.547 h -8.273" /><path
             id="path142"
             style="fill:#ffffff;fill-opacity:1;fill-rule:nonzero;stroke:none"
             d="m 145.531,553.422 h 7.922 v -4.317 h 0.117 c 1.676,3.114 4.024,5.157 7.442,5.157 0.476,0 1.015,-0.071 1.492,-0.129 v -7.91 c -0.84,0.058 -1.738,0.117 -2.578,0.117 -2.879,0 -6.113,-1.492 -6.113,-5.82 v -19.368 h -8.282 v 32.27" /><path
             id="path144"
             style="fill:#ffffff;fill-opacity:1;fill-rule:nonzero;stroke:none"
             d="m 182.066,537.285 c -1.144,-0.84 -2.519,-1.375 -3.546,-1.617 -3.348,-0.727 -4.668,-2.336 -4.668,-5.219 0,-2.461 0.898,-4.5 3.117,-4.5 2.215,0 5.097,1.446 5.097,4.981 z m -15.117,6.235 v 0.781 c 0,7.437 5.098,9.961 11.336,9.961 9.836,0 11.692,-4.082 11.692,-9.903 v -16.964 c 0,-2.997 0.183,-4.383 1.023,-6.243 h -7.922 c -0.535,1.02 -0.777,2.278 -1.012,3.364 h -0.128 c -1.915,-3.364 -4.258,-4.2 -8.211,-4.2 -5.754,0 -7.793,4.918 -7.793,9.239 0,6.054 2.461,8.511 8.152,10.066 l 4.68,1.262 c 2.461,0.664 3.3,1.621 3.3,3.777 0,2.461 -1.086,3.953 -3.839,3.953 -2.52,0 -3.836,-1.675 -3.836,-4.187 v -0.906 h -7.442" /><path
             id="path146"
             style="fill:#ffffff;fill-opacity:1;fill-rule:nonzero;stroke:none"
             d="m 203.434,531.711 v -1.082 c 0,-2.813 1.492,-4.68 4.308,-4.68 2.52,0 4.199,1.262 4.199,3.836 0,2.102 -1.386,3.059 -2.996,3.664 l -5.816,2.102 c -4.559,1.621 -6.895,4.433 -6.895,8.992 0,5.332 3.36,9.719 11.871,9.719 7.489,0 11.036,-3.36 11.036,-9.184 v -1.316 h -7.442 c 0,3.242 -0.957,4.851 -3.652,4.851 -2.094,0 -3.902,-1.187 -3.902,-3.472 0,-1.555 0.839,-2.871 3.597,-3.782 l 4.973,-1.679 c 5.223,-1.739 7.137,-4.375 7.137,-9.231 0,-6.773 -5.039,-10.133 -11.993,-10.133 -9.289,0 -11.867,4.082 -11.867,10.25 v 1.145 h 7.442" /><path
             id="path148"
             style="fill:#ffffff;fill-opacity:1;fill-rule:nonzero;stroke:none"
             d="m 247.469,531.711 v -1.082 c 0,-2.813 1.496,-4.68 4.316,-4.68 2.52,0 4.199,1.262 4.199,3.836 0,2.102 -1.386,3.059 -2.996,3.664 l -5.82,2.102 c -4.563,1.621 -6.895,4.433 -6.895,8.992 0,5.332 3.36,9.719 11.875,9.719 7.489,0 11.036,-3.36 11.036,-9.184 v -1.316 h -7.442 c 0,3.242 -0.957,4.851 -3.652,4.851 -2.102,0 -3.906,-1.187 -3.906,-3.472 0,-1.555 0.839,-2.871 3.601,-3.782 l 4.973,-1.679 c 5.222,-1.739 7.137,-4.375 7.137,-9.231 0,-6.773 -5.04,-10.133 -11.993,-10.133 -9.297,0 -11.875,4.082 -11.875,10.25 v 1.145 h 7.442" /><path
             id="path150"
             style="fill:#ffffff;fill-opacity:1;fill-rule:nonzero;stroke:none"
             d="m 284.598,537.285 c -1.141,-0.84 -2.52,-1.375 -3.543,-1.617 -3.352,-0.727 -4.668,-2.336 -4.668,-5.219 0,-2.461 0.898,-4.5 3.113,-4.5 2.219,0 5.098,1.446 5.098,4.981 z m -15.118,6.235 v 0.781 c 0,7.437 5.098,9.961 11.34,9.961 9.832,0 11.688,-4.082 11.688,-9.903 v -16.964 c 0,-2.997 0.187,-4.383 1.027,-6.243 h -7.922 c -0.535,1.02 -0.781,2.278 -1.015,3.364 h -0.125 c -1.914,-3.364 -4.258,-4.2 -8.215,-4.2 -5.75,0 -7.793,4.918 -7.793,9.239 0,6.054 2.461,8.511 8.156,10.066 l 4.676,1.262 c 2.461,0.664 3.301,1.621 3.301,3.777 0,2.461 -1.082,3.953 -3.836,3.953 -2.52,0 -3.84,-1.675 -3.84,-4.187 v -0.906 h -7.442" /><path
             id="path152"
             style="fill:#ffffff;fill-opacity:1;fill-rule:nonzero;stroke:none"
             d="m 301.707,562.648 h 8.273 v -9.226 h 4.793 v -5.645 h -4.793 v -17.441 c 0,-2.52 0.536,-3.547 2.938,-3.547 0.664,0 1.32,0.059 1.855,0.129 v -5.766 c -1.796,-0.172 -3.476,-0.359 -5.39,-0.359 -6.473,0 -7.676,1.984 -7.676,8.516 v 18.468 h -4.199 v 5.645 h 4.199 v 9.226" /><path
             id="path154"
             style="fill:#ffffff;fill-opacity:1;fill-rule:nonzero;stroke:none"
             d="m 327.559,530.512 v -9.36 h -7.911 v 9.36 h 7.911" /><path
             id="path156"
             style="fill:#ffffff;fill-opacity:1;fill-rule:nonzero;stroke:none"
             d="m 117.867,474.523 v -1.257 c 0,-4.016 1.141,-6.594 5.703,-6.594 2.633,0 5.157,1.68 5.157,5.273 0,3.899 -1.985,5.34 -7.676,7.317 -7.68,2.644 -11.223,5.816 -11.223,12.957 0,8.332 5.098,12.59 13.262,12.59 7.676,0 13.254,-3.293 13.254,-11.516 v -1.191 h -8.281 c 0,4.011 -1.379,6.347 -4.68,6.347 -3.895,0 -4.91,-2.453 -4.91,-4.969 0,-2.636 0.781,-4.257 4.433,-5.824 l 6.66,-2.879 c 6.473,-2.812 8.153,-6.113 8.153,-11.328 0,-9.051 -5.516,-13.133 -14.871,-13.133 -9.778,0 -13.614,4.559 -13.614,12.469 v 1.738 h 8.633" /><path
             id="path158"
             style="fill:#ffffff;fill-opacity:1;fill-rule:nonzero;stroke:none"
             d="m 158.363,477.285 c -1.14,-0.84 -2.519,-1.375 -3.543,-1.617 -3.351,-0.727 -4.679,-2.336 -4.679,-5.219 0,-2.461 0.91,-4.5 3.125,-4.5 2.218,0 5.097,1.446 5.097,4.981 z m -15.117,6.235 v 0.781 c 0,7.437 5.098,9.961 11.34,9.961 9.832,0 11.687,-4.082 11.687,-9.903 v -16.964 c 0,-2.997 0.188,-4.383 1.028,-6.243 h -7.922 c -0.535,1.02 -0.781,2.278 -1.016,3.364 h -0.125 c -1.914,-3.364 -4.25,-4.2 -8.215,-4.2 -5.75,0 -7.793,4.918 -7.793,9.239 0,6.054 2.461,8.511 8.157,10.066 l 4.676,1.262 c 2.46,0.664 3.3,1.621 3.3,3.777 0,2.461 -1.082,3.953 -3.836,3.953 -2.519,0 -3.839,-1.675 -3.839,-4.187 v -0.906 h -7.442" /><path
             id="path160"
             style="fill:#ffffff;fill-opacity:1;fill-rule:nonzero;stroke:none"
             d="m 175.473,502.648 h 8.273 v -9.226 h 4.793 v -5.645 h -4.793 v -17.441 c 0,-2.52 0.535,-3.547 2.938,-3.547 0.664,0 1.32,0.059 1.855,0.129 v -5.766 c -1.797,-0.172 -3.476,-0.359 -5.391,-0.359 -6.484,0 -7.675,1.984 -7.675,8.516 v 18.468 h -4.2 v 5.645 h 4.2 v 9.226" /><path
             id="path162"
             style="fill:#ffffff;fill-opacity:1;fill-rule:nonzero;stroke:none"
             d="m 210.625,487.777 h -4.199 v 5.645 h 4.199 v 3.648 c 0,5.825 3.289,7.739 8.633,7.739 1.492,0 2.937,-0.063 4.433,-0.176 v -5.879 c -0.539,0.059 -1.074,0.059 -1.613,0.059 -2.344,0 -3.183,-0.715 -3.183,-2.579 v -2.812 h 4.796 v -5.645 h -4.796 v -26.625 h -8.27 v 26.625" /><path
             id="path164"
             style="fill:#ffffff;fill-opacity:1;fill-rule:nonzero;stroke:none"
             d="m 241.941,477.285 c -1.14,-0.84 -2.519,-1.375 -3.543,-1.617 -3.351,-0.727 -4.668,-2.336 -4.668,-5.219 0,-2.461 0.899,-4.5 3.114,-4.5 2.219,0 5.097,1.446 5.097,4.981 z m -15.117,6.235 v 0.781 c 0,7.437 5.098,9.961 11.34,9.961 9.832,0 11.688,-4.082 11.688,-9.903 v -16.964 c 0,-2.997 0.187,-4.383 1.027,-6.243 h -7.922 c -0.535,1.02 -0.781,2.278 -1.016,3.364 h -0.125 c -1.914,-3.364 -4.257,-4.2 -8.214,-4.2 -5.75,0 -7.793,4.918 -7.793,9.239 0,6.054 2.461,8.511 8.156,10.066 l 4.676,1.262 c 2.461,0.664 3.3,1.621 3.3,3.777 0,2.461 -1.082,3.953 -3.836,3.953 -2.519,0 -3.839,-1.675 -3.839,-4.187 v -0.906 h -7.442" /><path
             id="path166"
             style="fill:#ffffff;fill-opacity:1;fill-rule:nonzero;stroke:none"
             d="m 259.051,502.648 h 8.273 v -9.226 h 4.793 v -5.645 h -4.793 v -17.441 c 0,-2.52 0.535,-3.547 2.938,-3.547 0.664,0 1.32,0.059 1.855,0.129 v -5.766 c -1.797,-0.172 -3.476,-0.359 -5.39,-0.359 -6.473,0 -7.676,1.984 -7.676,8.516 v 18.468 h -4.199 v 5.645 h 4.199 v 9.226" /><path
             id="path168"
             style="fill:#231f20;fill-opacity:1;fill-rule:nonzero;stroke:none"
             d="m 113.738,637.453 c -11.734,-19.988 -37.4724,-26.691 -57.4411,-14.957 -19.9883,11.734 -26.6953,37.496 -14.961,57.488 11.7383,19.965 37.2774,26.621 57.4883,14.938 20.2068,-11.664 26.6718,-37.496 14.9138,-57.469 z m -8.023,69.574 C 79.0586,722.688 45.0781,713.824 29.3984,687.164 15.6836,663.504 20.9258,633.926 40.8398,616.777 L 18.418,579.102 c -2.2305,-3.809 -0.8399,-8.704 3.0586,-10.77 l 5.3828,-2.848 c 3.707,-1.961 8.3047,-0.617 10.3711,3.036 L 58.5,606.395 c 24.9258,-8.973 53.297,0.847 67.078,24.316 15.637,26.652 6.817,60.66 -19.863,76.316" /></g></g></g></g></svg>