<?xml version="1.0" encoding="UTF-8" standalone="no"?>
<svg
   xmlns:dc="http://purl.org/dc/elements/1.1/"
   xmlns:cc="http://creativecommons.org/ns#"
   xmlns:rdf="http://www.w3.org/1999/02/22-rdf-syntax-ns#"
   xmlns:svg="http://www.w3.org/2000/svg"
   xmlns="http://www.w3.org/2000/svg"
   viewBox="0 0 51.779732 32.125998"
   height="32.125999"
   width="51.779732"
   xml:space="preserve"
   id="svg2"
   version="1.1"><metadata
     id="metadata8"><rdf:RDF><cc:Work
         rdf:about=""><dc:format>image/svg+xml</dc:format><dc:type
           rdf:resource="http://purl.org/dc/dcmitype/StillImage" /></cc:Work></rdf:RDF></metadata><defs
     id="defs6"><clipPath
       id="clipPath20"
       clipPathUnits="userSpaceOnUse"><path
         id="path18"
         d="M 0,0 H 388.348 V 240.945 H 0 Z" /></clipPath></defs><g
     transform="matrix(1.3333333,0,0,-1.3333333,0,32.125999)"
     id="g10"><g
       transform="scale(0.1)"
       id="g12"><g
         id="g14"><g
           clip-path="url(#clipPath20)"
           id="g16"><path
             id="path22"
             style="fill:#ffffff;fill-opacity:1;fill-rule:nonzero;stroke:none"
             d="M 2.49609,238.344 385.848,238.445 V 2.60547 L 2.49609,2.49609 V 238.344" /><path
             id="path24"
             style="fill:#231f20;fill-opacity:1;fill-rule:nonzero;stroke:none"
             d="M 388.348,240.945 0,240.844 V 0 l 388.348,0.101563 z m -5,-5.004 V 5.10156 L 5,5 v 230.844 l 378.348,0.097" /><path
             id="path26"
             style="fill:#231f20;fill-opacity:1;fill-rule:nonzero;stroke:none"
             d="m 62.1758,51.6445 c 0,4.4922 -1.6211,7.6055 -6.6602,7.6055 -4.4336,0 -7.0742,-2.3906 -7.0742,-6.9531 0,-12.0508 20.2109,-4.8516 20.2109,-20.5078 0,-9.8907 -7.2578,-12.7149 -13.3164,-12.7149 -10.0156,0 -12.9492,5.1563 -12.9492,14.2774 h 5.2735 c 0,-4.8047 0.3046,-9.961 8.0351,-9.961 4.1992,0 7.4375,3 7.4375,7.5586 0,12.1211 -20.207,5.0977 -20.207,20.8125 0,3.9531 1.6758,11.8164 12.5312,11.8164 8.1563,0 11.875,-4.082 11.9922,-11.9336 h -5.2734" /><path
             id="path28"
             style="fill:#231f20;fill-opacity:1;fill-rule:nonzero;stroke:none"
             d="m 88.5625,37.4258 c -1.8594,-1.9727 -6.2969,-2.3945 -8.5781,-3.7813 -1.6172,-1.0156 -2.4571,-2.2734 -2.4571,-5.0976 0,-3.2305 1.1368,-5.5078 4.5586,-5.5078 3.3008,0 6.4766,2.8125 6.4766,6.1132 z m -15.5312,4.9219 c 0,7.3125 3.1132,10.5546 10.789,10.5546 9.7774,0 9.7774,-5.8789 9.7774,-9.2382 V 25.7344 c 0,-1.3164 0,-2.5781 1.5625,-2.5781 0.6601,0 0.957,0.1171 1.1953,0.3046 V 19.8555 C 96,19.7969 94.6758,19.5547 93.418,19.5547 c -1.9219,0 -4.3164,0 -4.5586,4.1406 h -0.1211 c -1.6172,-2.8828 -4.7344,-4.6211 -7.7344,-4.6211 -5.9961,0 -8.7539,3.6055 -8.7539,9.3555 0,4.5039 1.918,7.6172 6.0586,8.8789 l 6.7734,2.0391 c 3.6563,1.1328 3.6563,2.1601 3.6563,4.8554 0,2.9961 -1.7969,4.7344 -5.1563,4.7344 -5.5156,0 -5.5156,-5.1562 -5.5156,-6.2891 v -0.3007 h -5.0351" /><path
             id="path30"
             style="fill:#231f20;fill-opacity:1;fill-rule:nonzero;stroke:none"
             d="m 100.438,52.0625 h 4.8 v -3.7773 h 0.121 c 1.321,2.9375 4.672,4.6171 7.793,4.6171 8.457,0 8.457,-6.414 8.457,-10.1953 V 19.9141 h -5.039 v 22.1875 c 0,2.4609 -0.179,6.4765 -4.734,6.4765 -2.699,0 -6.359,-1.7968 -6.359,-6.4765 V 19.9141 h -5.039 v 32.1484" /><path
             id="path32"
             style="fill:#231f20;fill-opacity:1;fill-rule:nonzero;stroke:none"
             d="m 129.707,61.418 h 5.039 v -9.3555 h 5.574 v -3.9648 h -5.574 v -20.625 c 0,-2.5782 0.656,-3.5938 3.301,-3.5938 1.078,0 1.676,0.1172 2.215,0.1758 v -4.1406 c -0.66,-0.1172 -1.977,-0.3594 -4.078,-0.3594 -5.219,0 -6.477,2.1562 -6.477,6.3555 v 22.1875 h -4.676 v 3.9648 h 4.676 v 9.3555" /><path
             id="path34"
             style="fill:#231f20;fill-opacity:1;fill-rule:nonzero;stroke:none"
             d="m 154.953,65.0117 h 5.883 l -6.481,-8.5156 h -3.597 z m 4.621,-25.664 v 1.7382 c 0,3.5938 -1.14,7.8516 -5.578,7.8516 -5.277,0 -5.879,-6.4727 -5.879,-8.3867 v -1.2031 z m -11.636,-3.9532 c 0,-4.9218 0,-12.3554 6.175,-12.3554 4.801,0 5.461,5.0312 5.461,7.4336 h 5.035 c 0,-3.418 -2.039,-11.3985 -10.793,-11.3985 -7.855,0 -11.156,5.461 -11.156,16.4961 0,8.0352 1.563,17.332 11.453,17.332 9.836,0 10.735,-8.582 10.735,-15.4765 v -2.0313 h -16.91" /><path
             id="path36"
             style="fill:#231f20;fill-opacity:1;fill-rule:nonzero;stroke:none"
             d="m 211.145,34.6133 c -0.477,-8.0977 -3.657,-15.5391 -13.012,-15.5391 -12.172,0 -13.789,11.4571 -13.789,22.2461 0,10.8008 1.976,22.2578 13.789,22.2578 8.758,0 12.406,-4.9218 12.652,-13.3203 h -5.512 c -0.125,4.8633 -1.679,8.9922 -7.14,8.9922 -7.313,0 -8.278,-8.0273 -8.278,-17.9297 0,-9.8906 0.965,-17.9297 8.278,-17.9297 6.418,0 7.316,5.9961 7.496,11.2227 h 5.516" /><path
             id="path38"
             style="fill:#231f20;fill-opacity:1;fill-rule:nonzero;stroke:none"
             d="m 230.641,37.4258 c -1.868,-1.9727 -6.301,-2.3945 -8.586,-3.7813 -1.614,-1.0156 -2.453,-2.2734 -2.453,-5.0976 0,-3.2305 1.132,-5.5078 4.55,-5.5078 3.301,0 6.489,2.8125 6.489,6.1132 z m -15.539,4.9219 c 0,7.3125 3.117,10.5546 10.789,10.5546 9.777,0 9.777,-5.8789 9.777,-9.2382 V 25.7344 c 0,-1.3164 0,-2.5781 1.562,-2.5781 0.665,0 0.958,0.1171 1.204,0.3046 v -3.6054 c -0.364,-0.0586 -1.68,-0.3008 -2.942,-0.3008 -1.926,0 -4.316,0 -4.558,4.1406 h -0.121 c -1.622,-2.8828 -4.735,-4.6211 -7.735,-4.6211 -5.992,0 -8.758,3.6055 -8.758,9.3555 0,4.5039 1.922,7.6172 6.067,8.8789 l 6.765,2.0391 c 3.661,1.1328 3.661,2.1601 3.661,4.8554 0,2.9961 -1.797,4.7344 -5.157,4.7344 -5.515,0 -5.515,-5.1562 -5.515,-6.2891 v -0.3007 h -5.039" /><path
             id="path40"
             style="fill:#231f20;fill-opacity:1;fill-rule:nonzero;stroke:none"
             d="m 242.516,52.0625 h 4.793 v -3.7773 h 0.125 c 1.32,2.9375 4.668,4.6171 7.793,4.6171 8.457,0 8.457,-6.414 8.457,-10.1953 V 19.9141 h -5.039 v 22.1875 c 0,2.4609 -0.184,6.4765 -4.735,6.4765 -2.707,0 -6.355,-1.7968 -6.355,-6.4765 V 19.9141 h -5.039 v 32.1484" /><path
             id="path42"
             style="fill:#231f20;fill-opacity:1;fill-rule:nonzero;stroke:none"
             d="m 285.031,37.4258 c -1.851,-1.9727 -6.297,-2.3945 -8.57,-3.7813 -1.621,-1.0156 -2.465,-2.2734 -2.465,-5.0976 0,-3.2305 1.145,-5.5078 4.563,-5.5078 3.3,0 6.472,2.8125 6.472,6.1132 z m -15.523,4.9219 c 0,7.3125 3.113,10.5546 10.789,10.5546 9.773,0 9.773,-5.8789 9.773,-9.2382 V 25.7344 c 0,-1.3164 0,-2.5781 1.567,-2.5781 0.652,0 0.957,0.1171 1.187,0.3046 v -3.6054 c -0.351,-0.0586 -1.679,-0.3008 -2.937,-0.3008 -1.914,0 -4.317,0 -4.551,4.1406 h -0.125 c -1.613,-2.8828 -4.738,-4.6211 -7.738,-4.6211 -5.996,0 -8.75,3.6055 -8.75,9.3555 0,4.5039 1.918,7.6172 6.054,8.8789 l 6.782,2.0391 c 3.652,1.1328 3.652,2.1601 3.652,4.8554 0,2.9961 -1.801,4.7344 -5.156,4.7344 -5.52,0 -5.52,-5.1562 -5.52,-6.2891 v -0.3007 h -5.027" /><path
             id="path44"
             style="fill:#231f20;fill-opacity:1;fill-rule:nonzero;stroke:none"
             d="m 306.859,23.3906 c 5.575,0 6.485,5.2852 6.485,12.5977 0,6.2422 -1.082,12.5898 -6.485,12.5898 -4.675,0 -5.871,-4.914 -5.871,-12.5898 0,-7.6758 1.196,-12.5977 5.871,-12.5977 z m 11.219,-3.4765 h -4.805 v 3.9648 h -0.117 c -0.652,-2.4023 -3.472,-4.8047 -6.953,-4.8047 -7.613,0 -10.496,6.7774 -10.496,16.9141 0,6.7187 1.086,16.914 10.137,16.914 2.879,0 5.937,-1.7382 7.082,-4.5 h 0.117 v 14.336 h 5.035 V 19.9141" /><path
             id="path46"
             style="fill:#231f20;fill-opacity:1;fill-rule:nonzero;stroke:none"
             d="m 339.43,37.4258 c -1.86,-1.9727 -6.301,-2.3945 -8.578,-3.7813 -1.622,-1.0156 -2.461,-2.2734 -2.461,-5.0976 0,-3.2305 1.144,-5.5078 4.562,-5.5078 3.301,0 6.477,2.8125 6.477,6.1132 z m -15.532,4.9219 c 0,7.3125 3.118,10.5546 10.793,10.5546 9.778,0 9.778,-5.8789 9.778,-9.2382 V 25.7344 c 0,-1.3164 0,-2.5781 1.558,-2.5781 0.657,0 0.957,0.1171 1.196,0.3046 v -3.6054 c -0.356,-0.0586 -1.68,-0.3008 -2.942,-0.3008 -1.914,0 -4.316,0 -4.551,4.1406 h -0.128 c -1.61,-2.8828 -4.735,-4.6211 -7.735,-4.6211 -5.996,0 -8.75,3.6055 -8.75,9.3555 0,4.5039 1.914,7.6172 6.059,8.8789 l 6.773,2.0391 c 3.653,1.1328 3.653,2.1601 3.653,4.8554 0,2.9961 -1.793,4.7344 -5.157,4.7344 -5.515,0 -5.515,-5.1562 -5.515,-6.2891 v -0.3007 h -5.032" /><path
             id="path48"
             style="fill:#231f20;fill-opacity:1;fill-rule:nonzero;stroke:none"
             d="m 148.074,230.414 h 8.274 l -5.871,-8.644 h -5.645 z m 12.414,-11.164 v -7.07 h -15.293 v -10.078 h 14.395 v -7.071 H 145.195 V 183.52 h 15.899 v -7.082 h -24.531 v 42.812 h 23.925" /><path
             id="path50"
             style="fill:#231f20;fill-opacity:1;fill-rule:nonzero;stroke:none"
             d="m 166.973,219.25 h 8.281 v -42.812 h -8.281 v 42.812" /><path
             id="path52"
             style="fill:#231f20;fill-opacity:1;fill-rule:nonzero;stroke:none"
             d="m 198.105,196.223 c -0.187,4.922 -0.781,7.675 -4.199,7.675 -3.301,0 -4.258,-3.418 -4.258,-6.414 v -1.261 z m -8.457,-4.91 v -2.579 c 0,-3.781 1.016,-7.5 4.082,-7.5 2.754,0 3.895,2.098 4.375,6.055 h 7.43 c -0.293,-7.492 -3.894,-11.691 -11.687,-11.691 -11.993,0 -12.473,9.238 -12.473,17.277 0,8.633 1.68,16.668 12.832,16.668 9.648,0 11.809,-6.484 11.809,-16.375 v -1.855 h -16.368" /><path
             id="path54"
             style="fill:#231f20;fill-opacity:1;fill-rule:nonzero;stroke:none"
             d="m 227.141,208.703 h 8.285 l -8.098,-32.265 h -9.601 l -8.329,32.265 h 8.633 l 4.617,-23.086 h 0.118 l 4.375,23.086" /><path
             id="path56"
             style="fill:#231f20;fill-opacity:1;fill-rule:nonzero;stroke:none"
             d="m 250.473,221.117 h 8.269 l -5.867,-8.633 h -5.645 z m 5.039,-24.894 c -0.188,4.922 -0.782,7.675 -4.199,7.675 -3.301,0 -4.258,-3.418 -4.258,-6.414 v -1.261 z m -8.457,-4.91 v -2.579 c 0,-3.781 1.015,-7.5 4.082,-7.5 2.754,0 3.894,2.098 4.375,6.055 h 7.429 c -0.293,-7.492 -3.894,-11.691 -11.687,-11.691 -11.992,0 -12.473,9.238 -12.473,17.277 0,8.633 1.684,16.668 12.832,16.668 9.653,0 11.809,-6.484 11.809,-16.375 v -1.855 h -16.367" /><path
             id="path58"
             style="fill:#231f20;fill-opacity:1;fill-rule:nonzero;stroke:none"
             d="m 300.688,196.223 c -0.184,4.922 -0.782,7.675 -4.2,7.675 -3.3,0 -4.258,-3.418 -4.258,-6.414 v -1.261 z m -8.458,-4.91 v -2.579 c 0,-3.781 1.016,-7.5 4.083,-7.5 2.753,0 3.898,2.098 4.375,6.055 h 7.429 c -0.293,-7.492 -3.894,-11.691 -11.687,-11.691 -11.992,0 -12.469,9.238 -12.469,17.277 0,8.633 1.68,16.668 12.832,16.668 9.645,0 11.805,-6.484 11.805,-16.375 v -1.855 H 292.23" /><path
             id="path60"
             style="fill:#231f20;fill-opacity:1;fill-rule:nonzero;stroke:none"
             d="m 314.43,208.703 h 7.918 v -3.777 h 0.117 c 1.738,3.172 4.734,4.617 8.223,4.617 5.156,0 8.21,-2.82 8.21,-9.18 v -23.925 h -8.281 v 22.246 c 0,3.242 -1.07,4.504 -3.531,4.504 -2.816,0 -4.375,-1.739 -4.375,-5.344 v -21.406 h -8.281 v 32.265" /><path
             id="path62"
             style="fill:#231f20;fill-opacity:1;fill-rule:nonzero;stroke:none"
             d="M 116.68,153.559 V 79.957 l 253.691,0.1016 V 153.66 L 116.68,153.559" /><path
             id="path64"
             style="fill:#ffffff;fill-opacity:1;fill-rule:nonzero;stroke:none"
             d="m 143.133,110.109 v -1.257 c 0,-4.016 1.144,-6.594 5.703,-6.594 2.637,0 5.156,1.68 5.156,5.273 0,3.899 -1.98,5.344 -7.676,7.317 -7.675,2.644 -11.218,5.82 -11.218,12.957 0,8.332 5.097,12.59 13.261,12.59 7.676,0 13.25,-3.293 13.25,-11.516 v -1.191 h -8.281 c 0,4.015 -1.375,6.347 -4.676,6.347 -3.898,0 -4.914,-2.449 -4.914,-4.969 0,-2.636 0.782,-4.257 4.434,-5.82 l 6.66,-2.883 c 6.477,-2.812 8.156,-6.113 8.156,-11.328 0,-9.0506 -5.519,-13.1327 -14.875,-13.1327 -9.773,0 -13.613,4.5587 -13.613,12.4687 v 1.738 h 8.633" /><path
             id="path66"
             style="fill:#ffffff;fill-opacity:1;fill-rule:nonzero;stroke:none"
             d="m 185.125,100.52 h -0.117 c -1.738,-3.1841 -4.735,-4.6177 -8.211,-4.6177 -5.156,0 -8.223,2.8204 -8.223,9.1797 v 23.926 h 8.281 V 106.75 c 0,-3.23 1.075,-4.492 3.536,-4.492 2.82,0 4.375,1.738 4.375,5.332 v 21.418 h 8.281 V 96.7422 h -7.922 v 3.7778" /><path
             id="path68"
             style="fill:#ffffff;fill-opacity:1;fill-rule:nonzero;stroke:none"
             d="m 215.598,117.367 c 0,3.125 -0.606,6.485 -3.719,6.485 -4.066,0 -4.731,-3.606 -4.731,-11.036 0,-7.98 0.723,-11.281 4.426,-11.281 2.766,0 4.024,2.344 4.024,7.559 h 7.914 c 0,-8.457 -3.539,-13.1917 -12.289,-13.1917 -8.274,0 -12.348,4.0118 -12.348,16.9727 0,13.25 5.449,16.973 13.063,16.973 7.617,0 11.574,-4.864 11.574,-12.481 h -7.914" /><path
             id="path70"
             style="fill:#ffffff;fill-opacity:1;fill-rule:nonzero;stroke:none"
             d="m 229.328,129.008 h 7.922 v -4.317 h 0.117 c 1.68,3.114 4.024,5.157 7.442,5.157 0.476,0 1.015,-0.071 1.496,-0.129 v -7.91 c -0.84,0.058 -1.742,0.117 -2.582,0.117 -2.879,0 -6.114,-1.492 -6.114,-5.821 V 96.7422 h -8.281 v 32.2658" /><path
             id="path72"
             style="fill:#ffffff;fill-opacity:1;fill-rule:nonzero;stroke:none"
             d="m 266.344,116.527 c -0.188,4.922 -0.785,7.676 -4.203,7.676 -3.297,0 -4.254,-3.418 -4.254,-6.418 v -1.258 z m -8.457,-4.914 v -2.578 c 0,-3.777 1.011,-7.5 4.082,-7.5 2.754,0 3.894,2.102 4.375,6.055 h 7.429 c -0.293,-7.488 -3.894,-11.6877 -11.687,-11.6877 -11.992,0 -12.473,9.2387 -12.473,17.2737 0,8.633 1.68,16.672 12.832,16.672 9.649,0 11.809,-6.485 11.809,-16.379 v -1.856 h -16.367" /><path
             id="path74"
             style="fill:#ffffff;fill-opacity:1;fill-rule:nonzero;stroke:none"
             d="m 286.145,107.297 v -1.082 c 0,-2.813 1.496,-4.68 4.32,-4.68 2.515,0 4.195,1.262 4.195,3.84 0,2.098 -1.387,3.055 -2.996,3.66 l -5.82,2.102 c -4.563,1.621 -6.895,4.433 -6.895,8.992 0,5.332 3.36,9.719 11.875,9.719 7.489,0 11.035,-3.36 11.035,-9.18 v -1.32 h -7.441 c 0,3.242 -0.957,4.855 -3.66,4.855 -2.09,0 -3.899,-1.191 -3.899,-3.476 0,-1.555 0.84,-2.883 3.606,-3.782 l 4.969,-1.679 c 5.222,-1.739 7.136,-4.375 7.136,-9.227 0,-6.7773 -5.039,-10.1367 -11.992,-10.1367 -9.297,0 -11.875,4.0821 -11.875,10.2537 v 1.141 h 7.442" /><path
             id="path76"
             style="fill:#231f20;fill-opacity:1;fill-rule:nonzero;stroke:none"
             d="M 92.4609,162.691 C 83.8555,148.039 64.9883,143.125 50.3516,151.73 c -14.6524,8.602 -19.5664,27.485 -10.9649,42.137 8.6016,14.641 27.3242,19.52 42.1406,10.953 14.8125,-8.55 19.5507,-27.488 10.9336,-42.129 z m -5.8828,51.004 C 67.0391,225.176 42.1289,218.676 30.6328,199.133 20.582,181.785 24.4219,160.105 39.0234,147.539 L 22.5859,119.918 c -1.6367,-2.789 -0.6132,-6.383 2.2422,-7.895 l 3.9453,-2.085 c 2.7188,-1.442 6.086,-0.454 7.6016,2.222 l 15.5898,27.766 c 18.2735,-6.578 39.0704,0.621 49.1762,17.824 11.461,19.539 4.992,44.469 -14.5629,55.945" /></g></g></g></g></svg>