<?xml version="1.0" encoding="UTF-8" standalone="no"?>
<svg
   xmlns:dc="http://purl.org/dc/elements/1.1/"
   xmlns:cc="http://creativecommons.org/ns#"
   xmlns:rdf="http://www.w3.org/1999/02/22-rdf-syntax-ns#"
   xmlns:svg="http://www.w3.org/2000/svg"
   xmlns="http://www.w3.org/2000/svg"
   viewBox="0 0 51.779732 45.354132"
   height="45.354134"
   width="51.779732"
   xml:space="preserve"
   id="svg2"
   version="1.1"><metadata
     id="metadata8"><rdf:RDF><cc:Work
         rdf:about=""><dc:format>image/svg+xml</dc:format><dc:type
           rdf:resource="http://purl.org/dc/dcmitype/StillImage" /></cc:Work></rdf:RDF></metadata><defs
     id="defs6"><clipPath
       id="clipPath20"
       clipPathUnits="userSpaceOnUse"><path
         id="path18"
         d="M 0,0 H 388.348 V 340.156 H 0 Z" /></clipPath></defs><g
     transform="matrix(1.3333333,0,0,-1.3333333,0,45.354132)"
     id="g10"><g
       transform="scale(0.1)"
       id="g12"><g
         id="g14"><g
           clip-path="url(#clipPath20)"
           id="g16"><path
             id="path22"
             style="fill:#ffffff;fill-opacity:1;fill-rule:nonzero;stroke:none"
             d="M 2.5,337.547 385.82,337.656 385.848,2.61328 2.52344,2.50391 2.5,337.547" /><path
             id="path24"
             style="fill:#231f20;fill-opacity:1;fill-rule:nonzero;stroke:none"
             d="M 388.324,340.156 0,340.051 0.0234375,0 388.348,0.105469 Z m -5,-5 L 383.348,5.10547 5.02344,5.00391 5,335.051 l 378.324,0.105" /><path
             id="path26"
             style="fill:#231f20;fill-opacity:1;fill-rule:nonzero;stroke:none"
             d="m 62.0898,60.5391 c 0,4.5 -1.621,7.6172 -6.6601,7.6172 -4.4336,0 -7.0781,-2.4024 -7.0781,-6.9532 0,-12.0625 20.2109,-4.8633 20.2109,-20.5078 0,-9.9023 -7.2539,-12.7148 -13.3164,-12.7148 -10.0117,0 -12.9453,5.1562 -12.9453,14.2656 h 5.2695 c 0,-4.793 0.3047,-9.9492 8.0391,-9.9492 4.1992,0 7.4375,2.9961 7.4375,7.5586 0,12.1093 -20.211,5.0976 -20.211,20.8008 0,3.9648 1.6797,11.8164 12.5352,11.8164 8.1523,0 11.875,-4.0743 11.9922,-11.9336 h -5.2735" /><path
             id="path28"
             style="fill:#231f20;fill-opacity:1;fill-rule:nonzero;stroke:none"
             d="m 88.4883,46.3281 c -1.8594,-1.9804 -6.2969,-2.4023 -8.5781,-3.7773 -1.6133,-1.0156 -2.4571,-2.2774 -2.4571,-5.0977 0,-3.2422 1.1407,-5.5195 4.5586,-5.5195 3.3008,0 6.4766,2.8242 6.4766,6.1133 z M 72.957,51.2422 c 0,7.3242 3.1172,10.5547 10.793,10.5547 9.7734,0 9.7734,-5.8789 9.7734,-9.2383 V 34.6289 c 0,-1.3164 0,-2.5781 1.5625,-2.5781 0.6602,0 0.9571,0.1289 1.1954,0.3047 v -3.5938 c -0.3555,-0.0703 -1.6797,-0.3047 -2.9375,-0.3047 -1.918,0 -4.3165,0 -4.5547,4.1407 h -0.1172 c -1.6211,-2.8789 -4.7422,-4.6172 -7.7383,-4.6172 -6,0 -8.7578,3.5937 -8.7578,9.3554 0,4.4922 1.9219,7.6172 6.0586,8.875 l 6.7734,2.0313 c 3.6641,1.1445 3.6641,2.1601 3.6641,4.8633 0,3 -1.8047,4.7383 -5.1602,4.7383 -5.5195,0 -5.5195,-5.1563 -5.5195,-6.3008 V 51.2422 H 72.957" /><path
             id="path30"
             style="fill:#231f20;fill-opacity:1;fill-rule:nonzero;stroke:none"
             d="m 100.375,60.957 h 4.801 v -3.7773 h 0.121 c 1.316,2.9375 4.672,4.6172 7.793,4.6172 8.457,0 8.457,-6.4141 8.457,-10.1953 V 28.8203 h -5.039 v 22.1875 c 0,2.461 -0.18,6.4727 -4.738,6.4727 -2.7,0 -6.356,-1.7969 -6.356,-6.4727 V 28.8203 h -5.039 V 60.957" /><path
             id="path32"
             style="fill:#231f20;fill-opacity:1;fill-rule:nonzero;stroke:none"
             d="m 129.656,70.3125 h 5.035 V 60.957 h 5.575 v -3.9531 h -5.575 V 36.3672 c 0,-2.5781 0.661,-3.5938 3.301,-3.5938 1.078,0 1.676,0.1172 2.219,0.1758 v -4.1289 c -0.66,-0.1289 -1.981,-0.3633 -4.078,-0.3633 -5.223,0 -6.477,2.1602 -6.477,6.3594 v 22.1875 h -4.676 v 3.9531 h 4.676 v 9.3555" /><path
             id="path34"
             style="fill:#231f20;fill-opacity:1;fill-rule:nonzero;stroke:none"
             d="m 154.906,73.918 h 5.879 l -6.48,-8.5157 h -3.598 z m 4.617,-25.6758 v 1.7383 c 0,3.6054 -1.14,7.8633 -5.574,7.8633 -5.277,0 -5.879,-6.4766 -5.879,-8.3985 v -1.2031 z m -11.632,-3.9531 c 0,-4.9141 0,-12.3555 6.175,-12.3555 4.801,0 5.457,5.0391 5.457,7.4414 h 5.036 c 0,-3.4258 -2.036,-11.3945 -10.789,-11.3945 -7.86,0 -11.161,5.457 -11.161,16.4843 0,8.0352 1.567,17.3321 11.457,17.3321 9.832,0 10.735,-8.5742 10.735,-15.4688 v -2.039 h -16.91" /><path
             id="path36"
             style="fill:#231f20;fill-opacity:1;fill-rule:nonzero;stroke:none"
             d="m 211.117,43.5078 c -0.476,-8.0976 -3.656,-15.5273 -13.012,-15.5273 -12.171,0 -13.789,11.4531 -13.789,22.2461 0,10.789 1.977,22.2461 13.789,22.2461 8.754,0 12.407,-4.9141 12.653,-13.3125 h -5.516 c -0.121,4.8554 -1.679,8.9961 -7.137,8.9961 -7.316,0 -8.277,-8.0391 -8.277,-17.9297 0,-9.8946 0.961,-17.9297 8.277,-17.9297 6.415,0 7.313,5.9961 7.493,11.2109 h 5.519" /><path
             id="path38"
             style="fill:#231f20;fill-opacity:1;fill-rule:nonzero;stroke:none"
             d="m 230.629,46.3281 c -1.863,-1.9804 -6.301,-2.4023 -8.582,-3.7773 -1.613,-1.0156 -2.453,-2.2774 -2.453,-5.0977 0,-3.2422 1.133,-5.5195 4.551,-5.5195 3.3,0 6.484,2.8242 6.484,6.1133 z m -15.535,4.9141 c 0,7.3242 3.113,10.5547 10.789,10.5547 9.773,0 9.773,-5.8789 9.773,-9.2383 V 34.6289 c 0,-1.3164 0,-2.5781 1.567,-2.5781 0.664,0 0.957,0.1289 1.199,0.3047 v -3.5938 c -0.363,-0.0703 -1.68,-0.3047 -2.942,-0.3047 -1.921,0 -4.316,0 -4.558,4.1407 h -0.117 c -1.621,-2.8789 -4.739,-4.6172 -7.735,-4.6172 -5.996,0 -8.761,3.5937 -8.761,9.3554 0,4.4922 1.925,7.6172 6.066,8.875 l 6.766,2.0313 c 3.664,1.1445 3.664,2.1601 3.664,4.8633 0,3 -1.797,4.7383 -5.157,4.7383 -5.515,0 -5.515,-5.1563 -5.515,-6.3008 v -0.3008 h -5.039" /><path
             id="path40"
             style="fill:#231f20;fill-opacity:1;fill-rule:nonzero;stroke:none"
             d="m 242.504,60.957 h 4.805 v -3.7773 h 0.117 c 1.316,2.9375 4.676,4.6172 7.793,4.6172 8.457,0 8.457,-6.4141 8.457,-10.1953 V 28.8203 h -5.039 v 22.1875 c 0,2.461 -0.176,6.4727 -4.739,6.4727 -2.695,0 -6.355,-1.7969 -6.355,-6.4727 V 28.8203 h -5.039 V 60.957" /><path
             id="path42"
             style="fill:#231f20;fill-opacity:1;fill-rule:nonzero;stroke:none"
             d="m 285.043,46.3281 c -1.855,-1.9804 -6.301,-2.4023 -8.574,-3.7773 -1.621,-1.0156 -2.461,-2.2774 -2.461,-5.0977 0,-3.2422 1.14,-5.5195 4.558,-5.5195 3.301,0 6.477,2.8242 6.477,6.1133 z m -15.527,4.9141 c 0,7.3242 3.117,10.5547 10.793,10.5547 9.773,0 9.773,-5.8789 9.773,-9.2383 V 34.6289 c 0,-1.3164 0,-2.5781 1.563,-2.5781 0.656,0 0.957,0.1289 1.191,0.3047 v -3.5938 c -0.352,-0.0703 -1.68,-0.3047 -2.941,-0.3047 -1.915,0 -4.317,0 -4.547,4.1407 h -0.129 c -1.614,-2.8789 -4.739,-4.6172 -7.735,-4.6172 -5.996,0 -8.75,3.5937 -8.75,9.3554 0,4.4922 1.914,7.6172 6.055,8.875 l 6.777,2.0313 c 3.653,1.1445 3.653,2.1601 3.653,4.8633 0,3 -1.797,4.7383 -5.156,4.7383 -5.516,0 -5.516,-5.1563 -5.516,-6.3008 v -0.3008 h -5.031" /><path
             id="path44"
             style="fill:#231f20;fill-opacity:1;fill-rule:nonzero;stroke:none"
             d="m 306.879,32.2969 c 5.574,0 6.484,5.2734 6.484,12.5859 0,6.2422 -1.086,12.5977 -6.484,12.5977 -4.68,0 -5.867,-4.9219 -5.867,-12.5977 0,-7.6758 1.187,-12.5859 5.867,-12.5859 z m 11.219,-3.4766 h -4.801 v 3.9531 h -0.117 c -0.657,-2.4023 -3.481,-4.7929 -6.957,-4.7929 -7.618,0 -10.496,6.7773 -10.496,16.9023 0,6.7188 1.082,16.9141 10.136,16.9141 2.879,0 5.938,-1.7383 7.078,-4.4922 h 0.118 v 14.3281 h 5.039 V 28.8203" /><path
             id="path46"
             style="fill:#231f20;fill-opacity:1;fill-rule:nonzero;stroke:none"
             d="m 339.469,46.3281 c -1.867,-1.9804 -6.301,-2.4023 -8.586,-3.7773 -1.613,-1.0156 -2.449,-2.2774 -2.449,-5.0977 0,-3.2422 1.129,-5.5195 4.546,-5.5195 3.301,0 6.489,2.8242 6.489,6.1133 z m -15.539,4.9141 c 0,7.3242 3.117,10.5547 10.793,10.5547 9.773,0 9.773,-5.8789 9.773,-9.2383 V 34.6289 c 0,-1.3164 0,-2.5781 1.563,-2.5781 0.664,0 0.957,0.1289 1.203,0.3047 v -3.5938 c -0.364,-0.0703 -1.684,-0.3047 -2.942,-0.3047 -1.925,0 -4.316,0 -4.558,4.1407 h -0.121 c -1.621,-2.8789 -4.735,-4.6172 -7.735,-4.6172 -5.996,0 -8.758,3.5937 -8.758,9.3554 0,4.4922 1.922,7.6172 6.067,8.875 l 6.765,2.0313 c 3.661,1.1445 3.661,2.1601 3.661,4.8633 0,3 -1.793,4.7383 -5.157,4.7383 -5.515,0 -5.515,-5.1563 -5.515,-6.3008 v -0.3008 h -5.039" /><path
             id="path48"
             style="fill:#231f20;fill-opacity:1;fill-rule:nonzero;stroke:none"
             d="m 148.066,326.289 h 8.27 l -5.867,-8.641 h -5.645 z m 12.411,-11.16 v -7.07 H 145.184 V 297.98 h 14.394 v -7.07 h -14.394 v -11.515 h 15.898 v -7.079 h -24.531 v 42.813 h 23.926" /><path
             id="path50"
             style="fill:#231f20;fill-opacity:1;fill-rule:nonzero;stroke:none"
             d="m 166.973,315.129 h 8.281 v -42.813 h -8.281 v 42.813" /><path
             id="path52"
             style="fill:#231f20;fill-opacity:1;fill-rule:nonzero;stroke:none"
             d="m 198.113,292.102 c -0.183,4.921 -0.781,7.675 -4.199,7.675 -3.301,0 -4.258,-3.418 -4.258,-6.418 v -1.257 z m -8.457,-4.914 v -2.579 c 0,-3.777 1.016,-7.5 4.082,-7.5 2.754,0 3.899,2.102 4.375,6.055 h 7.434 c -0.293,-7.488 -3.899,-11.687 -11.692,-11.687 -11.992,0 -12.468,9.238 -12.468,17.273 0,8.633 1.679,16.672 12.832,16.672 9.648,0 11.804,-6.484 11.804,-16.379 v -1.855 h -16.367" /><path
             id="path54"
             style="fill:#231f20;fill-opacity:1;fill-rule:nonzero;stroke:none"
             d="m 227.16,304.582 h 8.281 l -8.093,-32.266 h -9.602 l -8.328,32.266 h 8.633 l 4.621,-23.086 h 0.113 l 4.375,23.086" /><path
             id="path56"
             style="fill:#231f20;fill-opacity:1;fill-rule:nonzero;stroke:none"
             d="m 250.512,316.992 h 8.269 l -5.867,-8.633 h -5.644 z m 5.039,-24.89 c -0.188,4.921 -0.781,7.675 -4.199,7.675 -3.301,0 -4.258,-3.418 -4.258,-6.418 v -1.257 z m -8.457,-4.914 v -2.579 c 0,-3.777 1.015,-7.5 4.082,-7.5 2.754,0 3.894,2.102 4.375,6.055 h 7.429 c -0.292,-7.488 -3.894,-11.687 -11.687,-11.687 -11.992,0 -12.473,9.238 -12.473,17.273 0,8.633 1.684,16.672 12.832,16.672 9.653,0 11.809,-6.484 11.809,-16.379 v -1.855 h -16.367" /><path
             id="path58"
             style="fill:#231f20;fill-opacity:1;fill-rule:nonzero;stroke:none"
             d="m 300.734,292.102 c -0.183,4.921 -0.781,7.675 -4.199,7.675 -3.301,0 -4.258,-3.418 -4.258,-6.418 v -1.257 z m -8.457,-4.914 v -2.579 c 0,-3.777 1.02,-7.5 4.082,-7.5 2.754,0 3.899,2.102 4.375,6.055 h 7.434 c -0.293,-7.488 -3.898,-11.687 -11.691,-11.687 -11.993,0 -12.469,9.238 -12.469,17.273 0,8.633 1.68,16.672 12.832,16.672 9.648,0 11.805,-6.484 11.805,-16.379 v -1.855 h -16.368" /><path
             id="path60"
             style="fill:#231f20;fill-opacity:1;fill-rule:nonzero;stroke:none"
             d="m 314.484,304.582 h 7.922 v -3.781 h 0.117 c 1.739,3.176 4.739,4.621 8.223,4.621 5.156,0 8.215,-2.824 8.215,-9.18 v -23.926 h -8.281 v 22.247 c 0,3.242 -1.078,4.5 -3.539,4.5 -2.813,0 -4.375,-1.739 -4.375,-5.34 v -21.407 h -8.282 v 32.266" /><path
             id="path62"
             style="fill:#231f20;fill-opacity:1;fill-rule:nonzero;stroke:none"
             d="m 116.668,251.105 v -73.601 l 253.691,0.101 v 73.602 l -253.691,-0.102" /><path
             id="path64"
             style="fill:#ffffff;fill-opacity:1;fill-rule:nonzero;stroke:none"
             d="m 155.184,224.395 c 0,3.175 -1.446,7.187 -4.922,7.187 -4.199,0 -5.879,-4.316 -5.879,-14.988 0,-10.313 0.969,-16.789 5.937,-16.789 2.043,0 5.344,2.218 5.344,6.836 v 4.375 h -5.703 v 6.359 h 13.973 v -23.086 h -6.356 v 3.953 h -0.117 c -2.043,-3.359 -4.981,-4.793 -8.996,-4.793 -10.613,0 -12.715,7.918 -12.715,22.723 0,14.394 3.359,21.769 14.395,21.769 9.472,0 13.312,-4.855 13.312,-13.546 h -8.273" /><path
             id="path66"
             style="fill:#ffffff;fill-opacity:1;fill-rule:nonzero;stroke:none"
             d="m 170.789,226.555 h 7.922 v -4.317 h 0.117 c 1.68,3.114 4.024,5.157 7.442,5.157 0.476,0 1.015,-0.071 1.492,-0.129 v -7.911 c -0.84,0.059 -1.739,0.118 -2.578,0.118 -2.879,0 -6.114,-1.493 -6.114,-5.821 v -19.363 h -8.281 v 32.266" /><path
             id="path68"
             style="fill:#ffffff;fill-opacity:1;fill-rule:nonzero;stroke:none"
             d="m 207.332,210.422 c -1.141,-0.84 -2.519,-1.379 -3.543,-1.621 -3.351,-0.723 -4.68,-2.336 -4.68,-5.215 0,-2.461 0.911,-4.504 3.125,-4.504 2.219,0 5.098,1.445 5.098,4.981 z m -15.117,6.23 v 0.782 c 0,7.441 5.098,9.961 11.34,9.961 9.828,0 11.683,-4.082 11.683,-9.903 v -16.965 c 0,-2.996 0.188,-4.382 1.028,-6.238 h -7.922 c -0.531,1.016 -0.778,2.274 -1.012,3.359 h -0.125 c -1.914,-3.359 -4.25,-4.199 -8.215,-4.199 -5.75,0 -7.793,4.922 -7.793,9.239 0,6.054 2.461,8.515 8.156,10.066 l 4.676,1.262 c 2.461,0.664 3.301,1.621 3.301,3.777 0,2.461 -1.082,3.957 -3.836,3.957 -2.519,0 -3.84,-1.68 -3.84,-4.191 v -0.907 h -7.441" /><path
             id="path70"
             style="fill:#ffffff;fill-opacity:1;fill-rule:nonzero;stroke:none"
             d="m 228.703,204.844 v -1.082 c 0,-2.813 1.496,-4.68 4.317,-4.68 2.519,0 4.203,1.262 4.203,3.84 0,2.098 -1.387,3.055 -3,3.66 l -5.821,2.102 c -4.558,1.621 -6.894,4.433 -6.894,8.992 0,5.332 3.359,9.719 11.875,9.719 7.488,0 11.035,-3.36 11.035,-9.18 v -1.32 h -7.441 c 0,3.242 -0.957,4.855 -3.653,4.855 -2.101,0 -3.906,-1.191 -3.906,-3.477 0,-1.554 0.84,-2.882 3.602,-3.781 l 4.972,-1.679 c 5.227,-1.739 7.141,-4.375 7.141,-9.227 0,-6.777 -5.039,-10.137 -11.992,-10.137 -9.297,0 -11.875,4.082 -11.875,10.254 v 1.141 h 7.437" /><path
             id="path72"
             style="fill:#ffffff;fill-opacity:1;fill-rule:nonzero;stroke:none"
             d="m 272.746,204.844 v -1.082 c 0,-2.813 1.496,-4.68 4.317,-4.68 2.523,0 4.203,1.262 4.203,3.84 0,2.098 -1.387,3.055 -3,3.66 l -5.821,2.102 c -4.558,1.621 -6.894,4.433 -6.894,8.992 0,5.332 3.359,9.719 11.875,9.719 7.492,0 11.035,-3.36 11.035,-9.18 v -1.32 h -7.441 c 0,3.242 -0.957,4.855 -3.653,4.855 -2.101,0 -3.906,-1.191 -3.906,-3.477 0,-1.554 0.84,-2.882 3.602,-3.781 l 4.972,-1.679 c 5.227,-1.739 7.141,-4.375 7.141,-9.227 0,-6.777 -5.039,-10.137 -11.992,-10.137 -9.297,0 -11.875,4.082 -11.875,10.254 v 1.141 h 7.437" /><path
             id="path74"
             style="fill:#ffffff;fill-opacity:1;fill-rule:nonzero;stroke:none"
             d="m 309.895,210.422 c -1.141,-0.84 -2.516,-1.379 -3.543,-1.621 -3.348,-0.723 -4.668,-2.336 -4.668,-5.215 0,-2.461 0.898,-4.504 3.117,-4.504 2.215,0 5.094,1.445 5.094,4.981 z m -15.118,6.23 v 0.782 c 0,7.441 5.102,9.961 11.34,9.961 9.832,0 11.692,-4.082 11.692,-9.903 v -16.965 c 0,-2.996 0.183,-4.382 1.023,-6.238 h -7.922 c -0.535,1.016 -0.777,2.274 -1.015,3.359 h -0.125 c -1.915,-3.359 -4.258,-4.199 -8.211,-4.199 -5.754,0 -7.793,4.922 -7.793,9.239 0,6.054 2.457,8.515 8.152,10.066 l 4.68,1.262 c 2.461,0.664 3.297,1.621 3.297,3.777 0,2.461 -1.082,3.957 -3.836,3.957 -2.52,0 -3.836,-1.68 -3.836,-4.191 v -0.907 h -7.446" /><path
             id="path76"
             style="fill:#ffffff;fill-opacity:1;fill-rule:nonzero;stroke:none"
             d="m 327.008,235.781 h 8.269 v -9.226 h 4.793 v -5.645 h -4.793 v -17.441 c 0,-2.52 0.536,-3.547 2.942,-3.547 0.664,0 1.316,0.058 1.851,0.117 v -5.75 c -1.797,-0.176 -3.472,-0.363 -5.386,-0.363 -6.477,0 -7.676,1.984 -7.676,8.515 v 18.469 h -4.199 v 5.645 h 4.199 v 9.226" /><path
             id="path78"
             style="fill:#ffffff;fill-opacity:1;fill-rule:nonzero;stroke:none"
             d="m 352.863,203.645 v -9.356 h -7.91 v 9.356 h 7.91" /><path
             id="path80"
             style="fill:#231f20;fill-opacity:1;fill-rule:nonzero;stroke:none"
             d="M 116.668,165.27 V 91.6719 l 253.691,0.1015 V 165.371 L 116.668,165.27" /><path
             id="path82"
             style="fill:#ffffff;fill-opacity:1;fill-rule:nonzero;stroke:none"
             d="m 143.125,121.828 v -1.262 c 0,-4.011 1.141,-6.589 5.703,-6.589 2.637,0 5.156,1.679 5.156,5.273 0,3.895 -1.984,5.34 -7.675,7.313 -7.676,2.648 -11.223,5.82 -11.223,12.96 0,8.329 5.098,12.586 13.262,12.586 7.675,0 13.254,-3.289 13.254,-11.511 v -1.192 h -8.282 c 0,4.012 -1.379,6.348 -4.679,6.348 -3.895,0 -4.911,-2.453 -4.911,-4.973 0,-2.636 0.782,-4.258 4.434,-5.82 l 6.66,-2.879 c 6.473,-2.812 8.153,-6.113 8.153,-11.328 0,-9.055 -5.516,-13.137 -14.872,-13.137 -9.777,0 -13.613,4.563 -13.613,12.473 v 1.738 h 8.633" /><path
             id="path84"
             style="fill:#ffffff;fill-opacity:1;fill-rule:nonzero;stroke:none"
             d="m 185.125,112.238 h -0.117 c -1.738,-3.183 -4.735,-4.621 -8.211,-4.621 -5.156,0 -8.223,2.824 -8.223,9.18 v 23.926 h 8.281 v -22.254 c 0,-3.235 1.075,-4.492 3.536,-4.492 2.82,0 4.375,1.738 4.375,5.332 v 21.414 h 8.281 v -32.266 h -7.922 v 3.781" /><path
             id="path86"
             style="fill:#ffffff;fill-opacity:1;fill-rule:nonzero;stroke:none"
             d="m 215.609,129.082 c 0,3.125 -0.605,6.484 -3.718,6.484 -4.071,0 -4.735,-3.601 -4.735,-11.035 0,-7.976 0.723,-11.277 4.43,-11.277 2.762,0 4.023,2.344 4.023,7.559 h 7.911 c 0,-8.458 -3.536,-13.196 -12.286,-13.196 -8.277,0 -12.347,4.016 -12.347,16.973 0,13.254 5.449,16.973 13.058,16.973 7.618,0 11.575,-4.864 11.575,-12.481 h -7.911" /><path
             id="path88"
             style="fill:#ffffff;fill-opacity:1;fill-rule:nonzero;stroke:none"
             d="m 229.359,140.723 h 7.918 v -4.317 h 0.118 c 1.679,3.117 4.027,5.157 7.445,5.157 0.476,0 1.012,-0.067 1.492,-0.125 v -7.911 c -0.84,0.059 -1.738,0.118 -2.578,0.118 -2.883,0 -6.113,-1.497 -6.113,-5.821 v -19.367 h -8.282 v 32.266" /><path
             id="path90"
             style="fill:#ffffff;fill-opacity:1;fill-rule:nonzero;stroke:none"
             d="m 266.383,128.242 c -0.188,4.922 -0.785,7.676 -4.199,7.676 -3.301,0 -4.258,-3.418 -4.258,-6.414 v -1.262 z m -8.457,-4.91 v -2.578 c 0,-3.781 1.012,-7.5 4.082,-7.5 2.754,0 3.894,2.098 4.375,6.055 h 7.43 c -0.293,-7.493 -3.895,-11.692 -11.692,-11.692 -11.988,0 -12.469,9.238 -12.469,17.278 0,8.632 1.68,16.668 12.832,16.668 9.649,0 11.809,-6.485 11.809,-16.375 v -1.856 h -16.367" /><path
             id="path92"
             style="fill:#ffffff;fill-opacity:1;fill-rule:nonzero;stroke:none"
             d="m 286.195,119.016 v -1.086 c 0,-2.813 1.493,-4.676 4.317,-4.676 2.519,0 4.199,1.258 4.199,3.836 0,2.101 -1.387,3.058 -2.996,3.664 l -5.824,2.098 c -4.559,1.621 -6.895,4.433 -6.895,8.996 0,5.332 3.359,9.715 11.875,9.715 7.492,0 11.035,-3.36 11.035,-9.18 v -1.317 h -7.437 c 0,3.243 -0.957,4.852 -3.664,4.852 -2.09,0 -3.899,-1.191 -3.899,-3.477 0,-1.55 0.84,-2.878 3.606,-3.777 l 4.968,-1.68 c 5.227,-1.738 7.141,-4.375 7.141,-9.23 0,-6.777 -5.039,-10.137 -11.992,-10.137 -9.297,0 -11.875,4.082 -11.875,10.254 v 1.145 h 7.441" /><path
             id="path94"
             style="fill:#231f20;fill-opacity:1;fill-rule:nonzero;stroke:none"
             d="M 92.4492,261.906 C 83.8477,247.254 64.9805,242.34 50.3438,250.941 35.6875,259.543 30.7734,278.43 39.375,293.082 c 8.6016,14.637 27.3242,19.516 42.1406,10.949 14.8125,-8.547 19.5504,-27.484 10.9336,-42.125 z m -5.8828,51 C 67.0273,324.387 42.1172,317.891 30.6211,298.348 20.5703,281 24.4141,259.32 39.0117,246.75 L 22.5742,219.129 c -1.6367,-2.789 -0.6133,-6.379 2.2422,-7.891 l 3.9453,-2.09 c 2.7188,-1.437 6.0899,-0.453 7.6016,2.227 l 15.5937,27.762 c 18.2696,-6.574 39.0664,0.625 49.172,17.828 11.461,19.535 4.992,44.465 -14.5626,55.941" /></g></g></g></g></svg>