<?xml version="1.0" encoding="UTF-8" standalone="no"?>
<svg
   xmlns:dc="http://purl.org/dc/elements/1.1/"
   xmlns:cc="http://creativecommons.org/ns#"
   xmlns:rdf="http://www.w3.org/1999/02/22-rdf-syntax-ns#"
   xmlns:svg="http://www.w3.org/2000/svg"
   xmlns="http://www.w3.org/2000/svg"
   viewBox="0 0 70.677063 53.669328"
   height="53.669331"
   width="70.677063"
   xml:space="preserve"
   id="svg2"
   version="1.1"><metadata
     id="metadata8"><rdf:RDF><cc:Work
         rdf:about=""><dc:format>image/svg+xml</dc:format><dc:type
           rdf:resource="http://purl.org/dc/dcmitype/StillImage" /></cc:Work></rdf:RDF></metadata><defs
     id="defs6"><clipPath
       id="clipPath20"
       clipPathUnits="userSpaceOnUse"><path
         id="path18"
         d="M 0,0 H 530.078 V 402.52 H 0 Z" /></clipPath></defs><g
     transform="matrix(1.3333333,0,0,-1.3333333,0,53.669332)"
     id="g10"><g
       transform="scale(0.1)"
       id="g12"><g
         id="g14"><g
           clip-path="url(#clipPath20)"
           id="g16"><path
             id="path22"
             style="fill:#ffffff;fill-opacity:1;fill-rule:nonzero;stroke:none"
             d="M 2.5,2.50391 V 400.02 H 527.574 V 2.50391 H 2.5" /><path
             id="path24"
             style="fill:#231f20;fill-opacity:1;fill-rule:nonzero;stroke:none"
             d="M 530.078,402.52 H 0 V 0 h 530.078 z m -5,-5 V 5 H 5 v 392.52 h 520.078" /><path
             id="path26"
             style="fill:#231f20;fill-opacity:1;fill-rule:nonzero;stroke:none"
             d="M 258.309,151.684 C 246.094,119.047 221.297,92.5391 189.797,77.9844 h 322.18 V 151.684 H 258.309" /><path
             id="path28"
             style="fill:#231f20;fill-opacity:1;fill-rule:nonzero;stroke:none"
             d="m 297.285,392.789 h 8.27 l -5.867,-8.644 h -5.645 z m 12.41,-11.164 v -7.07 h -15.293 v -10.078 h 14.395 v -7.071 h -14.395 v -11.511 h 15.899 v -7.082 H 285.77 v 42.812 h 23.925" /><path
             id="path30"
             style="fill:#231f20;fill-opacity:1;fill-rule:nonzero;stroke:none"
             d="m 316.191,381.625 h 8.282 v -42.812 h -8.282 v 42.812" /><path
             id="path32"
             style="fill:#231f20;fill-opacity:1;fill-rule:nonzero;stroke:none"
             d="m 347.324,358.598 c -0.187,4.922 -0.781,7.675 -4.199,7.675 -3.301,0 -4.258,-3.418 -4.258,-6.414 v -1.261 z m -8.457,-4.91 v -2.579 c 0,-3.781 1.016,-7.5 4.082,-7.5 2.754,0 3.895,2.098 4.375,6.055 h 7.434 c -0.293,-7.492 -3.899,-11.691 -11.692,-11.691 -11.992,0 -12.472,9.238 -12.472,17.277 0,8.633 1.679,16.668 12.832,16.668 9.648,0 11.808,-6.484 11.808,-16.375 v -1.855 h -16.367" /><path
             id="path34"
             style="fill:#231f20;fill-opacity:1;fill-rule:nonzero;stroke:none"
             d="m 376.355,371.078 h 8.282 l -8.094,-32.265 h -9.602 l -8.328,32.265 h 8.633 l 4.617,-23.086 h 0.117 l 4.375,23.086" /><path
             id="path36"
             style="fill:#231f20;fill-opacity:1;fill-rule:nonzero;stroke:none"
             d="m 399.707,383.492 h 8.27 l -5.868,-8.633 h -5.644 z m 5.039,-24.894 c -0.187,4.922 -0.781,7.675 -4.199,7.675 -3.301,0 -4.258,-3.418 -4.258,-6.414 v -1.261 z m -8.457,-4.91 v -2.579 c 0,-3.781 1.016,-7.5 4.082,-7.5 2.754,0 3.895,2.098 4.375,6.055 h 7.43 c -0.293,-7.492 -3.895,-11.691 -11.688,-11.691 -11.992,0 -12.472,9.238 -12.472,17.277 0,8.633 1.679,16.668 12.832,16.668 9.648,0 11.808,-6.484 11.808,-16.375 v -1.855 h -16.367" /><path
             id="path38"
             style="fill:#231f20;fill-opacity:1;fill-rule:nonzero;stroke:none"
             d="m 449.922,358.598 c -0.188,4.922 -0.781,7.675 -4.199,7.675 -3.301,0 -4.258,-3.418 -4.258,-6.414 v -1.261 z m -8.457,-4.91 v -2.579 c 0,-3.781 1.015,-7.5 4.082,-7.5 2.754,0 3.894,2.098 4.375,6.055 h 7.43 c -0.293,-7.492 -3.895,-11.691 -11.688,-11.691 -11.992,0 -12.473,9.238 -12.473,17.277 0,8.633 1.68,16.668 12.832,16.668 9.649,0 11.809,-6.484 11.809,-16.375 v -1.855 h -16.367" /><path
             id="path40"
             style="fill:#231f20;fill-opacity:1;fill-rule:nonzero;stroke:none"
             d="m 463.66,371.078 h 7.922 v -3.777 h 0.117 c 1.739,3.172 4.735,4.617 8.223,4.617 5.156,0 8.211,-2.82 8.211,-9.18 v -23.925 h -8.281 v 22.246 c 0,3.242 -1.075,4.504 -3.536,4.504 -2.808,0 -4.375,-1.739 -4.375,-5.344 v -21.406 h -8.281 v 32.265" /><path
             id="path42"
             style="fill:#231f20;fill-opacity:1;fill-rule:nonzero;stroke:none"
             d="m 132.883,50.9727 c 0,4.5 -1.625,7.6171 -6.664,7.6171 -4.434,0 -7.071,-2.3945 -7.071,-6.9531 0,-12.0508 20.207,-4.8554 20.207,-20.5078 0,-9.8945 -7.257,-12.7148 -13.308,-12.7148 -10.024,0 -12.961,5.1562 -12.961,14.2656 h 5.281 c 0,-4.793 0.293,-9.9492 8.039,-9.9492 4.188,0 7.434,2.9961 7.434,7.5586 0,12.1093 -20.207,5.0976 -20.207,20.8086 0,3.957 1.68,11.8086 12.527,11.8086 8.156,0 11.875,-4.0743 11.992,-11.9336 h -5.269" /><path
             id="path44"
             style="fill:#231f20;fill-opacity:1;fill-rule:nonzero;stroke:none"
             d="m 159.277,36.7617 c -1.855,-1.9804 -6.289,-2.4023 -8.574,-3.7773 -1.621,-1.0156 -2.461,-2.2774 -2.461,-5.0977 0,-3.2344 1.141,-5.5195 4.559,-5.5195 3.301,0 6.476,2.8242 6.476,6.125 z m -15.527,4.9219 c 0,7.3164 3.113,10.5469 10.789,10.5469 9.777,0 9.777,-5.8672 9.777,-9.2266 V 25.0742 c 0,-1.3203 0,-2.5781 1.563,-2.5781 0.652,0 0.957,0.1172 1.199,0.293 v -3.5938 c -0.359,-0.0586 -1.68,-0.3047 -2.937,-0.3047 -1.926,0 -4.317,0 -4.563,4.1407 h -0.113 c -1.625,-2.879 -4.738,-4.6172 -7.738,-4.6172 -5.997,0 -8.758,3.5937 -8.758,9.3554 0,4.5 1.922,7.6172 6.054,8.875 l 6.778,2.043 c 3.664,1.1328 3.664,2.1563 3.664,4.8516 0,3 -1.801,4.7382 -5.16,4.7382 -5.516,0 -5.516,-5.1562 -5.516,-6.3007 v -0.293 h -5.039" /><path
             id="path46"
             style="fill:#231f20;fill-opacity:1;fill-rule:nonzero;stroke:none"
             d="m 171.172,51.3906 h 4.793 v -3.7695 h 0.121 c 1.316,2.9297 4.676,4.6094 7.801,4.6094 8.449,0 8.449,-6.4141 8.449,-10.1953 V 19.2539 h -5.031 v 22.1875 c 0,2.4609 -0.188,6.4727 -4.746,6.4727 -2.696,0 -6.348,-1.7969 -6.348,-6.4727 V 19.2539 h -5.039 v 32.1367" /><path
             id="path48"
             style="fill:#231f20;fill-opacity:1;fill-rule:nonzero;stroke:none"
             d="m 200.438,60.7461 h 5.039 v -9.3555 h 5.578 v -3.9531 h -5.578 v -20.625 c 0,-2.5781 0.664,-3.6055 3.3,-3.6055 1.075,0 1.684,0.1289 2.219,0.1875 v -4.1406 c -0.664,-0.1172 -1.984,-0.3633 -4.082,-0.3633 -5.215,0 -6.476,2.1602 -6.476,6.3594 v 22.1875 h -4.676 v 3.9531 h 4.676 v 9.3555" /><path
             id="path50"
             style="fill:#231f20;fill-opacity:1;fill-rule:nonzero;stroke:none"
             d="m 225.703,64.3516 h 5.879 l -6.477,-8.5157 h -3.601 z m 4.617,-25.6641 v 1.7383 c 0,3.5937 -1.14,7.8515 -5.574,7.8515 -5.281,0 -5.879,-6.4765 -5.879,-8.3984 v -1.1914 z m -11.629,-3.9648 c 0,-4.9141 0,-12.3555 6.172,-12.3555 4.793,0 5.457,5.0391 5.457,7.4414 h 5.039 c 0,-3.418 -2.039,-11.3945 -10.8,-11.3945 -7.848,0 -11.153,5.457 -11.153,16.4922 0,8.039 1.563,17.3242 11.457,17.3242 9.832,0 10.731,-8.5742 10.731,-15.4688 v -2.039 h -16.903" /><path
             id="path52"
             style="fill:#231f20;fill-opacity:1;fill-rule:nonzero;stroke:none"
             d="m 281.914,33.9414 c -0.488,-8.0976 -3.66,-15.5273 -13.019,-15.5273 -12.168,0 -13.79,11.4531 -13.79,22.2461 0,10.8007 1.973,22.2461 13.79,22.2461 8.761,0 12.414,-4.9141 12.656,-13.3125 h -5.516 c -0.117,4.8632 -1.68,8.996 -7.14,8.996 -7.313,0 -8.27,-8.039 -8.27,-17.9296 0,-9.8946 0.957,-17.9297 8.27,-17.9297 6.418,0 7.316,5.9961 7.5,11.2109 h 5.519" /><path
             id="path54"
             style="fill:#231f20;fill-opacity:1;fill-rule:nonzero;stroke:none"
             d="m 301.414,36.7617 c -1.855,-1.9804 -6.285,-2.4023 -8.574,-3.7773 -1.621,-1.0156 -2.457,-2.2774 -2.457,-5.0977 0,-3.2344 1.14,-5.5195 4.558,-5.5195 3.301,0 6.473,2.8242 6.473,6.125 z m -15.527,4.9219 c 0,7.3164 3.117,10.5469 10.793,10.5469 9.773,0 9.773,-5.8672 9.773,-9.2266 V 25.0742 c 0,-1.3203 0,-2.5781 1.563,-2.5781 0.656,0 0.957,0.1172 1.203,0.293 v -3.5938 c -0.364,-0.0586 -1.68,-0.3047 -2.942,-0.3047 -1.922,0 -4.312,0 -4.558,4.1407 h -0.117 c -1.622,-2.879 -4.739,-4.6172 -7.735,-4.6172 -5.996,0 -8.762,3.5937 -8.762,9.3554 0,4.5 1.926,7.6172 6.055,8.875 l 6.778,2.043 c 3.664,1.1328 3.664,2.1563 3.664,4.8516 0,3 -1.797,4.7382 -5.157,4.7382 -5.519,0 -5.519,-5.1562 -5.519,-6.3007 v -0.293 h -5.039" /><path
             id="path56"
             style="fill:#231f20;fill-opacity:1;fill-rule:nonzero;stroke:none"
             d="m 313.309,51.3906 h 4.796 v -3.7695 h 0.118 c 1.316,2.9297 4.675,4.6094 7.8,4.6094 8.45,0 8.45,-6.4141 8.45,-10.1953 V 19.2539 h -5.032 v 22.1875 c 0,2.4609 -0.183,6.4727 -4.746,6.4727 -2.691,0 -6.347,-1.7969 -6.347,-6.4727 V 19.2539 h -5.039 v 32.1367" /><path
             id="path58"
             style="fill:#231f20;fill-opacity:1;fill-rule:nonzero;stroke:none"
             d="m 355.828,36.7617 c -1.855,-1.9804 -6.285,-2.4023 -8.57,-3.7773 -1.625,-1.0156 -2.461,-2.2774 -2.461,-5.0977 0,-3.2344 1.141,-5.5195 4.558,-5.5195 3.301,0 6.473,2.8242 6.473,6.125 z m -15.527,4.9219 c 0,7.3164 3.117,10.5469 10.793,10.5469 9.773,0 9.773,-5.8672 9.773,-9.2266 V 25.0742 c 0,-1.3203 0,-2.5781 1.563,-2.5781 0.656,0 0.957,0.1172 1.203,0.293 v -3.5938 c -0.363,-0.0586 -1.68,-0.3047 -2.942,-0.3047 -1.921,0 -4.312,0 -4.558,4.1407 h -0.117 c -1.621,-2.879 -4.739,-4.6172 -7.735,-4.6172 -5.996,0 -8.761,3.5937 -8.761,9.3554 0,4.5 1.925,7.6172 6.054,8.875 l 6.778,2.043 c 3.664,1.1328 3.664,2.1563 3.664,4.8516 0,3 -1.797,4.7382 -5.157,4.7382 -5.519,0 -5.519,-5.1562 -5.519,-6.3007 v -0.293 h -5.039" /><path
             id="path60"
             style="fill:#231f20;fill-opacity:1;fill-rule:nonzero;stroke:none"
             d="m 377.676,22.7305 c 5.578,0 6.472,5.2812 6.472,12.5976 0,6.2305 -1.074,12.586 -6.472,12.586 -4.68,0 -5.879,-4.9102 -5.879,-12.586 0,-7.6758 1.199,-12.5976 5.879,-12.5976 z m 11.211,-3.4766 h -4.797 v 3.9531 h -0.117 c -0.664,-2.3906 -3.477,-4.7929 -6.953,-4.7929 -7.618,0 -10.497,6.7773 -10.497,16.914 0,6.7071 1.075,16.9024 10.137,16.9024 2.871,0 5.938,-1.7383 7.07,-4.4922 h 0.125 v 14.3281 h 5.032 V 19.2539" /><path
             id="path62"
             style="fill:#231f20;fill-opacity:1;fill-rule:nonzero;stroke:none"
             d="m 410.254,36.7617 c -1.856,-1.9804 -6.289,-2.4023 -8.574,-3.7773 -1.621,-1.0156 -2.461,-2.2774 -2.461,-5.0977 0,-3.2344 1.14,-5.5195 4.558,-5.5195 3.301,0 6.477,2.8242 6.477,6.125 z m -15.527,4.9219 c 0,7.3164 3.113,10.5469 10.789,10.5469 9.777,0 9.777,-5.8672 9.777,-9.2266 V 25.0742 c 0,-1.3203 0,-2.5781 1.562,-2.5781 0.653,0 0.958,0.1172 1.2,0.293 v -3.5938 c -0.36,-0.0586 -1.676,-0.3047 -2.938,-0.3047 -1.926,0 -4.316,0 -4.562,4.1407 h -0.117 c -1.622,-2.879 -4.735,-4.6172 -7.735,-4.6172 -5.992,0 -8.758,3.5937 -8.758,9.3554 0,4.5 1.922,7.6172 6.055,8.875 l 6.777,2.043 c 3.661,1.1328 3.661,2.1563 3.661,4.8516 0,3 -1.797,4.7382 -5.157,4.7382 -5.515,0 -5.515,-5.1562 -5.515,-6.3007 v -0.293 h -5.039" /><path
             id="path64"
             style="fill:#ffffff;fill-opacity:1;fill-rule:nonzero;stroke:none"
             d="m 292.734,107.789 v -1.262 c 0,-4.011 1.145,-6.5895 5.704,-6.5895 2.636,0 5.156,1.6795 5.156,5.2735 0,3.894 -1.985,5.34 -7.676,7.312 -7.676,2.649 -11.223,5.821 -11.223,12.961 0,8.329 5.102,12.586 13.266,12.586 7.672,0 13.25,-3.289 13.25,-11.511 v -1.192 h -8.281 c 0,4.012 -1.379,6.348 -4.676,6.348 -3.899,0 -4.914,-2.453 -4.914,-4.973 0,-2.637 0.781,-4.258 4.433,-5.82 l 6.661,-2.879 c 6.472,-2.813 8.156,-6.113 8.156,-11.328 0,-9.0548 -5.52,-13.1369 -14.875,-13.1369 -9.777,0 -13.613,4.5625 -13.613,12.4729 v 1.738 h 8.632" /><path
             id="path66"
             style="fill:#ffffff;fill-opacity:1;fill-rule:nonzero;stroke:none"
             d="m 329.813,99.2148 c 3.359,0 4.433,3.3012 4.433,11.3362 0,8.039 -1.074,11.328 -4.433,11.328 -4.083,0 -4.442,-4.734 -4.442,-11.328 0,-6.602 0.359,-11.3362 4.442,-11.3362 z m 0,28.3082 c 9.953,0.176 12.714,-5.761 12.714,-16.972 0,-11.0354 -3.242,-16.9729 -12.714,-16.9729 -9.961,-0.1758 -12.715,5.7617 -12.715,16.9729 0,11.035 3.242,16.972 12.715,16.972" /><path
             id="path68"
             style="fill:#ffffff;fill-opacity:1;fill-rule:nonzero;stroke:none"
             d="m 360.293,99.9375 c 3.66,0 4.375,3.5935 4.375,10.6135 0,7.012 -0.715,10.617 -4.375,10.617 -3.594,0 -4.316,-3.605 -4.316,-10.617 0,-7.02 0.722,-10.6135 4.316,-10.6135 z m 4.734,-2.1016 h -0.117 c -1.797,-2.9961 -4.082,-4.2578 -7.312,-4.2578 -6.778,0 -9.895,4.9805 -9.895,16.9729 0,11.992 3.117,16.972 9.895,16.972 3.117,0 5.215,-1.257 6.953,-3.835 h 0.117 v 13.542 h 8.281 V 94.418 h -7.922 v 3.4179" /><path
             id="path70"
             style="fill:#ffffff;fill-opacity:1;fill-rule:nonzero;stroke:none"
             d="m 380.281,126.684 h 8.282 V 94.418 h -8.282 z m 0,11.035 h 8.282 v -7.078 h -8.282 v 7.078" /><path
             id="path72"
             style="fill:#ffffff;fill-opacity:1;fill-rule:nonzero;stroke:none"
             d="m 412.43,98.1992 h -0.117 c -1.739,-3.1836 -4.735,-4.6211 -8.211,-4.6211 -5.157,0 -8.223,2.8242 -8.223,9.1799 v 23.926 h 8.281 V 104.43 c 0,-3.235 1.074,-4.4925 3.535,-4.4925 2.821,0 4.375,1.7385 4.375,5.3325 v 21.414 h 8.282 V 94.418 h -7.922 v 3.7812" /><path
             id="path74"
             style="fill:#ffffff;fill-opacity:1;fill-rule:nonzero;stroke:none"
             d="m 427.371,126.684 h 7.922 v -3.301 h 0.117 c 2.098,2.941 4.68,4.14 8.153,4.14 3.781,0 6.542,-1.863 7.445,-5.156 h 0.113 c 1.262,3.418 4.262,5.156 8.156,5.156 5.457,0 8.036,-3.418 8.036,-9.656 V 94.418 h -8.27 v 22.551 c 0,2.695 -0.898,4.199 -3.242,4.199 -2.637,0 -4.317,-1.797 -4.317,-5.52 v -21.23 h -8.269 v 22.551 c 0,2.695 -0.91,4.199 -3.246,4.199 -2.633,0 -4.317,-1.797 -4.317,-5.52 v -21.23 h -8.281 v 32.266" /><path
             id="path76"
             style="fill:#231f20;fill-opacity:1;fill-rule:nonzero;stroke:none"
             d="m 184.742,320.344 c 33.18,-13.668 59.547,-40.371 72.731,-73.699 h 254.812 v 73.699 H 184.742" /><path
             id="path78"
             style="fill:#231f20;fill-opacity:1;fill-rule:nonzero;stroke:none"
             d="m 261.02,236.016 c 3.617,-12.028 5.585,-24.762 5.585,-37.961 0,-12.395 -1.75,-24.371 -4.953,-35.742 h 250.551 v 73.703 H 261.02" /><path
             id="path80"
             style="fill:#ffffff;fill-opacity:1;fill-rule:nonzero;stroke:none"
             d="m 292.734,191.996 v -1.258 c 0,-4.015 1.145,-6.593 5.704,-6.593 2.636,0 5.156,1.679 5.156,5.273 0,3.898 -1.985,5.348 -7.676,7.32 -7.676,2.649 -11.223,5.821 -11.223,12.957 0,8.332 5.102,12.59 13.266,12.59 7.672,0 13.25,-3.293 13.25,-11.512 v -1.195 h -8.281 c 0,4.016 -1.379,6.352 -4.676,6.352 -3.899,0 -4.914,-2.453 -4.914,-4.973 0,-2.637 0.781,-4.258 4.433,-5.82 l 6.661,-2.879 c 6.472,-2.817 8.156,-6.113 8.156,-11.336 0,-9.051 -5.52,-13.133 -14.875,-13.133 -9.777,0 -13.613,4.559 -13.613,12.469 v 1.738 h 8.632" /><path
             id="path82"
             style="fill:#ffffff;fill-opacity:1;fill-rule:nonzero;stroke:none"
             d="m 334.727,182.406 h -0.118 c -1.738,-3.183 -4.738,-4.617 -8.214,-4.617 -5.157,0 -8.223,2.82 -8.223,9.18 v 23.929 h 8.281 v -22.261 c 0,-3.231 1.074,-4.492 3.535,-4.492 2.825,0 4.375,1.738 4.375,5.332 v 21.421 h 8.282 v -32.269 h -7.918 v 3.777" /><path
             id="path84"
             style="fill:#ffffff;fill-opacity:1;fill-rule:nonzero;stroke:none"
             d="m 365.215,199.258 c 0,3.125 -0.606,6.484 -3.723,6.484 -4.07,0 -4.734,-3.601 -4.734,-11.035 0,-7.984 0.722,-11.285 4.433,-11.285 2.762,0 4.024,2.344 4.024,7.558 h 7.91 c 0,-8.457 -3.535,-13.191 -12.285,-13.191 -8.281,0 -12.356,4.012 -12.356,16.977 0,13.254 5.45,16.972 13.067,16.972 7.621,0 11.574,-4.863 11.574,-12.48 h -7.91" /><path
             id="path86"
             style="fill:#ffffff;fill-opacity:1;fill-rule:nonzero;stroke:none"
             d="m 378.953,210.898 h 7.922 v -4.316 h 0.117 c 1.68,3.113 4.024,5.156 7.442,5.156 0.476,0 1.015,-0.066 1.492,-0.129 v -7.91 c -0.836,0.063 -1.738,0.117 -2.578,0.117 -2.879,0 -6.114,-1.492 -6.114,-5.82 v -19.367 h -8.281 v 32.269" /><path
             id="path88"
             style="fill:#ffffff;fill-opacity:1;fill-rule:nonzero;stroke:none"
             d="m 415.977,198.418 c -0.184,4.922 -0.782,7.676 -4.2,7.676 -3.3,0 -4.257,-3.418 -4.257,-6.414 v -1.262 z M 407.52,193.5 v -2.578 c 0,-3.777 1.015,-7.5 4.082,-7.5 2.753,0 3.894,2.101 4.375,6.055 h 7.429 c -0.293,-7.489 -3.894,-11.688 -11.687,-11.688 -11.992,0 -12.473,9.238 -12.473,17.277 0,8.633 1.68,16.672 12.832,16.672 9.649,0 11.809,-6.484 11.809,-16.379 V 193.5 H 407.52" /><path
             id="path90"
             style="fill:#ffffff;fill-opacity:1;fill-rule:nonzero;stroke:none"
             d="m 435.781,189.184 v -1.082 c 0,-2.813 1.492,-4.68 4.317,-4.68 2.519,0 4.199,1.262 4.199,3.84 0,2.097 -1.387,3.054 -3,3.66 l -5.82,2.101 c -4.559,1.625 -6.891,4.438 -6.891,9 0,5.332 3.355,9.715 11.875,9.715 7.488,0 11.031,-3.359 11.031,-9.179 v -1.321 h -7.441 c 0,3.242 -0.957,4.856 -3.653,4.856 -2.097,0 -3.906,-1.192 -3.906,-3.477 0,-1.551 0.844,-2.871 3.606,-3.777 l 4.968,-1.684 c 5.227,-1.734 7.141,-4.379 7.141,-9.23 0,-6.778 -5.039,-10.137 -11.992,-10.137 -9.297,0 -11.875,4.082 -11.875,10.254 v 1.141 h 7.441" /><path
             id="path92"
             style="fill:#ffffff;fill-opacity:1;fill-rule:nonzero;stroke:none"
             d="m 304.797,292.953 c 0,3.176 -1.449,7.188 -4.926,7.188 -4.199,0 -5.879,-4.317 -5.879,-14.989 0,-10.312 0.969,-16.789 5.938,-16.789 2.043,0 5.343,2.219 5.343,6.836 v 4.375 h -5.703 v 6.36 h 13.977 v -23.086 h -6.359 v 3.953 h -0.118 c -2.043,-3.36 -4.98,-4.793 -8.996,-4.793 -10.613,0 -12.715,7.918 -12.715,22.722 0,14.395 3.36,21.77 14.399,21.77 9.469,0 13.308,-4.855 13.308,-13.547 h -8.269" /><path
             id="path94"
             style="fill:#ffffff;fill-opacity:1;fill-rule:nonzero;stroke:none"
             d="m 320.398,295.113 h 7.922 v -4.316 h 0.118 c 1.679,3.113 4.023,5.156 7.441,5.156 0.476,0 1.016,-0.07 1.492,-0.129 v -7.91 c -0.84,0.059 -1.738,0.117 -2.574,0.117 -2.883,0 -6.117,-1.492 -6.117,-5.82 v -19.363 h -8.282 v 32.265" /><path
             id="path96"
             style="fill:#ffffff;fill-opacity:1;fill-rule:nonzero;stroke:none"
             d="m 356.934,278.98 c -1.141,-0.839 -2.52,-1.378 -3.547,-1.621 -3.348,-0.722 -4.668,-2.336 -4.668,-5.214 0,-2.461 0.898,-4.504 3.117,-4.504 2.215,0 5.098,1.445 5.098,4.98 z m -15.118,6.231 v 0.781 c 0,7.442 5.098,9.961 11.336,9.961 9.836,0 11.692,-4.082 11.692,-9.902 v -16.965 c 0,-2.996 0.183,-4.383 1.023,-6.238 h -7.918 c -0.539,1.015 -0.781,2.273 -1.015,3.359 h -0.129 c -1.914,-3.359 -4.258,-4.199 -8.211,-4.199 -5.754,0 -7.793,4.922 -7.793,9.238 0,6.055 2.461,8.516 8.152,10.067 l 4.68,1.261 c 2.461,0.664 3.301,1.621 3.301,3.778 0,2.461 -1.086,3.957 -3.84,3.957 -2.52,0 -3.836,-1.68 -3.836,-4.192 v -0.906 h -7.442" /><path
             id="path98"
             style="fill:#ffffff;fill-opacity:1;fill-rule:nonzero;stroke:none"
             d="m 378.301,273.402 v -1.082 c 0,-2.812 1.496,-4.679 4.316,-4.679 2.52,0 4.199,1.261 4.199,3.839 0,2.098 -1.386,3.055 -3,3.661 l -5.82,2.101 c -4.558,1.621 -6.894,4.434 -6.894,8.992 0,5.332 3.363,9.719 11.875,9.719 7.492,0 11.035,-3.359 11.035,-9.18 v -1.32 h -7.442 c 0,3.242 -0.957,4.856 -3.648,4.856 -2.102,0 -3.91,-1.192 -3.91,-3.477 0,-1.555 0.84,-2.871 3.605,-3.781 l 4.973,-1.68 c 5.223,-1.738 7.137,-4.375 7.137,-9.226 0,-6.778 -5.039,-10.137 -11.993,-10.137 -9.296,0 -11.875,4.082 -11.875,10.254 v 1.14 h 7.442" /><path
             id="path100"
             style="fill:#ffffff;fill-opacity:1;fill-rule:nonzero;stroke:none"
             d="m 422.344,273.402 v -1.082 c 0,-2.812 1.496,-4.679 4.316,-4.679 2.52,0 4.199,1.261 4.199,3.839 0,2.098 -1.386,3.055 -3,3.661 l -5.816,2.101 c -4.563,1.621 -6.898,4.434 -6.898,8.992 0,5.332 3.363,9.719 11.875,9.719 7.492,0 11.035,-3.359 11.035,-9.18 v -1.32 h -7.442 c 0,3.242 -0.957,4.856 -3.648,4.856 -2.102,0 -3.91,-1.192 -3.91,-3.477 0,-1.555 0.84,-2.871 3.605,-3.781 l 4.973,-1.68 c 5.222,-1.738 7.137,-4.375 7.137,-9.226 0,-6.778 -5.04,-10.137 -11.993,-10.137 -9.297,0 -11.875,4.082 -11.875,10.254 v 1.14 h 7.442" /><path
             id="path102"
             style="fill:#ffffff;fill-opacity:1;fill-rule:nonzero;stroke:none"
             d="m 459.473,278.98 c -1.145,-0.839 -2.52,-1.378 -3.547,-1.621 -3.348,-0.722 -4.668,-2.336 -4.668,-5.214 0,-2.461 0.898,-4.504 3.117,-4.504 2.215,0 5.098,1.445 5.098,4.98 z m -15.118,6.231 v 0.781 c 0,7.442 5.098,9.961 11.336,9.961 9.836,0 11.692,-4.082 11.692,-9.902 v -16.965 c 0,-2.996 0.183,-4.383 1.023,-6.238 h -7.918 c -0.539,1.015 -0.781,2.273 -1.015,3.359 h -0.129 c -1.914,-3.359 -4.254,-4.199 -8.211,-4.199 -5.75,0 -7.793,4.922 -7.793,9.238 0,6.055 2.461,8.516 8.152,10.067 l 4.68,1.261 c 2.461,0.664 3.301,1.621 3.301,3.778 0,2.461 -1.086,3.957 -3.84,3.957 -2.52,0 -3.836,-1.68 -3.836,-4.192 v -0.906 h -7.442" /><path
             id="path104"
             style="fill:#ffffff;fill-opacity:1;fill-rule:nonzero;stroke:none"
             d="m 476.582,304.34 h 8.27 v -9.227 h 4.796 v -5.644 h -4.796 v -17.442 c 0,-2.519 0.539,-3.547 2.941,-3.547 0.664,0 1.316,0.059 1.855,0.129 v -5.761 c -1.796,-0.176 -3.476,-0.364 -5.39,-0.364 -6.477,0 -7.676,1.985 -7.676,8.516 v 18.469 h -4.199 v 5.644 h 4.199 v 9.227" /><path
             id="path106"
             style="fill:#ffffff;fill-opacity:1;fill-rule:nonzero;stroke:none"
             d="m 502.43,272.203 v -9.355 h -7.91 v 9.355 h 7.91" /><path
             id="path108"
             style="fill:#231f20;fill-opacity:1;fill-rule:nonzero;stroke:none"
             d="m 199.016,156.758 c -21.801,-37.141 -69.618,-49.59 -106.7152,-27.785 -37.1406,21.8 -49.5977,69.66 -27.7969,106.797 21.8047,37.097 69.2581,49.464 106.8051,27.753 37.543,-21.664 49.554,-69.664 27.707,-106.765 z M 184.113,286.02 C 134.59,315.113 71.4609,298.645 42.3242,249.117 16.8477,205.152 26.582,150.203 63.582,118.348 L 21.9219,48.3438 c -4.1406,-7.0704 -1.5547,-16.168 5.6875,-20.004 l 9.9961,-5.289 c 6.8906,-3.6485 15.4297,-1.1485 19.2695,5.6367 L 96.3906,99.0547 C 142.699,82.3828 195.41,100.629 221.016,144.23 c 29.054,49.516 12.66,112.7 -36.903,141.79" /></g></g></g></g></svg>