<?xml version="1.0" encoding="UTF-8" standalone="no"?>
<svg
   xmlns:dc="http://purl.org/dc/elements/1.1/"
   xmlns:cc="http://creativecommons.org/ns#"
   xmlns:rdf="http://www.w3.org/1999/02/22-rdf-syntax-ns#"
   xmlns:svg="http://www.w3.org/2000/svg"
   xmlns="http://www.w3.org/2000/svg"
   viewBox="0 0 66.141731 82.771862"
   height="82.771866"
   width="66.141731"
   xml:space="preserve"
   id="svg2"
   version="1.1"><metadata
     id="metadata8"><rdf:RDF><cc:Work
         rdf:about=""><dc:format>image/svg+xml</dc:format><dc:type
           rdf:resource="http://purl.org/dc/dcmitype/StillImage" /></cc:Work></rdf:RDF></metadata><defs
     id="defs6"><clipPath
       id="clipPath20"
       clipPathUnits="userSpaceOnUse"><path
         id="path18"
         d="M 0,0 H 496.063 V 620.789 H 0 Z" /></clipPath></defs><g
     transform="matrix(1.3333333,0,0,-1.3333333,0,82.771865)"
     id="g10"><g
       transform="scale(0.1)"
       id="g12"><g
         id="g14"><g
           clip-path="url(#clipPath20)"
           id="g16"><path
             id="path22"
             style="fill:#ffffff;fill-opacity:1;fill-rule:nonzero;stroke:none"
             d="M 2.49609,2.50391 V 618.289 H 493.566 V 2.50391 H 2.49609" /><path
             id="path24"
             style="fill:#231f20;fill-opacity:1;fill-rule:nonzero;stroke:none"
             d="M 496.063,620.789 H 0 V 0 h 496.063 z m -5,-5 V 5 H 5 v 610.789 h 486.063" /><path
             id="path26"
             style="fill:#231f20;fill-opacity:1;fill-rule:nonzero;stroke:none"
             d="m 209.105,566.91 h 11.036 l -7.832,-11.512 h -7.52 z m 16.551,-14.871 v -9.434 h -20.39 v -13.437 h 19.191 v -9.434 h -19.191 v -15.351 h 21.191 v -9.434 h -32.703 v 57.09 h 31.902" /><path
             id="path28"
             style="fill:#231f20;fill-opacity:1;fill-rule:nonzero;stroke:none"
             d="m 234.32,552.039 h 11.024 v -57.09 H 234.32 v 57.09" /><path
             id="path30"
             style="fill:#231f20;fill-opacity:1;fill-rule:nonzero;stroke:none"
             d="m 275.824,521.336 c -0.234,6.551 -1.035,10.234 -5.597,10.234 -4.395,0 -5.672,-4.562 -5.672,-8.554 v -1.68 z m -11.269,-6.559 v -3.437 c 0,-5.039 1.355,-9.996 5.429,-9.996 3.68,0 5.204,2.801 5.84,8.078 h 9.91 c -0.398,-9.996 -5.195,-15.594 -15.586,-15.594 -15.996,0 -16.628,12.313 -16.628,23.031 0,11.512 2.234,22.227 17.109,22.227 12.871,0 15.75,-8.641 15.75,-21.828 v -2.481 h -21.824" /><path
             id="path32"
             style="fill:#231f20;fill-opacity:1;fill-rule:nonzero;stroke:none"
             d="m 314.535,537.965 h 11.035 l -10.793,-43.016 h -12.793 l -11.113,43.016 h 11.516 l 6.152,-30.785 h 0.164 l 5.832,30.785" /><path
             id="path34"
             style="fill:#231f20;fill-opacity:1;fill-rule:nonzero;stroke:none"
             d="m 345.656,554.516 h 11.035 L 348.859,543 h -7.519 z m 6.719,-33.18 c -0.234,6.551 -1.035,10.234 -5.594,10.234 -4.394,0 -5.676,-4.562 -5.676,-8.554 v -1.68 z m -11.27,-6.559 v -3.437 c 0,-5.039 1.36,-9.996 5.442,-9.996 3.672,0 5.195,2.801 5.828,8.078 h 9.914 c -0.391,-9.996 -5.195,-15.594 -15.586,-15.594 -15.996,0 -16.633,12.313 -16.633,23.031 0,11.512 2.239,22.227 17.11,22.227 12.871,0 15.754,-8.641 15.754,-21.828 v -2.481 h -21.829" /><path
             id="path36"
             style="fill:#231f20;fill-opacity:1;fill-rule:nonzero;stroke:none"
             d="m 412.621,521.336 c -0.234,6.551 -1.035,10.234 -5.598,10.234 -4.394,0 -5.671,-4.562 -5.671,-8.554 v -1.68 z m -11.269,-6.559 v -3.437 c 0,-5.039 1.355,-9.996 5.429,-9.996 3.68,0 5.203,2.801 5.84,8.078 h 9.91 c -0.398,-9.996 -5.195,-15.594 -15.586,-15.594 -15.996,0 -16.629,12.313 -16.629,23.031 0,11.512 2.235,22.227 17.11,22.227 12.871,0 15.75,-8.641 15.75,-21.828 v -2.481 h -21.824" /><path
             id="path38"
             style="fill:#231f20;fill-opacity:1;fill-rule:nonzero;stroke:none"
             d="m 430.961,537.965 h 10.547 v -5.039 h 0.164 c 2.316,4.238 6.32,6.16 10.949,6.16 6.883,0 10.957,-3.762 10.957,-12.234 v -31.903 h -11.035 v 29.664 c 0,4.317 -1.438,5.996 -4.719,5.996 -3.758,0 -5.828,-2.32 -5.828,-7.117 v -28.543 h -11.035 v 43.016" /><path
             id="path40"
             style="fill:#ffffff;fill-opacity:1;fill-rule:nonzero;stroke:none"
             d="m 88.9766,328.688 v 94.214 H 465.051 V 328.688 H 88.9766" /><path
             id="path42"
             style="fill:#231f20;fill-opacity:1;fill-rule:nonzero;stroke:none"
             d="M 467.555,425.402 H 86.4766 V 326.188 H 467.555 Z m -5,-5 V 331.188 H 91.4766 v 89.214 H 462.555" /><path
             id="path44"
             style="fill:#231f20;fill-opacity:1;fill-rule:nonzero;stroke:none"
             d="M 86.4766,310.539 V 211.328 H 467.555 v 99.211 H 86.4766" /><path
             id="path46"
             style="fill:#ffffff;fill-opacity:1;fill-rule:nonzero;stroke:none"
             d="m 143.918,254.379 v -1.68 c 0,-5.363 1.523,-8.801 7.598,-8.801 3.515,0 6.875,2.239 6.875,7.043 0,5.196 -2.637,7.11 -10.235,9.747 -10.234,3.523 -14.949,7.761 -14.949,17.273 0,11.113 6.797,16.785 17.664,16.785 10.234,0 17.676,-4.391 17.676,-15.348 v -1.593 h -11.035 c 0,5.351 -1.836,8.468 -6.239,8.468 -5.195,0 -6.554,-3.273 -6.554,-6.632 0,-3.516 1.035,-5.672 5.918,-7.754 l 8.879,-3.836 c 8.632,-3.762 10.867,-8.156 10.867,-15.117 0,-12.071 -7.352,-17.512 -19.824,-17.512 -13.036,0 -18.153,6.074 -18.153,16.633 v 2.324 h 11.512" /><path
             id="path48"
             style="fill:#ffffff;fill-opacity:1;fill-rule:nonzero;stroke:none"
             d="m 199.914,241.586 h -0.156 c -2.313,-4.238 -6.317,-6.164 -10.957,-6.164 -6.875,0 -10.946,3.762 -10.946,12.238 v 31.903 h 11.036 v -29.668 c 0,-4.317 1.433,-5.997 4.714,-5.997 3.75,0 5.833,2.317 5.833,7.122 v 28.543 h 11.035 v -43.016 h -10.559 v 5.039" /><path
             id="path50"
             style="fill:#ffffff;fill-opacity:1;fill-rule:nonzero;stroke:none"
             d="m 240.559,264.047 c 0,4.156 -0.801,8.641 -4.95,8.641 -5.441,0 -6.32,-4.805 -6.32,-14.715 0,-10.637 0.957,-15.032 5.918,-15.032 3.672,0 5.352,3.118 5.352,10.071 h 10.558 c 0,-11.27 -4.719,-17.59 -16.387,-17.59 -11.035,0 -16.476,5.363 -16.476,22.629 0,17.676 7.277,22.625 17.434,22.625 10.156,0 15.429,-6.473 15.429,-16.629 h -10.558" /><path
             id="path52"
             style="fill:#ffffff;fill-opacity:1;fill-rule:nonzero;stroke:none"
             d="m 258.891,279.563 h 10.547 v -5.762 h 0.164 c 2.238,4.16 5.351,6.875 9.914,6.875 0.644,0 1.355,-0.078 2,-0.156 v -10.555 c -1.121,0.078 -2.325,0.164 -3.438,0.164 -3.836,0 -8.152,-2 -8.152,-7.762 v -25.82 h -11.035 v 43.016" /><path
             id="path54"
             style="fill:#ffffff;fill-opacity:1;fill-rule:nonzero;stroke:none"
             d="m 308.234,262.934 c -0.234,6.55 -1.035,10.234 -5.593,10.234 -4.395,0 -5.676,-4.563 -5.676,-8.555 v -1.679 z m -11.269,-6.563 v -3.437 c 0,-5.039 1.359,-9.993 5.441,-9.993 3.672,0 5.196,2.793 5.828,8.079 h 9.914 c -0.39,-10 -5.195,-15.598 -15.585,-15.598 -15.997,0 -16.633,12.316 -16.633,23.027 0,11.516 2.238,22.227 17.109,22.227 12.871,0 15.754,-8.633 15.754,-21.824 v -2.481 h -21.828" /><path
             id="path56"
             style="fill:#ffffff;fill-opacity:1;fill-rule:nonzero;stroke:none"
             d="m 334.652,250.617 v -1.445 c 0,-3.75 1.993,-6.231 5.75,-6.231 3.36,0 5.598,1.68 5.598,5.118 0,2.793 -1.836,4.074 -3.996,4.875 l -7.754,2.8 c -6.082,2.161 -9.199,5.918 -9.199,11.993 0,7.121 4.484,12.949 15.832,12.949 10,0 14.715,-4.473 14.715,-12.227 v -1.765 h -9.922 c 0,4.324 -1.278,6.484 -4.871,6.484 -2.805,0 -5.196,-1.602 -5.196,-4.641 0,-2.078 1.114,-3.836 4.793,-5.039 l 6.641,-2.234 c 6.953,-2.324 9.512,-5.844 9.512,-12.316 0,-9.032 -6.719,-13.516 -15.996,-13.516 -12.391,0 -15.829,5.441 -15.829,13.672 v 1.523 h 9.922" /><path
             id="path58"
             style="fill:#231f20;fill-opacity:1;fill-rule:nonzero;stroke:none"
             d="M 86.4766,197.008 V 97.7969 H 467.555 V 197.008 H 86.4766" /><path
             id="path60"
             style="fill:#ffffff;fill-opacity:1;fill-rule:nonzero;stroke:none"
             d="m 143.898,139.289 v -1.68 c 0,-5.363 1.524,-8.796 7.598,-8.796 3.516,0 6.875,2.234 6.875,7.039 0,5.195 -2.637,7.109 -10.234,9.746 -10.235,3.523 -14.949,7.765 -14.949,17.273 0,11.117 6.796,16.789 17.664,16.789 10.234,0 17.675,-4.394 17.675,-15.351 v -1.59 h -11.035 c 0,5.351 -1.836,8.465 -6.238,8.465 -5.195,0 -6.555,-3.274 -6.555,-6.629 0,-3.52 1.035,-5.676 5.918,-7.754 l 8.879,-3.84 c 8.633,-3.758 10.867,-8.152 10.867,-15.117 0,-12.071 -7.351,-17.508 -19.824,-17.508 -13.035,0 -18.152,6.074 -18.152,16.629 v 2.324 h 11.511" /><path
             id="path62"
             style="fill:#ffffff;fill-opacity:1;fill-rule:nonzero;stroke:none"
             d="m 193.344,127.855 c 4.472,0 5.918,4.391 5.918,15.106 0,10.715 -1.446,15.117 -5.918,15.117 -5.442,0 -5.918,-6.316 -5.918,-15.117 0,-8.789 0.476,-15.106 5.918,-15.106 z m 0,37.735 c 13.269,0.242 16.953,-7.68 16.953,-22.629 0,-14.707 -4.317,-22.625 -16.953,-22.625 -13.274,-0.234 -16.953,7.676 -16.953,22.625 0,14.719 4.316,22.629 16.953,22.629" /><path
             id="path64"
             style="fill:#ffffff;fill-opacity:1;fill-rule:nonzero;stroke:none"
             d="m 233.988,128.813 c 4.871,0 5.828,4.792 5.828,14.148 0,9.355 -0.957,14.152 -5.828,14.152 -4.804,0 -5.761,-4.797 -5.761,-14.152 0,-9.356 0.957,-14.148 5.761,-14.148 z m 6.309,-2.805 h -0.156 c -2.403,-3.992 -5.442,-5.672 -9.758,-5.672 -9.031,0 -13.192,6.641 -13.192,22.625 0,15.996 4.161,22.629 13.192,22.629 4.16,0 6.953,-1.68 9.277,-5.117 h 0.156 v 18.074 h 11.036 v -57.09 h -10.555 v 4.551" /><path
             id="path66"
             style="fill:#ffffff;fill-opacity:1;fill-rule:nonzero;stroke:none"
             d="m 260.629,164.477 h 11.023 v -43.02 h -11.023 z m 0,14.707 h 11.023 v -9.438 h -11.023 v 9.438" /><path
             id="path68"
             style="fill:#ffffff;fill-opacity:1;fill-rule:nonzero;stroke:none"
             d="m 303.488,126.496 h -0.156 c -2.312,-4.238 -6.316,-6.16 -10.957,-6.16 -6.875,0 -10.945,3.758 -10.945,12.234 v 31.907 h 11.035 v -29.668 c 0,-4.317 1.433,-5.996 4.715,-5.996 3.75,0 5.832,2.312 5.832,7.117 v 28.547 h 11.035 v -43.02 h -10.559 v 5.039" /><path
             id="path70"
             style="fill:#ffffff;fill-opacity:1;fill-rule:nonzero;stroke:none"
             d="m 323.43,164.477 h 10.547 v -4.407 h 0.168 c 2.793,3.926 6.23,5.52 10.867,5.52 5.039,0 8.722,-2.481 9.914,-6.875 h 0.164 c 1.68,4.558 5.676,6.875 10.871,6.875 7.273,0 10.723,-4.555 10.723,-12.871 v -31.262 h -11.036 v 30.059 c 0,3.605 -1.203,5.597 -4.316,5.597 -3.527,0 -5.762,-2.394 -5.762,-7.355 v -28.301 h -11.035 v 30.059 c 0,3.605 -1.203,5.597 -4.316,5.597 -3.516,0 -5.762,-2.394 -5.762,-7.355 V 121.457 H 323.43 v 43.02" /><path
             id="path72"
             style="fill:#231f20;fill-opacity:1;fill-rule:nonzero;stroke:none"
             d="m 90.9688,64.5938 c 0,5.2539 -1.8946,8.8945 -7.7735,8.8945 -5.1836,0 -8.2617,-2.8008 -8.2617,-8.125 0,-14.082 23.6055,-5.6719 23.6055,-23.9531 0,-11.5625 -8.4766,-14.8555 -15.5586,-14.8555 -11.6875,0 -15.125,6.0234 -15.125,16.6719 h 6.1601 c 0,-5.5977 0.3516,-11.6211 9.3867,-11.6211 4.9102,0 8.6915,3.4961 8.6915,8.8164 0,14.1523 -23.6055,5.957 -23.6055,24.3086 0,4.6172 1.9648,13.7968 14.6406,13.7968 9.5195,0 13.8672,-4.7656 14.0039,-13.9335 h -6.164" /><path
             id="path74"
             style="fill:#231f20;fill-opacity:1;fill-rule:nonzero;stroke:none"
             d="m 121.77,47.9922 c -2.176,-2.3164 -7.352,-2.8047 -10.02,-4.4141 -1.883,-1.1914 -2.871,-2.6562 -2.871,-5.9492 0,-3.7891 1.328,-6.4453 5.324,-6.4453 3.856,0 7.567,3.293 7.567,7.1406 z m -18.145,5.7422 c 0,8.5429 3.645,12.3242 12.609,12.3242 11.414,0 11.414,-6.8672 11.414,-10.7813 V 34.3281 c 0,-1.5312 0,-3.0078 1.829,-3.0078 0.769,0 1.113,0.1367 1.394,0.3516 v -4.1992 c -0.418,-0.0782 -1.961,-0.3516 -3.426,-0.3516 -2.246,0 -5.05,0 -5.324,4.832 h -0.144 c -1.887,-3.3672 -5.528,-5.3984 -9.036,-5.3984 -7,0 -10.222,4.2109 -10.222,10.9297 0,5.2539 2.234,8.8945 7.07,10.3711 l 7.918,2.3711 c 4.27,1.3398 4.27,2.5312 4.27,5.6757 0,3.504 -2.102,5.5352 -6.028,5.5352 -6.433,0 -6.433,-6.0273 -6.433,-7.3516 v -0.3515 h -5.891" /><path
             id="path76"
             style="fill:#231f20;fill-opacity:1;fill-rule:nonzero;stroke:none"
             d="m 135.609,65.0781 h 5.606 V 60.668 h 0.144 c 1.536,3.4258 5.461,5.3906 9.102,5.3906 9.875,0 9.875,-7.4922 9.875,-11.9063 V 27.543 h -5.879 v 25.9062 c 0,2.8711 -0.215,7.5703 -5.539,7.5703 -3.152,0 -7.422,-2.1015 -7.422,-7.5703 V 27.543 h -5.887 v 37.5351" /><path
             id="path78"
             style="fill:#231f20;fill-opacity:1;fill-rule:nonzero;stroke:none"
             d="m 169.777,76.0078 h 5.879 V 65.0781 h 6.516 v -4.6172 h -6.516 V 36.3594 c 0,-3.0078 0.774,-4.1992 3.86,-4.1992 1.257,0 1.953,0.1367 2.586,0.2148 v -4.832 c -0.77,-0.1485 -2.313,-0.4219 -4.766,-0.4219 -6.094,0 -7.559,2.5195 -7.559,7.4219 v 25.9179 h -5.468 v 4.6172 h 5.468 v 10.9297" /><path
             id="path80"
             style="fill:#231f20;fill-opacity:1;fill-rule:nonzero;stroke:none"
             d="m 199.25,80.207 h 6.855 l -7.558,-9.9414 h -4.199 z m 5.391,-29.9804 v 2.0312 c 0,4.211 -1.328,9.1797 -6.512,9.1797 -6.164,0 -6.867,-7.5664 -6.867,-9.8047 v -1.4062 z m -13.594,-4.6172 c 0,-5.7422 0,-14.4258 7.219,-14.4258 5.605,0 6.375,5.8789 6.375,8.6836 h 5.879 c 0,-3.9961 -2.383,-13.3125 -12.606,-13.3125 -9.172,0 -13.027,6.3789 -13.027,19.2695 0,9.3828 1.824,20.2344 13.379,20.2344 11.484,0 12.539,-10.0117 12.539,-18.0664 v -2.3828 h -19.758" /><path
             id="path82"
             style="fill:#231f20;fill-opacity:1;fill-rule:nonzero;stroke:none"
             d="m 264.836,44.6992 c -0.555,-9.4531 -4.266,-18.1445 -15.195,-18.1445 -14.219,0 -16.114,13.3789 -16.114,25.9883 0,12.6054 2.317,25.9843 16.114,25.9843 10.226,0 14.492,-5.7421 14.777,-15.5468 h -6.445 c -0.137,5.6758 -1.965,10.5078 -8.332,10.5078 -8.543,0 -9.668,-9.3945 -9.668,-20.9453 0,-11.5547 1.125,-20.9375 9.668,-20.9375 7.492,0 8.547,7 8.75,13.0937 h 6.445" /><path
             id="path84"
             style="fill:#231f20;fill-opacity:1;fill-rule:nonzero;stroke:none"
             d="m 287.582,47.9922 c -2.18,-2.3164 -7.355,-2.8047 -10.019,-4.4141 -1.887,-1.1914 -2.872,-2.6562 -2.872,-5.9492 0,-3.7891 1.329,-6.4453 5.321,-6.4453 3.859,0 7.57,3.293 7.57,7.1406 z m -18.144,5.7422 c 0,8.5429 3.64,12.3242 12.605,12.3242 11.418,0 11.418,-6.8672 11.418,-10.7813 V 34.3281 c 0,-1.5312 0,-3.0078 1.824,-3.0078 0.774,0 1.113,0.1367 1.399,0.3516 v -4.1992 c -0.422,-0.0782 -1.965,-0.3516 -3.43,-0.3516 -2.246,0 -5.047,0 -5.32,4.832 h -0.149 c -1.883,-3.3672 -5.527,-5.3984 -9.031,-5.3984 -7.004,0 -10.227,4.2109 -10.227,10.9297 0,5.2539 2.239,8.8945 7.071,10.3711 l 7.922,2.3711 c 4.265,1.3398 4.265,2.5312 4.265,5.6757 0,3.504 -2.097,5.5352 -6.023,5.5352 -6.438,0 -6.438,-6.0273 -6.438,-7.3516 v -0.3515 h -5.886" /><path
             id="path86"
             style="fill:#231f20;fill-opacity:1;fill-rule:nonzero;stroke:none"
             d="m 301.418,65.0781 h 5.605 V 60.668 h 0.149 c 1.531,3.4258 5.457,5.3906 9.101,5.3906 9.872,0 9.872,-7.4922 9.872,-11.9063 V 27.543 h -5.879 v 25.9062 c 0,2.8711 -0.215,7.5703 -5.536,7.5703 -3.156,0 -7.421,-2.1015 -7.421,-7.5703 V 27.543 h -5.891 v 37.5351" /><path
             id="path88"
             style="fill:#231f20;fill-opacity:1;fill-rule:nonzero;stroke:none"
             d="m 351.066,47.9922 c -2.175,-2.3164 -7.351,-2.8047 -10.019,-4.4141 -1.883,-1.1914 -2.871,-2.6562 -2.871,-5.9492 0,-3.7891 1.328,-6.4453 5.324,-6.4453 3.855,0 7.566,3.293 7.566,7.1406 z m -18.144,5.7422 c 0,8.5429 3.644,12.3242 12.609,12.3242 11.414,0 11.414,-6.8672 11.414,-10.7813 V 34.3281 c 0,-1.5312 0,-3.0078 1.828,-3.0078 0.77,0 1.114,0.1367 1.395,0.3516 v -4.1992 c -0.418,-0.0782 -1.961,-0.3516 -3.426,-0.3516 -2.246,0 -5.051,0 -5.324,4.832 h -0.145 c -1.886,-3.3672 -5.527,-5.3984 -9.035,-5.3984 -7,0 -10.222,4.2109 -10.222,10.9297 0,5.2539 2.234,8.8945 7.07,10.3711 l 7.918,2.3711 c 4.269,1.3398 4.269,2.5312 4.269,5.6757 0,3.504 -2.101,5.5352 -6.027,5.5352 -6.433,0 -6.433,-6.0273 -6.433,-7.3516 v -0.3515 h -5.891" /><path
             id="path90"
             style="fill:#231f20;fill-opacity:1;fill-rule:nonzero;stroke:none"
             d="m 376.535,31.6055 c 6.516,0 7.57,6.1601 7.57,14.707 0,7.2852 -1.269,14.707 -7.57,14.707 -5.457,0 -6.863,-5.7422 -6.863,-14.707 0,-8.9648 1.406,-14.707 6.863,-14.707 z m 13.098,-4.0625 h -5.606 v 4.6172 h -0.136 c -0.774,-2.8008 -4.063,-5.6055 -8.125,-5.6055 -8.899,0 -12.258,7.9219 -12.258,19.7578 0,7.8398 1.262,19.7461 11.836,19.7461 3.359,0 6.933,-2.0313 8.261,-5.2539 h 0.149 V 77.543 h 5.879 v -50" /><path
             id="path92"
             style="fill:#231f20;fill-opacity:1;fill-rule:nonzero;stroke:none"
             d="m 414.555,47.9922 c -2.18,-2.3164 -7.356,-2.8047 -10.02,-4.4141 -1.887,-1.1914 -2.871,-2.6562 -2.871,-5.9492 0,-3.7891 1.328,-6.4453 5.32,-6.4453 3.86,0 7.571,3.293 7.571,7.1406 z m -18.145,5.7422 c 0,8.5429 3.641,12.3242 12.606,12.3242 11.418,0 11.418,-6.8672 11.418,-10.7813 V 34.3281 c 0,-1.5312 0,-3.0078 1.824,-3.0078 0.773,0 1.113,0.1367 1.398,0.3516 v -4.1992 c -0.422,-0.0782 -1.965,-0.3516 -3.429,-0.3516 -2.247,0 -5.047,0 -5.321,4.832 h -0.148 c -1.883,-3.3672 -5.528,-5.3984 -9.031,-5.3984 -7.004,0 -10.227,4.2109 -10.227,10.9297 0,5.2539 2.238,8.8945 7.07,10.3711 l 7.922,2.3711 c 4.266,1.3398 4.266,2.5312 4.266,5.6757 0,3.504 -2.098,5.5352 -6.024,5.5352 -6.437,0 -6.437,-6.0273 -6.437,-7.3516 v -0.3515 h -5.887" /><path
             id="path94"
             style="fill:#231f20;fill-opacity:1;fill-rule:nonzero;stroke:none"
             d="m 148.219,503.898 c -14.77,-25.164 -47.172,-33.597 -72.3088,-18.824 -25.1641,14.77 -33.6016,47.199 -18.8321,72.364 14.7735,25.136 46.9259,33.511 72.3669,18.804 25.438,-14.679 33.578,-47.203 18.774,-72.344 z m -10.098,87.586 C 104.566,611.195 61.793,600.035 42.0508,566.48 24.7891,536.691 31.3867,499.461 56.4531,477.875 L 28.2266,430.441 c -2.8047,-4.789 -1.0547,-10.953 3.8515,-13.55 l 6.7735,-3.586 c 4.6679,-2.473 10.457,-0.782 13.0586,3.816 l 26.7734,47.68 c 31.3794,-11.293 67.0934,1.07 84.4414,30.609 19.684,33.555 8.578,76.363 -25.004,96.074" /></g></g></g></g></svg>