<?xml version="1.0" encoding="UTF-8" standalone="no"?>
<svg
   xmlns:dc="http://purl.org/dc/elements/1.1/"
   xmlns:cc="http://creativecommons.org/ns#"
   xmlns:rdf="http://www.w3.org/1999/02/22-rdf-syntax-ns#"
   xmlns:svg="http://www.w3.org/2000/svg"
   xmlns="http://www.w3.org/2000/svg"
   viewBox="0 0 51.779732 52.913595"
   height="52.913597"
   width="51.779732"
   xml:space="preserve"
   id="svg2"
   version="1.1"><metadata
     id="metadata8"><rdf:RDF><cc:Work
         rdf:about=""><dc:format>image/svg+xml</dc:format><dc:type
           rdf:resource="http://purl.org/dc/dcmitype/StillImage" /></cc:Work></rdf:RDF></metadata><defs
     id="defs6"><clipPath
       id="clipPath20"
       clipPathUnits="userSpaceOnUse"><path
         id="path18"
         d="M 0,0 H 388.348 V 396.852 H 0 Z" /></clipPath></defs><g
     transform="matrix(1.3333333,0,0,-1.3333333,0,52.913599)"
     id="g10"><g
       transform="scale(0.1)"
       id="g12"><g
         id="g14"><g
           clip-path="url(#clipPath20)"
           id="g16"><path
             id="path22"
             style="fill:#ffffff;fill-opacity:1;fill-rule:nonzero;stroke:none"
             d="M 2.5,2.5 V 394.352 H 385.848 V 2.5 H 2.5" /><path
             id="path24"
             style="fill:#231f20;fill-opacity:1;fill-rule:nonzero;stroke:none"
             d="M 388.348,396.852 H 0 V 0 h 388.348 z m -5,-5 V 5 H 5 v 386.852 h 378.348" /><path
             id="path26"
             style="fill:#231f20;fill-opacity:1;fill-rule:nonzero;stroke:none"
             d="m 150.176,360.336 h 8.273 l -5.871,-8.641 h -5.644 z m 12.414,-11.16 v -7.071 h -15.293 v -10.078 h 14.394 v -7.07 h -14.394 v -11.516 h 15.898 v -7.078 h -24.531 v 42.813 h 23.926" /><path
             id="path28"
             style="fill:#231f20;fill-opacity:1;fill-rule:nonzero;stroke:none"
             d="m 168.781,349.176 h 8.282 v -42.813 h -8.282 v 42.813" /><path
             id="path30"
             style="fill:#231f20;fill-opacity:1;fill-rule:nonzero;stroke:none"
             d="m 199.609,326.148 c -0.183,4.922 -0.781,7.676 -4.199,7.676 -3.301,0 -4.258,-3.418 -4.258,-6.418 v -1.258 z m -8.457,-4.914 v -2.578 c 0,-3.777 1.016,-7.5 4.082,-7.5 2.754,0 3.899,2.102 4.375,6.055 h 7.434 c -0.293,-7.488 -3.898,-11.688 -11.691,-11.688 -11.993,0 -12.469,9.239 -12.469,17.274 0,8.633 1.68,16.672 12.832,16.672 9.648,0 11.805,-6.485 11.805,-16.379 v -1.856 h -16.368" /><path
             id="path32"
             style="fill:#231f20;fill-opacity:1;fill-rule:nonzero;stroke:none"
             d="m 228.352,338.629 h 8.281 l -8.098,-32.266 h -9.597 l -8.333,32.266 h 8.633 l 4.621,-23.086 h 0.118 l 4.375,23.086" /><path
             id="path34"
             style="fill:#231f20;fill-opacity:1;fill-rule:nonzero;stroke:none"
             d="m 251.398,351.039 h 8.27 l -5.867,-8.633 h -5.645 z m 5.04,-24.891 c -0.188,4.922 -0.782,7.676 -4.2,7.676 -3.3,0 -4.258,-3.418 -4.258,-6.418 v -1.258 z m -8.458,-4.914 v -2.578 c 0,-3.777 1.016,-7.5 4.083,-7.5 2.753,0 3.894,2.102 4.375,6.055 h 7.429 c -0.293,-7.488 -3.894,-11.688 -11.687,-11.688 -11.992,0 -12.473,9.239 -12.473,17.274 0,8.633 1.68,16.672 12.832,16.672 9.649,0 11.809,-6.485 11.809,-16.379 v -1.856 H 247.98" /><path
             id="path36"
             style="fill:#231f20;fill-opacity:1;fill-rule:nonzero;stroke:none"
             d="m 301.016,326.148 c -0.184,4.922 -0.782,7.676 -4.2,7.676 -3.3,0 -4.257,-3.418 -4.257,-6.418 v -1.258 z m -8.457,-4.914 v -2.578 c 0,-3.777 1.015,-7.5 4.082,-7.5 2.754,0 3.898,2.102 4.375,6.055 h 7.433 c -0.293,-7.488 -3.898,-11.688 -11.691,-11.688 -11.992,0 -12.469,9.239 -12.469,17.274 0,8.633 1.68,16.672 12.832,16.672 9.649,0 11.805,-6.485 11.805,-16.379 v -1.856 h -16.367" /><path
             id="path38"
             style="fill:#231f20;fill-opacity:1;fill-rule:nonzero;stroke:none"
             d="m 314.453,338.629 h 7.922 v -3.781 h 0.117 c 1.738,3.175 4.735,4.621 8.223,4.621 5.156,0 8.211,-2.824 8.211,-9.18 v -23.926 h -8.281 v 22.246 c 0,3.243 -1.075,4.5 -3.536,4.5 -2.812,0 -4.375,-1.738 -4.375,-5.339 v -21.407 h -8.281 v 32.266" /><path
             id="path40"
             style="fill:#231f20;fill-opacity:1;fill-rule:nonzero;stroke:none"
             d="m 62.0117,55.7383 c 0,4.5 -1.6211,7.6172 -6.6601,7.6172 -4.4336,0 -7.0703,-2.3946 -7.0703,-6.9532 0,-12.0507 20.207,-4.8554 20.207,-20.5078 0,-9.8945 -7.2578,-12.7148 -13.3125,-12.7148 -10.0195,0 -12.957,5.1562 -12.957,14.2656 H 47.5 c 0,-4.793 0.293,-9.9492 8.0391,-9.9492 4.1875,0 7.4297,2.9961 7.4297,7.5586 0,12.1094 -20.2032,5.0976 -20.2032,20.8086 0,3.957 1.6797,11.8086 12.5274,11.8086 8.1562,0 11.875,-4.0742 11.9922,-11.9336 h -5.2735" /><path
             id="path42"
             style="fill:#231f20;fill-opacity:1;fill-rule:nonzero;stroke:none"
             d="M 88.4102,41.5273 C 86.5547,39.5469 82.1211,39.125 79.8359,37.75 78.2148,36.7344 77.375,35.4727 77.375,32.6523 c 0,-3.2343 1.1406,-5.5195 4.5586,-5.5195 3.3008,0 6.4766,2.8242 6.4766,6.125 z m -15.5274,4.9219 c 0,7.3164 3.1133,10.5469 10.7891,10.5469 9.7773,0 9.7773,-5.8672 9.7773,-9.2266 V 29.8398 c 0,-1.3203 0,-2.5781 1.5625,-2.5781 0.6524,0 0.9571,0.1172 1.1992,0.293 v -3.5938 c -0.3593,-0.0586 -1.6796,-0.3046 -2.9375,-0.3046 -1.9257,0 -4.3164,0 -4.5625,4.1406 h -0.1171 c -1.6211,-2.8789 -4.7344,-4.6172 -7.7344,-4.6172 -5.9961,0 -8.7578,3.5937 -8.7578,9.3555 0,4.5 1.9218,7.6171 6.0547,8.875 l 6.7773,2.0429 c 3.6602,1.1328 3.6602,2.1563 3.6602,4.8516 0,3 -1.7969,4.7383 -5.1563,4.7383 -5.5156,0 -5.5156,-5.1563 -5.5156,-6.3008 v -0.293 h -5.0391" /><path
             id="path44"
             style="fill:#231f20;fill-opacity:1;fill-rule:nonzero;stroke:none"
             d="m 100.305,56.1563 h 4.793 v -3.7696 h 0.117 c 1.32,2.9297 4.68,4.6094 7.805,4.6094 8.445,0 8.445,-6.4141 8.445,-10.1953 V 24.0195 h -5.027 V 46.207 c 0,2.461 -0.188,6.4727 -4.747,6.4727 -2.695,0 -6.347,-1.7969 -6.347,-6.4727 V 24.0195 h -5.039 v 32.1368" /><path
             id="path46"
             style="fill:#231f20;fill-opacity:1;fill-rule:nonzero;stroke:none"
             d="m 129.57,65.5117 h 5.039 v -9.3554 h 5.579 v -3.9532 h -5.579 v -20.625 c 0,-2.5781 0.664,-3.6054 3.301,-3.6054 1.074,0 1.68,0.1289 2.219,0.1875 v -4.1407 c -0.664,-0.1172 -1.984,-0.3632 -4.082,-0.3632 -5.215,0 -6.477,2.1601 -6.477,6.3593 v 22.1875 h -4.675 v 3.9532 h 4.675 v 9.3554" /><path
             id="path48"
             style="fill:#231f20;fill-opacity:1;fill-rule:nonzero;stroke:none"
             d="m 154.836,69.1172 h 5.879 l -6.477,-8.5156 h -3.601 z m 4.617,-25.6641 v 1.7383 c 0,3.5938 -1.14,7.8516 -5.574,7.8516 -5.285,0 -5.879,-6.4766 -5.879,-8.3985 v -1.1914 z m -11.629,-3.9648 c 0,-4.9141 0,-12.3555 6.172,-12.3555 4.793,0 5.457,5.0391 5.457,7.4414 h 5.039 c 0,-3.4179 -2.039,-11.3945 -10.801,-11.3945 -7.851,0 -11.152,5.457 -11.152,16.4922 0,8.039 1.563,17.3242 11.457,17.3242 9.832,0 10.731,-8.5742 10.731,-15.4688 v -2.039 h -16.903" /><path
             id="path50"
             style="fill:#231f20;fill-opacity:1;fill-rule:nonzero;stroke:none"
             d="m 211.047,38.707 c -0.488,-8.0976 -3.664,-15.5273 -13.02,-15.5273 -12.168,0 -13.789,11.4531 -13.789,22.2461 0,10.8008 1.973,22.2461 13.789,22.2461 8.762,0 12.414,-4.9141 12.657,-13.3125 h -5.516 c -0.117,4.8633 -1.68,8.9961 -7.141,8.9961 -7.312,0 -8.269,-8.0391 -8.269,-17.9297 0,-9.8945 0.957,-17.9297 8.269,-17.9297 6.418,0 7.317,5.9961 7.5,11.2109 h 5.52" /><path
             id="path52"
             style="fill:#231f20;fill-opacity:1;fill-rule:nonzero;stroke:none"
             d="m 230.547,41.5273 c -1.856,-1.9804 -6.289,-2.4023 -8.574,-3.7773 -1.621,-1.0156 -2.461,-2.2773 -2.461,-5.0977 0,-3.2343 1.144,-5.5195 4.562,-5.5195 3.301,0 6.473,2.8242 6.473,6.125 z m -15.527,4.9219 c 0,7.3164 3.117,10.5469 10.793,10.5469 9.773,0 9.773,-5.8672 9.773,-9.2266 V 29.8398 c 0,-1.3203 0,-2.5781 1.562,-2.5781 0.657,0 0.957,0.1172 1.204,0.293 v -3.5938 c -0.364,-0.0586 -1.68,-0.3046 -2.942,-0.3046 -1.922,0 -4.316,0 -4.558,4.1406 h -0.118 c -1.621,-2.8789 -4.738,-4.6172 -7.734,-4.6172 -5.996,0 -8.762,3.5937 -8.762,9.3555 0,4.5 1.926,7.6171 6.055,8.875 l 6.777,2.0429 c 3.664,1.1328 3.664,2.1563 3.664,4.8516 0,3 -1.796,4.7383 -5.156,4.7383 -5.519,0 -5.519,-5.1563 -5.519,-6.3008 v -0.293 h -5.039" /><path
             id="path54"
             style="fill:#231f20;fill-opacity:1;fill-rule:nonzero;stroke:none"
             d="m 242.441,56.1563 h 4.797 v -3.7696 h 0.117 c 1.317,2.9297 4.676,4.6094 7.801,4.6094 8.449,0 8.449,-6.4141 8.449,-10.1953 V 24.0195 h -5.031 V 46.207 c 0,2.461 -0.183,6.4727 -4.746,6.4727 -2.695,0 -6.348,-1.7969 -6.348,-6.4727 V 24.0195 h -5.039 v 32.1368" /><path
             id="path56"
             style="fill:#231f20;fill-opacity:1;fill-rule:nonzero;stroke:none"
             d="m 284.961,41.5273 c -1.856,-1.9804 -6.289,-2.4023 -8.574,-3.7773 -1.621,-1.0156 -2.461,-2.2773 -2.461,-5.0977 0,-3.2343 1.144,-5.5195 4.562,-5.5195 3.301,0 6.473,2.8242 6.473,6.125 z m -15.527,4.9219 c 0,7.3164 3.117,10.5469 10.793,10.5469 9.773,0 9.773,-5.8672 9.773,-9.2266 V 29.8398 c 0,-1.3203 0,-2.5781 1.563,-2.5781 0.656,0 0.957,0.1172 1.203,0.293 v -3.5938 c -0.364,-0.0586 -1.68,-0.3046 -2.942,-0.3046 -1.922,0 -4.316,0 -4.558,4.1406 h -0.118 c -1.621,-2.8789 -4.738,-4.6172 -7.734,-4.6172 -5.996,0 -8.762,3.5937 -8.762,9.3555 0,4.5 1.926,7.6171 6.055,8.875 l 6.777,2.0429 c 3.664,1.1328 3.664,2.1563 3.664,4.8516 0,3 -1.796,4.7383 -5.156,4.7383 -5.519,0 -5.519,-5.1563 -5.519,-6.3008 v -0.293 h -5.039" /><path
             id="path58"
             style="fill:#231f20;fill-opacity:1;fill-rule:nonzero;stroke:none"
             d="m 306.809,27.4961 c 5.574,0 6.472,5.2812 6.472,12.5977 0,6.2304 -1.074,12.5859 -6.472,12.5859 -4.68,0 -5.879,-4.9102 -5.879,-12.5859 0,-7.6758 1.199,-12.5977 5.879,-12.5977 z m 11.211,-3.4766 h -4.797 v 3.9532 h -0.118 c -0.664,-2.3907 -3.476,-4.793 -6.953,-4.793 -7.617,0 -10.496,6.7773 -10.496,16.9141 0,6.707 1.074,16.9023 10.137,16.9023 2.871,0 5.937,-1.7383 7.07,-4.4922 h 0.125 V 66.832 h 5.032 V 24.0195" /><path
             id="path60"
             style="fill:#231f20;fill-opacity:1;fill-rule:nonzero;stroke:none"
             d="m 339.387,41.5273 c -1.856,-1.9804 -6.289,-2.4023 -8.574,-3.7773 -1.622,-1.0156 -2.461,-2.2773 -2.461,-5.0977 0,-3.2343 1.14,-5.5195 4.558,-5.5195 3.301,0 6.477,2.8242 6.477,6.125 z m -15.528,4.9219 c 0,7.3164 3.114,10.5469 10.789,10.5469 9.778,0 9.778,-5.8672 9.778,-9.2266 V 29.8398 c 0,-1.3203 0,-2.5781 1.562,-2.5781 0.653,0 0.957,0.1172 1.2,0.293 v -3.5938 c -0.36,-0.0586 -1.68,-0.3046 -2.938,-0.3046 -1.926,0 -4.316,0 -4.562,4.1406 h -0.118 c -1.621,-2.8789 -4.734,-4.6172 -7.734,-4.6172 -5.996,0 -8.758,3.5937 -8.758,9.3555 0,4.5 1.922,7.6171 6.055,8.875 l 6.777,2.0429 c 3.66,1.1328 3.66,2.1563 3.66,4.8516 0,3 -1.797,4.7383 -5.156,4.7383 -5.516,0 -5.516,-5.1563 -5.516,-6.3008 v -0.293 h -5.039" /><path
             id="path62"
             style="fill:#231f20;fill-opacity:1;fill-rule:nonzero;stroke:none"
             d="M 104.434,309.383 C 94.6992,292.805 73.3477,287.242 56.7852,296.98 c -16.5821,9.731 -22.1446,31.102 -12.4102,47.684 9.7344,16.563 30.9219,22.082 47.6875,12.391 16.7615,-9.676 22.1255,-31.106 12.3715,-47.672 z m -6.6567,57.715 c -22.1093,12.988 -50.2968,5.636 -63.3046,-16.477 -11.375,-19.629 -7.0274,-44.16 9.4921,-58.387 L 25.3633,260.98 c -1.8477,-3.156 -0.6953,-7.218 2.539,-8.929 l 4.4649,-2.363 c 3.0742,-1.629 6.8867,-0.512 8.6016,2.515 l 17.6445,31.418 c 20.6758,-7.441 44.2107,0.703 55.6407,20.172 12.973,22.105 5.652,50.316 -16.4767,63.305" /><path
             id="path64"
             style="fill:#231f20;fill-opacity:1;fill-rule:nonzero;stroke:none"
             d="M 87.5234,265.527 V 183.32 H 364.418 v 82.207 H 87.5234" /><path
             id="path66"
             style="fill:#ffffff;fill-opacity:1;fill-rule:nonzero;stroke:none"
             d="m 135.91,234.242 c 0,3.176 -1.445,7.188 -4.922,7.188 -4.199,0 -5.879,-4.317 -5.879,-14.989 0,-10.312 0.965,-16.789 5.938,-16.789 2.039,0 5.34,2.219 5.34,6.836 v 4.375 h -5.703 v 6.36 h 13.976 v -23.086 h -6.359 v 3.953 h -0.117 c -2.039,-3.36 -4.981,-4.793 -8.993,-4.793 -10.617,0 -12.714,7.918 -12.714,22.723 0,14.394 3.359,21.769 14.394,21.769 9.473,0 13.309,-4.855 13.309,-13.547 h -8.27" /><path
             id="path68"
             style="fill:#ffffff;fill-opacity:1;fill-rule:nonzero;stroke:none"
             d="m 151.516,236.402 h 7.918 v -4.316 h 0.117 c 1.679,3.113 4.023,5.156 7.441,5.156 0.481,0 1.016,-0.07 1.496,-0.129 v -7.91 c -0.84,0.059 -1.738,0.117 -2.578,0.117 -2.883,0 -6.113,-1.492 -6.113,-5.82 v -19.363 h -8.281 v 32.265" /><path
             id="path70"
             style="fill:#ffffff;fill-opacity:1;fill-rule:nonzero;stroke:none"
             d="m 188.047,220.27 c -1.141,-0.84 -2.52,-1.379 -3.543,-1.622 -3.352,-0.722 -4.68,-2.335 -4.68,-5.214 0,-2.461 0.91,-4.504 3.125,-4.504 2.219,0 5.098,1.445 5.098,4.98 z m -15.117,6.23 v 0.781 c 0,7.442 5.097,9.961 11.34,9.961 9.832,0 11.687,-4.082 11.687,-9.902 v -16.965 c 0,-2.996 0.188,-4.383 1.027,-6.238 h -7.921 c -0.536,1.015 -0.782,2.273 -1.016,3.359 h -0.125 c -1.914,-3.359 -4.25,-4.199 -8.215,-4.199 -5.75,0 -7.793,4.922 -7.793,9.238 0,6.055 2.461,8.516 8.156,10.067 l 4.676,1.261 c 2.461,0.664 3.301,1.621 3.301,3.778 0,2.461 -1.082,3.957 -3.836,3.957 -2.52,0 -3.84,-1.68 -3.84,-4.192 V 226.5 h -7.441" /><path
             id="path72"
             style="fill:#ffffff;fill-opacity:1;fill-rule:nonzero;stroke:none"
             d="m 209.414,214.691 v -1.082 c 0,-2.812 1.496,-4.679 4.316,-4.679 2.52,0 4.2,1.261 4.2,3.84 0,2.097 -1.387,3.054 -2.996,3.66 l -5.821,2.101 c -4.562,1.621 -6.894,4.434 -6.894,8.992 0,5.332 3.359,9.719 11.875,9.719 7.488,0 11.035,-3.359 11.035,-9.179 v -1.321 h -7.441 c 0,3.242 -0.958,4.856 -3.665,4.856 -2.089,0 -3.894,-1.192 -3.894,-3.477 0,-1.555 0.84,-2.883 3.601,-3.781 l 4.973,-1.68 c 5.223,-1.738 7.137,-4.375 7.137,-9.226 0,-6.778 -5.039,-10.137 -11.992,-10.137 -9.297,0 -11.875,4.082 -11.875,10.254 v 1.14 h 7.441" /><path
             id="path74"
             style="fill:#ffffff;fill-opacity:1;fill-rule:nonzero;stroke:none"
             d="m 253.449,214.691 v -1.082 c 0,-2.812 1.492,-4.679 4.317,-4.679 2.519,0 4.199,1.261 4.199,3.84 0,2.097 -1.387,3.054 -3,3.66 l -5.82,2.101 c -4.559,1.621 -6.895,4.434 -6.895,8.992 0,5.332 3.359,9.719 11.875,9.719 7.492,0 11.035,-3.359 11.035,-9.179 v -1.321 h -7.441 c 0,3.242 -0.957,4.856 -3.653,4.856 -2.097,0 -3.906,-1.192 -3.906,-3.477 0,-1.555 0.84,-2.883 3.606,-3.781 l 4.968,-1.68 c 5.227,-1.738 7.141,-4.375 7.141,-9.226 0,-6.778 -5.039,-10.137 -11.992,-10.137 -9.297,0 -11.875,4.082 -11.875,10.254 v 1.14 h 7.441" /><path
             id="path76"
             style="fill:#ffffff;fill-opacity:1;fill-rule:nonzero;stroke:none"
             d="m 290.586,220.27 c -1.141,-0.84 -2.52,-1.379 -3.543,-1.622 -3.352,-0.722 -4.68,-2.335 -4.68,-5.214 0,-2.461 0.91,-4.504 3.125,-4.504 2.219,0 5.098,1.445 5.098,4.98 z m -15.117,6.23 v 0.781 c 0,7.442 5.097,9.961 11.34,9.961 9.832,0 11.687,-4.082 11.687,-9.902 v -16.965 c 0,-2.996 0.188,-4.383 1.027,-6.238 h -7.921 c -0.536,1.015 -0.782,2.273 -1.016,3.359 h -0.125 c -1.914,-3.359 -4.25,-4.199 -8.215,-4.199 -5.75,0 -7.793,4.922 -7.793,9.238 0,6.055 2.461,8.516 8.156,10.067 l 4.676,1.261 c 2.461,0.664 3.301,1.621 3.301,3.778 0,2.461 -1.082,3.957 -3.836,3.957 -2.52,0 -3.84,-1.68 -3.84,-4.192 V 226.5 h -7.441" /><path
             id="path78"
             style="fill:#ffffff;fill-opacity:1;fill-rule:nonzero;stroke:none"
             d="m 307.695,245.629 h 8.274 v -9.227 h 4.793 v -5.644 h -4.793 v -17.442 c 0,-2.519 0.535,-3.546 2.937,-3.546 0.664,0 1.321,0.058 1.856,0.117 v -5.75 c -1.797,-0.176 -3.477,-0.364 -5.391,-0.364 -6.484,0 -7.676,1.985 -7.676,8.516 v 18.469 h -4.199 v 5.644 h 4.199 v 9.227" /><path
             id="path80"
             style="fill:#ffffff;fill-opacity:1;fill-rule:nonzero;stroke:none"
             d="m 333.547,213.492 v -9.355 h -7.91 v 9.355 h 7.91" /><path
             id="path82"
             style="fill:#231f20;fill-opacity:1;fill-rule:nonzero;stroke:none"
             d="M 87.5234,170.508 V 88.3008 H 364.418 V 170.508 H 87.5234" /><path
             id="path84"
             style="fill:#ffffff;fill-opacity:1;fill-rule:nonzero;stroke:none"
             d="m 123.848,121.637 v -1.262 c 0,-4.012 1.144,-6.59 5.703,-6.59 2.637,0 5.156,1.68 5.156,5.274 0,3.894 -1.98,5.339 -7.676,7.312 -7.676,2.649 -11.211,5.82 -11.211,12.961 0,8.328 5.09,12.586 13.254,12.586 7.676,0 13.25,-3.289 13.25,-11.512 v -1.191 h -8.281 c 0,4.012 -1.375,6.348 -4.676,6.348 -3.898,0 -4.914,-2.454 -4.914,-4.973 0,-2.637 0.781,-4.258 4.434,-5.82 l 6.66,-2.879 c 6.476,-2.813 8.156,-6.114 8.156,-11.328 0,-9.055 -5.519,-13.137 -14.875,-13.137 -9.773,0 -13.613,4.562 -13.613,12.472 v 1.739 h 8.633" /><path
             id="path86"
             style="fill:#ffffff;fill-opacity:1;fill-rule:nonzero;stroke:none"
             d="m 160.93,113.063 c 3.359,0 4.433,3.3 4.433,11.335 0,8.04 -1.074,11.329 -4.433,11.329 -4.082,0 -4.446,-4.735 -4.446,-11.329 0,-6.601 0.364,-11.335 4.446,-11.335 z m 0,28.308 c 9.949,0.176 12.715,-5.762 12.715,-16.973 0,-11.035 -3.243,-16.972 -12.715,-16.972 -9.961,-0.176 -12.715,5.762 -12.715,16.972 0,11.036 3.242,16.973 12.715,16.973" /><path
             id="path88"
             style="fill:#ffffff;fill-opacity:1;fill-rule:nonzero;stroke:none"
             d="m 191.406,113.785 c 3.664,0 4.375,3.594 4.375,10.613 0,7.012 -0.711,10.618 -4.375,10.618 -3.593,0 -4.316,-3.606 -4.316,-10.618 0,-7.019 0.723,-10.613 4.316,-10.613 z m 4.739,-2.101 h -0.118 c -1.797,-2.996 -4.082,-4.258 -7.316,-4.258 -6.777,0 -9.891,4.98 -9.891,16.972 0,11.993 3.114,16.973 9.891,16.973 3.117,0 5.215,-1.258 6.953,-3.836 h 0.117 v 13.543 h 8.282 v -42.812 h -7.918 v 3.418" /><path
             id="path90"
             style="fill:#ffffff;fill-opacity:1;fill-rule:nonzero;stroke:none"
             d="m 211.398,140.531 h 8.282 v -32.265 h -8.282 z m 0,11.035 h 8.282 v -7.078 h -8.282 v 7.078" /><path
             id="path92"
             style="fill:#ffffff;fill-opacity:1;fill-rule:nonzero;stroke:none"
             d="m 243.547,112.047 h -0.117 c -1.739,-3.184 -4.739,-4.621 -8.215,-4.621 -5.156,0 -8.223,2.824 -8.223,9.179 v 23.926 h 8.281 v -22.254 c 0,-3.234 1.075,-4.492 3.536,-4.492 2.824,0 4.375,1.738 4.375,5.332 v 21.414 h 8.281 v -32.265 h -7.918 v 3.781" /><path
             id="path94"
             style="fill:#ffffff;fill-opacity:1;fill-rule:nonzero;stroke:none"
             d="m 258.488,140.531 h 7.918 v -3.301 h 0.117 c 2.102,2.942 4.68,4.141 8.157,4.141 3.777,0 6.543,-1.863 7.441,-5.156 h 0.117 c 1.258,3.418 4.258,5.156 8.153,5.156 5.461,0 8.039,-3.418 8.039,-9.656 v -23.449 h -8.274 v 22.55 c 0,2.696 -0.898,4.2 -3.242,4.2 -2.637,0 -4.316,-1.809 -4.316,-5.52 v -21.23 h -8.27 v 22.55 c 0,2.696 -0.91,4.2 -3.242,4.2 -2.637,0 -4.316,-1.809 -4.316,-5.52 v -21.23 h -8.282 v 32.265" /></g></g></g></g></svg>