<?xml version="1.0" encoding="UTF-8" standalone="no"?>
<svg
   xmlns:dc="http://purl.org/dc/elements/1.1/"
   xmlns:cc="http://creativecommons.org/ns#"
   xmlns:rdf="http://www.w3.org/1999/02/22-rdf-syntax-ns#"
   xmlns:svg="http://www.w3.org/2000/svg"
   xmlns="http://www.w3.org/2000/svg"
   viewBox="0 0 51.779732 52.913595"
   height="52.913597"
   width="51.779732"
   xml:space="preserve"
   id="svg2"
   version="1.1"><metadata
     id="metadata8"><rdf:RDF><cc:Work
         rdf:about=""><dc:format>image/svg+xml</dc:format><dc:type
           rdf:resource="http://purl.org/dc/dcmitype/StillImage" /></cc:Work></rdf:RDF></metadata><defs
     id="defs6"><clipPath
       id="clipPath20"
       clipPathUnits="userSpaceOnUse"><path
         id="path18"
         d="M 0,0 H 388.348 V 396.852 H 0 Z" /></clipPath></defs><g
     transform="matrix(1.3333333,0,0,-1.3333333,0,52.913599)"
     id="g10"><g
       transform="scale(0.1)"
       id="g12"><g
         id="g14"><g
           clip-path="url(#clipPath20)"
           id="g16"><path
             id="path22"
             style="fill:#ffffff;fill-opacity:1;fill-rule:nonzero;stroke:none"
             d="M 2.5,2.5 V 394.352 H 385.848 V 2.5 H 2.5" /><path
             id="path24"
             style="fill:#231f20;fill-opacity:1;fill-rule:nonzero;stroke:none"
             d="M 388.348,396.852 H 0 V 0 h 388.348 z m -5,-5 V 5 H 5 v 386.852 h 378.348" /><path
             id="path26"
             style="fill:#231f20;fill-opacity:1;fill-rule:nonzero;stroke:none"
             d="m 150.176,360.336 h 8.273 l -5.871,-8.641 h -5.644 z m 12.414,-11.16 v -7.071 h -15.293 v -10.078 h 14.394 v -7.07 h -14.394 v -11.516 h 15.898 v -7.078 h -24.531 v 42.813 h 23.926" /><path
             id="path28"
             style="fill:#231f20;fill-opacity:1;fill-rule:nonzero;stroke:none"
             d="m 168.781,349.176 h 8.282 v -42.813 h -8.282 v 42.813" /><path
             id="path30"
             style="fill:#231f20;fill-opacity:1;fill-rule:nonzero;stroke:none"
             d="m 199.609,326.148 c -0.183,4.922 -0.781,7.676 -4.199,7.676 -3.301,0 -4.258,-3.418 -4.258,-6.418 v -1.258 z m -8.457,-4.914 v -2.578 c 0,-3.777 1.016,-7.5 4.082,-7.5 2.754,0 3.899,2.102 4.375,6.055 h 7.434 c -0.293,-7.488 -3.898,-11.688 -11.691,-11.688 -11.993,0 -12.469,9.239 -12.469,17.274 0,8.633 1.68,16.672 12.832,16.672 9.648,0 11.805,-6.485 11.805,-16.379 v -1.856 h -16.368" /><path
             id="path32"
             style="fill:#231f20;fill-opacity:1;fill-rule:nonzero;stroke:none"
             d="m 228.352,338.629 h 8.281 l -8.098,-32.266 h -9.597 l -8.333,32.266 h 8.633 l 4.621,-23.086 h 0.118 l 4.375,23.086" /><path
             id="path34"
             style="fill:#231f20;fill-opacity:1;fill-rule:nonzero;stroke:none"
             d="m 251.398,351.039 h 8.27 l -5.867,-8.633 h -5.645 z m 5.04,-24.891 c -0.188,4.922 -0.782,7.676 -4.2,7.676 -3.3,0 -4.258,-3.418 -4.258,-6.418 v -1.258 z m -8.458,-4.914 v -2.578 c 0,-3.777 1.016,-7.5 4.083,-7.5 2.753,0 3.894,2.102 4.375,6.055 h 7.429 c -0.293,-7.488 -3.894,-11.688 -11.687,-11.688 -11.992,0 -12.473,9.239 -12.473,17.274 0,8.633 1.68,16.672 12.832,16.672 9.649,0 11.809,-6.485 11.809,-16.379 v -1.856 H 247.98" /><path
             id="path36"
             style="fill:#231f20;fill-opacity:1;fill-rule:nonzero;stroke:none"
             d="m 301.016,326.148 c -0.184,4.922 -0.782,7.676 -4.2,7.676 -3.3,0 -4.257,-3.418 -4.257,-6.418 v -1.258 z m -8.457,-4.914 v -2.578 c 0,-3.777 1.015,-7.5 4.082,-7.5 2.754,0 3.898,2.102 4.375,6.055 h 7.433 c -0.293,-7.488 -3.898,-11.688 -11.691,-11.688 -11.992,0 -12.469,9.239 -12.469,17.274 0,8.633 1.68,16.672 12.832,16.672 9.649,0 11.805,-6.485 11.805,-16.379 v -1.856 h -16.367" /><path
             id="path38"
             style="fill:#231f20;fill-opacity:1;fill-rule:nonzero;stroke:none"
             d="m 314.453,338.629 h 7.922 v -3.781 h 0.117 c 1.738,3.175 4.735,4.621 8.223,4.621 5.156,0 8.211,-2.824 8.211,-9.18 v -23.926 h -8.281 v 22.246 c 0,3.243 -1.075,4.5 -3.536,4.5 -2.812,0 -4.375,-1.738 -4.375,-5.339 v -21.407 h -8.281 v 32.266" /><path
             id="path40"
             style="fill:#231f20;fill-opacity:1;fill-rule:nonzero;stroke:none"
             d="m 62.0234,55.7461 c 0,4.5039 -1.6211,7.6172 -6.6601,7.6172 -4.4336,0 -7.0703,-2.3906 -7.0703,-6.9531 0,-12.0508 20.2031,-4.8516 20.2031,-20.5079 0,-9.8906 -7.2539,-12.7148 -13.3086,-12.7148 -10.0195,0 -12.9609,5.1563 -12.9609,14.2695 h 5.2851 c 0,-4.7968 0.293,-9.9531 8.0352,-9.9531 4.1914,0 7.4336,3 7.4336,7.5586 0,12.1094 -20.2071,5.0977 -20.2071,20.8125 0,3.9531 1.6797,11.8047 12.5313,11.8047 8.1523,0 11.875,-4.0703 11.9922,-11.9336 h -5.2735" /><path
             id="path42"
             style="fill:#231f20;fill-opacity:1;fill-rule:nonzero;stroke:none"
             d="m 88.418,41.5391 c -1.8555,-1.9844 -6.2891,-2.4024 -8.5742,-3.7813 -1.6211,-1.0156 -2.461,-2.2734 -2.461,-5.0976 0,-3.2305 1.1445,-5.5157 4.5625,-5.5157 3.3008,0 6.4727,2.8203 6.4727,6.1211 z m -15.5274,4.9218 c 0,7.3125 3.1172,10.5469 10.793,10.5469 9.7734,0 9.7734,-5.8711 9.7734,-9.2305 V 29.8477 c 0,-1.3164 0,-2.5782 1.5625,-2.5782 0.6563,0 0.9571,0.1172 1.2032,0.293 V 23.9688 C 95.8594,23.9102 94.543,23.668 93.2813,23.668 c -1.9219,0 -4.3165,0 -4.5586,4.1406 h -0.1172 c -1.6211,-2.8828 -4.7383,-4.6211 -7.7344,-4.6211 -5.9961,0 -8.7617,3.5938 -8.7617,9.3555 0,4.5039 1.9258,7.6172 6.0547,8.8789 l 6.7773,2.039 c 3.6641,1.1329 3.6641,2.1602 3.6641,4.8555 0,2.9961 -1.7969,4.7344 -5.1563,4.7344 -5.5195,0 -5.5195,-5.1563 -5.5195,-6.2969 v -0.293 h -5.0391" /><path
             id="path44"
             style="fill:#231f20;fill-opacity:1;fill-rule:nonzero;stroke:none"
             d="m 100.313,56.168 h 4.796 v -3.7696 h 0.118 c 1.316,2.9297 4.675,4.6094 7.8,4.6094 8.45,0 8.45,-6.418 8.45,-10.1953 V 24.0273 h -5.032 v 22.1875 c 0,2.461 -0.183,6.4766 -4.746,6.4766 -2.695,0 -6.347,-1.7969 -6.347,-6.4766 V 24.0273 h -5.039 V 56.168" /><path
             id="path46"
             style="fill:#231f20;fill-opacity:1;fill-rule:nonzero;stroke:none"
             d="m 129.582,65.5234 h 5.039 V 56.168 h 5.574 v -3.9571 h -5.574 v -20.625 c 0,-2.5781 0.664,-3.6015 3.301,-3.6015 1.074,0 1.68,0.125 2.215,0.1836 v -4.1407 c -0.664,-0.1171 -1.981,-0.3593 -4.082,-0.3593 -5.215,0 -6.473,2.1562 -6.473,6.3554 v 22.1875 h -4.68 v 3.9571 h 4.68 v 9.3554" /><path
             id="path48"
             style="fill:#231f20;fill-opacity:1;fill-rule:nonzero;stroke:none"
             d="m 154.844,69.125 h 5.879 l -6.473,-8.5156 h -3.605 z m 4.621,-25.6641 v 1.7383 c 0,3.5938 -1.145,7.8516 -5.578,7.8516 -5.282,0 -5.879,-6.4727 -5.879,-8.3985 v -1.1914 z m -11.633,-3.9648 c 0,-4.9102 0,-12.3516 6.172,-12.3516 4.797,0 5.461,5.0391 5.461,7.4414 h 5.039 c 0,-3.4179 -2.043,-11.3984 -10.801,-11.3984 -7.851,0 -11.152,5.4609 -11.152,16.4961 0,8.0352 1.562,17.3242 11.453,17.3242 9.836,0 10.734,-8.5742 10.734,-15.4687 v -2.043 h -16.906" /><path
             id="path50"
             style="fill:#231f20;fill-opacity:1;fill-rule:nonzero;stroke:none"
             d="m 211.055,38.7148 c -0.489,-8.0937 -3.66,-15.5273 -13.016,-15.5273 -12.168,0 -13.789,11.457 -13.789,22.2461 0,10.8008 1.973,22.2461 13.789,22.2461 8.758,0 12.41,-4.9102 12.656,-13.3086 h -5.519 c -0.117,4.8633 -1.68,8.9922 -7.137,8.9922 -7.316,0 -8.273,-8.0352 -8.273,-17.9297 0,-9.8906 0.957,-17.9297 8.273,-17.9297 6.414,0 7.313,5.9961 7.5,11.2109 h 5.516" /><path
             id="path52"
             style="fill:#231f20;fill-opacity:1;fill-rule:nonzero;stroke:none"
             d="m 230.559,41.5391 c -1.856,-1.9844 -6.289,-2.4024 -8.575,-3.7813 -1.621,-1.0156 -2.461,-2.2734 -2.461,-5.0976 0,-3.2305 1.141,-5.5157 4.559,-5.5157 3.301,0 6.477,2.8203 6.477,6.1211 z m -15.528,4.9218 c 0,7.3125 3.114,10.5469 10.789,10.5469 9.778,0 9.778,-5.8711 9.778,-9.2305 V 29.8477 c 0,-1.3164 0,-2.5782 1.562,-2.5782 0.653,0 0.957,0.1172 1.199,0.293 V 23.9688 C 238,23.9102 236.68,23.668 235.422,23.668 c -1.926,0 -4.317,0 -4.563,4.1406 h -0.117 c -1.621,-2.8828 -4.734,-4.6211 -7.734,-4.6211 -5.996,0 -8.758,3.5938 -8.758,9.3555 0,4.5039 1.922,7.6172 6.055,8.8789 l 6.777,2.039 c 3.66,1.1329 3.66,2.1602 3.66,4.8555 0,2.9961 -1.797,4.7344 -5.156,4.7344 -5.516,0 -5.516,-5.1563 -5.516,-6.2969 v -0.293 h -5.039" /><path
             id="path54"
             style="fill:#231f20;fill-opacity:1;fill-rule:nonzero;stroke:none"
             d="m 242.453,56.168 h 4.793 v -3.7696 h 0.117 c 1.321,2.9297 4.68,4.6094 7.805,4.6094 8.445,0 8.445,-6.418 8.445,-10.1953 V 24.0273 h -5.027 v 22.1875 c 0,2.461 -0.188,6.4766 -4.746,6.4766 -2.695,0 -6.348,-1.7969 -6.348,-6.4766 V 24.0273 h -5.039 V 56.168" /><path
             id="path56"
             style="fill:#231f20;fill-opacity:1;fill-rule:nonzero;stroke:none"
             d="m 284.973,41.5391 c -1.856,-1.9844 -6.289,-2.4024 -8.575,-3.7813 -1.621,-1.0156 -2.46,-2.2734 -2.46,-5.0976 0,-3.2305 1.14,-5.5157 4.558,-5.5157 3.301,0 6.477,2.8203 6.477,6.1211 z m -15.528,4.9218 c 0,7.3125 3.114,10.5469 10.789,10.5469 9.778,0 9.778,-5.8711 9.778,-9.2305 V 29.8477 c 0,-1.3164 0,-2.5782 1.562,-2.5782 0.653,0 0.957,0.1172 1.199,0.293 v -3.5937 c -0.359,-0.0586 -1.679,-0.3008 -2.937,-0.3008 -1.926,0 -4.316,0 -4.563,4.1406 h -0.117 c -1.621,-2.8828 -4.734,-4.6211 -7.734,-4.6211 -5.996,0 -8.758,3.5938 -8.758,9.3555 0,4.5039 1.922,7.6172 6.055,8.8789 l 6.777,2.039 c 3.66,1.1329 3.66,2.1602 3.66,4.8555 0,2.9961 -1.797,4.7344 -5.156,4.7344 -5.516,0 -5.516,-5.1563 -5.516,-6.2969 v -0.293 h -5.039" /><path
             id="path58"
             style="fill:#231f20;fill-opacity:1;fill-rule:nonzero;stroke:none"
             d="m 306.816,27.5039 c 5.579,0 6.477,5.2852 6.477,12.5977 0,6.2304 -1.074,12.5898 -6.477,12.5898 -4.675,0 -5.878,-4.9141 -5.878,-12.5898 0,-7.6758 1.203,-12.5977 5.878,-12.5977 z m 11.211,-3.4766 h -4.793 v 3.9571 h -0.117 c -0.664,-2.3946 -3.476,-4.7969 -6.953,-4.7969 -7.617,0 -10.5,6.7773 -10.5,16.9141 0,6.7109 1.074,16.9062 10.137,16.9062 2.871,0 5.937,-1.7383 7.07,-4.4922 H 313 v 14.3242 h 5.027 V 24.0273" /><path
             id="path60"
             style="fill:#231f20;fill-opacity:1;fill-rule:nonzero;stroke:none"
             d="m 339.395,41.5391 c -1.856,-1.9844 -6.29,-2.4024 -8.575,-3.7813 -1.621,-1.0156 -2.461,-2.2734 -2.461,-5.0976 0,-3.2305 1.145,-5.5157 4.563,-5.5157 3.301,0 6.473,2.8203 6.473,6.1211 z m -15.528,4.9218 c 0,7.3125 3.117,10.5469 10.793,10.5469 9.774,0 9.774,-5.8711 9.774,-9.2305 V 29.8477 c 0,-1.3164 0,-2.5782 1.562,-2.5782 0.656,0 0.957,0.1172 1.203,0.293 v -3.5937 c -0.363,-0.0586 -1.679,-0.3008 -2.941,-0.3008 -1.922,0 -4.317,0 -4.559,4.1406 h -0.117 c -1.621,-2.8828 -4.738,-4.6211 -7.734,-4.6211 -5.996,0 -8.762,3.5938 -8.762,9.3555 0,4.5039 1.926,7.6172 6.055,8.8789 l 6.777,2.039 c 3.664,1.1329 3.664,2.1602 3.664,4.8555 0,2.9961 -1.797,4.7344 -5.156,4.7344 -5.52,0 -5.52,-5.1563 -5.52,-6.2969 v -0.293 h -5.039" /><path
             id="path62"
             style="fill:#231f20;fill-opacity:1;fill-rule:nonzero;stroke:none"
             d="M 104.434,309.383 C 94.6992,292.805 73.3477,287.242 56.7852,296.98 c -16.5821,9.731 -22.1446,31.102 -12.4102,47.684 9.7344,16.563 30.9219,22.082 47.6875,12.391 16.7615,-9.676 22.1255,-31.106 12.3715,-47.672 z m -6.6567,57.715 c -22.1093,12.988 -50.2968,5.636 -63.3046,-16.477 -11.375,-19.629 -7.0274,-44.16 9.4921,-58.387 L 25.3633,260.98 c -1.8477,-3.156 -0.6953,-7.218 2.539,-8.929 l 4.4649,-2.363 c 3.0742,-1.629 6.8867,-0.512 8.6016,2.515 l 17.6445,31.418 c 20.6758,-7.441 44.2107,0.703 55.6407,20.172 12.973,22.105 5.652,50.316 -16.4767,63.305" /><path
             id="path64"
             style="fill:#231f20;fill-opacity:1;fill-rule:nonzero;stroke:none"
             d="M 87.5234,265.527 V 183.32 H 364.418 v 82.207 H 87.5234" /><path
             id="path66"
             style="fill:#ffffff;fill-opacity:1;fill-rule:nonzero;stroke:none"
             d="m 135.91,234.242 c 0,3.176 -1.445,7.188 -4.922,7.188 -4.199,0 -5.879,-4.317 -5.879,-14.989 0,-10.312 0.965,-16.789 5.938,-16.789 2.039,0 5.34,2.219 5.34,6.836 v 4.375 h -5.703 v 6.36 h 13.976 v -23.086 h -6.359 v 3.953 h -0.117 c -2.039,-3.36 -4.981,-4.793 -8.993,-4.793 -10.617,0 -12.714,7.918 -12.714,22.723 0,14.394 3.359,21.769 14.394,21.769 9.473,0 13.309,-4.855 13.309,-13.547 h -8.27" /><path
             id="path68"
             style="fill:#ffffff;fill-opacity:1;fill-rule:nonzero;stroke:none"
             d="m 151.516,236.402 h 7.918 v -4.316 h 0.117 c 1.679,3.113 4.023,5.156 7.441,5.156 0.481,0 1.016,-0.07 1.496,-0.129 v -7.91 c -0.84,0.059 -1.738,0.117 -2.578,0.117 -2.883,0 -6.113,-1.492 -6.113,-5.82 v -19.363 h -8.281 v 32.265" /><path
             id="path70"
             style="fill:#ffffff;fill-opacity:1;fill-rule:nonzero;stroke:none"
             d="m 188.047,220.27 c -1.141,-0.84 -2.52,-1.379 -3.543,-1.622 -3.352,-0.722 -4.68,-2.335 -4.68,-5.214 0,-2.461 0.91,-4.504 3.125,-4.504 2.219,0 5.098,1.445 5.098,4.98 z m -15.117,6.23 v 0.781 c 0,7.442 5.097,9.961 11.34,9.961 9.832,0 11.687,-4.082 11.687,-9.902 v -16.965 c 0,-2.996 0.188,-4.383 1.027,-6.238 h -7.921 c -0.536,1.015 -0.782,2.273 -1.016,3.359 h -0.125 c -1.914,-3.359 -4.25,-4.199 -8.215,-4.199 -5.75,0 -7.793,4.922 -7.793,9.238 0,6.055 2.461,8.516 8.156,10.067 l 4.676,1.261 c 2.461,0.664 3.301,1.621 3.301,3.778 0,2.461 -1.082,3.957 -3.836,3.957 -2.52,0 -3.84,-1.68 -3.84,-4.192 V 226.5 h -7.441" /><path
             id="path72"
             style="fill:#ffffff;fill-opacity:1;fill-rule:nonzero;stroke:none"
             d="m 209.414,214.691 v -1.082 c 0,-2.812 1.496,-4.679 4.316,-4.679 2.52,0 4.2,1.261 4.2,3.84 0,2.097 -1.387,3.054 -2.996,3.66 l -5.821,2.101 c -4.562,1.621 -6.894,4.434 -6.894,8.992 0,5.332 3.359,9.719 11.875,9.719 7.488,0 11.035,-3.359 11.035,-9.179 v -1.321 h -7.441 c 0,3.242 -0.958,4.856 -3.665,4.856 -2.089,0 -3.894,-1.192 -3.894,-3.477 0,-1.555 0.84,-2.883 3.601,-3.781 l 4.973,-1.68 c 5.223,-1.738 7.137,-4.375 7.137,-9.226 0,-6.778 -5.039,-10.137 -11.992,-10.137 -9.297,0 -11.875,4.082 -11.875,10.254 v 1.14 h 7.441" /><path
             id="path74"
             style="fill:#ffffff;fill-opacity:1;fill-rule:nonzero;stroke:none"
             d="m 253.449,214.691 v -1.082 c 0,-2.812 1.492,-4.679 4.317,-4.679 2.519,0 4.199,1.261 4.199,3.84 0,2.097 -1.387,3.054 -3,3.66 l -5.82,2.101 c -4.559,1.621 -6.895,4.434 -6.895,8.992 0,5.332 3.359,9.719 11.875,9.719 7.492,0 11.035,-3.359 11.035,-9.179 v -1.321 h -7.441 c 0,3.242 -0.957,4.856 -3.653,4.856 -2.097,0 -3.906,-1.192 -3.906,-3.477 0,-1.555 0.84,-2.883 3.606,-3.781 l 4.968,-1.68 c 5.227,-1.738 7.141,-4.375 7.141,-9.226 0,-6.778 -5.039,-10.137 -11.992,-10.137 -9.297,0 -11.875,4.082 -11.875,10.254 v 1.14 h 7.441" /><path
             id="path76"
             style="fill:#ffffff;fill-opacity:1;fill-rule:nonzero;stroke:none"
             d="m 290.586,220.27 c -1.141,-0.84 -2.52,-1.379 -3.543,-1.622 -3.352,-0.722 -4.68,-2.335 -4.68,-5.214 0,-2.461 0.91,-4.504 3.125,-4.504 2.219,0 5.098,1.445 5.098,4.98 z m -15.117,6.23 v 0.781 c 0,7.442 5.097,9.961 11.34,9.961 9.832,0 11.687,-4.082 11.687,-9.902 v -16.965 c 0,-2.996 0.188,-4.383 1.027,-6.238 h -7.921 c -0.536,1.015 -0.782,2.273 -1.016,3.359 h -0.125 c -1.914,-3.359 -4.25,-4.199 -8.215,-4.199 -5.75,0 -7.793,4.922 -7.793,9.238 0,6.055 2.461,8.516 8.156,10.067 l 4.676,1.261 c 2.461,0.664 3.301,1.621 3.301,3.778 0,2.461 -1.082,3.957 -3.836,3.957 -2.52,0 -3.84,-1.68 -3.84,-4.192 V 226.5 h -7.441" /><path
             id="path78"
             style="fill:#ffffff;fill-opacity:1;fill-rule:nonzero;stroke:none"
             d="m 307.695,245.629 h 8.274 v -9.227 h 4.793 v -5.644 h -4.793 v -17.442 c 0,-2.519 0.535,-3.546 2.937,-3.546 0.664,0 1.321,0.058 1.856,0.117 v -5.75 c -1.797,-0.176 -3.477,-0.364 -5.391,-0.364 -6.484,0 -7.676,1.985 -7.676,8.516 v 18.469 h -4.199 v 5.644 h 4.199 v 9.227" /><path
             id="path80"
             style="fill:#ffffff;fill-opacity:1;fill-rule:nonzero;stroke:none"
             d="m 333.547,213.492 v -9.355 h -7.91 v 9.355 h 7.91" /><path
             id="path82"
             style="fill:#231f20;fill-opacity:1;fill-rule:nonzero;stroke:none"
             d="M 87.5234,170.508 V 88.3008 H 364.418 V 170.508 H 87.5234" /><path
             id="path84"
             style="fill:#ffffff;fill-opacity:1;fill-rule:nonzero;stroke:none"
             d="m 123.848,121.637 v -1.262 c 0,-4.012 1.144,-6.59 5.703,-6.59 2.637,0 5.156,1.68 5.156,5.274 0,3.894 -1.98,5.339 -7.676,7.312 -7.676,2.649 -11.211,5.82 -11.211,12.961 0,8.328 5.09,12.586 13.254,12.586 7.676,0 13.25,-3.289 13.25,-11.512 v -1.191 h -8.281 c 0,4.012 -1.375,6.348 -4.676,6.348 -3.898,0 -4.914,-2.454 -4.914,-4.973 0,-2.637 0.781,-4.258 4.434,-5.82 l 6.66,-2.879 c 6.476,-2.813 8.156,-6.114 8.156,-11.328 0,-9.055 -5.519,-13.137 -14.875,-13.137 -9.773,0 -13.613,4.562 -13.613,12.472 v 1.739 h 8.633" /><path
             id="path86"
             style="fill:#ffffff;fill-opacity:1;fill-rule:nonzero;stroke:none"
             d="m 165.84,112.047 h -0.117 c -1.739,-3.184 -4.735,-4.621 -8.211,-4.621 -5.157,0 -8.223,2.824 -8.223,9.179 v 23.926 h 8.281 v -22.254 c 0,-3.234 1.075,-4.492 3.535,-4.492 2.821,0 4.375,1.738 4.375,5.332 v 21.414 h 8.282 v -32.265 h -7.922 v 3.781" /><path
             id="path88"
             style="fill:#ffffff;fill-opacity:1;fill-rule:nonzero;stroke:none"
             d="m 196.328,128.891 c 0,3.125 -0.605,6.484 -3.719,6.484 -4.074,0 -4.738,-3.602 -4.738,-11.035 0,-7.977 0.723,-11.277 4.434,-11.277 2.765,0 4.023,2.343 4.023,7.558 h 7.91 c 0,-8.457 -3.535,-13.195 -12.285,-13.195 -8.281,0 -12.351,4.015 -12.351,16.972 0,13.254 5.449,16.973 13.066,16.973 7.617,0 11.57,-4.863 11.57,-12.48 h -7.91" /><path
             id="path90"
             style="fill:#ffffff;fill-opacity:1;fill-rule:nonzero;stroke:none"
             d="m 210.07,140.531 h 7.918 v -4.316 h 0.117 c 1.68,3.117 4.024,5.156 7.442,5.156 0.48,0 1.016,-0.066 1.496,-0.125 v -7.91 c -0.84,0.059 -1.738,0.117 -2.578,0.117 -2.883,0 -6.113,-1.496 -6.113,-5.82 v -19.367 h -8.282 v 32.265" /><path
             id="path92"
             style="fill:#ffffff;fill-opacity:1;fill-rule:nonzero;stroke:none"
             d="m 247.09,128.051 c -0.184,4.922 -0.781,7.676 -4.199,7.676 -3.301,0 -4.258,-3.418 -4.258,-6.414 v -1.262 z m -8.457,-4.91 v -2.578 c 0,-3.782 1.015,-7.5 4.082,-7.5 2.754,0 3.898,2.097 4.375,6.054 h 7.433 c -0.293,-7.492 -3.898,-11.691 -11.691,-11.691 -11.992,0 -12.469,9.238 -12.469,17.277 0,8.633 1.68,16.668 12.832,16.668 9.649,0 11.805,-6.484 11.805,-16.375 v -1.855 h -16.367" /><path
             id="path94"
             style="fill:#ffffff;fill-opacity:1;fill-rule:nonzero;stroke:none"
             d="m 266.895,118.824 v -1.086 c 0,-2.812 1.496,-4.675 4.316,-4.675 2.519,0 4.199,1.257 4.199,3.835 0,2.102 -1.387,3.059 -2.996,3.665 l -5.82,2.097 c -4.563,1.621 -6.895,4.434 -6.895,8.996 0,5.332 3.36,9.715 11.875,9.715 7.489,0 11.035,-3.359 11.035,-9.18 v -1.316 h -7.441 c 0,3.242 -0.957,4.852 -3.664,4.852 -2.09,0 -3.895,-1.192 -3.895,-3.477 0,-1.551 0.84,-2.871 3.602,-3.777 l 4.973,-1.68 c 5.222,-1.738 7.136,-4.375 7.136,-9.23 0,-6.778 -5.039,-10.137 -11.992,-10.137 -9.297,0 -11.875,4.082 -11.875,10.254 v 1.144 h 7.442" /></g></g></g></g></svg>