<?xml version="1.0" encoding="UTF-8" standalone="no"?>
<svg
   xmlns:dc="http://purl.org/dc/elements/1.1/"
   xmlns:cc="http://creativecommons.org/ns#"
   xmlns:rdf="http://www.w3.org/1999/02/22-rdf-syntax-ns#"
   xmlns:svg="http://www.w3.org/2000/svg"
   xmlns="http://www.w3.org/2000/svg"
   viewBox="0 0 51.779732 68.031194"
   height="68.031197"
   width="51.779732"
   xml:space="preserve"
   id="svg2"
   version="1.1"><metadata
     id="metadata8"><rdf:RDF><cc:Work
         rdf:about=""><dc:format>image/svg+xml</dc:format><dc:type
           rdf:resource="http://purl.org/dc/dcmitype/StillImage" /></cc:Work></rdf:RDF></metadata><defs
     id="defs6"><clipPath
       id="clipPath20"
       clipPathUnits="userSpaceOnUse"><path
         id="path18"
         d="M 0,0 H 388.348 V 510.234 H 0 Z" /></clipPath></defs><g
     transform="matrix(1.3333333,0,0,-1.3333333,0,68.031198)"
     id="g10"><g
       transform="scale(0.1)"
       id="g12"><g
         id="g14"><g
           clip-path="url(#clipPath20)"
           id="g16"><path
             id="path22"
             style="fill:#ffffff;fill-opacity:1;fill-rule:nonzero;stroke:none"
             d="M 2.5,2.5 V 507.738 H 385.844 V 2.5 H 2.5" /><path
             id="path24"
             style="fill:#231f20;fill-opacity:1;fill-rule:nonzero;stroke:none"
             d="M 388.348,510.234 H 0 V 0 h 388.348 z m -5,-5 V 5 H 5 v 500.234 h 378.348" /><path
             id="path26"
             style="fill:#231f20;fill-opacity:1;fill-rule:nonzero;stroke:none"
             d="m 170.113,461.125 h 8.27 l -5.867,-8.645 h -5.645 z m 12.41,-11.164 v -7.07 H 167.23 v -10.078 h 14.399 v -7.071 H 167.23 V 414.23 h 15.903 v -7.082 h -24.535 v 42.813 h 23.925" /><path
             id="path28"
             style="fill:#231f20;fill-opacity:1;fill-rule:nonzero;stroke:none"
             d="m 189.02,449.961 h 8.281 v -42.813 h -8.281 v 42.813" /><path
             id="path30"
             style="fill:#231f20;fill-opacity:1;fill-rule:nonzero;stroke:none"
             d="m 220.148,426.934 c -0.175,4.921 -0.781,7.675 -4.199,7.675 -3.301,0 -4.258,-3.418 -4.258,-6.414 v -1.261 z m -8.457,-4.911 v -2.578 c 0,-3.781 1.016,-7.5 4.082,-7.5 2.754,0 3.907,2.098 4.375,6.055 h 7.442 c -0.293,-7.492 -3.906,-11.691 -11.699,-11.691 -11.989,0 -12.469,9.238 -12.469,17.277 0,8.633 1.68,16.668 12.84,16.668 9.648,0 11.797,-6.484 11.797,-16.375 v -1.856 h -16.368" /><path
             id="path32"
             style="fill:#231f20;fill-opacity:1;fill-rule:nonzero;stroke:none"
             d="m 249.191,439.414 h 8.282 l -8.106,-32.266 h -9.59 l -8.339,32.266 h 8.632 l 4.629,-23.086 h 0.117 l 4.375,23.086" /><path
             id="path34"
             style="fill:#231f20;fill-opacity:1;fill-rule:nonzero;stroke:none"
             d="m 272.531,451.828 h 8.282 l -5.879,-8.633 h -5.645 z m 5.039,-24.894 c -0.175,4.921 -0.781,7.675 -4.199,7.675 -3.301,0 -4.258,-3.418 -4.258,-6.414 v -1.261 z m -8.457,-4.911 v -2.578 c 0,-3.781 1.016,-7.5 4.082,-7.5 2.754,0 3.907,2.098 4.375,6.055 h 7.442 c -0.293,-7.492 -3.907,-11.691 -11.699,-11.691 -11.993,0 -12.461,9.238 -12.461,17.277 0,8.633 1.679,16.668 12.832,16.668 9.648,0 11.796,-6.484 11.796,-16.375 v -1.856 h -16.367" /><path
             id="path36"
             style="fill:#231f20;fill-opacity:1;fill-rule:nonzero;stroke:none"
             d="m 322.746,426.934 c -0.176,4.921 -0.781,7.675 -4.199,7.675 -3.301,0 -4.258,-3.418 -4.258,-6.414 v -1.261 z m -8.457,-4.911 v -2.578 c 0,-3.781 1.016,-7.5 4.082,-7.5 2.754,0 3.906,2.098 4.375,6.055 h 7.442 c -0.293,-7.492 -3.907,-11.691 -11.7,-11.691 -11.992,0 -12.461,9.238 -12.461,17.277 0,8.633 1.68,16.668 12.832,16.668 9.649,0 11.797,-6.484 11.797,-16.375 v -1.856 h -16.367" /><path
             id="path38"
             style="fill:#231f20;fill-opacity:1;fill-rule:nonzero;stroke:none"
             d="m 336.496,439.414 h 7.91 v -3.777 h 0.117 c 1.739,3.172 4.747,4.617 8.223,4.617 5.156,0 8.223,-2.82 8.223,-9.18 v -23.926 h -8.281 v 22.247 c 0,3.242 -1.075,4.503 -3.536,4.503 -2.812,0 -4.375,-1.738 -4.375,-5.343 v -21.407 h -8.281 v 32.266" /><path
             id="path40"
             style="fill:#231f20;fill-opacity:1;fill-rule:nonzero;stroke:none"
             d="M 70.5078,349.859 V 267.652 H 364.418 v 82.207 H 70.5078" /><path
             id="path42"
             style="fill:#231f20;fill-opacity:1;fill-rule:nonzero;stroke:none"
             d="M 70.5078,255.238 V 173.035 H 364.418 v 82.203 H 70.5078" /><path
             id="path44"
             style="fill:#ffffff;fill-opacity:1;fill-rule:nonzero;stroke:none"
             d="m 116.852,207.648 v -1.261 c 0,-4.012 1.14,-6.59 5.703,-6.59 2.636,0 5.156,1.68 5.156,5.273 0,3.895 -1.984,5.34 -7.676,7.313 -7.676,2.648 -11.222,5.82 -11.222,12.961 0,8.328 5.097,12.586 13.261,12.586 7.68,0 13.254,-3.289 13.254,-11.512 v -1.191 h -8.281 c 0,4.011 -1.375,6.347 -4.68,6.347 -3.894,0 -4.91,-2.453 -4.91,-4.972 0,-2.637 0.781,-4.258 4.434,-5.821 l 6.66,-2.879 c 6.472,-2.812 8.152,-6.113 8.152,-11.328 0,-9.054 -5.515,-13.136 -14.871,-13.136 -9.777,0 -13.613,4.562 -13.613,12.472 v 1.738 h 8.633" /><path
             id="path46"
             style="fill:#ffffff;fill-opacity:1;fill-rule:nonzero;stroke:none"
             d="m 158.844,198.059 h -0.117 c -1.739,-3.184 -4.739,-4.621 -8.215,-4.621 -5.157,0 -8.223,2.824 -8.223,9.179 v 23.926 h 8.281 v -22.254 c 0,-3.234 1.075,-4.492 3.535,-4.492 2.825,0 4.375,1.738 4.375,5.332 v 21.414 h 8.282 v -32.266 h -7.918 v 3.782" /><path
             id="path48"
             style="fill:#ffffff;fill-opacity:1;fill-rule:nonzero;stroke:none"
             d="m 189.332,214.902 c 0,3.125 -0.605,6.485 -3.723,6.485 -4.07,0 -4.734,-3.602 -4.734,-11.035 0,-7.977 0.723,-11.278 4.434,-11.278 2.761,0 4.023,2.344 4.023,7.559 h 7.91 c 0,-8.457 -3.535,-13.195 -12.285,-13.195 -8.281,0 -12.355,4.015 -12.355,16.972 0,13.254 5.449,16.973 13.07,16.973 7.613,0 11.57,-4.863 11.57,-12.481 h -7.91" /><path
             id="path50"
             style="fill:#ffffff;fill-opacity:1;fill-rule:nonzero;stroke:none"
             d="m 203.07,226.543 h 7.918 v -4.316 h 0.117 c 1.68,3.117 4.024,5.156 7.442,5.156 0.488,0 1.016,-0.067 1.504,-0.125 v -7.91 c -0.84,0.058 -1.738,0.117 -2.578,0.117 -2.891,0 -6.114,-1.496 -6.114,-5.82 v -19.368 h -8.289 v 32.266" /><path
             id="path52"
             style="fill:#ffffff;fill-opacity:1;fill-rule:nonzero;stroke:none"
             d="m 240.09,214.063 c -0.176,4.921 -0.781,7.675 -4.199,7.675 -3.301,0 -4.258,-3.418 -4.258,-6.414 v -1.261 z m -8.457,-4.911 v -2.578 c 0,-3.781 1.015,-7.5 4.082,-7.5 2.754,0 3.906,2.098 4.375,6.055 h 7.441 c -0.293,-7.492 -3.906,-11.691 -11.699,-11.691 -11.992,0 -12.461,9.238 -12.461,17.277 0,8.633 1.68,16.668 12.832,16.668 9.649,0 11.797,-6.485 11.797,-16.375 v -1.856 h -16.367" /><path
             id="path54"
             style="fill:#ffffff;fill-opacity:1;fill-rule:nonzero;stroke:none"
             d="m 259.895,204.836 v -1.086 c 0,-2.812 1.503,-4.676 4.316,-4.676 2.519,0 4.199,1.258 4.199,3.836 0,2.102 -1.387,3.059 -2.988,3.664 l -5.82,2.098 c -4.571,1.621 -6.895,4.433 -6.895,8.996 0,5.332 3.359,9.715 11.875,9.715 7.481,0 11.035,-3.36 11.035,-9.18 v -1.316 h -7.441 c 0,3.242 -0.957,4.851 -3.653,4.851 -2.109,0 -3.906,-1.191 -3.906,-3.476 0,-1.551 0.84,-2.871 3.594,-3.778 l 4.98,-1.679 c 5.215,-1.739 7.129,-4.375 7.129,-9.231 0,-6.777 -5.039,-10.136 -11.992,-10.136 -9.297,0 -11.875,4.082 -11.875,10.253 v 1.145 h 7.442" /><path
             id="path56"
             style="fill:#ffffff;fill-opacity:1;fill-rule:nonzero;stroke:none"
             d="m 128.902,318.574 c 0,3.176 -1.445,7.188 -4.922,7.188 -4.199,0 -5.878,-4.317 -5.878,-14.989 0,-10.312 0.964,-16.789 5.937,-16.789 2.039,0 5.344,2.219 5.344,6.836 v 4.375 h -5.707 v 6.36 h 13.976 v -23.086 h -6.355 v 3.953 h -0.121 c -2.039,-3.359 -4.981,-4.793 -8.992,-4.793 -10.618,0 -12.715,7.918 -12.715,22.723 0,14.394 3.359,21.769 14.394,21.769 9.473,0 13.309,-4.855 13.309,-13.547 h -8.27" /><path
             id="path58"
             style="fill:#ffffff;fill-opacity:1;fill-rule:nonzero;stroke:none"
             d="m 144.508,320.734 h 7.918 v -4.316 h 0.121 c 1.676,3.113 4.019,5.156 7.437,5.156 0.481,0 1.02,-0.07 1.496,-0.129 v -7.91 c -0.839,0.059 -1.738,0.117 -2.578,0.117 -2.882,0 -6.113,-1.492 -6.113,-5.82 v -19.363 h -8.281 v 32.265" /><path
             id="path60"
             style="fill:#ffffff;fill-opacity:1;fill-rule:nonzero;stroke:none"
             d="m 181.039,304.602 c -1.141,-0.84 -2.519,-1.379 -3.543,-1.622 -3.351,-0.722 -4.68,-2.335 -4.68,-5.214 0,-2.461 0.911,-4.504 3.125,-4.504 2.219,0 5.098,1.445 5.098,4.98 z m -15.117,6.23 v 0.781 c 0,7.442 5.098,9.961 11.34,9.961 9.832,0 11.687,-4.082 11.687,-9.902 v -16.965 c 0,-2.996 0.188,-4.383 1.028,-6.238 h -7.922 c -0.535,1.015 -0.782,2.273 -1.016,3.359 h -0.125 c -1.914,-3.359 -4.25,-4.199 -8.215,-4.199 -5.75,0 -7.793,4.922 -7.793,9.238 0,6.055 2.461,8.516 8.157,10.067 l 4.675,1.261 c 2.461,0.664 3.301,1.621 3.301,3.778 0,2.461 -1.082,3.957 -3.836,3.957 -2.519,0 -3.84,-1.68 -3.84,-4.192 v -0.906 h -7.441" /><path
             id="path62"
             style="fill:#ffffff;fill-opacity:1;fill-rule:nonzero;stroke:none"
             d="m 202.406,299.023 v -1.082 c 0,-2.812 1.496,-4.679 4.317,-4.679 2.527,0 4.207,1.261 4.207,3.84 0,2.097 -1.387,3.054 -3.004,3.66 l -5.821,2.101 c -4.558,1.621 -6.894,4.434 -6.894,8.992 0,5.333 3.359,9.719 11.875,9.719 7.496,0 11.031,-3.359 11.031,-9.179 v -1.321 h -7.441 c 0,3.242 -0.957,4.856 -3.66,4.856 -2.09,0 -3.895,-1.192 -3.895,-3.477 0,-1.555 0.84,-2.883 3.602,-3.781 l 4.968,-1.68 c 5.235,-1.738 7.149,-4.375 7.149,-9.226 0,-6.778 -5.039,-10.137 -12,-10.137 -9.293,0 -11.875,4.082 -11.875,10.254 v 1.14 h 7.441" /><path
             id="path64"
             style="fill:#ffffff;fill-opacity:1;fill-rule:nonzero;stroke:none"
             d="m 246.438,299.023 v -1.082 c 0,-2.812 1.503,-4.679 4.316,-4.679 2.519,0 4.199,1.261 4.199,3.84 0,2.097 -1.387,3.054 -2.988,3.66 l -5.82,2.101 c -4.571,1.621 -6.895,4.434 -6.895,8.992 0,5.333 3.359,9.719 11.875,9.719 7.48,0 11.035,-3.359 11.035,-9.179 v -1.321 h -7.441 c 0,3.242 -0.957,4.856 -3.653,4.856 -2.109,0 -3.906,-1.192 -3.906,-3.477 0,-1.555 0.84,-2.883 3.594,-3.781 l 4.98,-1.68 c 5.215,-1.738 7.129,-4.375 7.129,-9.226 0,-6.778 -5.039,-10.137 -11.992,-10.137 -9.297,0 -11.875,4.082 -11.875,10.254 v 1.14 h 7.442" /><path
             id="path66"
             style="fill:#ffffff;fill-opacity:1;fill-rule:nonzero;stroke:none"
             d="m 283.586,304.602 c -1.152,-0.84 -2.52,-1.379 -3.555,-1.622 -3.34,-0.722 -4.668,-2.335 -4.668,-5.214 0,-2.461 0.899,-4.504 3.125,-4.504 2.207,0 5.098,1.445 5.098,4.98 z m -15.117,6.23 v 0.781 c 0,7.442 5.097,9.961 11.328,9.961 9.844,0 11.699,-4.082 11.699,-9.902 v -16.965 c 0,-2.996 0.176,-4.383 1.016,-6.238 h -7.91 c -0.547,1.015 -0.782,2.273 -1.016,3.359 h -0.137 c -1.914,-3.359 -4.238,-4.199 -8.203,-4.199 -5.762,0 -7.793,4.922 -7.793,9.238 0,6.055 2.461,8.516 8.145,10.067 l 4.687,1.261 c 2.461,0.664 3.301,1.621 3.301,3.778 0,2.461 -1.094,3.957 -3.848,3.957 -2.519,0 -3.828,-1.68 -3.828,-4.192 v -0.906 h -7.441" /><path
             id="path68"
             style="fill:#ffffff;fill-opacity:1;fill-rule:nonzero;stroke:none"
             d="m 300.695,329.961 h 8.262 v -9.227 h 4.805 v -5.644 h -4.805 v -17.442 c 0,-2.519 0.547,-3.546 2.949,-3.546 0.664,0 1.309,0.058 1.856,0.117 v -5.75 c -1.797,-0.176 -3.477,-0.364 -5.391,-0.364 -6.484,0 -7.676,1.985 -7.676,8.516 v 18.469 h -4.199 v 5.644 h 4.199 v 9.227" /><path
             id="path70"
             style="fill:#ffffff;fill-opacity:1;fill-rule:nonzero;stroke:none"
             d="m 326.535,297.824 v -9.355 h -7.91 v 9.355 h 7.91" /><path
             id="path72"
             style="fill:#231f20;fill-opacity:1;fill-rule:nonzero;stroke:none"
             d="M 70.5078,161.711 V 79.5078 H 364.418 V 161.711 H 70.5078" /><path
             id="path74"
             style="fill:#ffffff;fill-opacity:1;fill-rule:nonzero;stroke:none"
             d="m 116.84,112.844 v -1.262 c 0,-4.012 1.144,-6.59 5.707,-6.59 2.633,0 5.152,1.68 5.152,5.274 0,3.894 -1.98,5.339 -7.676,7.312 -7.675,2.649 -11.21,5.82 -11.21,12.961 0,8.328 5.089,12.586 13.253,12.586 7.676,0 13.25,-3.289 13.25,-11.512 v -1.191 h -8.281 c 0,4.012 -1.375,6.348 -4.676,6.348 -3.894,0 -4.914,-2.454 -4.914,-4.973 0,-2.637 0.782,-4.258 4.438,-5.82 l 6.656,-2.879 c 6.477,-2.813 8.156,-6.114 8.156,-11.328 0,-9.055 -5.519,-13.1372 -14.875,-13.1372 -9.773,0 -13.609,4.5622 -13.609,12.4722 v 1.739 h 8.629" /><path
             id="path76"
             style="fill:#ffffff;fill-opacity:1;fill-rule:nonzero;stroke:none"
             d="m 153.922,104.27 c 3.359,0 4.433,3.3 4.433,11.335 0,8.04 -1.074,11.329 -4.433,11.329 -4.082,0 -4.445,-4.735 -4.445,-11.329 0,-6.601 0.363,-11.335 4.445,-11.335 z m 0,28.308 c 9.949,0.176 12.715,-5.762 12.715,-16.973 0,-11.035 -3.242,-16.9722 -12.715,-16.9722 -9.961,-0.1758 -12.715,5.7622 -12.715,16.9722 0,11.036 3.242,16.973 12.715,16.973" /><path
             id="path78"
             style="fill:#ffffff;fill-opacity:1;fill-rule:nonzero;stroke:none"
             d="m 184.398,104.992 c 3.665,0 4.375,3.594 4.375,10.613 0,7.012 -0.71,10.618 -4.375,10.618 -3.593,0 -4.312,-3.606 -4.312,-10.618 0,-7.019 0.719,-10.613 4.312,-10.613 z m 4.739,-2.101 h -0.117 c -1.797,-2.9965 -4.082,-4.2582 -7.317,-4.2582 -6.777,0 -9.89,4.9802 -9.89,16.9722 0,11.993 3.113,16.973 9.89,16.973 3.117,0 5.219,-1.258 6.953,-3.836 h 0.117 v 13.543 h 8.282 V 99.4727 h -7.918 v 3.4183" /><path
             id="path80"
             style="fill:#ffffff;fill-opacity:1;fill-rule:nonzero;stroke:none"
             d="m 204.391,131.738 h 8.277 V 99.4727 h -8.277 z m 0,11.035 h 8.277 v -7.078 h -8.277 v 7.078" /><path
             id="path82"
             style="fill:#ffffff;fill-opacity:1;fill-rule:nonzero;stroke:none"
             d="m 236.535,103.254 h -0.117 c -1.738,-3.184 -4.727,-4.6212 -8.203,-4.6212 -5.156,0 -8.223,2.8242 -8.223,9.1802 v 23.925 h 8.281 v -22.254 c 0,-3.234 1.075,-4.492 3.536,-4.492 2.812,0 4.375,1.738 4.375,5.332 v 21.414 h 8.281 V 99.4727 h -7.93 v 3.7813" /><path
             id="path84"
             style="fill:#ffffff;fill-opacity:1;fill-rule:nonzero;stroke:none"
             d="m 251.477,131.738 h 7.929 v -3.3 h 0.117 c 2.09,2.941 4.668,4.14 8.145,4.14 3.789,0 6.543,-1.863 7.441,-5.156 h 0.118 c 1.269,3.418 4.257,5.156 8.164,5.156 5.449,0 8.027,-3.418 8.027,-9.656 V 99.4727 h -8.262 v 22.5503 c 0,2.696 -0.898,4.2 -3.242,4.2 -2.637,0 -4.316,-1.809 -4.316,-5.52 V 99.4727 h -8.282 v 22.5503 c 0,2.696 -0.898,4.2 -3.242,4.2 -2.636,0 -4.316,-1.809 -4.316,-5.52 V 99.4727 h -8.281 v 32.2653" /><path
             id="path86"
             style="fill:#231f20;fill-opacity:1;fill-rule:nonzero;stroke:none"
             d="m 62.0117,53.8281 c 0,4.5039 -1.6211,7.6172 -6.6601,7.6172 -4.4336,0 -7.0703,-2.3906 -7.0703,-6.9531 0,-12.0508 20.207,-4.8516 20.207,-20.5078 0,-9.8906 -7.2578,-12.7149 -13.3125,-12.7149 -10.0195,0 -12.957,5.1563 -12.957,14.2774 H 47.5 c 0,-4.8047 0.293,-9.961 8.0391,-9.961 4.1875,0 7.4297,3 7.4297,7.5586 0,12.1094 -20.2032,5.0977 -20.2032,20.8125 0,3.9532 1.6797,11.8047 12.5274,11.8047 8.1562,0 11.875,-4.0703 11.9922,-11.9336 h -5.2735" /><path
             id="path88"
             style="fill:#231f20;fill-opacity:1;fill-rule:nonzero;stroke:none"
             d="m 88.4102,39.6211 c -1.8555,-1.9844 -6.2891,-2.4023 -8.5743,-3.7813 -1.6211,-1.0156 -2.4609,-2.2734 -2.4609,-5.0976 0,-3.2305 1.1406,-5.5156 4.5586,-5.5156 3.3008,0 6.4766,2.8203 6.4766,6.1211 z M 72.8828,44.543 c 0,7.3125 3.1133,10.5468 10.7891,10.5468 9.7773,0 9.7773,-5.871 9.7773,-9.2304 V 27.9297 c 0,-1.3164 0,-2.5781 1.5625,-2.5781 0.6524,0 0.9571,0.1172 1.1992,0.2929 V 22.0508 C 95.8516,21.9922 94.5313,21.75 93.2734,21.75 c -1.9257,0 -4.3164,0 -4.5625,4.1406 h -0.1171 c -1.6211,-2.8828 -4.7344,-4.6211 -7.7344,-4.6211 -5.9961,0 -8.7578,3.5938 -8.7578,9.3555 0,4.5039 1.9218,7.6172 6.0547,8.8789 l 6.7773,2.0391 c 3.6602,1.1328 3.6602,2.1601 3.6602,4.8554 0,2.9961 -1.7969,4.7344 -5.1563,4.7344 -5.5156,0 -5.5156,-5.1562 -5.5156,-6.2969 V 44.543 h -5.0391" /><path
             id="path90"
             style="fill:#231f20;fill-opacity:1;fill-rule:nonzero;stroke:none"
             d="m 100.305,54.25 h 4.793 v -3.7695 h 0.117 c 1.32,2.9297 4.68,4.6093 7.805,4.6093 8.445,0 8.445,-6.4179 8.445,-10.1953 V 22.1094 h -5.027 v 22.1875 c 0,2.4609 -0.188,6.4765 -4.747,6.4765 -2.695,0 -6.347,-1.7968 -6.347,-6.4765 V 22.1094 h -5.039 V 54.25" /><path
             id="path92"
             style="fill:#231f20;fill-opacity:1;fill-rule:nonzero;stroke:none"
             d="m 129.582,63.6055 h 5.039 V 54.25 h 5.574 v -3.957 h -5.574 V 29.668 c 0,-2.5782 0.664,-3.6016 3.301,-3.6016 1.074,0 1.68,0.125 2.215,0.1836 v -4.1406 c -0.664,-0.1172 -1.981,-0.3594 -4.082,-0.3594 -5.215,0 -6.473,2.1563 -6.473,6.3555 V 50.293 h -4.68 v 3.957 h 4.68 v 9.3555" /><path
             id="path94"
             style="fill:#231f20;fill-opacity:1;fill-rule:nonzero;stroke:none"
             d="m 154.836,67.207 h 5.879 l -6.477,-8.5156 h -3.601 z m 4.617,-25.664 v 1.7383 c 0,3.5937 -1.14,7.8515 -5.574,7.8515 -5.285,0 -5.879,-6.4726 -5.879,-8.3984 V 41.543 Z m -11.629,-3.9649 c 0,-4.9101 0,-12.3515 6.172,-12.3515 4.793,0 5.457,5.039 5.457,7.4414 h 5.039 c 0,-3.418 -2.039,-11.3985 -10.801,-11.3985 -7.851,0 -11.152,5.461 -11.152,16.4961 0,8.0352 1.563,17.3242 11.457,17.3242 9.832,0 10.731,-8.5742 10.731,-15.4687 v -2.043 h -16.903" /><path
             id="path96"
             style="fill:#231f20;fill-opacity:1;fill-rule:nonzero;stroke:none"
             d="m 211.047,36.7969 c -0.488,-8.0938 -3.664,-15.5274 -13.02,-15.5274 -12.168,0 -13.789,11.4571 -13.789,22.2461 0,10.8008 1.973,22.2461 13.789,22.2461 8.762,0 12.414,-4.9101 12.657,-13.3086 h -5.516 c -0.117,4.8633 -1.68,8.9922 -7.141,8.9922 -7.312,0 -8.269,-8.0351 -8.269,-17.9297 0,-9.8906 0.957,-17.9297 8.269,-17.9297 6.418,0 7.317,5.9961 7.5,11.211 h 5.52" /><path
             id="path98"
             style="fill:#231f20;fill-opacity:1;fill-rule:nonzero;stroke:none"
             d="m 230.547,39.6211 c -1.856,-1.9844 -6.289,-2.4023 -8.574,-3.7813 -1.621,-1.0156 -2.461,-2.2734 -2.461,-5.0976 0,-3.2305 1.144,-5.5156 4.562,-5.5156 3.301,0 6.473,2.8203 6.473,6.1211 z M 215.02,44.543 c 0,7.3125 3.117,10.5468 10.793,10.5468 9.773,0 9.773,-5.871 9.773,-9.2304 V 27.9297 c 0,-1.3164 0,-2.5781 1.562,-2.5781 0.657,0 0.957,0.1172 1.204,0.2929 v -3.5937 c -0.364,-0.0586 -1.68,-0.3008 -2.942,-0.3008 -1.922,0 -4.316,0 -4.558,4.1406 h -0.118 c -1.621,-2.8828 -4.738,-4.6211 -7.734,-4.6211 -5.996,0 -8.762,3.5938 -8.762,9.3555 0,4.5039 1.926,7.6172 6.055,8.8789 l 6.777,2.0391 c 3.664,1.1328 3.664,2.1601 3.664,4.8554 0,2.9961 -1.796,4.7344 -5.156,4.7344 -5.519,0 -5.519,-5.1562 -5.519,-6.2969 V 44.543 h -5.039" /><path
             id="path100"
             style="fill:#231f20;fill-opacity:1;fill-rule:nonzero;stroke:none"
             d="m 242.441,54.25 h 4.797 v -3.7695 h 0.117 c 1.317,2.9297 4.676,4.6093 7.801,4.6093 8.449,0 8.449,-6.4179 8.449,-10.1953 V 22.1094 h -5.031 v 22.1875 c 0,2.4609 -0.183,6.4765 -4.746,6.4765 -2.695,0 -6.348,-1.7968 -6.348,-6.4765 V 22.1094 h -5.039 V 54.25" /><path
             id="path102"
             style="fill:#231f20;fill-opacity:1;fill-rule:nonzero;stroke:none"
             d="m 284.961,39.6211 c -1.856,-1.9844 -6.289,-2.4023 -8.574,-3.7813 -1.621,-1.0156 -2.461,-2.2734 -2.461,-5.0976 0,-3.2305 1.144,-5.5156 4.562,-5.5156 3.301,0 6.473,2.8203 6.473,6.1211 z m -15.527,4.9219 c 0,7.3125 3.117,10.5468 10.793,10.5468 9.773,0 9.773,-5.871 9.773,-9.2304 V 27.9297 c 0,-1.3164 0,-2.5781 1.563,-2.5781 0.656,0 0.957,0.1172 1.203,0.2929 v -3.5937 c -0.364,-0.0586 -1.68,-0.3008 -2.942,-0.3008 -1.922,0 -4.316,0 -4.558,4.1406 h -0.118 c -1.621,-2.8828 -4.738,-4.6211 -7.734,-4.6211 -5.996,0 -8.762,3.5938 -8.762,9.3555 0,4.5039 1.926,7.6172 6.055,8.8789 l 6.777,2.0391 c 3.664,1.1328 3.664,2.1601 3.664,4.8554 0,2.9961 -1.796,4.7344 -5.156,4.7344 -5.519,0 -5.519,-5.1562 -5.519,-6.2969 V 44.543 h -5.039" /><path
             id="path104"
             style="fill:#231f20;fill-opacity:1;fill-rule:nonzero;stroke:none"
             d="m 306.809,25.5859 c 5.574,0 6.472,5.2852 6.472,12.5977 0,6.2305 -1.074,12.5898 -6.472,12.5898 -4.68,0 -5.879,-4.914 -5.879,-12.5898 0,-7.6758 1.199,-12.5977 5.879,-12.5977 z m 11.211,-3.4765 h -4.797 v 3.957 h -0.118 c -0.664,-2.3945 -3.476,-4.7969 -6.953,-4.7969 -7.617,0 -10.496,6.7774 -10.496,16.9141 0,6.7109 1.074,16.9062 10.137,16.9062 2.871,0 5.937,-1.7382 7.07,-4.4921 h 0.125 v 14.3242 h 5.032 V 22.1094" /><path
             id="path106"
             style="fill:#231f20;fill-opacity:1;fill-rule:nonzero;stroke:none"
             d="m 339.387,39.6211 c -1.856,-1.9844 -6.289,-2.4023 -8.574,-3.7813 -1.622,-1.0156 -2.461,-2.2734 -2.461,-5.0976 0,-3.2305 1.14,-5.5156 4.558,-5.5156 3.301,0 6.477,2.8203 6.477,6.1211 z m -15.528,4.9219 c 0,7.3125 3.114,10.5468 10.789,10.5468 9.778,0 9.778,-5.871 9.778,-9.2304 V 27.9297 c 0,-1.3164 0,-2.5781 1.562,-2.5781 0.653,0 0.957,0.1172 1.2,0.2929 v -3.5937 c -0.36,-0.0586 -1.68,-0.3008 -2.938,-0.3008 -1.926,0 -4.316,0 -4.562,4.1406 h -0.118 c -1.621,-2.8828 -4.734,-4.6211 -7.734,-4.6211 -5.996,0 -8.758,3.5938 -8.758,9.3555 0,4.5039 1.922,7.6172 6.055,8.8789 l 6.777,2.0391 c 3.66,1.1328 3.66,2.1601 3.66,4.8554 0,2.9961 -1.797,4.7344 -5.156,4.7344 -5.516,0 -5.516,-5.1562 -5.516,-6.2969 V 44.543 h -5.039" /><path
             id="path108"
             style="fill:#231f20;fill-opacity:1;fill-rule:nonzero;stroke:none"
             d="M 117.629,413.922 C 105.895,393.934 80.1563,387.23 60.1875,398.965 c -19.9883,11.734 -26.6953,37.496 -14.9609,57.488 11.7382,19.965 37.2773,26.621 57.4884,14.938 20.207,-11.664 26.672,-37.5 14.914,-57.469 z m -8.024,69.574 C 82.9492,499.156 48.9727,490.293 33.2891,463.633 19.5742,439.969 24.8164,410.395 44.7305,393.246 L 22.3086,355.57 c -2.2305,-3.808 -0.8398,-8.707 3.0586,-10.769 l 5.3828,-2.848 c 3.707,-1.965 8.3047,-0.617 10.3711,3.035 l 21.2695,37.875 c 24.9258,-8.972 53.2974,0.848 67.0784,24.317 15.636,26.652 6.816,60.66 -19.864,76.316" /></g></g></g></g></svg>